M48
INCH
T37C0.035
T36C0.042
T35C0.046
T34C0.040
%
T37
X015354Y015256
X016929Y023327
X016929Y021260
T34
X005118Y040354
X005118Y004921
X010039Y037402
X010039Y035433
X010039Y033465
X010039Y031496
X010039Y029528
X010039Y027559
X010039Y025591
X010039Y023622
X010039Y021654
X010039Y019685
X010039Y017717
X010039Y015748
X010039Y013780
X010039Y011811
X010039Y009843
X010039Y007874
X012008Y036417
X012008Y034449
X012008Y032480
X012008Y030512
X012008Y028543
X012008Y026575
X012008Y024606
X012008Y022638
X012008Y020669
X012008Y018701
X012008Y016732
X012008Y014764
X012008Y012795
X012008Y010827
X012008Y008858
X016535Y040354
X016535Y004921
X016732Y036449
X016732Y032449
X016732Y028575
X016732Y024575
X016732Y016764
X016732Y012764
X017913Y036449
X017913Y032449
X017913Y028606
X017913Y024606
X017913Y022669
X017913Y018669
X017913Y016764
X017913Y012764
T36
X002559Y037638
X002559Y036638
X002559Y035638
X002559Y034638
X002559Y033638
X002559Y032638
X002559Y031638
X002559Y030638
X002559Y029638
X002559Y028638
X002559Y027638
X002559Y026638
X002559Y025638
X002559Y024638
X002559Y023638
X002559Y022638
X002559Y021638
X002559Y020638
X002559Y019638
X002559Y018638
X002559Y017638
X002559Y016638
X002559Y015638
X002559Y014638
X002559Y013638
X002559Y012638
X002559Y011638
X002559Y010638
X002559Y009638
X002559Y008638
X002559Y007638
X013870Y020669
X014870Y020669
T35
X013870Y036417
X013870Y032480
X013870Y028543
X013870Y024606
X013870Y016732
X013870Y012795
X014870Y036417
X014870Y032480
X014870Y028543
X014870Y024606
X014870Y016732
X014870Y012795
X015945Y008071
M30
