G04 start of page 7 for group -4063 idx -4063 *
G04 Title: 01.003.00.01.01.pcb, componentmask *
G04 Creator: pcb 4.1.2 *
G04 CreationDate: Sat Sep  1 10:35:09 2018 UTC *
G04 For: bert *
G04 Format: Gerber/RS-274X *
G04 PCB-Dimensions (mil): 6692.91 4330.71 *
G04 PCB-Coordinate-Origin: lower left *
%MOIN*%
%FSLAX25Y25*%
%LNGTS*%
%ADD57C,0.1100*%
%ADD56C,0.0720*%
%ADD55C,0.0660*%
%ADD54C,0.0760*%
%ADD53C,0.0001*%
%ADD52C,0.0750*%
%ADD51C,0.2760*%
%ADD50C,0.0710*%
%ADD49C,0.1460*%
G54D49*X37402Y49213D03*
G54D50*X118110Y39370D03*
G54D51*X334646Y49213D03*
G54D52*X283465D03*
G54D53*G36*
X386700Y178871D02*Y172271D01*
X393300D01*
Y178871D01*
X386700D01*
G37*
G36*
Y158871D02*Y152271D01*
X393300D01*
Y158871D01*
X386700D01*
G37*
G36*
Y168871D02*Y162271D01*
X393300D01*
Y168871D01*
X386700D01*
G37*
G36*
X340944Y112068D02*Y104468D01*
X348544D01*
Y112068D01*
X340944D01*
G37*
G36*
X541200Y101871D02*Y94271D01*
X548800D01*
Y101871D01*
X541200D01*
G37*
G54D54*X455000Y98071D03*
X254744Y108268D03*
G54D53*G36*
X386700Y81371D02*Y74771D01*
X393300D01*
Y81371D01*
X386700D01*
G37*
G36*
Y91371D02*Y84771D01*
X393300D01*
Y91371D01*
X386700D01*
G37*
G36*
Y71371D02*Y64771D01*
X393300D01*
Y71371D01*
X386700D01*
G37*
G36*
Y138871D02*Y132271D01*
X393300D01*
Y138871D01*
X386700D01*
G37*
G36*
Y118871D02*Y112271D01*
X393300D01*
Y118871D01*
X386700D01*
G37*
G36*
Y148871D02*Y142271D01*
X393300D01*
Y148871D01*
X386700D01*
G37*
G36*
Y128871D02*Y122271D01*
X393300D01*
Y128871D01*
X386700D01*
G37*
G36*
Y238871D02*Y232271D01*
X393300D01*
Y238871D01*
X386700D01*
G37*
G36*
Y218871D02*Y212271D01*
X393300D01*
Y218871D01*
X386700D01*
G37*
G36*
Y198871D02*Y192271D01*
X393300D01*
Y198871D01*
X386700D01*
G37*
G36*
Y228871D02*Y222271D01*
X393300D01*
Y228871D01*
X386700D01*
G37*
G36*
Y208871D02*Y202271D01*
X393300D01*
Y208871D01*
X386700D01*
G37*
G36*
Y188871D02*Y182271D01*
X393300D01*
Y188871D01*
X386700D01*
G37*
G54D55*X400000Y235571D03*
Y215571D03*
Y195571D03*
Y225571D03*
Y205571D03*
Y185571D03*
Y115571D03*
Y78071D03*
Y125571D03*
Y88071D03*
Y68071D03*
G54D53*G36*
X386700Y248871D02*Y242271D01*
X393300D01*
Y248871D01*
X386700D01*
G37*
G54D55*X400000Y245571D03*
Y175571D03*
Y155571D03*
Y135571D03*
Y165571D03*
Y145571D03*
G54D50*X196850Y39370D03*
G54D55*X64961Y206536D03*
Y196536D03*
Y186536D03*
Y176536D03*
Y166536D03*
Y156536D03*
Y146536D03*
Y136536D03*
Y126536D03*
Y116536D03*
Y106536D03*
Y96536D03*
Y86536D03*
Y76536D03*
Y66536D03*
G54D49*X37402Y383858D03*
G54D50*X118110Y393701D03*
G54D53*G36*
X61661Y369836D02*Y363236D01*
X68261D01*
Y369836D01*
X61661D01*
G37*
G54D55*X64961Y356536D03*
Y346536D03*
Y336536D03*
Y326536D03*
G54D53*G36*
X386700Y358871D02*Y352271D01*
X393300D01*
Y358871D01*
X386700D01*
G37*
G54D55*X400000Y355571D03*
G54D53*G36*
X386700Y368871D02*Y362271D01*
X393300D01*
Y368871D01*
X386700D01*
G37*
G54D55*X400000Y365571D03*
G54D53*G36*
X386700Y298871D02*Y292271D01*
X393300D01*
Y298871D01*
X386700D01*
G37*
G36*
Y278871D02*Y272271D01*
X393300D01*
Y278871D01*
X386700D01*
G37*
G36*
Y258871D02*Y252271D01*
X393300D01*
Y258871D01*
X386700D01*
G37*
G36*
Y308871D02*Y302271D01*
X393300D01*
Y308871D01*
X386700D01*
G37*
G36*
Y288871D02*Y282271D01*
X393300D01*
Y288871D01*
X386700D01*
G37*
G36*
Y268871D02*Y262271D01*
X393300D01*
Y268871D01*
X386700D01*
G37*
G54D55*X400000Y295571D03*
Y275571D03*
Y255571D03*
Y305571D03*
Y285571D03*
Y265571D03*
G54D53*G36*
X386700Y338871D02*Y332271D01*
X393300D01*
Y338871D01*
X386700D01*
G37*
G54D55*X400000Y335571D03*
G54D53*G36*
X386700Y318871D02*Y312271D01*
X393300D01*
Y318871D01*
X386700D01*
G37*
G54D55*X400000Y315571D03*
G54D53*G36*
X386700Y328871D02*Y322271D01*
X393300D01*
Y328871D01*
X386700D01*
G37*
G54D55*X400000Y325571D03*
G54D53*G36*
X386700Y348871D02*Y342271D01*
X393300D01*
Y348871D01*
X386700D01*
G37*
G54D55*X400000Y345571D03*
G54D49*X336615Y383858D03*
G54D50*X196850Y393701D03*
G54D55*X64961Y316536D03*
Y306536D03*
Y296536D03*
Y286536D03*
Y276536D03*
Y266536D03*
Y256536D03*
Y246536D03*
Y236536D03*
Y226536D03*
Y216536D03*
G54D53*G36*
X619233Y367774D02*Y360574D01*
X626433D01*
Y367774D01*
X619233D01*
G37*
G54D56*X612991Y354332D03*
X622833Y344489D03*
Y324804D03*
Y305119D03*
G54D57*X632676Y383859D03*
G54D56*X612991Y334647D03*
Y314961D03*
Y295276D03*
Y275591D03*
Y255906D03*
Y236221D03*
X622833Y285434D03*
Y265749D03*
Y246064D03*
X612991Y216537D03*
Y196852D03*
Y177167D03*
X622833Y226379D03*
Y206694D03*
Y187009D03*
Y167324D03*
X612991Y157481D03*
Y137796D03*
Y118111D03*
Y98426D03*
Y78741D03*
X622833Y147639D03*
Y127954D03*
Y108269D03*
Y88584D03*
Y68899D03*
G54D57*X632676Y49213D03*
M02*
