M48
INCH
T61C0.052
T60C0.038
T59C0.035
T58C0.046
T57C0.146
T56C0.040
%
T59
X039000Y036557
X039000Y035557
X039000Y034557
X039000Y033557
X039000Y032557
X039000Y031557
X039000Y030557
X039000Y029557
X039000Y028557
X039000Y027557
X039000Y026557
X039000Y025557
X039000Y024557
X039000Y023557
X039000Y022557
X039000Y021557
X039000Y020557
X039000Y019557
X039000Y018557
X039000Y017557
X039000Y016557
X039000Y015557
X039000Y014557
X039000Y013557
X039000Y012557
X039000Y011557
X039000Y008807
X039000Y007807
X039000Y006807
X040000Y036557
X040000Y035557
X040000Y034557
X040000Y033557
X040000Y032557
X040000Y031557
X040000Y030557
X040000Y029557
X040000Y028557
X040000Y027557
X040000Y026557
X040000Y025557
X040000Y024557
X040000Y023557
X040000Y022557
X040000Y021557
X040000Y020557
X040000Y019557
X040000Y018557
X040000Y017557
X040000Y016557
X040000Y015557
X040000Y014557
X040000Y013557
X040000Y012557
X040000Y011557
X040000Y008807
X040000Y007807
X040000Y006807
T60
X006496Y036654
X006496Y035654
X006496Y034654
X006496Y033654
X006496Y032654
X006496Y031654
X006496Y030654
X006496Y029654
X006496Y028654
X006496Y027654
X006496Y026654
X006496Y025654
X006496Y024654
X006496Y023654
X006496Y022654
X006496Y021654
X006496Y020654
X006496Y019654
X006496Y018654
X006496Y017654
X006496Y016654
X006496Y015654
X006496Y014654
X006496Y013654
X006496Y012654
X006496Y011654
X006496Y010654
X006496Y009654
X006496Y008654
X006496Y007654
X006496Y006654
T56
X011811Y039370
X011811Y003937
X019685Y039370
X019685Y003937
X025474Y010827
X034474Y010827
X045500Y009807
X054500Y009807
T58
X028346Y004921
T61
X061299Y035433
X061299Y033465
X061299Y031496
X061299Y029528
X061299Y027559
X061299Y025591
X061299Y023622
X061299Y021654
X061299Y019685
X061299Y017717
X061299Y015748
X061299Y013780
X061299Y011811
X061299Y009843
X061299Y007874
X062283Y036417
X062283Y034449
X062283Y032480
X062283Y030512
X062283Y028543
X062283Y026575
X062283Y024606
X062283Y022638
X062283Y020669
X062283Y018701
X062283Y016732
X062283Y014764
X062283Y012795
X062283Y010827
X062283Y008858
X062283Y006890
T57
X033465Y004921
M30
