M48
INCH
T37C0.035
T36C0.042
T35C0.046
T34C0.040
%
T37
X012697Y027559
X012697Y025984
X015748Y018110
X016929Y023327
X016929Y021260
X017323Y017520
T34
X005118Y040354
X005118Y004921
X010040Y036417
X010040Y034449
X010040Y032480
X010040Y030512
X010040Y028543
X010040Y026575
X010040Y024606
X010040Y022638
X010040Y020669
X010040Y018701
X010040Y016732
X010040Y014764
X010040Y012795
X010040Y010827
X010040Y008858
X012008Y037402
X012008Y035433
X012008Y033465
X012008Y031496
X012008Y029528
X012008Y027559
X012008Y025591
X012008Y023622
X012008Y021654
X012008Y019685
X012008Y017717
X012008Y015748
X012008Y013780
X012008Y011811
X012008Y009843
X012008Y007874
X016535Y040354
X016535Y004921
X016732Y036449
X016732Y032449
X016732Y028575
X016732Y024575
X016732Y016764
X016732Y012764
X017913Y036449
X017913Y032449
X017913Y028606
X017913Y024606
X017913Y022669
X017913Y018669
X017913Y016764
X017913Y012764
T36
X002559Y037638
X002559Y036638
X002559Y035638
X002559Y034638
X002559Y033638
X002559Y032638
X002559Y031638
X002559Y030638
X002559Y029638
X002559Y028638
X002559Y027638
X002559Y026638
X002559Y025638
X002559Y024638
X002559Y023638
X002559Y022638
X002559Y021638
X002559Y020638
X002559Y019638
X002559Y018638
X002559Y017638
X002559Y016638
X002559Y015638
X002559Y014638
X002559Y013638
X002559Y012638
X002559Y011638
X002559Y010638
X002559Y009638
X002559Y008638
X002559Y007638
X013870Y020669
X014870Y020669
T35
X013870Y036417
X013870Y032480
X013870Y028543
X013870Y024606
X013870Y016732
X013870Y012795
X014870Y036417
X014870Y032480
X014870Y028543
X014870Y024606
X014870Y016732
X014870Y012795
X015945Y008071
M30
