G04 start of page 10 for group -3984 idx -3984 *
G04 Title: 01.003.00.01.01.pcb, fab *
G04 Creator: pcb 4.2.0 *
G04 CreationDate: Mon Aug 12 16:43:32 2019 UTC *
G04 For: bert *
G04 Format: Gerber/RS-274X *
G04 PCB-Dimensions (mil): 7086.61 4724.41 *
G04 PCB-Coordinate-Origin: lower left *
%MOIN*%
%FSLAX25Y25*%
%LNFAB*%
%ADD73C,0.0100*%
%ADD72C,0.0060*%
%ADD71C,0.0080*%
G54D71*X37402Y426428D02*Y420028D01*
X34202Y423228D02*X40602D01*
X35802Y424828D02*X39002D01*
X35802D02*Y421628D01*
X39002D01*
Y424828D02*Y421628D01*
X37402Y91783D02*Y85383D01*
X34202Y88583D02*X40602D01*
X35802Y90183D02*X39002D01*
X35802D02*Y86983D01*
X39002D01*
Y90183D02*Y86983D01*
X332246Y90983D02*X337046Y86183D01*
X332246D02*X337046Y90983D01*
X333046Y90183D02*X336246D01*
X333046D02*Y86983D01*
X336246D01*
Y90183D02*Y86983D01*
X336615Y426428D02*Y420028D01*
X333415Y423228D02*X339815D01*
X335015Y424828D02*X338215D01*
X335015D02*Y421628D01*
X338215D01*
Y424828D02*Y421628D01*
X12600Y486091D02*X17400Y481291D01*
X12600D02*X17400Y486091D01*
X13400Y485291D02*X16600D01*
X13400D02*Y482091D01*
X16600D01*
Y485291D02*Y482091D01*
G54D72*X135000Y486241D02*X137400Y483241D01*
Y479941D01*
X139800Y486241D02*X137400Y483241D01*
X141600Y486241D02*Y479941D01*
Y486241D02*X145500D01*
X141600Y483241D02*X144000D01*
X141600Y479941D02*X145500D01*
X151500Y485341D02*X150900Y485941D01*
X150000Y486241D01*
X148800D02*X150000D01*
X148800D02*X147900Y485941D01*
X147300Y485341D01*
Y484741D01*
X147600Y484141D01*
X147900Y483841D01*
X148500Y483541D01*
X150300Y482941D01*
X150900Y482641D01*
X151200Y482341D01*
X151500Y481741D01*
Y480841D01*
X150900Y480241D01*
X150000Y479941D01*
X148800D02*X150000D01*
X148800D02*X147900Y480241D01*
X147300Y480841D01*
X98000Y485041D02*X98600Y485341D01*
X99500Y486241D01*
Y479941D01*
X15000Y501891D02*Y495491D01*
X11800Y498691D02*X18200D01*
X13400Y500291D02*X16600D01*
X13400D02*Y497091D01*
X16600D01*
Y500291D02*Y497091D01*
X140000Y501241D02*Y494941D01*
Y501241D02*X144200Y494941D01*
Y501241D02*Y494941D01*
X147800Y501241D02*X147200Y500941D01*
X146600Y500341D01*
X146300Y499741D01*
X146000Y498841D01*
Y497341D01*
X146300Y496441D01*
X146600Y495841D01*
X147200Y495241D01*
X147800Y494941D01*
X149000D01*
X149600Y495241D01*
X150200Y495841D01*
X150500Y496441D01*
X150800Y497341D01*
Y498841D02*Y497341D01*
Y498841D02*X150500Y499741D01*
X150200Y500341D01*
X149600Y500941D01*
X149000Y501241D01*
X147800D02*X149000D01*
X98600D02*X101900D01*
X100100Y498841D01*
X101000D01*
X101600Y498541D01*
X101900Y498241D01*
X102200Y497341D01*
Y496741D01*
X101900Y495841D01*
X101300Y495241D01*
X100400Y494941D01*
X99500D02*X100400D01*
X99500D02*X98600Y495241D01*
X98300Y495541D01*
X98000Y496141D01*
X46800Y501241D02*X45900Y500941D01*
X45300Y500041D01*
X45000Y498541D01*
Y497641D01*
X45300Y496141D01*
X45900Y495241D01*
X46800Y494941D01*
X47400D01*
X48300Y495241D01*
X48900Y496141D01*
X49200Y497641D01*
Y498541D02*Y497641D01*
Y498541D02*X48900Y500041D01*
X48300Y500941D01*
X47400Y501241D01*
X46800D02*X47400D01*
X51300Y495541D02*X51000Y495241D01*
X51300Y494941D01*
X51600Y495241D01*
X51300Y495541D01*
X53400Y500041D02*X54000Y500341D01*
X54900Y501241D01*
Y494941D01*
X59700Y501241D02*X56700Y497041D01*
X61200D01*
X59700Y501241D02*Y494941D01*
X66600Y500341D02*X66300Y500941D01*
X65400Y501241D01*
X64800D02*X65400D01*
X64800D02*X63900Y500941D01*
X63300Y500041D01*
X63000Y498541D01*
Y497041D01*
X63300Y495841D01*
X63900Y495241D01*
X64800Y494941D01*
X65100D01*
X66000Y495241D01*
X66600Y495841D01*
X66900Y496741D01*
Y497041D02*Y496741D01*
Y497041D02*X66600Y497941D01*
X66000Y498541D01*
X65100Y498841D01*
X64800D02*X65100D01*
X64800D02*X63900Y498541D01*
X63300Y497941D01*
X63000Y497041D01*
X46800Y486241D02*X45900Y485941D01*
X45300Y485041D01*
X45000Y483541D01*
Y482641D01*
X45300Y481141D01*
X45900Y480241D01*
X46800Y479941D01*
X47400D01*
X48300Y480241D01*
X48900Y481141D01*
X49200Y482641D01*
Y483541D02*Y482641D01*
Y483541D02*X48900Y485041D01*
X48300Y485941D01*
X47400Y486241D01*
X46800D02*X47400D01*
X51300Y480541D02*X51000Y480241D01*
X51300Y479941D01*
X51600Y480241D01*
X51300Y480541D01*
X53400Y485041D02*X54000Y485341D01*
X54900Y486241D01*
Y479941D01*
X59700Y486241D02*X56700Y482041D01*
X61200D01*
X59700Y486241D02*Y479941D01*
X66600Y485341D02*X66300Y485941D01*
X65400Y486241D01*
X64800D02*X65400D01*
X64800D02*X63900Y485941D01*
X63300Y485041D01*
X63000Y483541D01*
Y482041D01*
X63300Y480841D01*
X63900Y480241D01*
X64800Y479941D01*
X65100D01*
X66000Y480241D01*
X66600Y480841D01*
X66900Y481741D01*
Y482041D02*Y481741D01*
Y482041D02*X66600Y482941D01*
X66000Y483541D01*
X65100Y483841D01*
X64800D02*X65100D01*
X64800D02*X63900Y483541D01*
X63300Y482941D01*
X63000Y482041D01*
X632676Y423229D02*Y420029D01*
Y423229D02*X635449Y424829D01*
X632676Y423229D02*X629903Y424829D01*
X631076Y423229D02*G75*G03X634276Y423229I1600J0D01*G01*
G75*G03X631076Y423229I-1600J0D01*G01*
X632676Y88583D02*Y85383D01*
Y88583D02*X635449Y90183D01*
X632676Y88583D02*X629903Y90183D01*
X631076Y88583D02*G75*G03X634276Y88583I1600J0D01*G01*
G75*G03X631076Y88583I-1600J0D01*G01*
X15000Y513691D02*Y510491D01*
Y513691D02*X17773Y515291D01*
X15000Y513691D02*X12227Y515291D01*
X13400Y513691D02*G75*G03X16600Y513691I1600J0D01*G01*
G75*G03X13400Y513691I-1600J0D01*G01*
X140000Y516241D02*Y509941D01*
Y516241D02*X144200Y509941D01*
Y516241D02*Y509941D01*
X147800Y516241D02*X147200Y515941D01*
X146600Y515341D01*
X146300Y514741D01*
X146000Y513841D01*
Y512341D01*
X146300Y511441D01*
X146600Y510841D01*
X147200Y510241D01*
X147800Y509941D01*
X149000D01*
X149600Y510241D01*
X150200Y510841D01*
X150500Y511441D01*
X150800Y512341D01*
Y513841D02*Y512341D01*
Y513841D02*X150500Y514741D01*
X150200Y515341D01*
X149600Y515941D01*
X149000Y516241D01*
X147800D02*X149000D01*
X98300Y515041D02*Y514741D01*
Y515041D02*X98600Y515641D01*
X98900Y515941D01*
X99500Y516241D01*
X100700D01*
X101300Y515941D01*
X101600Y515641D01*
X101900Y515041D01*
Y514441D01*
X101600Y513841D01*
X101000Y512941D01*
X98000Y509941D01*
X102200D01*
X46800Y516241D02*X45900Y515941D01*
X45300Y515041D01*
X45000Y513541D01*
Y512641D01*
X45300Y511141D01*
X45900Y510241D01*
X46800Y509941D01*
X47400D01*
X48300Y510241D01*
X48900Y511141D01*
X49200Y512641D01*
Y513541D02*Y512641D01*
Y513541D02*X48900Y515041D01*
X48300Y515941D01*
X47400Y516241D01*
X46800D02*X47400D01*
X51300Y510541D02*X51000Y510241D01*
X51300Y509941D01*
X51600Y510241D01*
X51300Y510541D01*
X53400Y515041D02*X54000Y515341D01*
X54900Y516241D01*
Y509941D01*
X56700Y515041D02*X57300Y515341D01*
X58200Y516241D01*
Y509941D01*
X61800Y516241D02*X60900Y515941D01*
X60300Y515041D01*
X60000Y513541D01*
Y512641D01*
X60300Y511141D01*
X60900Y510241D01*
X61800Y509941D01*
X62400D01*
X63300Y510241D01*
X63900Y511141D01*
X64200Y512641D01*
Y513541D02*Y512641D01*
Y513541D02*X63900Y515041D01*
X63300Y515941D01*
X62400Y516241D01*
X61800D02*X62400D01*
X621233Y405144D02*X624433D01*
X621233D02*Y401944D01*
X624433D01*
Y405144D02*Y401944D01*
X611391Y395302D02*X614591D01*
X611391D02*Y392102D01*
X614591D01*
Y395302D02*Y392102D01*
X621233Y385459D02*X624433D01*
X621233D02*Y382259D01*
X624433D01*
Y385459D02*Y382259D01*
X611391Y375617D02*X614591D01*
X611391D02*Y372417D01*
X614591D01*
Y375617D02*Y372417D01*
X621233Y365774D02*X624433D01*
X621233D02*Y362574D01*
X624433D01*
Y365774D02*Y362574D01*
X611391Y355931D02*X614591D01*
X611391D02*Y352731D01*
X614591D01*
Y355931D02*Y352731D01*
X621233Y346089D02*X624433D01*
X621233D02*Y342889D01*
X624433D01*
Y346089D02*Y342889D01*
X611391Y336246D02*X614591D01*
X611391D02*Y333046D01*
X614591D01*
Y336246D02*Y333046D01*
X621233Y326404D02*X624433D01*
X621233D02*Y323204D01*
X624433D01*
Y326404D02*Y323204D01*
X611391Y316561D02*X614591D01*
X611391D02*Y313361D01*
X614591D01*
Y316561D02*Y313361D01*
X621233Y306719D02*X624433D01*
X621233D02*Y303519D01*
X624433D01*
Y306719D02*Y303519D01*
X611391Y296876D02*X614591D01*
X611391D02*Y293676D01*
X614591D01*
Y296876D02*Y293676D01*
X621233Y287034D02*X624433D01*
X621233D02*Y283834D01*
X624433D01*
Y287034D02*Y283834D01*
X611391Y277191D02*X614591D01*
X611391D02*Y273991D01*
X614591D01*
Y277191D02*Y273991D01*
X621233Y267349D02*X624433D01*
X621233D02*Y264149D01*
X624433D01*
Y267349D02*Y264149D01*
X611391Y257507D02*X614591D01*
X611391D02*Y254307D01*
X614591D01*
Y257507D02*Y254307D01*
X611391Y237822D02*X614591D01*
X611391D02*Y234622D01*
X614591D01*
Y237822D02*Y234622D01*
X621233Y247664D02*X624433D01*
X621233D02*Y244464D01*
X624433D01*
Y247664D02*Y244464D01*
X621233Y227979D02*X624433D01*
X621233D02*Y224779D01*
X624433D01*
Y227979D02*Y224779D01*
X611391Y218137D02*X614591D01*
X611391D02*Y214937D01*
X614591D01*
Y218137D02*Y214937D01*
X621233Y208294D02*X624433D01*
X621233D02*Y205094D01*
X624433D01*
Y208294D02*Y205094D01*
X611391Y198451D02*X614591D01*
X611391D02*Y195251D01*
X614591D01*
Y198451D02*Y195251D01*
X621233Y188609D02*X624433D01*
X621233D02*Y185409D01*
X624433D01*
Y188609D02*Y185409D01*
X611391Y178766D02*X614591D01*
X611391D02*Y175566D01*
X614591D01*
Y178766D02*Y175566D01*
X621233Y168924D02*X624433D01*
X621233D02*Y165724D01*
X624433D01*
Y168924D02*Y165724D01*
X611391Y159081D02*X614591D01*
X611391D02*Y155881D01*
X614591D01*
Y159081D02*Y155881D01*
X621233Y149239D02*X624433D01*
X621233D02*Y146039D01*
X624433D01*
Y149239D02*Y146039D01*
X611391Y139396D02*X614591D01*
X611391D02*Y136196D01*
X614591D01*
Y139396D02*Y136196D01*
X621233Y129554D02*X624433D01*
X621233D02*Y126354D01*
X624433D01*
Y129554D02*Y126354D01*
X611391Y119711D02*X614591D01*
X611391D02*Y116511D01*
X614591D01*
Y119711D02*Y116511D01*
X621233Y109869D02*X624433D01*
X621233D02*Y106669D01*
X624433D01*
Y109869D02*Y106669D01*
X13400Y530291D02*X16600D01*
X13400D02*Y527091D01*
X16600D01*
Y530291D02*Y527091D01*
X135000Y531241D02*X137400Y528241D01*
Y524941D01*
X139800Y531241D02*X137400Y528241D01*
X141600Y531241D02*Y524941D01*
Y531241D02*X145500D01*
X141600Y528241D02*X144000D01*
X141600Y524941D02*X145500D01*
X151500Y530341D02*X150900Y530941D01*
X150000Y531241D01*
X148800D02*X150000D01*
X148800D02*X147900Y530941D01*
X147300Y530341D01*
Y529741D01*
X147600Y529141D01*
X147900Y528841D01*
X148500Y528541D01*
X150300Y527941D01*
X150900Y527641D01*
X151200Y527341D01*
X151500Y526741D01*
Y525841D01*
X150900Y525241D01*
X150000Y524941D01*
X148800D02*X150000D01*
X148800D02*X147900Y525241D01*
X147300Y525841D01*
X98600Y531241D02*X101900D01*
X100100Y528841D01*
X101000D01*
X101600Y528541D01*
X101900Y528241D01*
X102200Y527341D01*
Y526741D01*
X101900Y525841D01*
X101300Y525241D01*
X100400Y524941D01*
X99500D02*X100400D01*
X99500D02*X98600Y525241D01*
X98300Y525541D01*
X98000Y526141D01*
X104000Y530041D02*X104600Y530341D01*
X105500Y531241D01*
Y524941D01*
X46800Y531241D02*X45900Y530941D01*
X45300Y530041D01*
X45000Y528541D01*
Y527641D01*
X45300Y526141D01*
X45900Y525241D01*
X46800Y524941D01*
X47400D01*
X48300Y525241D01*
X48900Y526141D01*
X49200Y527641D01*
Y528541D02*Y527641D01*
Y528541D02*X48900Y530041D01*
X48300Y530941D01*
X47400Y531241D01*
X46800D02*X47400D01*
X51300Y525541D02*X51000Y525241D01*
X51300Y524941D01*
X51600Y525241D01*
X51300Y525541D01*
X55200Y531241D02*X54300Y530941D01*
X53700Y530041D01*
X53400Y528541D01*
Y527641D01*
X53700Y526141D01*
X54300Y525241D01*
X55200Y524941D01*
X55800D01*
X56700Y525241D01*
X57300Y526141D01*
X57600Y527641D01*
Y528541D02*Y527641D01*
Y528541D02*X57300Y530041D01*
X56700Y530941D01*
X55800Y531241D01*
X55200D02*X55800D01*
X60000D02*X63000D01*
X60000D02*X59700Y528541D01*
X60000Y528841D01*
X60900Y529141D01*
X61800D01*
X62700Y528841D01*
X63300Y528241D01*
X63600Y527341D01*
Y526741D01*
X63300Y525841D01*
X62700Y525241D01*
X61800Y524941D01*
X60900D02*X61800D01*
X60900D02*X60000Y525241D01*
X59700Y525541D01*
X59400Y526141D01*
X65700Y530041D02*Y529741D01*
Y530041D02*X66000Y530641D01*
X66300Y530941D01*
X66900Y531241D01*
X68100D01*
X68700Y530941D01*
X69000Y530641D01*
X69300Y530041D01*
Y529441D01*
X69000Y528841D01*
X68400Y527941D01*
X65400Y524941D01*
X69600D01*
X282665Y88583D02*G75*G03X284265Y88583I800J0D01*G01*
G75*G03X282665Y88583I-800J0D01*G01*
X14200Y543691D02*G75*G03X15800Y543691I800J0D01*G01*
G75*G03X14200Y543691I-800J0D01*G01*
X135000Y546241D02*X137400Y543241D01*
Y539941D01*
X139800Y546241D02*X137400Y543241D01*
X141600Y546241D02*Y539941D01*
Y546241D02*X145500D01*
X141600Y543241D02*X144000D01*
X141600Y539941D02*X145500D01*
X151500Y545341D02*X150900Y545941D01*
X150000Y546241D01*
X148800D02*X150000D01*
X148800D02*X147900Y545941D01*
X147300Y545341D01*
Y544741D01*
X147600Y544141D01*
X147900Y543841D01*
X148500Y543541D01*
X150300Y542941D01*
X150900Y542641D01*
X151200Y542341D01*
X151500Y541741D01*
Y540841D01*
X150900Y540241D01*
X150000Y539941D01*
X148800D02*X150000D01*
X148800D02*X147900Y540241D01*
X147300Y540841D01*
X98000Y545041D02*X98600Y545341D01*
X99500Y546241D01*
Y539941D01*
X46800Y546241D02*X45900Y545941D01*
X45300Y545041D01*
X45000Y543541D01*
Y542641D01*
X45300Y541141D01*
X45900Y540241D01*
X46800Y539941D01*
X47400D01*
X48300Y540241D01*
X48900Y541141D01*
X49200Y542641D01*
Y543541D02*Y542641D01*
Y543541D02*X48900Y545041D01*
X48300Y545941D01*
X47400Y546241D01*
X46800D02*X47400D01*
X51300Y540541D02*X51000Y540241D01*
X51300Y539941D01*
X51600Y540241D01*
X51300Y540541D01*
X55200Y546241D02*X54300Y545941D01*
X53700Y545041D01*
X53400Y543541D01*
Y542641D01*
X53700Y541141D01*
X54300Y540241D01*
X55200Y539941D01*
X55800D01*
X56700Y540241D01*
X57300Y541141D01*
X57600Y542641D01*
Y543541D02*Y542641D01*
Y543541D02*X57300Y545041D01*
X56700Y545941D01*
X55800Y546241D01*
X55200D02*X55800D01*
X62400D02*X59400Y542041D01*
X63900D01*
X62400Y546241D02*Y539941D01*
X69300Y545341D02*X69000Y545941D01*
X68100Y546241D01*
X67500D02*X68100D01*
X67500D02*X66600Y545941D01*
X66000Y545041D01*
X65700Y543541D01*
Y542041D01*
X66000Y540841D01*
X66600Y540241D01*
X67500Y539941D01*
X67800D01*
X68700Y540241D01*
X69300Y540841D01*
X69600Y541741D01*
Y542041D02*Y541741D01*
Y542041D02*X69300Y542941D01*
X68700Y543541D01*
X67800Y543841D01*
X67500D02*X67800D01*
X67500D02*X66600Y543541D01*
X66000Y542941D01*
X65700Y542041D01*
X107461Y434271D02*X109861Y431871D01*
X107461D02*X109861Y434271D01*
X343544Y148838D02*X345944Y146438D01*
X343544D02*X345944Y148838D01*
X253544D02*X255944Y146438D01*
X253544D02*X255944Y148838D01*
X543800Y138641D02*X546200Y136241D01*
X543800D02*X546200Y138641D01*
X453800D02*X456200Y136241D01*
X453800D02*X456200Y138641D01*
X107461Y79940D02*X109861Y77540D01*
X107461D02*X109861Y79940D01*
X221635D02*X224035Y77540D01*
X221635D02*X224035Y79940D01*
X221635Y434271D02*X224035Y431871D01*
X221635D02*X224035Y434271D01*
X13800Y559891D02*X16200Y557491D01*
X13800D02*X16200Y559891D01*
X135000Y561241D02*X137400Y558241D01*
Y554941D01*
X139800Y561241D02*X137400Y558241D01*
X141600Y561241D02*Y554941D01*
Y561241D02*X145500D01*
X141600Y558241D02*X144000D01*
X141600Y554941D02*X145500D01*
X151500Y560341D02*X150900Y560941D01*
X150000Y561241D01*
X148800D02*X150000D01*
X148800D02*X147900Y560941D01*
X147300Y560341D01*
Y559741D01*
X147600Y559141D01*
X147900Y558841D01*
X148500Y558541D01*
X150300Y557941D01*
X150900Y557641D01*
X151200Y557341D01*
X151500Y556741D01*
Y555841D01*
X150900Y555241D01*
X150000Y554941D01*
X148800D02*X150000D01*
X148800D02*X147900Y555241D01*
X147300Y555841D01*
X99500Y561241D02*X98600Y560941D01*
X98300Y560341D01*
Y559741D01*
X98600Y559141D01*
X99200Y558841D01*
X100400Y558541D01*
X101300Y558241D01*
X101900Y557641D01*
X102200Y557041D01*
Y556141D01*
X101900Y555541D01*
X101600Y555241D01*
X100700Y554941D01*
X99500D02*X100700D01*
X99500D02*X98600Y555241D01*
X98300Y555541D01*
X98000Y556141D01*
Y557041D02*Y556141D01*
Y557041D02*X98300Y557641D01*
X98900Y558241D01*
X99800Y558541D01*
X101000Y558841D01*
X101600Y559141D01*
X101900Y559741D01*
Y560341D02*Y559741D01*
Y560341D02*X101600Y560941D01*
X100700Y561241D01*
X99500D02*X100700D01*
X46800D02*X45900Y560941D01*
X45300Y560041D01*
X45000Y558541D01*
Y557641D01*
X45300Y556141D01*
X45900Y555241D01*
X46800Y554941D01*
X47400D01*
X48300Y555241D01*
X48900Y556141D01*
X49200Y557641D01*
Y558541D02*Y557641D01*
Y558541D02*X48900Y560041D01*
X48300Y560941D01*
X47400Y561241D01*
X46800D02*X47400D01*
X51300Y555541D02*X51000Y555241D01*
X51300Y554941D01*
X51600Y555241D01*
X51300Y555541D01*
X55200Y561241D02*X54300Y560941D01*
X53700Y560041D01*
X53400Y558541D01*
Y557641D01*
X53700Y556141D01*
X54300Y555241D01*
X55200Y554941D01*
X55800D01*
X56700Y555241D01*
X57300Y556141D01*
X57600Y557641D01*
Y558541D02*Y557641D01*
Y558541D02*X57300Y560041D01*
X56700Y560941D01*
X55800Y561241D01*
X55200D02*X55800D01*
X62400D02*X59400Y557041D01*
X63900D01*
X62400Y561241D02*Y554941D01*
X67500Y561241D02*X66600Y560941D01*
X66000Y560041D01*
X65700Y558541D01*
Y557641D01*
X66000Y556141D01*
X66600Y555241D01*
X67500Y554941D01*
X68100D01*
X69000Y555241D01*
X69600Y556141D01*
X69900Y557641D01*
Y558541D02*Y557641D01*
Y558541D02*X69600Y560041D01*
X69000Y560941D01*
X68100Y561241D01*
X67500D02*X68100D01*
X64961Y407506D02*Y404306D01*
X63361Y405906D02*X66561D01*
X64961Y397506D02*Y394306D01*
X63361Y395906D02*X66561D01*
X64961Y387506D02*Y384306D01*
X63361Y385906D02*X66561D01*
X64961Y377506D02*Y374306D01*
X63361Y375906D02*X66561D01*
X64961Y367506D02*Y364306D01*
X63361Y365906D02*X66561D01*
X64961Y357506D02*Y354306D01*
X63361Y355906D02*X66561D01*
X64961Y347506D02*Y344306D01*
X63361Y345906D02*X66561D01*
X64961Y337506D02*Y334306D01*
X63361Y335906D02*X66561D01*
X64961Y327506D02*Y324306D01*
X63361Y325906D02*X66561D01*
X64961Y317506D02*Y314306D01*
X63361Y315906D02*X66561D01*
X64961Y307506D02*Y304306D01*
X63361Y305906D02*X66561D01*
X64961Y297506D02*Y294306D01*
X63361Y295906D02*X66561D01*
X64961Y287506D02*Y284306D01*
X63361Y285906D02*X66561D01*
X64961Y277506D02*Y274306D01*
X63361Y275906D02*X66561D01*
X64961Y267506D02*Y264306D01*
X63361Y265906D02*X66561D01*
X64961Y257506D02*Y254306D01*
X63361Y255906D02*X66561D01*
X64961Y247506D02*Y244306D01*
X63361Y245906D02*X66561D01*
X64961Y237506D02*Y234306D01*
X63361Y235906D02*X66561D01*
X64961Y227506D02*Y224306D01*
X63361Y225906D02*X66561D01*
X64961Y217506D02*Y214306D01*
X63361Y215906D02*X66561D01*
X64961Y207506D02*Y204306D01*
X63361Y205906D02*X66561D01*
X64961Y197506D02*Y194306D01*
X63361Y195906D02*X66561D01*
X64961Y187506D02*Y184306D01*
X63361Y185906D02*X66561D01*
X64961Y177506D02*Y174306D01*
X63361Y175906D02*X66561D01*
X64961Y167506D02*Y164306D01*
X63361Y165906D02*X66561D01*
X64961Y157506D02*Y154306D01*
X63361Y155906D02*X66561D01*
X64961Y147506D02*Y144306D01*
X63361Y145906D02*X66561D01*
X64961Y137506D02*Y134306D01*
X63361Y135906D02*X66561D01*
X64961Y127506D02*Y124306D01*
X63361Y125906D02*X66561D01*
X64961Y117506D02*Y114306D01*
X63361Y115906D02*X66561D01*
X64961Y107506D02*Y104306D01*
X63361Y105906D02*X66561D01*
X15000Y575291D02*Y572091D01*
X13400Y573691D02*X16600D01*
X135000Y576241D02*X137400Y573241D01*
Y569941D01*
X139800Y576241D02*X137400Y573241D01*
X141600Y576241D02*Y569941D01*
Y576241D02*X145500D01*
X141600Y573241D02*X144000D01*
X141600Y569941D02*X145500D01*
X151500Y575341D02*X150900Y575941D01*
X150000Y576241D01*
X148800D02*X150000D01*
X148800D02*X147900Y575941D01*
X147300Y575341D01*
Y574741D01*
X147600Y574141D01*
X147900Y573841D01*
X148500Y573541D01*
X150300Y572941D01*
X150900Y572641D01*
X151200Y572341D01*
X151500Y571741D01*
Y570841D01*
X150900Y570241D01*
X150000Y569941D01*
X148800D02*X150000D01*
X148800D02*X147900Y570241D01*
X147300Y570841D01*
X98600Y576241D02*X101900D01*
X100100Y573841D01*
X101000D01*
X101600Y573541D01*
X101900Y573241D01*
X102200Y572341D01*
Y571741D01*
X101900Y570841D01*
X101300Y570241D01*
X100400Y569941D01*
X99500D02*X100400D01*
X99500D02*X98600Y570241D01*
X98300Y570541D01*
X98000Y571141D01*
X104000Y575041D02*X104600Y575341D01*
X105500Y576241D01*
Y569941D01*
X46800Y576241D02*X45900Y575941D01*
X45300Y575041D01*
X45000Y573541D01*
Y572641D01*
X45300Y571141D01*
X45900Y570241D01*
X46800Y569941D01*
X47400D01*
X48300Y570241D01*
X48900Y571141D01*
X49200Y572641D01*
Y573541D02*Y572641D01*
Y573541D02*X48900Y575041D01*
X48300Y575941D01*
X47400Y576241D01*
X46800D02*X47400D01*
X51300Y570541D02*X51000Y570241D01*
X51300Y569941D01*
X51600Y570241D01*
X51300Y570541D01*
X55200Y576241D02*X54300Y575941D01*
X53700Y575041D01*
X53400Y573541D01*
Y572641D01*
X53700Y571141D01*
X54300Y570241D01*
X55200Y569941D01*
X55800D01*
X56700Y570241D01*
X57300Y571141D01*
X57600Y572641D01*
Y573541D02*Y572641D01*
Y573541D02*X57300Y575041D01*
X56700Y575941D01*
X55800Y576241D01*
X55200D02*X55800D01*
X60000D02*X63300D01*
X61500Y573841D01*
X62400D01*
X63000Y573541D01*
X63300Y573241D01*
X63600Y572341D01*
Y571741D01*
X63300Y570841D01*
X62700Y570241D01*
X61800Y569941D01*
X60900D02*X61800D01*
X60900D02*X60000Y570241D01*
X59700Y570541D01*
X59400Y571141D01*
X66900Y576241D02*X66000Y575941D01*
X65700Y575341D01*
Y574741D01*
X66000Y574141D01*
X66600Y573841D01*
X67800Y573541D01*
X68700Y573241D01*
X69300Y572641D01*
X69600Y572041D01*
Y571141D01*
X69300Y570541D01*
X69000Y570241D01*
X68100Y569941D01*
X66900D02*X68100D01*
X66900D02*X66000Y570241D01*
X65700Y570541D01*
X65400Y571141D01*
Y572041D02*Y571141D01*
Y572041D02*X65700Y572641D01*
X66300Y573241D01*
X67200Y573541D01*
X68400Y573841D01*
X69000Y574141D01*
X69300Y574741D01*
Y575341D02*Y574741D01*
Y575341D02*X69000Y575941D01*
X68100Y576241D01*
X66900D02*X68100D01*
X390000Y394941D02*Y393341D01*
Y394941D02*X391387Y395741D01*
X390000Y394941D02*X388613Y395741D01*
X400000Y394941D02*Y393341D01*
Y394941D02*X401387Y395741D01*
X400000Y394941D02*X398613Y395741D01*
X390000Y374941D02*Y373341D01*
Y374941D02*X391387Y375741D01*
X390000Y374941D02*X388613Y375741D01*
X400000Y374941D02*Y373341D01*
Y374941D02*X401387Y375741D01*
X400000Y374941D02*X398613Y375741D01*
X390000Y354941D02*Y353341D01*
Y354941D02*X391387Y355741D01*
X390000Y354941D02*X388613Y355741D01*
X400000Y354941D02*Y353341D01*
Y354941D02*X401387Y355741D01*
X400000Y354941D02*X398613Y355741D01*
X390000Y334941D02*Y333341D01*
Y334941D02*X391387Y335741D01*
X390000Y334941D02*X388613Y335741D01*
X400000Y334941D02*Y333341D01*
Y334941D02*X401387Y335741D01*
X400000Y334941D02*X398613Y335741D01*
X390000Y314941D02*Y313341D01*
Y314941D02*X391387Y315741D01*
X390000Y314941D02*X388613Y315741D01*
X400000Y314941D02*Y313341D01*
Y314941D02*X401387Y315741D01*
X400000Y314941D02*X398613Y315741D01*
X390000Y294941D02*Y293341D01*
Y294941D02*X391387Y295741D01*
X390000Y294941D02*X388613Y295741D01*
X400000Y294941D02*Y293341D01*
Y294941D02*X401387Y295741D01*
X400000Y294941D02*X398613Y295741D01*
X390000Y274941D02*Y273341D01*
Y274941D02*X391387Y275741D01*
X390000Y274941D02*X388613Y275741D01*
X400000Y274941D02*Y273341D01*
Y274941D02*X401387Y275741D01*
X400000Y274941D02*X398613Y275741D01*
X390000Y254941D02*Y253341D01*
Y254941D02*X391387Y255741D01*
X390000Y254941D02*X388613Y255741D01*
X400000Y254941D02*Y253341D01*
Y254941D02*X401387Y255741D01*
X400000Y254941D02*X398613Y255741D01*
X390000Y234941D02*Y233341D01*
Y234941D02*X391387Y235741D01*
X390000Y234941D02*X388613Y235741D01*
X400000Y234941D02*Y233341D01*
Y234941D02*X401387Y235741D01*
X400000Y234941D02*X398613Y235741D01*
X390000Y214941D02*Y213341D01*
Y214941D02*X391387Y215741D01*
X390000Y214941D02*X388613Y215741D01*
X400000Y214941D02*Y213341D01*
Y214941D02*X401387Y215741D01*
X400000Y214941D02*X398613Y215741D01*
X390000Y194941D02*Y193341D01*
Y194941D02*X391387Y195741D01*
X390000Y194941D02*X388613Y195741D01*
X400000Y194941D02*Y193341D01*
Y194941D02*X401387Y195741D01*
X400000Y194941D02*X398613Y195741D01*
X390000Y174941D02*Y173341D01*
Y174941D02*X391387Y175741D01*
X390000Y174941D02*X388613Y175741D01*
X400000Y174941D02*Y173341D01*
Y174941D02*X401387Y175741D01*
X400000Y174941D02*X398613Y175741D01*
X390000Y154941D02*Y153341D01*
Y154941D02*X391387Y155741D01*
X390000Y154941D02*X388613Y155741D01*
X400000Y154941D02*Y153341D01*
Y154941D02*X401387Y155741D01*
X400000Y154941D02*X398613Y155741D01*
X390000Y117441D02*Y115841D01*
Y117441D02*X391387Y118241D01*
X390000Y117441D02*X388613Y118241D01*
X400000Y117441D02*Y115841D01*
Y117441D02*X401387Y118241D01*
X400000Y117441D02*X398613Y118241D01*
X390000Y404941D02*Y403341D01*
Y404941D02*X391387Y405741D01*
X390000Y404941D02*X388613Y405741D01*
X400000Y404941D02*Y403341D01*
Y404941D02*X401387Y405741D01*
X400000Y404941D02*X398613Y405741D01*
X390000Y384941D02*Y383341D01*
Y384941D02*X391387Y385741D01*
X390000Y384941D02*X388613Y385741D01*
X400000Y384941D02*Y383341D01*
Y384941D02*X401387Y385741D01*
X400000Y384941D02*X398613Y385741D01*
X390000Y364941D02*Y363341D01*
Y364941D02*X391387Y365741D01*
X390000Y364941D02*X388613Y365741D01*
X400000Y364941D02*Y363341D01*
Y364941D02*X401387Y365741D01*
X400000Y364941D02*X398613Y365741D01*
X390000Y344941D02*Y343341D01*
Y344941D02*X391387Y345741D01*
X390000Y344941D02*X388613Y345741D01*
X400000Y344941D02*Y343341D01*
Y344941D02*X401387Y345741D01*
X400000Y344941D02*X398613Y345741D01*
X390000Y324941D02*Y323341D01*
Y324941D02*X391387Y325741D01*
X390000Y324941D02*X388613Y325741D01*
X400000Y324941D02*Y323341D01*
Y324941D02*X401387Y325741D01*
X400000Y324941D02*X398613Y325741D01*
X390000Y304941D02*Y303341D01*
Y304941D02*X391387Y305741D01*
X390000Y304941D02*X388613Y305741D01*
X400000Y304941D02*Y303341D01*
Y304941D02*X401387Y305741D01*
X400000Y304941D02*X398613Y305741D01*
X390000Y284941D02*Y283341D01*
Y284941D02*X391387Y285741D01*
X390000Y284941D02*X388613Y285741D01*
X400000Y284941D02*Y283341D01*
Y284941D02*X401387Y285741D01*
X400000Y284941D02*X398613Y285741D01*
X390000Y264941D02*Y263341D01*
Y264941D02*X391387Y265741D01*
X390000Y264941D02*X388613Y265741D01*
X400000Y264941D02*Y263341D01*
Y264941D02*X401387Y265741D01*
X400000Y264941D02*X398613Y265741D01*
X390000Y244941D02*Y243341D01*
Y244941D02*X391387Y245741D01*
X390000Y244941D02*X388613Y245741D01*
X400000Y244941D02*Y243341D01*
Y244941D02*X401387Y245741D01*
X400000Y244941D02*X398613Y245741D01*
X390000Y224941D02*Y223341D01*
Y224941D02*X391387Y225741D01*
X390000Y224941D02*X388613Y225741D01*
X400000Y224941D02*Y223341D01*
Y224941D02*X401387Y225741D01*
X400000Y224941D02*X398613Y225741D01*
X390000Y204941D02*Y203341D01*
Y204941D02*X391387Y205741D01*
X390000Y204941D02*X388613Y205741D01*
X400000Y204941D02*Y203341D01*
Y204941D02*X401387Y205741D01*
X400000Y204941D02*X398613Y205741D01*
X390000Y184941D02*Y183341D01*
Y184941D02*X391387Y185741D01*
X390000Y184941D02*X388613Y185741D01*
X400000Y184941D02*Y183341D01*
Y184941D02*X401387Y185741D01*
X400000Y184941D02*X398613Y185741D01*
X390000Y164941D02*Y163341D01*
Y164941D02*X391387Y165741D01*
X390000Y164941D02*X388613Y165741D01*
X400000Y164941D02*Y163341D01*
Y164941D02*X401387Y165741D01*
X400000Y164941D02*X398613Y165741D01*
X390000Y127441D02*Y125841D01*
Y127441D02*X391387Y128241D01*
X390000Y127441D02*X388613Y128241D01*
X400000Y127441D02*Y125841D01*
Y127441D02*X401387Y128241D01*
X400000Y127441D02*X398613Y128241D01*
X390000Y107441D02*Y105841D01*
Y107441D02*X391387Y108241D01*
X390000Y107441D02*X388613Y108241D01*
X400000Y107441D02*Y105841D01*
Y107441D02*X401387Y108241D01*
X400000Y107441D02*X398613Y108241D01*
X15000Y588691D02*Y587091D01*
Y588691D02*X16387Y589491D01*
X15000Y588691D02*X13613Y589491D01*
X135000Y591241D02*X137400Y588241D01*
Y584941D01*
X139800Y591241D02*X137400Y588241D01*
X141600Y591241D02*Y584941D01*
Y591241D02*X145500D01*
X141600Y588241D02*X144000D01*
X141600Y584941D02*X145500D01*
X151500Y590341D02*X150900Y590941D01*
X150000Y591241D01*
X148800D02*X150000D01*
X148800D02*X147900Y590941D01*
X147300Y590341D01*
Y589741D01*
X147600Y589141D01*
X147900Y588841D01*
X148500Y588541D01*
X150300Y587941D01*
X150900Y587641D01*
X151200Y587341D01*
X151500Y586741D01*
Y585841D01*
X150900Y585241D01*
X150000Y584941D01*
X148800D02*X150000D01*
X148800D02*X147900Y585241D01*
X147300Y585841D01*
X98600Y591241D02*X101600D01*
X98600D02*X98300Y588541D01*
X98600Y588841D01*
X99500Y589141D01*
X100400D01*
X101300Y588841D01*
X101900Y588241D01*
X102200Y587341D01*
Y586741D01*
X101900Y585841D01*
X101300Y585241D01*
X100400Y584941D01*
X99500D02*X100400D01*
X99500D02*X98600Y585241D01*
X98300Y585541D01*
X98000Y586141D01*
X105500Y591241D02*X104600Y590941D01*
X104300Y590341D01*
Y589741D01*
X104600Y589141D01*
X105200Y588841D01*
X106400Y588541D01*
X107300Y588241D01*
X107900Y587641D01*
X108200Y587041D01*
Y586141D01*
X107900Y585541D01*
X107600Y585241D01*
X106700Y584941D01*
X105500D02*X106700D01*
X105500D02*X104600Y585241D01*
X104300Y585541D01*
X104000Y586141D01*
Y587041D02*Y586141D01*
Y587041D02*X104300Y587641D01*
X104900Y588241D01*
X105800Y588541D01*
X107000Y588841D01*
X107600Y589141D01*
X107900Y589741D01*
Y590341D02*Y589741D01*
Y590341D02*X107600Y590941D01*
X106700Y591241D01*
X105500D02*X106700D01*
X46800D02*X45900Y590941D01*
X45300Y590041D01*
X45000Y588541D01*
Y587641D01*
X45300Y586141D01*
X45900Y585241D01*
X46800Y584941D01*
X47400D01*
X48300Y585241D01*
X48900Y586141D01*
X49200Y587641D01*
Y588541D02*Y587641D01*
Y588541D02*X48900Y590041D01*
X48300Y590941D01*
X47400Y591241D01*
X46800D02*X47400D01*
X51300Y585541D02*X51000Y585241D01*
X51300Y584941D01*
X51600Y585241D01*
X51300Y585541D01*
X55200Y591241D02*X54300Y590941D01*
X53700Y590041D01*
X53400Y588541D01*
Y587641D01*
X53700Y586141D01*
X54300Y585241D01*
X55200Y584941D01*
X55800D01*
X56700Y585241D01*
X57300Y586141D01*
X57600Y587641D01*
Y588541D02*Y587641D01*
Y588541D02*X57300Y590041D01*
X56700Y590941D01*
X55800Y591241D01*
X55200D02*X55800D01*
X60000D02*X63300D01*
X61500Y588841D01*
X62400D01*
X63000Y588541D01*
X63300Y588241D01*
X63600Y587341D01*
Y586741D01*
X63300Y585841D01*
X62700Y585241D01*
X61800Y584941D01*
X60900D02*X61800D01*
X60900D02*X60000Y585241D01*
X59700Y585541D01*
X59400Y586141D01*
X66000Y591241D02*X69000D01*
X66000D02*X65700Y588541D01*
X66000Y588841D01*
X66900Y589141D01*
X67800D01*
X68700Y588841D01*
X69300Y588241D01*
X69600Y587341D01*
Y586741D01*
X69300Y585841D01*
X68700Y585241D01*
X67800Y584941D01*
X66900D02*X67800D01*
X66900D02*X66000Y585241D01*
X65700Y585541D01*
X65400Y586141D01*
X4200Y605341D02*X3600Y605941D01*
X2700Y606241D01*
X1500D02*X2700D01*
X1500D02*X600Y605941D01*
X0Y605341D01*
Y604741D01*
X300Y604141D01*
X600Y603841D01*
X1200Y603541D01*
X3000Y602941D01*
X3600Y602641D01*
X3900Y602341D01*
X4200Y601741D01*
Y600841D01*
X3600Y600241D01*
X2700Y599941D01*
X1500D02*X2700D01*
X1500D02*X600Y600241D01*
X0Y600841D01*
X6300Y604141D02*X8100Y599941D01*
X9900Y604141D02*X8100Y599941D01*
X7500Y598741D01*
X6900Y598141D01*
X6300Y597841D01*
X6000D02*X6300D01*
X11700Y604141D02*Y599941D01*
Y602941D02*X12600Y603841D01*
X13200Y604141D01*
X14100D01*
X14700Y603841D01*
X15000Y602941D01*
Y599941D01*
Y602941D02*X15900Y603841D01*
X16500Y604141D01*
X17400D01*
X18000Y603841D01*
X18300Y602941D01*
Y599941D01*
X20100Y606241D02*Y599941D01*
Y603241D02*X20700Y603841D01*
X21300Y604141D01*
X22200D01*
X22800Y603841D01*
X23400Y603241D01*
X23700Y602341D01*
Y601741D01*
X23400Y600841D01*
X22800Y600241D01*
X22200Y599941D01*
X21300D02*X22200D01*
X21300D02*X20700Y600241D01*
X20100Y600841D01*
X27000Y604141D02*X26400Y603841D01*
X25800Y603241D01*
X25500Y602341D01*
Y601741D01*
X25800Y600841D01*
X26400Y600241D01*
X27000Y599941D01*
X27900D01*
X28500Y600241D01*
X29100Y600841D01*
X29400Y601741D01*
Y602341D02*Y601741D01*
Y602341D02*X29100Y603241D01*
X28500Y603841D01*
X27900Y604141D01*
X27000D02*X27900D01*
X31200Y606241D02*Y599941D01*
X0Y596841D02*X33000D01*
X41000Y606241D02*Y599941D01*
Y606241D02*X43100D01*
X44000Y605941D01*
X44600Y605341D01*
X44900Y604741D01*
X45200Y603841D01*
Y602341D01*
X44900Y601441D01*
X44600Y600841D01*
X44000Y600241D01*
X43100Y599941D01*
X41000D02*X43100D01*
X47000Y606241D02*X47300Y605941D01*
X47600Y606241D01*
X47300Y606541D01*
X47000Y606241D01*
X47300Y604141D02*Y599941D01*
X53000Y604141D02*Y599941D01*
Y603241D02*X52400Y603841D01*
X51800Y604141D01*
X50900D02*X51800D01*
X50900D02*X50300Y603841D01*
X49700Y603241D01*
X49400Y602341D01*
Y601741D01*
X49700Y600841D01*
X50300Y600241D01*
X50900Y599941D01*
X51800D01*
X52400Y600241D01*
X53000Y600841D01*
X54800Y604141D02*Y599941D01*
Y602941D02*X55700Y603841D01*
X56300Y604141D01*
X57200D01*
X57800Y603841D01*
X58100Y602941D01*
Y599941D01*
Y602941D02*X59000Y603841D01*
X59600Y604141D01*
X60500D01*
X61100Y603841D01*
X61400Y602941D01*
Y599941D01*
X63500Y600541D02*X63200Y600241D01*
X63500Y599941D01*
X63800Y600241D01*
X63500Y600541D01*
X69500Y607441D02*X68900Y606841D01*
X68300Y605941D01*
X67700Y604741D01*
X67400Y603241D01*
Y602041D01*
X67700Y600541D01*
X68300Y599341D01*
X68900Y598441D01*
X69500Y597841D01*
X71300Y606241D02*Y599941D01*
X73100Y604141D02*Y599941D01*
Y602941D02*X74000Y603841D01*
X74600Y604141D01*
X75500D01*
X76100Y603841D01*
X76400Y602941D01*
Y599941D01*
X81800Y603241D02*X81200Y603841D01*
X80600Y604141D01*
X79700D02*X80600D01*
X79700D02*X79100Y603841D01*
X78500Y603241D01*
X78200Y602341D01*
Y601741D01*
X78500Y600841D01*
X79100Y600241D01*
X79700Y599941D01*
X80600D01*
X81200Y600241D01*
X81800Y600841D01*
X83600Y606241D02*Y599941D01*
Y602941D02*X84500Y603841D01*
X85100Y604141D01*
X86000D01*
X86600Y603841D01*
X86900Y602941D01*
Y599941D01*
X88700Y607441D02*X89300Y606841D01*
X89900Y605941D01*
X90500Y604741D01*
X90800Y603241D01*
Y602041D01*
X90500Y600541D01*
X89900Y599341D01*
X89300Y598441D01*
X88700Y597841D01*
X41000Y596841D02*X92600D01*
X99500Y604741D02*X99200Y605341D01*
X98600Y605941D01*
X98000Y606241D01*
X96800D02*X98000D01*
X96800D02*X96200Y605941D01*
X95600Y605341D01*
X95300Y604741D01*
X95000Y603841D01*
Y602341D01*
X95300Y601441D01*
X95600Y600841D01*
X96200Y600241D01*
X96800Y599941D01*
X98000D01*
X98600Y600241D01*
X99200Y600841D01*
X99500Y601441D01*
X102800Y604141D02*X102200Y603841D01*
X101600Y603241D01*
X101300Y602341D01*
Y601741D01*
X101600Y600841D01*
X102200Y600241D01*
X102800Y599941D01*
X103700D01*
X104300Y600241D01*
X104900Y600841D01*
X105200Y601741D01*
Y602341D02*Y601741D01*
Y602341D02*X104900Y603241D01*
X104300Y603841D01*
X103700Y604141D01*
X102800D02*X103700D01*
X107000D02*Y601141D01*
X107300Y600241D01*
X107900Y599941D01*
X108800D01*
X109400Y600241D01*
X110300Y601141D01*
Y604141D02*Y599941D01*
X112100Y604141D02*Y599941D01*
Y602941D02*X113000Y603841D01*
X113600Y604141D01*
X114500D01*
X115100Y603841D01*
X115400Y602941D01*
Y599941D01*
X118100Y606241D02*Y601141D01*
X118400Y600241D01*
X119000Y599941D01*
X119600D01*
X117200Y604141D02*X119300D01*
X95000Y596841D02*X121400D01*
X130000Y606241D02*Y599941D01*
Y606241D02*X132700D01*
X133600Y605941D01*
X133900Y605641D01*
X134200Y605041D01*
Y604141D01*
X133900Y603541D01*
X133600Y603241D01*
X132700Y602941D01*
X130000D02*X132700D01*
X136000Y606241D02*Y599941D01*
X141400Y604141D02*Y599941D01*
Y603241D02*X140800Y603841D01*
X140200Y604141D01*
X139300D02*X140200D01*
X139300D02*X138700Y603841D01*
X138100Y603241D01*
X137800Y602341D01*
Y601741D01*
X138100Y600841D01*
X138700Y600241D01*
X139300Y599941D01*
X140200D01*
X140800Y600241D01*
X141400Y600841D01*
X144100Y606241D02*Y601141D01*
X144400Y600241D01*
X145000Y599941D01*
X145600D01*
X143200Y604141D02*X145300D01*
X147400Y602341D02*X151000D01*
Y602941D02*Y602341D01*
Y602941D02*X150700Y603541D01*
X150400Y603841D01*
X149800Y604141D01*
X148900D02*X149800D01*
X148900D02*X148300Y603841D01*
X147700Y603241D01*
X147400Y602341D01*
Y601741D01*
X147700Y600841D01*
X148300Y600241D01*
X148900Y599941D01*
X149800D01*
X150400Y600241D01*
X151000Y600841D01*
X156400Y606241D02*Y599941D01*
Y603241D02*X155800Y603841D01*
X155200Y604141D01*
X154300D02*X155200D01*
X154300D02*X153700Y603841D01*
X153100Y603241D01*
X152800Y602341D01*
Y601741D01*
X153100Y600841D01*
X153700Y600241D01*
X154300Y599941D01*
X155200D01*
X155800Y600241D01*
X156400Y600841D01*
X158200Y605041D02*Y604741D01*
Y605041D02*X158500Y605641D01*
X158800Y605941D01*
X159400Y606241D01*
X160600D01*
X161200Y605941D01*
X161500Y605641D01*
X161800Y605041D01*
Y604441D01*
X161500Y603841D01*
X161200Y603541D01*
X160000Y602941D01*
Y602041D01*
Y600541D02*X159700Y600241D01*
X160000Y599941D01*
X160300Y600241D01*
X160000Y600541D01*
X130000Y596841D02*X163600D01*
X2100Y621241D02*Y614941D01*
X0Y621241D02*X4200D01*
X6000D02*Y614941D01*
Y617941D02*X6900Y618841D01*
X7500Y619141D01*
X8400D01*
X9000Y618841D01*
X9300Y617941D01*
Y614941D01*
X11100Y617341D02*X14700D01*
Y617941D02*Y617341D01*
Y617941D02*X14400Y618541D01*
X14100Y618841D01*
X13500Y619141D01*
X12600D02*X13500D01*
X12600D02*X12000Y618841D01*
X11400Y618241D01*
X11100Y617341D01*
Y616741D01*
X11400Y615841D01*
X12000Y615241D01*
X12600Y614941D01*
X13500D01*
X14100Y615241D01*
X14700Y615841D01*
X16500Y619141D02*Y614941D01*
Y617341D02*X16800Y618241D01*
X17400Y618841D01*
X18000Y619141D01*
X18900D01*
X20700Y617341D02*X24300D01*
Y617941D02*Y617341D01*
Y617941D02*X24000Y618541D01*
X23700Y618841D01*
X23100Y619141D01*
X22200D02*X23100D01*
X22200D02*X21600Y618841D01*
X21000Y618241D01*
X20700Y617341D01*
Y616741D01*
X21000Y615841D01*
X21600Y615241D01*
X22200Y614941D01*
X23100D01*
X23700Y615241D01*
X24300Y615841D01*
X31500Y619141D02*Y614941D01*
Y618241D02*X30900Y618841D01*
X30300Y619141D01*
X29400D02*X30300D01*
X29400D02*X28800Y618841D01*
X28200Y618241D01*
X27900Y617341D01*
Y616741D01*
X28200Y615841D01*
X28800Y615241D01*
X29400Y614941D01*
X30300D01*
X30900Y615241D01*
X31500Y615841D01*
X33300Y619141D02*Y614941D01*
Y617341D02*X33600Y618241D01*
X34200Y618841D01*
X34800Y619141D01*
X35700D01*
X37500Y617341D02*X41100D01*
Y617941D02*Y617341D01*
Y617941D02*X40800Y618541D01*
X40500Y618841D01*
X39900Y619141D01*
X39000D02*X39900D01*
X39000D02*X38400Y618841D01*
X37800Y618241D01*
X37500Y617341D01*
Y616741D01*
X37800Y615841D01*
X38400Y615241D01*
X39000Y614941D01*
X39900D01*
X40500Y615241D01*
X41100Y615841D01*
X48900Y621241D02*X45900Y614941D01*
X44700Y621241D02*X48900D01*
X56100D02*Y614941D01*
Y618241D02*X55500Y618841D01*
X54900Y619141D01*
X54000D02*X54900D01*
X54000D02*X53400Y618841D01*
X52800Y618241D01*
X52500Y617341D01*
Y616741D01*
X52800Y615841D01*
X53400Y615241D01*
X54000Y614941D01*
X54900D01*
X55500Y615241D01*
X56100Y615841D01*
X57900Y621241D02*X58200Y620941D01*
X58500Y621241D01*
X58200Y621541D01*
X57900Y621241D01*
X58200Y619141D02*Y614941D01*
X62100Y621241D02*X62700D01*
X62100D02*X61500Y620941D01*
X61200Y620041D01*
Y614941D01*
X60300Y619141D02*X62400D01*
X66300Y621241D02*X66900D01*
X66300D02*X65700Y620941D01*
X65400Y620041D01*
Y614941D01*
X64500Y619141D02*X66600D01*
X68700Y617341D02*X72300D01*
Y617941D02*Y617341D01*
Y617941D02*X72000Y618541D01*
X71700Y618841D01*
X71100Y619141D01*
X70200D02*X71100D01*
X70200D02*X69600Y618841D01*
X69000Y618241D01*
X68700Y617341D01*
Y616741D01*
X69000Y615841D01*
X69600Y615241D01*
X70200Y614941D01*
X71100D01*
X71700Y615241D01*
X72300Y615841D01*
X74100Y619141D02*Y614941D01*
Y617341D02*X74400Y618241D01*
X75000Y618841D01*
X75600Y619141D01*
X76500D01*
X78300Y617341D02*X81900D01*
Y617941D02*Y617341D01*
Y617941D02*X81600Y618541D01*
X81300Y618841D01*
X80700Y619141D01*
X79800D02*X80700D01*
X79800D02*X79200Y618841D01*
X78600Y618241D01*
X78300Y617341D01*
Y616741D01*
X78600Y615841D01*
X79200Y615241D01*
X79800Y614941D01*
X80700D01*
X81300Y615241D01*
X81900Y615841D01*
X83700Y619141D02*Y614941D01*
Y617941D02*X84600Y618841D01*
X85200Y619141D01*
X86100D01*
X86700Y618841D01*
X87000Y617941D01*
Y614941D01*
X89700Y621241D02*Y616141D01*
X90000Y615241D01*
X90600Y614941D01*
X91200D01*
X88800Y619141D02*X90900D01*
X98400Y621241D02*Y614941D01*
Y618241D02*X97800Y618841D01*
X97200Y619141D01*
X96300D02*X97200D01*
X96300D02*X95700Y618841D01*
X95100Y618241D01*
X94800Y617341D01*
Y616741D01*
X95100Y615841D01*
X95700Y615241D01*
X96300Y614941D01*
X97200D01*
X97800Y615241D01*
X98400Y615841D01*
X100200Y619141D02*Y614941D01*
Y617341D02*X100500Y618241D01*
X101100Y618841D01*
X101700Y619141D01*
X102600D01*
X104400Y621241D02*X104700Y620941D01*
X105000Y621241D01*
X104700Y621541D01*
X104400Y621241D01*
X104700Y619141D02*Y614941D01*
X106800Y621241D02*Y614941D01*
X108600Y621241D02*Y614941D01*
X115500Y618241D02*X115200Y618841D01*
X114300Y619141D01*
X113400D02*X114300D01*
X113400D02*X112500Y618841D01*
X112200Y618241D01*
X112500Y617641D01*
X113100Y617341D01*
X114600Y617041D01*
X115200Y616741D01*
X115500Y616141D01*
Y615841D01*
X115200Y615241D01*
X114300Y614941D01*
X113400D02*X114300D01*
X113400D02*X112500Y615241D01*
X112200Y615841D01*
X117300Y621241D02*X117600Y620941D01*
X117900Y621241D01*
X117600Y621541D01*
X117300Y621241D01*
X117600Y619141D02*Y614941D01*
X123000Y619141D02*X119700Y614941D01*
Y619141D02*X123000D01*
X119700Y614941D02*X123000D01*
X124800Y617341D02*X128400D01*
Y617941D02*Y617341D01*
Y617941D02*X128100Y618541D01*
X127800Y618841D01*
X127200Y619141D01*
X126300D02*X127200D01*
X126300D02*X125700Y618841D01*
X125100Y618241D01*
X124800Y617341D01*
Y616741D01*
X125100Y615841D01*
X125700Y615241D01*
X126300Y614941D01*
X127200D01*
X127800Y615241D01*
X128400Y615841D01*
X133500Y618241D02*X133200Y618841D01*
X132300Y619141D01*
X131400D02*X132300D01*
X131400D02*X130500Y618841D01*
X130200Y618241D01*
X130500Y617641D01*
X131100Y617341D01*
X132600Y617041D01*
X133200Y616741D01*
X133500Y616141D01*
Y615841D01*
X133200Y615241D01*
X132300Y614941D01*
X131400D02*X132300D01*
X131400D02*X130500Y615241D01*
X130200Y615841D01*
X137100Y619141D02*Y616141D01*
X137400Y615241D01*
X138000Y614941D01*
X138900D01*
X139500Y615241D01*
X140400Y616141D01*
Y619141D02*Y614941D01*
X145500Y618241D02*X145200Y618841D01*
X144300Y619141D01*
X143400D02*X144300D01*
X143400D02*X142500Y618841D01*
X142200Y618241D01*
X142500Y617641D01*
X143100Y617341D01*
X144600Y617041D01*
X145200Y616741D01*
X145500Y616141D01*
Y615841D01*
X145200Y615241D01*
X144300Y614941D01*
X143400D02*X144300D01*
X143400D02*X142500Y615241D01*
X142200Y615841D01*
X147300Y617341D02*X150900D01*
Y617941D02*Y617341D01*
Y617941D02*X150600Y618541D01*
X150300Y618841D01*
X149700Y619141D01*
X148800D02*X149700D01*
X148800D02*X148200Y618841D01*
X147600Y618241D01*
X147300Y617341D01*
Y616741D01*
X147600Y615841D01*
X148200Y615241D01*
X148800Y614941D01*
X149700D01*
X150300Y615241D01*
X150900Y615841D01*
X156300Y621241D02*Y614941D01*
Y618241D02*X155700Y618841D01*
X155100Y619141D01*
X154200D02*X155100D01*
X154200D02*X153600Y618841D01*
X153000Y618241D01*
X152700Y617341D01*
Y616741D01*
X153000Y615841D01*
X153600Y615241D01*
X154200Y614941D01*
X155100D01*
X155700Y615241D01*
X156300Y615841D01*
X159900Y621241D02*X160200Y620941D01*
X160500Y621241D01*
X160200Y621541D01*
X159900Y621241D01*
X160200Y619141D02*Y614941D01*
X162300Y619141D02*Y614941D01*
Y617941D02*X163200Y618841D01*
X163800Y619141D01*
X164700D01*
X165300Y618841D01*
X165600Y617941D01*
Y614941D01*
X170100Y621241D02*Y616141D01*
X170400Y615241D01*
X171000Y614941D01*
X171600D01*
X169200Y619141D02*X171300D01*
X173400Y621241D02*Y614941D01*
Y617941D02*X174300Y618841D01*
X174900Y619141D01*
X175800D01*
X176400Y618841D01*
X176700Y617941D01*
Y614941D01*
X178500Y621241D02*X178800Y620941D01*
X179100Y621241D01*
X178800Y621541D01*
X178500Y621241D01*
X178800Y619141D02*Y614941D01*
X184200Y618241D02*X183900Y618841D01*
X183000Y619141D01*
X182100D02*X183000D01*
X182100D02*X181200Y618841D01*
X180900Y618241D01*
X181200Y617641D01*
X181800Y617341D01*
X183300Y617041D01*
X183900Y616741D01*
X184200Y616141D01*
Y615841D01*
X183900Y615241D01*
X183000Y614941D01*
X182100D02*X183000D01*
X182100D02*X181200Y615241D01*
X180900Y615841D01*
X187800Y621241D02*Y614941D01*
X193200Y619141D02*Y614941D01*
Y618241D02*X192600Y618841D01*
X192000Y619141D01*
X191100D02*X192000D01*
X191100D02*X190500Y618841D01*
X189900Y618241D01*
X189600Y617341D01*
Y616741D01*
X189900Y615841D01*
X190500Y615241D01*
X191100Y614941D01*
X192000D01*
X192600Y615241D01*
X193200Y615841D01*
X195300Y619141D02*X197100Y614941D01*
X198900Y619141D02*X197100Y614941D01*
X196500Y613741D01*
X195900Y613141D01*
X195300Y612841D01*
X195000D02*X195300D01*
X202200Y619141D02*X201600Y618841D01*
X201000Y618241D01*
X200700Y617341D01*
Y616741D01*
X201000Y615841D01*
X201600Y615241D01*
X202200Y614941D01*
X203100D01*
X203700Y615241D01*
X204300Y615841D01*
X204600Y616741D01*
Y617341D02*Y616741D01*
Y617341D02*X204300Y618241D01*
X203700Y618841D01*
X203100Y619141D01*
X202200D02*X203100D01*
X206400D02*Y616141D01*
X206700Y615241D01*
X207300Y614941D01*
X208200D01*
X208800Y615241D01*
X209700Y616141D01*
Y619141D02*Y614941D01*
X212400Y621241D02*Y616141D01*
X212700Y615241D01*
X213300Y614941D01*
X213900D01*
X211500Y619141D02*X213600D01*
X216300Y615241D02*X216000Y614941D01*
X215700Y615241D01*
X216000Y615541D01*
X216300Y615241D01*
Y614641D01*
X216000Y614041D01*
X215700Y613741D01*
X219900Y620041D02*X220500Y620341D01*
X221400Y621241D01*
Y614941D01*
X223800Y621241D02*X227100D01*
X225300Y618841D01*
X226200D01*
X226800Y618541D01*
X227100Y618241D01*
X227400Y617341D01*
Y616741D01*
X227100Y615841D01*
X226500Y615241D01*
X225600Y614941D01*
X224700D02*X225600D01*
X224700D02*X223800Y615241D01*
X223500Y615541D01*
X223200Y616141D01*
X229800Y621241D02*X232800D01*
X229800D02*X229500Y618541D01*
X229800Y618841D01*
X230700Y619141D01*
X231600D01*
X232500Y618841D01*
X233100Y618241D01*
X233400Y617341D01*
Y616741D01*
X233100Y615841D01*
X232500Y615241D01*
X231600Y614941D01*
X230700D02*X231600D01*
X230700D02*X229800Y615241D01*
X229500Y615541D01*
X229200Y616141D01*
X237000Y621241D02*Y614941D01*
Y617941D02*X237900Y618841D01*
X238500Y619141D01*
X239400D01*
X240000Y618841D01*
X240300Y617941D01*
Y614941D01*
X243600Y619141D02*X243000Y618841D01*
X242400Y618241D01*
X242100Y617341D01*
Y616741D01*
X242400Y615841D01*
X243000Y615241D01*
X243600Y614941D01*
X244500D01*
X245100Y615241D01*
X245700Y615841D01*
X246000Y616741D01*
Y617341D02*Y616741D01*
Y617341D02*X245700Y618241D01*
X245100Y618841D01*
X244500Y619141D01*
X243600D02*X244500D01*
X247800Y621241D02*Y614941D01*
X249600Y617341D02*X253200D01*
Y617941D02*Y617341D01*
Y617941D02*X252900Y618541D01*
X252600Y618841D01*
X252000Y619141D01*
X251100D02*X252000D01*
X251100D02*X250500Y618841D01*
X249900Y618241D01*
X249600Y617341D01*
Y616741D01*
X249900Y615841D01*
X250500Y615241D01*
X251100Y614941D01*
X252000D01*
X252600Y615241D01*
X253200Y615841D01*
X258300Y618241D02*X258000Y618841D01*
X257100Y619141D01*
X256200D02*X257100D01*
X256200D02*X255300Y618841D01*
X255000Y618241D01*
X255300Y617641D01*
X255900Y617341D01*
X257400Y617041D01*
X258000Y616741D01*
X258300Y616141D01*
Y615841D01*
X258000Y615241D01*
X257100Y614941D01*
X256200D02*X257100D01*
X256200D02*X255300Y615241D01*
X255000Y615841D01*
X262800Y621241D02*Y616141D01*
X263100Y615241D01*
X263700Y614941D01*
X264300D01*
X261900Y619141D02*X264000D01*
X267600D02*X267000Y618841D01*
X266400Y618241D01*
X266100Y617341D01*
Y616741D01*
X266400Y615841D01*
X267000Y615241D01*
X267600Y614941D01*
X268500D01*
X269100Y615241D01*
X269700Y615841D01*
X270000Y616741D01*
Y617341D02*Y616741D01*
Y617341D02*X269700Y618241D01*
X269100Y618841D01*
X268500Y619141D01*
X267600D02*X268500D01*
X272700Y621241D02*Y616141D01*
X273000Y615241D01*
X273600Y614941D01*
X274200D01*
X271800Y619141D02*X273900D01*
X279600D02*Y614941D01*
Y618241D02*X279000Y618841D01*
X278400Y619141D01*
X277500D02*X278400D01*
X277500D02*X276900Y618841D01*
X276300Y618241D01*
X276000Y617341D01*
Y616741D01*
X276300Y615841D01*
X276900Y615241D01*
X277500Y614941D01*
X278400D01*
X279000Y615241D01*
X279600Y615841D01*
X281400Y621241D02*Y614941D01*
G54D73*X19685Y59055D02*X649606D01*
Y452756D01*
X19685D01*
Y59055D01*
G54D72*X263131Y-3200D02*Y-9500D01*
Y-3200D02*X265831D01*
X266731Y-3500D01*
X267031Y-3800D01*
X267331Y-4400D01*
Y-5000D01*
X267031Y-5600D01*
X266731Y-5900D01*
X265831Y-6200D01*
X263131D02*X265831D01*
X266731Y-6500D01*
X267031Y-6800D01*
X267331Y-7400D01*
Y-8300D01*
X267031Y-8900D01*
X266731Y-9200D01*
X265831Y-9500D01*
X263131D02*X265831D01*
X270631Y-5300D02*X270031Y-5600D01*
X269431Y-6200D01*
X269131Y-7100D01*
Y-7700D01*
X269431Y-8600D01*
X270031Y-9200D01*
X270631Y-9500D01*
X271531D01*
X272131Y-9200D01*
X272731Y-8600D01*
X273031Y-7700D01*
Y-7100D02*Y-7700D01*
Y-7100D02*X272731Y-6200D01*
X272131Y-5600D01*
X271531Y-5300D01*
X270631D02*X271531D01*
X278431D02*Y-9500D01*
Y-6200D02*X277831Y-5600D01*
X277231Y-5300D01*
X276331D02*X277231D01*
X276331D02*X275731Y-5600D01*
X275131Y-6200D01*
X274831Y-7100D01*
Y-7700D01*
X275131Y-8600D01*
X275731Y-9200D01*
X276331Y-9500D01*
X277231D01*
X277831Y-9200D01*
X278431Y-8600D01*
X280231Y-5300D02*Y-9500D01*
Y-7100D02*X280531Y-6200D01*
X281131Y-5600D01*
X281731Y-5300D01*
X282631D01*
X288031Y-3200D02*Y-9500D01*
Y-6200D02*X287431Y-5600D01*
X286831Y-5300D01*
X285931D02*X286831D01*
X285931D02*X285331Y-5600D01*
X284731Y-6200D01*
X284431Y-7100D01*
Y-7700D01*
X284731Y-8600D01*
X285331Y-9200D01*
X285931Y-9500D01*
X286831D01*
X287431Y-9200D01*
X288031Y-8600D01*
X293131Y-5300D02*X292531Y-5600D01*
X291931Y-6200D01*
X291631Y-7100D01*
Y-7700D01*
X291931Y-8600D01*
X292531Y-9200D01*
X293131Y-9500D01*
X294031D01*
X294631Y-9200D01*
X295231Y-8600D01*
X295531Y-7700D01*
Y-7100D02*Y-7700D01*
Y-7100D02*X295231Y-6200D01*
X294631Y-5600D01*
X294031Y-5300D01*
X293131D02*X294031D01*
X297331D02*Y-8300D01*
X297631Y-9200D01*
X298231Y-9500D01*
X299131D01*
X299731Y-9200D01*
X300631Y-8300D01*
Y-5300D02*Y-9500D01*
X303331Y-3200D02*Y-8300D01*
X303631Y-9200D01*
X304231Y-9500D01*
X304831D01*
X302431Y-5300D02*X304531D01*
X306631Y-3200D02*Y-9500D01*
X308431Y-3200D02*X308731Y-3500D01*
X309031Y-3200D01*
X308731Y-2900D01*
X308431Y-3200D01*
X308731Y-5300D02*Y-9500D01*
X310831Y-5300D02*Y-9500D01*
Y-6500D02*X311731Y-5600D01*
X312331Y-5300D01*
X313231D01*
X313831Y-5600D01*
X314131Y-6500D01*
Y-9500D01*
X315931Y-7100D02*X319531D01*
Y-6500D02*Y-7100D01*
Y-6500D02*X319231Y-5900D01*
X318931Y-5600D01*
X318331Y-5300D01*
X317431D02*X318331D01*
X317431D02*X316831Y-5600D01*
X316231Y-6200D01*
X315931Y-7100D01*
Y-7700D01*
X316231Y-8600D01*
X316831Y-9200D01*
X317431Y-9500D01*
X318331D01*
X318931Y-9200D01*
X319531Y-8600D01*
X323131Y-3200D02*X323431Y-3500D01*
X323731Y-3200D01*
X323431Y-2900D01*
X323131Y-3200D01*
X323431Y-5300D02*Y-9500D01*
X328831Y-6200D02*X328531Y-5600D01*
X327631Y-5300D01*
X326731D02*X327631D01*
X326731D02*X325831Y-5600D01*
X325531Y-6200D01*
X325831Y-6800D01*
X326431Y-7100D01*
X327931Y-7400D01*
X328531Y-7700D01*
X328831Y-8300D01*
Y-8600D01*
X328531Y-9200D01*
X327631Y-9500D01*
X326731D02*X327631D01*
X326731D02*X325831Y-9200D01*
X325531Y-8600D01*
X333331Y-3200D02*Y-8300D01*
X333631Y-9200D01*
X334231Y-9500D01*
X334831D01*
X332431Y-5300D02*X334531D01*
X336631Y-3200D02*Y-9500D01*
Y-6500D02*X337531Y-5600D01*
X338131Y-5300D01*
X339031D01*
X339631Y-5600D01*
X339931Y-6500D01*
Y-9500D01*
X341731Y-7100D02*X345331D01*
Y-6500D02*Y-7100D01*
Y-6500D02*X345031Y-5900D01*
X344731Y-5600D01*
X344131Y-5300D01*
X343231D02*X344131D01*
X343231D02*X342631Y-5600D01*
X342031Y-6200D01*
X341731Y-7100D01*
Y-7700D01*
X342031Y-8600D01*
X342631Y-9200D01*
X343231Y-9500D01*
X344131D01*
X344731Y-9200D01*
X345331Y-8600D01*
X352531Y-6200D02*X351931Y-5600D01*
X351331Y-5300D01*
X350431D02*X351331D01*
X350431D02*X349831Y-5600D01*
X349231Y-6200D01*
X348931Y-7100D01*
Y-7700D01*
X349231Y-8600D01*
X349831Y-9200D01*
X350431Y-9500D01*
X351331D01*
X351931Y-9200D01*
X352531Y-8600D01*
X354331Y-7100D02*X357931D01*
Y-6500D02*Y-7100D01*
Y-6500D02*X357631Y-5900D01*
X357331Y-5600D01*
X356731Y-5300D01*
X355831D02*X356731D01*
X355831D02*X355231Y-5600D01*
X354631Y-6200D01*
X354331Y-7100D01*
Y-7700D01*
X354631Y-8600D01*
X355231Y-9200D01*
X355831Y-9500D01*
X356731D01*
X357331Y-9200D01*
X357931Y-8600D01*
X359731Y-5300D02*Y-9500D01*
Y-6500D02*X360631Y-5600D01*
X361231Y-5300D01*
X362131D01*
X362731Y-5600D01*
X363031Y-6500D01*
Y-9500D01*
X365731Y-3200D02*Y-8300D01*
X366031Y-9200D01*
X366631Y-9500D01*
X367231D01*
X364831Y-5300D02*X366931D01*
X369031Y-7100D02*X372631D01*
Y-6500D02*Y-7100D01*
Y-6500D02*X372331Y-5900D01*
X372031Y-5600D01*
X371431Y-5300D01*
X370531D02*X371431D01*
X370531D02*X369931Y-5600D01*
X369331Y-6200D01*
X369031Y-7100D01*
Y-7700D01*
X369331Y-8600D01*
X369931Y-9200D01*
X370531Y-9500D01*
X371431D01*
X372031Y-9200D01*
X372631Y-8600D01*
X374431Y-5300D02*Y-9500D01*
Y-7100D02*X374731Y-6200D01*
X375331Y-5600D01*
X375931Y-5300D01*
X376831D01*
X378631Y-3200D02*Y-9500D01*
X380431Y-3200D02*X380731Y-3500D01*
X381031Y-3200D01*
X380731Y-2900D01*
X380431Y-3200D01*
X380731Y-5300D02*Y-9500D01*
X382831Y-5300D02*Y-9500D01*
Y-6500D02*X383731Y-5600D01*
X384331Y-5300D01*
X385231D01*
X385831Y-5600D01*
X386131Y-6500D01*
Y-9500D01*
X387931Y-7100D02*X391531D01*
Y-6500D02*Y-7100D01*
Y-6500D02*X391231Y-5900D01*
X390931Y-5600D01*
X390331Y-5300D01*
X389431D02*X390331D01*
X389431D02*X388831Y-5600D01*
X388231Y-6200D01*
X387931Y-7100D01*
Y-7700D01*
X388231Y-8600D01*
X388831Y-9200D01*
X389431Y-9500D01*
X390331D01*
X390931Y-9200D01*
X391531Y-8600D01*
X396631Y-5300D02*X396031Y-5600D01*
X395431Y-6200D01*
X395131Y-7100D01*
Y-7700D01*
X395431Y-8600D01*
X396031Y-9200D01*
X396631Y-9500D01*
X397531D01*
X398131Y-9200D01*
X398731Y-8600D01*
X399031Y-7700D01*
Y-7100D02*Y-7700D01*
Y-7100D02*X398731Y-6200D01*
X398131Y-5600D01*
X397531Y-5300D01*
X396631D02*X397531D01*
X402631Y-3200D02*X403231D01*
X402631D02*X402031Y-3500D01*
X401731Y-4400D01*
Y-9500D01*
X400831Y-5300D02*X402931D01*
X407731Y-3200D02*Y-8300D01*
X408031Y-9200D01*
X408631Y-9500D01*
X409231D01*
X406831Y-5300D02*X408931D01*
X411031Y-3200D02*Y-9500D01*
Y-6500D02*X411931Y-5600D01*
X412531Y-5300D01*
X413431D01*
X414031Y-5600D01*
X414331Y-6500D01*
Y-9500D01*
X416131Y-3200D02*X416431Y-3500D01*
X416731Y-3200D01*
X416431Y-2900D01*
X416131Y-3200D01*
X416431Y-5300D02*Y-9500D01*
X421831Y-6200D02*X421531Y-5600D01*
X420631Y-5300D01*
X419731D02*X420631D01*
X419731D02*X418831Y-5600D01*
X418531Y-6200D01*
X418831Y-6800D01*
X419431Y-7100D01*
X420931Y-7400D01*
X421531Y-7700D01*
X421831Y-8300D01*
Y-8600D01*
X421531Y-9200D01*
X420631Y-9500D01*
X419731D02*X420631D01*
X419731D02*X418831Y-9200D01*
X418531Y-8600D01*
X425431Y-5300D02*Y-11600D01*
Y-6200D02*X426031Y-5600D01*
X426631Y-5300D01*
X427531D01*
X428131Y-5600D01*
X428731Y-6200D01*
X429031Y-7100D01*
Y-7700D01*
X428731Y-8600D01*
X428131Y-9200D01*
X427531Y-9500D01*
X426631D02*X427531D01*
X426631D02*X426031Y-9200D01*
X425431Y-8600D01*
X434431Y-5300D02*Y-9500D01*
Y-6200D02*X433831Y-5600D01*
X433231Y-5300D01*
X432331D02*X433231D01*
X432331D02*X431731Y-5600D01*
X431131Y-6200D01*
X430831Y-7100D01*
Y-7700D01*
X431131Y-8600D01*
X431731Y-9200D01*
X432331Y-9500D01*
X433231D01*
X433831Y-9200D01*
X434431Y-8600D01*
X437131Y-3200D02*Y-8300D01*
X437431Y-9200D01*
X438031Y-9500D01*
X438631D01*
X436231Y-5300D02*X438331D01*
X440431Y-3200D02*Y-9500D01*
Y-6500D02*X441331Y-5600D01*
X441931Y-5300D01*
X442831D01*
X443431Y-5600D01*
X443731Y-6500D01*
Y-9500D01*
X200000Y501241D02*Y494941D01*
Y501241D02*X202100D01*
X203000Y500941D01*
X203600Y500341D01*
X203900Y499741D01*
X204200Y498841D01*
Y497341D01*
X203900Y496441D01*
X203600Y495841D01*
X203000Y495241D01*
X202100Y494941D01*
X200000D02*X202100D01*
X209600Y499141D02*Y494941D01*
Y498241D02*X209000Y498841D01*
X208400Y499141D01*
X207500D02*X208400D01*
X207500D02*X206900Y498841D01*
X206300Y498241D01*
X206000Y497341D01*
Y496741D01*
X206300Y495841D01*
X206900Y495241D01*
X207500Y494941D01*
X208400D01*
X209000Y495241D01*
X209600Y495841D01*
X212300Y501241D02*Y496141D01*
X212600Y495241D01*
X213200Y494941D01*
X213800D01*
X211400Y499141D02*X213500D01*
X215600Y497341D02*X219200D01*
Y497941D02*Y497341D01*
Y497941D02*X218900Y498541D01*
X218600Y498841D01*
X218000Y499141D01*
X217100D02*X218000D01*
X217100D02*X216500Y498841D01*
X215900Y498241D01*
X215600Y497341D01*
Y496741D01*
X215900Y495841D01*
X216500Y495241D01*
X217100Y494941D01*
X218000D01*
X218600Y495241D01*
X219200Y495841D01*
X221300Y499141D02*X221000Y498841D01*
X221300Y498541D01*
X221600Y498841D01*
X221300Y499141D01*
Y495541D02*X221000Y495241D01*
X221300Y494941D01*
X221600Y495241D01*
X221300Y495541D01*
X225200Y501241D02*Y494941D01*
Y501241D02*X227600Y494941D01*
X230000Y501241D02*X227600Y494941D01*
X230000Y501241D02*Y494941D01*
X233300Y499141D02*X232700Y498841D01*
X232100Y498241D01*
X231800Y497341D01*
Y496741D01*
X232100Y495841D01*
X232700Y495241D01*
X233300Y494941D01*
X234200D01*
X234800Y495241D01*
X235400Y495841D01*
X235700Y496741D01*
Y497341D02*Y496741D01*
Y497341D02*X235400Y498241D01*
X234800Y498841D01*
X234200Y499141D01*
X233300D02*X234200D01*
X237500D02*Y494941D01*
Y497941D02*X238400Y498841D01*
X239000Y499141D01*
X239900D01*
X240500Y498841D01*
X240800Y497941D01*
Y494941D01*
X246800Y501241D02*X244400Y494941D01*
X246800Y501241D02*X249200Y494941D01*
X245300Y497041D02*X248300D01*
X251000Y499141D02*Y496141D01*
X251300Y495241D01*
X251900Y494941D01*
X252800D01*
X253400Y495241D01*
X254300Y496141D01*
Y499141D02*Y494941D01*
X259700Y499141D02*Y494341D01*
X259400Y493441D01*
X259100Y493141D01*
X258500Y492841D01*
X257600D02*X258500D01*
X257600D02*X257000Y493141D01*
X259700Y498241D02*X259100Y498841D01*
X258500Y499141D01*
X257600D02*X258500D01*
X257600D02*X257000Y498841D01*
X256400Y498241D01*
X256100Y497341D01*
Y496741D01*
X256400Y495841D01*
X257000Y495241D01*
X257600Y494941D01*
X258500D01*
X259100Y495241D01*
X259700Y495841D01*
X263300Y500041D02*X263900Y500341D01*
X264800Y501241D01*
Y494941D01*
X266900Y500041D02*Y499741D01*
Y500041D02*X267200Y500641D01*
X267500Y500941D01*
X268100Y501241D01*
X269300D01*
X269900Y500941D01*
X270200Y500641D01*
X270500Y500041D01*
Y499441D01*
X270200Y498841D01*
X269600Y497941D01*
X266600Y494941D01*
X270800D01*
X274400Y500041D02*X275000Y500341D01*
X275900Y501241D01*
Y494941D01*
X281300Y500341D02*X281000Y500941D01*
X280100Y501241D01*
X279500D02*X280100D01*
X279500D02*X278600Y500941D01*
X278000Y500041D01*
X277700Y498541D01*
Y497041D01*
X278000Y495841D01*
X278600Y495241D01*
X279500Y494941D01*
X279800D01*
X280700Y495241D01*
X281300Y495841D01*
X281600Y496741D01*
Y497041D02*Y496741D01*
Y497041D02*X281300Y497941D01*
X280700Y498541D01*
X279800Y498841D01*
X279500D02*X279800D01*
X279500D02*X278600Y498541D01*
X278000Y497941D01*
X277700Y497041D01*
X283700Y499141D02*X283400Y498841D01*
X283700Y498541D01*
X284000Y498841D01*
X283700Y499141D01*
Y495541D02*X283400Y495241D01*
X283700Y494941D01*
X284000Y495241D01*
X283700Y495541D01*
X288800Y501241D02*X285800Y497041D01*
X290300D01*
X288800Y501241D02*Y494941D01*
X292700Y501241D02*X296000D01*
X294200Y498841D01*
X295100D01*
X295700Y498541D01*
X296000Y498241D01*
X296300Y497341D01*
Y496741D01*
X296000Y495841D01*
X295400Y495241D01*
X294500Y494941D01*
X293600D02*X294500D01*
X293600D02*X292700Y495241D01*
X292400Y495541D01*
X292100Y496141D01*
X298400Y499141D02*X298100Y498841D01*
X298400Y498541D01*
X298700Y498841D01*
X298400Y499141D01*
Y495541D02*X298100Y495241D01*
X298400Y494941D01*
X298700Y495241D01*
X298400Y495541D01*
X301100Y501241D02*X304400D01*
X302600Y498841D01*
X303500D01*
X304100Y498541D01*
X304400Y498241D01*
X304700Y497341D01*
Y496741D01*
X304400Y495841D01*
X303800Y495241D01*
X302900Y494941D01*
X302000D02*X302900D01*
X302000D02*X301100Y495241D01*
X300800Y495541D01*
X300500Y496141D01*
X306800Y500041D02*Y499741D01*
Y500041D02*X307100Y500641D01*
X307400Y500941D01*
X308000Y501241D01*
X309200D01*
X309800Y500941D01*
X310100Y500641D01*
X310400Y500041D01*
Y499441D01*
X310100Y498841D01*
X309500Y497941D01*
X306500Y494941D01*
X310700D01*
X314600Y500041D02*Y499741D01*
Y500041D02*X314900Y500641D01*
X315200Y500941D01*
X315800Y501241D01*
X317000D01*
X317600Y500941D01*
X317900Y500641D01*
X318200Y500041D01*
Y499441D01*
X317900Y498841D01*
X317300Y497941D01*
X314300Y494941D01*
X318500D01*
X322100Y501241D02*X321200Y500941D01*
X320600Y500041D01*
X320300Y498541D01*
Y497641D01*
X320600Y496141D01*
X321200Y495241D01*
X322100Y494941D01*
X322700D01*
X323600Y495241D01*
X324200Y496141D01*
X324500Y497641D01*
Y498541D02*Y497641D01*
Y498541D02*X324200Y500041D01*
X323600Y500941D01*
X322700Y501241D01*
X322100D02*X322700D01*
X326300Y500041D02*X326900Y500341D01*
X327800Y501241D01*
Y494941D01*
X333500Y499141D02*X333200Y498241D01*
X332600Y497641D01*
X331700Y497341D01*
X331400D02*X331700D01*
X331400D02*X330500Y497641D01*
X329900Y498241D01*
X329600Y499141D01*
Y499441D02*Y499141D01*
Y499441D02*X329900Y500341D01*
X330500Y500941D01*
X331400Y501241D01*
X331700D01*
X332600Y500941D01*
X333200Y500341D01*
X333500Y499141D01*
Y497641D01*
X333200Y496141D01*
X332600Y495241D01*
X331700Y494941D01*
X331100D02*X331700D01*
X331100D02*X330200Y495241D01*
X329900Y495841D01*
X337100Y501241D02*Y496741D01*
X337400Y495841D01*
X338000Y495241D01*
X338900Y494941D01*
X339500D01*
X340400Y495241D01*
X341000Y495841D01*
X341300Y496741D01*
Y501241D02*Y496741D01*
X345200Y501241D02*Y494941D01*
X343100Y501241D02*X347300D01*
X353600Y499741D02*X353300Y500341D01*
X352700Y500941D01*
X352100Y501241D01*
X350900D02*X352100D01*
X350900D02*X350300Y500941D01*
X349700Y500341D01*
X349400Y499741D01*
X349100Y498841D01*
Y497341D01*
X349400Y496441D01*
X349700Y495841D01*
X350300Y495241D01*
X350900Y494941D01*
X352100D01*
X352700Y495241D01*
X353300Y495841D01*
X353600Y496441D01*
X202400Y516241D02*X200000Y509941D01*
X202400Y516241D02*X204800Y509941D01*
X200900Y512041D02*X203900D01*
X206600Y514141D02*Y511141D01*
X206900Y510241D01*
X207500Y509941D01*
X208400D01*
X209000Y510241D01*
X209900Y511141D01*
Y514141D02*Y509941D01*
X212600Y516241D02*Y511141D01*
X212900Y510241D01*
X213500Y509941D01*
X214100D01*
X211700Y514141D02*X213800D01*
X215900Y516241D02*Y509941D01*
Y512941D02*X216800Y513841D01*
X217400Y514141D01*
X218300D01*
X218900Y513841D01*
X219200Y512941D01*
Y509941D01*
X222500Y514141D02*X221900Y513841D01*
X221300Y513241D01*
X221000Y512341D01*
Y511741D01*
X221300Y510841D01*
X221900Y510241D01*
X222500Y509941D01*
X223400D01*
X224000Y510241D01*
X224600Y510841D01*
X224900Y511741D01*
Y512341D02*Y511741D01*
Y512341D02*X224600Y513241D01*
X224000Y513841D01*
X223400Y514141D01*
X222500D02*X223400D01*
X226700D02*Y509941D01*
Y512341D02*X227000Y513241D01*
X227600Y513841D01*
X228200Y514141D01*
X229100D01*
X231200D02*X230900Y513841D01*
X231200Y513541D01*
X231500Y513841D01*
X231200Y514141D01*
Y510541D02*X230900Y510241D01*
X231200Y509941D01*
X231500Y510241D01*
X231200Y510541D01*
X235100Y516241D02*Y509941D01*
Y516241D02*X237800D01*
X238700Y515941D01*
X239000Y515641D01*
X239300Y515041D01*
Y514441D01*
X239000Y513841D01*
X238700Y513541D01*
X237800Y513241D01*
X235100D02*X237800D01*
X238700Y512941D01*
X239000Y512641D01*
X239300Y512041D01*
Y511141D01*
X239000Y510541D01*
X238700Y510241D01*
X237800Y509941D01*
X235100D02*X237800D01*
X241100Y512341D02*X244700D01*
Y512941D02*Y512341D01*
Y512941D02*X244400Y513541D01*
X244100Y513841D01*
X243500Y514141D01*
X242600D02*X243500D01*
X242600D02*X242000Y513841D01*
X241400Y513241D01*
X241100Y512341D01*
Y511741D01*
X241400Y510841D01*
X242000Y510241D01*
X242600Y509941D01*
X243500D01*
X244100Y510241D01*
X244700Y510841D01*
X246500Y514141D02*Y509941D01*
Y512341D02*X246800Y513241D01*
X247400Y513841D01*
X248000Y514141D01*
X248900D01*
X251600Y516241D02*Y511141D01*
X251900Y510241D01*
X252500Y509941D01*
X253100D01*
X250700Y514141D02*X252800D01*
X258800Y516241D02*Y509941D01*
X256700Y516241D02*X260900D01*
X262700D02*X263000Y515941D01*
X263300Y516241D01*
X263000Y516541D01*
X262700Y516241D01*
X263000Y514141D02*Y509941D01*
X265100Y514141D02*Y509941D01*
Y512941D02*X266000Y513841D01*
X266600Y514141D01*
X267500D01*
X268100Y513841D01*
X268400Y512941D01*
Y509941D01*
Y512941D02*X269300Y513841D01*
X269900Y514141D01*
X270800D01*
X271400Y513841D01*
X271700Y512941D01*
Y509941D01*
X273500Y514141D02*Y509941D01*
Y512941D02*X274400Y513841D01*
X275000Y514141D01*
X275900D01*
X276500Y513841D01*
X276800Y512941D01*
Y509941D01*
Y512941D02*X277700Y513841D01*
X278300Y514141D01*
X279200D01*
X279800Y513841D01*
X280100Y512941D01*
Y509941D01*
X281900Y512341D02*X285500D01*
Y512941D02*Y512341D01*
Y512941D02*X285200Y513541D01*
X284900Y513841D01*
X284300Y514141D01*
X283400D02*X284300D01*
X283400D02*X282800Y513841D01*
X282200Y513241D01*
X281900Y512341D01*
Y511741D01*
X282200Y510841D01*
X282800Y510241D01*
X283400Y509941D01*
X284300D01*
X284900Y510241D01*
X285500Y510841D01*
X287300Y514141D02*Y509941D01*
Y512341D02*X287600Y513241D01*
X288200Y513841D01*
X288800Y514141D01*
X289700D01*
X291500D02*Y509941D01*
Y512941D02*X292400Y513841D01*
X293000Y514141D01*
X293900D01*
X294500Y513841D01*
X294800Y512941D01*
Y509941D01*
Y512941D02*X295700Y513841D01*
X296300Y514141D01*
X297200D01*
X297800Y513841D01*
X298100Y512941D01*
Y509941D01*
X303500Y514141D02*Y509941D01*
Y513241D02*X302900Y513841D01*
X302300Y514141D01*
X301400D02*X302300D01*
X301400D02*X300800Y513841D01*
X300200Y513241D01*
X299900Y512341D01*
Y511741D01*
X300200Y510841D01*
X300800Y510241D01*
X301400Y509941D01*
X302300D01*
X302900Y510241D01*
X303500Y510841D01*
X305300Y514141D02*Y509941D01*
Y512941D02*X306200Y513841D01*
X306800Y514141D01*
X307700D01*
X308300Y513841D01*
X308600Y512941D01*
Y509941D01*
X202100Y531241D02*Y524941D01*
X200000Y531241D02*X204200D01*
X206000D02*X206300Y530941D01*
X206600Y531241D01*
X206300Y531541D01*
X206000Y531241D01*
X206300Y529141D02*Y524941D01*
X209300Y531241D02*Y526141D01*
X209600Y525241D01*
X210200Y524941D01*
X210800D01*
X208400Y529141D02*X210500D01*
X212600Y531241D02*Y524941D01*
X214400Y527341D02*X218000D01*
Y527941D02*Y527341D01*
Y527941D02*X217700Y528541D01*
X217400Y528841D01*
X216800Y529141D01*
X215900D02*X216800D01*
X215900D02*X215300Y528841D01*
X214700Y528241D01*
X214400Y527341D01*
Y526741D01*
X214700Y525841D01*
X215300Y525241D01*
X215900Y524941D01*
X216800D01*
X217400Y525241D01*
X218000Y525841D01*
X220100Y529141D02*X219800Y528841D01*
X220100Y528541D01*
X220400Y528841D01*
X220100Y529141D01*
Y525541D02*X219800Y525241D01*
X220100Y524941D01*
X220400Y525241D01*
X220100Y525541D01*
X225800Y531241D02*X224900Y530941D01*
X224300Y530041D01*
X224000Y528541D01*
Y527641D01*
X224300Y526141D01*
X224900Y525241D01*
X225800Y524941D01*
X226400D01*
X227300Y525241D01*
X227900Y526141D01*
X228200Y527641D01*
Y528541D02*Y527641D01*
Y528541D02*X227900Y530041D01*
X227300Y530941D01*
X226400Y531241D01*
X225800D02*X226400D01*
X230000Y530041D02*X230600Y530341D01*
X231500Y531241D01*
Y524941D01*
X233600Y525541D02*X233300Y525241D01*
X233600Y524941D01*
X233900Y525241D01*
X233600Y525541D01*
X237500Y531241D02*X236600Y530941D01*
X236000Y530041D01*
X235700Y528541D01*
Y527641D01*
X236000Y526141D01*
X236600Y525241D01*
X237500Y524941D01*
X238100D01*
X239000Y525241D01*
X239600Y526141D01*
X239900Y527641D01*
Y528541D02*Y527641D01*
Y528541D02*X239600Y530041D01*
X239000Y530941D01*
X238100Y531241D01*
X237500D02*X238100D01*
X243500D02*X242600Y530941D01*
X242000Y530041D01*
X241700Y528541D01*
Y527641D01*
X242000Y526141D01*
X242600Y525241D01*
X243500Y524941D01*
X244100D01*
X245000Y525241D01*
X245600Y526141D01*
X245900Y527641D01*
Y528541D02*Y527641D01*
Y528541D02*X245600Y530041D01*
X245000Y530941D01*
X244100Y531241D01*
X243500D02*X244100D01*
X248300D02*X251600D01*
X249800Y528841D01*
X250700D01*
X251300Y528541D01*
X251600Y528241D01*
X251900Y527341D01*
Y526741D01*
X251600Y525841D01*
X251000Y525241D01*
X250100Y524941D01*
X249200D02*X250100D01*
X249200D02*X248300Y525241D01*
X248000Y525541D01*
X247700Y526141D01*
X254000Y525541D02*X253700Y525241D01*
X254000Y524941D01*
X254300Y525241D01*
X254000Y525541D01*
X257900Y531241D02*X257000Y530941D01*
X256400Y530041D01*
X256100Y528541D01*
Y527641D01*
X256400Y526141D01*
X257000Y525241D01*
X257900Y524941D01*
X258500D01*
X259400Y525241D01*
X260000Y526141D01*
X260300Y527641D01*
Y528541D02*Y527641D01*
Y528541D02*X260000Y530041D01*
X259400Y530941D01*
X258500Y531241D01*
X257900D02*X258500D01*
X263900D02*X263000Y530941D01*
X262400Y530041D01*
X262100Y528541D01*
Y527641D01*
X262400Y526141D01*
X263000Y525241D01*
X263900Y524941D01*
X264500D01*
X265400Y525241D01*
X266000Y526141D01*
X266300Y527641D01*
Y528541D02*Y527641D01*
Y528541D02*X266000Y530041D01*
X265400Y530941D01*
X264500Y531241D01*
X263900D02*X264500D01*
X268400Y525541D02*X268100Y525241D01*
X268400Y524941D01*
X268700Y525241D01*
X268400Y525541D01*
X272300Y531241D02*X271400Y530941D01*
X270800Y530041D01*
X270500Y528541D01*
Y527641D01*
X270800Y526141D01*
X271400Y525241D01*
X272300Y524941D01*
X272900D01*
X273800Y525241D01*
X274400Y526141D01*
X274700Y527641D01*
Y528541D02*Y527641D01*
Y528541D02*X274400Y530041D01*
X273800Y530941D01*
X272900Y531241D01*
X272300D02*X272900D01*
X276500Y530041D02*X277100Y530341D01*
X278000Y531241D01*
Y524941D01*
X280100Y525541D02*X279800Y525241D01*
X280100Y524941D01*
X280400Y525241D01*
X280100Y525541D01*
X284000Y531241D02*X283100Y530941D01*
X282500Y530041D01*
X282200Y528541D01*
Y527641D01*
X282500Y526141D01*
X283100Y525241D01*
X284000Y524941D01*
X284600D01*
X285500Y525241D01*
X286100Y526141D01*
X286400Y527641D01*
Y528541D02*Y527641D01*
Y528541D02*X286100Y530041D01*
X285500Y530941D01*
X284600Y531241D01*
X284000D02*X284600D01*
X288200Y530041D02*X288800Y530341D01*
X289700Y531241D01*
Y524941D01*
X291800Y525541D02*X291500Y525241D01*
X291800Y524941D01*
X292100Y525241D01*
X291800Y525541D01*
X293900Y529141D02*Y522841D01*
Y528241D02*X294500Y528841D01*
X295100Y529141D01*
X296000D01*
X296600Y528841D01*
X297200Y528241D01*
X297500Y527341D01*
Y526741D01*
X297200Y525841D01*
X296600Y525241D01*
X296000Y524941D01*
X295100D02*X296000D01*
X295100D02*X294500Y525241D01*
X293900Y525841D01*
X302900Y528241D02*X302300Y528841D01*
X301700Y529141D01*
X300800D02*X301700D01*
X300800D02*X300200Y528841D01*
X299600Y528241D01*
X299300Y527341D01*
Y526741D01*
X299600Y525841D01*
X300200Y525241D01*
X300800Y524941D01*
X301700D01*
X302300Y525241D01*
X302900Y525841D01*
X304700Y531241D02*Y524941D01*
Y528241D02*X305300Y528841D01*
X305900Y529141D01*
X306800D01*
X307400Y528841D01*
X308000Y528241D01*
X308300Y527341D01*
Y526741D01*
X308000Y525841D01*
X307400Y525241D01*
X306800Y524941D01*
X305900D02*X306800D01*
X305900D02*X305300Y525241D01*
X304700Y525841D01*
X311900Y527641D02*X317300D01*
X320900Y531241D02*Y524941D01*
Y531241D02*X324800D01*
X320900Y528241D02*X323300D01*
X330200Y529141D02*Y524941D01*
Y528241D02*X329600Y528841D01*
X329000Y529141D01*
X328100D02*X329000D01*
X328100D02*X327500Y528841D01*
X326900Y528241D01*
X326600Y527341D01*
Y526741D01*
X326900Y525841D01*
X327500Y525241D01*
X328100Y524941D01*
X329000D01*
X329600Y525241D01*
X330200Y525841D01*
X332000Y531241D02*Y524941D01*
Y528241D02*X332600Y528841D01*
X333200Y529141D01*
X334100D01*
X334700Y528841D01*
X335300Y528241D01*
X335600Y527341D01*
Y526741D01*
X335300Y525841D01*
X334700Y525241D01*
X334100Y524941D01*
X333200D02*X334100D01*
X333200D02*X332600Y525241D01*
X332000Y525841D01*
X337400Y529141D02*Y524941D01*
Y527341D02*X337700Y528241D01*
X338300Y528841D01*
X338900Y529141D01*
X339800D01*
X341600Y531241D02*X341900Y530941D01*
X342200Y531241D01*
X341900Y531541D01*
X341600Y531241D01*
X341900Y529141D02*Y524941D01*
X347600Y528241D02*X347000Y528841D01*
X346400Y529141D01*
X345500D02*X346400D01*
X345500D02*X344900Y528841D01*
X344300Y528241D01*
X344000Y527341D01*
Y526741D01*
X344300Y525841D01*
X344900Y525241D01*
X345500Y524941D01*
X346400D01*
X347000Y525241D01*
X347600Y525841D01*
X353000Y529141D02*Y524941D01*
Y528241D02*X352400Y528841D01*
X351800Y529141D01*
X350900D02*X351800D01*
X350900D02*X350300Y528841D01*
X349700Y528241D01*
X349400Y527341D01*
Y526741D01*
X349700Y525841D01*
X350300Y525241D01*
X350900Y524941D01*
X351800D01*
X352400Y525241D01*
X353000Y525841D01*
X355700Y531241D02*Y526141D01*
X356000Y525241D01*
X356600Y524941D01*
X357200D01*
X354800Y529141D02*X356900D01*
X359000Y531241D02*X359300Y530941D01*
X359600Y531241D01*
X359300Y531541D01*
X359000Y531241D01*
X359300Y529141D02*Y524941D01*
X362900Y529141D02*X362300Y528841D01*
X361700Y528241D01*
X361400Y527341D01*
Y526741D01*
X361700Y525841D01*
X362300Y525241D01*
X362900Y524941D01*
X363800D01*
X364400Y525241D01*
X365000Y525841D01*
X365300Y526741D01*
Y527341D02*Y526741D01*
Y527341D02*X365000Y528241D01*
X364400Y528841D01*
X363800Y529141D01*
X362900D02*X363800D01*
X367100D02*Y524941D01*
Y527941D02*X368000Y528841D01*
X368600Y529141D01*
X369500D01*
X370100Y528841D01*
X370400Y527941D01*
Y524941D01*
X374000Y531241D02*Y524941D01*
Y531241D02*X376100D01*
X377000Y530941D01*
X377600Y530341D01*
X377900Y529741D01*
X378200Y528841D01*
Y527341D01*
X377900Y526441D01*
X377600Y525841D01*
X377000Y525241D01*
X376100Y524941D01*
X374000D02*X376100D01*
X380000Y529141D02*Y524941D01*
Y527341D02*X380300Y528241D01*
X380900Y528841D01*
X381500Y529141D01*
X382400D01*
X387800D02*Y524941D01*
Y528241D02*X387200Y528841D01*
X386600Y529141D01*
X385700D02*X386600D01*
X385700D02*X385100Y528841D01*
X384500Y528241D01*
X384200Y527341D01*
Y526741D01*
X384500Y525841D01*
X385100Y525241D01*
X385700Y524941D01*
X386600D01*
X387200Y525241D01*
X387800Y525841D01*
X389600Y529141D02*X390800Y524941D01*
X392000Y529141D02*X390800Y524941D01*
X392000Y529141D02*X393200Y524941D01*
X394400Y529141D02*X393200Y524941D01*
X396200Y531241D02*X396500Y530941D01*
X396800Y531241D01*
X396500Y531541D01*
X396200Y531241D01*
X396500Y529141D02*Y524941D01*
X398600Y529141D02*Y524941D01*
Y527941D02*X399500Y528841D01*
X400100Y529141D01*
X401000D01*
X401600Y528841D01*
X401900Y527941D01*
Y524941D01*
X407300Y529141D02*Y524341D01*
X407000Y523441D01*
X406700Y523141D01*
X406100Y522841D01*
X405200D02*X406100D01*
X405200D02*X404600Y523141D01*
X407300Y528241D02*X406700Y528841D01*
X406100Y529141D01*
X405200D02*X406100D01*
X405200D02*X404600Y528841D01*
X404000Y528241D01*
X403700Y527341D01*
Y526741D01*
X404000Y525841D01*
X404600Y525241D01*
X405200Y524941D01*
X406100D01*
X406700Y525241D01*
X407300Y525841D01*
M02*
