G04 start of page 2 for group 0 idx 0 *
G04 Title: 01.002.00.01.01.pcb, component *
G04 Creator: pcb 4.2.0 *
G04 CreationDate: Sat Aug 10 16:27:16 2019 UTC *
G04 For: bert *
G04 Format: Gerber/RS-274X *
G04 PCB-Dimensions (mil): 1968.50 3937.01 *
G04 PCB-Coordinate-Origin: lower left *
%MOIN*%
%FSLAX25Y25*%
%LNGTL*%
%ADD21C,0.1260*%
%ADD20C,0.0420*%
%ADD19C,0.0460*%
%ADD18C,0.0400*%
%ADD17C,0.0350*%
%ADD16C,0.0720*%
%ADD15C,0.0650*%
%ADD14C,0.0750*%
%ADD13C,0.0600*%
%ADD12C,0.0250*%
%ADD11C,0.0001*%
G54D11*G36*
X172575Y383858D02*X175197D01*
Y9843D01*
X172575D01*
Y95814D01*
X172866Y96289D01*
X173107Y96871D01*
X173254Y97483D01*
X173291Y98111D01*
X173254Y98738D01*
X173107Y99351D01*
X172866Y99932D01*
X172575Y100407D01*
Y135979D01*
X172578Y135980D01*
X172647Y136020D01*
X172708Y136069D01*
X172761Y136127D01*
X172802Y136194D01*
X172965Y136519D01*
X173095Y136859D01*
X173193Y137209D01*
X173258Y137567D01*
X173291Y137929D01*
Y138292D01*
X173258Y138655D01*
X173193Y139012D01*
X173095Y139363D01*
X172965Y139702D01*
X172806Y140029D01*
X172763Y140096D01*
X172710Y140154D01*
X172648Y140204D01*
X172580Y140244D01*
X172575Y140245D01*
Y154869D01*
X172866Y155344D01*
X173107Y155926D01*
X173254Y156538D01*
X173291Y157166D01*
X173254Y157793D01*
X173107Y158406D01*
X172866Y158987D01*
X172575Y159463D01*
Y194869D01*
X172866Y195344D01*
X173107Y195926D01*
X173254Y196538D01*
X173291Y197166D01*
X173254Y197793D01*
X173107Y198406D01*
X172866Y198987D01*
X172575Y199463D01*
Y214404D01*
X172578Y214406D01*
X172647Y214445D01*
X172708Y214494D01*
X172761Y214553D01*
X172802Y214619D01*
X172965Y214944D01*
X173095Y215284D01*
X173193Y215634D01*
X173258Y215992D01*
X173291Y216354D01*
Y216718D01*
X173258Y217080D01*
X173193Y217437D01*
X173095Y217788D01*
X172965Y218128D01*
X172806Y218454D01*
X172763Y218521D01*
X172710Y218580D01*
X172648Y218629D01*
X172580Y218669D01*
X172575Y218671D01*
Y254239D01*
X172866Y254714D01*
X173107Y255296D01*
X173254Y255908D01*
X173291Y256536D01*
X173254Y257163D01*
X173107Y257776D01*
X172866Y258357D01*
X172575Y258833D01*
Y292830D01*
X172578Y292831D01*
X172647Y292870D01*
X172708Y292919D01*
X172761Y292978D01*
X172802Y293044D01*
X172965Y293369D01*
X173095Y293709D01*
X173193Y294059D01*
X173258Y294417D01*
X173291Y294779D01*
Y295143D01*
X173258Y295505D01*
X173193Y295863D01*
X173095Y296213D01*
X172965Y296553D01*
X172806Y296880D01*
X172763Y296946D01*
X172710Y297005D01*
X172648Y297055D01*
X172580Y297094D01*
X172575Y297096D01*
Y332664D01*
X172866Y333139D01*
X173107Y333721D01*
X173254Y334333D01*
X173291Y334961D01*
X173254Y335589D01*
X173107Y336201D01*
X172866Y336783D01*
X172575Y337258D01*
Y383858D01*
G37*
G36*
Y258833D02*X172537Y258894D01*
X172128Y259373D01*
X171650Y259782D01*
X171113Y260111D01*
X170531Y260352D01*
X169919Y260499D01*
X169293Y260548D01*
Y290961D01*
X169473D01*
X169835Y290994D01*
X170193Y291060D01*
X170543Y291158D01*
X170883Y291287D01*
X171210Y291446D01*
X171276Y291489D01*
X171335Y291542D01*
X171385Y291604D01*
X171424Y291673D01*
X171453Y291747D01*
X171469Y291824D01*
X171473Y291903D01*
X171464Y291982D01*
X171444Y292058D01*
X171411Y292131D01*
X171368Y292197D01*
X171315Y292256D01*
X171253Y292305D01*
X171185Y292345D01*
X171111Y292373D01*
X171033Y292389D01*
X170954Y292393D01*
X170875Y292385D01*
X170799Y292364D01*
X170727Y292331D01*
X170484Y292208D01*
X170229Y292111D01*
X169967Y292038D01*
X169699Y291989D01*
X169428Y291964D01*
X169293D01*
Y297958D01*
X169428D01*
X169699Y297933D01*
X169967Y297884D01*
X170229Y297811D01*
X170484Y297714D01*
X170729Y297594D01*
X170800Y297561D01*
X170876Y297540D01*
X170954Y297532D01*
X171033Y297536D01*
X171110Y297552D01*
X171183Y297580D01*
X171251Y297619D01*
X171313Y297669D01*
X171366Y297727D01*
X171409Y297793D01*
X171441Y297865D01*
X171461Y297941D01*
X171470Y298019D01*
X171466Y298097D01*
X171450Y298174D01*
X171422Y298248D01*
X171382Y298316D01*
X171333Y298378D01*
X171275Y298430D01*
X171208Y298472D01*
X170883Y298635D01*
X170543Y298764D01*
X170193Y298862D01*
X169835Y298928D01*
X169473Y298961D01*
X169293D01*
Y330949D01*
X169919Y330998D01*
X170531Y331145D01*
X171113Y331386D01*
X171650Y331715D01*
X172128Y332124D01*
X172537Y332603D01*
X172575Y332664D01*
Y297096D01*
X172506Y297122D01*
X172428Y297139D01*
X172349Y297142D01*
X172270Y297134D01*
X172194Y297113D01*
X172122Y297081D01*
X172055Y297038D01*
X171997Y296985D01*
X171947Y296923D01*
X171907Y296854D01*
X171879Y296780D01*
X171863Y296703D01*
X171859Y296624D01*
X171867Y296545D01*
X171888Y296469D01*
X171922Y296397D01*
X172044Y296154D01*
X172141Y295899D01*
X172214Y295637D01*
X172264Y295369D01*
X172288Y295097D01*
Y294825D01*
X172264Y294553D01*
X172214Y294285D01*
X172141Y294023D01*
X172044Y293768D01*
X171925Y293524D01*
X171891Y293452D01*
X171870Y293377D01*
X171862Y293298D01*
X171866Y293220D01*
X171882Y293143D01*
X171910Y293069D01*
X171949Y293001D01*
X171999Y292940D01*
X172057Y292887D01*
X172123Y292844D01*
X172195Y292812D01*
X172271Y292791D01*
X172349Y292783D01*
X172428Y292787D01*
X172505Y292803D01*
X172575Y292830D01*
Y258833D01*
G37*
G36*
Y199463D02*X172537Y199524D01*
X172128Y200003D01*
X171650Y200412D01*
X171113Y200741D01*
X170531Y200982D01*
X169919Y201129D01*
X169293Y201178D01*
Y212536D01*
X169473D01*
X169835Y212569D01*
X170193Y212635D01*
X170543Y212732D01*
X170883Y212862D01*
X171210Y213021D01*
X171276Y213064D01*
X171335Y213117D01*
X171385Y213179D01*
X171424Y213248D01*
X171453Y213322D01*
X171469Y213399D01*
X171473Y213478D01*
X171464Y213557D01*
X171444Y213633D01*
X171411Y213706D01*
X171368Y213772D01*
X171315Y213831D01*
X171253Y213880D01*
X171185Y213920D01*
X171111Y213948D01*
X171033Y213964D01*
X170954Y213968D01*
X170875Y213960D01*
X170799Y213939D01*
X170727Y213905D01*
X170484Y213783D01*
X170229Y213686D01*
X169967Y213613D01*
X169699Y213564D01*
X169428Y213539D01*
X169293D01*
Y219533D01*
X169428D01*
X169699Y219508D01*
X169967Y219459D01*
X170229Y219385D01*
X170484Y219289D01*
X170729Y219169D01*
X170800Y219136D01*
X170876Y219115D01*
X170954Y219107D01*
X171033Y219111D01*
X171110Y219127D01*
X171183Y219155D01*
X171251Y219194D01*
X171313Y219243D01*
X171366Y219302D01*
X171409Y219368D01*
X171441Y219439D01*
X171461Y219515D01*
X171470Y219594D01*
X171466Y219672D01*
X171450Y219749D01*
X171422Y219823D01*
X171382Y219891D01*
X171333Y219952D01*
X171275Y220005D01*
X171208Y220047D01*
X170883Y220210D01*
X170543Y220339D01*
X170193Y220437D01*
X169835Y220503D01*
X169473Y220536D01*
X169293D01*
Y252524D01*
X169919Y252573D01*
X170531Y252720D01*
X171113Y252961D01*
X171650Y253290D01*
X172128Y253699D01*
X172537Y254177D01*
X172575Y254239D01*
Y218671D01*
X172506Y218697D01*
X172428Y218713D01*
X172349Y218717D01*
X172270Y218709D01*
X172194Y218688D01*
X172122Y218656D01*
X172055Y218613D01*
X171997Y218559D01*
X171947Y218498D01*
X171907Y218429D01*
X171879Y218355D01*
X171863Y218278D01*
X171859Y218198D01*
X171867Y218120D01*
X171888Y218043D01*
X171922Y217972D01*
X172044Y217728D01*
X172141Y217474D01*
X172214Y217211D01*
X172264Y216943D01*
X172288Y216672D01*
Y216400D01*
X172264Y216128D01*
X172214Y215860D01*
X172141Y215598D01*
X172044Y215343D01*
X171925Y215098D01*
X171891Y215027D01*
X171870Y214951D01*
X171862Y214873D01*
X171866Y214794D01*
X171882Y214717D01*
X171910Y214644D01*
X171949Y214576D01*
X171999Y214514D01*
X172057Y214462D01*
X172123Y214419D01*
X172195Y214386D01*
X172271Y214366D01*
X172349Y214357D01*
X172428Y214361D01*
X172505Y214378D01*
X172575Y214404D01*
Y199463D01*
G37*
G36*
Y159463D02*X172537Y159524D01*
X172128Y160003D01*
X171650Y160412D01*
X171113Y160741D01*
X170531Y160982D01*
X169919Y161129D01*
X169293Y161178D01*
Y193154D01*
X169919Y193203D01*
X170531Y193350D01*
X171113Y193591D01*
X171650Y193920D01*
X172128Y194329D01*
X172537Y194807D01*
X172575Y194869D01*
Y159463D01*
G37*
G36*
Y100407D02*X172537Y100469D01*
X172128Y100948D01*
X171650Y101357D01*
X171113Y101686D01*
X170531Y101927D01*
X169919Y102074D01*
X169293Y102123D01*
Y134111D01*
X169473D01*
X169835Y134144D01*
X170193Y134209D01*
X170543Y134307D01*
X170883Y134437D01*
X171210Y134596D01*
X171276Y134639D01*
X171335Y134692D01*
X171385Y134754D01*
X171424Y134822D01*
X171453Y134896D01*
X171469Y134974D01*
X171473Y135053D01*
X171464Y135132D01*
X171444Y135208D01*
X171411Y135280D01*
X171368Y135347D01*
X171315Y135405D01*
X171253Y135455D01*
X171185Y135495D01*
X171111Y135523D01*
X171033Y135539D01*
X170954Y135543D01*
X170875Y135535D01*
X170799Y135514D01*
X170727Y135480D01*
X170484Y135358D01*
X170229Y135261D01*
X169967Y135188D01*
X169699Y135138D01*
X169428Y135114D01*
X169293D01*
Y141108D01*
X169428D01*
X169699Y141083D01*
X169967Y141034D01*
X170229Y140960D01*
X170484Y140863D01*
X170729Y140744D01*
X170800Y140710D01*
X170876Y140690D01*
X170954Y140681D01*
X171033Y140685D01*
X171110Y140701D01*
X171183Y140730D01*
X171251Y140769D01*
X171313Y140818D01*
X171366Y140876D01*
X171409Y140942D01*
X171441Y141014D01*
X171461Y141090D01*
X171470Y141168D01*
X171466Y141247D01*
X171450Y141324D01*
X171422Y141398D01*
X171382Y141466D01*
X171333Y141527D01*
X171275Y141580D01*
X171208Y141622D01*
X170883Y141785D01*
X170543Y141914D01*
X170193Y142012D01*
X169835Y142078D01*
X169473Y142111D01*
X169293D01*
Y153154D01*
X169919Y153203D01*
X170531Y153350D01*
X171113Y153591D01*
X171650Y153920D01*
X172128Y154329D01*
X172537Y154807D01*
X172575Y154869D01*
Y140245D01*
X172506Y140272D01*
X172428Y140288D01*
X172349Y140292D01*
X172270Y140284D01*
X172194Y140263D01*
X172122Y140231D01*
X172055Y140187D01*
X171997Y140134D01*
X171947Y140073D01*
X171907Y140004D01*
X171879Y139930D01*
X171863Y139852D01*
X171859Y139773D01*
X171867Y139695D01*
X171888Y139618D01*
X171922Y139547D01*
X172044Y139303D01*
X172141Y139049D01*
X172214Y138786D01*
X172264Y138518D01*
X172288Y138247D01*
Y137974D01*
X172264Y137703D01*
X172214Y137435D01*
X172141Y137173D01*
X172044Y136918D01*
X171925Y136673D01*
X171891Y136602D01*
X171870Y136526D01*
X171862Y136448D01*
X171866Y136369D01*
X171882Y136292D01*
X171910Y136219D01*
X171949Y136150D01*
X171999Y136089D01*
X172057Y136036D01*
X172123Y135993D01*
X172195Y135961D01*
X172271Y135941D01*
X172349Y135932D01*
X172428Y135936D01*
X172505Y135952D01*
X172575Y135979D01*
Y100407D01*
G37*
G36*
Y9843D02*X169293D01*
Y94098D01*
X169919Y94148D01*
X170531Y94295D01*
X171113Y94536D01*
X171650Y94865D01*
X172128Y95273D01*
X172537Y95752D01*
X172575Y95814D01*
Y9843D01*
G37*
G36*
X169293Y383858D02*X172575D01*
Y337258D01*
X172537Y337319D01*
X172128Y337798D01*
X171650Y338207D01*
X171113Y338536D01*
X170531Y338777D01*
X169919Y338924D01*
X169293Y338973D01*
Y383858D01*
G37*
G36*
X166008Y154869D02*X166045Y154807D01*
X166454Y154329D01*
X166933Y153920D01*
X167470Y153591D01*
X168051Y153350D01*
X168664Y153203D01*
X169291Y153153D01*
X169293Y153154D01*
Y142111D01*
X169110D01*
X168747Y142078D01*
X168390Y142012D01*
X168039Y141914D01*
X167700Y141785D01*
X167373Y141625D01*
X167306Y141582D01*
X167247Y141529D01*
X167198Y141468D01*
X167158Y141399D01*
X167130Y141325D01*
X167114Y141247D01*
X167110Y141168D01*
X167118Y141090D01*
X167139Y141013D01*
X167171Y140941D01*
X167215Y140875D01*
X167268Y140816D01*
X167329Y140766D01*
X167398Y140727D01*
X167472Y140699D01*
X167550Y140682D01*
X167629Y140678D01*
X167707Y140687D01*
X167784Y140707D01*
X167855Y140741D01*
X168099Y140863D01*
X168353Y140960D01*
X168616Y141034D01*
X168884Y141083D01*
X169155Y141108D01*
X169293D01*
Y135114D01*
X169155D01*
X168884Y135138D01*
X168616Y135188D01*
X168353Y135261D01*
X168099Y135358D01*
X167854Y135477D01*
X167783Y135511D01*
X167707Y135531D01*
X167629Y135540D01*
X167550Y135536D01*
X167473Y135520D01*
X167399Y135492D01*
X167331Y135453D01*
X167270Y135403D01*
X167217Y135345D01*
X167174Y135279D01*
X167142Y135207D01*
X167121Y135131D01*
X167113Y135053D01*
X167117Y134974D01*
X167133Y134897D01*
X167161Y134824D01*
X167200Y134755D01*
X167250Y134694D01*
X167308Y134641D01*
X167375Y134600D01*
X167700Y134437D01*
X168039Y134307D01*
X168390Y134209D01*
X168747Y134144D01*
X169110Y134111D01*
X169293D01*
Y102123D01*
X169291Y102123D01*
X168664Y102074D01*
X168051Y101927D01*
X167470Y101686D01*
X166933Y101357D01*
X166454Y100948D01*
X166045Y100469D01*
X166008Y100407D01*
Y135976D01*
X166077Y135949D01*
X166155Y135933D01*
X166234Y135929D01*
X166312Y135938D01*
X166389Y135958D01*
X166461Y135991D01*
X166527Y136034D01*
X166586Y136087D01*
X166636Y136149D01*
X166675Y136217D01*
X166703Y136291D01*
X166720Y136369D01*
X166724Y136448D01*
X166715Y136527D01*
X166695Y136603D01*
X166661Y136675D01*
X166539Y136918D01*
X166442Y137173D01*
X166368Y137435D01*
X166319Y137703D01*
X166294Y137974D01*
Y138247D01*
X166319Y138518D01*
X166368Y138786D01*
X166442Y139049D01*
X166539Y139303D01*
X166658Y139548D01*
X166692Y139619D01*
X166712Y139695D01*
X166721Y139773D01*
X166717Y139852D01*
X166700Y139929D01*
X166672Y140003D01*
X166633Y140071D01*
X166584Y140132D01*
X166525Y140185D01*
X166460Y140228D01*
X166388Y140260D01*
X166312Y140281D01*
X166234Y140289D01*
X166155Y140285D01*
X166078Y140269D01*
X166008Y140242D01*
Y154869D01*
G37*
G36*
X169293Y9843D02*X166008D01*
Y95814D01*
X166045Y95752D01*
X166454Y95273D01*
X166933Y94865D01*
X167470Y94536D01*
X168051Y94295D01*
X168664Y94148D01*
X169291Y94098D01*
X169293Y94098D01*
Y9843D01*
G37*
G36*
X166008D02*X160764D01*
Y95979D01*
X160767Y95980D01*
X160836Y96020D01*
X160897Y96069D01*
X160950Y96127D01*
X160991Y96194D01*
X161154Y96519D01*
X161284Y96859D01*
X161382Y97209D01*
X161447Y97567D01*
X161480Y97929D01*
Y98292D01*
X161447Y98655D01*
X161382Y99012D01*
X161284Y99363D01*
X161154Y99702D01*
X160995Y100029D01*
X160952Y100096D01*
X160899Y100154D01*
X160837Y100204D01*
X160769Y100244D01*
X160764Y100245D01*
Y135814D01*
X161055Y136289D01*
X161296Y136871D01*
X161443Y137483D01*
X161480Y138111D01*
X161443Y138738D01*
X161296Y139351D01*
X161055Y139932D01*
X160764Y140407D01*
Y155231D01*
X165786D01*
X166008Y154869D01*
Y140242D01*
X166004Y140241D01*
X165936Y140202D01*
X165875Y140152D01*
X165822Y140094D01*
X165780Y140027D01*
X165617Y139702D01*
X165488Y139363D01*
X165390Y139012D01*
X165324Y138655D01*
X165291Y138292D01*
Y137929D01*
X165324Y137567D01*
X165390Y137209D01*
X165488Y136859D01*
X165617Y136519D01*
X165777Y136192D01*
X165820Y136126D01*
X165873Y136067D01*
X165934Y136017D01*
X166003Y135978D01*
X166008Y135976D01*
Y100407D01*
X165716Y99932D01*
X165475Y99351D01*
X165328Y98738D01*
X165279Y98111D01*
X165328Y97483D01*
X165475Y96871D01*
X165716Y96289D01*
X166008Y95814D01*
Y9843D01*
G37*
G36*
Y194869D02*X166045Y194807D01*
X166454Y194329D01*
X166933Y193920D01*
X167470Y193591D01*
X168051Y193350D01*
X168664Y193203D01*
X169291Y193153D01*
X169293Y193154D01*
Y161178D01*
X169291Y161178D01*
X168664Y161129D01*
X168051Y160982D01*
X167470Y160741D01*
X166933Y160412D01*
X166454Y160003D01*
X166222Y159731D01*
X166008D01*
Y194869D01*
G37*
G36*
Y254239D02*X166045Y254177D01*
X166454Y253699D01*
X166933Y253290D01*
X167470Y252961D01*
X168051Y252720D01*
X168664Y252573D01*
X169291Y252523D01*
X169293Y252524D01*
Y220536D01*
X169110D01*
X168747Y220503D01*
X168390Y220437D01*
X168039Y220339D01*
X167700Y220210D01*
X167373Y220050D01*
X167306Y220008D01*
X167247Y219954D01*
X167198Y219893D01*
X167158Y219824D01*
X167130Y219750D01*
X167114Y219673D01*
X167110Y219594D01*
X167118Y219515D01*
X167139Y219438D01*
X167171Y219366D01*
X167215Y219300D01*
X167268Y219241D01*
X167329Y219191D01*
X167398Y219152D01*
X167472Y219124D01*
X167550Y219107D01*
X167629Y219103D01*
X167707Y219112D01*
X167784Y219133D01*
X167855Y219166D01*
X168099Y219289D01*
X168353Y219385D01*
X168616Y219459D01*
X168884Y219508D01*
X169155Y219533D01*
X169293D01*
Y213539D01*
X169155D01*
X168884Y213564D01*
X168616Y213613D01*
X168353Y213686D01*
X168099Y213783D01*
X167854Y213903D01*
X167783Y213936D01*
X167707Y213957D01*
X167629Y213965D01*
X167550Y213961D01*
X167473Y213945D01*
X167399Y213917D01*
X167331Y213878D01*
X167270Y213828D01*
X167217Y213770D01*
X167174Y213704D01*
X167142Y213632D01*
X167121Y213556D01*
X167113Y213478D01*
X167117Y213399D01*
X167133Y213322D01*
X167161Y213249D01*
X167200Y213181D01*
X167250Y213119D01*
X167308Y213067D01*
X167375Y213025D01*
X167700Y212862D01*
X168039Y212732D01*
X168390Y212635D01*
X168747Y212569D01*
X169110Y212536D01*
X169293D01*
Y201178D01*
X169291Y201178D01*
X168664Y201129D01*
X168051Y200982D01*
X167470Y200741D01*
X166933Y200412D01*
X166454Y200003D01*
X166045Y199524D01*
X166008Y199463D01*
Y214401D01*
X166077Y214375D01*
X166155Y214358D01*
X166234Y214354D01*
X166312Y214363D01*
X166389Y214383D01*
X166461Y214416D01*
X166527Y214459D01*
X166586Y214512D01*
X166636Y214574D01*
X166675Y214643D01*
X166703Y214717D01*
X166720Y214794D01*
X166724Y214873D01*
X166715Y214952D01*
X166695Y215028D01*
X166661Y215100D01*
X166539Y215343D01*
X166442Y215598D01*
X166368Y215860D01*
X166319Y216128D01*
X166294Y216400D01*
Y216672D01*
X166319Y216943D01*
X166368Y217211D01*
X166442Y217474D01*
X166539Y217728D01*
X166658Y217973D01*
X166692Y218044D01*
X166712Y218120D01*
X166721Y218199D01*
X166717Y218277D01*
X166700Y218354D01*
X166672Y218428D01*
X166633Y218496D01*
X166584Y218557D01*
X166525Y218610D01*
X166460Y218653D01*
X166388Y218685D01*
X166312Y218706D01*
X166234Y218714D01*
X166155Y218710D01*
X166078Y218694D01*
X166008Y218667D01*
Y254239D01*
G37*
G36*
Y332664D02*X166045Y332603D01*
X166454Y332124D01*
X166933Y331715D01*
X167470Y331386D01*
X168051Y331145D01*
X168664Y330998D01*
X169291Y330949D01*
X169293Y330949D01*
Y298961D01*
X169110D01*
X168747Y298928D01*
X168390Y298862D01*
X168039Y298764D01*
X167700Y298635D01*
X167373Y298476D01*
X167306Y298433D01*
X167247Y298380D01*
X167198Y298318D01*
X167158Y298249D01*
X167130Y298175D01*
X167114Y298098D01*
X167110Y298019D01*
X167118Y297940D01*
X167139Y297864D01*
X167171Y297791D01*
X167215Y297725D01*
X167268Y297666D01*
X167329Y297617D01*
X167398Y297577D01*
X167472Y297549D01*
X167550Y297533D01*
X167629Y297529D01*
X167707Y297537D01*
X167784Y297558D01*
X167855Y297592D01*
X168099Y297714D01*
X168353Y297811D01*
X168616Y297884D01*
X168884Y297933D01*
X169155Y297958D01*
X169293D01*
Y291964D01*
X169155D01*
X168884Y291989D01*
X168616Y292038D01*
X168353Y292111D01*
X168099Y292208D01*
X167854Y292328D01*
X167783Y292361D01*
X167707Y292382D01*
X167629Y292390D01*
X167550Y292386D01*
X167473Y292370D01*
X167399Y292342D01*
X167331Y292303D01*
X167270Y292254D01*
X167217Y292195D01*
X167174Y292129D01*
X167142Y292057D01*
X167121Y291981D01*
X167113Y291903D01*
X167117Y291825D01*
X167133Y291748D01*
X167161Y291674D01*
X167200Y291606D01*
X167250Y291545D01*
X167308Y291492D01*
X167375Y291450D01*
X167700Y291287D01*
X168039Y291158D01*
X168390Y291060D01*
X168747Y290994D01*
X169110Y290961D01*
X169293D01*
Y260548D01*
X169291Y260548D01*
X168664Y260499D01*
X168051Y260352D01*
X167470Y260111D01*
X166933Y259782D01*
X166454Y259373D01*
X166045Y258894D01*
X166008Y258833D01*
Y292826D01*
X166077Y292800D01*
X166155Y292784D01*
X166234Y292780D01*
X166312Y292788D01*
X166389Y292809D01*
X166461Y292841D01*
X166527Y292884D01*
X166586Y292937D01*
X166636Y292999D01*
X166675Y293068D01*
X166703Y293142D01*
X166720Y293219D01*
X166724Y293298D01*
X166715Y293377D01*
X166695Y293454D01*
X166661Y293525D01*
X166539Y293768D01*
X166442Y294023D01*
X166368Y294285D01*
X166319Y294553D01*
X166294Y294825D01*
Y295097D01*
X166319Y295369D01*
X166368Y295637D01*
X166442Y295899D01*
X166539Y296154D01*
X166658Y296398D01*
X166692Y296470D01*
X166712Y296546D01*
X166721Y296624D01*
X166717Y296702D01*
X166700Y296779D01*
X166672Y296853D01*
X166633Y296921D01*
X166584Y296982D01*
X166525Y297035D01*
X166460Y297078D01*
X166388Y297110D01*
X166312Y297131D01*
X166234Y297139D01*
X166155Y297135D01*
X166078Y297119D01*
X166008Y297092D01*
Y332664D01*
G37*
G36*
Y383858D02*X169293D01*
Y338973D01*
X169291Y338973D01*
X168664Y338924D01*
X168051Y338777D01*
X167470Y338536D01*
X166933Y338207D01*
X166454Y337798D01*
X166045Y337319D01*
X166008Y337258D01*
Y383858D01*
G37*
G36*
X160764D02*X166008D01*
Y337258D01*
X165716Y336783D01*
X165475Y336201D01*
X165328Y335589D01*
X165279Y334961D01*
X165328Y334333D01*
X165475Y333721D01*
X165716Y333139D01*
X166008Y332664D01*
Y297092D01*
X166004Y297091D01*
X165936Y297052D01*
X165875Y297003D01*
X165822Y296944D01*
X165780Y296878D01*
X165617Y296553D01*
X165488Y296213D01*
X165390Y295863D01*
X165324Y295505D01*
X165291Y295143D01*
Y294779D01*
X165324Y294417D01*
X165390Y294059D01*
X165488Y293709D01*
X165617Y293369D01*
X165777Y293042D01*
X165820Y292976D01*
X165873Y292917D01*
X165934Y292867D01*
X166003Y292828D01*
X166008Y292826D01*
Y258833D01*
X165716Y258357D01*
X165475Y257776D01*
X165328Y257163D01*
X165279Y256536D01*
X165328Y255908D01*
X165475Y255296D01*
X165716Y254714D01*
X166008Y254239D01*
Y218667D01*
X166004Y218666D01*
X165936Y218627D01*
X165875Y218577D01*
X165822Y218519D01*
X165780Y218452D01*
X165617Y218128D01*
X165488Y217788D01*
X165390Y217437D01*
X165324Y217080D01*
X165291Y216718D01*
Y216354D01*
X165324Y215992D01*
X165390Y215634D01*
X165488Y215284D01*
X165617Y214944D01*
X165777Y214617D01*
X165820Y214551D01*
X165873Y214492D01*
X165934Y214442D01*
X166003Y214403D01*
X166008Y214401D01*
Y199463D01*
X165716Y198987D01*
X165475Y198406D01*
X165328Y197793D01*
X165279Y197166D01*
X165328Y196538D01*
X165475Y195926D01*
X165716Y195344D01*
X166008Y194869D01*
Y159731D01*
X160764D01*
Y179287D01*
X161270Y179496D01*
X161807Y179825D01*
X162286Y180234D01*
X162695Y180713D01*
X163024Y181250D01*
X163265Y181831D01*
X163412Y182444D01*
X163449Y183071D01*
X163412Y183699D01*
X163265Y184311D01*
X163024Y184893D01*
X162695Y185430D01*
X162286Y185908D01*
X161807Y186317D01*
X161699Y186384D01*
Y200428D01*
X161807Y200495D01*
X162286Y200903D01*
X162695Y201382D01*
X163024Y201919D01*
X163265Y202501D01*
X163412Y203113D01*
X163449Y203741D01*
X163412Y204368D01*
X163265Y204980D01*
X163024Y205562D01*
X162695Y206099D01*
X162286Y206578D01*
X161807Y206987D01*
X161270Y207316D01*
X160764Y207525D01*
Y213924D01*
X161055Y214399D01*
X161296Y214981D01*
X161443Y215593D01*
X161480Y216221D01*
X161443Y216849D01*
X161296Y217461D01*
X161055Y218042D01*
X160764Y218518D01*
Y254089D01*
X160767Y254091D01*
X160836Y254130D01*
X160897Y254179D01*
X160950Y254238D01*
X160991Y254304D01*
X161154Y254629D01*
X161284Y254969D01*
X161382Y255319D01*
X161447Y255677D01*
X161480Y256039D01*
Y256403D01*
X161447Y256765D01*
X161382Y257123D01*
X161284Y257473D01*
X161154Y257813D01*
X160995Y258139D01*
X160952Y258206D01*
X160899Y258265D01*
X160837Y258314D01*
X160769Y258354D01*
X160764Y258356D01*
Y292664D01*
X161055Y293139D01*
X161296Y293721D01*
X161443Y294333D01*
X161480Y294961D01*
X161443Y295589D01*
X161296Y296201D01*
X161055Y296783D01*
X160764Y297258D01*
Y332830D01*
X160767Y332831D01*
X160836Y332870D01*
X160897Y332919D01*
X160950Y332978D01*
X160991Y333044D01*
X161154Y333369D01*
X161284Y333709D01*
X161382Y334059D01*
X161447Y334417D01*
X161480Y334779D01*
Y335143D01*
X161447Y335505D01*
X161382Y335863D01*
X161284Y336213D01*
X161154Y336553D01*
X160995Y336880D01*
X160952Y336946D01*
X160899Y337005D01*
X160837Y337055D01*
X160769Y337094D01*
X160764Y337096D01*
Y383858D01*
G37*
G36*
Y218518D02*X160726Y218579D01*
X160317Y219058D01*
X159839Y219467D01*
X159443Y219710D01*
Y252734D01*
X159465Y252749D01*
X159524Y252802D01*
X159574Y252864D01*
X159613Y252933D01*
X159642Y253007D01*
X159658Y253084D01*
X159662Y253163D01*
X159653Y253242D01*
X159633Y253318D01*
X159600Y253391D01*
X159557Y253457D01*
X159504Y253516D01*
X159443Y253565D01*
Y258881D01*
X159502Y258928D01*
X159555Y258987D01*
X159598Y259053D01*
X159630Y259124D01*
X159650Y259200D01*
X159659Y259279D01*
X159655Y259357D01*
X159639Y259434D01*
X159610Y259508D01*
X159571Y259576D01*
X159522Y259637D01*
X159464Y259690D01*
X159443Y259703D01*
Y291472D01*
X159839Y291715D01*
X160317Y292124D01*
X160726Y292603D01*
X160764Y292664D01*
Y258356D01*
X160695Y258382D01*
X160617Y258398D01*
X160538Y258402D01*
X160459Y258394D01*
X160383Y258373D01*
X160311Y258341D01*
X160244Y258298D01*
X160186Y258244D01*
X160136Y258183D01*
X160096Y258114D01*
X160068Y258040D01*
X160052Y257963D01*
X160048Y257884D01*
X160056Y257805D01*
X160077Y257728D01*
X160111Y257657D01*
X160233Y257413D01*
X160330Y257159D01*
X160403Y256896D01*
X160452Y256628D01*
X160477Y256357D01*
Y256085D01*
X160452Y255813D01*
X160403Y255545D01*
X160330Y255283D01*
X160233Y255028D01*
X160114Y254783D01*
X160080Y254712D01*
X160059Y254636D01*
X160051Y254558D01*
X160055Y254480D01*
X160071Y254402D01*
X160099Y254329D01*
X160138Y254261D01*
X160188Y254199D01*
X160246Y254147D01*
X160312Y254104D01*
X160384Y254071D01*
X160460Y254051D01*
X160538Y254043D01*
X160617Y254046D01*
X160694Y254063D01*
X160764Y254089D01*
Y218518D01*
G37*
G36*
Y207525D02*X160689Y207557D01*
X160076Y207703D01*
X159449Y207753D01*
X159443Y207752D01*
Y212732D01*
X159839Y212975D01*
X160317Y213384D01*
X160726Y213862D01*
X160764Y213924D01*
Y207525D01*
G37*
G36*
Y159731D02*X159443D01*
Y179059D01*
X159449Y179059D01*
X160076Y179108D01*
X160689Y179255D01*
X160764Y179287D01*
Y159731D01*
G37*
G36*
Y140407D02*X160726Y140469D01*
X160317Y140948D01*
X159839Y141357D01*
X159443Y141599D01*
Y155231D01*
X160764D01*
Y140407D01*
G37*
G36*
Y9843D02*X159443D01*
Y94624D01*
X159465Y94639D01*
X159524Y94692D01*
X159574Y94754D01*
X159613Y94822D01*
X159642Y94896D01*
X159658Y94974D01*
X159662Y95053D01*
X159653Y95132D01*
X159633Y95208D01*
X159600Y95280D01*
X159557Y95347D01*
X159504Y95405D01*
X159443Y95455D01*
Y100770D01*
X159502Y100818D01*
X159555Y100876D01*
X159598Y100942D01*
X159630Y101014D01*
X159650Y101090D01*
X159659Y101168D01*
X159655Y101247D01*
X159639Y101324D01*
X159610Y101398D01*
X159571Y101466D01*
X159522Y101527D01*
X159464Y101580D01*
X159443Y101593D01*
Y134622D01*
X159839Y134865D01*
X160317Y135273D01*
X160726Y135752D01*
X160764Y135814D01*
Y100245D01*
X160695Y100272D01*
X160617Y100288D01*
X160538Y100292D01*
X160459Y100284D01*
X160383Y100263D01*
X160311Y100231D01*
X160244Y100187D01*
X160186Y100134D01*
X160136Y100073D01*
X160096Y100004D01*
X160068Y99930D01*
X160052Y99852D01*
X160048Y99773D01*
X160056Y99695D01*
X160077Y99618D01*
X160111Y99547D01*
X160233Y99303D01*
X160330Y99049D01*
X160403Y98786D01*
X160452Y98518D01*
X160477Y98247D01*
Y97974D01*
X160452Y97703D01*
X160403Y97435D01*
X160330Y97173D01*
X160233Y96918D01*
X160114Y96673D01*
X160080Y96602D01*
X160059Y96526D01*
X160051Y96448D01*
X160055Y96369D01*
X160071Y96292D01*
X160099Y96219D01*
X160138Y96150D01*
X160188Y96089D01*
X160246Y96036D01*
X160312Y95993D01*
X160384Y95961D01*
X160460Y95941D01*
X160538Y95932D01*
X160617Y95936D01*
X160694Y95952D01*
X160764Y95979D01*
Y9843D01*
G37*
G36*
X159443Y383858D02*X160764D01*
Y337096D01*
X160695Y337122D01*
X160617Y337139D01*
X160538Y337142D01*
X160459Y337134D01*
X160383Y337113D01*
X160311Y337081D01*
X160244Y337038D01*
X160186Y336985D01*
X160136Y336923D01*
X160096Y336854D01*
X160068Y336780D01*
X160052Y336703D01*
X160048Y336624D01*
X160056Y336545D01*
X160077Y336469D01*
X160111Y336397D01*
X160233Y336154D01*
X160330Y335899D01*
X160403Y335637D01*
X160452Y335369D01*
X160477Y335097D01*
Y334825D01*
X160452Y334553D01*
X160403Y334285D01*
X160330Y334023D01*
X160233Y333768D01*
X160114Y333524D01*
X160080Y333452D01*
X160059Y333377D01*
X160051Y333298D01*
X160055Y333220D01*
X160071Y333143D01*
X160099Y333069D01*
X160138Y333001D01*
X160188Y332940D01*
X160246Y332887D01*
X160312Y332844D01*
X160384Y332812D01*
X160460Y332791D01*
X160538Y332783D01*
X160617Y332787D01*
X160694Y332803D01*
X160764Y332830D01*
Y297258D01*
X160726Y297319D01*
X160317Y297798D01*
X159839Y298207D01*
X159443Y298450D01*
Y331475D01*
X159465Y331489D01*
X159524Y331542D01*
X159574Y331604D01*
X159613Y331673D01*
X159642Y331747D01*
X159658Y331824D01*
X159662Y331903D01*
X159653Y331982D01*
X159633Y332058D01*
X159600Y332131D01*
X159557Y332197D01*
X159504Y332256D01*
X159443Y332305D01*
Y337621D01*
X159502Y337669D01*
X159555Y337727D01*
X159598Y337793D01*
X159630Y337865D01*
X159650Y337941D01*
X159659Y338019D01*
X159655Y338097D01*
X159639Y338174D01*
X159610Y338248D01*
X159571Y338316D01*
X159522Y338378D01*
X159464Y338430D01*
X159443Y338443D01*
Y383858D01*
G37*
G36*
X154196Y135814D02*X154234Y135752D01*
X154643Y135273D01*
X155122Y134865D01*
X155659Y134536D01*
X156240Y134295D01*
X156853Y134148D01*
X157480Y134098D01*
X158108Y134148D01*
X158720Y134295D01*
X159302Y134536D01*
X159443Y134622D01*
Y101593D01*
X159397Y101622D01*
X159072Y101785D01*
X158732Y101914D01*
X158382Y102012D01*
X158024Y102078D01*
X157662Y102111D01*
X157298D01*
X156936Y102078D01*
X156579Y102012D01*
X156228Y101914D01*
X155889Y101785D01*
X155562Y101625D01*
X155495Y101582D01*
X155436Y101529D01*
X155387Y101468D01*
X155347Y101399D01*
X155319Y101325D01*
X155303Y101247D01*
X155299Y101168D01*
X155307Y101090D01*
X155328Y101013D01*
X155360Y100941D01*
X155404Y100875D01*
X155457Y100816D01*
X155518Y100766D01*
X155587Y100727D01*
X155661Y100699D01*
X155739Y100682D01*
X155818Y100678D01*
X155896Y100687D01*
X155973Y100707D01*
X156044Y100741D01*
X156288Y100863D01*
X156542Y100960D01*
X156805Y101034D01*
X157073Y101083D01*
X157344Y101108D01*
X157617D01*
X157888Y101083D01*
X158156Y101034D01*
X158418Y100960D01*
X158673Y100863D01*
X158918Y100744D01*
X158989Y100710D01*
X159065Y100690D01*
X159143Y100681D01*
X159222Y100685D01*
X159299Y100701D01*
X159372Y100730D01*
X159440Y100769D01*
X159443Y100770D01*
Y95455D01*
X159442Y95455D01*
X159374Y95495D01*
X159300Y95523D01*
X159222Y95539D01*
X159143Y95543D01*
X159064Y95535D01*
X158988Y95514D01*
X158916Y95480D01*
X158673Y95358D01*
X158418Y95261D01*
X158156Y95188D01*
X157888Y95138D01*
X157617Y95114D01*
X157344D01*
X157073Y95138D01*
X156805Y95188D01*
X156542Y95261D01*
X156288Y95358D01*
X156043Y95477D01*
X155972Y95511D01*
X155896Y95531D01*
X155818Y95540D01*
X155739Y95536D01*
X155662Y95520D01*
X155588Y95492D01*
X155520Y95453D01*
X155459Y95403D01*
X155406Y95345D01*
X155363Y95279D01*
X155331Y95207D01*
X155310Y95131D01*
X155302Y95053D01*
X155306Y94974D01*
X155322Y94897D01*
X155350Y94824D01*
X155389Y94755D01*
X155439Y94694D01*
X155497Y94641D01*
X155564Y94600D01*
X155889Y94437D01*
X156228Y94307D01*
X156579Y94209D01*
X156936Y94144D01*
X157298Y94111D01*
X157662D01*
X158024Y94144D01*
X158382Y94209D01*
X158732Y94307D01*
X159072Y94437D01*
X159399Y94596D01*
X159443Y94624D01*
Y9843D01*
X154196D01*
Y49950D01*
X154282Y50314D01*
X154341Y50746D01*
X154361Y51181D01*
X154341Y51617D01*
X154282Y52049D01*
X154196Y52413D01*
Y95976D01*
X154266Y95949D01*
X154344Y95933D01*
X154423Y95929D01*
X154501Y95938D01*
X154578Y95958D01*
X154650Y95991D01*
X154716Y96034D01*
X154775Y96087D01*
X154825Y96149D01*
X154864Y96217D01*
X154892Y96291D01*
X154909Y96369D01*
X154913Y96448D01*
X154904Y96527D01*
X154884Y96603D01*
X154850Y96675D01*
X154728Y96918D01*
X154631Y97173D01*
X154557Y97435D01*
X154508Y97703D01*
X154483Y97974D01*
Y98247D01*
X154508Y98518D01*
X154557Y98786D01*
X154631Y99049D01*
X154728Y99303D01*
X154847Y99548D01*
X154881Y99619D01*
X154901Y99695D01*
X154910Y99773D01*
X154906Y99852D01*
X154889Y99929D01*
X154861Y100003D01*
X154822Y100071D01*
X154773Y100132D01*
X154714Y100185D01*
X154649Y100228D01*
X154577Y100260D01*
X154501Y100281D01*
X154423Y100289D01*
X154344Y100285D01*
X154267Y100269D01*
X154196Y100242D01*
Y135814D01*
G37*
G36*
Y154952D02*X154475Y155231D01*
X159443D01*
Y141599D01*
X159302Y141686D01*
X158720Y141927D01*
X158108Y142074D01*
X157480Y142123D01*
X156853Y142074D01*
X156240Y141927D01*
X155659Y141686D01*
X155122Y141357D01*
X154643Y140948D01*
X154234Y140469D01*
X154196Y140407D01*
Y154952D01*
G37*
G36*
X149608Y114931D02*X151135Y116457D01*
X151202Y116515D01*
X151432Y116784D01*
X151432Y116784D01*
X151617Y117086D01*
X151753Y117413D01*
X151835Y117758D01*
X151863Y118111D01*
X151856Y118199D01*
Y152612D01*
X154196Y154952D01*
Y140407D01*
X153905Y139932D01*
X153664Y139351D01*
X153517Y138738D01*
X153468Y138111D01*
X153517Y137483D01*
X153664Y136871D01*
X153905Y136289D01*
X154196Y135814D01*
Y100242D01*
X154193Y100241D01*
X154125Y100202D01*
X154064Y100152D01*
X154011Y100094D01*
X153969Y100027D01*
X153806Y99702D01*
X153677Y99363D01*
X153579Y99012D01*
X153513Y98655D01*
X153480Y98292D01*
Y97929D01*
X153513Y97567D01*
X153579Y97209D01*
X153677Y96859D01*
X153806Y96519D01*
X153966Y96192D01*
X154009Y96126D01*
X154062Y96067D01*
X154123Y96017D01*
X154192Y95978D01*
X154196Y95976D01*
Y52413D01*
X154183Y52473D01*
X154045Y52886D01*
X153870Y53286D01*
X153660Y53667D01*
X153614Y53732D01*
X153557Y53788D01*
X153493Y53834D01*
X153423Y53870D01*
X153347Y53895D01*
X153269Y53907D01*
X153189Y53907D01*
X153111Y53895D01*
X153036Y53870D01*
X152965Y53834D01*
X152901Y53788D01*
X152845Y53731D01*
X152798Y53667D01*
X152762Y53597D01*
X152738Y53521D01*
X152725Y53443D01*
X152725Y53363D01*
X152738Y53285D01*
X152762Y53210D01*
X152800Y53140D01*
X152969Y52841D01*
X153107Y52526D01*
X153215Y52200D01*
X153293Y51865D01*
X153341Y51525D01*
X153356Y51181D01*
X153341Y50838D01*
X153293Y50498D01*
X153215Y50163D01*
X153107Y49837D01*
X152969Y49522D01*
X152803Y49221D01*
X152766Y49152D01*
X152742Y49077D01*
X152729Y48999D01*
X152729Y48921D01*
X152742Y48843D01*
X152766Y48768D01*
X152802Y48698D01*
X152848Y48634D01*
X152903Y48578D01*
X152967Y48532D01*
X153037Y48496D01*
X153112Y48472D01*
X153190Y48460D01*
X153268Y48460D01*
X153346Y48472D01*
X153421Y48496D01*
X153491Y48532D01*
X153555Y48578D01*
X153611Y48634D01*
X153656Y48698D01*
X153870Y49077D01*
X154045Y49476D01*
X154183Y49890D01*
X154196Y49950D01*
Y9843D01*
X149608D01*
Y46427D01*
X150042Y46446D01*
X150473Y46506D01*
X150898Y46605D01*
X151311Y46743D01*
X151711Y46917D01*
X152092Y47128D01*
X152157Y47174D01*
X152213Y47230D01*
X152259Y47295D01*
X152295Y47365D01*
X152320Y47441D01*
X152332Y47519D01*
X152332Y47598D01*
X152320Y47677D01*
X152295Y47752D01*
X152259Y47823D01*
X152212Y47887D01*
X152156Y47943D01*
X152092Y47990D01*
X152021Y48026D01*
X151946Y48050D01*
X151868Y48062D01*
X151788Y48062D01*
X151710Y48050D01*
X151634Y48025D01*
X151565Y47988D01*
X151266Y47819D01*
X150951Y47681D01*
X150625Y47572D01*
X150290Y47494D01*
X149950Y47447D01*
X149608Y47432D01*
Y54931D01*
X149950Y54916D01*
X150290Y54869D01*
X150625Y54791D01*
X150951Y54682D01*
X151266Y54544D01*
X151567Y54378D01*
X151636Y54341D01*
X151711Y54317D01*
X151789Y54305D01*
X151867Y54304D01*
X151945Y54317D01*
X152020Y54341D01*
X152090Y54377D01*
X152154Y54423D01*
X152209Y54479D01*
X152256Y54542D01*
X152291Y54612D01*
X152316Y54687D01*
X152328Y54765D01*
X152328Y54844D01*
X152316Y54921D01*
X152292Y54996D01*
X152256Y55066D01*
X152210Y55130D01*
X152154Y55186D01*
X152089Y55231D01*
X151711Y55446D01*
X151311Y55620D01*
X150898Y55758D01*
X150473Y55857D01*
X150042Y55917D01*
X149608Y55936D01*
Y114931D01*
G37*
G36*
X145669Y111917D02*X145669D01*
X146022Y111944D01*
X146022Y111944D01*
X146367Y112027D01*
X146694Y112163D01*
X146996Y112348D01*
X147265Y112578D01*
X147323Y112645D01*
X149608Y114931D01*
Y55936D01*
X149606Y55936D01*
X149171Y55917D01*
X148739Y55857D01*
X148315Y55758D01*
X147901Y55620D01*
X147502Y55446D01*
X147121Y55235D01*
X147056Y55189D01*
X147000Y55133D01*
X146953Y55068D01*
X146917Y54998D01*
X146893Y54922D01*
X146881Y54844D01*
X146881Y54765D01*
X146893Y54686D01*
X146918Y54611D01*
X146954Y54540D01*
X147000Y54476D01*
X147056Y54420D01*
X147121Y54373D01*
X147191Y54337D01*
X147267Y54313D01*
X147345Y54301D01*
X147424Y54301D01*
X147503Y54313D01*
X147578Y54338D01*
X147648Y54375D01*
X147947Y54544D01*
X148262Y54682D01*
X148588Y54791D01*
X148923Y54869D01*
X149263Y54916D01*
X149606Y54931D01*
X149608Y54931D01*
Y47432D01*
X149606Y47431D01*
X149263Y47447D01*
X148923Y47494D01*
X148588Y47572D01*
X148262Y47681D01*
X147947Y47819D01*
X147646Y47985D01*
X147577Y48022D01*
X147502Y48046D01*
X147424Y48058D01*
X147345Y48059D01*
X147268Y48046D01*
X147193Y48022D01*
X147123Y47986D01*
X147059Y47940D01*
X147003Y47884D01*
X146957Y47821D01*
X146921Y47751D01*
X146897Y47676D01*
X146885Y47598D01*
X146884Y47519D01*
X146897Y47442D01*
X146921Y47367D01*
X146957Y47297D01*
X147003Y47233D01*
X147059Y47177D01*
X147123Y47132D01*
X147502Y46917D01*
X147901Y46743D01*
X148315Y46605D01*
X148739Y46506D01*
X149171Y46446D01*
X149606Y46427D01*
X149608Y46427D01*
Y9843D01*
X145669D01*
Y48565D01*
X145719Y48529D01*
X145790Y48493D01*
X145865Y48468D01*
X145944Y48456D01*
X146023Y48456D01*
X146101Y48468D01*
X146177Y48493D01*
X146248Y48529D01*
X146312Y48575D01*
X146368Y48632D01*
X146414Y48696D01*
X146450Y48766D01*
X146475Y48842D01*
X146487Y48920D01*
X146487Y49000D01*
X146475Y49078D01*
X146450Y49153D01*
X146413Y49223D01*
X146243Y49522D01*
X146106Y49837D01*
X145997Y50163D01*
X145919Y50498D01*
X145872Y50838D01*
X145856Y51182D01*
X145872Y51525D01*
X145919Y51865D01*
X145997Y52200D01*
X146106Y52526D01*
X146243Y52841D01*
X146410Y53142D01*
X146447Y53211D01*
X146471Y53286D01*
X146483Y53364D01*
X146483Y53442D01*
X146471Y53520D01*
X146447Y53595D01*
X146411Y53665D01*
X146365Y53729D01*
X146309Y53785D01*
X146245Y53831D01*
X146175Y53867D01*
X146101Y53891D01*
X146023Y53903D01*
X145944Y53903D01*
X145866Y53891D01*
X145792Y53867D01*
X145721Y53831D01*
X145669Y53793D01*
Y111917D01*
G37*
G36*
X143265Y111924D02*X145581D01*
X145669Y111917D01*
Y53793D01*
X145658Y53785D01*
X145602Y53729D01*
X145557Y53665D01*
X145342Y53286D01*
X145168Y52886D01*
X145030Y52473D01*
X144931Y52049D01*
X144871Y51617D01*
X144851Y51181D01*
X144871Y50746D01*
X144931Y50314D01*
X145030Y49890D01*
X145168Y49476D01*
X145342Y49077D01*
X145553Y48696D01*
X145599Y48631D01*
X145655Y48575D01*
X145669Y48565D01*
Y9843D01*
X143265D01*
Y15422D01*
X143296Y15438D01*
X143358Y15487D01*
X143412Y15544D01*
X143455Y15610D01*
X143641Y15965D01*
X143789Y16338D01*
X143901Y16723D01*
X143976Y17117D01*
X144014Y17516D01*
Y17918D01*
X143976Y18317D01*
X143901Y18711D01*
X143789Y19096D01*
X143641Y19469D01*
X143459Y19826D01*
X143415Y19892D01*
X143360Y19950D01*
X143298Y19998D01*
X143265Y20016D01*
Y93921D01*
X143318Y93966D01*
X143420Y94086D01*
X143502Y94220D01*
X143562Y94366D01*
X143599Y94519D01*
X143608Y94676D01*
X143599Y102333D01*
X143562Y102486D01*
X143502Y102631D01*
X143420Y102765D01*
X143318Y102885D01*
X143265Y102930D01*
Y111924D01*
G37*
G36*
Y9843D02*X138858D01*
Y13563D01*
X139164Y13505D01*
X139563Y13467D01*
X139964D01*
X140364Y13505D01*
X140758Y13580D01*
X141143Y13692D01*
X141516Y13840D01*
X141873Y14022D01*
X141939Y14066D01*
X141997Y14120D01*
X142045Y14183D01*
X142083Y14253D01*
X142110Y14327D01*
X142125Y14405D01*
X142128Y14484D01*
X142118Y14563D01*
X142095Y14639D01*
X142062Y14711D01*
X142017Y14776D01*
X141963Y14834D01*
X141900Y14883D01*
X141831Y14921D01*
X141756Y14948D01*
X141678Y14962D01*
X141599Y14965D01*
X141520Y14955D01*
X141444Y14933D01*
X141373Y14898D01*
X141102Y14755D01*
X140817Y14642D01*
X140523Y14557D01*
X140222Y14499D01*
X139917Y14471D01*
X139611D01*
X139306Y14499D01*
X139005Y14557D01*
X138858Y14599D01*
Y20834D01*
X139005Y20877D01*
X139306Y20934D01*
X139611Y20963D01*
X139917D01*
X140222Y20934D01*
X140523Y20877D01*
X140817Y20791D01*
X141102Y20679D01*
X141375Y20539D01*
X141445Y20505D01*
X141521Y20483D01*
X141599Y20473D01*
X141678Y20475D01*
X141755Y20490D01*
X141829Y20516D01*
X141898Y20554D01*
X141960Y20603D01*
X142014Y20660D01*
X142059Y20725D01*
X142092Y20796D01*
X142114Y20872D01*
X142124Y20950D01*
X142121Y21028D01*
X142107Y21106D01*
X142080Y21180D01*
X142042Y21249D01*
X141994Y21311D01*
X141937Y21365D01*
X141871Y21408D01*
X141516Y21594D01*
X141143Y21742D01*
X140758Y21854D01*
X140364Y21929D01*
X139964Y21967D01*
X139563D01*
X139164Y21929D01*
X138858Y21871D01*
Y93680D01*
X142765Y93685D01*
X142918Y93722D01*
X143064Y93782D01*
X143198Y93864D01*
X143265Y93921D01*
Y20016D01*
X143228Y20037D01*
X143154Y20063D01*
X143076Y20078D01*
X142996Y20081D01*
X142918Y20071D01*
X142842Y20049D01*
X142770Y20015D01*
X142704Y19970D01*
X142647Y19916D01*
X142598Y19853D01*
X142560Y19784D01*
X142533Y19709D01*
X142518Y19631D01*
X142516Y19552D01*
X142526Y19473D01*
X142548Y19397D01*
X142583Y19326D01*
X142725Y19055D01*
X142838Y18770D01*
X142924Y18476D01*
X142981Y18175D01*
X143010Y17870D01*
Y17564D01*
X142981Y17259D01*
X142924Y16958D01*
X142838Y16663D01*
X142725Y16379D01*
X142586Y16106D01*
X142551Y16035D01*
X142529Y15960D01*
X142519Y15882D01*
X142522Y15803D01*
X142537Y15726D01*
X142563Y15652D01*
X142601Y15583D01*
X142649Y15520D01*
X142707Y15466D01*
X142772Y15422D01*
X142843Y15389D01*
X142919Y15367D01*
X142997Y15357D01*
X143075Y15359D01*
X143153Y15374D01*
X143227Y15401D01*
X143265Y15422D01*
Y9843D01*
G37*
G36*
X138858Y111924D02*X143265D01*
Y102930D01*
X143198Y102987D01*
X143064Y103069D01*
X142918Y103130D01*
X142765Y103166D01*
X142608Y103176D01*
X138858Y103171D01*
Y111924D01*
G37*
G36*
X136263Y93677D02*X138858Y93680D01*
Y21871D01*
X138770Y21854D01*
X138385Y21742D01*
X138012Y21594D01*
X137654Y21412D01*
X137589Y21368D01*
X137531Y21313D01*
X137482Y21251D01*
X137444Y21181D01*
X137417Y21107D01*
X137402Y21029D01*
X137400Y20950D01*
X137410Y20871D01*
X137432Y20795D01*
X137466Y20723D01*
X137510Y20658D01*
X137565Y20600D01*
X137627Y20551D01*
X137697Y20513D01*
X137771Y20486D01*
X137849Y20471D01*
X137929Y20469D01*
X138007Y20479D01*
X138083Y20501D01*
X138154Y20536D01*
X138425Y20679D01*
X138710Y20791D01*
X138858Y20834D01*
Y14599D01*
X138710Y14642D01*
X138425Y14755D01*
X138152Y14894D01*
X138082Y14929D01*
X138006Y14951D01*
X137928Y14961D01*
X137850Y14959D01*
X137772Y14944D01*
X137698Y14917D01*
X137629Y14880D01*
X137567Y14831D01*
X137513Y14774D01*
X137469Y14709D01*
X137436Y14638D01*
X137414Y14562D01*
X137404Y14484D01*
X137406Y14405D01*
X137421Y14328D01*
X137447Y14254D01*
X137485Y14185D01*
X137534Y14123D01*
X137591Y14069D01*
X137657Y14026D01*
X138012Y13840D01*
X138385Y13692D01*
X138770Y13580D01*
X138858Y13563D01*
Y9843D01*
X136263D01*
Y15417D01*
X136299Y15397D01*
X136374Y15370D01*
X136452Y15356D01*
X136531Y15353D01*
X136610Y15363D01*
X136686Y15385D01*
X136758Y15419D01*
X136823Y15464D01*
X136881Y15518D01*
X136929Y15581D01*
X136968Y15650D01*
X136994Y15725D01*
X137009Y15803D01*
X137012Y15882D01*
X137002Y15960D01*
X136980Y16036D01*
X136944Y16107D01*
X136802Y16379D01*
X136689Y16663D01*
X136604Y16958D01*
X136546Y17259D01*
X136517Y17564D01*
Y17870D01*
X136546Y18175D01*
X136604Y18476D01*
X136689Y18770D01*
X136802Y19055D01*
X136941Y19328D01*
X136976Y19399D01*
X136998Y19474D01*
X137008Y19552D01*
X137006Y19631D01*
X136991Y19708D01*
X136964Y19782D01*
X136926Y19851D01*
X136878Y19914D01*
X136821Y19967D01*
X136756Y20012D01*
X136685Y20045D01*
X136609Y20067D01*
X136531Y20077D01*
X136452Y20075D01*
X136375Y20060D01*
X136301Y20033D01*
X136263Y20012D01*
Y93677D01*
G37*
G36*
Y111924D02*X138858D01*
Y103171D01*
X136263Y103168D01*
Y111924D01*
G37*
G36*
X128851D02*X136263D01*
Y103168D01*
X134951Y103166D01*
X134798Y103130D01*
X134653Y103069D01*
X134519Y102987D01*
X134399Y102885D01*
X134297Y102765D01*
X134215Y102631D01*
X134154Y102486D01*
X134118Y102333D01*
X134108Y102176D01*
X134118Y94519D01*
X134154Y94366D01*
X134215Y94220D01*
X134297Y94086D01*
X134399Y93966D01*
X134519Y93864D01*
X134653Y93782D01*
X134798Y93722D01*
X134951Y93685D01*
X135108Y93676D01*
X136263Y93677D01*
Y20012D01*
X136232Y19995D01*
X136170Y19947D01*
X136116Y19890D01*
X136073Y19824D01*
X135887Y19469D01*
X135739Y19096D01*
X135627Y18711D01*
X135552Y18317D01*
X135514Y17918D01*
Y17516D01*
X135552Y17117D01*
X135627Y16723D01*
X135739Y16338D01*
X135887Y15965D01*
X136069Y15608D01*
X136113Y15542D01*
X136167Y15484D01*
X136230Y15435D01*
X136263Y15417D01*
Y9843D01*
X128851D01*
Y93662D01*
X128858Y93661D01*
X129604Y93720D01*
X130331Y93894D01*
X131021Y94180D01*
X131659Y94571D01*
X132227Y95056D01*
X132713Y95625D01*
X133104Y96262D01*
X133390Y96953D01*
X133564Y97680D01*
X133608Y98426D01*
X133564Y99171D01*
X133390Y99898D01*
X133104Y100589D01*
X132713Y101226D01*
X132227Y101795D01*
X131659Y102280D01*
X131021Y102671D01*
X130331Y102957D01*
X129604Y103132D01*
X128858Y103190D01*
X128851Y103190D01*
Y111924D01*
G37*
G36*
X113736Y86333D02*X116054D01*
X116142Y86326D01*
X116495Y86354D01*
X116495Y86354D01*
X116839Y86437D01*
X117166Y86572D01*
X117468Y86757D01*
X117738Y86987D01*
X117795Y87054D01*
X121607Y90867D01*
X121675Y90924D01*
X121904Y91193D01*
X121905Y91193D01*
X122090Y91495D01*
X122225Y91823D01*
X122308Y92167D01*
X122336Y92520D01*
X122329Y92608D01*
Y109305D01*
X124948Y111924D01*
X128851D01*
Y103190D01*
X128113Y103132D01*
X127386Y102957D01*
X126695Y102671D01*
X126058Y102280D01*
X125489Y101795D01*
X125004Y101226D01*
X124613Y100589D01*
X124327Y99898D01*
X124152Y99171D01*
X124094Y98426D01*
X124152Y97680D01*
X124327Y96953D01*
X124613Y96262D01*
X125004Y95625D01*
X125489Y95056D01*
X126058Y94571D01*
X126695Y94180D01*
X127386Y93894D01*
X128113Y93720D01*
X128851Y93662D01*
Y9843D01*
X113736D01*
Y56761D01*
X113767Y56777D01*
X113829Y56826D01*
X113883Y56883D01*
X113926Y56949D01*
X114112Y57304D01*
X114260Y57677D01*
X114372Y58062D01*
X114447Y58456D01*
X114485Y58855D01*
Y59256D01*
X114447Y59656D01*
X114372Y60050D01*
X114260Y60435D01*
X114112Y60808D01*
X113930Y61165D01*
X113886Y61231D01*
X113831Y61289D01*
X113769Y61337D01*
X113736Y61355D01*
Y76320D01*
X114033Y76805D01*
X114289Y77423D01*
X114445Y78074D01*
X114485Y78741D01*
X114445Y79408D01*
X114289Y80058D01*
X114033Y80676D01*
X113736Y81162D01*
Y86333D01*
G37*
G36*
Y9843D02*X109948D01*
Y54814D01*
X110034Y54806D01*
X110435D01*
X110835Y54844D01*
X111229Y54919D01*
X111614Y55031D01*
X111987Y55179D01*
X112344Y55361D01*
X112410Y55405D01*
X112468Y55459D01*
X112516Y55522D01*
X112554Y55592D01*
X112581Y55666D01*
X112596Y55744D01*
X112598Y55823D01*
X112589Y55902D01*
X112566Y55978D01*
X112533Y56050D01*
X112488Y56115D01*
X112434Y56173D01*
X112371Y56222D01*
X112302Y56260D01*
X112227Y56287D01*
X112149Y56301D01*
X112070Y56304D01*
X111991Y56294D01*
X111915Y56272D01*
X111844Y56237D01*
X111573Y56094D01*
X111288Y55981D01*
X110994Y55896D01*
X110693Y55838D01*
X110388Y55810D01*
X110081D01*
X109948Y55822D01*
Y62290D01*
X110081Y62302D01*
X110388D01*
X110693Y62273D01*
X110994Y62216D01*
X111288Y62130D01*
X111573Y62018D01*
X111846Y61878D01*
X111916Y61843D01*
X111992Y61822D01*
X112070Y61812D01*
X112149Y61814D01*
X112226Y61829D01*
X112300Y61855D01*
X112369Y61893D01*
X112431Y61942D01*
X112485Y61999D01*
X112529Y62064D01*
X112563Y62135D01*
X112585Y62211D01*
X112595Y62289D01*
X112592Y62367D01*
X112578Y62445D01*
X112551Y62519D01*
X112513Y62588D01*
X112465Y62650D01*
X112408Y62704D01*
X112342Y62747D01*
X111987Y62933D01*
X111614Y63081D01*
X111229Y63193D01*
X110835Y63268D01*
X110435Y63306D01*
X110034D01*
X109948Y63298D01*
Y74500D01*
X110235Y74478D01*
X110902Y74530D01*
X111552Y74686D01*
X112170Y74942D01*
X112740Y75292D01*
X113249Y75726D01*
X113684Y76235D01*
X113736Y76320D01*
Y61355D01*
X113699Y61376D01*
X113624Y61402D01*
X113547Y61417D01*
X113467Y61420D01*
X113389Y61410D01*
X113313Y61388D01*
X113241Y61354D01*
X113175Y61309D01*
X113118Y61255D01*
X113069Y61192D01*
X113031Y61123D01*
X113004Y61048D01*
X112989Y60970D01*
X112987Y60891D01*
X112997Y60812D01*
X113019Y60736D01*
X113054Y60665D01*
X113196Y60394D01*
X113309Y60109D01*
X113395Y59815D01*
X113452Y59514D01*
X113481Y59209D01*
Y58903D01*
X113452Y58598D01*
X113395Y58297D01*
X113309Y58002D01*
X113196Y57718D01*
X113057Y57445D01*
X113022Y57374D01*
X113000Y57299D01*
X112990Y57221D01*
X112993Y57142D01*
X113008Y57065D01*
X113034Y56991D01*
X113072Y56922D01*
X113120Y56859D01*
X113178Y56805D01*
X113243Y56761D01*
X113314Y56728D01*
X113389Y56706D01*
X113468Y56696D01*
X113546Y56698D01*
X113624Y56713D01*
X113698Y56740D01*
X113736Y56761D01*
Y9843D01*
G37*
G36*
X109948Y86333D02*X113736D01*
Y81162D01*
X113684Y81247D01*
X113249Y81755D01*
X112740Y82190D01*
X112170Y82539D01*
X111552Y82795D01*
X110902Y82951D01*
X110235Y83004D01*
X109948Y82981D01*
Y86333D01*
G37*
G36*
Y94185D02*X110235Y94163D01*
X110902Y94215D01*
X111552Y94371D01*
X112170Y94627D01*
X112740Y94977D01*
X113249Y95411D01*
X113684Y95920D01*
X114033Y96490D01*
X114289Y97108D01*
X114445Y97759D01*
X114485Y98426D01*
X114445Y99093D01*
X114289Y99743D01*
X114033Y100361D01*
X113684Y100932D01*
X113249Y101440D01*
X112740Y101875D01*
X112486Y102031D01*
Y108320D01*
X124948Y120782D01*
X140388D01*
X140455Y120673D01*
X140864Y120195D01*
X141342Y119786D01*
X141879Y119457D01*
X142461Y119216D01*
X143073Y119069D01*
X143701Y119020D01*
X144328Y119069D01*
X144941Y119216D01*
X145522Y119457D01*
X146059Y119786D01*
X146538Y120195D01*
X146947Y120673D01*
X147276Y121210D01*
X147356Y121405D01*
Y119043D01*
X144737Y116424D01*
X124104D01*
X124016Y116431D01*
X123663Y116403D01*
X123318Y116320D01*
X122991Y116185D01*
X122689Y116000D01*
X122689Y115999D01*
X122420Y115770D01*
X122362Y115702D01*
X118550Y111890D01*
X118483Y111833D01*
X118253Y111563D01*
X118068Y111261D01*
X117932Y110934D01*
X117850Y110590D01*
X117850Y110589D01*
X117822Y110237D01*
X117829Y110148D01*
Y93452D01*
X115210Y90833D01*
X109948D01*
Y94185D01*
G37*
G36*
Y113870D02*X110235Y113848D01*
X110902Y113900D01*
X111552Y114056D01*
X112074Y114273D01*
X109948Y112146D01*
Y113870D01*
G37*
G36*
X154196Y213924D02*X154234Y213862D01*
X154643Y213384D01*
X155122Y212975D01*
X155659Y212646D01*
X156240Y212405D01*
X156853Y212258D01*
X157480Y212209D01*
X158108Y212258D01*
X158720Y212405D01*
X159302Y212646D01*
X159443Y212732D01*
Y207752D01*
X158821Y207703D01*
X158209Y207557D01*
X157627Y207316D01*
X157090Y206987D01*
X156612Y206578D01*
X156203Y206099D01*
X155874Y205562D01*
X155633Y204980D01*
X155486Y204368D01*
X155436Y203741D01*
X155486Y203113D01*
X155633Y202501D01*
X155874Y201919D01*
X156203Y201382D01*
X156612Y200903D01*
X157090Y200495D01*
X157199Y200428D01*
Y186384D01*
X157090Y186317D01*
X156612Y185908D01*
X156203Y185430D01*
X155874Y184893D01*
X155633Y184311D01*
X155486Y183699D01*
X155436Y183071D01*
X155486Y182444D01*
X155633Y181831D01*
X155874Y181250D01*
X156203Y180713D01*
X156612Y180234D01*
X157090Y179825D01*
X157627Y179496D01*
X158209Y179255D01*
X158821Y179108D01*
X159443Y179059D01*
Y159731D01*
X154196D01*
Y213924D01*
G37*
G36*
Y292664D02*X154234Y292603D01*
X154643Y292124D01*
X155122Y291715D01*
X155659Y291386D01*
X156240Y291145D01*
X156853Y290998D01*
X157480Y290949D01*
X158108Y290998D01*
X158720Y291145D01*
X159302Y291386D01*
X159443Y291472D01*
Y259703D01*
X159397Y259732D01*
X159072Y259895D01*
X158732Y260024D01*
X158382Y260122D01*
X158024Y260188D01*
X157662Y260221D01*
X157298D01*
X156936Y260188D01*
X156579Y260122D01*
X156228Y260024D01*
X155889Y259895D01*
X155562Y259735D01*
X155495Y259693D01*
X155436Y259639D01*
X155387Y259578D01*
X155347Y259509D01*
X155319Y259435D01*
X155303Y259358D01*
X155299Y259279D01*
X155307Y259200D01*
X155328Y259123D01*
X155360Y259051D01*
X155404Y258985D01*
X155457Y258926D01*
X155518Y258876D01*
X155587Y258837D01*
X155661Y258809D01*
X155739Y258792D01*
X155818Y258788D01*
X155896Y258797D01*
X155973Y258818D01*
X156044Y258851D01*
X156288Y258974D01*
X156542Y259070D01*
X156805Y259144D01*
X157073Y259193D01*
X157344Y259218D01*
X157617D01*
X157888Y259193D01*
X158156Y259144D01*
X158418Y259070D01*
X158673Y258974D01*
X158918Y258854D01*
X158989Y258821D01*
X159065Y258800D01*
X159143Y258792D01*
X159222Y258796D01*
X159299Y258812D01*
X159372Y258840D01*
X159440Y258879D01*
X159443Y258881D01*
Y253565D01*
X159442Y253565D01*
X159374Y253605D01*
X159300Y253633D01*
X159222Y253649D01*
X159143Y253653D01*
X159064Y253645D01*
X158988Y253624D01*
X158916Y253590D01*
X158673Y253468D01*
X158418Y253371D01*
X158156Y253298D01*
X157888Y253249D01*
X157617Y253224D01*
X157344D01*
X157073Y253249D01*
X156805Y253298D01*
X156542Y253371D01*
X156288Y253468D01*
X156043Y253588D01*
X155972Y253621D01*
X155896Y253642D01*
X155818Y253650D01*
X155739Y253646D01*
X155662Y253630D01*
X155588Y253602D01*
X155520Y253563D01*
X155459Y253513D01*
X155406Y253455D01*
X155363Y253389D01*
X155331Y253317D01*
X155310Y253241D01*
X155302Y253163D01*
X155306Y253084D01*
X155322Y253007D01*
X155350Y252934D01*
X155389Y252866D01*
X155439Y252804D01*
X155497Y252752D01*
X155564Y252710D01*
X155889Y252547D01*
X156228Y252417D01*
X156579Y252320D01*
X156936Y252254D01*
X157298Y252221D01*
X157662D01*
X158024Y252254D01*
X158382Y252320D01*
X158732Y252417D01*
X159072Y252547D01*
X159399Y252706D01*
X159443Y252734D01*
Y219710D01*
X159302Y219796D01*
X158720Y220037D01*
X158108Y220184D01*
X157480Y220233D01*
X156853Y220184D01*
X156240Y220037D01*
X155659Y219796D01*
X155122Y219467D01*
X154643Y219058D01*
X154234Y218579D01*
X154196Y218518D01*
Y254086D01*
X154266Y254060D01*
X154344Y254043D01*
X154423Y254039D01*
X154501Y254048D01*
X154578Y254069D01*
X154650Y254101D01*
X154716Y254144D01*
X154775Y254197D01*
X154825Y254259D01*
X154864Y254328D01*
X154892Y254402D01*
X154909Y254479D01*
X154913Y254558D01*
X154904Y254637D01*
X154884Y254713D01*
X154850Y254785D01*
X154728Y255028D01*
X154631Y255283D01*
X154557Y255545D01*
X154508Y255813D01*
X154483Y256085D01*
Y256357D01*
X154508Y256628D01*
X154557Y256896D01*
X154631Y257159D01*
X154728Y257413D01*
X154847Y257658D01*
X154881Y257729D01*
X154901Y257805D01*
X154910Y257884D01*
X154906Y257962D01*
X154889Y258039D01*
X154861Y258113D01*
X154822Y258181D01*
X154773Y258242D01*
X154714Y258295D01*
X154649Y258338D01*
X154577Y258370D01*
X154501Y258391D01*
X154423Y258399D01*
X154344Y258395D01*
X154267Y258379D01*
X154196Y258352D01*
Y292664D01*
G37*
G36*
Y383858D02*X159443D01*
Y338443D01*
X159397Y338472D01*
X159072Y338635D01*
X158732Y338764D01*
X158382Y338862D01*
X158024Y338928D01*
X157662Y338961D01*
X157298D01*
X156936Y338928D01*
X156579Y338862D01*
X156228Y338764D01*
X155889Y338635D01*
X155562Y338476D01*
X155495Y338433D01*
X155436Y338380D01*
X155387Y338318D01*
X155347Y338249D01*
X155319Y338175D01*
X155303Y338098D01*
X155299Y338019D01*
X155307Y337940D01*
X155328Y337864D01*
X155360Y337791D01*
X155404Y337725D01*
X155457Y337666D01*
X155518Y337617D01*
X155587Y337577D01*
X155661Y337549D01*
X155739Y337533D01*
X155818Y337529D01*
X155896Y337537D01*
X155973Y337558D01*
X156044Y337592D01*
X156288Y337714D01*
X156542Y337811D01*
X156805Y337884D01*
X157073Y337933D01*
X157344Y337958D01*
X157617D01*
X157888Y337933D01*
X158156Y337884D01*
X158418Y337811D01*
X158673Y337714D01*
X158918Y337594D01*
X158989Y337561D01*
X159065Y337540D01*
X159143Y337532D01*
X159222Y337536D01*
X159299Y337552D01*
X159372Y337580D01*
X159440Y337619D01*
X159443Y337621D01*
Y332305D01*
X159442Y332305D01*
X159374Y332345D01*
X159300Y332373D01*
X159222Y332389D01*
X159143Y332393D01*
X159064Y332385D01*
X158988Y332364D01*
X158916Y332331D01*
X158673Y332208D01*
X158418Y332111D01*
X158156Y332038D01*
X157888Y331989D01*
X157617Y331964D01*
X157344D01*
X157073Y331989D01*
X156805Y332038D01*
X156542Y332111D01*
X156288Y332208D01*
X156043Y332328D01*
X155972Y332361D01*
X155896Y332382D01*
X155818Y332390D01*
X155739Y332386D01*
X155662Y332370D01*
X155588Y332342D01*
X155520Y332303D01*
X155459Y332254D01*
X155406Y332195D01*
X155363Y332129D01*
X155331Y332057D01*
X155310Y331981D01*
X155302Y331903D01*
X155306Y331825D01*
X155322Y331748D01*
X155350Y331674D01*
X155389Y331606D01*
X155439Y331545D01*
X155497Y331492D01*
X155564Y331450D01*
X155889Y331287D01*
X156228Y331158D01*
X156579Y331060D01*
X156936Y330994D01*
X157298Y330961D01*
X157662D01*
X158024Y330994D01*
X158382Y331060D01*
X158732Y331158D01*
X159072Y331287D01*
X159399Y331446D01*
X159443Y331475D01*
Y298450D01*
X159302Y298536D01*
X158720Y298777D01*
X158108Y298924D01*
X157480Y298973D01*
X156853Y298924D01*
X156240Y298777D01*
X155659Y298536D01*
X155122Y298207D01*
X154643Y297798D01*
X154234Y297319D01*
X154196Y297258D01*
Y332826D01*
X154266Y332800D01*
X154344Y332784D01*
X154423Y332780D01*
X154501Y332788D01*
X154578Y332809D01*
X154650Y332841D01*
X154716Y332884D01*
X154775Y332937D01*
X154825Y332999D01*
X154864Y333068D01*
X154892Y333142D01*
X154909Y333219D01*
X154913Y333298D01*
X154904Y333377D01*
X154884Y333454D01*
X154850Y333525D01*
X154728Y333768D01*
X154631Y334023D01*
X154557Y334285D01*
X154508Y334553D01*
X154483Y334825D01*
Y335097D01*
X154508Y335369D01*
X154557Y335637D01*
X154631Y335899D01*
X154728Y336154D01*
X154847Y336398D01*
X154881Y336470D01*
X154901Y336546D01*
X154910Y336624D01*
X154906Y336702D01*
X154889Y336779D01*
X154861Y336853D01*
X154822Y336921D01*
X154773Y336982D01*
X154714Y337035D01*
X154649Y337078D01*
X154577Y337110D01*
X154501Y337131D01*
X154423Y337139D01*
X154344Y337135D01*
X154267Y337119D01*
X154196Y337092D01*
Y383858D01*
G37*
G36*
X138858Y278236D02*X146372Y270722D01*
Y164318D01*
X141785Y159731D01*
X138858D01*
Y172570D01*
X142615Y172575D01*
X142768Y172612D01*
X142914Y172672D01*
X143048Y172754D01*
X143168Y172856D01*
X143270Y172976D01*
X143352Y173110D01*
X143412Y173256D01*
X143449Y173409D01*
X143458Y173566D01*
X143449Y180923D01*
X143412Y181076D01*
X143352Y181221D01*
X143270Y181355D01*
X143168Y181475D01*
X143048Y181577D01*
X142914Y181660D01*
X142768Y181720D01*
X142615Y181756D01*
X142458Y181766D01*
X138858Y181761D01*
Y211790D01*
X142765Y211795D01*
X142918Y211832D01*
X143064Y211892D01*
X143198Y211974D01*
X143318Y212077D01*
X143420Y212196D01*
X143502Y212330D01*
X143562Y212476D01*
X143599Y212629D01*
X143608Y212786D01*
X143599Y220443D01*
X143562Y220596D01*
X143502Y220741D01*
X143420Y220875D01*
X143318Y220995D01*
X143198Y221097D01*
X143064Y221180D01*
X142918Y221240D01*
X142765Y221277D01*
X142608Y221286D01*
X138858Y221281D01*
Y251160D01*
X142765Y251165D01*
X142918Y251202D01*
X143064Y251262D01*
X143198Y251344D01*
X143318Y251447D01*
X143420Y251566D01*
X143502Y251701D01*
X143562Y251846D01*
X143599Y251999D01*
X143608Y252156D01*
X143599Y259813D01*
X143562Y259966D01*
X143502Y260111D01*
X143420Y260246D01*
X143318Y260365D01*
X143198Y260467D01*
X143064Y260550D01*
X142918Y260610D01*
X142765Y260647D01*
X142608Y260656D01*
X138858Y260651D01*
Y278236D01*
G37*
G36*
X143265Y383858D02*X154196D01*
Y337092D01*
X154193Y337091D01*
X154125Y337052D01*
X154064Y337003D01*
X154011Y336944D01*
X153969Y336878D01*
X153806Y336553D01*
X153677Y336213D01*
X153579Y335863D01*
X153513Y335505D01*
X153480Y335143D01*
Y334779D01*
X153513Y334417D01*
X153579Y334059D01*
X153677Y333709D01*
X153806Y333369D01*
X153966Y333042D01*
X154009Y332976D01*
X154062Y332917D01*
X154123Y332867D01*
X154192Y332828D01*
X154196Y332826D01*
Y297258D01*
X153905Y296783D01*
X153664Y296201D01*
X153517Y295589D01*
X153468Y294961D01*
X153517Y294333D01*
X153664Y293721D01*
X153905Y293139D01*
X154196Y292664D01*
Y258352D01*
X154193Y258351D01*
X154125Y258312D01*
X154064Y258262D01*
X154011Y258204D01*
X153969Y258137D01*
X153806Y257813D01*
X153677Y257473D01*
X153579Y257123D01*
X153513Y256765D01*
X153480Y256403D01*
Y256039D01*
X153513Y255677D01*
X153579Y255319D01*
X153677Y254969D01*
X153806Y254629D01*
X153966Y254302D01*
X154009Y254236D01*
X154062Y254177D01*
X154123Y254127D01*
X154192Y254088D01*
X154196Y254086D01*
Y218518D01*
X153905Y218042D01*
X153664Y217461D01*
X153517Y216849D01*
X153468Y216221D01*
X153517Y215593D01*
X153664Y214981D01*
X153905Y214399D01*
X154196Y213924D01*
Y159731D01*
X153632D01*
X153543Y159738D01*
X153190Y159710D01*
X152846Y159627D01*
X152519Y159492D01*
X152217Y159307D01*
X152216Y159306D01*
X151947Y159077D01*
X151890Y159009D01*
X148078Y155197D01*
X148010Y155140D01*
X147780Y154870D01*
X147595Y154568D01*
X147460Y154241D01*
X147377Y153897D01*
X147377Y153897D01*
X147349Y153544D01*
X147356Y153456D01*
Y124659D01*
X147276Y124853D01*
X146947Y125390D01*
X146538Y125869D01*
X146059Y126278D01*
X145522Y126607D01*
X144941Y126848D01*
X144328Y126995D01*
X143701Y127044D01*
X143265Y127010D01*
Y133291D01*
X143318Y133336D01*
X143420Y133456D01*
X143502Y133590D01*
X143562Y133736D01*
X143599Y133889D01*
X143608Y134046D01*
X143599Y141703D01*
X143562Y141856D01*
X143502Y142001D01*
X143420Y142135D01*
X143318Y142255D01*
X143265Y142300D01*
Y155298D01*
X143414Y155334D01*
X143741Y155470D01*
X144043Y155655D01*
X144312Y155885D01*
X144370Y155952D01*
X150151Y161733D01*
X150218Y161790D01*
X150448Y162059D01*
X150448Y162060D01*
X150633Y162362D01*
X150769Y162689D01*
X150851Y163033D01*
X150879Y163386D01*
X150872Y163474D01*
Y271566D01*
X150879Y271654D01*
X150851Y272007D01*
X150769Y272351D01*
X150729Y272447D01*
X150633Y272679D01*
X150518Y272866D01*
X150448Y272981D01*
X150448Y272981D01*
X150218Y273250D01*
X150151Y273307D01*
X143265Y280193D01*
Y290772D01*
X143318Y290817D01*
X143420Y290936D01*
X143502Y291071D01*
X143562Y291216D01*
X143599Y291369D01*
X143608Y291526D01*
X143599Y299183D01*
X143562Y299336D01*
X143502Y299481D01*
X143420Y299616D01*
X143318Y299735D01*
X143265Y299780D01*
Y330142D01*
X143318Y330187D01*
X143420Y330306D01*
X143502Y330441D01*
X143562Y330586D01*
X143599Y330739D01*
X143608Y330896D01*
X143599Y338553D01*
X143562Y338706D01*
X143502Y338851D01*
X143420Y338986D01*
X143318Y339105D01*
X143265Y339150D01*
Y373689D01*
X143296Y373706D01*
X143358Y373754D01*
X143412Y373812D01*
X143455Y373878D01*
X143641Y374233D01*
X143789Y374606D01*
X143901Y374991D01*
X143976Y375385D01*
X144014Y375784D01*
Y376185D01*
X143976Y376585D01*
X143901Y376979D01*
X143789Y377364D01*
X143641Y377737D01*
X143459Y378094D01*
X143415Y378160D01*
X143360Y378218D01*
X143298Y378266D01*
X143265Y378284D01*
Y383858D01*
G37*
G36*
Y299780D02*X143198Y299837D01*
X143064Y299920D01*
X142918Y299980D01*
X142765Y300017D01*
X142608Y300026D01*
X138858Y300021D01*
Y329901D01*
X142765Y329905D01*
X142918Y329942D01*
X143064Y330002D01*
X143198Y330085D01*
X143265Y330142D01*
Y299780D01*
G37*
G36*
Y280193D02*X141030Y282428D01*
Y290533D01*
X142765Y290535D01*
X142918Y290572D01*
X143064Y290632D01*
X143198Y290714D01*
X143265Y290772D01*
Y280193D01*
G37*
G36*
Y142300D02*X143198Y142357D01*
X143064Y142439D01*
X142918Y142500D01*
X142765Y142536D01*
X142608Y142546D01*
X138858Y142541D01*
Y155231D01*
X142628D01*
X142717Y155224D01*
X143069Y155252D01*
X143070Y155252D01*
X143265Y155298D01*
Y142300D01*
G37*
G36*
Y127010D02*X143073Y126995D01*
X142461Y126848D01*
X141879Y126607D01*
X141342Y126278D01*
X140864Y125869D01*
X140455Y125390D01*
X140388Y125282D01*
X138858D01*
Y133050D01*
X142765Y133055D01*
X142918Y133092D01*
X143064Y133152D01*
X143198Y133234D01*
X143265Y133291D01*
Y127010D01*
G37*
G36*
X138858Y383858D02*X143265D01*
Y378284D01*
X143228Y378304D01*
X143154Y378331D01*
X143076Y378346D01*
X142996Y378348D01*
X142918Y378338D01*
X142842Y378316D01*
X142770Y378283D01*
X142704Y378238D01*
X142647Y378184D01*
X142598Y378121D01*
X142560Y378052D01*
X142533Y377977D01*
X142518Y377899D01*
X142516Y377820D01*
X142526Y377741D01*
X142548Y377665D01*
X142583Y377594D01*
X142725Y377323D01*
X142838Y377038D01*
X142924Y376744D01*
X142981Y376443D01*
X143010Y376138D01*
Y375831D01*
X142981Y375526D01*
X142924Y375225D01*
X142838Y374931D01*
X142725Y374646D01*
X142586Y374373D01*
X142551Y374303D01*
X142529Y374227D01*
X142519Y374149D01*
X142522Y374071D01*
X142537Y373993D01*
X142563Y373919D01*
X142601Y373850D01*
X142649Y373788D01*
X142707Y373734D01*
X142772Y373690D01*
X142843Y373656D01*
X142919Y373634D01*
X142997Y373625D01*
X143075Y373627D01*
X143153Y373642D01*
X143227Y373668D01*
X143265Y373689D01*
Y339150D01*
X143198Y339208D01*
X143064Y339290D01*
X142918Y339350D01*
X142765Y339387D01*
X142608Y339396D01*
X138858Y339392D01*
Y371831D01*
X139164Y371772D01*
X139563Y371735D01*
X139964D01*
X140364Y371772D01*
X140758Y371848D01*
X141143Y371960D01*
X141516Y372107D01*
X141873Y372290D01*
X141939Y372334D01*
X141997Y372388D01*
X142045Y372451D01*
X142083Y372520D01*
X142110Y372595D01*
X142125Y372673D01*
X142128Y372752D01*
X142118Y372831D01*
X142095Y372907D01*
X142062Y372978D01*
X142017Y373044D01*
X141963Y373102D01*
X141900Y373150D01*
X141831Y373188D01*
X141756Y373215D01*
X141678Y373230D01*
X141599Y373233D01*
X141520Y373223D01*
X141444Y373200D01*
X141373Y373165D01*
X141102Y373023D01*
X140817Y372910D01*
X140523Y372825D01*
X140222Y372767D01*
X139917Y372738D01*
X139611D01*
X139306Y372767D01*
X139005Y372825D01*
X138858Y372867D01*
Y379102D01*
X139005Y379145D01*
X139306Y379202D01*
X139611Y379231D01*
X139917D01*
X140222Y379202D01*
X140523Y379145D01*
X140817Y379059D01*
X141102Y378946D01*
X141375Y378807D01*
X141445Y378772D01*
X141521Y378750D01*
X141599Y378740D01*
X141678Y378743D01*
X141755Y378758D01*
X141829Y378784D01*
X141898Y378822D01*
X141960Y378870D01*
X142014Y378928D01*
X142059Y378993D01*
X142092Y379064D01*
X142114Y379139D01*
X142124Y379218D01*
X142121Y379296D01*
X142107Y379373D01*
X142080Y379448D01*
X142042Y379517D01*
X141994Y379579D01*
X141937Y379633D01*
X141871Y379676D01*
X141516Y379862D01*
X141143Y380010D01*
X140758Y380122D01*
X140364Y380197D01*
X139964Y380235D01*
X139563D01*
X139164Y380197D01*
X138858Y380139D01*
Y383858D01*
G37*
G36*
Y125282D02*X128851D01*
Y133032D01*
X128858Y133031D01*
X129604Y133090D01*
X130331Y133264D01*
X131021Y133550D01*
X131659Y133941D01*
X132227Y134427D01*
X132713Y134995D01*
X133104Y135633D01*
X133390Y136323D01*
X133564Y137050D01*
X133608Y137796D01*
X133564Y138541D01*
X133390Y139268D01*
X133104Y139959D01*
X132713Y140596D01*
X132227Y141165D01*
X131659Y141650D01*
X131021Y142041D01*
X130331Y142327D01*
X129604Y142502D01*
X128858Y142560D01*
X128851Y142560D01*
Y155231D01*
X138858D01*
Y142541D01*
X134951Y142536D01*
X134798Y142500D01*
X134653Y142439D01*
X134519Y142357D01*
X134399Y142255D01*
X134297Y142135D01*
X134215Y142001D01*
X134154Y141856D01*
X134118Y141703D01*
X134108Y141546D01*
X134118Y133889D01*
X134154Y133736D01*
X134215Y133590D01*
X134297Y133456D01*
X134399Y133336D01*
X134519Y133234D01*
X134653Y133152D01*
X134798Y133092D01*
X134951Y133055D01*
X135108Y133046D01*
X138858Y133050D01*
Y125282D01*
G37*
G36*
X128851D02*X124104D01*
X124016Y125289D01*
X123663Y125261D01*
X123318Y125178D01*
X122991Y125043D01*
X122689Y124858D01*
X122689Y124858D01*
X122420Y124628D01*
X122362Y124561D01*
X114073Y116271D01*
X114289Y116793D01*
X114445Y117444D01*
X114485Y118111D01*
X114445Y118778D01*
X114376Y119068D01*
X121607Y126300D01*
X121675Y126357D01*
X121904Y126626D01*
X121905Y126627D01*
X122090Y126929D01*
X122225Y127256D01*
X122308Y127600D01*
X122336Y127953D01*
X122329Y128041D01*
Y150643D01*
X126916Y155231D01*
X128851D01*
Y142560D01*
X128113Y142502D01*
X127386Y142327D01*
X126695Y142041D01*
X126058Y141650D01*
X125489Y141165D01*
X125004Y140596D01*
X124613Y139959D01*
X124327Y139268D01*
X124152Y138541D01*
X124094Y137796D01*
X124152Y137050D01*
X124327Y136323D01*
X124613Y135633D01*
X125004Y134995D01*
X125489Y134427D01*
X126058Y133941D01*
X126695Y133550D01*
X127386Y133264D01*
X128113Y133090D01*
X128851Y133032D01*
Y125282D01*
G37*
G36*
X136263Y172567D02*X138858Y172570D01*
Y159731D01*
X136263D01*
Y172567D01*
G37*
G36*
Y211787D02*X138858Y211790D01*
Y181761D01*
X136263Y181758D01*
Y211787D01*
G37*
G36*
Y251157D02*X138858Y251160D01*
Y221281D01*
X136263Y221278D01*
Y251157D01*
G37*
G36*
Y290527D02*X136530Y290528D01*
Y281585D01*
X136523Y281496D01*
X136550Y281143D01*
Y281143D01*
X136633Y280799D01*
X136769Y280472D01*
X136839Y280357D01*
X136954Y280170D01*
X136954Y280170D01*
X137184Y279901D01*
X137251Y279843D01*
X138858Y278236D01*
Y260651D01*
X136263Y260648D01*
Y290527D01*
G37*
G36*
Y329897D02*X138858Y329901D01*
Y300021D01*
X136263Y300018D01*
Y329897D01*
G37*
G36*
Y383858D02*X138858D01*
Y380139D01*
X138770Y380122D01*
X138385Y380010D01*
X138012Y379862D01*
X137654Y379680D01*
X137589Y379635D01*
X137531Y379581D01*
X137482Y379519D01*
X137444Y379449D01*
X137417Y379374D01*
X137402Y379297D01*
X137400Y379217D01*
X137410Y379139D01*
X137432Y379063D01*
X137466Y378991D01*
X137510Y378925D01*
X137565Y378868D01*
X137627Y378819D01*
X137697Y378781D01*
X137771Y378754D01*
X137849Y378739D01*
X137929Y378737D01*
X138007Y378747D01*
X138083Y378769D01*
X138154Y378804D01*
X138425Y378946D01*
X138710Y379059D01*
X138858Y379102D01*
Y372867D01*
X138710Y372910D01*
X138425Y373023D01*
X138152Y373162D01*
X138082Y373197D01*
X138006Y373219D01*
X137928Y373229D01*
X137850Y373226D01*
X137772Y373212D01*
X137698Y373185D01*
X137629Y373147D01*
X137567Y373099D01*
X137513Y373042D01*
X137469Y372977D01*
X137436Y372905D01*
X137414Y372830D01*
X137404Y372752D01*
X137406Y372673D01*
X137421Y372596D01*
X137447Y372522D01*
X137485Y372453D01*
X137534Y372391D01*
X137591Y372337D01*
X137657Y372294D01*
X138012Y372107D01*
X138385Y371960D01*
X138770Y371848D01*
X138858Y371831D01*
Y339392D01*
X136263Y339388D01*
Y373685D01*
X136299Y373665D01*
X136374Y373638D01*
X136452Y373623D01*
X136531Y373621D01*
X136610Y373631D01*
X136686Y373653D01*
X136758Y373687D01*
X136823Y373731D01*
X136881Y373786D01*
X136929Y373848D01*
X136968Y373918D01*
X136994Y373992D01*
X137009Y374070D01*
X137012Y374149D01*
X137002Y374228D01*
X136980Y374304D01*
X136944Y374375D01*
X136802Y374646D01*
X136689Y374931D01*
X136604Y375225D01*
X136546Y375526D01*
X136517Y375831D01*
Y376138D01*
X136546Y376443D01*
X136604Y376744D01*
X136689Y377038D01*
X136802Y377323D01*
X136941Y377596D01*
X136976Y377666D01*
X136998Y377742D01*
X137008Y377820D01*
X137006Y377899D01*
X136991Y377976D01*
X136964Y378050D01*
X136926Y378119D01*
X136878Y378181D01*
X136821Y378235D01*
X136756Y378279D01*
X136685Y378313D01*
X136609Y378335D01*
X136531Y378345D01*
X136452Y378342D01*
X136375Y378328D01*
X136301Y378301D01*
X136263Y378280D01*
Y383858D01*
G37*
G36*
X128851D02*X136263D01*
Y378280D01*
X136232Y378263D01*
X136170Y378215D01*
X136116Y378158D01*
X136073Y378092D01*
X135887Y377737D01*
X135739Y377364D01*
X135627Y376979D01*
X135552Y376585D01*
X135514Y376185D01*
Y375784D01*
X135552Y375385D01*
X135627Y374991D01*
X135739Y374606D01*
X135887Y374233D01*
X136069Y373875D01*
X136113Y373809D01*
X136167Y373752D01*
X136230Y373703D01*
X136263Y373685D01*
Y339388D01*
X134951Y339387D01*
X134798Y339350D01*
X134653Y339290D01*
X134519Y339208D01*
X134399Y339105D01*
X134297Y338986D01*
X134215Y338851D01*
X134154Y338706D01*
X134118Y338553D01*
X134108Y338396D01*
X134118Y330739D01*
X134154Y330586D01*
X134215Y330441D01*
X134297Y330306D01*
X134399Y330187D01*
X134519Y330085D01*
X134653Y330002D01*
X134798Y329942D01*
X134951Y329905D01*
X135108Y329896D01*
X136263Y329897D01*
Y300018D01*
X134951Y300017D01*
X134798Y299980D01*
X134653Y299920D01*
X134519Y299837D01*
X134399Y299735D01*
X134297Y299616D01*
X134215Y299481D01*
X134154Y299336D01*
X134118Y299183D01*
X134108Y299026D01*
X134118Y291369D01*
X134154Y291216D01*
X134215Y291071D01*
X134297Y290936D01*
X134399Y290817D01*
X134519Y290714D01*
X134653Y290632D01*
X134798Y290572D01*
X134951Y290535D01*
X135108Y290526D01*
X136263Y290527D01*
Y260648D01*
X134951Y260647D01*
X134798Y260610D01*
X134653Y260550D01*
X134519Y260467D01*
X134399Y260365D01*
X134297Y260246D01*
X134215Y260111D01*
X134154Y259966D01*
X134118Y259813D01*
X134108Y259656D01*
X134118Y251999D01*
X134154Y251846D01*
X134215Y251701D01*
X134297Y251566D01*
X134399Y251447D01*
X134519Y251344D01*
X134653Y251262D01*
X134798Y251202D01*
X134951Y251165D01*
X135108Y251156D01*
X136263Y251157D01*
Y221278D01*
X134951Y221277D01*
X134798Y221240D01*
X134653Y221180D01*
X134519Y221097D01*
X134399Y220995D01*
X134297Y220875D01*
X134215Y220741D01*
X134154Y220596D01*
X134118Y220443D01*
X134108Y220286D01*
X134118Y212629D01*
X134154Y212476D01*
X134215Y212330D01*
X134297Y212196D01*
X134399Y212077D01*
X134519Y211974D01*
X134653Y211892D01*
X134798Y211832D01*
X134951Y211795D01*
X135108Y211786D01*
X136263Y211787D01*
Y181758D01*
X135101Y181756D01*
X134948Y181720D01*
X134803Y181660D01*
X134669Y181577D01*
X134549Y181475D01*
X134447Y181355D01*
X134365Y181221D01*
X134304Y181076D01*
X134268Y180923D01*
X134258Y180766D01*
X134268Y173409D01*
X134304Y173256D01*
X134365Y173110D01*
X134447Y172976D01*
X134549Y172856D01*
X134669Y172754D01*
X134803Y172672D01*
X134948Y172612D01*
X135101Y172575D01*
X135258Y172566D01*
X136263Y172567D01*
Y159731D01*
X128851D01*
Y172552D01*
X128858Y172552D01*
X129580Y172608D01*
X130284Y172777D01*
X130953Y173054D01*
X131570Y173433D01*
X132121Y173903D01*
X132591Y174454D01*
X132970Y175071D01*
X133247Y175740D01*
X133416Y176444D01*
X133458Y177166D01*
X133416Y177888D01*
X133247Y178592D01*
X132970Y179261D01*
X132591Y179878D01*
X132121Y180428D01*
X131570Y180899D01*
X130953Y181277D01*
X130284Y181554D01*
X129580Y181723D01*
X128858Y181780D01*
X128851Y181779D01*
Y211772D01*
X128858Y211771D01*
X129604Y211830D01*
X130331Y212004D01*
X131021Y212290D01*
X131659Y212681D01*
X132227Y213167D01*
X132713Y213735D01*
X133104Y214373D01*
X133390Y215063D01*
X133564Y215790D01*
X133608Y216536D01*
X133564Y217281D01*
X133390Y218008D01*
X133104Y218699D01*
X132713Y219336D01*
X132227Y219905D01*
X131659Y220391D01*
X131021Y220781D01*
X130331Y221067D01*
X129604Y221242D01*
X128858Y221300D01*
X128851Y221300D01*
Y245748D01*
X130466Y247363D01*
X130533Y247420D01*
X130763Y247689D01*
X130763Y247690D01*
X130948Y247992D01*
X131083Y248319D01*
X131166Y248663D01*
X131194Y249016D01*
X131187Y249104D01*
Y251762D01*
X131659Y252051D01*
X132227Y252537D01*
X132713Y253105D01*
X133104Y253743D01*
X133390Y254434D01*
X133564Y255161D01*
X133608Y255906D01*
X133564Y256651D01*
X133390Y257378D01*
X133104Y258069D01*
X132713Y258706D01*
X132227Y259275D01*
X131659Y259761D01*
X131021Y260151D01*
X130331Y260437D01*
X129604Y260612D01*
X128858Y260671D01*
X128851Y260670D01*
Y290512D01*
X128858Y290511D01*
X129604Y290570D01*
X130331Y290745D01*
X131021Y291031D01*
X131659Y291421D01*
X132227Y291907D01*
X132713Y292475D01*
X133104Y293113D01*
X133390Y293804D01*
X133564Y294531D01*
X133608Y295276D01*
X133564Y296021D01*
X133390Y296748D01*
X133104Y297439D01*
X132713Y298077D01*
X132227Y298645D01*
X131659Y299131D01*
X131021Y299521D01*
X130331Y299807D01*
X129604Y299982D01*
X128858Y300041D01*
X128851Y300040D01*
Y324095D01*
X130269Y325512D01*
X130336Y325570D01*
X130566Y325839D01*
X130566Y325839D01*
X130751Y326141D01*
X130887Y326468D01*
X130969Y326813D01*
X130997Y327166D01*
X130990Y327254D01*
Y330388D01*
X131021Y330401D01*
X131659Y330791D01*
X132227Y331277D01*
X132713Y331845D01*
X133104Y332483D01*
X133390Y333174D01*
X133564Y333901D01*
X133608Y334646D01*
X133564Y335391D01*
X133390Y336118D01*
X133104Y336809D01*
X132713Y337447D01*
X132227Y338015D01*
X131659Y338501D01*
X131021Y338891D01*
X130331Y339178D01*
X129604Y339352D01*
X128858Y339411D01*
X128851Y339410D01*
Y383858D01*
G37*
G36*
Y260670D02*X128113Y260612D01*
X127386Y260437D01*
X126695Y260151D01*
X126058Y259761D01*
X125489Y259275D01*
X125004Y258706D01*
X124613Y258069D01*
X124327Y257378D01*
X124152Y256651D01*
X124094Y255906D01*
X124152Y255161D01*
X124327Y254434D01*
X124613Y253743D01*
X125004Y253105D01*
X125489Y252537D01*
X126058Y252051D01*
X126687Y251666D01*
Y249948D01*
X125052Y248313D01*
X109948D01*
Y251665D01*
X110235Y251643D01*
X110902Y251695D01*
X111552Y251851D01*
X112170Y252107D01*
X112740Y252457D01*
X113249Y252891D01*
X113684Y253400D01*
X114033Y253970D01*
X114289Y254589D01*
X114445Y255239D01*
X114485Y255906D01*
X114445Y256573D01*
X114289Y257223D01*
X114033Y257841D01*
X113684Y258412D01*
X113249Y258920D01*
X112740Y259355D01*
X112170Y259704D01*
X111552Y259960D01*
X110902Y260117D01*
X110235Y260169D01*
X109948Y260146D01*
Y271350D01*
X110235Y271328D01*
X110902Y271380D01*
X111552Y271536D01*
X112170Y271792D01*
X112740Y272142D01*
X113249Y272576D01*
X113684Y273085D01*
X114033Y273656D01*
X114289Y274274D01*
X114445Y274924D01*
X114485Y275591D01*
X114445Y276258D01*
X114289Y276908D01*
X114033Y277526D01*
X113684Y278097D01*
X113249Y278605D01*
X112740Y279040D01*
X112170Y279389D01*
X111552Y279645D01*
X110902Y279802D01*
X110235Y279854D01*
X109948Y279831D01*
Y291035D01*
X110235Y291013D01*
X110902Y291065D01*
X111552Y291221D01*
X112170Y291477D01*
X112740Y291827D01*
X113249Y292261D01*
X113684Y292770D01*
X114033Y293340D01*
X114289Y293958D01*
X114445Y294609D01*
X114485Y295276D01*
X114445Y295943D01*
X114289Y296593D01*
X114033Y297211D01*
X113684Y297782D01*
X113249Y298290D01*
X112740Y298725D01*
X112170Y299074D01*
X111552Y299330D01*
X110902Y299486D01*
X110235Y299539D01*
X109948Y299516D01*
Y310720D01*
X110235Y310698D01*
X110902Y310750D01*
X111552Y310906D01*
X112170Y311162D01*
X112740Y311512D01*
X113249Y311946D01*
X113684Y312455D01*
X114033Y313025D01*
X114289Y313643D01*
X114445Y314294D01*
X114485Y314961D01*
X114445Y315628D01*
X114289Y316278D01*
X114033Y316896D01*
X113684Y317467D01*
X113249Y317975D01*
X112740Y318410D01*
X112170Y318759D01*
X111552Y319015D01*
X110902Y319171D01*
X110235Y319224D01*
X109948Y319201D01*
Y322554D01*
X126290D01*
X126378Y322547D01*
X126731Y322574D01*
X126731Y322574D01*
X127075Y322657D01*
X127403Y322793D01*
X127705Y322978D01*
X127974Y323208D01*
X128031Y323275D01*
X128851Y324095D01*
Y300040D01*
X128113Y299982D01*
X127386Y299807D01*
X126695Y299521D01*
X126058Y299131D01*
X125489Y298645D01*
X125004Y298077D01*
X124613Y297439D01*
X124327Y296748D01*
X124152Y296021D01*
X124094Y295276D01*
X124152Y294531D01*
X124327Y293804D01*
X124613Y293113D01*
X125004Y292475D01*
X125489Y291907D01*
X126058Y291421D01*
X126695Y291031D01*
X127386Y290745D01*
X128113Y290570D01*
X128851Y290512D01*
Y260670D01*
G37*
G36*
Y159731D02*X126072D01*
X125984Y159738D01*
X125631Y159710D01*
X125287Y159627D01*
X124960Y159492D01*
X124658Y159307D01*
X124657Y159306D01*
X124388Y159077D01*
X124331Y159009D01*
X118550Y153229D01*
X118483Y153171D01*
X118253Y152902D01*
X118068Y152600D01*
X117932Y152273D01*
X117850Y151928D01*
X117850Y151928D01*
X117822Y151575D01*
X117829Y151487D01*
Y128885D01*
X111195Y122251D01*
X110902Y122321D01*
X110235Y122374D01*
X109948Y122351D01*
Y133555D01*
X110235Y133533D01*
X110902Y133585D01*
X111552Y133741D01*
X112170Y133997D01*
X112740Y134347D01*
X113249Y134781D01*
X113684Y135290D01*
X114033Y135860D01*
X114289Y136478D01*
X114445Y137129D01*
X114485Y137796D01*
X114445Y138463D01*
X114289Y139113D01*
X114033Y139731D01*
X113684Y140301D01*
X113249Y140810D01*
X112740Y141245D01*
X112170Y141594D01*
X111552Y141850D01*
X110902Y142006D01*
X110235Y142059D01*
X109948Y142036D01*
Y153240D01*
X110235Y153218D01*
X110902Y153270D01*
X111552Y153426D01*
X112170Y153682D01*
X112740Y154032D01*
X113249Y154466D01*
X113684Y154975D01*
X114033Y155545D01*
X114289Y156163D01*
X114445Y156814D01*
X114485Y157481D01*
X114445Y158148D01*
X114289Y158798D01*
X114033Y159416D01*
X113684Y159987D01*
X113249Y160495D01*
X112740Y160930D01*
X112170Y161279D01*
X111552Y161535D01*
X110902Y161691D01*
X110235Y161744D01*
X109948Y161721D01*
Y172925D01*
X110235Y172903D01*
X110902Y172955D01*
X111552Y173111D01*
X112170Y173367D01*
X112740Y173717D01*
X113249Y174151D01*
X113684Y174660D01*
X114033Y175230D01*
X114289Y175848D01*
X114445Y176499D01*
X114485Y177166D01*
X114445Y177833D01*
X114289Y178483D01*
X114033Y179101D01*
X113684Y179672D01*
X113249Y180180D01*
X112740Y180615D01*
X112170Y180964D01*
X111552Y181220D01*
X110902Y181376D01*
X110235Y181429D01*
X109948Y181406D01*
Y192610D01*
X110235Y192588D01*
X110902Y192640D01*
X111552Y192796D01*
X112170Y193052D01*
X112740Y193402D01*
X113249Y193836D01*
X113684Y194345D01*
X114033Y194915D01*
X114289Y195533D01*
X114445Y196184D01*
X114485Y196851D01*
X114445Y197518D01*
X114289Y198168D01*
X114033Y198786D01*
X113684Y199357D01*
X113249Y199865D01*
X112740Y200300D01*
X112170Y200649D01*
X111552Y200905D01*
X110902Y201061D01*
X110235Y201114D01*
X109948Y201091D01*
Y212295D01*
X110235Y212273D01*
X110902Y212325D01*
X111552Y212481D01*
X112170Y212737D01*
X112740Y213087D01*
X113249Y213521D01*
X113684Y214030D01*
X114033Y214600D01*
X114289Y215218D01*
X114445Y215869D01*
X114485Y216536D01*
X114445Y217203D01*
X114289Y217853D01*
X114033Y218471D01*
X113684Y219042D01*
X113249Y219550D01*
X112740Y219985D01*
X112170Y220334D01*
X111552Y220590D01*
X110902Y220746D01*
X110235Y220799D01*
X109948Y220776D01*
Y231980D01*
X110235Y231958D01*
X110902Y232010D01*
X111552Y232166D01*
X112170Y232422D01*
X112740Y232772D01*
X113249Y233206D01*
X113684Y233715D01*
X114033Y234285D01*
X114289Y234903D01*
X114445Y235554D01*
X114485Y236221D01*
X114445Y236888D01*
X114289Y237538D01*
X114033Y238156D01*
X113684Y238727D01*
X113249Y239235D01*
X112740Y239670D01*
X112170Y240019D01*
X111552Y240275D01*
X110902Y240431D01*
X110235Y240484D01*
X109948Y240461D01*
Y243813D01*
X125896D01*
X125984Y243806D01*
X126337Y243834D01*
X126337Y243834D01*
X126682Y243917D01*
X127009Y244052D01*
X127311Y244237D01*
X127580Y244467D01*
X127638Y244535D01*
X128851Y245748D01*
Y221300D01*
X128113Y221242D01*
X127386Y221067D01*
X126695Y220781D01*
X126058Y220391D01*
X125489Y219905D01*
X125004Y219336D01*
X124613Y218699D01*
X124327Y218008D01*
X124152Y217281D01*
X124094Y216536D01*
X124152Y215790D01*
X124327Y215063D01*
X124613Y214373D01*
X125004Y213735D01*
X125489Y213167D01*
X126058Y212681D01*
X126695Y212290D01*
X127386Y212004D01*
X128113Y211830D01*
X128851Y211772D01*
Y181779D01*
X128136Y181723D01*
X127432Y181554D01*
X126763Y181277D01*
X126146Y180899D01*
X125596Y180428D01*
X125125Y179878D01*
X124747Y179261D01*
X124470Y178592D01*
X124301Y177888D01*
X124244Y177166D01*
X124301Y176444D01*
X124470Y175740D01*
X124747Y175071D01*
X125125Y174454D01*
X125596Y173903D01*
X126146Y173433D01*
X126763Y173054D01*
X127432Y172777D01*
X128136Y172608D01*
X128851Y172552D01*
Y159731D01*
G37*
G36*
X109948Y383858D02*X128851D01*
Y339410D01*
X128113Y339352D01*
X127386Y339178D01*
X126695Y338891D01*
X126058Y338501D01*
X125489Y338015D01*
X125004Y337447D01*
X124613Y336809D01*
X124327Y336118D01*
X124152Y335391D01*
X124094Y334646D01*
X124152Y333901D01*
X124327Y333174D01*
X124613Y332483D01*
X125004Y331845D01*
X125489Y331277D01*
X126058Y330791D01*
X126490Y330526D01*
Y328098D01*
X125446Y327054D01*
X109948D01*
Y330405D01*
X110235Y330383D01*
X110902Y330435D01*
X111552Y330591D01*
X112170Y330847D01*
X112740Y331197D01*
X113249Y331631D01*
X113684Y332140D01*
X114033Y332710D01*
X114289Y333328D01*
X114445Y333979D01*
X114485Y334646D01*
X114445Y335313D01*
X114289Y335963D01*
X114033Y336581D01*
X113684Y337151D01*
X113249Y337660D01*
X112740Y338095D01*
X112170Y338444D01*
X111552Y338700D01*
X110902Y338856D01*
X110235Y338909D01*
X109948Y338886D01*
Y383858D01*
G37*
G36*
Y240461D02*X109568Y240431D01*
X108917Y240275D01*
X108299Y240019D01*
X107729Y239670D01*
X107220Y239235D01*
X106786Y238727D01*
X106581Y238392D01*
Y241194D01*
X109200Y243813D01*
X109948D01*
Y240461D01*
G37*
G36*
Y220776D02*X109568Y220746D01*
X108917Y220590D01*
X108299Y220334D01*
X107729Y219985D01*
X107220Y219550D01*
X106786Y219042D01*
X106581Y218707D01*
Y234050D01*
X106786Y233715D01*
X107220Y233206D01*
X107729Y232772D01*
X108299Y232422D01*
X108917Y232166D01*
X109568Y232010D01*
X109948Y231980D01*
Y220776D01*
G37*
G36*
Y201091D02*X109568Y201061D01*
X108917Y200905D01*
X108299Y200649D01*
X107729Y200300D01*
X107220Y199865D01*
X106786Y199357D01*
X106581Y199022D01*
Y214365D01*
X106786Y214030D01*
X107220Y213521D01*
X107729Y213087D01*
X108299Y212737D01*
X108917Y212481D01*
X109568Y212325D01*
X109948Y212295D01*
Y201091D01*
G37*
G36*
Y181406D02*X109568Y181376D01*
X108917Y181220D01*
X108299Y180964D01*
X107729Y180615D01*
X107220Y180180D01*
X106786Y179672D01*
X106581Y179337D01*
Y194680D01*
X106786Y194345D01*
X107220Y193836D01*
X107729Y193402D01*
X108299Y193052D01*
X108917Y192796D01*
X109568Y192640D01*
X109948Y192610D01*
Y181406D01*
G37*
G36*
Y161721D02*X109568Y161691D01*
X108917Y161535D01*
X108299Y161279D01*
X107729Y160930D01*
X107220Y160495D01*
X106786Y159987D01*
X106581Y159652D01*
Y174995D01*
X106786Y174660D01*
X107220Y174151D01*
X107729Y173717D01*
X108299Y173367D01*
X108917Y173111D01*
X109568Y172955D01*
X109948Y172925D01*
Y161721D01*
G37*
G36*
Y142036D02*X109568Y142006D01*
X108917Y141850D01*
X108299Y141594D01*
X107729Y141245D01*
X107220Y140810D01*
X106786Y140301D01*
X106581Y139967D01*
Y155310D01*
X106786Y154975D01*
X107220Y154466D01*
X107729Y154032D01*
X108299Y153682D01*
X108917Y153426D01*
X109568Y153270D01*
X109948Y153240D01*
Y142036D01*
G37*
G36*
X106734Y76320D02*X106786Y76235D01*
X107220Y75726D01*
X107729Y75292D01*
X108299Y74942D01*
X108917Y74686D01*
X109568Y74530D01*
X109948Y74500D01*
Y63298D01*
X109635Y63268D01*
X109241Y63193D01*
X108856Y63081D01*
X108483Y62933D01*
X108125Y62751D01*
X108060Y62707D01*
X108002Y62652D01*
X107953Y62590D01*
X107915Y62520D01*
X107888Y62446D01*
X107873Y62368D01*
X107871Y62289D01*
X107881Y62210D01*
X107903Y62134D01*
X107937Y62062D01*
X107981Y61997D01*
X108036Y61939D01*
X108098Y61890D01*
X108168Y61852D01*
X108242Y61825D01*
X108320Y61810D01*
X108400Y61808D01*
X108478Y61818D01*
X108554Y61840D01*
X108625Y61875D01*
X108896Y62018D01*
X109181Y62130D01*
X109475Y62216D01*
X109776Y62273D01*
X109948Y62290D01*
Y55822D01*
X109776Y55838D01*
X109475Y55896D01*
X109181Y55981D01*
X108896Y56094D01*
X108623Y56233D01*
X108553Y56268D01*
X108477Y56290D01*
X108399Y56300D01*
X108321Y56298D01*
X108243Y56283D01*
X108169Y56256D01*
X108100Y56219D01*
X108038Y56170D01*
X107984Y56113D01*
X107940Y56048D01*
X107906Y55977D01*
X107884Y55901D01*
X107875Y55823D01*
X107877Y55744D01*
X107892Y55667D01*
X107918Y55593D01*
X107956Y55524D01*
X108004Y55462D01*
X108062Y55408D01*
X108128Y55365D01*
X108483Y55179D01*
X108856Y55031D01*
X109241Y54919D01*
X109635Y54844D01*
X109948Y54814D01*
Y9843D01*
X106734D01*
Y25903D01*
X106918Y26204D01*
X107358Y27265D01*
X107626Y28382D01*
X107694Y29528D01*
X107626Y30673D01*
X107358Y31791D01*
X106918Y32852D01*
X106734Y33153D01*
Y56756D01*
X106770Y56736D01*
X106845Y56709D01*
X106923Y56695D01*
X107002Y56692D01*
X107081Y56702D01*
X107157Y56724D01*
X107228Y56758D01*
X107294Y56803D01*
X107352Y56857D01*
X107400Y56920D01*
X107439Y56989D01*
X107465Y57064D01*
X107480Y57141D01*
X107483Y57221D01*
X107473Y57299D01*
X107451Y57375D01*
X107415Y57446D01*
X107273Y57718D01*
X107160Y58002D01*
X107075Y58297D01*
X107017Y58598D01*
X106988Y58903D01*
Y59209D01*
X107017Y59514D01*
X107075Y59815D01*
X107160Y60109D01*
X107273Y60394D01*
X107412Y60667D01*
X107447Y60738D01*
X107469Y60813D01*
X107479Y60891D01*
X107477Y60970D01*
X107462Y61047D01*
X107435Y61121D01*
X107397Y61190D01*
X107349Y61252D01*
X107292Y61306D01*
X107227Y61351D01*
X107155Y61384D01*
X107080Y61406D01*
X107002Y61416D01*
X106923Y61414D01*
X106846Y61399D01*
X106772Y61372D01*
X106734Y61351D01*
Y76320D01*
G37*
G36*
Y86333D02*X109948D01*
Y82981D01*
X109568Y82951D01*
X108917Y82795D01*
X108299Y82539D01*
X107729Y82190D01*
X107220Y81755D01*
X106786Y81247D01*
X106734Y81162D01*
Y86333D01*
G37*
G36*
X90551Y84320D02*X91218Y84372D01*
X91868Y84528D01*
X92486Y84784D01*
X93056Y85134D01*
X93565Y85568D01*
X94000Y86077D01*
X94157Y86333D01*
X106734D01*
Y81162D01*
X106436Y80676D01*
X106180Y80058D01*
X106024Y79408D01*
X105972Y78741D01*
X106024Y78074D01*
X106180Y77423D01*
X106436Y76805D01*
X106734Y76320D01*
Y61351D01*
X106703Y61334D01*
X106641Y61286D01*
X106587Y61229D01*
X106544Y61163D01*
X106357Y60808D01*
X106210Y60435D01*
X106098Y60050D01*
X106022Y59656D01*
X105985Y59256D01*
Y58855D01*
X106022Y58456D01*
X106098Y58062D01*
X106210Y57677D01*
X106357Y57304D01*
X106540Y56947D01*
X106584Y56881D01*
X106638Y56823D01*
X106701Y56774D01*
X106734Y56756D01*
Y33153D01*
X106318Y33832D01*
X105571Y34706D01*
X104698Y35452D01*
X103718Y36052D01*
X102656Y36492D01*
X101539Y36760D01*
X100394Y36850D01*
X99248Y36760D01*
X98131Y36492D01*
X97069Y36052D01*
X96090Y35452D01*
X95216Y34706D01*
X94470Y33832D01*
X93869Y32852D01*
X93430Y31791D01*
X93161Y30673D01*
X93071Y29528D01*
X93161Y28382D01*
X93430Y27265D01*
X93869Y26204D01*
X94470Y25224D01*
X95216Y24350D01*
X96090Y23604D01*
X97069Y23004D01*
X98131Y22564D01*
X99248Y22296D01*
X100394Y22205D01*
X101539Y22296D01*
X102656Y22564D01*
X103718Y23004D01*
X104698Y23604D01*
X105571Y24350D01*
X106318Y25224D01*
X106734Y25903D01*
Y9843D01*
X90551D01*
Y44949D01*
X91218Y45002D01*
X91868Y45158D01*
X92486Y45414D01*
X93056Y45764D01*
X93565Y46198D01*
X94000Y46707D01*
X94349Y47277D01*
X94605Y47895D01*
X94761Y48546D01*
X94801Y49213D01*
X94761Y49879D01*
X94605Y50530D01*
X94349Y51148D01*
X94000Y51718D01*
X93565Y52227D01*
X93056Y52662D01*
X92486Y53011D01*
X91868Y53267D01*
X91218Y53423D01*
X90551Y53476D01*
Y64635D01*
X91218Y64687D01*
X91868Y64843D01*
X92486Y65099D01*
X93056Y65449D01*
X93565Y65883D01*
X94000Y66392D01*
X94349Y66962D01*
X94605Y67580D01*
X94761Y68231D01*
X94801Y68898D01*
X94761Y69565D01*
X94605Y70215D01*
X94349Y70833D01*
X94000Y71403D01*
X93565Y71912D01*
X93056Y72347D01*
X92486Y72696D01*
X91868Y72952D01*
X91218Y73108D01*
X90551Y73161D01*
Y84320D01*
G37*
G36*
Y104005D02*X91218Y104057D01*
X91868Y104213D01*
X92486Y104469D01*
X93056Y104819D01*
X93565Y105253D01*
X94000Y105762D01*
X94349Y106332D01*
X94605Y106950D01*
X94761Y107601D01*
X94801Y108268D01*
X94761Y108935D01*
X94691Y109226D01*
X105859Y120394D01*
X105927Y120452D01*
X106156Y120721D01*
X106157Y120721D01*
X106342Y121023D01*
X106477Y121350D01*
X106560Y121695D01*
X106588Y122048D01*
X106581Y122136D01*
Y135625D01*
X106786Y135290D01*
X107220Y134781D01*
X107729Y134347D01*
X108299Y133997D01*
X108917Y133741D01*
X109568Y133585D01*
X109948Y133555D01*
Y122351D01*
X109568Y122321D01*
X108917Y122165D01*
X108299Y121909D01*
X107729Y121560D01*
X107220Y121125D01*
X106786Y120616D01*
X106436Y120046D01*
X106180Y119428D01*
X106024Y118778D01*
X105972Y118111D01*
X106024Y117444D01*
X106180Y116793D01*
X106436Y116175D01*
X106786Y115605D01*
X107220Y115096D01*
X107729Y114662D01*
X108299Y114312D01*
X108917Y114056D01*
X109568Y113900D01*
X109948Y113870D01*
Y112146D01*
X108708Y110906D01*
X108640Y110848D01*
X108410Y110579D01*
X108225Y110277D01*
X108090Y109950D01*
X108007Y109605D01*
X108007Y109605D01*
X107979Y109252D01*
X107986Y109164D01*
Y102032D01*
X107729Y101875D01*
X107220Y101440D01*
X106786Y100932D01*
X106436Y100361D01*
X106180Y99743D01*
X106024Y99093D01*
X105972Y98426D01*
X106024Y97759D01*
X106180Y97108D01*
X106436Y96490D01*
X106786Y95920D01*
X107220Y95411D01*
X107729Y94977D01*
X108299Y94627D01*
X108917Y94371D01*
X109568Y94215D01*
X109948Y94185D01*
Y90833D01*
X94156D01*
X94000Y91088D01*
X93565Y91597D01*
X93056Y92032D01*
X92486Y92381D01*
X91868Y92637D01*
X91218Y92793D01*
X90551Y92846D01*
Y104005D01*
G37*
G36*
Y123690D02*X91218Y123742D01*
X91868Y123898D01*
X92486Y124154D01*
X93056Y124504D01*
X93565Y124938D01*
X94000Y125447D01*
X94349Y126017D01*
X94605Y126635D01*
X94761Y127286D01*
X94801Y127953D01*
X94761Y128620D01*
X94691Y128911D01*
X99954Y134174D01*
X100021Y134231D01*
X100251Y134500D01*
X100251Y134501D01*
X100436Y134803D01*
X100572Y135130D01*
X100654Y135474D01*
X100682Y135827D01*
X100675Y135915D01*
Y317966D01*
X105263Y322554D01*
X109948D01*
Y319201D01*
X109568Y319171D01*
X108917Y319015D01*
X108299Y318759D01*
X107729Y318410D01*
X107220Y317975D01*
X106786Y317467D01*
X106436Y316896D01*
X106180Y316278D01*
X106024Y315628D01*
X105972Y314961D01*
X106024Y314294D01*
X106180Y313643D01*
X106436Y313025D01*
X106786Y312455D01*
X107220Y311946D01*
X107729Y311512D01*
X108299Y311162D01*
X108917Y310906D01*
X109568Y310750D01*
X109948Y310720D01*
Y299516D01*
X109568Y299486D01*
X108917Y299330D01*
X108299Y299074D01*
X107729Y298725D01*
X107220Y298290D01*
X106786Y297782D01*
X106436Y297211D01*
X106180Y296593D01*
X106024Y295943D01*
X105972Y295276D01*
X106024Y294609D01*
X106180Y293958D01*
X106436Y293340D01*
X106786Y292770D01*
X107220Y292261D01*
X107729Y291827D01*
X108299Y291477D01*
X108917Y291221D01*
X109568Y291065D01*
X109948Y291035D01*
Y279831D01*
X109568Y279802D01*
X108917Y279645D01*
X108299Y279389D01*
X107729Y279040D01*
X107220Y278605D01*
X106786Y278097D01*
X106436Y277526D01*
X106180Y276908D01*
X106024Y276258D01*
X105972Y275591D01*
X106024Y274924D01*
X106180Y274274D01*
X106436Y273656D01*
X106786Y273085D01*
X107220Y272576D01*
X107729Y272142D01*
X108299Y271792D01*
X108917Y271536D01*
X109568Y271380D01*
X109948Y271350D01*
Y260146D01*
X109568Y260117D01*
X108917Y259960D01*
X108299Y259704D01*
X107729Y259355D01*
X107220Y258920D01*
X106786Y258412D01*
X106436Y257841D01*
X106180Y257223D01*
X106024Y256573D01*
X105972Y255906D01*
X106024Y255239D01*
X106180Y254589D01*
X106436Y253970D01*
X106786Y253400D01*
X107220Y252891D01*
X107729Y252457D01*
X108299Y252107D01*
X108917Y251851D01*
X109568Y251695D01*
X109948Y251665D01*
Y248313D01*
X108356D01*
X108268Y248320D01*
X107915Y248293D01*
X107570Y248210D01*
X107243Y248074D01*
X106941Y247889D01*
X106941Y247889D01*
X106672Y247659D01*
X106614Y247592D01*
X102802Y243780D01*
X102735Y243722D01*
X102505Y243453D01*
X102320Y243151D01*
X102184Y242824D01*
X102102Y242479D01*
X102102Y242479D01*
X102074Y242126D01*
X102081Y242038D01*
Y122980D01*
X91509Y112408D01*
X91218Y112478D01*
X90551Y112531D01*
Y123690D01*
G37*
G36*
X100382Y383858D02*X109948D01*
Y338886D01*
X109568Y338856D01*
X108917Y338700D01*
X108299Y338444D01*
X107729Y338095D01*
X107220Y337660D01*
X106786Y337151D01*
X106436Y336581D01*
X106180Y335963D01*
X106024Y335313D01*
X105972Y334646D01*
X106024Y333979D01*
X106180Y333328D01*
X106436Y332710D01*
X106786Y332140D01*
X107220Y331631D01*
X107729Y331197D01*
X108299Y330847D01*
X108917Y330591D01*
X109568Y330435D01*
X109948Y330405D01*
Y327054D01*
X104419D01*
X104331Y327060D01*
X103978Y327033D01*
X103633Y326950D01*
X103306Y326814D01*
X103004Y326629D01*
X103004Y326629D01*
X102735Y326399D01*
X102677Y326332D01*
X100382Y324037D01*
Y356852D01*
X100394Y356851D01*
X101539Y356941D01*
X102656Y357209D01*
X103718Y357649D01*
X104698Y358250D01*
X105571Y358996D01*
X106318Y359870D01*
X106918Y360849D01*
X107358Y361911D01*
X107626Y363028D01*
X107694Y364174D01*
X107626Y365319D01*
X107358Y366436D01*
X106918Y367498D01*
X106318Y368478D01*
X105571Y369351D01*
X104698Y370098D01*
X103718Y370698D01*
X102656Y371138D01*
X101539Y371406D01*
X100394Y371496D01*
X100382Y371495D01*
Y383858D01*
G37*
G36*
X90551D02*X100382D01*
Y371495D01*
X99248Y371406D01*
X98131Y371138D01*
X97069Y370698D01*
X96090Y370098D01*
X95216Y369351D01*
X94470Y368478D01*
X93869Y367498D01*
X93430Y366436D01*
X93161Y365319D01*
X93071Y364174D01*
X93161Y363028D01*
X93430Y361911D01*
X93869Y360849D01*
X94470Y359870D01*
X95216Y358996D01*
X96090Y358250D01*
X97069Y357649D01*
X98131Y357209D01*
X99248Y356941D01*
X100382Y356852D01*
Y324037D01*
X96897Y320551D01*
X96829Y320494D01*
X96599Y320225D01*
X96414Y319923D01*
X96279Y319595D01*
X96196Y319251D01*
X96196Y319251D01*
X96168Y318898D01*
X96175Y318810D01*
Y136759D01*
X91509Y132093D01*
X91218Y132163D01*
X90551Y132216D01*
Y143375D01*
X91218Y143427D01*
X91868Y143583D01*
X92486Y143839D01*
X93056Y144189D01*
X93565Y144623D01*
X94000Y145132D01*
X94349Y145702D01*
X94605Y146320D01*
X94761Y146971D01*
X94801Y147638D01*
X94761Y148305D01*
X94605Y148955D01*
X94349Y149573D01*
X94000Y150144D01*
X93565Y150652D01*
X93056Y151087D01*
X92486Y151436D01*
X91868Y151692D01*
X91218Y151848D01*
X90551Y151901D01*
Y163060D01*
X91218Y163112D01*
X91868Y163268D01*
X92486Y163524D01*
X93056Y163874D01*
X93565Y164308D01*
X94000Y164817D01*
X94349Y165387D01*
X94605Y166005D01*
X94761Y166656D01*
X94801Y167323D01*
X94761Y167990D01*
X94605Y168640D01*
X94349Y169258D01*
X94000Y169829D01*
X93565Y170337D01*
X93056Y170772D01*
X92486Y171121D01*
X91868Y171377D01*
X91218Y171533D01*
X90551Y171586D01*
Y182745D01*
X91218Y182797D01*
X91868Y182953D01*
X92486Y183209D01*
X93056Y183559D01*
X93565Y183993D01*
X94000Y184502D01*
X94349Y185072D01*
X94605Y185690D01*
X94761Y186341D01*
X94801Y187008D01*
X94761Y187675D01*
X94605Y188325D01*
X94349Y188943D01*
X94000Y189514D01*
X93565Y190022D01*
X93056Y190457D01*
X92486Y190806D01*
X91868Y191062D01*
X91218Y191218D01*
X90551Y191271D01*
Y202430D01*
X91218Y202482D01*
X91868Y202638D01*
X92486Y202894D01*
X93056Y203244D01*
X93565Y203678D01*
X94000Y204187D01*
X94349Y204757D01*
X94605Y205375D01*
X94761Y206026D01*
X94801Y206693D01*
X94761Y207360D01*
X94605Y208010D01*
X94349Y208628D01*
X94000Y209199D01*
X93565Y209707D01*
X93056Y210142D01*
X92486Y210491D01*
X91868Y210747D01*
X91218Y210903D01*
X90551Y210956D01*
Y222115D01*
X91218Y222167D01*
X91868Y222323D01*
X92486Y222579D01*
X93056Y222929D01*
X93565Y223363D01*
X94000Y223872D01*
X94349Y224442D01*
X94605Y225060D01*
X94761Y225711D01*
X94801Y226378D01*
X94761Y227045D01*
X94605Y227695D01*
X94349Y228313D01*
X94000Y228884D01*
X93565Y229392D01*
X93056Y229827D01*
X92486Y230176D01*
X91868Y230432D01*
X91218Y230588D01*
X90551Y230641D01*
Y241800D01*
X91218Y241852D01*
X91868Y242008D01*
X92486Y242264D01*
X93056Y242614D01*
X93565Y243048D01*
X94000Y243557D01*
X94349Y244127D01*
X94605Y244745D01*
X94761Y245396D01*
X94801Y246063D01*
X94761Y246730D01*
X94605Y247380D01*
X94349Y247998D01*
X94000Y248569D01*
X93565Y249077D01*
X93056Y249512D01*
X92486Y249861D01*
X91868Y250117D01*
X91218Y250273D01*
X90551Y250326D01*
Y261485D01*
X91218Y261537D01*
X91868Y261693D01*
X92486Y261949D01*
X93056Y262299D01*
X93565Y262733D01*
X94000Y263242D01*
X94349Y263812D01*
X94605Y264430D01*
X94761Y265081D01*
X94801Y265748D01*
X94761Y266415D01*
X94605Y267065D01*
X94349Y267683D01*
X94000Y268254D01*
X93565Y268762D01*
X93056Y269197D01*
X92486Y269546D01*
X91868Y269802D01*
X91218Y269958D01*
X90551Y270011D01*
Y281170D01*
X91218Y281222D01*
X91868Y281378D01*
X92486Y281634D01*
X93056Y281984D01*
X93565Y282418D01*
X94000Y282927D01*
X94349Y283497D01*
X94605Y284115D01*
X94761Y284766D01*
X94801Y285433D01*
X94761Y286100D01*
X94605Y286750D01*
X94349Y287368D01*
X94000Y287939D01*
X93565Y288447D01*
X93056Y288882D01*
X92486Y289231D01*
X91868Y289487D01*
X91218Y289643D01*
X90551Y289696D01*
Y300855D01*
X91218Y300907D01*
X91868Y301063D01*
X92486Y301319D01*
X93056Y301669D01*
X93565Y302103D01*
X94000Y302612D01*
X94349Y303182D01*
X94605Y303800D01*
X94761Y304451D01*
X94801Y305118D01*
X94761Y305785D01*
X94605Y306435D01*
X94349Y307053D01*
X94000Y307624D01*
X93565Y308132D01*
X93056Y308567D01*
X92486Y308916D01*
X91868Y309172D01*
X91218Y309328D01*
X90551Y309381D01*
Y320540D01*
X91218Y320592D01*
X91868Y320748D01*
X92486Y321004D01*
X93056Y321354D01*
X93565Y321788D01*
X94000Y322297D01*
X94349Y322867D01*
X94605Y323485D01*
X94761Y324136D01*
X94801Y324803D01*
X94761Y325470D01*
X94605Y326120D01*
X94349Y326738D01*
X94000Y327309D01*
X93565Y327817D01*
X93056Y328252D01*
X92486Y328601D01*
X91868Y328857D01*
X91218Y329013D01*
X90551Y329066D01*
Y340242D01*
X93958Y340247D01*
X94111Y340284D01*
X94256Y340344D01*
X94390Y340426D01*
X94510Y340529D01*
X94612Y340648D01*
X94694Y340782D01*
X94755Y340928D01*
X94791Y341081D01*
X94801Y341238D01*
X94791Y347895D01*
X94755Y348048D01*
X94694Y348193D01*
X94612Y348327D01*
X94510Y348447D01*
X94390Y348549D01*
X94256Y348632D01*
X94111Y348692D01*
X93958Y348729D01*
X93801Y348738D01*
X90551Y348733D01*
Y383858D01*
G37*
G36*
X44840D02*X90551D01*
Y348733D01*
X87144Y348729D01*
X86991Y348692D01*
X86845Y348632D01*
X86711Y348549D01*
X86591Y348447D01*
X86489Y348327D01*
X86407Y348193D01*
X86347Y348048D01*
X86310Y347895D01*
X86301Y347738D01*
X86310Y341081D01*
X86347Y340928D01*
X86407Y340782D01*
X86489Y340648D01*
X86591Y340529D01*
X86711Y340426D01*
X86845Y340344D01*
X86991Y340284D01*
X87144Y340247D01*
X87301Y340238D01*
X90551Y340242D01*
Y329066D01*
X89884Y329013D01*
X89233Y328857D01*
X88615Y328601D01*
X88045Y328252D01*
X87536Y327817D01*
X87102Y327309D01*
X86752Y326738D01*
X86496Y326120D01*
X86340Y325470D01*
X86288Y324803D01*
X86340Y324136D01*
X86496Y323485D01*
X86752Y322867D01*
X87102Y322297D01*
X87536Y321788D01*
X88045Y321354D01*
X88615Y321004D01*
X89233Y320748D01*
X89884Y320592D01*
X90551Y320540D01*
Y309381D01*
X89884Y309328D01*
X89233Y309172D01*
X88615Y308916D01*
X88045Y308567D01*
X87536Y308132D01*
X87102Y307624D01*
X86752Y307053D01*
X86496Y306435D01*
X86340Y305785D01*
X86288Y305118D01*
X86340Y304451D01*
X86496Y303800D01*
X86752Y303182D01*
X87102Y302612D01*
X87536Y302103D01*
X88045Y301669D01*
X88615Y301319D01*
X89233Y301063D01*
X89884Y300907D01*
X90551Y300855D01*
Y289696D01*
X89884Y289643D01*
X89233Y289487D01*
X88615Y289231D01*
X88045Y288882D01*
X87536Y288447D01*
X87102Y287939D01*
X86752Y287368D01*
X86496Y286750D01*
X86340Y286100D01*
X86288Y285433D01*
X86340Y284766D01*
X86496Y284115D01*
X86752Y283497D01*
X87102Y282927D01*
X87536Y282418D01*
X88045Y281984D01*
X88615Y281634D01*
X89233Y281378D01*
X89884Y281222D01*
X90551Y281170D01*
Y270011D01*
X89884Y269958D01*
X89233Y269802D01*
X88615Y269546D01*
X88045Y269197D01*
X87536Y268762D01*
X87102Y268254D01*
X86752Y267683D01*
X86496Y267065D01*
X86340Y266415D01*
X86288Y265748D01*
X86340Y265081D01*
X86496Y264430D01*
X86752Y263812D01*
X87102Y263242D01*
X87536Y262733D01*
X88045Y262299D01*
X88615Y261949D01*
X89233Y261693D01*
X89884Y261537D01*
X90551Y261485D01*
Y250326D01*
X89884Y250273D01*
X89233Y250117D01*
X88615Y249861D01*
X88045Y249512D01*
X87536Y249077D01*
X87102Y248569D01*
X86752Y247998D01*
X86496Y247380D01*
X86340Y246730D01*
X86288Y246063D01*
X86340Y245396D01*
X86496Y244745D01*
X86752Y244127D01*
X87102Y243557D01*
X87536Y243048D01*
X88045Y242614D01*
X88615Y242264D01*
X89233Y242008D01*
X89884Y241852D01*
X90551Y241800D01*
Y230641D01*
X89884Y230588D01*
X89233Y230432D01*
X88615Y230176D01*
X88045Y229827D01*
X87536Y229392D01*
X87102Y228884D01*
X86752Y228313D01*
X86496Y227695D01*
X86340Y227045D01*
X86288Y226378D01*
X86340Y225711D01*
X86496Y225060D01*
X86752Y224442D01*
X87102Y223872D01*
X87536Y223363D01*
X88045Y222929D01*
X88615Y222579D01*
X89233Y222323D01*
X89884Y222167D01*
X90551Y222115D01*
Y210956D01*
X89884Y210903D01*
X89233Y210747D01*
X88615Y210491D01*
X88045Y210142D01*
X87536Y209707D01*
X87102Y209199D01*
X86752Y208628D01*
X86496Y208010D01*
X86340Y207360D01*
X86288Y206693D01*
X86340Y206026D01*
X86496Y205375D01*
X86752Y204757D01*
X87102Y204187D01*
X87536Y203678D01*
X88045Y203244D01*
X88615Y202894D01*
X89233Y202638D01*
X89884Y202482D01*
X90551Y202430D01*
Y191271D01*
X89884Y191218D01*
X89233Y191062D01*
X88615Y190806D01*
X88045Y190457D01*
X87536Y190022D01*
X87102Y189514D01*
X86752Y188943D01*
X86496Y188325D01*
X86340Y187675D01*
X86288Y187008D01*
X86340Y186341D01*
X86496Y185690D01*
X86752Y185072D01*
X87102Y184502D01*
X87536Y183993D01*
X88045Y183559D01*
X88615Y183209D01*
X89233Y182953D01*
X89884Y182797D01*
X90551Y182745D01*
Y171586D01*
X89884Y171533D01*
X89233Y171377D01*
X88615Y171121D01*
X88045Y170772D01*
X87536Y170337D01*
X87102Y169829D01*
X86752Y169258D01*
X86496Y168640D01*
X86340Y167990D01*
X86288Y167323D01*
X86340Y166656D01*
X86496Y166005D01*
X86752Y165387D01*
X87102Y164817D01*
X87536Y164308D01*
X88045Y163874D01*
X88615Y163524D01*
X89233Y163268D01*
X89884Y163112D01*
X90551Y163060D01*
Y151901D01*
X89884Y151848D01*
X89233Y151692D01*
X88615Y151436D01*
X88045Y151087D01*
X87536Y150652D01*
X87102Y150144D01*
X86752Y149573D01*
X86496Y148955D01*
X86340Y148305D01*
X86288Y147638D01*
X86340Y146971D01*
X86496Y146320D01*
X86752Y145702D01*
X87102Y145132D01*
X87536Y144623D01*
X88045Y144189D01*
X88615Y143839D01*
X89233Y143583D01*
X89884Y143427D01*
X90551Y143375D01*
Y132216D01*
X89884Y132163D01*
X89233Y132007D01*
X88615Y131751D01*
X88045Y131402D01*
X87536Y130967D01*
X87102Y130459D01*
X86752Y129888D01*
X86496Y129270D01*
X86340Y128620D01*
X86288Y127953D01*
X86340Y127286D01*
X86496Y126635D01*
X86752Y126017D01*
X87102Y125447D01*
X87536Y124938D01*
X88045Y124504D01*
X88615Y124154D01*
X89233Y123898D01*
X89884Y123742D01*
X90551Y123690D01*
Y112531D01*
X89884Y112478D01*
X89233Y112322D01*
X88615Y112066D01*
X88045Y111717D01*
X87536Y111282D01*
X87102Y110774D01*
X86752Y110203D01*
X86496Y109585D01*
X86340Y108935D01*
X86288Y108268D01*
X86340Y107601D01*
X86496Y106950D01*
X86752Y106332D01*
X87102Y105762D01*
X87536Y105253D01*
X88045Y104819D01*
X88615Y104469D01*
X89233Y104213D01*
X89884Y104057D01*
X90551Y104005D01*
Y92846D01*
X89884Y92793D01*
X89233Y92637D01*
X88615Y92381D01*
X88045Y92032D01*
X87536Y91597D01*
X87102Y91088D01*
X86752Y90518D01*
X86496Y89900D01*
X86340Y89250D01*
X86288Y88583D01*
X86340Y87916D01*
X86496Y87265D01*
X86752Y86647D01*
X87102Y86077D01*
X87536Y85568D01*
X88045Y85134D01*
X88615Y84784D01*
X89233Y84528D01*
X89884Y84372D01*
X90551Y84320D01*
Y73161D01*
X89884Y73108D01*
X89233Y72952D01*
X88615Y72696D01*
X88045Y72347D01*
X87536Y71912D01*
X87102Y71403D01*
X86752Y70833D01*
X86496Y70215D01*
X86340Y69565D01*
X86288Y68898D01*
X86340Y68231D01*
X86496Y67580D01*
X86752Y66962D01*
X87102Y66392D01*
X87536Y65883D01*
X88045Y65449D01*
X88615Y65099D01*
X89233Y64843D01*
X89884Y64687D01*
X90551Y64635D01*
Y53476D01*
X89884Y53423D01*
X89233Y53267D01*
X88615Y53011D01*
X88045Y52662D01*
X87536Y52227D01*
X87102Y51718D01*
X86752Y51148D01*
X86496Y50530D01*
X86340Y49879D01*
X86288Y49213D01*
X86340Y48546D01*
X86496Y47895D01*
X86752Y47277D01*
X87102Y46707D01*
X87536Y46198D01*
X88045Y45764D01*
X88615Y45414D01*
X89233Y45158D01*
X89884Y45002D01*
X90551Y44949D01*
Y9843D01*
X44840D01*
Y15422D01*
X44870Y15438D01*
X44933Y15487D01*
X44987Y15544D01*
X45029Y15610D01*
X45216Y15965D01*
X45364Y16338D01*
X45476Y16723D01*
X45551Y17117D01*
X45589Y17516D01*
Y17918D01*
X45551Y18317D01*
X45476Y18711D01*
X45364Y19096D01*
X45216Y19469D01*
X45034Y19826D01*
X44989Y19892D01*
X44935Y19950D01*
X44872Y19998D01*
X44840Y20016D01*
Y373689D01*
X44870Y373706D01*
X44933Y373754D01*
X44987Y373812D01*
X45029Y373878D01*
X45216Y374233D01*
X45364Y374606D01*
X45476Y374991D01*
X45551Y375385D01*
X45589Y375784D01*
Y376185D01*
X45551Y376585D01*
X45476Y376979D01*
X45364Y377364D01*
X45216Y377737D01*
X45034Y378094D01*
X44989Y378160D01*
X44935Y378218D01*
X44872Y378266D01*
X44840Y378284D01*
Y383858D01*
G37*
G36*
X41340D02*X44840D01*
Y378284D01*
X44803Y378304D01*
X44728Y378331D01*
X44651Y378346D01*
X44571Y378348D01*
X44493Y378338D01*
X44417Y378316D01*
X44345Y378283D01*
X44279Y378238D01*
X44222Y378184D01*
X44173Y378121D01*
X44135Y378052D01*
X44108Y377977D01*
X44093Y377899D01*
X44091Y377820D01*
X44101Y377741D01*
X44123Y377665D01*
X44158Y377594D01*
X44300Y377323D01*
X44413Y377038D01*
X44499Y376744D01*
X44556Y376443D01*
X44585Y376138D01*
Y375831D01*
X44556Y375526D01*
X44499Y375225D01*
X44413Y374931D01*
X44300Y374646D01*
X44161Y374373D01*
X44126Y374303D01*
X44104Y374227D01*
X44094Y374149D01*
X44097Y374071D01*
X44111Y373993D01*
X44138Y373919D01*
X44176Y373850D01*
X44224Y373788D01*
X44282Y373734D01*
X44347Y373690D01*
X44418Y373656D01*
X44493Y373634D01*
X44571Y373625D01*
X44650Y373627D01*
X44727Y373642D01*
X44801Y373668D01*
X44840Y373689D01*
Y20016D01*
X44803Y20037D01*
X44728Y20063D01*
X44651Y20078D01*
X44571Y20081D01*
X44493Y20071D01*
X44417Y20049D01*
X44345Y20015D01*
X44279Y19970D01*
X44222Y19916D01*
X44173Y19853D01*
X44135Y19784D01*
X44108Y19709D01*
X44093Y19631D01*
X44091Y19552D01*
X44101Y19473D01*
X44123Y19397D01*
X44158Y19326D01*
X44300Y19055D01*
X44413Y18770D01*
X44499Y18476D01*
X44556Y18175D01*
X44585Y17870D01*
Y17564D01*
X44556Y17259D01*
X44499Y16958D01*
X44413Y16663D01*
X44300Y16379D01*
X44161Y16106D01*
X44126Y16035D01*
X44104Y15960D01*
X44094Y15882D01*
X44097Y15803D01*
X44111Y15726D01*
X44138Y15652D01*
X44176Y15583D01*
X44224Y15520D01*
X44282Y15466D01*
X44347Y15422D01*
X44418Y15389D01*
X44493Y15367D01*
X44571Y15357D01*
X44650Y15359D01*
X44727Y15374D01*
X44801Y15401D01*
X44840Y15422D01*
Y9843D01*
X41340D01*
Y13467D01*
X41539D01*
X41938Y13505D01*
X42333Y13580D01*
X42718Y13692D01*
X43091Y13840D01*
X43448Y14022D01*
X43514Y14066D01*
X43572Y14120D01*
X43620Y14183D01*
X43658Y14253D01*
X43685Y14327D01*
X43700Y14405D01*
X43702Y14484D01*
X43692Y14563D01*
X43670Y14639D01*
X43636Y14711D01*
X43592Y14776D01*
X43538Y14834D01*
X43475Y14883D01*
X43405Y14921D01*
X43331Y14948D01*
X43253Y14962D01*
X43174Y14965D01*
X43095Y14955D01*
X43019Y14933D01*
X42948Y14898D01*
X42677Y14755D01*
X42392Y14642D01*
X42098Y14557D01*
X41797Y14499D01*
X41492Y14471D01*
X41340D01*
Y20963D01*
X41492D01*
X41797Y20934D01*
X42098Y20877D01*
X42392Y20791D01*
X42677Y20679D01*
X42950Y20539D01*
X43020Y20505D01*
X43096Y20483D01*
X43174Y20473D01*
X43253Y20475D01*
X43330Y20490D01*
X43404Y20516D01*
X43473Y20554D01*
X43535Y20603D01*
X43589Y20660D01*
X43633Y20725D01*
X43667Y20796D01*
X43689Y20872D01*
X43699Y20950D01*
X43696Y21028D01*
X43682Y21106D01*
X43655Y21180D01*
X43617Y21249D01*
X43569Y21311D01*
X43511Y21365D01*
X43446Y21408D01*
X43091Y21594D01*
X42718Y21742D01*
X42333Y21854D01*
X41938Y21929D01*
X41539Y21967D01*
X41340D01*
Y371735D01*
X41539D01*
X41938Y371772D01*
X42333Y371848D01*
X42718Y371960D01*
X43091Y372107D01*
X43448Y372290D01*
X43514Y372334D01*
X43572Y372388D01*
X43620Y372451D01*
X43658Y372520D01*
X43685Y372595D01*
X43700Y372673D01*
X43702Y372752D01*
X43692Y372831D01*
X43670Y372907D01*
X43636Y372978D01*
X43592Y373044D01*
X43538Y373102D01*
X43475Y373150D01*
X43405Y373188D01*
X43331Y373215D01*
X43253Y373230D01*
X43174Y373233D01*
X43095Y373223D01*
X43019Y373200D01*
X42948Y373165D01*
X42677Y373023D01*
X42392Y372910D01*
X42098Y372825D01*
X41797Y372767D01*
X41492Y372738D01*
X41340D01*
Y379231D01*
X41492D01*
X41797Y379202D01*
X42098Y379145D01*
X42392Y379059D01*
X42677Y378946D01*
X42950Y378807D01*
X43020Y378772D01*
X43096Y378750D01*
X43174Y378740D01*
X43253Y378743D01*
X43330Y378758D01*
X43404Y378784D01*
X43473Y378822D01*
X43535Y378870D01*
X43589Y378928D01*
X43633Y378993D01*
X43667Y379064D01*
X43689Y379139D01*
X43699Y379218D01*
X43696Y379296D01*
X43682Y379373D01*
X43655Y379448D01*
X43617Y379517D01*
X43569Y379579D01*
X43511Y379633D01*
X43446Y379676D01*
X43091Y379862D01*
X42718Y380010D01*
X42333Y380122D01*
X41938Y380197D01*
X41539Y380235D01*
X41340D01*
Y383858D01*
G37*
G36*
X37838D02*X41340D01*
Y380235D01*
X41138D01*
X40739Y380197D01*
X40345Y380122D01*
X39959Y380010D01*
X39587Y379862D01*
X39229Y379680D01*
X39163Y379635D01*
X39106Y379581D01*
X39057Y379519D01*
X39019Y379449D01*
X38992Y379374D01*
X38977Y379297D01*
X38975Y379217D01*
X38985Y379139D01*
X39007Y379063D01*
X39041Y378991D01*
X39085Y378925D01*
X39140Y378868D01*
X39202Y378819D01*
X39272Y378781D01*
X39346Y378754D01*
X39424Y378739D01*
X39503Y378737D01*
X39582Y378747D01*
X39658Y378769D01*
X39729Y378804D01*
X40000Y378946D01*
X40285Y379059D01*
X40579Y379145D01*
X40880Y379202D01*
X41185Y379231D01*
X41340D01*
Y372738D01*
X41185D01*
X40880Y372767D01*
X40579Y372825D01*
X40285Y372910D01*
X40000Y373023D01*
X39727Y373162D01*
X39657Y373197D01*
X39581Y373219D01*
X39503Y373229D01*
X39425Y373226D01*
X39347Y373212D01*
X39273Y373185D01*
X39204Y373147D01*
X39142Y373099D01*
X39088Y373042D01*
X39044Y372977D01*
X39010Y372905D01*
X38988Y372830D01*
X38978Y372752D01*
X38981Y372673D01*
X38996Y372596D01*
X39022Y372522D01*
X39060Y372453D01*
X39108Y372391D01*
X39166Y372337D01*
X39232Y372294D01*
X39587Y372107D01*
X39959Y371960D01*
X40345Y371848D01*
X40739Y371772D01*
X41138Y371735D01*
X41340D01*
Y21967D01*
X41138D01*
X40739Y21929D01*
X40345Y21854D01*
X39959Y21742D01*
X39587Y21594D01*
X39229Y21412D01*
X39163Y21368D01*
X39106Y21313D01*
X39057Y21251D01*
X39019Y21181D01*
X38992Y21107D01*
X38977Y21029D01*
X38975Y20950D01*
X38985Y20871D01*
X39007Y20795D01*
X39041Y20723D01*
X39085Y20658D01*
X39140Y20600D01*
X39202Y20551D01*
X39272Y20513D01*
X39346Y20486D01*
X39424Y20471D01*
X39503Y20469D01*
X39582Y20479D01*
X39658Y20501D01*
X39729Y20536D01*
X40000Y20679D01*
X40285Y20791D01*
X40579Y20877D01*
X40880Y20934D01*
X41185Y20963D01*
X41340D01*
Y14471D01*
X41185D01*
X40880Y14499D01*
X40579Y14557D01*
X40285Y14642D01*
X40000Y14755D01*
X39727Y14894D01*
X39657Y14929D01*
X39581Y14951D01*
X39503Y14961D01*
X39425Y14959D01*
X39347Y14944D01*
X39273Y14917D01*
X39204Y14880D01*
X39142Y14831D01*
X39088Y14774D01*
X39044Y14709D01*
X39010Y14638D01*
X38988Y14562D01*
X38978Y14484D01*
X38981Y14405D01*
X38996Y14328D01*
X39022Y14254D01*
X39060Y14185D01*
X39108Y14123D01*
X39166Y14069D01*
X39232Y14026D01*
X39587Y13840D01*
X39959Y13692D01*
X40345Y13580D01*
X40739Y13505D01*
X41138Y13467D01*
X41340D01*
Y9843D01*
X37838D01*
Y15417D01*
X37874Y15397D01*
X37949Y15370D01*
X38027Y15356D01*
X38106Y15353D01*
X38185Y15363D01*
X38261Y15385D01*
X38332Y15419D01*
X38398Y15464D01*
X38456Y15518D01*
X38504Y15581D01*
X38542Y15650D01*
X38569Y15725D01*
X38584Y15803D01*
X38586Y15882D01*
X38577Y15960D01*
X38554Y16036D01*
X38519Y16107D01*
X38377Y16379D01*
X38264Y16663D01*
X38179Y16958D01*
X38121Y17259D01*
X38092Y17564D01*
Y17870D01*
X38121Y18175D01*
X38179Y18476D01*
X38264Y18770D01*
X38377Y19055D01*
X38516Y19328D01*
X38551Y19399D01*
X38573Y19474D01*
X38583Y19552D01*
X38580Y19631D01*
X38566Y19708D01*
X38539Y19782D01*
X38501Y19851D01*
X38453Y19914D01*
X38396Y19967D01*
X38331Y20012D01*
X38259Y20045D01*
X38184Y20067D01*
X38106Y20077D01*
X38027Y20075D01*
X37950Y20060D01*
X37876Y20033D01*
X37838Y20012D01*
Y373685D01*
X37874Y373665D01*
X37949Y373638D01*
X38027Y373623D01*
X38106Y373621D01*
X38185Y373631D01*
X38261Y373653D01*
X38332Y373687D01*
X38398Y373731D01*
X38456Y373786D01*
X38504Y373848D01*
X38542Y373918D01*
X38569Y373992D01*
X38584Y374070D01*
X38586Y374149D01*
X38577Y374228D01*
X38554Y374304D01*
X38519Y374375D01*
X38377Y374646D01*
X38264Y374931D01*
X38179Y375225D01*
X38121Y375526D01*
X38092Y375831D01*
Y376138D01*
X38121Y376443D01*
X38179Y376744D01*
X38264Y377038D01*
X38377Y377323D01*
X38516Y377596D01*
X38551Y377666D01*
X38573Y377742D01*
X38583Y377820D01*
X38580Y377899D01*
X38566Y377976D01*
X38539Y378050D01*
X38501Y378119D01*
X38453Y378181D01*
X38396Y378235D01*
X38331Y378279D01*
X38259Y378313D01*
X38184Y378335D01*
X38106Y378345D01*
X38027Y378342D01*
X37950Y378328D01*
X37876Y378301D01*
X37838Y378280D01*
Y383858D01*
G37*
G36*
X19890D02*X37838D01*
Y378280D01*
X37807Y378263D01*
X37744Y378215D01*
X37691Y378158D01*
X37648Y378092D01*
X37461Y377737D01*
X37314Y377364D01*
X37202Y376979D01*
X37126Y376585D01*
X37089Y376185D01*
Y375784D01*
X37126Y375385D01*
X37202Y374991D01*
X37314Y374606D01*
X37461Y374233D01*
X37644Y373875D01*
X37688Y373809D01*
X37742Y373752D01*
X37805Y373703D01*
X37838Y373685D01*
Y20012D01*
X37807Y19995D01*
X37744Y19947D01*
X37691Y19890D01*
X37648Y19824D01*
X37461Y19469D01*
X37314Y19096D01*
X37202Y18711D01*
X37126Y18317D01*
X37089Y17918D01*
Y17516D01*
X37126Y17117D01*
X37202Y16723D01*
X37314Y16338D01*
X37461Y15965D01*
X37644Y15608D01*
X37688Y15542D01*
X37742Y15484D01*
X37805Y15435D01*
X37838Y15417D01*
Y9843D01*
X19890D01*
Y43849D01*
X20306Y44528D01*
X20613Y45270D01*
X20801Y46051D01*
X20848Y46851D01*
X20801Y47651D01*
X20613Y48432D01*
X20306Y49173D01*
X19890Y49852D01*
Y54275D01*
X19937Y54288D01*
X20045Y54336D01*
X20143Y54401D01*
X20231Y54480D01*
X20305Y54572D01*
X20361Y54676D01*
X20539Y55089D01*
X20676Y55517D01*
X20774Y55956D01*
X20833Y56402D01*
X20853Y56851D01*
X20833Y57300D01*
X20774Y57746D01*
X20676Y58185D01*
X20539Y58613D01*
X20366Y59028D01*
X20307Y59131D01*
X20233Y59224D01*
X20145Y59303D01*
X20046Y59368D01*
X19938Y59417D01*
X19890Y59430D01*
Y63849D01*
X20306Y64528D01*
X20613Y65270D01*
X20801Y66051D01*
X20848Y66851D01*
X20801Y67651D01*
X20613Y68432D01*
X20306Y69173D01*
X19890Y69852D01*
Y73849D01*
X20306Y74528D01*
X20613Y75270D01*
X20801Y76051D01*
X20848Y76851D01*
X20801Y77651D01*
X20613Y78432D01*
X20306Y79173D01*
X19890Y79852D01*
Y83849D01*
X20306Y84528D01*
X20613Y85270D01*
X20801Y86051D01*
X20848Y86851D01*
X20801Y87651D01*
X20613Y88432D01*
X20306Y89173D01*
X19890Y89852D01*
Y93849D01*
X20306Y94528D01*
X20613Y95270D01*
X20801Y96051D01*
X20848Y96851D01*
X20801Y97651D01*
X20613Y98432D01*
X20306Y99173D01*
X19890Y99852D01*
Y103849D01*
X20306Y104528D01*
X20613Y105270D01*
X20801Y106051D01*
X20848Y106851D01*
X20801Y107651D01*
X20613Y108432D01*
X20306Y109173D01*
X19890Y109852D01*
Y113849D01*
X20306Y114528D01*
X20613Y115270D01*
X20801Y116051D01*
X20848Y116851D01*
X20801Y117651D01*
X20613Y118432D01*
X20306Y119173D01*
X19890Y119852D01*
Y123849D01*
X20306Y124528D01*
X20613Y125270D01*
X20801Y126051D01*
X20848Y126851D01*
X20801Y127651D01*
X20613Y128432D01*
X20306Y129173D01*
X19890Y129852D01*
Y133849D01*
X20306Y134528D01*
X20613Y135270D01*
X20801Y136051D01*
X20848Y136851D01*
X20801Y137651D01*
X20613Y138432D01*
X20306Y139173D01*
X19890Y139852D01*
Y143849D01*
X20306Y144528D01*
X20613Y145270D01*
X20801Y146051D01*
X20848Y146851D01*
X20801Y147651D01*
X20613Y148432D01*
X20306Y149173D01*
X19890Y149852D01*
Y153849D01*
X20306Y154528D01*
X20613Y155270D01*
X20801Y156051D01*
X20848Y156851D01*
X20801Y157651D01*
X20613Y158432D01*
X20306Y159173D01*
X19890Y159852D01*
Y163849D01*
X20306Y164528D01*
X20613Y165270D01*
X20801Y166051D01*
X20848Y166851D01*
X20801Y167651D01*
X20613Y168432D01*
X20306Y169173D01*
X19890Y169852D01*
Y173849D01*
X20306Y174528D01*
X20613Y175270D01*
X20801Y176051D01*
X20848Y176851D01*
X20801Y177651D01*
X20613Y178432D01*
X20306Y179173D01*
X19890Y179852D01*
Y183849D01*
X20306Y184528D01*
X20613Y185270D01*
X20801Y186051D01*
X20848Y186851D01*
X20801Y187651D01*
X20613Y188432D01*
X20306Y189173D01*
X19890Y189852D01*
Y193849D01*
X20306Y194528D01*
X20613Y195270D01*
X20801Y196051D01*
X20848Y196851D01*
X20801Y197651D01*
X20613Y198432D01*
X20306Y199173D01*
X19890Y199852D01*
Y203849D01*
X20306Y204528D01*
X20613Y205270D01*
X20801Y206051D01*
X20848Y206851D01*
X20801Y207651D01*
X20613Y208432D01*
X20306Y209173D01*
X19890Y209852D01*
Y213849D01*
X20306Y214528D01*
X20613Y215270D01*
X20801Y216051D01*
X20848Y216851D01*
X20801Y217651D01*
X20613Y218432D01*
X20306Y219173D01*
X19890Y219852D01*
Y223849D01*
X20306Y224528D01*
X20613Y225270D01*
X20801Y226051D01*
X20848Y226851D01*
X20801Y227651D01*
X20613Y228432D01*
X20306Y229173D01*
X19890Y229852D01*
Y233849D01*
X20306Y234528D01*
X20613Y235270D01*
X20801Y236051D01*
X20848Y236851D01*
X20801Y237651D01*
X20613Y238432D01*
X20306Y239173D01*
X19890Y239852D01*
Y243849D01*
X20306Y244528D01*
X20613Y245270D01*
X20801Y246051D01*
X20848Y246851D01*
X20801Y247651D01*
X20613Y248432D01*
X20306Y249173D01*
X19890Y249852D01*
Y253849D01*
X20306Y254528D01*
X20613Y255270D01*
X20801Y256051D01*
X20848Y256851D01*
X20801Y257651D01*
X20613Y258432D01*
X20306Y259173D01*
X19890Y259852D01*
Y263849D01*
X20306Y264528D01*
X20613Y265270D01*
X20801Y266051D01*
X20848Y266851D01*
X20801Y267651D01*
X20613Y268432D01*
X20306Y269173D01*
X19890Y269852D01*
Y273849D01*
X20306Y274528D01*
X20613Y275270D01*
X20801Y276051D01*
X20848Y276851D01*
X20801Y277651D01*
X20613Y278432D01*
X20306Y279173D01*
X19890Y279852D01*
Y283849D01*
X20306Y284528D01*
X20613Y285270D01*
X20801Y286051D01*
X20848Y286851D01*
X20801Y287651D01*
X20613Y288432D01*
X20306Y289173D01*
X19890Y289852D01*
Y293849D01*
X20306Y294528D01*
X20613Y295270D01*
X20801Y296051D01*
X20848Y296851D01*
X20801Y297651D01*
X20613Y298432D01*
X20306Y299173D01*
X19890Y299852D01*
Y303849D01*
X20306Y304528D01*
X20613Y305270D01*
X20801Y306051D01*
X20848Y306851D01*
X20801Y307651D01*
X20613Y308432D01*
X20306Y309173D01*
X19890Y309852D01*
Y313849D01*
X20306Y314528D01*
X20613Y315270D01*
X20801Y316051D01*
X20848Y316851D01*
X20801Y317651D01*
X20613Y318432D01*
X20306Y319173D01*
X19890Y319852D01*
Y323849D01*
X20306Y324528D01*
X20613Y325270D01*
X20801Y326051D01*
X20848Y326851D01*
X20801Y327651D01*
X20613Y328432D01*
X20306Y329173D01*
X19890Y329852D01*
Y333849D01*
X20306Y334528D01*
X20613Y335270D01*
X20801Y336051D01*
X20848Y336851D01*
X20801Y337651D01*
X20613Y338432D01*
X20306Y339173D01*
X19890Y339852D01*
Y341852D01*
X20031Y341910D01*
X20232Y342034D01*
X20412Y342187D01*
X20565Y342366D01*
X20689Y342568D01*
X20779Y342786D01*
X20834Y343015D01*
X20848Y343251D01*
X20834Y350686D01*
X20779Y350916D01*
X20689Y351134D01*
X20565Y351335D01*
X20412Y351515D01*
X20232Y351668D01*
X20031Y351791D01*
X19890Y351850D01*
Y383858D01*
G37*
G36*
Y339852D02*X19887Y339858D01*
X19365Y340468D01*
X18755Y340990D01*
X18071Y341409D01*
X17329Y341716D01*
X17146Y341760D01*
X19583Y341765D01*
X19813Y341820D01*
X19890Y341852D01*
Y339852D01*
G37*
G36*
Y329852D02*X19887Y329858D01*
X19365Y330468D01*
X18755Y330990D01*
X18071Y331409D01*
X17329Y331716D01*
X16768Y331851D01*
X17329Y331985D01*
X18071Y332293D01*
X18755Y332712D01*
X19365Y333233D01*
X19887Y333844D01*
X19890Y333849D01*
Y329852D01*
G37*
G36*
Y319852D02*X19887Y319858D01*
X19365Y320468D01*
X18755Y320990D01*
X18071Y321409D01*
X17329Y321716D01*
X16768Y321851D01*
X17329Y321985D01*
X18071Y322293D01*
X18755Y322712D01*
X19365Y323233D01*
X19887Y323844D01*
X19890Y323849D01*
Y319852D01*
G37*
G36*
Y309852D02*X19887Y309858D01*
X19365Y310468D01*
X18755Y310990D01*
X18071Y311409D01*
X17329Y311716D01*
X16768Y311851D01*
X17329Y311985D01*
X18071Y312293D01*
X18755Y312712D01*
X19365Y313233D01*
X19887Y313844D01*
X19890Y313849D01*
Y309852D01*
G37*
G36*
Y299852D02*X19887Y299858D01*
X19365Y300468D01*
X18755Y300990D01*
X18071Y301409D01*
X17329Y301716D01*
X16768Y301851D01*
X17329Y301985D01*
X18071Y302293D01*
X18755Y302712D01*
X19365Y303233D01*
X19887Y303844D01*
X19890Y303849D01*
Y299852D01*
G37*
G36*
Y289852D02*X19887Y289858D01*
X19365Y290468D01*
X18755Y290990D01*
X18071Y291409D01*
X17329Y291716D01*
X16768Y291851D01*
X17329Y291985D01*
X18071Y292293D01*
X18755Y292712D01*
X19365Y293233D01*
X19887Y293844D01*
X19890Y293849D01*
Y289852D01*
G37*
G36*
Y279852D02*X19887Y279858D01*
X19365Y280468D01*
X18755Y280990D01*
X18071Y281409D01*
X17329Y281716D01*
X16768Y281851D01*
X17329Y281985D01*
X18071Y282293D01*
X18755Y282712D01*
X19365Y283233D01*
X19887Y283844D01*
X19890Y283849D01*
Y279852D01*
G37*
G36*
Y269852D02*X19887Y269858D01*
X19365Y270468D01*
X18755Y270990D01*
X18071Y271409D01*
X17329Y271716D01*
X16768Y271851D01*
X17329Y271985D01*
X18071Y272293D01*
X18755Y272712D01*
X19365Y273233D01*
X19887Y273844D01*
X19890Y273849D01*
Y269852D01*
G37*
G36*
Y259852D02*X19887Y259858D01*
X19365Y260468D01*
X18755Y260990D01*
X18071Y261409D01*
X17329Y261716D01*
X16768Y261851D01*
X17329Y261985D01*
X18071Y262293D01*
X18755Y262712D01*
X19365Y263233D01*
X19887Y263844D01*
X19890Y263849D01*
Y259852D01*
G37*
G36*
Y249852D02*X19887Y249858D01*
X19365Y250468D01*
X18755Y250990D01*
X18071Y251409D01*
X17329Y251716D01*
X16768Y251851D01*
X17329Y251985D01*
X18071Y252293D01*
X18755Y252712D01*
X19365Y253233D01*
X19887Y253844D01*
X19890Y253849D01*
Y249852D01*
G37*
G36*
Y239852D02*X19887Y239858D01*
X19365Y240468D01*
X18755Y240990D01*
X18071Y241409D01*
X17329Y241716D01*
X16768Y241851D01*
X17329Y241985D01*
X18071Y242293D01*
X18755Y242712D01*
X19365Y243233D01*
X19887Y243844D01*
X19890Y243849D01*
Y239852D01*
G37*
G36*
Y229852D02*X19887Y229858D01*
X19365Y230468D01*
X18755Y230990D01*
X18071Y231409D01*
X17329Y231716D01*
X16768Y231851D01*
X17329Y231985D01*
X18071Y232293D01*
X18755Y232712D01*
X19365Y233233D01*
X19887Y233844D01*
X19890Y233849D01*
Y229852D01*
G37*
G36*
Y219852D02*X19887Y219858D01*
X19365Y220468D01*
X18755Y220990D01*
X18071Y221409D01*
X17329Y221716D01*
X16768Y221851D01*
X17329Y221985D01*
X18071Y222293D01*
X18755Y222712D01*
X19365Y223233D01*
X19887Y223844D01*
X19890Y223849D01*
Y219852D01*
G37*
G36*
Y209852D02*X19887Y209858D01*
X19365Y210468D01*
X18755Y210990D01*
X18071Y211409D01*
X17329Y211716D01*
X16768Y211851D01*
X17329Y211985D01*
X18071Y212293D01*
X18755Y212712D01*
X19365Y213233D01*
X19887Y213844D01*
X19890Y213849D01*
Y209852D01*
G37*
G36*
Y199852D02*X19887Y199858D01*
X19365Y200468D01*
X18755Y200990D01*
X18071Y201409D01*
X17329Y201716D01*
X16768Y201851D01*
X17329Y201985D01*
X18071Y202293D01*
X18755Y202712D01*
X19365Y203233D01*
X19887Y203844D01*
X19890Y203849D01*
Y199852D01*
G37*
G36*
Y189852D02*X19887Y189858D01*
X19365Y190468D01*
X18755Y190990D01*
X18071Y191409D01*
X17329Y191716D01*
X16768Y191851D01*
X17329Y191985D01*
X18071Y192293D01*
X18755Y192712D01*
X19365Y193233D01*
X19887Y193844D01*
X19890Y193849D01*
Y189852D01*
G37*
G36*
Y179852D02*X19887Y179858D01*
X19365Y180468D01*
X18755Y180990D01*
X18071Y181409D01*
X17329Y181716D01*
X16768Y181851D01*
X17329Y181985D01*
X18071Y182293D01*
X18755Y182712D01*
X19365Y183233D01*
X19887Y183844D01*
X19890Y183849D01*
Y179852D01*
G37*
G36*
Y169852D02*X19887Y169858D01*
X19365Y170468D01*
X18755Y170990D01*
X18071Y171409D01*
X17329Y171716D01*
X16768Y171851D01*
X17329Y171985D01*
X18071Y172293D01*
X18755Y172712D01*
X19365Y173233D01*
X19887Y173844D01*
X19890Y173849D01*
Y169852D01*
G37*
G36*
Y159852D02*X19887Y159858D01*
X19365Y160468D01*
X18755Y160990D01*
X18071Y161409D01*
X17329Y161716D01*
X16768Y161851D01*
X17329Y161985D01*
X18071Y162293D01*
X18755Y162712D01*
X19365Y163233D01*
X19887Y163844D01*
X19890Y163849D01*
Y159852D01*
G37*
G36*
Y149852D02*X19887Y149858D01*
X19365Y150468D01*
X18755Y150990D01*
X18071Y151409D01*
X17329Y151716D01*
X16768Y151851D01*
X17329Y151985D01*
X18071Y152293D01*
X18755Y152712D01*
X19365Y153233D01*
X19887Y153844D01*
X19890Y153849D01*
Y149852D01*
G37*
G36*
Y139852D02*X19887Y139858D01*
X19365Y140468D01*
X18755Y140990D01*
X18071Y141409D01*
X17329Y141716D01*
X16768Y141851D01*
X17329Y141985D01*
X18071Y142293D01*
X18755Y142712D01*
X19365Y143233D01*
X19887Y143844D01*
X19890Y143849D01*
Y139852D01*
G37*
G36*
Y129852D02*X19887Y129858D01*
X19365Y130468D01*
X18755Y130990D01*
X18071Y131409D01*
X17329Y131716D01*
X16768Y131851D01*
X17329Y131985D01*
X18071Y132293D01*
X18755Y132712D01*
X19365Y133233D01*
X19887Y133844D01*
X19890Y133849D01*
Y129852D01*
G37*
G36*
Y119852D02*X19887Y119858D01*
X19365Y120468D01*
X18755Y120990D01*
X18071Y121409D01*
X17329Y121716D01*
X16768Y121851D01*
X17329Y121985D01*
X18071Y122293D01*
X18755Y122712D01*
X19365Y123233D01*
X19887Y123844D01*
X19890Y123849D01*
Y119852D01*
G37*
G36*
Y109852D02*X19887Y109858D01*
X19365Y110468D01*
X18755Y110990D01*
X18071Y111409D01*
X17329Y111716D01*
X16768Y111851D01*
X17329Y111985D01*
X18071Y112293D01*
X18755Y112712D01*
X19365Y113233D01*
X19887Y113844D01*
X19890Y113849D01*
Y109852D01*
G37*
G36*
Y99852D02*X19887Y99858D01*
X19365Y100468D01*
X18755Y100990D01*
X18071Y101409D01*
X17329Y101716D01*
X16768Y101851D01*
X17329Y101985D01*
X18071Y102293D01*
X18755Y102712D01*
X19365Y103233D01*
X19887Y103844D01*
X19890Y103849D01*
Y99852D01*
G37*
G36*
Y89852D02*X19887Y89858D01*
X19365Y90468D01*
X18755Y90990D01*
X18071Y91409D01*
X17329Y91716D01*
X16768Y91851D01*
X17329Y91985D01*
X18071Y92293D01*
X18755Y92712D01*
X19365Y93233D01*
X19887Y93844D01*
X19890Y93849D01*
Y89852D01*
G37*
G36*
Y79852D02*X19887Y79858D01*
X19365Y80468D01*
X18755Y80990D01*
X18071Y81409D01*
X17329Y81716D01*
X16768Y81851D01*
X17329Y81985D01*
X18071Y82293D01*
X18755Y82712D01*
X19365Y83233D01*
X19887Y83844D01*
X19890Y83849D01*
Y79852D01*
G37*
G36*
Y69852D02*X19887Y69858D01*
X19365Y70468D01*
X18755Y70990D01*
X18071Y71409D01*
X17329Y71716D01*
X16768Y71851D01*
X17329Y71985D01*
X18071Y72293D01*
X18755Y72712D01*
X19365Y73233D01*
X19887Y73844D01*
X19890Y73849D01*
Y69852D01*
G37*
G36*
Y49852D02*X19887Y49858D01*
X19365Y50468D01*
X18755Y50990D01*
X18071Y51409D01*
X17329Y51716D01*
X16763Y51852D01*
X17082Y51923D01*
X17510Y52060D01*
X17925Y52233D01*
X18028Y52291D01*
X18121Y52366D01*
X18201Y52453D01*
X18266Y52553D01*
X18314Y52661D01*
X18346Y52775D01*
X18359Y52893D01*
X18353Y53011D01*
X18329Y53128D01*
X18287Y53238D01*
X18228Y53341D01*
X18154Y53434D01*
X18066Y53514D01*
X17967Y53579D01*
X17859Y53628D01*
X17744Y53659D01*
X17626Y53672D01*
X17508Y53666D01*
X17392Y53642D01*
X17282Y53598D01*
X16991Y53472D01*
X16689Y53376D01*
X16379Y53307D01*
X16065Y53265D01*
X15748Y53251D01*
X15740Y53251D01*
Y60450D01*
X15748Y60451D01*
X16065Y60437D01*
X16379Y60395D01*
X16689Y60326D01*
X16991Y60229D01*
X17283Y60107D01*
X17393Y60063D01*
X17508Y60039D01*
X17626Y60033D01*
X17744Y60046D01*
X17857Y60077D01*
X17965Y60126D01*
X18064Y60191D01*
X18151Y60270D01*
X18225Y60362D01*
X18284Y60465D01*
X18325Y60575D01*
X18349Y60691D01*
X18355Y60808D01*
X18342Y60926D01*
X18311Y61040D01*
X18263Y61147D01*
X18198Y61246D01*
X18119Y61333D01*
X18026Y61407D01*
X17923Y61464D01*
X17510Y61642D01*
X17082Y61778D01*
X16763Y61850D01*
X17329Y61985D01*
X18071Y62293D01*
X18755Y62712D01*
X19365Y63233D01*
X19887Y63844D01*
X19890Y63849D01*
Y59430D01*
X19824Y59448D01*
X19706Y59461D01*
X19587Y59456D01*
X19471Y59432D01*
X19360Y59390D01*
X19257Y59331D01*
X19165Y59256D01*
X19085Y59169D01*
X19020Y59069D01*
X18971Y58961D01*
X18940Y58847D01*
X18927Y58729D01*
X18933Y58611D01*
X18957Y58494D01*
X19001Y58385D01*
X19127Y58094D01*
X19223Y57791D01*
X19292Y57482D01*
X19334Y57168D01*
X19348Y56851D01*
X19334Y56534D01*
X19292Y56220D01*
X19223Y55910D01*
X19127Y55608D01*
X19004Y55316D01*
X18960Y55206D01*
X18936Y55091D01*
X18931Y54973D01*
X18944Y54855D01*
X18975Y54741D01*
X19023Y54634D01*
X19088Y54535D01*
X19167Y54448D01*
X19259Y54374D01*
X19362Y54315D01*
X19472Y54273D01*
X19588Y54249D01*
X19706Y54244D01*
X19823Y54257D01*
X19890Y54275D01*
Y49852D01*
G37*
G36*
Y9843D02*X15740D01*
Y41736D01*
X15748Y41735D01*
X16548Y41798D01*
X17329Y41985D01*
X18071Y42293D01*
X18755Y42712D01*
X19365Y43233D01*
X19887Y43844D01*
X19890Y43849D01*
Y9843D01*
G37*
G36*
X15740Y383858D02*X19890D01*
Y351850D01*
X19813Y351882D01*
X19583Y351937D01*
X19348Y351951D01*
X15740Y351944D01*
Y383858D01*
G37*
G36*
X11606Y43849D02*X11609Y43844D01*
X12131Y43233D01*
X12741Y42712D01*
X13426Y42293D01*
X14167Y41985D01*
X14948Y41798D01*
X15740Y41736D01*
Y9843D01*
X11606D01*
Y43849D01*
G37*
G36*
Y63849D02*X11609Y63844D01*
X12131Y63233D01*
X12741Y62712D01*
X13426Y62293D01*
X14167Y61985D01*
X14733Y61850D01*
X14414Y61778D01*
X13986Y61642D01*
X13571Y61468D01*
X13468Y61410D01*
X13375Y61336D01*
X13295Y61248D01*
X13230Y61149D01*
X13182Y61041D01*
X13150Y60926D01*
X13137Y60809D01*
X13143Y60690D01*
X13167Y60574D01*
X13209Y60463D01*
X13268Y60360D01*
X13342Y60268D01*
X13430Y60188D01*
X13529Y60123D01*
X13637Y60074D01*
X13752Y60043D01*
X13870Y60030D01*
X13988Y60036D01*
X14104Y60060D01*
X14214Y60104D01*
X14505Y60229D01*
X14807Y60326D01*
X15117Y60395D01*
X15431Y60437D01*
X15740Y60450D01*
Y53251D01*
X15431Y53265D01*
X15117Y53307D01*
X14807Y53376D01*
X14505Y53472D01*
X14213Y53595D01*
X14103Y53638D01*
X13988Y53662D01*
X13870Y53668D01*
X13753Y53655D01*
X13639Y53624D01*
X13531Y53576D01*
X13432Y53511D01*
X13345Y53432D01*
X13271Y53340D01*
X13212Y53237D01*
X13171Y53127D01*
X13147Y53011D01*
X13141Y52893D01*
X13154Y52776D01*
X13185Y52662D01*
X13233Y52554D01*
X13298Y52456D01*
X13378Y52368D01*
X13470Y52294D01*
X13573Y52238D01*
X13986Y52060D01*
X14414Y51923D01*
X14733Y51852D01*
X14167Y51716D01*
X13426Y51409D01*
X12741Y50990D01*
X12131Y50468D01*
X11609Y49858D01*
X11606Y49852D01*
Y54271D01*
X11672Y54253D01*
X11790Y54240D01*
X11909Y54246D01*
X12025Y54270D01*
X12136Y54312D01*
X12239Y54371D01*
X12331Y54445D01*
X12411Y54533D01*
X12476Y54632D01*
X12525Y54740D01*
X12556Y54855D01*
X12569Y54973D01*
X12563Y55091D01*
X12539Y55207D01*
X12495Y55317D01*
X12369Y55608D01*
X12273Y55910D01*
X12204Y56220D01*
X12162Y56534D01*
X12148Y56851D01*
X12162Y57168D01*
X12204Y57482D01*
X12273Y57791D01*
X12369Y58094D01*
X12492Y58386D01*
X12536Y58495D01*
X12560Y58611D01*
X12565Y58729D01*
X12553Y58846D01*
X12521Y58960D01*
X12473Y59068D01*
X12408Y59167D01*
X12329Y59254D01*
X12237Y59328D01*
X12134Y59386D01*
X12024Y59428D01*
X11908Y59452D01*
X11790Y59458D01*
X11673Y59445D01*
X11606Y59427D01*
Y63849D01*
G37*
G36*
Y73849D02*X11609Y73844D01*
X12131Y73233D01*
X12741Y72712D01*
X13426Y72293D01*
X14167Y71985D01*
X14728Y71851D01*
X14167Y71716D01*
X13426Y71409D01*
X12741Y70990D01*
X12131Y70468D01*
X11609Y69858D01*
X11606Y69852D01*
Y73849D01*
G37*
G36*
Y83849D02*X11609Y83844D01*
X12131Y83233D01*
X12741Y82712D01*
X13426Y82293D01*
X14167Y81985D01*
X14728Y81851D01*
X14167Y81716D01*
X13426Y81409D01*
X12741Y80990D01*
X12131Y80468D01*
X11609Y79858D01*
X11606Y79852D01*
Y83849D01*
G37*
G36*
Y93849D02*X11609Y93844D01*
X12131Y93233D01*
X12741Y92712D01*
X13426Y92293D01*
X14167Y91985D01*
X14728Y91851D01*
X14167Y91716D01*
X13426Y91409D01*
X12741Y90990D01*
X12131Y90468D01*
X11609Y89858D01*
X11606Y89852D01*
Y93849D01*
G37*
G36*
Y103849D02*X11609Y103844D01*
X12131Y103233D01*
X12741Y102712D01*
X13426Y102293D01*
X14167Y101985D01*
X14728Y101851D01*
X14167Y101716D01*
X13426Y101409D01*
X12741Y100990D01*
X12131Y100468D01*
X11609Y99858D01*
X11606Y99852D01*
Y103849D01*
G37*
G36*
Y113849D02*X11609Y113844D01*
X12131Y113233D01*
X12741Y112712D01*
X13426Y112293D01*
X14167Y111985D01*
X14728Y111851D01*
X14167Y111716D01*
X13426Y111409D01*
X12741Y110990D01*
X12131Y110468D01*
X11609Y109858D01*
X11606Y109852D01*
Y113849D01*
G37*
G36*
Y123849D02*X11609Y123844D01*
X12131Y123233D01*
X12741Y122712D01*
X13426Y122293D01*
X14167Y121985D01*
X14728Y121851D01*
X14167Y121716D01*
X13426Y121409D01*
X12741Y120990D01*
X12131Y120468D01*
X11609Y119858D01*
X11606Y119852D01*
Y123849D01*
G37*
G36*
Y133849D02*X11609Y133844D01*
X12131Y133233D01*
X12741Y132712D01*
X13426Y132293D01*
X14167Y131985D01*
X14728Y131851D01*
X14167Y131716D01*
X13426Y131409D01*
X12741Y130990D01*
X12131Y130468D01*
X11609Y129858D01*
X11606Y129852D01*
Y133849D01*
G37*
G36*
Y143849D02*X11609Y143844D01*
X12131Y143233D01*
X12741Y142712D01*
X13426Y142293D01*
X14167Y141985D01*
X14728Y141851D01*
X14167Y141716D01*
X13426Y141409D01*
X12741Y140990D01*
X12131Y140468D01*
X11609Y139858D01*
X11606Y139852D01*
Y143849D01*
G37*
G36*
Y153849D02*X11609Y153844D01*
X12131Y153233D01*
X12741Y152712D01*
X13426Y152293D01*
X14167Y151985D01*
X14728Y151851D01*
X14167Y151716D01*
X13426Y151409D01*
X12741Y150990D01*
X12131Y150468D01*
X11609Y149858D01*
X11606Y149852D01*
Y153849D01*
G37*
G36*
Y163849D02*X11609Y163844D01*
X12131Y163233D01*
X12741Y162712D01*
X13426Y162293D01*
X14167Y161985D01*
X14728Y161851D01*
X14167Y161716D01*
X13426Y161409D01*
X12741Y160990D01*
X12131Y160468D01*
X11609Y159858D01*
X11606Y159852D01*
Y163849D01*
G37*
G36*
Y173849D02*X11609Y173844D01*
X12131Y173233D01*
X12741Y172712D01*
X13426Y172293D01*
X14167Y171985D01*
X14728Y171851D01*
X14167Y171716D01*
X13426Y171409D01*
X12741Y170990D01*
X12131Y170468D01*
X11609Y169858D01*
X11606Y169852D01*
Y173849D01*
G37*
G36*
Y183849D02*X11609Y183844D01*
X12131Y183233D01*
X12741Y182712D01*
X13426Y182293D01*
X14167Y181985D01*
X14728Y181851D01*
X14167Y181716D01*
X13426Y181409D01*
X12741Y180990D01*
X12131Y180468D01*
X11609Y179858D01*
X11606Y179852D01*
Y183849D01*
G37*
G36*
Y193849D02*X11609Y193844D01*
X12131Y193233D01*
X12741Y192712D01*
X13426Y192293D01*
X14167Y191985D01*
X14728Y191851D01*
X14167Y191716D01*
X13426Y191409D01*
X12741Y190990D01*
X12131Y190468D01*
X11609Y189858D01*
X11606Y189852D01*
Y193849D01*
G37*
G36*
Y203849D02*X11609Y203844D01*
X12131Y203233D01*
X12741Y202712D01*
X13426Y202293D01*
X14167Y201985D01*
X14728Y201851D01*
X14167Y201716D01*
X13426Y201409D01*
X12741Y200990D01*
X12131Y200468D01*
X11609Y199858D01*
X11606Y199852D01*
Y203849D01*
G37*
G36*
Y213849D02*X11609Y213844D01*
X12131Y213233D01*
X12741Y212712D01*
X13426Y212293D01*
X14167Y211985D01*
X14728Y211851D01*
X14167Y211716D01*
X13426Y211409D01*
X12741Y210990D01*
X12131Y210468D01*
X11609Y209858D01*
X11606Y209852D01*
Y213849D01*
G37*
G36*
Y223849D02*X11609Y223844D01*
X12131Y223233D01*
X12741Y222712D01*
X13426Y222293D01*
X14167Y221985D01*
X14728Y221851D01*
X14167Y221716D01*
X13426Y221409D01*
X12741Y220990D01*
X12131Y220468D01*
X11609Y219858D01*
X11606Y219852D01*
Y223849D01*
G37*
G36*
Y233849D02*X11609Y233844D01*
X12131Y233233D01*
X12741Y232712D01*
X13426Y232293D01*
X14167Y231985D01*
X14728Y231851D01*
X14167Y231716D01*
X13426Y231409D01*
X12741Y230990D01*
X12131Y230468D01*
X11609Y229858D01*
X11606Y229852D01*
Y233849D01*
G37*
G36*
Y243849D02*X11609Y243844D01*
X12131Y243233D01*
X12741Y242712D01*
X13426Y242293D01*
X14167Y241985D01*
X14728Y241851D01*
X14167Y241716D01*
X13426Y241409D01*
X12741Y240990D01*
X12131Y240468D01*
X11609Y239858D01*
X11606Y239852D01*
Y243849D01*
G37*
G36*
Y253849D02*X11609Y253844D01*
X12131Y253233D01*
X12741Y252712D01*
X13426Y252293D01*
X14167Y251985D01*
X14728Y251851D01*
X14167Y251716D01*
X13426Y251409D01*
X12741Y250990D01*
X12131Y250468D01*
X11609Y249858D01*
X11606Y249852D01*
Y253849D01*
G37*
G36*
Y263849D02*X11609Y263844D01*
X12131Y263233D01*
X12741Y262712D01*
X13426Y262293D01*
X14167Y261985D01*
X14728Y261851D01*
X14167Y261716D01*
X13426Y261409D01*
X12741Y260990D01*
X12131Y260468D01*
X11609Y259858D01*
X11606Y259852D01*
Y263849D01*
G37*
G36*
Y273849D02*X11609Y273844D01*
X12131Y273233D01*
X12741Y272712D01*
X13426Y272293D01*
X14167Y271985D01*
X14728Y271851D01*
X14167Y271716D01*
X13426Y271409D01*
X12741Y270990D01*
X12131Y270468D01*
X11609Y269858D01*
X11606Y269852D01*
Y273849D01*
G37*
G36*
Y283849D02*X11609Y283844D01*
X12131Y283233D01*
X12741Y282712D01*
X13426Y282293D01*
X14167Y281985D01*
X14728Y281851D01*
X14167Y281716D01*
X13426Y281409D01*
X12741Y280990D01*
X12131Y280468D01*
X11609Y279858D01*
X11606Y279852D01*
Y283849D01*
G37*
G36*
Y293849D02*X11609Y293844D01*
X12131Y293233D01*
X12741Y292712D01*
X13426Y292293D01*
X14167Y291985D01*
X14728Y291851D01*
X14167Y291716D01*
X13426Y291409D01*
X12741Y290990D01*
X12131Y290468D01*
X11609Y289858D01*
X11606Y289852D01*
Y293849D01*
G37*
G36*
Y303849D02*X11609Y303844D01*
X12131Y303233D01*
X12741Y302712D01*
X13426Y302293D01*
X14167Y301985D01*
X14728Y301851D01*
X14167Y301716D01*
X13426Y301409D01*
X12741Y300990D01*
X12131Y300468D01*
X11609Y299858D01*
X11606Y299852D01*
Y303849D01*
G37*
G36*
Y313849D02*X11609Y313844D01*
X12131Y313233D01*
X12741Y312712D01*
X13426Y312293D01*
X14167Y311985D01*
X14728Y311851D01*
X14167Y311716D01*
X13426Y311409D01*
X12741Y310990D01*
X12131Y310468D01*
X11609Y309858D01*
X11606Y309852D01*
Y313849D01*
G37*
G36*
Y323849D02*X11609Y323844D01*
X12131Y323233D01*
X12741Y322712D01*
X13426Y322293D01*
X14167Y321985D01*
X14728Y321851D01*
X14167Y321716D01*
X13426Y321409D01*
X12741Y320990D01*
X12131Y320468D01*
X11609Y319858D01*
X11606Y319852D01*
Y323849D01*
G37*
G36*
Y333849D02*X11609Y333844D01*
X12131Y333233D01*
X12741Y332712D01*
X13426Y332293D01*
X14167Y331985D01*
X14728Y331851D01*
X14167Y331716D01*
X13426Y331409D01*
X12741Y330990D01*
X12131Y330468D01*
X11609Y329858D01*
X11606Y329852D01*
Y333849D01*
G37*
G36*
Y341852D02*X11683Y341820D01*
X11913Y341765D01*
X12148Y341751D01*
X14328Y341755D01*
X14167Y341716D01*
X13426Y341409D01*
X12741Y340990D01*
X12131Y340468D01*
X11609Y339858D01*
X11606Y339852D01*
Y341852D01*
G37*
G36*
Y383858D02*X15740D01*
Y351944D01*
X11913Y351937D01*
X11683Y351882D01*
X11606Y351850D01*
Y383858D01*
G37*
G36*
X9837D02*X11606D01*
Y351850D01*
X11465Y351791D01*
X11264Y351668D01*
X11084Y351515D01*
X10931Y351335D01*
X10807Y351134D01*
X10717Y350916D01*
X10662Y350686D01*
X10648Y350451D01*
X10662Y343015D01*
X10717Y342786D01*
X10807Y342568D01*
X10931Y342366D01*
X11084Y342187D01*
X11264Y342034D01*
X11465Y341910D01*
X11606Y341852D01*
Y339852D01*
X11190Y339173D01*
X10883Y338432D01*
X10695Y337651D01*
X10632Y336851D01*
X10695Y336051D01*
X10883Y335270D01*
X11190Y334528D01*
X11606Y333849D01*
Y329852D01*
X11190Y329173D01*
X10883Y328432D01*
X10695Y327651D01*
X10632Y326851D01*
X10695Y326051D01*
X10883Y325270D01*
X11190Y324528D01*
X11606Y323849D01*
Y319852D01*
X11190Y319173D01*
X10883Y318432D01*
X10695Y317651D01*
X10632Y316851D01*
X10695Y316051D01*
X10883Y315270D01*
X11190Y314528D01*
X11606Y313849D01*
Y309852D01*
X11190Y309173D01*
X10883Y308432D01*
X10695Y307651D01*
X10632Y306851D01*
X10695Y306051D01*
X10883Y305270D01*
X11190Y304528D01*
X11606Y303849D01*
Y299852D01*
X11190Y299173D01*
X10883Y298432D01*
X10695Y297651D01*
X10632Y296851D01*
X10695Y296051D01*
X10883Y295270D01*
X11190Y294528D01*
X11606Y293849D01*
Y289852D01*
X11190Y289173D01*
X10883Y288432D01*
X10695Y287651D01*
X10632Y286851D01*
X10695Y286051D01*
X10883Y285270D01*
X11190Y284528D01*
X11606Y283849D01*
Y279852D01*
X11190Y279173D01*
X10883Y278432D01*
X10695Y277651D01*
X10632Y276851D01*
X10695Y276051D01*
X10883Y275270D01*
X11190Y274528D01*
X11606Y273849D01*
Y269852D01*
X11190Y269173D01*
X10883Y268432D01*
X10695Y267651D01*
X10632Y266851D01*
X10695Y266051D01*
X10883Y265270D01*
X11190Y264528D01*
X11606Y263849D01*
Y259852D01*
X11190Y259173D01*
X10883Y258432D01*
X10695Y257651D01*
X10632Y256851D01*
X10695Y256051D01*
X10883Y255270D01*
X11190Y254528D01*
X11606Y253849D01*
Y249852D01*
X11190Y249173D01*
X10883Y248432D01*
X10695Y247651D01*
X10632Y246851D01*
X10695Y246051D01*
X10883Y245270D01*
X11190Y244528D01*
X11606Y243849D01*
Y239852D01*
X11190Y239173D01*
X10883Y238432D01*
X10695Y237651D01*
X10632Y236851D01*
X10695Y236051D01*
X10883Y235270D01*
X11190Y234528D01*
X11606Y233849D01*
Y229852D01*
X11190Y229173D01*
X10883Y228432D01*
X10695Y227651D01*
X10632Y226851D01*
X10695Y226051D01*
X10883Y225270D01*
X11190Y224528D01*
X11606Y223849D01*
Y219852D01*
X11190Y219173D01*
X10883Y218432D01*
X10695Y217651D01*
X10632Y216851D01*
X10695Y216051D01*
X10883Y215270D01*
X11190Y214528D01*
X11606Y213849D01*
Y209852D01*
X11190Y209173D01*
X10883Y208432D01*
X10695Y207651D01*
X10632Y206851D01*
X10695Y206051D01*
X10883Y205270D01*
X11190Y204528D01*
X11606Y203849D01*
Y199852D01*
X11190Y199173D01*
X10883Y198432D01*
X10695Y197651D01*
X10632Y196851D01*
X10695Y196051D01*
X10883Y195270D01*
X11190Y194528D01*
X11606Y193849D01*
Y189852D01*
X11190Y189173D01*
X10883Y188432D01*
X10695Y187651D01*
X10632Y186851D01*
X10695Y186051D01*
X10883Y185270D01*
X11190Y184528D01*
X11606Y183849D01*
Y179852D01*
X11190Y179173D01*
X10883Y178432D01*
X10695Y177651D01*
X10632Y176851D01*
X10695Y176051D01*
X10883Y175270D01*
X11190Y174528D01*
X11606Y173849D01*
Y169852D01*
X11190Y169173D01*
X10883Y168432D01*
X10695Y167651D01*
X10632Y166851D01*
X10695Y166051D01*
X10883Y165270D01*
X11190Y164528D01*
X11606Y163849D01*
Y159852D01*
X11190Y159173D01*
X10883Y158432D01*
X10695Y157651D01*
X10632Y156851D01*
X10695Y156051D01*
X10883Y155270D01*
X11190Y154528D01*
X11606Y153849D01*
Y149852D01*
X11190Y149173D01*
X10883Y148432D01*
X10695Y147651D01*
X10632Y146851D01*
X10695Y146051D01*
X10883Y145270D01*
X11190Y144528D01*
X11606Y143849D01*
Y139852D01*
X11190Y139173D01*
X10883Y138432D01*
X10695Y137651D01*
X10632Y136851D01*
X10695Y136051D01*
X10883Y135270D01*
X11190Y134528D01*
X11606Y133849D01*
Y129852D01*
X11190Y129173D01*
X10883Y128432D01*
X10695Y127651D01*
X10632Y126851D01*
X10695Y126051D01*
X10883Y125270D01*
X11190Y124528D01*
X11606Y123849D01*
Y119852D01*
X11190Y119173D01*
X10883Y118432D01*
X10695Y117651D01*
X10632Y116851D01*
X10695Y116051D01*
X10883Y115270D01*
X11190Y114528D01*
X11606Y113849D01*
Y109852D01*
X11190Y109173D01*
X10883Y108432D01*
X10695Y107651D01*
X10632Y106851D01*
X10695Y106051D01*
X10883Y105270D01*
X11190Y104528D01*
X11606Y103849D01*
Y99852D01*
X11190Y99173D01*
X10883Y98432D01*
X10695Y97651D01*
X10632Y96851D01*
X10695Y96051D01*
X10883Y95270D01*
X11190Y94528D01*
X11606Y93849D01*
Y89852D01*
X11190Y89173D01*
X10883Y88432D01*
X10695Y87651D01*
X10632Y86851D01*
X10695Y86051D01*
X10883Y85270D01*
X11190Y84528D01*
X11606Y83849D01*
Y79852D01*
X11190Y79173D01*
X10883Y78432D01*
X10695Y77651D01*
X10632Y76851D01*
X10695Y76051D01*
X10883Y75270D01*
X11190Y74528D01*
X11606Y73849D01*
Y69852D01*
X11190Y69173D01*
X10883Y68432D01*
X10695Y67651D01*
X10632Y66851D01*
X10695Y66051D01*
X10883Y65270D01*
X11190Y64528D01*
X11606Y63849D01*
Y59427D01*
X11559Y59414D01*
X11451Y59365D01*
X11353Y59301D01*
X11265Y59221D01*
X11192Y59129D01*
X11135Y59026D01*
X10957Y58613D01*
X10820Y58185D01*
X10722Y57746D01*
X10663Y57300D01*
X10643Y56851D01*
X10663Y56402D01*
X10722Y55956D01*
X10820Y55517D01*
X10957Y55089D01*
X11131Y54674D01*
X11189Y54570D01*
X11263Y54478D01*
X11351Y54398D01*
X11450Y54333D01*
X11558Y54284D01*
X11606Y54271D01*
Y49852D01*
X11190Y49173D01*
X10883Y48432D01*
X10695Y47651D01*
X10632Y46851D01*
X10695Y46051D01*
X10883Y45270D01*
X11190Y44528D01*
X11606Y43849D01*
Y9843D01*
X9837D01*
Y383858D01*
G37*
G54D12*X98425Y135827D02*Y318898D01*
X104331Y242126D02*X108268Y246063D01*
X125984D01*
Y157481D02*X120079Y151575D01*
Y127953D01*
X98425Y318898D02*X104331Y324804D01*
X126378D01*
X128740Y327166D01*
Y334646D01*
X125984Y246063D02*X128937Y249016D01*
Y254922D01*
X138780Y295276D02*Y281496D01*
X148622Y271654D01*
X120079Y92520D02*Y110237D01*
X124016Y114174D01*
X145669D01*
X149606Y118111D01*
X110236Y98426D02*Y109252D01*
X90551Y90552D02*X92520Y88583D01*
X116142D01*
X120079Y92520D01*
X149606Y118111D02*Y153544D01*
X153543Y157481D01*
X169291D01*
X90551Y127953D02*X98425Y135827D01*
X90551Y108268D02*X104331Y122048D01*
X110236Y118111D02*X120079Y127953D01*
X110236Y109252D02*X124016Y123032D01*
X104331Y122048D02*Y242126D01*
X148622Y271654D02*Y163386D01*
X142717Y157481D01*
X125984D01*
X124016Y123032D02*X143701D01*
X159449Y183071D02*Y203741D01*
G54D13*X157480Y334961D03*
G54D11*G36*
X135108Y338396D02*Y330896D01*
X142608D01*
Y338396D01*
X135108D01*
G37*
G54D14*X128858Y334646D03*
G54D11*G36*
X135108Y299026D02*Y291526D01*
X142608D01*
Y299026D01*
X135108D01*
G37*
G54D14*X128858Y295276D03*
G54D13*X169291Y294961D03*
Y334961D03*
X157480Y294961D03*
Y256221D03*
Y216221D03*
G54D15*X139764Y375985D03*
G54D11*G36*
X135108Y259656D02*Y252156D01*
X142608D01*
Y259656D01*
X135108D01*
G37*
G54D14*X128858Y255906D03*
G54D15*X41339Y375985D03*
G54D11*G36*
X12148Y350451D02*Y343251D01*
X19348D01*
Y350451D01*
X12148D01*
G37*
G54D16*X15748Y336851D03*
Y326851D03*
Y316851D03*
Y306851D03*
Y296851D03*
Y286851D03*
Y276851D03*
Y266851D03*
Y256851D03*
Y246851D03*
Y236851D03*
Y226851D03*
Y216851D03*
G54D13*X169291Y157166D03*
Y138111D03*
X157480D03*
X169291Y197166D03*
Y216536D03*
Y256536D03*
G54D11*G36*
X135258Y180766D02*Y173566D01*
X142458D01*
Y180766D01*
X135258D01*
G37*
G54D16*X128858Y177166D03*
G54D11*G36*
X135108Y220286D02*Y212786D01*
X142608D01*
Y220286D01*
X135108D01*
G37*
G54D14*X128858Y216536D03*
G54D13*X169291Y98111D03*
X157480D03*
G54D11*G36*
X135108Y102176D02*Y94676D01*
X142608D01*
Y102176D01*
X135108D01*
G37*
G54D14*X128858Y98426D03*
G54D11*G36*
X135108Y141546D02*Y134046D01*
X142608D01*
Y141546D01*
X135108D01*
G37*
G54D14*X149606Y51181D03*
X128858Y137796D03*
G54D11*G36*
X87301Y347738D02*Y341238D01*
X93801D01*
Y347738D01*
X87301D01*
G37*
G54D15*X110235Y334646D03*
X90551Y324803D03*
Y305118D03*
Y285433D03*
X110235Y314961D03*
Y295276D03*
Y275591D03*
Y255906D03*
Y236221D03*
Y216536D03*
X90551Y265748D03*
Y246063D03*
Y226378D03*
X110235Y196851D03*
Y177166D03*
Y157481D03*
Y137796D03*
X90551Y206693D03*
Y187008D03*
Y167323D03*
Y147638D03*
Y127953D03*
Y108268D03*
Y88583D03*
Y68898D03*
X110235Y118111D03*
Y98426D03*
Y78741D03*
Y59056D03*
X41339Y17717D03*
X139764D03*
X90551Y49213D03*
G54D16*X15748Y206851D03*
Y196851D03*
Y186851D03*
Y176851D03*
Y166851D03*
Y156851D03*
Y146851D03*
Y136851D03*
Y126851D03*
Y116851D03*
Y106851D03*
Y96851D03*
Y86851D03*
Y76851D03*
Y66851D03*
Y56851D03*
Y46851D03*
G54D13*X143701Y123032D03*
X159449Y183071D03*
Y203741D03*
G54D17*G54D18*G54D19*G54D18*G54D19*G54D18*G54D20*G54D18*G54D20*G54D19*G54D18*G54D19*G54D18*G54D21*G54D18*G54D21*G54D20*M02*
