G04 start of page 3 for group 1 idx 1 *
G04 Title: 01.002.01.01.01.pcb, bottom *
G04 Creator: pcb 4.2.0 *
G04 CreationDate: Mon Sep  9 19:46:15 2019 UTC *
G04 For: bert *
G04 Format: Gerber/RS-274X *
G04 PCB-Dimensions (mil): 2559.06 4330.71 *
G04 PCB-Coordinate-Origin: lower left *
%MOIN*%
%FSLAX25Y25*%
%LNGBL*%
%ADD32C,0.0420*%
%ADD31C,0.1260*%
%ADD30C,0.0460*%
%ADD29C,0.0400*%
%ADD28C,0.0350*%
%ADD27C,0.0720*%
%ADD26C,0.0650*%
%ADD25C,0.0750*%
%ADD24C,0.0600*%
%ADD23C,0.0250*%
%ADD22C,0.0001*%
G54D22*G36*
X163542Y331308D02*X165073Y329777D01*
Y327802D01*
X164964Y327735D01*
X164485Y327326D01*
X164076Y326847D01*
X163747Y326311D01*
X163542Y325814D01*
Y331308D01*
G37*
G36*
Y252672D02*X164422D01*
X165073Y252021D01*
Y249062D01*
X164964Y248995D01*
X164485Y248586D01*
X164076Y248107D01*
X163747Y247570D01*
X163542Y247074D01*
Y252672D01*
G37*
G36*
Y166314D02*X163747Y165817D01*
X164076Y165280D01*
X164485Y164801D01*
X164964Y164393D01*
X165073Y164326D01*
Y160381D01*
X164422Y159731D01*
X163542D01*
Y166314D01*
G37*
G36*
X169285Y184817D02*X170978Y183124D01*
Y178510D01*
X170870Y178443D01*
X170391Y178034D01*
X169982Y177556D01*
X169653Y177019D01*
X169412Y176437D01*
X169285Y175906D01*
Y184817D01*
G37*
G36*
X182417Y413386D02*X185039D01*
Y39370D01*
X182417D01*
Y125342D01*
X182708Y125817D01*
X182949Y126399D01*
X183096Y127011D01*
X183133Y127639D01*
X183096Y128266D01*
X182949Y128878D01*
X182708Y129460D01*
X182417Y129935D01*
Y165507D01*
X182420Y165508D01*
X182489Y165548D01*
X182550Y165597D01*
X182603Y165655D01*
X182644Y165722D01*
X182808Y166047D01*
X182937Y166387D01*
X183035Y166737D01*
X183100Y167095D01*
X183133Y167457D01*
Y167820D01*
X183100Y168183D01*
X183035Y168540D01*
X182937Y168890D01*
X182808Y169230D01*
X182648Y169557D01*
X182605Y169624D01*
X182552Y169682D01*
X182490Y169732D01*
X182422Y169772D01*
X182417Y169773D01*
Y184397D01*
X182708Y184872D01*
X182949Y185454D01*
X183096Y186066D01*
X183133Y186694D01*
X183096Y187321D01*
X182949Y187934D01*
X182708Y188515D01*
X182417Y188990D01*
Y224397D01*
X182708Y224872D01*
X182949Y225454D01*
X183096Y226066D01*
X183133Y226694D01*
X183096Y227321D01*
X182949Y227934D01*
X182708Y228515D01*
X182417Y228990D01*
Y243932D01*
X182420Y243934D01*
X182489Y243973D01*
X182550Y244022D01*
X182603Y244081D01*
X182644Y244147D01*
X182808Y244472D01*
X182937Y244812D01*
X183035Y245162D01*
X183100Y245520D01*
X183133Y245882D01*
Y246246D01*
X183100Y246608D01*
X183035Y246965D01*
X182937Y247316D01*
X182808Y247656D01*
X182648Y247982D01*
X182605Y248049D01*
X182552Y248108D01*
X182490Y248157D01*
X182422Y248197D01*
X182417Y248198D01*
Y283767D01*
X182708Y284242D01*
X182949Y284824D01*
X183096Y285436D01*
X183133Y286064D01*
X183096Y286691D01*
X182949Y287304D01*
X182708Y287885D01*
X182417Y288361D01*
Y322358D01*
X182420Y322359D01*
X182489Y322398D01*
X182550Y322447D01*
X182603Y322506D01*
X182644Y322572D01*
X182808Y322897D01*
X182937Y323237D01*
X183035Y323587D01*
X183100Y323945D01*
X183133Y324307D01*
Y324671D01*
X183100Y325033D01*
X183035Y325391D01*
X182937Y325741D01*
X182808Y326081D01*
X182648Y326408D01*
X182605Y326474D01*
X182552Y326533D01*
X182490Y326583D01*
X182422Y326622D01*
X182417Y326624D01*
Y362192D01*
X182708Y362667D01*
X182949Y363249D01*
X183096Y363861D01*
X183133Y364489D01*
X183096Y365117D01*
X182949Y365729D01*
X182708Y366311D01*
X182417Y366786D01*
Y413386D01*
G37*
G36*
Y288361D02*X182380Y288422D01*
X181971Y288901D01*
X181492Y289310D01*
X181384Y289376D01*
Y291251D01*
X181391Y291339D01*
X181363Y291692D01*
X181280Y292036D01*
X181241Y292132D01*
X181145Y292364D01*
X181030Y292551D01*
X180960Y292666D01*
X180960Y292666D01*
X180730Y292935D01*
X180662Y292992D01*
X179135Y294520D01*
Y320489D01*
X179315D01*
X179677Y320522D01*
X180035Y320588D01*
X180385Y320686D01*
X180725Y320815D01*
X181052Y320974D01*
X181119Y321017D01*
X181177Y321070D01*
X181227Y321132D01*
X181266Y321201D01*
X181295Y321275D01*
X181311Y321352D01*
X181315Y321431D01*
X181306Y321510D01*
X181286Y321586D01*
X181253Y321659D01*
X181210Y321725D01*
X181157Y321784D01*
X181095Y321833D01*
X181027Y321873D01*
X180953Y321901D01*
X180875Y321917D01*
X180796Y321921D01*
X180717Y321913D01*
X180641Y321892D01*
X180569Y321858D01*
X180326Y321736D01*
X180071Y321639D01*
X179809Y321566D01*
X179541Y321517D01*
X179270Y321492D01*
X179135D01*
Y327486D01*
X179270D01*
X179541Y327461D01*
X179809Y327412D01*
X180071Y327339D01*
X180326Y327242D01*
X180571Y327122D01*
X180642Y327089D01*
X180718Y327068D01*
X180796Y327060D01*
X180875Y327064D01*
X180952Y327080D01*
X181025Y327108D01*
X181094Y327147D01*
X181155Y327196D01*
X181208Y327255D01*
X181251Y327321D01*
X181283Y327393D01*
X181303Y327469D01*
X181312Y327547D01*
X181308Y327625D01*
X181292Y327702D01*
X181264Y327776D01*
X181224Y327844D01*
X181175Y327905D01*
X181117Y327958D01*
X181050Y328000D01*
X180725Y328163D01*
X180385Y328292D01*
X180035Y328390D01*
X179677Y328456D01*
X179315Y328489D01*
X179135D01*
Y360477D01*
X179761Y360526D01*
X180373Y360673D01*
X180955Y360914D01*
X181492Y361243D01*
X181971Y361652D01*
X182380Y362131D01*
X182417Y362192D01*
Y326624D01*
X182348Y326650D01*
X182270Y326666D01*
X182191Y326670D01*
X182112Y326662D01*
X182036Y326641D01*
X181964Y326609D01*
X181897Y326566D01*
X181839Y326513D01*
X181789Y326451D01*
X181750Y326382D01*
X181721Y326308D01*
X181705Y326231D01*
X181701Y326152D01*
X181710Y326073D01*
X181730Y325996D01*
X181764Y325925D01*
X181886Y325682D01*
X181983Y325427D01*
X182056Y325165D01*
X182106Y324897D01*
X182130Y324625D01*
Y324353D01*
X182106Y324081D01*
X182056Y323813D01*
X181983Y323551D01*
X181886Y323296D01*
X181767Y323052D01*
X181733Y322980D01*
X181713Y322904D01*
X181704Y322826D01*
X181708Y322748D01*
X181724Y322671D01*
X181752Y322597D01*
X181792Y322529D01*
X181841Y322468D01*
X181899Y322415D01*
X181965Y322372D01*
X182037Y322340D01*
X182113Y322319D01*
X182191Y322311D01*
X182270Y322315D01*
X182347Y322331D01*
X182417Y322358D01*
Y288361D01*
G37*
G36*
Y228990D02*X182380Y229052D01*
X181971Y229531D01*
X181492Y229940D01*
X180955Y230269D01*
X180373Y230510D01*
X179761Y230657D01*
X179135Y230706D01*
Y242064D01*
X179315D01*
X179677Y242097D01*
X180035Y242162D01*
X180385Y242260D01*
X180725Y242390D01*
X181052Y242549D01*
X181119Y242592D01*
X181177Y242645D01*
X181227Y242707D01*
X181266Y242775D01*
X181295Y242849D01*
X181311Y242927D01*
X181315Y243006D01*
X181306Y243085D01*
X181286Y243161D01*
X181253Y243234D01*
X181210Y243300D01*
X181157Y243359D01*
X181095Y243408D01*
X181027Y243448D01*
X180953Y243476D01*
X180875Y243492D01*
X180796Y243496D01*
X180717Y243488D01*
X180641Y243467D01*
X180569Y243433D01*
X180326Y243311D01*
X180071Y243214D01*
X179809Y243141D01*
X179541Y243092D01*
X179270Y243067D01*
X179135D01*
Y249061D01*
X179270D01*
X179541Y249036D01*
X179809Y248987D01*
X180071Y248913D01*
X180326Y248817D01*
X180571Y248697D01*
X180642Y248663D01*
X180718Y248643D01*
X180796Y248635D01*
X180875Y248638D01*
X180952Y248655D01*
X181025Y248683D01*
X181094Y248722D01*
X181155Y248771D01*
X181208Y248830D01*
X181251Y248896D01*
X181283Y248967D01*
X181303Y249043D01*
X181312Y249122D01*
X181308Y249200D01*
X181292Y249277D01*
X181264Y249351D01*
X181224Y249419D01*
X181175Y249480D01*
X181117Y249533D01*
X181050Y249575D01*
X180725Y249738D01*
X180385Y249867D01*
X180035Y249965D01*
X179677Y250031D01*
X179315Y250064D01*
X179135D01*
Y282052D01*
X179761Y282101D01*
X180373Y282248D01*
X180955Y282489D01*
X181492Y282818D01*
X181971Y283227D01*
X182380Y283705D01*
X182417Y283767D01*
Y248198D01*
X182348Y248225D01*
X182270Y248241D01*
X182191Y248245D01*
X182112Y248237D01*
X182036Y248216D01*
X181964Y248184D01*
X181897Y248140D01*
X181839Y248087D01*
X181789Y248026D01*
X181750Y247957D01*
X181721Y247883D01*
X181705Y247806D01*
X181701Y247726D01*
X181710Y247648D01*
X181730Y247571D01*
X181764Y247500D01*
X181886Y247256D01*
X181983Y247002D01*
X182056Y246739D01*
X182106Y246471D01*
X182130Y246200D01*
Y245928D01*
X182106Y245656D01*
X182056Y245388D01*
X181983Y245126D01*
X181886Y244871D01*
X181767Y244626D01*
X181733Y244555D01*
X181713Y244479D01*
X181704Y244401D01*
X181708Y244322D01*
X181724Y244245D01*
X181752Y244172D01*
X181792Y244104D01*
X181841Y244042D01*
X181899Y243990D01*
X181965Y243947D01*
X182037Y243914D01*
X182113Y243894D01*
X182191Y243885D01*
X182270Y243889D01*
X182347Y243906D01*
X182417Y243932D01*
Y228990D01*
G37*
G36*
Y188990D02*X182380Y189052D01*
X181971Y189531D01*
X181492Y189940D01*
X180955Y190269D01*
X180373Y190510D01*
X179761Y190657D01*
X179135Y190706D01*
Y222681D01*
X179761Y222731D01*
X180373Y222878D01*
X180955Y223119D01*
X181492Y223448D01*
X181971Y223857D01*
X182380Y224335D01*
X182417Y224397D01*
Y188990D01*
G37*
G36*
Y129935D02*X182380Y129997D01*
X181971Y130476D01*
X181492Y130885D01*
X180955Y131214D01*
X180373Y131455D01*
X179761Y131602D01*
X179135Y131651D01*
Y163639D01*
X179315D01*
X179677Y163672D01*
X180035Y163737D01*
X180385Y163835D01*
X180725Y163964D01*
X181052Y164124D01*
X181119Y164167D01*
X181177Y164220D01*
X181227Y164282D01*
X181266Y164350D01*
X181295Y164424D01*
X181311Y164502D01*
X181315Y164581D01*
X181306Y164660D01*
X181286Y164736D01*
X181253Y164808D01*
X181210Y164875D01*
X181157Y164933D01*
X181095Y164983D01*
X181027Y165022D01*
X180953Y165051D01*
X180875Y165067D01*
X180796Y165071D01*
X180717Y165062D01*
X180641Y165042D01*
X180569Y165008D01*
X180326Y164886D01*
X180071Y164789D01*
X179809Y164716D01*
X179541Y164666D01*
X179270Y164642D01*
X179135D01*
Y170635D01*
X179270D01*
X179541Y170611D01*
X179809Y170562D01*
X180071Y170488D01*
X180326Y170391D01*
X180571Y170272D01*
X180642Y170238D01*
X180718Y170218D01*
X180796Y170209D01*
X180875Y170213D01*
X180952Y170229D01*
X181025Y170257D01*
X181094Y170297D01*
X181155Y170346D01*
X181208Y170404D01*
X181251Y170470D01*
X181283Y170542D01*
X181303Y170618D01*
X181312Y170696D01*
X181308Y170775D01*
X181292Y170852D01*
X181264Y170926D01*
X181224Y170994D01*
X181175Y171055D01*
X181117Y171108D01*
X181050Y171150D01*
X180725Y171313D01*
X180385Y171442D01*
X180035Y171540D01*
X179677Y171606D01*
X179315Y171639D01*
X179135D01*
Y182681D01*
X179761Y182731D01*
X180373Y182878D01*
X180955Y183119D01*
X181492Y183448D01*
X181971Y183857D01*
X182380Y184335D01*
X182417Y184397D01*
Y169773D01*
X182348Y169800D01*
X182270Y169816D01*
X182191Y169820D01*
X182112Y169812D01*
X182036Y169791D01*
X181964Y169759D01*
X181897Y169715D01*
X181839Y169662D01*
X181789Y169600D01*
X181750Y169532D01*
X181721Y169458D01*
X181705Y169380D01*
X181701Y169301D01*
X181710Y169223D01*
X181730Y169146D01*
X181764Y169075D01*
X181886Y168831D01*
X181983Y168577D01*
X182056Y168314D01*
X182106Y168046D01*
X182130Y167775D01*
Y167502D01*
X182106Y167231D01*
X182056Y166963D01*
X181983Y166701D01*
X181886Y166446D01*
X181767Y166201D01*
X181733Y166130D01*
X181713Y166054D01*
X181704Y165976D01*
X181708Y165897D01*
X181724Y165820D01*
X181752Y165747D01*
X181792Y165678D01*
X181841Y165617D01*
X181899Y165564D01*
X181965Y165521D01*
X182037Y165489D01*
X182113Y165469D01*
X182191Y165460D01*
X182270Y165464D01*
X182347Y165480D01*
X182417Y165507D01*
Y129935D01*
G37*
G36*
Y39370D02*X179135D01*
Y117883D01*
X180662Y119410D01*
X180730Y119467D01*
X180960Y119737D01*
X180960Y119737D01*
X181145Y120039D01*
X181280Y120366D01*
X181363Y120710D01*
X181391Y121063D01*
X181384Y121152D01*
Y124326D01*
X181492Y124393D01*
X181971Y124801D01*
X182380Y125280D01*
X182417Y125342D01*
Y39370D01*
G37*
G36*
X179135Y413386D02*X182417D01*
Y366786D01*
X182380Y366847D01*
X181971Y367326D01*
X181492Y367735D01*
X181384Y367801D01*
Y370975D01*
X181391Y371063D01*
X181363Y371416D01*
X181280Y371761D01*
X181241Y371857D01*
X181145Y372088D01*
X181030Y372275D01*
X180960Y372390D01*
X180960Y372390D01*
X180730Y372659D01*
X180662Y372717D01*
X179135Y374244D01*
Y413386D01*
G37*
G36*
X175850Y371166D02*X176884Y370131D01*
Y367802D01*
X176775Y367735D01*
X176296Y367326D01*
X175887Y366847D01*
X175850Y366786D01*
Y371166D01*
G37*
G36*
X179135Y294520D02*X178819Y294836D01*
X178761Y294903D01*
X178492Y295133D01*
X178492Y295133D01*
X178377Y295204D01*
X178190Y295318D01*
X177959Y295414D01*
X177863Y295454D01*
X177518Y295537D01*
X177165Y295564D01*
X177077Y295557D01*
X175850D01*
Y322354D01*
X175919Y322328D01*
X175997Y322311D01*
X176076Y322308D01*
X176154Y322316D01*
X176231Y322337D01*
X176303Y322369D01*
X176370Y322412D01*
X176428Y322465D01*
X176478Y322527D01*
X176517Y322596D01*
X176546Y322670D01*
X176562Y322747D01*
X176566Y322826D01*
X176557Y322905D01*
X176537Y322981D01*
X176503Y323053D01*
X176381Y323296D01*
X176284Y323551D01*
X176211Y323813D01*
X176161Y324081D01*
X176137Y324353D01*
Y324625D01*
X176161Y324897D01*
X176211Y325165D01*
X176284Y325427D01*
X176381Y325682D01*
X176500Y325926D01*
X176534Y325998D01*
X176554Y326073D01*
X176563Y326152D01*
X176559Y326230D01*
X176543Y326307D01*
X176515Y326381D01*
X176475Y326449D01*
X176426Y326510D01*
X176368Y326563D01*
X176302Y326606D01*
X176230Y326638D01*
X176154Y326659D01*
X176076Y326667D01*
X175997Y326663D01*
X175920Y326647D01*
X175850Y326620D01*
Y362192D01*
X175887Y362131D01*
X176296Y361652D01*
X176775Y361243D01*
X177312Y360914D01*
X177894Y360673D01*
X178506Y360526D01*
X179133Y360477D01*
X179135Y360477D01*
Y328489D01*
X178952D01*
X178589Y328456D01*
X178232Y328390D01*
X177882Y328292D01*
X177542Y328163D01*
X177215Y328004D01*
X177148Y327961D01*
X177090Y327908D01*
X177040Y327846D01*
X177000Y327777D01*
X176972Y327703D01*
X176956Y327626D01*
X176952Y327547D01*
X176960Y327468D01*
X176981Y327392D01*
X177014Y327319D01*
X177057Y327253D01*
X177110Y327194D01*
X177172Y327145D01*
X177240Y327105D01*
X177314Y327077D01*
X177392Y327061D01*
X177471Y327057D01*
X177550Y327065D01*
X177626Y327086D01*
X177698Y327119D01*
X177941Y327242D01*
X178196Y327339D01*
X178458Y327412D01*
X178726Y327461D01*
X178997Y327486D01*
X179135D01*
Y321492D01*
X178997D01*
X178726Y321517D01*
X178458Y321566D01*
X178196Y321639D01*
X177941Y321736D01*
X177696Y321856D01*
X177625Y321889D01*
X177549Y321910D01*
X177471Y321918D01*
X177392Y321914D01*
X177315Y321898D01*
X177242Y321870D01*
X177173Y321831D01*
X177112Y321781D01*
X177059Y321723D01*
X177016Y321657D01*
X176984Y321585D01*
X176964Y321509D01*
X176955Y321431D01*
X176959Y321353D01*
X176975Y321276D01*
X177003Y321202D01*
X177042Y321134D01*
X177092Y321072D01*
X177150Y321020D01*
X177217Y320978D01*
X177542Y320815D01*
X177882Y320686D01*
X178232Y320588D01*
X178589Y320522D01*
X178952Y320489D01*
X179135D01*
Y294520D01*
G37*
G36*
X175850Y295557D02*X170606D01*
Y322192D01*
X170897Y322667D01*
X171138Y323249D01*
X171285Y323861D01*
X171322Y324489D01*
X171285Y325117D01*
X171138Y325729D01*
X170897Y326311D01*
X170606Y326786D01*
Y362358D01*
X170609Y362359D01*
X170678Y362398D01*
X170739Y362447D01*
X170792Y362506D01*
X170833Y362572D01*
X170997Y362897D01*
X171126Y363237D01*
X171224Y363587D01*
X171289Y363945D01*
X171322Y364307D01*
Y364671D01*
X171289Y365033D01*
X171224Y365391D01*
X171126Y365741D01*
X170997Y366081D01*
X170837Y366408D01*
X170794Y366474D01*
X170741Y366533D01*
X170679Y366583D01*
X170611Y366622D01*
X170606Y366624D01*
Y371766D01*
X175249D01*
X175850Y371166D01*
Y366786D01*
X175558Y366311D01*
X175318Y365729D01*
X175171Y365117D01*
X175121Y364489D01*
X175171Y363861D01*
X175318Y363249D01*
X175558Y362667D01*
X175850Y362192D01*
Y326620D01*
X175847Y326619D01*
X175778Y326580D01*
X175717Y326531D01*
X175664Y326472D01*
X175623Y326406D01*
X175459Y326081D01*
X175330Y325741D01*
X175232Y325391D01*
X175166Y325033D01*
X175133Y324671D01*
Y324307D01*
X175166Y323945D01*
X175232Y323587D01*
X175330Y323237D01*
X175459Y322897D01*
X175619Y322570D01*
X175662Y322504D01*
X175715Y322445D01*
X175776Y322395D01*
X175845Y322356D01*
X175850Y322354D01*
Y295557D01*
G37*
G36*
Y291057D02*X176233D01*
X176884Y290407D01*
Y289376D01*
X176775Y289310D01*
X176296Y288901D01*
X175887Y288422D01*
X175850Y288361D01*
Y291057D01*
G37*
G36*
X179135Y230706D02*X179133Y230706D01*
X178506Y230657D01*
X177894Y230510D01*
X177312Y230269D01*
X176775Y229940D01*
X176296Y229531D01*
X175887Y229052D01*
X175850Y228990D01*
Y243929D01*
X175919Y243903D01*
X175997Y243886D01*
X176076Y243882D01*
X176154Y243891D01*
X176231Y243911D01*
X176303Y243944D01*
X176370Y243987D01*
X176428Y244040D01*
X176478Y244102D01*
X176517Y244171D01*
X176546Y244245D01*
X176562Y244322D01*
X176566Y244401D01*
X176557Y244480D01*
X176537Y244556D01*
X176503Y244628D01*
X176381Y244871D01*
X176284Y245126D01*
X176211Y245388D01*
X176161Y245656D01*
X176137Y245928D01*
Y246200D01*
X176161Y246471D01*
X176211Y246739D01*
X176284Y247002D01*
X176381Y247256D01*
X176500Y247501D01*
X176534Y247572D01*
X176554Y247648D01*
X176563Y247727D01*
X176559Y247805D01*
X176543Y247882D01*
X176515Y247956D01*
X176475Y248024D01*
X176426Y248085D01*
X176368Y248138D01*
X176302Y248181D01*
X176230Y248213D01*
X176154Y248234D01*
X176076Y248242D01*
X175997Y248238D01*
X175920Y248222D01*
X175850Y248195D01*
Y283767D01*
X175887Y283705D01*
X176296Y283227D01*
X176775Y282818D01*
X177312Y282489D01*
X177894Y282248D01*
X178506Y282101D01*
X179133Y282051D01*
X179135Y282052D01*
Y250064D01*
X178952D01*
X178589Y250031D01*
X178232Y249965D01*
X177882Y249867D01*
X177542Y249738D01*
X177215Y249578D01*
X177148Y249536D01*
X177090Y249482D01*
X177040Y249421D01*
X177000Y249352D01*
X176972Y249278D01*
X176956Y249201D01*
X176952Y249122D01*
X176960Y249043D01*
X176981Y248966D01*
X177014Y248894D01*
X177057Y248828D01*
X177110Y248769D01*
X177172Y248719D01*
X177240Y248680D01*
X177314Y248652D01*
X177392Y248635D01*
X177471Y248631D01*
X177550Y248640D01*
X177626Y248661D01*
X177698Y248694D01*
X177941Y248817D01*
X178196Y248913D01*
X178458Y248987D01*
X178726Y249036D01*
X178997Y249061D01*
X179135D01*
Y243067D01*
X178997D01*
X178726Y243092D01*
X178458Y243141D01*
X178196Y243214D01*
X177941Y243311D01*
X177696Y243431D01*
X177625Y243464D01*
X177549Y243485D01*
X177471Y243493D01*
X177392Y243489D01*
X177315Y243473D01*
X177242Y243445D01*
X177173Y243406D01*
X177112Y243356D01*
X177059Y243298D01*
X177016Y243232D01*
X176984Y243160D01*
X176964Y243084D01*
X176955Y243006D01*
X176959Y242927D01*
X176975Y242850D01*
X177003Y242777D01*
X177042Y242709D01*
X177092Y242647D01*
X177150Y242595D01*
X177217Y242553D01*
X177542Y242390D01*
X177882Y242260D01*
X178232Y242162D01*
X178589Y242097D01*
X178952Y242064D01*
X179135D01*
Y230706D01*
G37*
G36*
X175850Y228990D02*X175628Y228628D01*
X170606D01*
Y229484D01*
X171113Y229693D01*
X171649Y230022D01*
X172128Y230431D01*
X172537Y230910D01*
X172866Y231447D01*
X173107Y232029D01*
X173254Y232641D01*
X173291Y233269D01*
X173254Y233896D01*
X173107Y234508D01*
X172866Y235090D01*
X172537Y235627D01*
X172128Y236106D01*
X171649Y236515D01*
X171113Y236844D01*
X170606Y237053D01*
Y243452D01*
X170897Y243927D01*
X171138Y244509D01*
X171285Y245121D01*
X171322Y245749D01*
X171285Y246376D01*
X171138Y246989D01*
X170897Y247570D01*
X170606Y248046D01*
Y283617D01*
X170609Y283619D01*
X170678Y283658D01*
X170739Y283707D01*
X170792Y283766D01*
X170833Y283832D01*
X170997Y284157D01*
X171126Y284497D01*
X171224Y284847D01*
X171289Y285205D01*
X171322Y285567D01*
Y285931D01*
X171289Y286293D01*
X171224Y286650D01*
X171126Y287001D01*
X170997Y287341D01*
X170837Y287667D01*
X170794Y287734D01*
X170741Y287793D01*
X170679Y287842D01*
X170611Y287882D01*
X170606Y287884D01*
Y291057D01*
X175850D01*
Y288361D01*
X175558Y287885D01*
X175318Y287304D01*
X175171Y286691D01*
X175121Y286064D01*
X175171Y285436D01*
X175318Y284824D01*
X175558Y284242D01*
X175850Y283767D01*
Y248195D01*
X175847Y248194D01*
X175778Y248155D01*
X175717Y248105D01*
X175664Y248047D01*
X175623Y247980D01*
X175459Y247656D01*
X175330Y247316D01*
X175232Y246965D01*
X175166Y246608D01*
X175133Y246246D01*
Y245882D01*
X175166Y245520D01*
X175232Y245162D01*
X175330Y244812D01*
X175459Y244472D01*
X175619Y244145D01*
X175662Y244079D01*
X175715Y244020D01*
X175776Y243970D01*
X175845Y243931D01*
X175850Y243929D01*
Y228990D01*
G37*
G36*
Y224128D02*X176064D01*
X176296Y223857D01*
X176775Y223448D01*
X177312Y223119D01*
X177894Y222878D01*
X178506Y222731D01*
X179133Y222681D01*
X179135Y222681D01*
Y190706D01*
X179133Y190706D01*
X178506Y190657D01*
X177894Y190510D01*
X177312Y190269D01*
X176775Y189940D01*
X176296Y189531D01*
X175887Y189052D01*
X175850Y188990D01*
Y224128D01*
G37*
G36*
Y125342D02*X175887Y125280D01*
X176296Y124801D01*
X176775Y124393D01*
X176884Y124326D01*
Y121995D01*
X175850Y120961D01*
Y125342D01*
G37*
G36*
X179135Y131651D02*X179133Y131651D01*
X178506Y131602D01*
X177894Y131455D01*
X177312Y131214D01*
X176775Y130885D01*
X176296Y130476D01*
X175887Y129997D01*
X175850Y129935D01*
Y165504D01*
X175919Y165477D01*
X175997Y165461D01*
X176076Y165457D01*
X176154Y165466D01*
X176231Y165486D01*
X176303Y165519D01*
X176370Y165562D01*
X176428Y165615D01*
X176478Y165677D01*
X176517Y165745D01*
X176546Y165819D01*
X176562Y165897D01*
X176566Y165976D01*
X176557Y166055D01*
X176537Y166131D01*
X176503Y166203D01*
X176381Y166446D01*
X176284Y166701D01*
X176211Y166963D01*
X176161Y167231D01*
X176137Y167502D01*
Y167775D01*
X176161Y168046D01*
X176211Y168314D01*
X176284Y168577D01*
X176381Y168831D01*
X176500Y169076D01*
X176534Y169147D01*
X176554Y169223D01*
X176563Y169301D01*
X176559Y169380D01*
X176543Y169457D01*
X176515Y169530D01*
X176475Y169599D01*
X176426Y169660D01*
X176368Y169713D01*
X176302Y169756D01*
X176230Y169788D01*
X176154Y169809D01*
X176076Y169817D01*
X175997Y169813D01*
X175920Y169797D01*
X175850Y169770D01*
Y172176D01*
X176065Y172360D01*
X176474Y172839D01*
X176803Y173376D01*
X177044Y173957D01*
X177191Y174570D01*
X177228Y175197D01*
X177191Y175825D01*
X177044Y176437D01*
X176803Y177019D01*
X176474Y177556D01*
X176065Y178034D01*
X175850Y178219D01*
Y184397D01*
X175887Y184335D01*
X176296Y183857D01*
X176775Y183448D01*
X177312Y183119D01*
X177894Y182878D01*
X178506Y182731D01*
X179133Y182681D01*
X179135Y182681D01*
Y171639D01*
X178952D01*
X178589Y171606D01*
X178232Y171540D01*
X177882Y171442D01*
X177542Y171313D01*
X177215Y171153D01*
X177148Y171110D01*
X177090Y171057D01*
X177040Y170996D01*
X177000Y170927D01*
X176972Y170853D01*
X176956Y170775D01*
X176952Y170696D01*
X176960Y170618D01*
X176981Y170541D01*
X177014Y170469D01*
X177057Y170403D01*
X177110Y170344D01*
X177172Y170294D01*
X177240Y170255D01*
X177314Y170226D01*
X177392Y170210D01*
X177471Y170206D01*
X177550Y170215D01*
X177626Y170235D01*
X177698Y170269D01*
X177941Y170391D01*
X178196Y170488D01*
X178458Y170562D01*
X178726Y170611D01*
X178997Y170635D01*
X179135D01*
Y164642D01*
X178997D01*
X178726Y164666D01*
X178458Y164716D01*
X178196Y164789D01*
X177941Y164886D01*
X177696Y165005D01*
X177625Y165039D01*
X177549Y165059D01*
X177471Y165068D01*
X177392Y165064D01*
X177315Y165048D01*
X177242Y165020D01*
X177173Y164980D01*
X177112Y164931D01*
X177059Y164873D01*
X177016Y164807D01*
X176984Y164735D01*
X176964Y164659D01*
X176955Y164581D01*
X176959Y164502D01*
X176975Y164425D01*
X177003Y164352D01*
X177042Y164283D01*
X177092Y164222D01*
X177150Y164169D01*
X177217Y164128D01*
X177542Y163964D01*
X177882Y163835D01*
X178232Y163737D01*
X178589Y163672D01*
X178952Y163639D01*
X179135D01*
Y131651D01*
G37*
G36*
X175850Y178219D02*X175587Y178443D01*
X175478Y178510D01*
Y183967D01*
X175485Y184056D01*
X175458Y184409D01*
X175375Y184753D01*
X175335Y184849D01*
X175239Y185080D01*
X175125Y185267D01*
X175054Y185382D01*
X175054Y185382D01*
X174824Y185651D01*
X174757Y185709D01*
X170945Y189521D01*
X170887Y189588D01*
X170618Y189818D01*
X170618Y189818D01*
X170606Y189826D01*
Y208814D01*
X171113Y209024D01*
X171649Y209353D01*
X172128Y209762D01*
X172537Y210241D01*
X172866Y210778D01*
X173107Y211359D01*
X173254Y211972D01*
X173291Y212599D01*
X173254Y213227D01*
X173107Y213839D01*
X172866Y214421D01*
X172537Y214958D01*
X172128Y215436D01*
X171649Y215845D01*
X171113Y216174D01*
X170606Y216384D01*
Y224128D01*
X175850D01*
Y188990D01*
X175558Y188515D01*
X175318Y187934D01*
X175171Y187321D01*
X175121Y186694D01*
X175171Y186066D01*
X175318Y185454D01*
X175558Y184872D01*
X175850Y184397D01*
Y178219D01*
G37*
G36*
Y129935D02*X175558Y129460D01*
X175318Y128878D01*
X175171Y128266D01*
X175121Y127639D01*
X175171Y127011D01*
X175318Y126399D01*
X175558Y125817D01*
X175850Y125342D01*
Y120961D01*
X175249Y120361D01*
X170606D01*
Y125507D01*
X170609Y125508D01*
X170678Y125548D01*
X170739Y125597D01*
X170792Y125655D01*
X170833Y125722D01*
X170997Y126047D01*
X171126Y126387D01*
X171224Y126737D01*
X171289Y127095D01*
X171322Y127457D01*
Y127820D01*
X171289Y128183D01*
X171224Y128540D01*
X171126Y128890D01*
X170997Y129230D01*
X170837Y129557D01*
X170794Y129624D01*
X170741Y129682D01*
X170679Y129732D01*
X170611Y129772D01*
X170606Y129773D01*
Y165342D01*
X170897Y165817D01*
X171138Y166399D01*
X171285Y167011D01*
X171322Y167639D01*
X171285Y168266D01*
X171138Y168878D01*
X170897Y169460D01*
X170606Y169935D01*
Y172176D01*
X170870Y171951D01*
X171407Y171622D01*
X171988Y171381D01*
X172601Y171234D01*
X173228Y171185D01*
X173856Y171234D01*
X174468Y171381D01*
X175050Y171622D01*
X175587Y171951D01*
X175850Y172176D01*
Y169770D01*
X175847Y169769D01*
X175778Y169730D01*
X175717Y169680D01*
X175664Y169622D01*
X175623Y169555D01*
X175459Y169230D01*
X175330Y168890D01*
X175232Y168540D01*
X175166Y168183D01*
X175133Y167820D01*
Y167457D01*
X175166Y167095D01*
X175232Y166737D01*
X175330Y166387D01*
X175459Y166047D01*
X175619Y165720D01*
X175662Y165653D01*
X175715Y165595D01*
X175776Y165545D01*
X175845Y165506D01*
X175850Y165504D01*
Y129935D01*
G37*
G36*
X179135Y39370D02*X170606D01*
Y115861D01*
X176093D01*
X176181Y115854D01*
X176534Y115881D01*
X176534Y115881D01*
X176879Y115964D01*
X177206Y116100D01*
X177508Y116285D01*
X177777Y116515D01*
X177834Y116582D01*
X179135Y117883D01*
Y39370D01*
G37*
G36*
X170606Y413386D02*X179135D01*
Y374244D01*
X177834Y375545D01*
X177777Y375612D01*
X177508Y375842D01*
X177508Y375842D01*
X177393Y375912D01*
X177206Y376027D01*
X176974Y376123D01*
X176879Y376163D01*
X176534Y376245D01*
X176181Y376273D01*
X176093Y376266D01*
X170606D01*
Y413386D01*
G37*
G36*
Y326786D02*X170568Y326847D01*
X170160Y327326D01*
X169681Y327735D01*
X169573Y327801D01*
Y330621D01*
X169580Y330709D01*
X169552Y331062D01*
X169469Y331406D01*
X169430Y331502D01*
X169334Y331734D01*
X169285Y331814D01*
Y361003D01*
X169308Y361017D01*
X169366Y361070D01*
X169416Y361132D01*
X169455Y361201D01*
X169484Y361275D01*
X169500Y361352D01*
X169504Y361431D01*
X169495Y361510D01*
X169475Y361586D01*
X169442Y361659D01*
X169399Y361725D01*
X169346Y361784D01*
X169285Y361833D01*
Y367149D01*
X169344Y367196D01*
X169397Y367255D01*
X169440Y367321D01*
X169472Y367393D01*
X169492Y367469D01*
X169501Y367547D01*
X169497Y367625D01*
X169481Y367702D01*
X169453Y367776D01*
X169413Y367844D01*
X169364Y367905D01*
X169306Y367958D01*
X169285Y367971D01*
Y371766D01*
X170606D01*
Y366624D01*
X170537Y366650D01*
X170459Y366666D01*
X170380Y366670D01*
X170301Y366662D01*
X170225Y366641D01*
X170153Y366609D01*
X170086Y366566D01*
X170028Y366513D01*
X169978Y366451D01*
X169939Y366382D01*
X169910Y366308D01*
X169894Y366231D01*
X169890Y366152D01*
X169899Y366073D01*
X169919Y365996D01*
X169953Y365925D01*
X170075Y365682D01*
X170172Y365427D01*
X170245Y365165D01*
X170295Y364897D01*
X170319Y364625D01*
Y364353D01*
X170295Y364081D01*
X170245Y363813D01*
X170172Y363551D01*
X170075Y363296D01*
X169956Y363052D01*
X169922Y362980D01*
X169902Y362904D01*
X169893Y362826D01*
X169897Y362748D01*
X169913Y362671D01*
X169941Y362597D01*
X169981Y362529D01*
X170030Y362468D01*
X170088Y362415D01*
X170154Y362372D01*
X170226Y362340D01*
X170302Y362319D01*
X170380Y362311D01*
X170459Y362315D01*
X170536Y362331D01*
X170606Y362358D01*
Y326786D01*
G37*
G36*
Y295557D02*X169285D01*
Y321000D01*
X169681Y321243D01*
X170160Y321652D01*
X170568Y322131D01*
X170606Y322192D01*
Y295557D01*
G37*
G36*
Y248046D02*X170568Y248107D01*
X170160Y248586D01*
X169681Y248995D01*
X169573Y249061D01*
Y252865D01*
X169580Y252953D01*
X169552Y253306D01*
X169469Y253651D01*
X169430Y253746D01*
X169334Y253978D01*
X169285Y254058D01*
Y282262D01*
X169308Y282277D01*
X169366Y282330D01*
X169416Y282392D01*
X169455Y282461D01*
X169484Y282535D01*
X169500Y282612D01*
X169504Y282691D01*
X169495Y282770D01*
X169475Y282846D01*
X169442Y282919D01*
X169399Y282985D01*
X169346Y283044D01*
X169285Y283093D01*
Y288409D01*
X169344Y288456D01*
X169397Y288515D01*
X169440Y288581D01*
X169472Y288652D01*
X169492Y288728D01*
X169501Y288807D01*
X169497Y288885D01*
X169481Y288962D01*
X169453Y289036D01*
X169413Y289104D01*
X169364Y289165D01*
X169306Y289218D01*
X169285Y289231D01*
Y291057D01*
X170606D01*
Y287884D01*
X170537Y287910D01*
X170459Y287926D01*
X170380Y287930D01*
X170301Y287922D01*
X170225Y287901D01*
X170153Y287869D01*
X170086Y287826D01*
X170028Y287772D01*
X169978Y287711D01*
X169939Y287642D01*
X169910Y287568D01*
X169894Y287491D01*
X169890Y287411D01*
X169899Y287333D01*
X169919Y287256D01*
X169953Y287185D01*
X170075Y286941D01*
X170172Y286687D01*
X170245Y286424D01*
X170295Y286156D01*
X170319Y285885D01*
Y285613D01*
X170295Y285341D01*
X170245Y285073D01*
X170172Y284811D01*
X170075Y284556D01*
X169956Y284311D01*
X169922Y284240D01*
X169902Y284164D01*
X169893Y284086D01*
X169897Y284007D01*
X169913Y283930D01*
X169941Y283857D01*
X169981Y283789D01*
X170030Y283727D01*
X170088Y283675D01*
X170154Y283632D01*
X170226Y283599D01*
X170302Y283579D01*
X170380Y283570D01*
X170459Y283574D01*
X170536Y283591D01*
X170606Y283617D01*
Y248046D01*
G37*
G36*
Y237053D02*X170531Y237084D01*
X169919Y237231D01*
X169291Y237281D01*
X169285Y237280D01*
Y242260D01*
X169681Y242503D01*
X170160Y242912D01*
X170568Y243390D01*
X170606Y243452D01*
Y237053D01*
G37*
G36*
Y228628D02*X169285D01*
Y229257D01*
X169291Y229256D01*
X169919Y229306D01*
X170531Y229453D01*
X170606Y229484D01*
Y228628D01*
G37*
G36*
Y216384D02*X170531Y216415D01*
X169919Y216562D01*
X169291Y216612D01*
X169285Y216611D01*
Y224128D01*
X170606D01*
Y216384D01*
G37*
G36*
Y189826D02*X170503Y189889D01*
X170316Y190003D01*
X170085Y190099D01*
X169989Y190139D01*
X169644Y190222D01*
X169291Y190249D01*
X169285Y190249D01*
Y208587D01*
X169291Y208587D01*
X169919Y208636D01*
X170531Y208783D01*
X170606Y208814D01*
Y189826D01*
G37*
G36*
Y169935D02*X170568Y169997D01*
X170160Y170476D01*
X169681Y170885D01*
X169285Y171127D01*
Y174489D01*
X169412Y173957D01*
X169653Y173376D01*
X169982Y172839D01*
X170391Y172360D01*
X170606Y172176D01*
Y169935D01*
G37*
G36*
Y120361D02*X169285D01*
Y124152D01*
X169308Y124167D01*
X169366Y124220D01*
X169416Y124282D01*
X169455Y124350D01*
X169484Y124424D01*
X169500Y124502D01*
X169504Y124581D01*
X169495Y124660D01*
X169475Y124736D01*
X169442Y124808D01*
X169399Y124875D01*
X169346Y124933D01*
X169285Y124983D01*
Y130298D01*
X169344Y130346D01*
X169397Y130404D01*
X169440Y130470D01*
X169472Y130542D01*
X169492Y130618D01*
X169501Y130696D01*
X169497Y130775D01*
X169481Y130852D01*
X169453Y130926D01*
X169413Y130994D01*
X169364Y131055D01*
X169306Y131108D01*
X169285Y131121D01*
Y158345D01*
X169334Y158425D01*
X169469Y158752D01*
X169552Y159096D01*
X169580Y159449D01*
X169573Y159537D01*
Y164326D01*
X169681Y164393D01*
X170160Y164801D01*
X170568Y165280D01*
X170606Y165342D01*
Y129773D01*
X170537Y129800D01*
X170459Y129816D01*
X170380Y129820D01*
X170301Y129812D01*
X170225Y129791D01*
X170153Y129759D01*
X170086Y129715D01*
X170028Y129662D01*
X169978Y129600D01*
X169939Y129532D01*
X169910Y129458D01*
X169894Y129380D01*
X169890Y129301D01*
X169899Y129223D01*
X169919Y129146D01*
X169953Y129075D01*
X170075Y128831D01*
X170172Y128577D01*
X170245Y128314D01*
X170295Y128046D01*
X170319Y127775D01*
Y127502D01*
X170295Y127231D01*
X170245Y126963D01*
X170172Y126701D01*
X170075Y126446D01*
X169956Y126201D01*
X169922Y126130D01*
X169902Y126054D01*
X169893Y125976D01*
X169897Y125897D01*
X169913Y125820D01*
X169941Y125747D01*
X169981Y125678D01*
X170030Y125617D01*
X170088Y125564D01*
X170154Y125521D01*
X170226Y125489D01*
X170302Y125469D01*
X170380Y125460D01*
X170459Y125464D01*
X170536Y125480D01*
X170606Y125507D01*
Y120361D01*
G37*
G36*
Y39370D02*X169285D01*
Y47595D01*
X169379Y47834D01*
X169491Y48219D01*
X169567Y48613D01*
X169604Y49012D01*
Y49414D01*
X169567Y49813D01*
X169491Y50207D01*
X169379Y50592D01*
X169285Y50831D01*
Y115861D01*
X170606D01*
Y39370D01*
G37*
G36*
X169285Y413386D02*X170606D01*
Y376266D01*
X169285D01*
Y401926D01*
X169379Y402165D01*
X169491Y402550D01*
X169567Y402944D01*
X169604Y403343D01*
Y403744D01*
X169567Y404144D01*
X169491Y404538D01*
X169379Y404923D01*
X169285Y405161D01*
Y413386D01*
G37*
G36*
Y331814D02*X169219Y331921D01*
X169149Y332036D01*
X169149Y332036D01*
X168919Y332305D01*
X168851Y332362D01*
X165039Y336175D01*
X164982Y336242D01*
X164713Y336472D01*
X164712Y336472D01*
X164598Y336542D01*
X164410Y336657D01*
X164179Y336753D01*
X164083Y336793D01*
X163739Y336875D01*
X163542Y336891D01*
Y363177D01*
X163648Y362897D01*
X163808Y362570D01*
X163851Y362504D01*
X163904Y362445D01*
X163965Y362395D01*
X164034Y362356D01*
X164108Y362328D01*
X164186Y362311D01*
X164265Y362308D01*
X164343Y362316D01*
X164420Y362337D01*
X164492Y362369D01*
X164558Y362412D01*
X164617Y362465D01*
X164667Y362527D01*
X164706Y362596D01*
X164735Y362670D01*
X164751Y362747D01*
X164755Y362826D01*
X164746Y362905D01*
X164726Y362981D01*
X164692Y363053D01*
X164570Y363296D01*
X164473Y363551D01*
X164399Y363813D01*
X164350Y364081D01*
X164326Y364353D01*
Y364625D01*
X164350Y364897D01*
X164399Y365165D01*
X164473Y365427D01*
X164570Y365682D01*
X164689Y365926D01*
X164723Y365998D01*
X164743Y366073D01*
X164752Y366152D01*
X164748Y366230D01*
X164732Y366307D01*
X164704Y366381D01*
X164664Y366449D01*
X164615Y366510D01*
X164557Y366563D01*
X164491Y366606D01*
X164419Y366638D01*
X164343Y366659D01*
X164265Y366667D01*
X164186Y366663D01*
X164109Y366647D01*
X164035Y366619D01*
X163967Y366580D01*
X163906Y366531D01*
X163853Y366472D01*
X163812Y366406D01*
X163648Y366081D01*
X163542Y365801D01*
Y371766D01*
X169285D01*
Y367971D01*
X169239Y368000D01*
X168914Y368163D01*
X168574Y368292D01*
X168224Y368390D01*
X167866Y368456D01*
X167504Y368489D01*
X167141D01*
X166778Y368456D01*
X166421Y368390D01*
X166071Y368292D01*
X165731Y368163D01*
X165404Y368004D01*
X165337Y367961D01*
X165279Y367908D01*
X165229Y367846D01*
X165189Y367777D01*
X165161Y367703D01*
X165145Y367626D01*
X165141Y367547D01*
X165149Y367468D01*
X165170Y367392D01*
X165202Y367319D01*
X165246Y367253D01*
X165299Y367194D01*
X165361Y367145D01*
X165429Y367105D01*
X165503Y367077D01*
X165581Y367061D01*
X165660Y367057D01*
X165739Y367065D01*
X165815Y367086D01*
X165886Y367119D01*
X166130Y367242D01*
X166384Y367339D01*
X166647Y367412D01*
X166915Y367461D01*
X167186Y367486D01*
X167459D01*
X167730Y367461D01*
X167998Y367412D01*
X168260Y367339D01*
X168515Y367242D01*
X168760Y367122D01*
X168831Y367089D01*
X168907Y367068D01*
X168985Y367060D01*
X169064Y367064D01*
X169141Y367080D01*
X169214Y367108D01*
X169283Y367147D01*
X169285Y367149D01*
Y361833D01*
X169284Y361833D01*
X169216Y361873D01*
X169142Y361901D01*
X169064Y361917D01*
X168985Y361921D01*
X168906Y361913D01*
X168830Y361892D01*
X168758Y361858D01*
X168515Y361736D01*
X168260Y361639D01*
X167998Y361566D01*
X167730Y361517D01*
X167459Y361492D01*
X167186D01*
X166915Y361517D01*
X166647Y361566D01*
X166384Y361639D01*
X166130Y361736D01*
X165885Y361856D01*
X165814Y361889D01*
X165738Y361910D01*
X165660Y361918D01*
X165581Y361914D01*
X165504Y361898D01*
X165431Y361870D01*
X165362Y361831D01*
X165301Y361781D01*
X165248Y361723D01*
X165205Y361657D01*
X165173Y361585D01*
X165152Y361509D01*
X165144Y361431D01*
X165148Y361353D01*
X165164Y361276D01*
X165192Y361202D01*
X165231Y361134D01*
X165281Y361072D01*
X165339Y361020D01*
X165406Y360978D01*
X165731Y360815D01*
X166071Y360686D01*
X166421Y360588D01*
X166778Y360522D01*
X167141Y360489D01*
X167504D01*
X167866Y360522D01*
X168224Y360588D01*
X168574Y360686D01*
X168914Y360815D01*
X169241Y360974D01*
X169285Y361003D01*
Y331814D01*
G37*
G36*
Y295557D02*X163542D01*
Y323164D01*
X163747Y322667D01*
X164076Y322131D01*
X164485Y321652D01*
X164964Y321243D01*
X165501Y320914D01*
X166083Y320673D01*
X166695Y320526D01*
X167322Y320477D01*
X167950Y320526D01*
X168562Y320673D01*
X169144Y320914D01*
X169285Y321000D01*
Y295557D01*
G37*
G36*
Y254058D02*X169219Y254165D01*
X169149Y254280D01*
X169149Y254280D01*
X168919Y254549D01*
X168851Y254606D01*
X167008Y256450D01*
X166950Y256518D01*
X166681Y256747D01*
X166681Y256748D01*
X166566Y256818D01*
X166379Y256933D01*
X166148Y257028D01*
X166052Y257068D01*
X165707Y257151D01*
X165354Y257179D01*
X165266Y257172D01*
X163542D01*
Y284437D01*
X163648Y284157D01*
X163808Y283830D01*
X163851Y283764D01*
X163904Y283705D01*
X163965Y283655D01*
X164034Y283616D01*
X164108Y283588D01*
X164186Y283571D01*
X164265Y283567D01*
X164343Y283576D01*
X164420Y283596D01*
X164492Y283629D01*
X164558Y283672D01*
X164617Y283725D01*
X164667Y283787D01*
X164706Y283856D01*
X164735Y283930D01*
X164751Y284007D01*
X164755Y284086D01*
X164746Y284165D01*
X164726Y284241D01*
X164692Y284313D01*
X164570Y284556D01*
X164473Y284811D01*
X164399Y285073D01*
X164350Y285341D01*
X164326Y285613D01*
Y285885D01*
X164350Y286156D01*
X164399Y286424D01*
X164473Y286687D01*
X164570Y286941D01*
X164689Y287186D01*
X164723Y287257D01*
X164743Y287333D01*
X164752Y287412D01*
X164748Y287490D01*
X164732Y287567D01*
X164704Y287641D01*
X164664Y287709D01*
X164615Y287770D01*
X164557Y287823D01*
X164491Y287866D01*
X164419Y287898D01*
X164343Y287919D01*
X164265Y287927D01*
X164186Y287923D01*
X164109Y287907D01*
X164035Y287879D01*
X163967Y287840D01*
X163906Y287790D01*
X163853Y287732D01*
X163812Y287665D01*
X163648Y287341D01*
X163542Y287060D01*
Y291057D01*
X169285D01*
Y289231D01*
X169239Y289260D01*
X168914Y289423D01*
X168574Y289552D01*
X168224Y289650D01*
X167866Y289716D01*
X167504Y289749D01*
X167141D01*
X166778Y289716D01*
X166421Y289650D01*
X166071Y289552D01*
X165731Y289423D01*
X165404Y289263D01*
X165337Y289221D01*
X165279Y289167D01*
X165229Y289106D01*
X165189Y289037D01*
X165161Y288963D01*
X165145Y288886D01*
X165141Y288807D01*
X165149Y288728D01*
X165170Y288651D01*
X165202Y288579D01*
X165246Y288513D01*
X165299Y288454D01*
X165361Y288404D01*
X165429Y288365D01*
X165503Y288337D01*
X165581Y288320D01*
X165660Y288316D01*
X165739Y288325D01*
X165815Y288346D01*
X165886Y288379D01*
X166130Y288502D01*
X166384Y288598D01*
X166647Y288672D01*
X166915Y288721D01*
X167186Y288746D01*
X167459D01*
X167730Y288721D01*
X167998Y288672D01*
X168260Y288598D01*
X168515Y288502D01*
X168760Y288382D01*
X168831Y288348D01*
X168907Y288328D01*
X168985Y288320D01*
X169064Y288323D01*
X169141Y288340D01*
X169214Y288368D01*
X169283Y288407D01*
X169285Y288409D01*
Y283093D01*
X169284Y283093D01*
X169216Y283133D01*
X169142Y283161D01*
X169064Y283177D01*
X168985Y283181D01*
X168906Y283173D01*
X168830Y283152D01*
X168758Y283118D01*
X168515Y282996D01*
X168260Y282899D01*
X167998Y282826D01*
X167730Y282777D01*
X167459Y282752D01*
X167186D01*
X166915Y282777D01*
X166647Y282826D01*
X166384Y282899D01*
X166130Y282996D01*
X165885Y283116D01*
X165814Y283149D01*
X165738Y283170D01*
X165660Y283178D01*
X165581Y283174D01*
X165504Y283158D01*
X165431Y283130D01*
X165362Y283091D01*
X165301Y283041D01*
X165248Y282983D01*
X165205Y282917D01*
X165173Y282845D01*
X165152Y282769D01*
X165144Y282691D01*
X165148Y282612D01*
X165164Y282535D01*
X165192Y282462D01*
X165231Y282394D01*
X165281Y282332D01*
X165339Y282280D01*
X165406Y282238D01*
X165731Y282075D01*
X166071Y281945D01*
X166421Y281848D01*
X166778Y281782D01*
X167141Y281749D01*
X167504D01*
X167866Y281782D01*
X168224Y281848D01*
X168574Y281945D01*
X168914Y282075D01*
X169241Y282234D01*
X169285Y282262D01*
Y254058D01*
G37*
G36*
Y228628D02*X163542D01*
Y244424D01*
X163747Y243927D01*
X164076Y243390D01*
X164485Y242912D01*
X164964Y242503D01*
X165501Y242174D01*
X166083Y241933D01*
X166695Y241786D01*
X167322Y241736D01*
X167950Y241786D01*
X168562Y241933D01*
X169144Y242174D01*
X169285Y242260D01*
Y237280D01*
X168663Y237231D01*
X168051Y237084D01*
X167469Y236844D01*
X166933Y236515D01*
X166454Y236106D01*
X166045Y235627D01*
X165716Y235090D01*
X165475Y234508D01*
X165328Y233896D01*
X165279Y233269D01*
X165328Y232641D01*
X165475Y232029D01*
X165716Y231447D01*
X166045Y230910D01*
X166454Y230431D01*
X166933Y230022D01*
X167469Y229693D01*
X168051Y229453D01*
X168663Y229306D01*
X169285Y229257D01*
Y228628D01*
G37*
G36*
Y190249D02*X169203Y190243D01*
X163542D01*
Y224128D01*
X169285D01*
Y216611D01*
X168663Y216562D01*
X168051Y216415D01*
X167469Y216174D01*
X166933Y215845D01*
X166454Y215436D01*
X166045Y214958D01*
X165716Y214421D01*
X165475Y213839D01*
X165328Y213227D01*
X165279Y212599D01*
X165328Y211972D01*
X165475Y211359D01*
X165716Y210778D01*
X166045Y210241D01*
X166454Y209762D01*
X166933Y209353D01*
X167469Y209024D01*
X168051Y208783D01*
X168663Y208636D01*
X169285Y208587D01*
Y190249D01*
G37*
G36*
Y171127D02*X169144Y171214D01*
X168562Y171455D01*
X167950Y171602D01*
X167322Y171651D01*
X166695Y171602D01*
X166083Y171455D01*
X165501Y171214D01*
X164964Y170885D01*
X164485Y170476D01*
X164076Y169997D01*
X163747Y169460D01*
X163542Y168964D01*
Y185743D01*
X168359D01*
X169285Y184817D01*
Y175906D01*
X169265Y175825D01*
X169216Y175197D01*
X169265Y174570D01*
X169285Y174489D01*
Y171127D01*
G37*
G36*
Y120361D02*X163542D01*
Y126327D01*
X163648Y126047D01*
X163808Y125720D01*
X163851Y125653D01*
X163904Y125595D01*
X163965Y125545D01*
X164034Y125506D01*
X164108Y125477D01*
X164186Y125461D01*
X164265Y125457D01*
X164343Y125466D01*
X164420Y125486D01*
X164492Y125519D01*
X164558Y125562D01*
X164617Y125615D01*
X164667Y125677D01*
X164706Y125745D01*
X164735Y125819D01*
X164751Y125897D01*
X164755Y125976D01*
X164746Y126055D01*
X164726Y126131D01*
X164692Y126203D01*
X164570Y126446D01*
X164473Y126701D01*
X164399Y126963D01*
X164350Y127231D01*
X164326Y127502D01*
Y127775D01*
X164350Y128046D01*
X164399Y128314D01*
X164473Y128577D01*
X164570Y128831D01*
X164689Y129076D01*
X164723Y129147D01*
X164743Y129223D01*
X164752Y129301D01*
X164748Y129380D01*
X164732Y129457D01*
X164704Y129530D01*
X164664Y129599D01*
X164615Y129660D01*
X164557Y129713D01*
X164491Y129756D01*
X164419Y129788D01*
X164343Y129809D01*
X164265Y129817D01*
X164186Y129813D01*
X164109Y129797D01*
X164035Y129769D01*
X163967Y129730D01*
X163906Y129680D01*
X163853Y129622D01*
X163812Y129555D01*
X163648Y129230D01*
X163542Y128950D01*
Y155231D01*
X165266D01*
X165354Y155224D01*
X165707Y155252D01*
X165707Y155252D01*
X166052Y155334D01*
X166379Y155470D01*
X166681Y155655D01*
X166950Y155885D01*
X167008Y155952D01*
X168851Y157796D01*
X168919Y157853D01*
X169149Y158122D01*
X169149Y158123D01*
X169285Y158345D01*
Y131121D01*
X169239Y131150D01*
X168914Y131313D01*
X168574Y131442D01*
X168224Y131540D01*
X167866Y131606D01*
X167504Y131639D01*
X167141D01*
X166778Y131606D01*
X166421Y131540D01*
X166071Y131442D01*
X165731Y131313D01*
X165404Y131153D01*
X165337Y131110D01*
X165279Y131057D01*
X165229Y130996D01*
X165189Y130927D01*
X165161Y130853D01*
X165145Y130775D01*
X165141Y130696D01*
X165149Y130618D01*
X165170Y130541D01*
X165202Y130469D01*
X165246Y130403D01*
X165299Y130344D01*
X165361Y130294D01*
X165429Y130255D01*
X165503Y130226D01*
X165581Y130210D01*
X165660Y130206D01*
X165739Y130215D01*
X165815Y130235D01*
X165886Y130269D01*
X166130Y130391D01*
X166384Y130488D01*
X166647Y130562D01*
X166915Y130611D01*
X167186Y130635D01*
X167459D01*
X167730Y130611D01*
X167998Y130562D01*
X168260Y130488D01*
X168515Y130391D01*
X168760Y130272D01*
X168831Y130238D01*
X168907Y130218D01*
X168985Y130209D01*
X169064Y130213D01*
X169141Y130229D01*
X169214Y130257D01*
X169283Y130297D01*
X169285Y130298D01*
Y124983D01*
X169284Y124983D01*
X169216Y125022D01*
X169142Y125051D01*
X169064Y125067D01*
X168985Y125071D01*
X168906Y125062D01*
X168830Y125042D01*
X168758Y125008D01*
X168515Y124886D01*
X168260Y124789D01*
X167998Y124716D01*
X167730Y124666D01*
X167459Y124642D01*
X167186D01*
X166915Y124666D01*
X166647Y124716D01*
X166384Y124789D01*
X166130Y124886D01*
X165885Y125005D01*
X165814Y125039D01*
X165738Y125059D01*
X165660Y125068D01*
X165581Y125064D01*
X165504Y125048D01*
X165431Y125020D01*
X165362Y124980D01*
X165301Y124931D01*
X165248Y124873D01*
X165205Y124807D01*
X165173Y124735D01*
X165152Y124659D01*
X165144Y124581D01*
X165148Y124502D01*
X165164Y124425D01*
X165192Y124352D01*
X165231Y124283D01*
X165281Y124222D01*
X165339Y124169D01*
X165406Y124128D01*
X165731Y123964D01*
X166071Y123835D01*
X166421Y123737D01*
X166778Y123672D01*
X167141Y123639D01*
X167504D01*
X167866Y123672D01*
X168224Y123737D01*
X168574Y123835D01*
X168914Y123964D01*
X169241Y124124D01*
X169285Y124152D01*
Y120361D01*
G37*
G36*
Y39370D02*X163542D01*
Y45368D01*
X163602Y45336D01*
X163975Y45188D01*
X164360Y45076D01*
X164754Y45001D01*
X165154Y44963D01*
X165555D01*
X165954Y45001D01*
X166348Y45076D01*
X166733Y45188D01*
X167106Y45336D01*
X167464Y45518D01*
X167529Y45562D01*
X167587Y45616D01*
X167636Y45679D01*
X167674Y45749D01*
X167701Y45823D01*
X167716Y45901D01*
X167718Y45980D01*
X167708Y46059D01*
X167686Y46135D01*
X167652Y46207D01*
X167608Y46272D01*
X167553Y46330D01*
X167491Y46379D01*
X167421Y46417D01*
X167347Y46444D01*
X167269Y46458D01*
X167190Y46461D01*
X167111Y46451D01*
X167035Y46429D01*
X166964Y46394D01*
X166693Y46251D01*
X166408Y46138D01*
X166114Y46053D01*
X165813Y45995D01*
X165508Y45967D01*
X165201D01*
X164896Y45995D01*
X164595Y46053D01*
X164301Y46138D01*
X164016Y46251D01*
X163743Y46391D01*
X163673Y46425D01*
X163597Y46447D01*
X163542Y46454D01*
Y51968D01*
X163598Y51975D01*
X163674Y51997D01*
X163745Y52032D01*
X164016Y52175D01*
X164301Y52288D01*
X164595Y52373D01*
X164896Y52431D01*
X165201Y52459D01*
X165508D01*
X165813Y52431D01*
X166114Y52373D01*
X166408Y52288D01*
X166693Y52175D01*
X166966Y52035D01*
X167036Y52001D01*
X167112Y51979D01*
X167190Y51969D01*
X167268Y51971D01*
X167346Y51986D01*
X167420Y52012D01*
X167489Y52050D01*
X167551Y52099D01*
X167605Y52156D01*
X167649Y52221D01*
X167683Y52292D01*
X167705Y52368D01*
X167714Y52446D01*
X167712Y52525D01*
X167697Y52602D01*
X167671Y52676D01*
X167633Y52745D01*
X167585Y52807D01*
X167527Y52861D01*
X167461Y52904D01*
X167106Y53090D01*
X166733Y53238D01*
X166348Y53350D01*
X165954Y53425D01*
X165555Y53463D01*
X165154D01*
X164754Y53425D01*
X164360Y53350D01*
X163975Y53238D01*
X163602Y53090D01*
X163542Y53059D01*
Y78304D01*
X163712Y78605D01*
X163887Y79004D01*
X164025Y79418D01*
X164124Y79842D01*
X164183Y80274D01*
X164203Y80709D01*
X164183Y81145D01*
X164124Y81576D01*
X164025Y82001D01*
X163887Y82414D01*
X163712Y82814D01*
X163542Y83123D01*
Y115861D01*
X169285D01*
Y50831D01*
X169232Y50965D01*
X169049Y51322D01*
X169005Y51388D01*
X168951Y51446D01*
X168888Y51494D01*
X168819Y51533D01*
X168744Y51559D01*
X168666Y51574D01*
X168587Y51577D01*
X168508Y51567D01*
X168432Y51545D01*
X168361Y51511D01*
X168295Y51466D01*
X168237Y51412D01*
X168189Y51349D01*
X168151Y51280D01*
X168124Y51205D01*
X168109Y51127D01*
X168106Y51048D01*
X168116Y50970D01*
X168139Y50893D01*
X168174Y50822D01*
X168316Y50551D01*
X168429Y50266D01*
X168514Y49972D01*
X168572Y49671D01*
X168601Y49366D01*
Y49060D01*
X168572Y48755D01*
X168514Y48454D01*
X168429Y48160D01*
X168316Y47875D01*
X168177Y47602D01*
X168142Y47531D01*
X168120Y47456D01*
X168110Y47378D01*
X168112Y47299D01*
X168127Y47222D01*
X168154Y47148D01*
X168192Y47079D01*
X168240Y47016D01*
X168297Y46963D01*
X168362Y46918D01*
X168434Y46885D01*
X168509Y46863D01*
X168587Y46853D01*
X168666Y46855D01*
X168743Y46870D01*
X168817Y46897D01*
X168886Y46935D01*
X168948Y46983D01*
X169002Y47040D01*
X169045Y47106D01*
X169232Y47461D01*
X169285Y47595D01*
Y39370D01*
G37*
G36*
X163542Y413386D02*X169285D01*
Y405161D01*
X169232Y405296D01*
X169049Y405653D01*
X169005Y405719D01*
X168951Y405777D01*
X168888Y405825D01*
X168819Y405863D01*
X168744Y405890D01*
X168666Y405905D01*
X168587Y405907D01*
X168508Y405898D01*
X168432Y405875D01*
X168361Y405842D01*
X168295Y405797D01*
X168237Y405743D01*
X168189Y405680D01*
X168151Y405611D01*
X168124Y405536D01*
X168109Y405458D01*
X168106Y405379D01*
X168116Y405300D01*
X168139Y405224D01*
X168174Y405153D01*
X168316Y404882D01*
X168429Y404597D01*
X168514Y404303D01*
X168572Y404002D01*
X168601Y403697D01*
Y403390D01*
X168572Y403085D01*
X168514Y402784D01*
X168429Y402490D01*
X168316Y402205D01*
X168177Y401932D01*
X168142Y401862D01*
X168120Y401786D01*
X168110Y401708D01*
X168112Y401630D01*
X168127Y401552D01*
X168154Y401478D01*
X168192Y401409D01*
X168240Y401347D01*
X168297Y401293D01*
X168362Y401249D01*
X168434Y401215D01*
X168509Y401193D01*
X168587Y401184D01*
X168666Y401186D01*
X168743Y401201D01*
X168817Y401227D01*
X168886Y401265D01*
X168948Y401313D01*
X169002Y401371D01*
X169045Y401437D01*
X169232Y401792D01*
X169285Y401926D01*
Y376266D01*
X163542D01*
Y399698D01*
X163602Y399666D01*
X163975Y399519D01*
X164360Y399407D01*
X164754Y399331D01*
X165154Y399294D01*
X165555D01*
X165954Y399331D01*
X166348Y399407D01*
X166733Y399519D01*
X167106Y399666D01*
X167464Y399849D01*
X167529Y399893D01*
X167587Y399947D01*
X167636Y400010D01*
X167674Y400079D01*
X167701Y400154D01*
X167716Y400232D01*
X167718Y400311D01*
X167708Y400390D01*
X167686Y400466D01*
X167652Y400537D01*
X167608Y400603D01*
X167553Y400661D01*
X167491Y400709D01*
X167421Y400748D01*
X167347Y400774D01*
X167269Y400789D01*
X167190Y400792D01*
X167111Y400782D01*
X167035Y400760D01*
X166964Y400724D01*
X166693Y400582D01*
X166408Y400469D01*
X166114Y400384D01*
X165813Y400326D01*
X165508Y400297D01*
X165201D01*
X164896Y400326D01*
X164595Y400384D01*
X164301Y400469D01*
X164016Y400582D01*
X163743Y400721D01*
X163673Y400756D01*
X163597Y400778D01*
X163542Y400785D01*
Y406299D01*
X163598Y406306D01*
X163674Y406328D01*
X163745Y406363D01*
X164016Y406505D01*
X164301Y406618D01*
X164595Y406704D01*
X164896Y406761D01*
X165201Y406790D01*
X165508D01*
X165813Y406761D01*
X166114Y406704D01*
X166408Y406618D01*
X166693Y406505D01*
X166966Y406366D01*
X167036Y406331D01*
X167112Y406309D01*
X167190Y406299D01*
X167268Y406302D01*
X167346Y406317D01*
X167420Y406343D01*
X167489Y406381D01*
X167551Y406429D01*
X167605Y406487D01*
X167649Y406552D01*
X167683Y406623D01*
X167705Y406698D01*
X167714Y406777D01*
X167712Y406855D01*
X167697Y406933D01*
X167671Y407007D01*
X167633Y407076D01*
X167585Y407138D01*
X167527Y407192D01*
X167461Y407235D01*
X167106Y407421D01*
X166733Y407569D01*
X166348Y407681D01*
X165954Y407756D01*
X165555Y407794D01*
X165154D01*
X164754Y407756D01*
X164360Y407681D01*
X163975Y407569D01*
X163602Y407421D01*
X163542Y407390D01*
Y413386D01*
G37*
G36*
X161853Y155231D02*X163542D01*
Y128950D01*
X163519Y128890D01*
X163421Y128540D01*
X163355Y128183D01*
X163322Y127820D01*
Y127457D01*
X163355Y127095D01*
X163421Y126737D01*
X163519Y126387D01*
X163542Y126327D01*
Y120361D01*
X161853D01*
Y155231D01*
G37*
G36*
X163542Y39370D02*X161853D01*
Y46913D01*
X161890Y46893D01*
X161965Y46867D01*
X162042Y46852D01*
X162122Y46849D01*
X162200Y46859D01*
X162276Y46881D01*
X162348Y46915D01*
X162414Y46960D01*
X162471Y47014D01*
X162520Y47077D01*
X162558Y47146D01*
X162585Y47221D01*
X162600Y47299D01*
X162602Y47378D01*
X162592Y47456D01*
X162570Y47533D01*
X162535Y47604D01*
X162393Y47875D01*
X162280Y48160D01*
X162194Y48454D01*
X162137Y48755D01*
X162108Y49060D01*
Y49366D01*
X162137Y49671D01*
X162194Y49972D01*
X162280Y50266D01*
X162393Y50551D01*
X162532Y50824D01*
X162567Y50895D01*
X162589Y50970D01*
X162599Y51048D01*
X162596Y51127D01*
X162581Y51204D01*
X162555Y51278D01*
X162517Y51347D01*
X162469Y51410D01*
X162411Y51463D01*
X162346Y51508D01*
X162275Y51541D01*
X162200Y51563D01*
X162121Y51573D01*
X162043Y51571D01*
X161965Y51556D01*
X161891Y51529D01*
X161853Y51508D01*
Y76611D01*
X161934Y76656D01*
X161999Y76702D01*
X162055Y76758D01*
X162101Y76822D01*
X162137Y76893D01*
X162162Y76969D01*
X162174Y77047D01*
X162174Y77126D01*
X162162Y77205D01*
X162137Y77280D01*
X162101Y77351D01*
X162054Y77415D01*
X161998Y77471D01*
X161934Y77518D01*
X161864Y77554D01*
X161853Y77557D01*
Y83866D01*
X161862Y83869D01*
X161932Y83905D01*
X161996Y83951D01*
X162051Y84007D01*
X162098Y84070D01*
X162134Y84140D01*
X162158Y84215D01*
X162170Y84293D01*
X162170Y84372D01*
X162158Y84449D01*
X162134Y84524D01*
X162098Y84594D01*
X162052Y84658D01*
X161996Y84714D01*
X161932Y84759D01*
X161853Y84803D01*
Y115861D01*
X163542D01*
Y83123D01*
X163502Y83195D01*
X163456Y83260D01*
X163400Y83316D01*
X163335Y83362D01*
X163265Y83398D01*
X163189Y83423D01*
X163111Y83435D01*
X163032Y83435D01*
X162953Y83423D01*
X162878Y83398D01*
X162807Y83362D01*
X162743Y83316D01*
X162687Y83259D01*
X162640Y83195D01*
X162604Y83125D01*
X162580Y83049D01*
X162567Y82971D01*
X162567Y82891D01*
X162580Y82813D01*
X162604Y82738D01*
X162642Y82668D01*
X162811Y82369D01*
X162949Y82054D01*
X163057Y81728D01*
X163136Y81393D01*
X163183Y81053D01*
X163198Y80709D01*
X163183Y80366D01*
X163136Y80026D01*
X163057Y79691D01*
X162949Y79365D01*
X162811Y79050D01*
X162645Y78749D01*
X162608Y78680D01*
X162584Y78605D01*
X162571Y78527D01*
X162571Y78448D01*
X162584Y78371D01*
X162608Y78296D01*
X162644Y78226D01*
X162690Y78162D01*
X162746Y78106D01*
X162809Y78060D01*
X162879Y78024D01*
X162954Y78000D01*
X163032Y77988D01*
X163111Y77988D01*
X163188Y78000D01*
X163263Y78024D01*
X163333Y78060D01*
X163397Y78106D01*
X163453Y78162D01*
X163498Y78226D01*
X163542Y78304D01*
Y53059D01*
X163245Y52908D01*
X163179Y52864D01*
X163121Y52810D01*
X163073Y52747D01*
X163035Y52677D01*
X163008Y52603D01*
X162993Y52525D01*
X162991Y52446D01*
X163001Y52367D01*
X163023Y52291D01*
X163056Y52219D01*
X163101Y52154D01*
X163155Y52096D01*
X163218Y52047D01*
X163287Y52009D01*
X163362Y51982D01*
X163440Y51968D01*
X163519Y51965D01*
X163542Y51968D01*
Y46454D01*
X163519Y46457D01*
X163440Y46455D01*
X163363Y46440D01*
X163289Y46413D01*
X163220Y46376D01*
X163158Y46327D01*
X163104Y46270D01*
X163060Y46205D01*
X163026Y46134D01*
X163004Y46058D01*
X162994Y45980D01*
X162997Y45901D01*
X163011Y45824D01*
X163038Y45750D01*
X163076Y45681D01*
X163124Y45619D01*
X163181Y45565D01*
X163247Y45522D01*
X163542Y45368D01*
Y39370D01*
G37*
G36*
X155511Y155231D02*X161853D01*
Y120361D01*
X155511D01*
Y155231D01*
G37*
G36*
X161853Y39370D02*X155511D01*
Y78093D01*
X155561Y78057D01*
X155632Y78021D01*
X155708Y77996D01*
X155786Y77984D01*
X155865Y77984D01*
X155944Y77996D01*
X156019Y78021D01*
X156090Y78057D01*
X156154Y78103D01*
X156210Y78159D01*
X156257Y78224D01*
X156293Y78294D01*
X156317Y78370D01*
X156329Y78448D01*
X156329Y78527D01*
X156317Y78606D01*
X156292Y78681D01*
X156255Y78751D01*
X156086Y79050D01*
X155948Y79365D01*
X155839Y79691D01*
X155761Y80026D01*
X155714Y80366D01*
X155698Y80709D01*
X155714Y81053D01*
X155761Y81393D01*
X155839Y81728D01*
X155948Y82054D01*
X156086Y82369D01*
X156252Y82670D01*
X156289Y82739D01*
X156313Y82814D01*
X156325Y82892D01*
X156325Y82970D01*
X156313Y83048D01*
X156289Y83123D01*
X156253Y83193D01*
X156207Y83257D01*
X156151Y83313D01*
X156088Y83359D01*
X156018Y83395D01*
X155943Y83419D01*
X155865Y83431D01*
X155786Y83431D01*
X155708Y83419D01*
X155634Y83395D01*
X155564Y83359D01*
X155511Y83321D01*
Y115861D01*
X161853D01*
Y84803D01*
X161553Y84974D01*
X161153Y85148D01*
X160740Y85286D01*
X160315Y85385D01*
X159884Y85444D01*
X159448Y85464D01*
X159013Y85444D01*
X158581Y85385D01*
X158157Y85286D01*
X157743Y85148D01*
X157344Y84974D01*
X156963Y84763D01*
X156898Y84717D01*
X156842Y84661D01*
X156796Y84596D01*
X156760Y84526D01*
X156735Y84450D01*
X156723Y84372D01*
X156723Y84293D01*
X156735Y84214D01*
X156760Y84139D01*
X156796Y84068D01*
X156842Y84004D01*
X156898Y83948D01*
X156963Y83901D01*
X157033Y83865D01*
X157109Y83841D01*
X157187Y83828D01*
X157266Y83829D01*
X157345Y83841D01*
X157420Y83865D01*
X157490Y83903D01*
X157789Y84072D01*
X158104Y84210D01*
X158430Y84318D01*
X158765Y84397D01*
X159105Y84444D01*
X159448Y84459D01*
X159792Y84444D01*
X160132Y84397D01*
X160467Y84318D01*
X160793Y84210D01*
X161108Y84072D01*
X161409Y83906D01*
X161478Y83869D01*
X161553Y83845D01*
X161631Y83832D01*
X161709Y83832D01*
X161787Y83845D01*
X161853Y83866D01*
Y77557D01*
X161788Y77578D01*
X161710Y77590D01*
X161630Y77590D01*
X161552Y77578D01*
X161477Y77553D01*
X161407Y77516D01*
X161108Y77347D01*
X160793Y77209D01*
X160467Y77100D01*
X160132Y77022D01*
X159792Y76975D01*
X159448Y76959D01*
X159105Y76975D01*
X158765Y77022D01*
X158430Y77100D01*
X158104Y77209D01*
X157789Y77347D01*
X157488Y77513D01*
X157419Y77550D01*
X157344Y77574D01*
X157266Y77586D01*
X157187Y77586D01*
X157110Y77574D01*
X157035Y77550D01*
X156965Y77514D01*
X156901Y77468D01*
X156845Y77412D01*
X156799Y77349D01*
X156763Y77279D01*
X156739Y77204D01*
X156727Y77126D01*
X156727Y77047D01*
X156739Y76970D01*
X156763Y76895D01*
X156799Y76825D01*
X156845Y76761D01*
X156901Y76705D01*
X156965Y76660D01*
X157344Y76445D01*
X157743Y76271D01*
X158157Y76133D01*
X158581Y76034D01*
X159013Y75974D01*
X159448Y75954D01*
X159884Y75974D01*
X160315Y76034D01*
X160740Y76133D01*
X161153Y76271D01*
X161553Y76445D01*
X161853Y76611D01*
Y51508D01*
X161822Y51491D01*
X161760Y51443D01*
X161706Y51386D01*
X161663Y51320D01*
X161477Y50965D01*
X161329Y50592D01*
X161217Y50207D01*
X161142Y49813D01*
X161104Y49414D01*
Y49012D01*
X161142Y48613D01*
X161217Y48219D01*
X161329Y47834D01*
X161477Y47461D01*
X161659Y47104D01*
X161704Y47038D01*
X161758Y46980D01*
X161820Y46932D01*
X161853Y46913D01*
Y39370D01*
G37*
G36*
X155511D02*X103896D01*
Y55430D01*
X104312Y54751D01*
X105058Y53878D01*
X105932Y53131D01*
X106912Y52531D01*
X107973Y52091D01*
X109091Y51823D01*
X110236Y51733D01*
X111382Y51823D01*
X112499Y52091D01*
X113561Y52531D01*
X114540Y53131D01*
X115414Y53878D01*
X116160Y54751D01*
X116761Y55731D01*
X117200Y56793D01*
X117469Y57910D01*
X117536Y59056D01*
X117469Y60201D01*
X117200Y61318D01*
X116761Y62380D01*
X116160Y63360D01*
X115414Y64233D01*
X114540Y64980D01*
X113561Y65580D01*
X112499Y66020D01*
X111382Y66288D01*
X110236Y66378D01*
X109091Y66288D01*
X107973Y66020D01*
X106912Y65580D01*
X105932Y64980D01*
X105058Y64233D01*
X104312Y63360D01*
X103896Y62681D01*
Y76153D01*
X116519Y76416D01*
X116630Y76234D01*
X117065Y75726D01*
X117573Y75291D01*
X118144Y74942D01*
X118762Y74686D01*
X119412Y74530D01*
X120079Y74477D01*
X120746Y74530D01*
X121397Y74686D01*
X122015Y74942D01*
X122585Y75291D01*
X123094Y75726D01*
X123528Y76234D01*
X123685Y76491D01*
X134754D01*
X134843Y76484D01*
X135195Y76511D01*
X135196Y76511D01*
X135540Y76594D01*
X135867Y76730D01*
X136169Y76915D01*
X136438Y77145D01*
X136496Y77212D01*
X140308Y81024D01*
X140375Y81082D01*
X140605Y81351D01*
X140605Y81351D01*
X140790Y81653D01*
X140926Y81980D01*
X141009Y82324D01*
X141036Y82678D01*
X141030Y82766D01*
Y123810D01*
X141501Y124099D01*
X142069Y124584D01*
X142555Y125153D01*
X142945Y125790D01*
X143231Y126481D01*
X143406Y127208D01*
X143450Y127954D01*
X143406Y128699D01*
X143231Y129426D01*
X142945Y130117D01*
X142555Y130754D01*
X142069Y131323D01*
X141501Y131808D01*
X140863Y132199D01*
X140172Y132485D01*
X139445Y132660D01*
X138700Y132718D01*
X137955Y132660D01*
X137228Y132485D01*
X136537Y132199D01*
X135899Y131808D01*
X135331Y131323D01*
X134845Y130754D01*
X134455Y130117D01*
X134169Y129426D01*
X133994Y128699D01*
X133935Y127954D01*
X133994Y127208D01*
X134169Y126481D01*
X134455Y125790D01*
X134845Y125153D01*
X135331Y124584D01*
X135899Y124099D01*
X136530Y123713D01*
Y83610D01*
X133911Y80991D01*
X123685D01*
X123528Y81246D01*
X123094Y81755D01*
X122585Y82189D01*
X122015Y82539D01*
X121397Y82795D01*
X120746Y82951D01*
X120079Y83003D01*
X119412Y82951D01*
X118762Y82795D01*
X118144Y82539D01*
X117573Y82189D01*
X117065Y81755D01*
X116630Y81246D01*
X116427Y80915D01*
X103896Y80654D01*
Y86288D01*
X103927Y86305D01*
X103989Y86353D01*
X104043Y86411D01*
X104086Y86476D01*
X104272Y86831D01*
X104420Y87204D01*
X104532Y87590D01*
X104607Y87984D01*
X104645Y88383D01*
Y88784D01*
X104607Y89183D01*
X104532Y89577D01*
X104420Y89963D01*
X104272Y90336D01*
X104090Y90693D01*
X104046Y90759D01*
X103992Y90816D01*
X103929Y90865D01*
X103896Y90883D01*
Y95838D01*
X116519Y96101D01*
X116630Y95919D01*
X117065Y95411D01*
X117573Y94976D01*
X118144Y94627D01*
X118762Y94371D01*
X119412Y94215D01*
X120079Y94162D01*
X120746Y94215D01*
X121397Y94371D01*
X122015Y94627D01*
X122585Y94976D01*
X123094Y95411D01*
X123528Y95919D01*
X123878Y96490D01*
X124134Y97108D01*
X124290Y97758D01*
X124329Y98425D01*
X124290Y99092D01*
X124134Y99743D01*
X123878Y100361D01*
X123528Y100931D01*
X123094Y101440D01*
X122585Y101874D01*
X122015Y102224D01*
X121397Y102480D01*
X120746Y102636D01*
X120079Y102688D01*
X119412Y102636D01*
X118762Y102480D01*
X118144Y102224D01*
X117573Y101874D01*
X117065Y101440D01*
X116630Y100931D01*
X116427Y100600D01*
X103896Y100339D01*
Y105848D01*
X104194Y106333D01*
X104450Y106951D01*
X104606Y107601D01*
X104645Y108268D01*
X104606Y108935D01*
X104450Y109586D01*
X104194Y110204D01*
X103896Y110689D01*
Y115523D01*
X116519Y115786D01*
X116630Y115604D01*
X117065Y115096D01*
X117573Y114661D01*
X118144Y114312D01*
X118762Y114056D01*
X119412Y113900D01*
X120079Y113847D01*
X120746Y113900D01*
X121397Y114056D01*
X122015Y114312D01*
X122585Y114661D01*
X123094Y115096D01*
X123528Y115604D01*
X123878Y116175D01*
X124134Y116793D01*
X124290Y117443D01*
X124329Y118110D01*
X124290Y118777D01*
X124134Y119428D01*
X123878Y120046D01*
X123528Y120616D01*
X123094Y121125D01*
X122585Y121559D01*
X122015Y121909D01*
X121397Y122165D01*
X120746Y122321D01*
X120079Y122373D01*
X119412Y122321D01*
X118762Y122165D01*
X118144Y121909D01*
X117573Y121559D01*
X117065Y121125D01*
X116630Y120616D01*
X116427Y120285D01*
X103896Y120024D01*
Y125533D01*
X104001Y125703D01*
X123928D01*
X124016Y125696D01*
X124369Y125724D01*
X124369Y125724D01*
X124713Y125807D01*
X125040Y125942D01*
X125342Y126127D01*
X125612Y126357D01*
X125669Y126425D01*
X133418Y134174D01*
X133486Y134231D01*
X133715Y134500D01*
X133716Y134501D01*
X133901Y134803D01*
X134036Y135130D01*
X134119Y135474D01*
X134147Y135827D01*
X134140Y135915D01*
Y165971D01*
X134169Y165851D01*
X134455Y165161D01*
X134845Y164523D01*
X135331Y163955D01*
X135899Y163469D01*
X136530Y163083D01*
Y160522D01*
X136523Y160433D01*
X136550Y160080D01*
Y160080D01*
X136633Y159736D01*
X136769Y159409D01*
X136839Y159294D01*
X136954Y159107D01*
X136954Y159107D01*
X137184Y158838D01*
X137251Y158780D01*
X140079Y155952D01*
X140136Y155885D01*
X140406Y155655D01*
X140406Y155655D01*
X140593Y155540D01*
X140708Y155470D01*
X141035Y155334D01*
X141379Y155252D01*
X141379D01*
X141732Y155224D01*
X141820Y155231D01*
X155511D01*
Y120361D01*
X153491D01*
X150872Y122980D01*
Y123211D01*
X152607Y123213D01*
X152760Y123250D01*
X152905Y123310D01*
X153040Y123392D01*
X153159Y123494D01*
X153262Y123614D01*
X153344Y123748D01*
X153404Y123894D01*
X153441Y124047D01*
X153450Y124204D01*
X153441Y131860D01*
X153404Y132014D01*
X153344Y132159D01*
X153262Y132293D01*
X153159Y132413D01*
X153040Y132515D01*
X152905Y132597D01*
X152760Y132658D01*
X152607Y132694D01*
X152450Y132704D01*
X144793Y132694D01*
X144640Y132658D01*
X144495Y132597D01*
X144360Y132515D01*
X144241Y132413D01*
X144138Y132293D01*
X144056Y132159D01*
X143996Y132014D01*
X143959Y131860D01*
X143950Y131704D01*
X143959Y124047D01*
X143996Y123894D01*
X144056Y123748D01*
X144138Y123614D01*
X144241Y123494D01*
X144360Y123392D01*
X144495Y123310D01*
X144640Y123250D01*
X144793Y123213D01*
X144950Y123204D01*
X146372Y123205D01*
Y122136D01*
X146365Y122048D01*
X146393Y121695D01*
Y121695D01*
X146476Y121350D01*
X146611Y121023D01*
X146681Y120908D01*
X146796Y120721D01*
X146796Y120721D01*
X147026Y120452D01*
X147093Y120394D01*
X150906Y116582D01*
X150963Y116515D01*
X151232Y116285D01*
X151232Y116285D01*
X151420Y116170D01*
X151534Y116100D01*
X151862Y115964D01*
X152206Y115881D01*
X152206D01*
X152559Y115854D01*
X152647Y115861D01*
X155511D01*
Y83321D01*
X155500Y83313D01*
X155444Y83257D01*
X155399Y83193D01*
X155184Y82814D01*
X155010Y82414D01*
X154872Y82001D01*
X154773Y81576D01*
X154713Y81145D01*
X154693Y80709D01*
X154713Y80274D01*
X154773Y79842D01*
X154872Y79418D01*
X155010Y79004D01*
X155184Y78605D01*
X155395Y78224D01*
X155441Y78159D01*
X155497Y78103D01*
X155511Y78093D01*
Y39370D01*
G37*
G36*
X148700Y185743D02*X163542D01*
Y168964D01*
X163506Y168878D01*
X163360Y168266D01*
X163310Y167639D01*
X163360Y167011D01*
X163506Y166399D01*
X163542Y166314D01*
Y159731D01*
X148700D01*
Y162578D01*
X152607Y162583D01*
X152760Y162620D01*
X152905Y162680D01*
X153040Y162762D01*
X153159Y162864D01*
X153262Y162984D01*
X153344Y163118D01*
X153404Y163264D01*
X153441Y163417D01*
X153450Y163574D01*
X153441Y171231D01*
X153404Y171384D01*
X153344Y171529D01*
X153262Y171663D01*
X153159Y171783D01*
X153040Y171885D01*
X152905Y171967D01*
X152760Y172028D01*
X152607Y172064D01*
X152450Y172074D01*
X148700Y172069D01*
Y178853D01*
X154168D01*
X154234Y178744D01*
X154643Y178266D01*
X155122Y177857D01*
X155659Y177528D01*
X156240Y177287D01*
X156853Y177140D01*
X157480Y177090D01*
X158108Y177140D01*
X158720Y177287D01*
X159302Y177528D01*
X159839Y177857D01*
X160317Y178266D01*
X160726Y178744D01*
X161055Y179281D01*
X161296Y179863D01*
X161443Y180475D01*
X161480Y181103D01*
X161443Y181730D01*
X161296Y182343D01*
X161055Y182924D01*
X160726Y183461D01*
X160317Y183940D01*
X159839Y184349D01*
X159302Y184678D01*
X158720Y184919D01*
X158108Y185066D01*
X157480Y185115D01*
X156853Y185066D01*
X156240Y184919D01*
X155659Y184678D01*
X155122Y184349D01*
X154643Y183940D01*
X154234Y183461D01*
X154168Y183353D01*
X148700D01*
Y185743D01*
G37*
G36*
Y159731D02*X142664D01*
X141030Y161365D01*
Y163180D01*
X141501Y163469D01*
X142069Y163955D01*
X142555Y164523D01*
X142945Y165161D01*
X143231Y165851D01*
X143406Y166578D01*
X143450Y167324D01*
X143406Y168069D01*
X143231Y168796D01*
X142945Y169487D01*
X142555Y170124D01*
X142069Y170693D01*
X141501Y171178D01*
X140863Y171569D01*
X140172Y171855D01*
X139445Y172030D01*
X138700Y172088D01*
X138693Y172088D01*
Y178853D01*
X148700D01*
Y172069D01*
X144793Y172064D01*
X144640Y172028D01*
X144495Y171967D01*
X144360Y171885D01*
X144241Y171783D01*
X144138Y171663D01*
X144056Y171529D01*
X143996Y171384D01*
X143959Y171231D01*
X143950Y171074D01*
X143959Y163417D01*
X143996Y163264D01*
X144056Y163118D01*
X144138Y162984D01*
X144241Y162864D01*
X144360Y162762D01*
X144495Y162680D01*
X144640Y162620D01*
X144793Y162583D01*
X144950Y162574D01*
X148700Y162578D01*
Y159731D01*
G37*
G36*
X138693Y187850D02*X140079Y186464D01*
X140136Y186397D01*
X140406Y186167D01*
X140406Y186167D01*
X140593Y186052D01*
X140708Y185982D01*
X141035Y185846D01*
X141379Y185763D01*
X141379D01*
X141732Y185736D01*
X141820Y185743D01*
X148700D01*
Y183353D01*
X138693D01*
Y187850D01*
G37*
G36*
X148700Y202098D02*X152457Y202103D01*
X152610Y202140D01*
X152755Y202200D01*
X152890Y202282D01*
X153009Y202384D01*
X153112Y202504D01*
X153194Y202638D01*
X153254Y202784D01*
X153291Y202937D01*
X153300Y203094D01*
X153291Y210451D01*
X153254Y210604D01*
X153194Y210749D01*
X153112Y210883D01*
X153009Y211003D01*
X152890Y211105D01*
X152755Y211187D01*
X152610Y211248D01*
X152457Y211284D01*
X152300Y211294D01*
X150872Y211292D01*
Y221509D01*
X153491Y224128D01*
X163542D01*
Y190243D01*
X148700D01*
Y202098D01*
G37*
G36*
Y252672D02*X163542D01*
Y247074D01*
X163506Y246989D01*
X163360Y246376D01*
X163310Y245749D01*
X163360Y245121D01*
X163506Y244509D01*
X163542Y244424D01*
Y228628D01*
X152647D01*
X152559Y228635D01*
X152206Y228608D01*
X151862Y228525D01*
X151534Y228389D01*
X151232Y228204D01*
X151232Y228204D01*
X150963Y227974D01*
X150906Y227907D01*
X148700Y225701D01*
Y241318D01*
X152607Y241323D01*
X152760Y241360D01*
X152905Y241420D01*
X153040Y241502D01*
X153159Y241604D01*
X153262Y241724D01*
X153344Y241858D01*
X153404Y242004D01*
X153441Y242157D01*
X153450Y242314D01*
X153441Y249971D01*
X153404Y250124D01*
X153344Y250269D01*
X153262Y250403D01*
X153159Y250523D01*
X153040Y250625D01*
X152905Y250708D01*
X152760Y250768D01*
X152607Y250805D01*
X152450Y250814D01*
X148700Y250809D01*
Y252672D01*
G37*
G36*
X138693Y241300D02*X138700Y241299D01*
X139445Y241358D01*
X140172Y241532D01*
X140863Y241818D01*
X141501Y242209D01*
X142069Y242695D01*
X142555Y243263D01*
X142945Y243901D01*
X143231Y244591D01*
X143406Y245318D01*
X143450Y246064D01*
X143406Y246809D01*
X143231Y247536D01*
X142945Y248227D01*
X142555Y248864D01*
X142069Y249433D01*
X141501Y249918D01*
X141030Y250207D01*
Y252021D01*
X141680Y252672D01*
X148700D01*
Y250809D01*
X144793Y250805D01*
X144640Y250768D01*
X144495Y250708D01*
X144360Y250625D01*
X144241Y250523D01*
X144138Y250403D01*
X144056Y250269D01*
X143996Y250124D01*
X143959Y249971D01*
X143950Y249814D01*
X143959Y242157D01*
X143996Y242004D01*
X144056Y241858D01*
X144138Y241724D01*
X144241Y241604D01*
X144360Y241502D01*
X144495Y241420D01*
X144640Y241360D01*
X144793Y241323D01*
X144950Y241314D01*
X148700Y241318D01*
Y225701D01*
X147093Y224095D01*
X147026Y224037D01*
X146796Y223768D01*
X146611Y223466D01*
X146476Y223139D01*
X146393Y222794D01*
X146393Y222794D01*
X146365Y222441D01*
X146372Y222353D01*
Y211286D01*
X144943Y211284D01*
X144790Y211248D01*
X144645Y211187D01*
X144510Y211105D01*
X144391Y211003D01*
X144288Y210883D01*
X144206Y210749D01*
X144146Y210604D01*
X144109Y210451D01*
X144100Y210294D01*
X144109Y202937D01*
X144146Y202784D01*
X144206Y202638D01*
X144288Y202504D01*
X144391Y202384D01*
X144510Y202282D01*
X144645Y202200D01*
X144790Y202140D01*
X144943Y202103D01*
X145100Y202094D01*
X148700Y202098D01*
Y190243D01*
X142664D01*
X141030Y191877D01*
Y202726D01*
X141412Y202961D01*
X141963Y203431D01*
X142433Y203982D01*
X142811Y204599D01*
X143088Y205268D01*
X143257Y205972D01*
X143300Y206694D01*
X143257Y207416D01*
X143088Y208120D01*
X142811Y208789D01*
X142433Y209406D01*
X141963Y209956D01*
X141412Y210427D01*
X140795Y210805D01*
X140126Y211082D01*
X139422Y211251D01*
X138700Y211308D01*
X138693Y211307D01*
Y241300D01*
G37*
G36*
X148700Y280688D02*X152607Y280693D01*
X152760Y280730D01*
X152905Y280790D01*
X153040Y280872D01*
X153159Y280975D01*
X153262Y281094D01*
X153344Y281228D01*
X153404Y281374D01*
X153441Y281527D01*
X153450Y281684D01*
X153441Y289341D01*
X153404Y289494D01*
X153344Y289639D01*
X153262Y289773D01*
X153159Y289893D01*
X153040Y289995D01*
X152905Y290078D01*
X152760Y290138D01*
X152607Y290175D01*
X152450Y290184D01*
X150872Y290182D01*
Y290407D01*
X151523Y291057D01*
X163542D01*
Y287060D01*
X163519Y287001D01*
X163421Y286650D01*
X163355Y286293D01*
X163322Y285931D01*
Y285567D01*
X163355Y285205D01*
X163421Y284847D01*
X163519Y284497D01*
X163542Y284437D01*
Y257172D01*
X148700D01*
Y280688D01*
G37*
G36*
Y332396D02*X162454D01*
X163542Y331308D01*
Y325814D01*
X163506Y325729D01*
X163360Y325117D01*
X163310Y324489D01*
X163360Y323861D01*
X163506Y323249D01*
X163542Y323164D01*
Y295557D01*
X150679D01*
X150591Y295564D01*
X150237Y295537D01*
X149893Y295454D01*
X149566Y295318D01*
X149264Y295133D01*
X149264Y295133D01*
X148995Y294903D01*
X148937Y294836D01*
X148700Y294599D01*
Y320058D01*
X152607Y320063D01*
X152760Y320100D01*
X152905Y320160D01*
X153040Y320242D01*
X153159Y320345D01*
X153262Y320464D01*
X153344Y320599D01*
X153404Y320744D01*
X153441Y320897D01*
X153450Y321054D01*
X153441Y328711D01*
X153404Y328864D01*
X153344Y329009D01*
X153262Y329144D01*
X153159Y329263D01*
X153040Y329365D01*
X152905Y329448D01*
X152760Y329508D01*
X152607Y329545D01*
X152450Y329554D01*
X148700Y329549D01*
Y332396D01*
G37*
G36*
X138693Y320040D02*X138700Y320039D01*
X139445Y320098D01*
X140172Y320272D01*
X140863Y320559D01*
X141501Y320949D01*
X142069Y321435D01*
X142555Y322003D01*
X142945Y322641D01*
X143231Y323332D01*
X143406Y324059D01*
X143450Y324804D01*
X143406Y325549D01*
X143231Y326276D01*
X142945Y326967D01*
X142555Y327605D01*
X142069Y328173D01*
X141501Y328659D01*
X141030Y328947D01*
Y331746D01*
X141680Y332396D01*
X148700D01*
Y329549D01*
X144793Y329545D01*
X144640Y329508D01*
X144495Y329448D01*
X144360Y329365D01*
X144241Y329263D01*
X144138Y329144D01*
X144056Y329009D01*
X143996Y328864D01*
X143959Y328711D01*
X143950Y328554D01*
X143959Y320897D01*
X143996Y320744D01*
X144056Y320599D01*
X144138Y320464D01*
X144241Y320345D01*
X144360Y320242D01*
X144495Y320160D01*
X144640Y320100D01*
X144793Y320063D01*
X144950Y320054D01*
X148700Y320058D01*
Y294599D01*
X147093Y292992D01*
X147026Y292935D01*
X146796Y292666D01*
X146611Y292364D01*
X146476Y292036D01*
X146393Y291692D01*
X146393Y291692D01*
X146365Y291339D01*
X146372Y291251D01*
Y290177D01*
X144793Y290175D01*
X144640Y290138D01*
X144495Y290078D01*
X144360Y289995D01*
X144241Y289893D01*
X144138Y289773D01*
X144056Y289639D01*
X143996Y289494D01*
X143959Y289341D01*
X143950Y289184D01*
X143959Y281527D01*
X143996Y281374D01*
X144056Y281228D01*
X144138Y281094D01*
X144241Y280975D01*
X144360Y280872D01*
X144495Y280790D01*
X144640Y280730D01*
X144793Y280693D01*
X144950Y280684D01*
X148700Y280688D01*
Y257172D01*
X140836D01*
X140748Y257179D01*
X140395Y257151D01*
X140051Y257068D01*
X139723Y256933D01*
X139421Y256748D01*
X139421Y256747D01*
X139152Y256518D01*
X139095Y256450D01*
X138693Y256048D01*
Y280670D01*
X138700Y280669D01*
X139445Y280728D01*
X140172Y280902D01*
X140863Y281189D01*
X141501Y281579D01*
X142069Y282065D01*
X142555Y282633D01*
X142945Y283271D01*
X143231Y283962D01*
X143406Y284689D01*
X143450Y285434D01*
X143406Y286179D01*
X143231Y286906D01*
X142945Y287597D01*
X142555Y288234D01*
X142069Y288803D01*
X141501Y289289D01*
X140863Y289679D01*
X140172Y289965D01*
X139445Y290140D01*
X138700Y290199D01*
X138693Y290198D01*
Y320040D01*
G37*
G36*
X161853Y371766D02*X163542D01*
Y365801D01*
X163519Y365741D01*
X163421Y365391D01*
X163355Y365033D01*
X163322Y364671D01*
Y364307D01*
X163355Y363945D01*
X163421Y363587D01*
X163519Y363237D01*
X163542Y363177D01*
Y336891D01*
X163386Y336903D01*
X163298Y336896D01*
X161853D01*
Y371766D01*
G37*
G36*
Y413386D02*X163542D01*
Y407390D01*
X163245Y407239D01*
X163179Y407195D01*
X163121Y407140D01*
X163073Y407078D01*
X163035Y407008D01*
X163008Y406934D01*
X162993Y406856D01*
X162991Y406776D01*
X163001Y406698D01*
X163023Y406622D01*
X163056Y406550D01*
X163101Y406484D01*
X163155Y406427D01*
X163218Y406378D01*
X163287Y406340D01*
X163362Y406313D01*
X163440Y406298D01*
X163519Y406296D01*
X163542Y406299D01*
Y400785D01*
X163519Y400788D01*
X163440Y400786D01*
X163363Y400771D01*
X163289Y400744D01*
X163220Y400706D01*
X163158Y400658D01*
X163104Y400601D01*
X163060Y400536D01*
X163026Y400464D01*
X163004Y400389D01*
X162994Y400311D01*
X162997Y400232D01*
X163011Y400155D01*
X163038Y400081D01*
X163076Y400012D01*
X163124Y399950D01*
X163181Y399896D01*
X163247Y399853D01*
X163542Y399698D01*
Y376266D01*
X161853D01*
Y401244D01*
X161890Y401224D01*
X161965Y401197D01*
X162042Y401182D01*
X162122Y401180D01*
X162200Y401190D01*
X162276Y401212D01*
X162348Y401246D01*
X162414Y401290D01*
X162471Y401345D01*
X162520Y401407D01*
X162558Y401477D01*
X162585Y401551D01*
X162600Y401629D01*
X162602Y401709D01*
X162592Y401787D01*
X162570Y401863D01*
X162535Y401934D01*
X162393Y402205D01*
X162280Y402490D01*
X162194Y402784D01*
X162137Y403085D01*
X162108Y403390D01*
Y403697D01*
X162137Y404002D01*
X162194Y404303D01*
X162280Y404597D01*
X162393Y404882D01*
X162532Y405155D01*
X162567Y405225D01*
X162589Y405301D01*
X162599Y405379D01*
X162596Y405458D01*
X162581Y405535D01*
X162555Y405609D01*
X162517Y405678D01*
X162469Y405740D01*
X162411Y405794D01*
X162346Y405838D01*
X162275Y405872D01*
X162200Y405894D01*
X162121Y405904D01*
X162043Y405901D01*
X161965Y405887D01*
X161891Y405860D01*
X161853Y405839D01*
Y413386D01*
G37*
G36*
X138693D02*X161853D01*
Y405839D01*
X161822Y405822D01*
X161760Y405774D01*
X161706Y405717D01*
X161663Y405651D01*
X161477Y405296D01*
X161329Y404923D01*
X161217Y404538D01*
X161142Y404144D01*
X161104Y403744D01*
Y403343D01*
X161142Y402944D01*
X161217Y402550D01*
X161329Y402165D01*
X161477Y401792D01*
X161659Y401434D01*
X161704Y401369D01*
X161758Y401311D01*
X161820Y401262D01*
X161853Y401244D01*
Y376266D01*
X152647D01*
X152559Y376273D01*
X152206Y376245D01*
X151862Y376163D01*
X151534Y376027D01*
X151232Y375842D01*
X151232Y375842D01*
X150963Y375612D01*
X150906Y375545D01*
X147093Y371732D01*
X147026Y371675D01*
X146796Y371406D01*
X146611Y371104D01*
X146476Y370777D01*
X146393Y370432D01*
X146393Y370432D01*
X146365Y370079D01*
X146372Y369991D01*
Y368917D01*
X144793Y368915D01*
X144640Y368878D01*
X144495Y368818D01*
X144360Y368736D01*
X144241Y368633D01*
X144138Y368514D01*
X144056Y368379D01*
X143996Y368234D01*
X143959Y368081D01*
X143950Y367924D01*
X143959Y360267D01*
X143996Y360114D01*
X144056Y359969D01*
X144138Y359834D01*
X144241Y359715D01*
X144360Y359613D01*
X144495Y359530D01*
X144640Y359470D01*
X144793Y359433D01*
X144950Y359424D01*
X152607Y359433D01*
X152760Y359470D01*
X152905Y359530D01*
X153040Y359613D01*
X153159Y359715D01*
X153262Y359834D01*
X153344Y359969D01*
X153404Y360114D01*
X153441Y360267D01*
X153450Y360424D01*
X153441Y368081D01*
X153404Y368234D01*
X153344Y368379D01*
X153262Y368514D01*
X153159Y368633D01*
X153040Y368736D01*
X152905Y368818D01*
X152760Y368878D01*
X152607Y368915D01*
X152450Y368924D01*
X150872Y368922D01*
Y369147D01*
X153491Y371766D01*
X161853D01*
Y336896D01*
X140836D01*
X140748Y336903D01*
X140395Y336875D01*
X140051Y336793D01*
X139723Y336657D01*
X139421Y336472D01*
X139421Y336472D01*
X139152Y336242D01*
X139095Y336175D01*
X138693Y335773D01*
Y359410D01*
X138700Y359409D01*
X139445Y359468D01*
X140172Y359643D01*
X140863Y359929D01*
X141501Y360319D01*
X142069Y360805D01*
X142555Y361373D01*
X142945Y362011D01*
X143231Y362702D01*
X143406Y363429D01*
X143450Y364174D01*
X143406Y364919D01*
X143231Y365646D01*
X142945Y366337D01*
X142555Y366975D01*
X142069Y367543D01*
X141501Y368029D01*
X140863Y368419D01*
X140172Y368705D01*
X139445Y368880D01*
X138700Y368939D01*
X138693Y368938D01*
Y413386D01*
G37*
G36*
Y172088D02*X137955Y172030D01*
X137228Y171855D01*
X136537Y171569D01*
X135899Y171178D01*
X135331Y170693D01*
X134845Y170124D01*
X134455Y169487D01*
X134169Y168796D01*
X134140Y168676D01*
Y176234D01*
X136759Y178853D01*
X138693D01*
Y172088D01*
G37*
G36*
X103896Y413386D02*X138693D01*
Y368938D01*
X137955Y368880D01*
X137228Y368705D01*
X136537Y368419D01*
X135899Y368029D01*
X135331Y367543D01*
X134845Y366975D01*
X134455Y366337D01*
X134169Y365646D01*
X133994Y364919D01*
X133935Y364174D01*
X133994Y363429D01*
X134169Y362702D01*
X134455Y362011D01*
X134845Y361373D01*
X135331Y360805D01*
X135899Y360319D01*
X136537Y359929D01*
X137228Y359643D01*
X137955Y359468D01*
X138693Y359410D01*
Y335773D01*
X137251Y334331D01*
X137184Y334273D01*
X136954Y334004D01*
X136769Y333702D01*
X136633Y333375D01*
X136550Y333031D01*
X136550Y333030D01*
X136523Y332678D01*
X136530Y332589D01*
Y329045D01*
X135899Y328659D01*
X135331Y328173D01*
X134845Y327605D01*
X134455Y326967D01*
X134169Y326276D01*
X133994Y325549D01*
X133935Y324804D01*
X133994Y324059D01*
X134169Y323332D01*
X134455Y322641D01*
X134845Y322003D01*
X135331Y321435D01*
X135899Y320949D01*
X136537Y320559D01*
X137228Y320272D01*
X137955Y320098D01*
X138693Y320040D01*
Y290198D01*
X137955Y290140D01*
X137228Y289965D01*
X136537Y289679D01*
X135899Y289289D01*
X135331Y288803D01*
X134845Y288234D01*
X134455Y287597D01*
X134169Y286906D01*
X133994Y286179D01*
X133935Y285434D01*
X133994Y284689D01*
X134169Y283962D01*
X134455Y283271D01*
X134845Y282633D01*
X135331Y282065D01*
X135899Y281579D01*
X136537Y281189D01*
X137228Y280902D01*
X137955Y280728D01*
X138693Y280670D01*
Y256048D01*
X137251Y254606D01*
X137184Y254549D01*
X136954Y254280D01*
X136769Y253978D01*
X136633Y253651D01*
X136550Y253306D01*
X136550Y253306D01*
X136523Y252953D01*
X136530Y252865D01*
Y250305D01*
X135899Y249918D01*
X135331Y249433D01*
X134845Y248864D01*
X134455Y248227D01*
X134169Y247536D01*
X133994Y246809D01*
X133935Y246064D01*
X133994Y245318D01*
X134169Y244591D01*
X134455Y243901D01*
X134845Y243263D01*
X135331Y242695D01*
X135899Y242209D01*
X136537Y241818D01*
X137228Y241532D01*
X137955Y241358D01*
X138693Y241300D01*
Y211307D01*
X137978Y211251D01*
X137274Y211082D01*
X136605Y210805D01*
X135988Y210427D01*
X135437Y209956D01*
X134967Y209406D01*
X134589Y208789D01*
X134312Y208120D01*
X134143Y207416D01*
X134086Y206694D01*
X134143Y205972D01*
X134312Y205268D01*
X134589Y204599D01*
X134967Y203982D01*
X135437Y203431D01*
X135988Y202961D01*
X136530Y202629D01*
Y191033D01*
X136523Y190945D01*
X136550Y190592D01*
Y190592D01*
X136633Y190248D01*
X136769Y189921D01*
X136839Y189806D01*
X136954Y189619D01*
X136954Y189619D01*
X137184Y189349D01*
X137251Y189292D01*
X138693Y187850D01*
Y183353D01*
X135915D01*
X135827Y183360D01*
X135474Y183332D01*
X135129Y183249D01*
X134802Y183114D01*
X134500Y182929D01*
X134500Y182928D01*
X134231Y182699D01*
X134173Y182631D01*
X130361Y178819D01*
X130294Y178762D01*
X130064Y178492D01*
X129879Y178190D01*
X129743Y177863D01*
X129661Y177519D01*
X129661Y177519D01*
X129633Y177166D01*
X129640Y177078D01*
Y136759D01*
X123084Y130203D01*
X104001D01*
X103896Y130374D01*
Y135208D01*
X116519Y135471D01*
X116630Y135290D01*
X117065Y134781D01*
X117573Y134346D01*
X118144Y133997D01*
X118762Y133741D01*
X119412Y133585D01*
X120079Y133532D01*
X120746Y133585D01*
X121397Y133741D01*
X122015Y133997D01*
X122585Y134346D01*
X123094Y134781D01*
X123528Y135290D01*
X123878Y135860D01*
X124134Y136478D01*
X124290Y137128D01*
X124329Y137795D01*
X124290Y138462D01*
X124134Y139113D01*
X123878Y139731D01*
X123528Y140301D01*
X123094Y140810D01*
X122585Y141244D01*
X122015Y141594D01*
X121397Y141850D01*
X120746Y142006D01*
X120079Y142058D01*
X119412Y142006D01*
X118762Y141850D01*
X118144Y141594D01*
X117573Y141244D01*
X117065Y140810D01*
X116630Y140301D01*
X116427Y139970D01*
X103896Y139709D01*
Y145217D01*
X104194Y145703D01*
X104450Y146321D01*
X104606Y146971D01*
X104645Y147638D01*
X104606Y148305D01*
X104450Y148956D01*
X104194Y149574D01*
X103896Y150059D01*
Y154893D01*
X116519Y155156D01*
X116630Y154975D01*
X117065Y154466D01*
X117573Y154031D01*
X118144Y153682D01*
X118762Y153426D01*
X119412Y153270D01*
X120079Y153217D01*
X120746Y153270D01*
X121397Y153426D01*
X122015Y153682D01*
X122585Y154031D01*
X123094Y154466D01*
X123528Y154975D01*
X123878Y155545D01*
X124134Y156163D01*
X124290Y156813D01*
X124329Y157480D01*
X124290Y158147D01*
X124134Y158798D01*
X123878Y159416D01*
X123528Y159986D01*
X123094Y160495D01*
X122585Y160929D01*
X122015Y161279D01*
X121397Y161535D01*
X120746Y161691D01*
X120079Y161743D01*
X119412Y161691D01*
X118762Y161535D01*
X118144Y161279D01*
X117573Y160929D01*
X117065Y160495D01*
X116630Y159986D01*
X116427Y159655D01*
X103896Y159394D01*
Y164902D01*
X104194Y165388D01*
X104450Y166006D01*
X104606Y166656D01*
X104645Y167323D01*
X104606Y167990D01*
X104450Y168641D01*
X104194Y169259D01*
X103896Y169744D01*
Y174916D01*
X116473D01*
X116630Y174660D01*
X117065Y174151D01*
X117573Y173716D01*
X118144Y173367D01*
X118762Y173111D01*
X119412Y172955D01*
X120079Y172902D01*
X120746Y172955D01*
X121397Y173111D01*
X122015Y173367D01*
X122585Y173716D01*
X123094Y174151D01*
X123528Y174660D01*
X123878Y175230D01*
X124134Y175848D01*
X124290Y176498D01*
X124329Y177165D01*
X124290Y177832D01*
X124134Y178483D01*
X123878Y179101D01*
X123528Y179671D01*
X123094Y180180D01*
X122585Y180614D01*
X122015Y180964D01*
X121397Y181220D01*
X120746Y181376D01*
X120079Y181428D01*
X119412Y181376D01*
X118762Y181220D01*
X118144Y180964D01*
X117573Y180614D01*
X117065Y180180D01*
X116630Y179671D01*
X116474Y179416D01*
X103896D01*
Y184588D01*
X104194Y185073D01*
X104450Y185691D01*
X104606Y186341D01*
X104645Y187008D01*
X104606Y187675D01*
X104450Y188326D01*
X104194Y188944D01*
X103896Y189429D01*
Y194263D01*
X116519Y194526D01*
X116630Y194345D01*
X117065Y193836D01*
X117573Y193401D01*
X118144Y193052D01*
X118762Y192796D01*
X119412Y192640D01*
X120079Y192587D01*
X120746Y192640D01*
X121397Y192796D01*
X122015Y193052D01*
X122585Y193401D01*
X123094Y193836D01*
X123528Y194345D01*
X123878Y194915D01*
X124134Y195533D01*
X124290Y196183D01*
X124329Y196850D01*
X124290Y197517D01*
X124134Y198168D01*
X123878Y198786D01*
X123528Y199356D01*
X123094Y199865D01*
X122585Y200299D01*
X122015Y200649D01*
X121397Y200905D01*
X120746Y201061D01*
X120079Y201113D01*
X119412Y201061D01*
X118762Y200905D01*
X118144Y200649D01*
X117573Y200299D01*
X117065Y199865D01*
X116630Y199356D01*
X116428Y199025D01*
X103896Y198764D01*
Y204273D01*
X104194Y204758D01*
X104450Y205376D01*
X104606Y206026D01*
X104645Y206693D01*
X104606Y207360D01*
X104450Y208011D01*
X104194Y208629D01*
X103896Y209114D01*
Y214286D01*
X116473D01*
X116630Y214030D01*
X117065Y213521D01*
X117573Y213086D01*
X118144Y212737D01*
X118762Y212481D01*
X119412Y212325D01*
X120079Y212272D01*
X120746Y212325D01*
X121397Y212481D01*
X122015Y212737D01*
X122585Y213086D01*
X123094Y213521D01*
X123528Y214030D01*
X123878Y214600D01*
X124134Y215218D01*
X124290Y215868D01*
X124329Y216535D01*
X124290Y217202D01*
X124134Y217853D01*
X123878Y218471D01*
X123528Y219041D01*
X123094Y219550D01*
X122585Y219984D01*
X122015Y220334D01*
X121397Y220590D01*
X120746Y220746D01*
X120079Y220798D01*
X119412Y220746D01*
X118762Y220590D01*
X118144Y220334D01*
X117573Y219984D01*
X117065Y219550D01*
X116630Y219041D01*
X116474Y218786D01*
X103896D01*
Y223958D01*
X104194Y224443D01*
X104450Y225061D01*
X104606Y225711D01*
X104645Y226378D01*
X104606Y227045D01*
X104450Y227696D01*
X104194Y228314D01*
X103896Y228799D01*
Y233971D01*
X116473D01*
X116630Y233715D01*
X117065Y233206D01*
X117573Y232771D01*
X118144Y232422D01*
X118762Y232166D01*
X119412Y232010D01*
X120079Y231957D01*
X120746Y232010D01*
X121397Y232166D01*
X122015Y232422D01*
X122585Y232771D01*
X123094Y233206D01*
X123528Y233715D01*
X123878Y234285D01*
X124134Y234903D01*
X124290Y235553D01*
X124329Y236220D01*
X124290Y236887D01*
X124134Y237538D01*
X123878Y238156D01*
X123528Y238726D01*
X123094Y239235D01*
X122585Y239669D01*
X122015Y240019D01*
X121397Y240275D01*
X120746Y240431D01*
X120079Y240483D01*
X119412Y240431D01*
X118762Y240275D01*
X118144Y240019D01*
X117573Y239669D01*
X117065Y239235D01*
X116630Y238726D01*
X116474Y238471D01*
X103896D01*
Y243643D01*
X104194Y244128D01*
X104450Y244746D01*
X104606Y245396D01*
X104645Y246063D01*
X104606Y246730D01*
X104450Y247381D01*
X104194Y247999D01*
X103896Y248484D01*
Y253656D01*
X116473D01*
X116630Y253400D01*
X117065Y252891D01*
X117573Y252456D01*
X118144Y252107D01*
X118762Y251851D01*
X119412Y251695D01*
X120079Y251642D01*
X120746Y251695D01*
X121397Y251851D01*
X122015Y252107D01*
X122585Y252456D01*
X123094Y252891D01*
X123528Y253400D01*
X123878Y253970D01*
X124134Y254588D01*
X124290Y255238D01*
X124329Y255905D01*
X124290Y256572D01*
X124200Y256947D01*
X124610Y256597D01*
X125147Y256268D01*
X125729Y256027D01*
X126341Y255880D01*
X126969Y255831D01*
X127596Y255880D01*
X128208Y256027D01*
X128790Y256268D01*
X129327Y256597D01*
X129806Y257006D01*
X130215Y257485D01*
X130544Y258021D01*
X130784Y258603D01*
X130931Y259215D01*
X130969Y259843D01*
X130931Y260471D01*
X130784Y261083D01*
X130544Y261664D01*
X130215Y262201D01*
X129806Y262680D01*
X129327Y263089D01*
X129219Y263155D01*
Y272278D01*
X129327Y272345D01*
X129806Y272754D01*
X130215Y273233D01*
X130544Y273769D01*
X130784Y274351D01*
X130931Y274963D01*
X130969Y275591D01*
X130931Y276219D01*
X130784Y276831D01*
X130544Y277413D01*
X130215Y277949D01*
X129806Y278428D01*
X129327Y278837D01*
X128790Y279166D01*
X128208Y279407D01*
X127596Y279554D01*
X126969Y279603D01*
X126341Y279554D01*
X125729Y279407D01*
X125147Y279166D01*
X124610Y278837D01*
X124131Y278428D01*
X123722Y277949D01*
X123670Y277864D01*
X123528Y278096D01*
X123094Y278605D01*
X122585Y279039D01*
X122015Y279389D01*
X121397Y279645D01*
X120746Y279801D01*
X120079Y279853D01*
X119412Y279801D01*
X118762Y279645D01*
X118144Y279389D01*
X117573Y279039D01*
X117065Y278605D01*
X116630Y278096D01*
X116474Y277841D01*
X103896D01*
Y283013D01*
X104194Y283498D01*
X104450Y284116D01*
X104606Y284767D01*
X104645Y285433D01*
X104606Y286100D01*
X104450Y286751D01*
X104194Y287369D01*
X103896Y287854D01*
Y293363D01*
X116427Y293102D01*
X116630Y292770D01*
X117065Y292261D01*
X117573Y291826D01*
X118144Y291477D01*
X118762Y291221D01*
X119412Y291065D01*
X120079Y291012D01*
X120746Y291065D01*
X121397Y291221D01*
X122015Y291477D01*
X122585Y291826D01*
X123094Y292261D01*
X123528Y292770D01*
X123878Y293340D01*
X124134Y293958D01*
X124290Y294608D01*
X124329Y295275D01*
X124290Y295942D01*
X124134Y296593D01*
X123878Y297211D01*
X123528Y297781D01*
X123094Y298290D01*
X122585Y298724D01*
X122015Y299074D01*
X121397Y299330D01*
X120746Y299486D01*
X120079Y299538D01*
X119412Y299486D01*
X118762Y299330D01*
X118144Y299074D01*
X117573Y298724D01*
X117065Y298290D01*
X116630Y297781D01*
X116520Y297601D01*
X103896Y297864D01*
Y302698D01*
X104194Y303183D01*
X104450Y303801D01*
X104606Y304452D01*
X104645Y305119D01*
X104606Y305785D01*
X104450Y306436D01*
X104194Y307054D01*
X103896Y307539D01*
Y313048D01*
X116427Y312787D01*
X116630Y312455D01*
X117065Y311946D01*
X117573Y311511D01*
X118144Y311162D01*
X118762Y310906D01*
X119412Y310750D01*
X120079Y310697D01*
X120746Y310750D01*
X121397Y310906D01*
X122015Y311162D01*
X122585Y311511D01*
X123094Y311946D01*
X123528Y312455D01*
X123878Y313025D01*
X124134Y313643D01*
X124290Y314293D01*
X124329Y314960D01*
X124290Y315627D01*
X124134Y316278D01*
X123878Y316896D01*
X123528Y317466D01*
X123094Y317975D01*
X122585Y318409D01*
X122015Y318759D01*
X121397Y319015D01*
X120746Y319171D01*
X120079Y319223D01*
X119412Y319171D01*
X118762Y319015D01*
X118144Y318759D01*
X117573Y318409D01*
X117065Y317975D01*
X116630Y317466D01*
X116520Y317286D01*
X103896Y317549D01*
Y322383D01*
X104194Y322868D01*
X104450Y323486D01*
X104606Y324136D01*
X104645Y324803D01*
X104606Y325470D01*
X104450Y326121D01*
X104194Y326739D01*
X103896Y327224D01*
Y332733D01*
X116427Y332472D01*
X116630Y332139D01*
X117065Y331631D01*
X117573Y331196D01*
X118144Y330847D01*
X118762Y330591D01*
X119412Y330435D01*
X120079Y330382D01*
X120746Y330435D01*
X121397Y330591D01*
X122015Y330847D01*
X122585Y331196D01*
X123094Y331631D01*
X123528Y332139D01*
X123878Y332710D01*
X124134Y333328D01*
X124290Y333978D01*
X124329Y334645D01*
X124290Y335312D01*
X124134Y335963D01*
X123878Y336581D01*
X123528Y337151D01*
X123094Y337660D01*
X122585Y338094D01*
X122015Y338444D01*
X121397Y338700D01*
X120746Y338856D01*
X120079Y338908D01*
X119412Y338856D01*
X118762Y338700D01*
X118144Y338444D01*
X117573Y338094D01*
X117065Y337660D01*
X116630Y337151D01*
X116520Y336971D01*
X103896Y337234D01*
Y342068D01*
X104194Y342553D01*
X104450Y343171D01*
X104606Y343821D01*
X104645Y344488D01*
X104606Y345155D01*
X104450Y345806D01*
X104194Y346424D01*
X103896Y346909D01*
Y352418D01*
X116427Y352157D01*
X116630Y351825D01*
X117065Y351316D01*
X117573Y350881D01*
X118144Y350532D01*
X118762Y350276D01*
X119412Y350120D01*
X120079Y350067D01*
X120746Y350120D01*
X121397Y350276D01*
X122015Y350532D01*
X122585Y350881D01*
X123094Y351316D01*
X123528Y351825D01*
X123878Y352395D01*
X124134Y353013D01*
X124290Y353663D01*
X124329Y354330D01*
X124290Y354997D01*
X124134Y355648D01*
X123878Y356266D01*
X123528Y356836D01*
X123094Y357345D01*
X122585Y357779D01*
X122015Y358129D01*
X121397Y358385D01*
X120746Y358541D01*
X120079Y358593D01*
X119412Y358541D01*
X118762Y358385D01*
X118144Y358129D01*
X117573Y357779D01*
X117065Y357345D01*
X116630Y356836D01*
X116520Y356656D01*
X103896Y356919D01*
Y361752D01*
X104194Y362238D01*
X104450Y362856D01*
X104606Y363506D01*
X104645Y364173D01*
X104606Y364840D01*
X104450Y365491D01*
X104194Y366109D01*
X103896Y366594D01*
Y372103D01*
X115837Y371854D01*
X115838Y370608D01*
X115875Y370455D01*
X115935Y370310D01*
X116018Y370176D01*
X116120Y370056D01*
X116240Y369954D01*
X116374Y369872D01*
X116519Y369811D01*
X116672Y369775D01*
X116829Y369765D01*
X123486Y369775D01*
X123639Y369811D01*
X123785Y369872D01*
X123919Y369954D01*
X124039Y370056D01*
X124141Y370176D01*
X124223Y370310D01*
X124283Y370455D01*
X124320Y370608D01*
X124329Y370765D01*
X124320Y377422D01*
X124283Y377575D01*
X124223Y377721D01*
X124141Y377855D01*
X124039Y377975D01*
X123919Y378077D01*
X123785Y378159D01*
X123639Y378219D01*
X123486Y378256D01*
X123329Y378265D01*
X116672Y378256D01*
X116519Y378219D01*
X116374Y378159D01*
X116240Y378077D01*
X116120Y377975D01*
X116018Y377855D01*
X115935Y377721D01*
X115875Y377575D01*
X115838Y377422D01*
X115829Y377265D01*
X115830Y376355D01*
X103896Y376604D01*
Y390076D01*
X104312Y389397D01*
X105058Y388523D01*
X105932Y387777D01*
X106912Y387177D01*
X107973Y386737D01*
X109091Y386469D01*
X110236Y386379D01*
X111382Y386469D01*
X112499Y386737D01*
X113561Y387177D01*
X114540Y387777D01*
X115414Y388523D01*
X116160Y389397D01*
X116761Y390377D01*
X117200Y391438D01*
X117469Y392556D01*
X117536Y393701D01*
X117469Y394847D01*
X117200Y395964D01*
X116761Y397026D01*
X116160Y398005D01*
X115414Y398879D01*
X114540Y399625D01*
X113561Y400226D01*
X112499Y400665D01*
X111382Y400934D01*
X110236Y401024D01*
X109091Y400934D01*
X107973Y400665D01*
X106912Y400226D01*
X105932Y399625D01*
X105058Y398879D01*
X104312Y398005D01*
X103896Y397327D01*
Y413386D01*
G37*
G36*
Y366594D02*X103844Y366679D01*
X103410Y367188D01*
X102901Y367622D01*
X102331Y367972D01*
X101713Y368228D01*
X101062Y368384D01*
X100397Y368436D01*
Y372176D01*
X103896Y372103D01*
Y366594D01*
G37*
G36*
Y356919D02*X100397Y356992D01*
Y359910D01*
X101062Y359963D01*
X101713Y360119D01*
X102331Y360375D01*
X102901Y360724D01*
X103410Y361159D01*
X103844Y361667D01*
X103896Y361752D01*
Y356919D01*
G37*
G36*
Y346909D02*X103844Y346994D01*
X103410Y347503D01*
X102901Y347937D01*
X102331Y348287D01*
X101713Y348543D01*
X101062Y348699D01*
X100397Y348751D01*
Y352491D01*
X103896Y352418D01*
Y346909D01*
G37*
G36*
Y337234D02*X100397Y337307D01*
Y340225D01*
X101062Y340278D01*
X101713Y340434D01*
X102331Y340690D01*
X102901Y341039D01*
X103410Y341474D01*
X103844Y341983D01*
X103896Y342068D01*
Y337234D01*
G37*
G36*
Y327224D02*X103844Y327309D01*
X103410Y327818D01*
X102901Y328252D01*
X102331Y328602D01*
X101713Y328858D01*
X101062Y329014D01*
X100397Y329066D01*
Y332806D01*
X103896Y332733D01*
Y327224D01*
G37*
G36*
Y317549D02*X100397Y317622D01*
Y320540D01*
X101062Y320593D01*
X101713Y320749D01*
X102331Y321005D01*
X102901Y321354D01*
X103410Y321789D01*
X103844Y322298D01*
X103896Y322383D01*
Y317549D01*
G37*
G36*
Y307539D02*X103844Y307624D01*
X103410Y308133D01*
X102901Y308567D01*
X102331Y308917D01*
X101713Y309173D01*
X101062Y309329D01*
X100397Y309381D01*
Y313121D01*
X103896Y313048D01*
Y307539D01*
G37*
G36*
Y297864D02*X100397Y297937D01*
Y300856D01*
X101062Y300908D01*
X101713Y301064D01*
X102331Y301320D01*
X102901Y301670D01*
X103410Y302104D01*
X103844Y302613D01*
X103896Y302698D01*
Y297864D01*
G37*
G36*
Y287854D02*X103844Y287939D01*
X103410Y288448D01*
X102901Y288882D01*
X102331Y289232D01*
X101713Y289488D01*
X101062Y289644D01*
X100397Y289696D01*
Y293436D01*
X103896Y293363D01*
Y287854D01*
G37*
G36*
Y277841D02*X100397D01*
Y281170D01*
X101062Y281223D01*
X101713Y281379D01*
X102331Y281635D01*
X102901Y281985D01*
X103410Y282419D01*
X103844Y282928D01*
X103896Y283013D01*
Y277841D01*
G37*
G36*
Y248484D02*X103844Y248569D01*
X103410Y249078D01*
X102901Y249512D01*
X102331Y249862D01*
X101713Y250118D01*
X101062Y250274D01*
X100397Y250326D01*
Y253656D01*
X103896D01*
Y248484D01*
G37*
G36*
Y238471D02*X100397D01*
Y241800D01*
X101062Y241853D01*
X101713Y242009D01*
X102331Y242265D01*
X102901Y242614D01*
X103410Y243049D01*
X103844Y243558D01*
X103896Y243643D01*
Y238471D01*
G37*
G36*
Y228799D02*X103844Y228884D01*
X103410Y229393D01*
X102901Y229827D01*
X102331Y230177D01*
X101713Y230433D01*
X101062Y230589D01*
X100397Y230641D01*
Y233971D01*
X103896D01*
Y228799D01*
G37*
G36*
Y218786D02*X100397D01*
Y222115D01*
X101062Y222168D01*
X101713Y222324D01*
X102331Y222580D01*
X102901Y222929D01*
X103410Y223364D01*
X103844Y223873D01*
X103896Y223958D01*
Y218786D01*
G37*
G36*
Y209114D02*X103844Y209199D01*
X103410Y209708D01*
X102901Y210142D01*
X102331Y210492D01*
X101713Y210748D01*
X101062Y210904D01*
X100397Y210956D01*
Y214286D01*
X103896D01*
Y209114D01*
G37*
G36*
Y198764D02*X100397Y198691D01*
Y202430D01*
X101062Y202483D01*
X101713Y202639D01*
X102331Y202895D01*
X102901Y203244D01*
X103410Y203679D01*
X103844Y204188D01*
X103896Y204273D01*
Y198764D01*
G37*
G36*
Y189429D02*X103844Y189514D01*
X103410Y190023D01*
X102901Y190457D01*
X102331Y190807D01*
X101713Y191063D01*
X101062Y191219D01*
X100397Y191271D01*
Y194190D01*
X103896Y194263D01*
Y189429D01*
G37*
G36*
Y179416D02*X100397D01*
Y182745D01*
X101062Y182798D01*
X101713Y182954D01*
X102331Y183210D01*
X102901Y183559D01*
X103410Y183994D01*
X103844Y184503D01*
X103896Y184588D01*
Y179416D01*
G37*
G36*
Y169744D02*X103844Y169829D01*
X103410Y170338D01*
X102901Y170772D01*
X102331Y171122D01*
X101713Y171378D01*
X101062Y171534D01*
X100397Y171586D01*
Y174916D01*
X103896D01*
Y169744D01*
G37*
G36*
Y159394D02*X100397Y159321D01*
Y163060D01*
X101062Y163113D01*
X101713Y163269D01*
X102331Y163525D01*
X102901Y163874D01*
X103410Y164309D01*
X103844Y164817D01*
X103896Y164902D01*
Y159394D01*
G37*
G36*
Y150059D02*X103844Y150144D01*
X103410Y150653D01*
X102901Y151087D01*
X102331Y151437D01*
X101713Y151693D01*
X101062Y151849D01*
X100397Y151901D01*
Y154820D01*
X103896Y154893D01*
Y150059D01*
G37*
G36*
Y139709D02*X100397Y139636D01*
Y143375D01*
X101062Y143428D01*
X101713Y143584D01*
X102331Y143840D01*
X102901Y144189D01*
X103410Y144624D01*
X103844Y145132D01*
X103896Y145217D01*
Y139709D01*
G37*
G36*
Y130374D02*X103844Y130459D01*
X103410Y130968D01*
X102901Y131402D01*
X102331Y131752D01*
X101713Y132008D01*
X101062Y132164D01*
X100397Y132216D01*
Y135135D01*
X103896Y135208D01*
Y130374D01*
G37*
G36*
Y120024D02*X100397Y119951D01*
Y123690D01*
X101062Y123743D01*
X101713Y123899D01*
X102331Y124155D01*
X102901Y124504D01*
X103410Y124939D01*
X103844Y125448D01*
X103896Y125533D01*
Y120024D01*
G37*
G36*
Y110689D02*X103844Y110774D01*
X103410Y111283D01*
X102901Y111717D01*
X102331Y112067D01*
X101713Y112323D01*
X101062Y112479D01*
X100397Y112531D01*
Y115450D01*
X103896Y115523D01*
Y110689D01*
G37*
G36*
Y100339D02*X100397Y100266D01*
Y104005D01*
X101062Y104058D01*
X101713Y104214D01*
X102331Y104470D01*
X102901Y104819D01*
X103410Y105254D01*
X103844Y105763D01*
X103896Y105848D01*
Y100339D01*
G37*
G36*
Y80654D02*X100397Y80581D01*
Y84333D01*
X100596D01*
X100995Y84371D01*
X101389Y84446D01*
X101774Y84558D01*
X102147Y84706D01*
X102505Y84888D01*
X102570Y84933D01*
X102628Y84987D01*
X102677Y85050D01*
X102715Y85119D01*
X102742Y85194D01*
X102757Y85272D01*
X102759Y85351D01*
X102749Y85429D01*
X102727Y85506D01*
X102693Y85577D01*
X102649Y85643D01*
X102594Y85701D01*
X102532Y85749D01*
X102462Y85787D01*
X102388Y85814D01*
X102310Y85829D01*
X102230Y85831D01*
X102152Y85821D01*
X102076Y85799D01*
X102005Y85764D01*
X101734Y85622D01*
X101449Y85509D01*
X101154Y85423D01*
X100853Y85366D01*
X100548Y85337D01*
X100397D01*
Y91830D01*
X100548D01*
X100853Y91801D01*
X101154Y91744D01*
X101449Y91658D01*
X101734Y91545D01*
X102006Y91406D01*
X102077Y91371D01*
X102153Y91349D01*
X102231Y91339D01*
X102309Y91342D01*
X102387Y91356D01*
X102461Y91383D01*
X102530Y91421D01*
X102592Y91469D01*
X102646Y91526D01*
X102690Y91592D01*
X102723Y91663D01*
X102745Y91738D01*
X102755Y91816D01*
X102753Y91895D01*
X102738Y91972D01*
X102712Y92046D01*
X102674Y92115D01*
X102625Y92178D01*
X102568Y92231D01*
X102502Y92274D01*
X102147Y92461D01*
X101774Y92608D01*
X101389Y92720D01*
X100995Y92796D01*
X100596Y92833D01*
X100397D01*
Y95765D01*
X103896Y95838D01*
Y90883D01*
X103860Y90903D01*
X103785Y90930D01*
X103707Y90945D01*
X103628Y90947D01*
X103549Y90937D01*
X103473Y90915D01*
X103401Y90881D01*
X103336Y90837D01*
X103278Y90782D01*
X103230Y90720D01*
X103191Y90650D01*
X103165Y90576D01*
X103150Y90498D01*
X103147Y90419D01*
X103157Y90340D01*
X103179Y90264D01*
X103215Y90193D01*
X103357Y89922D01*
X103470Y89637D01*
X103555Y89343D01*
X103613Y89042D01*
X103642Y88737D01*
Y88430D01*
X103613Y88125D01*
X103555Y87824D01*
X103470Y87530D01*
X103357Y87245D01*
X103218Y86972D01*
X103183Y86902D01*
X103161Y86826D01*
X103151Y86748D01*
X103153Y86669D01*
X103168Y86592D01*
X103195Y86518D01*
X103233Y86449D01*
X103281Y86387D01*
X103338Y86333D01*
X103403Y86289D01*
X103474Y86255D01*
X103550Y86233D01*
X103628Y86223D01*
X103707Y86226D01*
X103784Y86240D01*
X103858Y86267D01*
X103896Y86288D01*
Y80654D01*
G37*
G36*
Y39370D02*X100397D01*
Y76080D01*
X103896Y76153D01*
Y62681D01*
X103712Y62380D01*
X103272Y61318D01*
X103004Y60201D01*
X102914Y59056D01*
X103004Y57910D01*
X103272Y56793D01*
X103712Y55731D01*
X103896Y55430D01*
Y39370D01*
G37*
G36*
X100397Y413386D02*X103896D01*
Y397327D01*
X103712Y397026D01*
X103272Y395964D01*
X103004Y394847D01*
X102914Y393701D01*
X103004Y392556D01*
X103272Y391438D01*
X103712Y390377D01*
X103896Y390076D01*
Y376604D01*
X100397Y376677D01*
Y413386D01*
G37*
G36*
Y368436D02*X100395Y368436D01*
X99728Y368384D01*
X99078Y368228D01*
X98460Y367972D01*
X97889Y367622D01*
X97381Y367188D01*
X96946Y366679D01*
X96847Y366518D01*
X81962Y366909D01*
Y372560D01*
X100397Y372176D01*
Y368436D01*
G37*
G36*
Y356992D02*X81962Y357376D01*
Y362408D01*
X96731Y362019D01*
X96946Y361667D01*
X97381Y361159D01*
X97889Y360724D01*
X98460Y360375D01*
X99078Y360119D01*
X99728Y359963D01*
X100395Y359910D01*
X100397Y359910D01*
Y356992D01*
G37*
G36*
Y348751D02*X100395Y348751D01*
X99728Y348699D01*
X99078Y348543D01*
X98460Y348287D01*
X97889Y347937D01*
X97381Y347503D01*
X96946Y346994D01*
X96847Y346833D01*
X81962Y347224D01*
Y352875D01*
X100397Y352491D01*
Y348751D01*
G37*
G36*
Y337307D02*X81962Y337691D01*
Y342723D01*
X96731Y342334D01*
X96946Y341983D01*
X97381Y341474D01*
X97889Y341039D01*
X98460Y340690D01*
X99078Y340434D01*
X99728Y340278D01*
X100395Y340225D01*
X100397Y340225D01*
Y337307D01*
G37*
G36*
Y329066D02*X100395Y329066D01*
X99728Y329014D01*
X99078Y328858D01*
X98460Y328602D01*
X97889Y328252D01*
X97381Y327818D01*
X96946Y327309D01*
X96847Y327148D01*
X81962Y327539D01*
Y333190D01*
X100397Y332806D01*
Y329066D01*
G37*
G36*
Y317622D02*X81962Y318006D01*
Y323038D01*
X96731Y322649D01*
X96946Y322298D01*
X97381Y321789D01*
X97889Y321354D01*
X98460Y321005D01*
X99078Y320749D01*
X99728Y320593D01*
X100395Y320540D01*
X100397Y320540D01*
Y317622D01*
G37*
G36*
Y309381D02*X100395Y309382D01*
X99728Y309329D01*
X99078Y309173D01*
X98460Y308917D01*
X97889Y308567D01*
X97381Y308133D01*
X96946Y307624D01*
X96847Y307463D01*
X81962Y307854D01*
Y313505D01*
X100397Y313121D01*
Y309381D01*
G37*
G36*
Y297937D02*X81962Y298321D01*
Y303353D01*
X96731Y302964D01*
X96946Y302613D01*
X97381Y302104D01*
X97889Y301670D01*
X98460Y301320D01*
X99078Y301064D01*
X99728Y300908D01*
X100395Y300855D01*
X100397Y300856D01*
Y297937D01*
G37*
G36*
Y289696D02*X100395Y289697D01*
X99728Y289644D01*
X99078Y289488D01*
X98460Y289232D01*
X97889Y288882D01*
X97381Y288448D01*
X96946Y287939D01*
X96790Y287683D01*
X81962D01*
Y293820D01*
X100397Y293436D01*
Y289696D01*
G37*
G36*
Y277841D02*X81962D01*
Y283183D01*
X96790D01*
X96946Y282928D01*
X97381Y282419D01*
X97889Y281985D01*
X98460Y281635D01*
X99078Y281379D01*
X99728Y281223D01*
X100395Y281170D01*
X100397Y281170D01*
Y277841D01*
G37*
G36*
Y250326D02*X100395Y250326D01*
X99728Y250274D01*
X99078Y250118D01*
X98460Y249862D01*
X97889Y249512D01*
X97381Y249078D01*
X96946Y248569D01*
X96790Y248313D01*
X81962D01*
Y253656D01*
X100397D01*
Y250326D01*
G37*
G36*
Y238471D02*X81962D01*
Y243813D01*
X96790D01*
X96946Y243558D01*
X97381Y243049D01*
X97889Y242614D01*
X98460Y242265D01*
X99078Y242009D01*
X99728Y241853D01*
X100395Y241800D01*
X100397Y241800D01*
Y238471D01*
G37*
G36*
Y230641D02*X100395Y230641D01*
X99728Y230589D01*
X99078Y230433D01*
X98460Y230177D01*
X97889Y229827D01*
X97381Y229393D01*
X96946Y228884D01*
X96790Y228628D01*
X81962D01*
Y233971D01*
X100397D01*
Y230641D01*
G37*
G36*
Y218786D02*X81962D01*
Y224128D01*
X96790D01*
X96946Y223873D01*
X97381Y223364D01*
X97889Y222929D01*
X98460Y222580D01*
X99078Y222324D01*
X99728Y222168D01*
X100395Y222115D01*
X100397Y222115D01*
Y218786D01*
G37*
G36*
Y210956D02*X100395Y210956D01*
X99728Y210904D01*
X99078Y210748D01*
X98460Y210492D01*
X97889Y210142D01*
X97381Y209708D01*
X96946Y209199D01*
X96790Y208943D01*
X81962D01*
Y214286D01*
X100397D01*
Y210956D01*
G37*
G36*
Y198691D02*X81962Y198307D01*
Y204443D01*
X96790D01*
X96946Y204188D01*
X97381Y203679D01*
X97889Y203244D01*
X98460Y202895D01*
X99078Y202639D01*
X99728Y202483D01*
X100395Y202430D01*
X100397Y202430D01*
Y198691D01*
G37*
G36*
Y191271D02*X100395Y191271D01*
X99728Y191219D01*
X99078Y191063D01*
X98460Y190807D01*
X97889Y190457D01*
X97381Y190023D01*
X96946Y189514D01*
X96789Y189258D01*
X81962D01*
Y193806D01*
X100397Y194190D01*
Y191271D01*
G37*
G36*
Y179416D02*X81962D01*
Y184758D01*
X96790D01*
X96946Y184503D01*
X97381Y183994D01*
X97889Y183559D01*
X98460Y183210D01*
X99078Y182954D01*
X99728Y182798D01*
X100395Y182745D01*
X100397Y182745D01*
Y179416D01*
G37*
G36*
Y171586D02*X100395Y171586D01*
X99728Y171534D01*
X99078Y171378D01*
X98460Y171122D01*
X97889Y170772D01*
X97381Y170338D01*
X96946Y169829D01*
X96731Y169478D01*
X81962Y169089D01*
Y174916D01*
X100397D01*
Y171586D01*
G37*
G36*
Y159321D02*X81962Y158937D01*
Y164587D01*
X96847Y164979D01*
X96946Y164817D01*
X97381Y164309D01*
X97889Y163874D01*
X98460Y163525D01*
X99078Y163269D01*
X99728Y163113D01*
X100395Y163060D01*
X100397Y163060D01*
Y159321D01*
G37*
G36*
Y151901D02*X100395Y151901D01*
X99728Y151849D01*
X99078Y151693D01*
X98460Y151437D01*
X97889Y151087D01*
X97381Y150653D01*
X96946Y150144D01*
X96731Y149793D01*
X81962Y149404D01*
Y154436D01*
X100397Y154820D01*
Y151901D01*
G37*
G36*
Y139636D02*X81962Y139252D01*
Y144902D01*
X96847Y145294D01*
X96946Y145132D01*
X97381Y144624D01*
X97889Y144189D01*
X98460Y143840D01*
X99078Y143584D01*
X99728Y143428D01*
X100395Y143375D01*
X100397Y143375D01*
Y139636D01*
G37*
G36*
Y132216D02*X100395Y132216D01*
X99728Y132164D01*
X99078Y132008D01*
X98460Y131752D01*
X97889Y131402D01*
X97381Y130968D01*
X96946Y130459D01*
X96731Y130108D01*
X81962Y129719D01*
Y134751D01*
X100397Y135135D01*
Y132216D01*
G37*
G36*
Y119951D02*X81962Y119567D01*
Y125217D01*
X96847Y125609D01*
X96946Y125448D01*
X97381Y124939D01*
X97889Y124504D01*
X98460Y124155D01*
X99078Y123899D01*
X99728Y123743D01*
X100395Y123690D01*
X100397Y123690D01*
Y119951D01*
G37*
G36*
Y112531D02*X100395Y112531D01*
X99728Y112479D01*
X99078Y112323D01*
X98460Y112067D01*
X97889Y111717D01*
X97381Y111283D01*
X96946Y110774D01*
X96731Y110422D01*
X81962Y110034D01*
Y115066D01*
X100397Y115450D01*
Y112531D01*
G37*
G36*
Y100266D02*X81962Y99882D01*
Y105532D01*
X96847Y105924D01*
X96946Y105763D01*
X97381Y105254D01*
X97889Y104819D01*
X98460Y104470D01*
X99078Y104214D01*
X99728Y104058D01*
X100395Y104005D01*
X100397Y104005D01*
Y100266D01*
G37*
G36*
Y80581D02*X96894Y80508D01*
Y86284D01*
X96931Y86264D01*
X97005Y86237D01*
X97083Y86222D01*
X97163Y86220D01*
X97241Y86230D01*
X97317Y86252D01*
X97389Y86286D01*
X97455Y86330D01*
X97512Y86384D01*
X97561Y86447D01*
X97599Y86517D01*
X97626Y86591D01*
X97641Y86669D01*
X97643Y86748D01*
X97633Y86827D01*
X97611Y86903D01*
X97576Y86974D01*
X97434Y87245D01*
X97321Y87530D01*
X97235Y87824D01*
X97178Y88125D01*
X97149Y88430D01*
Y88737D01*
X97178Y89042D01*
X97235Y89343D01*
X97321Y89637D01*
X97434Y89922D01*
X97573Y90195D01*
X97608Y90265D01*
X97630Y90341D01*
X97640Y90419D01*
X97637Y90497D01*
X97622Y90575D01*
X97596Y90649D01*
X97558Y90718D01*
X97510Y90780D01*
X97452Y90834D01*
X97387Y90878D01*
X97316Y90912D01*
X97240Y90934D01*
X97162Y90944D01*
X97084Y90941D01*
X97006Y90926D01*
X96932Y90900D01*
X96894Y90879D01*
Y95692D01*
X100397Y95765D01*
Y92833D01*
X100195D01*
X99795Y92796D01*
X99401Y92720D01*
X99016Y92608D01*
X98643Y92461D01*
X98286Y92278D01*
X98220Y92234D01*
X98162Y92180D01*
X98114Y92117D01*
X98076Y92048D01*
X98049Y91973D01*
X98034Y91895D01*
X98031Y91816D01*
X98041Y91738D01*
X98064Y91661D01*
X98097Y91590D01*
X98142Y91524D01*
X98196Y91466D01*
X98259Y91418D01*
X98328Y91380D01*
X98403Y91353D01*
X98481Y91338D01*
X98560Y91336D01*
X98639Y91346D01*
X98715Y91368D01*
X98786Y91403D01*
X99057Y91545D01*
X99342Y91658D01*
X99636Y91744D01*
X99937Y91801D01*
X100242Y91830D01*
X100397D01*
Y85337D01*
X100242D01*
X99937Y85366D01*
X99636Y85423D01*
X99342Y85509D01*
X99057Y85622D01*
X98784Y85761D01*
X98714Y85796D01*
X98638Y85818D01*
X98560Y85828D01*
X98481Y85825D01*
X98404Y85811D01*
X98330Y85784D01*
X98261Y85746D01*
X98199Y85698D01*
X98145Y85641D01*
X98100Y85575D01*
X98067Y85504D01*
X98045Y85429D01*
X98035Y85351D01*
X98038Y85272D01*
X98052Y85195D01*
X98079Y85121D01*
X98117Y85052D01*
X98165Y84989D01*
X98222Y84935D01*
X98288Y84893D01*
X98643Y84706D01*
X99016Y84558D01*
X99401Y84446D01*
X99795Y84371D01*
X100195Y84333D01*
X100397D01*
Y80581D01*
G37*
G36*
X96894Y80508D02*X81962Y80197D01*
Y95381D01*
X96894Y95692D01*
Y90879D01*
X96863Y90862D01*
X96801Y90814D01*
X96747Y90756D01*
X96704Y90691D01*
X96518Y90336D01*
X96370Y89963D01*
X96258Y89577D01*
X96183Y89183D01*
X96145Y88784D01*
Y88383D01*
X96183Y87984D01*
X96258Y87590D01*
X96370Y87204D01*
X96518Y86831D01*
X96700Y86474D01*
X96744Y86408D01*
X96799Y86351D01*
X96861Y86302D01*
X96894Y86284D01*
Y80508D01*
G37*
G36*
X100397Y39370D02*X81962D01*
Y75696D01*
X100397Y76080D01*
Y39370D01*
G37*
G36*
X81962Y413386D02*X100397D01*
Y376677D01*
X81962Y377061D01*
Y413386D01*
G37*
G36*
Y318006D02*X29910Y319090D01*
X29729Y319386D01*
X29208Y319996D01*
X28597Y320517D01*
X27913Y320937D01*
X27171Y321244D01*
X26610Y321379D01*
X27171Y321513D01*
X27913Y321821D01*
X28597Y322240D01*
X29208Y322761D01*
X29729Y323372D01*
X30148Y324056D01*
X30290Y324398D01*
X81962Y323038D01*
Y318006D01*
G37*
G36*
Y307854D02*X29827Y309226D01*
X29729Y309386D01*
X29208Y309996D01*
X28597Y310517D01*
X27913Y310937D01*
X27171Y311244D01*
X26610Y311379D01*
X27171Y311513D01*
X27913Y311821D01*
X28597Y312240D01*
X29208Y312761D01*
X29729Y313372D01*
X30148Y314056D01*
X30365Y314580D01*
X81962Y313505D01*
Y307854D01*
G37*
G36*
Y298321D02*X29709Y299409D01*
X29208Y299996D01*
X28597Y300517D01*
X27913Y300937D01*
X27171Y301244D01*
X26610Y301379D01*
X27171Y301513D01*
X27913Y301821D01*
X28597Y302240D01*
X29208Y302761D01*
X29729Y303372D01*
X30148Y304056D01*
X30419Y304709D01*
X81962Y303353D01*
Y298321D01*
G37*
G36*
Y287683D02*X30522D01*
X30456Y287960D01*
X30148Y288701D01*
X29729Y289386D01*
X29208Y289996D01*
X28597Y290517D01*
X27913Y290937D01*
X27171Y291244D01*
X26610Y291379D01*
X27171Y291513D01*
X27913Y291821D01*
X28597Y292240D01*
X29208Y292761D01*
X29729Y293372D01*
X30148Y294056D01*
X30456Y294798D01*
X30478Y294892D01*
X81962Y293820D01*
Y287683D01*
G37*
G36*
Y277841D02*X30484D01*
X30456Y277960D01*
X30148Y278701D01*
X29729Y279386D01*
X29208Y279996D01*
X28597Y280517D01*
X27913Y280937D01*
X27171Y281244D01*
X26610Y281379D01*
X27171Y281513D01*
X27913Y281821D01*
X28597Y282240D01*
X29208Y282761D01*
X29568Y283183D01*
X81962D01*
Y277841D01*
G37*
G36*
Y248313D02*X30309D01*
X30148Y248701D01*
X29729Y249386D01*
X29208Y249996D01*
X28597Y250517D01*
X27913Y250937D01*
X27171Y251244D01*
X26610Y251379D01*
X27171Y251513D01*
X27913Y251821D01*
X28597Y252240D01*
X29208Y252761D01*
X29729Y253372D01*
X29903Y253656D01*
X81962D01*
Y248313D01*
G37*
G36*
Y238471D02*X30244D01*
X30148Y238701D01*
X29729Y239386D01*
X29208Y239996D01*
X28597Y240517D01*
X27913Y240937D01*
X27171Y241244D01*
X26610Y241379D01*
X27171Y241513D01*
X27913Y241821D01*
X28597Y242240D01*
X29208Y242761D01*
X29729Y243372D01*
X29999Y243813D01*
X81962D01*
Y238471D01*
G37*
G36*
Y228628D02*X30178D01*
X30148Y228701D01*
X29729Y229386D01*
X29208Y229996D01*
X28597Y230517D01*
X27913Y230937D01*
X27171Y231244D01*
X26610Y231379D01*
X27171Y231513D01*
X27913Y231821D01*
X28597Y232240D01*
X29208Y232761D01*
X29729Y233372D01*
X30096Y233971D01*
X81962D01*
Y228628D01*
G37*
G36*
Y218786D02*X30096D01*
X29729Y219386D01*
X29208Y219996D01*
X28597Y220517D01*
X27913Y220937D01*
X27171Y221244D01*
X26610Y221379D01*
X27171Y221513D01*
X27913Y221821D01*
X28597Y222240D01*
X29208Y222761D01*
X29729Y223372D01*
X30148Y224056D01*
X30178Y224128D01*
X81962D01*
Y218786D01*
G37*
G36*
Y208943D02*X30000D01*
X29729Y209386D01*
X29208Y209996D01*
X28597Y210517D01*
X27913Y210937D01*
X27171Y211244D01*
X26610Y211379D01*
X27171Y211513D01*
X27913Y211821D01*
X28597Y212240D01*
X29208Y212761D01*
X29729Y213372D01*
X30148Y214056D01*
X30243Y214286D01*
X81962D01*
Y208943D01*
G37*
G36*
Y198307D02*X30629Y197238D01*
X30456Y197960D01*
X30148Y198701D01*
X29729Y199386D01*
X29208Y199996D01*
X28597Y200517D01*
X27913Y200937D01*
X27171Y201244D01*
X26610Y201379D01*
X27171Y201513D01*
X27913Y201821D01*
X28597Y202240D01*
X29208Y202761D01*
X29729Y203372D01*
X30148Y204056D01*
X30309Y204443D01*
X81962D01*
Y198307D01*
G37*
G36*
Y189258D02*X29807D01*
X29729Y189386D01*
X29208Y189996D01*
X28597Y190517D01*
X27913Y190937D01*
X27171Y191244D01*
X26610Y191379D01*
X27171Y191513D01*
X27913Y191821D01*
X28597Y192240D01*
X29142Y192706D01*
X81962Y193806D01*
Y189258D01*
G37*
G36*
Y179416D02*X29703D01*
X29208Y179996D01*
X28597Y180517D01*
X27913Y180937D01*
X27171Y181244D01*
X26610Y181379D01*
X27171Y181513D01*
X27913Y181821D01*
X28597Y182240D01*
X29208Y182761D01*
X29729Y183372D01*
X30148Y184056D01*
X30439Y184758D01*
X81962D01*
Y179416D01*
G37*
G36*
Y169089D02*X30509Y167735D01*
X30456Y167960D01*
X30148Y168701D01*
X29729Y169386D01*
X29208Y169996D01*
X28597Y170517D01*
X27913Y170937D01*
X27171Y171244D01*
X26610Y171379D01*
X27171Y171513D01*
X27913Y171821D01*
X28597Y172240D01*
X29208Y172761D01*
X29729Y173372D01*
X30148Y174056D01*
X30456Y174798D01*
X30484Y174916D01*
X81962D01*
Y169089D01*
G37*
G36*
Y158937D02*X30478Y157865D01*
X30456Y157960D01*
X30148Y158701D01*
X29729Y159386D01*
X29208Y159996D01*
X28597Y160517D01*
X27913Y160937D01*
X27171Y161244D01*
X26610Y161379D01*
X27171Y161513D01*
X27913Y161821D01*
X28597Y162240D01*
X29208Y162761D01*
X29590Y163209D01*
X81962Y164587D01*
Y158937D01*
G37*
G36*
Y149404D02*X30419Y148048D01*
X30148Y148701D01*
X29729Y149386D01*
X29208Y149996D01*
X28597Y150517D01*
X27913Y150937D01*
X27171Y151244D01*
X26610Y151379D01*
X27171Y151513D01*
X27913Y151821D01*
X28597Y152240D01*
X29208Y152761D01*
X29708Y153348D01*
X81962Y154436D01*
Y149404D01*
G37*
G36*
Y139252D02*X30365Y138177D01*
X30148Y138701D01*
X29729Y139386D01*
X29208Y139996D01*
X28597Y140517D01*
X27913Y140937D01*
X27171Y141244D01*
X26610Y141379D01*
X27171Y141513D01*
X27913Y141821D01*
X28597Y142240D01*
X29208Y142761D01*
X29729Y143372D01*
X29826Y143530D01*
X81962Y144902D01*
Y139252D01*
G37*
G36*
Y129719D02*X30290Y128359D01*
X30148Y128701D01*
X29729Y129386D01*
X29208Y129996D01*
X28597Y130517D01*
X27913Y130937D01*
X27171Y131244D01*
X26610Y131379D01*
X27171Y131513D01*
X27913Y131821D01*
X28597Y132240D01*
X29208Y132761D01*
X29729Y133372D01*
X29910Y133667D01*
X81962Y134751D01*
Y129719D01*
G37*
G36*
Y119567D02*X30236Y118489D01*
X30148Y118701D01*
X29729Y119386D01*
X29208Y119996D01*
X28597Y120517D01*
X27913Y120937D01*
X27171Y121244D01*
X26610Y121379D01*
X27171Y121513D01*
X27913Y121821D01*
X28597Y122240D01*
X29208Y122761D01*
X29729Y123372D01*
X30022Y123850D01*
X81962Y125217D01*
Y119567D01*
G37*
G36*
Y110034D02*X30161Y108671D01*
X30148Y108701D01*
X29729Y109386D01*
X29208Y109996D01*
X28597Y110517D01*
X27913Y110937D01*
X27171Y111244D01*
X26610Y111379D01*
X27171Y111513D01*
X27913Y111821D01*
X28597Y112240D01*
X29208Y112761D01*
X29729Y113372D01*
X30105Y113986D01*
X81962Y115066D01*
Y110034D01*
G37*
G36*
Y99882D02*X30087Y98801D01*
X29729Y99386D01*
X29208Y99996D01*
X28597Y100517D01*
X27913Y100937D01*
X27171Y101244D01*
X26610Y101379D01*
X27171Y101513D01*
X27913Y101821D01*
X28597Y102240D01*
X29208Y102761D01*
X29729Y103372D01*
X30148Y104056D01*
X30195Y104170D01*
X81962Y105532D01*
Y99882D01*
G37*
G36*
Y366909D02*X30328Y368268D01*
X30148Y368701D01*
X29729Y369386D01*
X29208Y369996D01*
X28597Y370517D01*
X27913Y370937D01*
X27171Y371244D01*
X26988Y371288D01*
X29426Y371293D01*
X29655Y371348D01*
X29873Y371438D01*
X30075Y371561D01*
X30254Y371715D01*
X30407Y371894D01*
X30531Y372096D01*
X30621Y372314D01*
X30676Y372543D01*
X30690Y372779D01*
X30689Y373628D01*
X81962Y372560D01*
Y366909D01*
G37*
G36*
Y357376D02*X30251Y358453D01*
X30148Y358701D01*
X29729Y359386D01*
X29208Y359996D01*
X28597Y360517D01*
X27913Y360937D01*
X27171Y361244D01*
X26610Y361379D01*
X27171Y361513D01*
X27913Y361821D01*
X28597Y362240D01*
X29208Y362761D01*
X29729Y363372D01*
X29977Y363776D01*
X81962Y362408D01*
Y357376D01*
G37*
G36*
Y347224D02*X30196Y348587D01*
X30148Y348701D01*
X29729Y349386D01*
X29208Y349996D01*
X28597Y350517D01*
X27913Y350937D01*
X27171Y351244D01*
X26610Y351379D01*
X27171Y351513D01*
X27913Y351821D01*
X28597Y352240D01*
X29208Y352761D01*
X29729Y353372D01*
X30087Y353955D01*
X81962Y352875D01*
Y347224D01*
G37*
G36*
Y337691D02*X30106Y338771D01*
X29729Y339386D01*
X29208Y339996D01*
X28597Y340517D01*
X27913Y340937D01*
X27171Y341244D01*
X26610Y341379D01*
X27171Y341513D01*
X27913Y341821D01*
X28597Y342240D01*
X29208Y342761D01*
X29729Y343372D01*
X30148Y344056D01*
X30161Y344086D01*
X81962Y342723D01*
Y337691D01*
G37*
G36*
X30236Y334267D02*X81962Y333190D01*
Y327539D01*
X30023Y328906D01*
X29729Y329386D01*
X29208Y329996D01*
X28597Y330517D01*
X27913Y330937D01*
X27171Y331244D01*
X26610Y331379D01*
X27171Y331513D01*
X27913Y331821D01*
X28597Y332240D01*
X29208Y332761D01*
X29729Y333372D01*
X30148Y334056D01*
X30236Y334267D01*
G37*
G36*
X54682Y75128D02*X81962Y75696D01*
Y39370D01*
X54682D01*
Y46918D01*
X54713Y46935D01*
X54775Y46983D01*
X54829Y47040D01*
X54872Y47106D01*
X55058Y47461D01*
X55206Y47834D01*
X55318Y48219D01*
X55393Y48613D01*
X55431Y49012D01*
Y49414D01*
X55393Y49813D01*
X55318Y50207D01*
X55206Y50592D01*
X55058Y50965D01*
X54876Y51322D01*
X54832Y51388D01*
X54778Y51446D01*
X54715Y51494D01*
X54682Y51513D01*
Y75128D01*
G37*
G36*
X51183Y75055D02*X54682Y75128D01*
Y51513D01*
X54645Y51533D01*
X54571Y51559D01*
X54493Y51574D01*
X54414Y51577D01*
X54335Y51567D01*
X54259Y51545D01*
X54187Y51511D01*
X54122Y51466D01*
X54064Y51412D01*
X54015Y51349D01*
X53977Y51280D01*
X53950Y51205D01*
X53936Y51127D01*
X53933Y51048D01*
X53943Y50970D01*
X53965Y50893D01*
X54000Y50822D01*
X54143Y50551D01*
X54256Y50266D01*
X54341Y49972D01*
X54399Y49671D01*
X54427Y49366D01*
Y49060D01*
X54399Y48755D01*
X54341Y48454D01*
X54256Y48160D01*
X54143Y47875D01*
X54004Y47602D01*
X53969Y47531D01*
X53947Y47456D01*
X53937Y47378D01*
X53939Y47299D01*
X53954Y47222D01*
X53981Y47148D01*
X54018Y47079D01*
X54067Y47016D01*
X54124Y46963D01*
X54189Y46918D01*
X54260Y46885D01*
X54336Y46863D01*
X54414Y46853D01*
X54493Y46855D01*
X54570Y46870D01*
X54644Y46897D01*
X54682Y46918D01*
Y39370D01*
X51183D01*
Y44963D01*
X51382D01*
X51781Y45001D01*
X52175Y45076D01*
X52560Y45188D01*
X52933Y45336D01*
X53291Y45518D01*
X53356Y45562D01*
X53414Y45616D01*
X53463Y45679D01*
X53501Y45749D01*
X53528Y45823D01*
X53542Y45901D01*
X53545Y45980D01*
X53535Y46059D01*
X53513Y46135D01*
X53479Y46207D01*
X53434Y46272D01*
X53380Y46330D01*
X53317Y46379D01*
X53248Y46417D01*
X53173Y46444D01*
X53096Y46458D01*
X53016Y46461D01*
X52938Y46451D01*
X52862Y46429D01*
X52791Y46394D01*
X52519Y46251D01*
X52235Y46138D01*
X51940Y46053D01*
X51639Y45995D01*
X51334Y45967D01*
X51183D01*
Y52459D01*
X51334D01*
X51639Y52431D01*
X51940Y52373D01*
X52235Y52288D01*
X52519Y52175D01*
X52792Y52035D01*
X52863Y52001D01*
X52938Y51979D01*
X53016Y51969D01*
X53095Y51971D01*
X53172Y51986D01*
X53246Y52012D01*
X53315Y52050D01*
X53378Y52099D01*
X53432Y52156D01*
X53476Y52221D01*
X53509Y52292D01*
X53531Y52368D01*
X53541Y52446D01*
X53539Y52525D01*
X53524Y52602D01*
X53497Y52676D01*
X53460Y52745D01*
X53411Y52807D01*
X53354Y52861D01*
X53288Y52904D01*
X52933Y53090D01*
X52560Y53238D01*
X52175Y53350D01*
X51781Y53425D01*
X51382Y53463D01*
X51183D01*
Y75055D01*
G37*
G36*
Y94740D02*X81962Y95381D01*
Y80197D01*
X51183Y79556D01*
Y94740D01*
G37*
G36*
X54682Y413386D02*X81962D01*
Y377061D01*
X54682Y377629D01*
Y401248D01*
X54713Y401265D01*
X54775Y401313D01*
X54829Y401371D01*
X54872Y401437D01*
X55058Y401792D01*
X55206Y402165D01*
X55318Y402550D01*
X55393Y402944D01*
X55431Y403343D01*
Y403744D01*
X55393Y404144D01*
X55318Y404538D01*
X55206Y404923D01*
X55058Y405296D01*
X54876Y405653D01*
X54832Y405719D01*
X54778Y405777D01*
X54715Y405825D01*
X54682Y405843D01*
Y413386D01*
G37*
G36*
X51183D02*X54682D01*
Y405843D01*
X54645Y405863D01*
X54571Y405890D01*
X54493Y405905D01*
X54414Y405907D01*
X54335Y405898D01*
X54259Y405875D01*
X54187Y405842D01*
X54122Y405797D01*
X54064Y405743D01*
X54015Y405680D01*
X53977Y405611D01*
X53950Y405536D01*
X53936Y405458D01*
X53933Y405379D01*
X53943Y405300D01*
X53965Y405224D01*
X54000Y405153D01*
X54143Y404882D01*
X54256Y404597D01*
X54341Y404303D01*
X54399Y404002D01*
X54427Y403697D01*
Y403390D01*
X54399Y403085D01*
X54341Y402784D01*
X54256Y402490D01*
X54143Y402205D01*
X54004Y401932D01*
X53969Y401862D01*
X53947Y401786D01*
X53937Y401708D01*
X53939Y401630D01*
X53954Y401552D01*
X53981Y401478D01*
X54018Y401409D01*
X54067Y401347D01*
X54124Y401293D01*
X54189Y401249D01*
X54260Y401215D01*
X54336Y401193D01*
X54414Y401184D01*
X54493Y401186D01*
X54570Y401201D01*
X54644Y401227D01*
X54682Y401248D01*
Y377629D01*
X51183Y377702D01*
Y399294D01*
X51382D01*
X51781Y399331D01*
X52175Y399407D01*
X52560Y399519D01*
X52933Y399666D01*
X53291Y399849D01*
X53356Y399893D01*
X53414Y399947D01*
X53463Y400010D01*
X53501Y400079D01*
X53528Y400154D01*
X53542Y400232D01*
X53545Y400311D01*
X53535Y400390D01*
X53513Y400466D01*
X53479Y400537D01*
X53434Y400603D01*
X53380Y400661D01*
X53317Y400709D01*
X53248Y400748D01*
X53173Y400774D01*
X53096Y400789D01*
X53016Y400792D01*
X52938Y400782D01*
X52862Y400760D01*
X52791Y400724D01*
X52519Y400582D01*
X52235Y400469D01*
X51940Y400384D01*
X51639Y400326D01*
X51334Y400297D01*
X51183D01*
Y406790D01*
X51334D01*
X51639Y406761D01*
X51940Y406704D01*
X52235Y406618D01*
X52519Y406505D01*
X52792Y406366D01*
X52863Y406331D01*
X52938Y406309D01*
X53016Y406299D01*
X53095Y406302D01*
X53172Y406317D01*
X53246Y406343D01*
X53315Y406381D01*
X53378Y406429D01*
X53432Y406487D01*
X53476Y406552D01*
X53509Y406623D01*
X53531Y406698D01*
X53541Y406777D01*
X53539Y406855D01*
X53524Y406933D01*
X53497Y407007D01*
X53460Y407076D01*
X53411Y407138D01*
X53354Y407192D01*
X53288Y407235D01*
X52933Y407421D01*
X52560Y407569D01*
X52175Y407681D01*
X51781Y407756D01*
X51382Y407794D01*
X51183D01*
Y413386D01*
G37*
G36*
X47680Y74982D02*X51183Y75055D01*
Y53463D01*
X50981D01*
X50581Y53425D01*
X50187Y53350D01*
X49802Y53238D01*
X49429Y53090D01*
X49072Y52908D01*
X49006Y52864D01*
X48948Y52810D01*
X48900Y52747D01*
X48861Y52677D01*
X48835Y52603D01*
X48820Y52525D01*
X48817Y52446D01*
X48827Y52367D01*
X48849Y52291D01*
X48883Y52219D01*
X48928Y52154D01*
X48982Y52096D01*
X49045Y52047D01*
X49114Y52009D01*
X49189Y51982D01*
X49267Y51968D01*
X49346Y51965D01*
X49425Y51975D01*
X49501Y51997D01*
X49572Y52032D01*
X49843Y52175D01*
X50128Y52288D01*
X50422Y52373D01*
X50723Y52431D01*
X51028Y52459D01*
X51183D01*
Y45967D01*
X51028D01*
X50723Y45995D01*
X50422Y46053D01*
X50128Y46138D01*
X49843Y46251D01*
X49570Y46391D01*
X49499Y46425D01*
X49424Y46447D01*
X49346Y46457D01*
X49267Y46455D01*
X49190Y46440D01*
X49116Y46413D01*
X49047Y46376D01*
X48985Y46327D01*
X48931Y46270D01*
X48886Y46205D01*
X48853Y46134D01*
X48831Y46058D01*
X48821Y45980D01*
X48823Y45901D01*
X48838Y45824D01*
X48865Y45750D01*
X48903Y45681D01*
X48951Y45619D01*
X49008Y45565D01*
X49074Y45522D01*
X49429Y45336D01*
X49802Y45188D01*
X50187Y45076D01*
X50581Y45001D01*
X50981Y44963D01*
X51183D01*
Y39370D01*
X47680D01*
Y46913D01*
X47717Y46893D01*
X47791Y46867D01*
X47869Y46852D01*
X47948Y46849D01*
X48027Y46859D01*
X48103Y46881D01*
X48175Y46915D01*
X48240Y46960D01*
X48298Y47014D01*
X48347Y47077D01*
X48385Y47146D01*
X48412Y47221D01*
X48427Y47299D01*
X48429Y47378D01*
X48419Y47456D01*
X48397Y47533D01*
X48362Y47604D01*
X48219Y47875D01*
X48107Y48160D01*
X48021Y48454D01*
X47964Y48755D01*
X47935Y49060D01*
Y49366D01*
X47964Y49671D01*
X48021Y49972D01*
X48107Y50266D01*
X48219Y50551D01*
X48359Y50824D01*
X48394Y50895D01*
X48415Y50970D01*
X48425Y51048D01*
X48423Y51127D01*
X48408Y51204D01*
X48382Y51278D01*
X48344Y51347D01*
X48295Y51410D01*
X48238Y51463D01*
X48173Y51508D01*
X48102Y51541D01*
X48026Y51563D01*
X47948Y51573D01*
X47870Y51571D01*
X47792Y51556D01*
X47718Y51529D01*
X47680Y51508D01*
Y74982D01*
G37*
G36*
Y94667D02*X51183Y94740D01*
Y79556D01*
X47680Y79483D01*
Y94667D01*
G37*
G36*
Y413386D02*X51183D01*
Y407794D01*
X50981D01*
X50581Y407756D01*
X50187Y407681D01*
X49802Y407569D01*
X49429Y407421D01*
X49072Y407239D01*
X49006Y407195D01*
X48948Y407140D01*
X48900Y407078D01*
X48861Y407008D01*
X48835Y406934D01*
X48820Y406856D01*
X48817Y406776D01*
X48827Y406698D01*
X48849Y406622D01*
X48883Y406550D01*
X48928Y406484D01*
X48982Y406427D01*
X49045Y406378D01*
X49114Y406340D01*
X49189Y406313D01*
X49267Y406298D01*
X49346Y406296D01*
X49425Y406306D01*
X49501Y406328D01*
X49572Y406363D01*
X49843Y406505D01*
X50128Y406618D01*
X50422Y406704D01*
X50723Y406761D01*
X51028Y406790D01*
X51183D01*
Y400297D01*
X51028D01*
X50723Y400326D01*
X50422Y400384D01*
X50128Y400469D01*
X49843Y400582D01*
X49570Y400721D01*
X49499Y400756D01*
X49424Y400778D01*
X49346Y400788D01*
X49267Y400786D01*
X49190Y400771D01*
X49116Y400744D01*
X49047Y400706D01*
X48985Y400658D01*
X48931Y400601D01*
X48886Y400536D01*
X48853Y400464D01*
X48831Y400389D01*
X48821Y400311D01*
X48823Y400232D01*
X48838Y400155D01*
X48865Y400081D01*
X48903Y400012D01*
X48951Y399950D01*
X49008Y399896D01*
X49074Y399853D01*
X49429Y399666D01*
X49802Y399519D01*
X50187Y399407D01*
X50581Y399331D01*
X50981Y399294D01*
X51183D01*
Y377702D01*
X47680Y377775D01*
Y401244D01*
X47717Y401224D01*
X47791Y401197D01*
X47869Y401182D01*
X47948Y401180D01*
X48027Y401190D01*
X48103Y401212D01*
X48175Y401246D01*
X48240Y401290D01*
X48298Y401345D01*
X48347Y401407D01*
X48385Y401477D01*
X48412Y401551D01*
X48427Y401629D01*
X48429Y401709D01*
X48419Y401787D01*
X48397Y401863D01*
X48362Y401934D01*
X48219Y402205D01*
X48107Y402490D01*
X48021Y402784D01*
X47964Y403085D01*
X47935Y403390D01*
Y403697D01*
X47964Y404002D01*
X48021Y404303D01*
X48107Y404597D01*
X48219Y404882D01*
X48359Y405155D01*
X48394Y405225D01*
X48415Y405301D01*
X48425Y405379D01*
X48423Y405458D01*
X48408Y405535D01*
X48382Y405609D01*
X48344Y405678D01*
X48295Y405740D01*
X48238Y405794D01*
X48173Y405838D01*
X48102Y405872D01*
X48026Y405894D01*
X47948Y405904D01*
X47870Y405901D01*
X47792Y405887D01*
X47718Y405860D01*
X47680Y405839D01*
Y413386D01*
G37*
G36*
X29732Y73377D02*X30148Y74056D01*
X30382Y74621D01*
X47680Y74982D01*
Y51508D01*
X47649Y51491D01*
X47587Y51443D01*
X47533Y51386D01*
X47490Y51320D01*
X47304Y50965D01*
X47156Y50592D01*
X47044Y50207D01*
X46969Y49813D01*
X46931Y49414D01*
Y49012D01*
X46969Y48613D01*
X47044Y48219D01*
X47156Y47834D01*
X47304Y47461D01*
X47486Y47104D01*
X47530Y47038D01*
X47585Y46980D01*
X47647Y46932D01*
X47680Y46913D01*
Y39370D01*
X29732D01*
Y73377D01*
G37*
G36*
Y93377D02*X30148Y94056D01*
X30251Y94304D01*
X47680Y94667D01*
Y79483D01*
X29896Y79112D01*
X29732Y79380D01*
Y83803D01*
X29779Y83816D01*
X29887Y83864D01*
X29985Y83929D01*
X30073Y84008D01*
X30147Y84100D01*
X30203Y84204D01*
X30381Y84616D01*
X30518Y85045D01*
X30616Y85484D01*
X30675Y85930D01*
X30695Y86379D01*
X30675Y86828D01*
X30616Y87274D01*
X30518Y87713D01*
X30381Y88141D01*
X30208Y88556D01*
X30150Y88659D01*
X30075Y88752D01*
X29988Y88831D01*
X29888Y88896D01*
X29780Y88945D01*
X29732Y88958D01*
Y93377D01*
G37*
G36*
Y413386D02*X47680D01*
Y405839D01*
X47649Y405822D01*
X47587Y405774D01*
X47533Y405717D01*
X47490Y405651D01*
X47304Y405296D01*
X47156Y404923D01*
X47044Y404538D01*
X46969Y404144D01*
X46931Y403744D01*
Y403343D01*
X46969Y402944D01*
X47044Y402550D01*
X47156Y402165D01*
X47304Y401792D01*
X47486Y401434D01*
X47530Y401369D01*
X47585Y401311D01*
X47647Y401262D01*
X47680Y401244D01*
Y377775D01*
X30680Y378129D01*
X30676Y380214D01*
X30621Y380444D01*
X30531Y380662D01*
X30407Y380863D01*
X30254Y381043D01*
X30075Y381196D01*
X29873Y381319D01*
X29732Y381378D01*
Y413386D01*
G37*
G36*
X21448Y73377D02*X21451Y73372D01*
X21973Y72761D01*
X22583Y72240D01*
X23268Y71821D01*
X24009Y71513D01*
X24790Y71326D01*
X25590Y71263D01*
X26390Y71326D01*
X27171Y71513D01*
X27913Y71821D01*
X28597Y72240D01*
X29208Y72761D01*
X29729Y73372D01*
X29732Y73377D01*
Y39370D01*
X21448D01*
Y73377D01*
G37*
G36*
Y93377D02*X21451Y93372D01*
X21973Y92761D01*
X22583Y92240D01*
X23268Y91821D01*
X24009Y91513D01*
X24575Y91378D01*
X24256Y91306D01*
X23828Y91170D01*
X23413Y90996D01*
X23310Y90938D01*
X23217Y90864D01*
X23138Y90776D01*
X23072Y90677D01*
X23024Y90569D01*
X22993Y90454D01*
X22980Y90337D01*
X22985Y90218D01*
X23009Y90102D01*
X23051Y89991D01*
X23110Y89888D01*
X23184Y89796D01*
X23272Y89716D01*
X23371Y89651D01*
X23480Y89602D01*
X23594Y89571D01*
X23712Y89558D01*
X23830Y89564D01*
X23946Y89588D01*
X24056Y89632D01*
X24347Y89757D01*
X24650Y89854D01*
X24959Y89923D01*
X25273Y89965D01*
X25590Y89979D01*
X25907Y89965D01*
X26221Y89923D01*
X26531Y89854D01*
X26833Y89757D01*
X27125Y89635D01*
X27235Y89591D01*
X27350Y89567D01*
X27468Y89561D01*
X27586Y89574D01*
X27700Y89605D01*
X27807Y89654D01*
X27906Y89719D01*
X27993Y89798D01*
X28067Y89890D01*
X28126Y89993D01*
X28168Y90103D01*
X28192Y90219D01*
X28197Y90336D01*
X28184Y90454D01*
X28153Y90568D01*
X28105Y90675D01*
X28040Y90774D01*
X27961Y90861D01*
X27869Y90935D01*
X27765Y90992D01*
X27352Y91170D01*
X26924Y91306D01*
X26606Y91378D01*
X27171Y91513D01*
X27913Y91821D01*
X28597Y92240D01*
X29208Y92761D01*
X29729Y93372D01*
X29732Y93377D01*
Y88958D01*
X29666Y88976D01*
X29548Y88989D01*
X29429Y88984D01*
X29313Y88959D01*
X29202Y88917D01*
X29099Y88859D01*
X29007Y88784D01*
X28927Y88697D01*
X28862Y88597D01*
X28813Y88489D01*
X28782Y88375D01*
X28769Y88257D01*
X28775Y88139D01*
X28799Y88022D01*
X28843Y87912D01*
X28969Y87621D01*
X29065Y87319D01*
X29134Y87010D01*
X29176Y86696D01*
X29190Y86379D01*
X29176Y86062D01*
X29134Y85748D01*
X29065Y85438D01*
X28969Y85136D01*
X28846Y84844D01*
X28802Y84734D01*
X28778Y84619D01*
X28773Y84501D01*
X28786Y84383D01*
X28817Y84269D01*
X28865Y84162D01*
X28930Y84063D01*
X29009Y83976D01*
X29101Y83902D01*
X29204Y83843D01*
X29314Y83801D01*
X29430Y83777D01*
X29548Y83772D01*
X29665Y83785D01*
X29732Y83803D01*
Y79380D01*
X29729Y79386D01*
X29208Y79996D01*
X28597Y80517D01*
X27913Y80937D01*
X27171Y81244D01*
X26606Y81380D01*
X26924Y81451D01*
X27352Y81588D01*
X27767Y81761D01*
X27871Y81819D01*
X27963Y81894D01*
X28043Y81981D01*
X28108Y82081D01*
X28157Y82189D01*
X28188Y82303D01*
X28201Y82421D01*
X28195Y82539D01*
X28171Y82656D01*
X28129Y82766D01*
X28070Y82869D01*
X27996Y82962D01*
X27908Y83042D01*
X27809Y83107D01*
X27701Y83155D01*
X27586Y83187D01*
X27468Y83200D01*
X27350Y83194D01*
X27234Y83170D01*
X27124Y83126D01*
X26833Y83000D01*
X26531Y82904D01*
X26221Y82834D01*
X25907Y82793D01*
X25590Y82779D01*
X25273Y82793D01*
X24959Y82834D01*
X24650Y82904D01*
X24347Y83000D01*
X24055Y83123D01*
X23946Y83166D01*
X23830Y83190D01*
X23712Y83196D01*
X23595Y83183D01*
X23481Y83152D01*
X23373Y83104D01*
X23274Y83039D01*
X23187Y82960D01*
X23113Y82867D01*
X23055Y82765D01*
X23013Y82655D01*
X22989Y82539D01*
X22983Y82421D01*
X22996Y82304D01*
X23027Y82190D01*
X23076Y82082D01*
X23140Y81983D01*
X23220Y81896D01*
X23312Y81822D01*
X23415Y81766D01*
X23828Y81588D01*
X24256Y81451D01*
X24575Y81380D01*
X24009Y81244D01*
X23268Y80937D01*
X22583Y80517D01*
X21973Y79996D01*
X21451Y79386D01*
X21448Y79380D01*
Y83799D01*
X21514Y83781D01*
X21632Y83768D01*
X21751Y83774D01*
X21867Y83798D01*
X21978Y83840D01*
X22081Y83899D01*
X22173Y83973D01*
X22253Y84061D01*
X22318Y84160D01*
X22367Y84268D01*
X22398Y84383D01*
X22411Y84500D01*
X22405Y84619D01*
X22381Y84735D01*
X22337Y84845D01*
X22211Y85136D01*
X22115Y85438D01*
X22046Y85748D01*
X22004Y86062D01*
X21990Y86379D01*
X22004Y86696D01*
X22046Y87010D01*
X22115Y87319D01*
X22211Y87621D01*
X22334Y87914D01*
X22378Y88023D01*
X22402Y88139D01*
X22408Y88257D01*
X22395Y88374D01*
X22364Y88488D01*
X22315Y88596D01*
X22250Y88694D01*
X22171Y88782D01*
X22079Y88856D01*
X21976Y88914D01*
X21866Y88956D01*
X21750Y88980D01*
X21632Y88986D01*
X21515Y88973D01*
X21448Y88955D01*
Y93377D01*
G37*
G36*
Y103377D02*X21451Y103372D01*
X21973Y102761D01*
X22583Y102240D01*
X23268Y101821D01*
X24009Y101513D01*
X24570Y101379D01*
X24009Y101244D01*
X23268Y100937D01*
X22583Y100517D01*
X21973Y99996D01*
X21451Y99386D01*
X21448Y99380D01*
Y103377D01*
G37*
G36*
Y113377D02*X21451Y113372D01*
X21973Y112761D01*
X22583Y112240D01*
X23268Y111821D01*
X24009Y111513D01*
X24570Y111379D01*
X24009Y111244D01*
X23268Y110937D01*
X22583Y110517D01*
X21973Y109996D01*
X21451Y109386D01*
X21448Y109380D01*
Y113377D01*
G37*
G36*
Y123377D02*X21451Y123372D01*
X21973Y122761D01*
X22583Y122240D01*
X23268Y121821D01*
X24009Y121513D01*
X24570Y121379D01*
X24009Y121244D01*
X23268Y120937D01*
X22583Y120517D01*
X21973Y119996D01*
X21451Y119386D01*
X21448Y119380D01*
Y123377D01*
G37*
G36*
Y133377D02*X21451Y133372D01*
X21973Y132761D01*
X22583Y132240D01*
X23268Y131821D01*
X24009Y131513D01*
X24570Y131379D01*
X24009Y131244D01*
X23268Y130937D01*
X22583Y130517D01*
X21973Y129996D01*
X21451Y129386D01*
X21448Y129380D01*
Y133377D01*
G37*
G36*
Y143377D02*X21451Y143372D01*
X21973Y142761D01*
X22583Y142240D01*
X23268Y141821D01*
X24009Y141513D01*
X24570Y141379D01*
X24009Y141244D01*
X23268Y140937D01*
X22583Y140517D01*
X21973Y139996D01*
X21451Y139386D01*
X21448Y139380D01*
Y143377D01*
G37*
G36*
Y153377D02*X21451Y153372D01*
X21973Y152761D01*
X22583Y152240D01*
X23268Y151821D01*
X24009Y151513D01*
X24570Y151379D01*
X24009Y151244D01*
X23268Y150937D01*
X22583Y150517D01*
X21973Y149996D01*
X21451Y149386D01*
X21448Y149380D01*
Y153377D01*
G37*
G36*
Y163377D02*X21451Y163372D01*
X21973Y162761D01*
X22583Y162240D01*
X23268Y161821D01*
X24009Y161513D01*
X24570Y161379D01*
X24009Y161244D01*
X23268Y160937D01*
X22583Y160517D01*
X21973Y159996D01*
X21451Y159386D01*
X21448Y159380D01*
Y163377D01*
G37*
G36*
Y173377D02*X21451Y173372D01*
X21973Y172761D01*
X22583Y172240D01*
X23268Y171821D01*
X24009Y171513D01*
X24570Y171379D01*
X24009Y171244D01*
X23268Y170937D01*
X22583Y170517D01*
X21973Y169996D01*
X21451Y169386D01*
X21448Y169380D01*
Y173377D01*
G37*
G36*
Y183377D02*X21451Y183372D01*
X21973Y182761D01*
X22583Y182240D01*
X23268Y181821D01*
X24009Y181513D01*
X24570Y181379D01*
X24009Y181244D01*
X23268Y180937D01*
X22583Y180517D01*
X21973Y179996D01*
X21451Y179386D01*
X21448Y179380D01*
Y183377D01*
G37*
G36*
Y193377D02*X21451Y193372D01*
X21973Y192761D01*
X22583Y192240D01*
X23268Y191821D01*
X24009Y191513D01*
X24570Y191379D01*
X24009Y191244D01*
X23268Y190937D01*
X22583Y190517D01*
X21973Y189996D01*
X21451Y189386D01*
X21448Y189380D01*
Y193377D01*
G37*
G36*
Y203377D02*X21451Y203372D01*
X21973Y202761D01*
X22583Y202240D01*
X23268Y201821D01*
X24009Y201513D01*
X24570Y201379D01*
X24009Y201244D01*
X23268Y200937D01*
X22583Y200517D01*
X21973Y199996D01*
X21451Y199386D01*
X21448Y199380D01*
Y203377D01*
G37*
G36*
Y213377D02*X21451Y213372D01*
X21973Y212761D01*
X22583Y212240D01*
X23268Y211821D01*
X24009Y211513D01*
X24570Y211379D01*
X24009Y211244D01*
X23268Y210937D01*
X22583Y210517D01*
X21973Y209996D01*
X21451Y209386D01*
X21448Y209380D01*
Y213377D01*
G37*
G36*
Y223377D02*X21451Y223372D01*
X21973Y222761D01*
X22583Y222240D01*
X23268Y221821D01*
X24009Y221513D01*
X24570Y221379D01*
X24009Y221244D01*
X23268Y220937D01*
X22583Y220517D01*
X21973Y219996D01*
X21451Y219386D01*
X21448Y219380D01*
Y223377D01*
G37*
G36*
Y233377D02*X21451Y233372D01*
X21973Y232761D01*
X22583Y232240D01*
X23268Y231821D01*
X24009Y231513D01*
X24570Y231379D01*
X24009Y231244D01*
X23268Y230937D01*
X22583Y230517D01*
X21973Y229996D01*
X21451Y229386D01*
X21448Y229380D01*
Y233377D01*
G37*
G36*
Y243377D02*X21451Y243372D01*
X21973Y242761D01*
X22583Y242240D01*
X23268Y241821D01*
X24009Y241513D01*
X24570Y241379D01*
X24009Y241244D01*
X23268Y240937D01*
X22583Y240517D01*
X21973Y239996D01*
X21451Y239386D01*
X21448Y239380D01*
Y243377D01*
G37*
G36*
Y253377D02*X21451Y253372D01*
X21973Y252761D01*
X22583Y252240D01*
X23268Y251821D01*
X24009Y251513D01*
X24570Y251379D01*
X24009Y251244D01*
X23268Y250937D01*
X22583Y250517D01*
X21973Y249996D01*
X21451Y249386D01*
X21448Y249380D01*
Y253377D01*
G37*
G36*
Y263377D02*X21451Y263372D01*
X21973Y262761D01*
X22583Y262240D01*
X23268Y261821D01*
X24009Y261513D01*
X24570Y261379D01*
X24009Y261244D01*
X23268Y260937D01*
X22583Y260517D01*
X21973Y259996D01*
X21451Y259386D01*
X21448Y259380D01*
Y263377D01*
G37*
G36*
Y273377D02*X21451Y273372D01*
X21973Y272761D01*
X22583Y272240D01*
X23268Y271821D01*
X24009Y271513D01*
X24570Y271379D01*
X24009Y271244D01*
X23268Y270937D01*
X22583Y270517D01*
X21973Y269996D01*
X21451Y269386D01*
X21448Y269380D01*
Y273377D01*
G37*
G36*
Y283377D02*X21451Y283372D01*
X21973Y282761D01*
X22583Y282240D01*
X23268Y281821D01*
X24009Y281513D01*
X24570Y281379D01*
X24009Y281244D01*
X23268Y280937D01*
X22583Y280517D01*
X21973Y279996D01*
X21451Y279386D01*
X21448Y279380D01*
Y283377D01*
G37*
G36*
Y293377D02*X21451Y293372D01*
X21973Y292761D01*
X22583Y292240D01*
X23268Y291821D01*
X24009Y291513D01*
X24570Y291379D01*
X24009Y291244D01*
X23268Y290937D01*
X22583Y290517D01*
X21973Y289996D01*
X21451Y289386D01*
X21448Y289380D01*
Y293377D01*
G37*
G36*
Y303377D02*X21451Y303372D01*
X21973Y302761D01*
X22583Y302240D01*
X23268Y301821D01*
X24009Y301513D01*
X24570Y301379D01*
X24009Y301244D01*
X23268Y300937D01*
X22583Y300517D01*
X21973Y299996D01*
X21451Y299386D01*
X21448Y299380D01*
Y303377D01*
G37*
G36*
Y313377D02*X21451Y313372D01*
X21973Y312761D01*
X22583Y312240D01*
X23268Y311821D01*
X24009Y311513D01*
X24570Y311379D01*
X24009Y311244D01*
X23268Y310937D01*
X22583Y310517D01*
X21973Y309996D01*
X21451Y309386D01*
X21448Y309380D01*
Y313377D01*
G37*
G36*
Y323377D02*X21451Y323372D01*
X21973Y322761D01*
X22583Y322240D01*
X23268Y321821D01*
X24009Y321513D01*
X24570Y321379D01*
X24009Y321244D01*
X23268Y320937D01*
X22583Y320517D01*
X21973Y319996D01*
X21451Y319386D01*
X21448Y319380D01*
Y323377D01*
G37*
G36*
Y333377D02*X21451Y333372D01*
X21973Y332761D01*
X22583Y332240D01*
X23268Y331821D01*
X24009Y331513D01*
X24570Y331379D01*
X24009Y331244D01*
X23268Y330937D01*
X22583Y330517D01*
X21973Y329996D01*
X21451Y329386D01*
X21448Y329380D01*
Y333377D01*
G37*
G36*
Y343377D02*X21451Y343372D01*
X21973Y342761D01*
X22583Y342240D01*
X23268Y341821D01*
X24009Y341513D01*
X24570Y341379D01*
X24009Y341244D01*
X23268Y340937D01*
X22583Y340517D01*
X21973Y339996D01*
X21451Y339386D01*
X21448Y339380D01*
Y343377D01*
G37*
G36*
Y353377D02*X21451Y353372D01*
X21973Y352761D01*
X22583Y352240D01*
X23268Y351821D01*
X24009Y351513D01*
X24570Y351379D01*
X24009Y351244D01*
X23268Y350937D01*
X22583Y350517D01*
X21973Y349996D01*
X21451Y349386D01*
X21448Y349380D01*
Y353377D01*
G37*
G36*
Y363377D02*X21451Y363372D01*
X21973Y362761D01*
X22583Y362240D01*
X23268Y361821D01*
X24009Y361513D01*
X24570Y361379D01*
X24009Y361244D01*
X23268Y360937D01*
X22583Y360517D01*
X21973Y359996D01*
X21451Y359386D01*
X21448Y359380D01*
Y363377D01*
G37*
G36*
Y371380D02*X21525Y371348D01*
X21755Y371293D01*
X21990Y371279D01*
X24171Y371283D01*
X24009Y371244D01*
X23268Y370937D01*
X22583Y370517D01*
X21973Y369996D01*
X21451Y369386D01*
X21448Y369380D01*
Y371380D01*
G37*
G36*
Y413386D02*X29732D01*
Y381378D01*
X29655Y381410D01*
X29426Y381465D01*
X29190Y381479D01*
X21755Y381465D01*
X21525Y381410D01*
X21448Y381378D01*
Y413386D01*
G37*
G36*
X19685D02*X21448D01*
Y381378D01*
X21307Y381319D01*
X21106Y381196D01*
X20926Y381043D01*
X20773Y380863D01*
X20650Y380662D01*
X20559Y380444D01*
X20504Y380214D01*
X20490Y379979D01*
X20504Y372543D01*
X20559Y372314D01*
X20650Y372096D01*
X20773Y371894D01*
X20926Y371715D01*
X21106Y371561D01*
X21307Y371438D01*
X21448Y371380D01*
Y369380D01*
X21032Y368701D01*
X20725Y367960D01*
X20537Y367179D01*
X20474Y366379D01*
X20537Y365578D01*
X20725Y364798D01*
X21032Y364056D01*
X21448Y363377D01*
Y359380D01*
X21032Y358701D01*
X20725Y357960D01*
X20537Y357179D01*
X20474Y356379D01*
X20537Y355578D01*
X20725Y354798D01*
X21032Y354056D01*
X21448Y353377D01*
Y349380D01*
X21032Y348701D01*
X20725Y347960D01*
X20537Y347179D01*
X20474Y346379D01*
X20537Y345578D01*
X20725Y344798D01*
X21032Y344056D01*
X21448Y343377D01*
Y339380D01*
X21032Y338701D01*
X20725Y337960D01*
X20537Y337179D01*
X20474Y336379D01*
X20537Y335578D01*
X20725Y334798D01*
X21032Y334056D01*
X21448Y333377D01*
Y329380D01*
X21032Y328701D01*
X20725Y327960D01*
X20537Y327179D01*
X20474Y326379D01*
X20537Y325578D01*
X20725Y324798D01*
X21032Y324056D01*
X21448Y323377D01*
Y319380D01*
X21032Y318701D01*
X20725Y317960D01*
X20537Y317179D01*
X20474Y316379D01*
X20537Y315578D01*
X20725Y314798D01*
X21032Y314056D01*
X21448Y313377D01*
Y309380D01*
X21032Y308701D01*
X20725Y307960D01*
X20537Y307179D01*
X20474Y306379D01*
X20537Y305578D01*
X20725Y304798D01*
X21032Y304056D01*
X21448Y303377D01*
Y299380D01*
X21032Y298701D01*
X20725Y297960D01*
X20537Y297179D01*
X20474Y296379D01*
X20537Y295578D01*
X20725Y294798D01*
X21032Y294056D01*
X21448Y293377D01*
Y289380D01*
X21032Y288701D01*
X20725Y287960D01*
X20537Y287179D01*
X20474Y286379D01*
X20537Y285578D01*
X20725Y284798D01*
X21032Y284056D01*
X21448Y283377D01*
Y279380D01*
X21032Y278701D01*
X20725Y277960D01*
X20537Y277179D01*
X20474Y276379D01*
X20537Y275578D01*
X20725Y274798D01*
X21032Y274056D01*
X21448Y273377D01*
Y269380D01*
X21032Y268701D01*
X20725Y267960D01*
X20537Y267179D01*
X20474Y266379D01*
X20537Y265578D01*
X20725Y264798D01*
X21032Y264056D01*
X21448Y263377D01*
Y259380D01*
X21032Y258701D01*
X20725Y257960D01*
X20537Y257179D01*
X20474Y256379D01*
X20537Y255578D01*
X20725Y254798D01*
X21032Y254056D01*
X21448Y253377D01*
Y249380D01*
X21032Y248701D01*
X20725Y247960D01*
X20537Y247179D01*
X20474Y246379D01*
X20537Y245578D01*
X20725Y244798D01*
X21032Y244056D01*
X21448Y243377D01*
Y239380D01*
X21032Y238701D01*
X20725Y237960D01*
X20537Y237179D01*
X20474Y236379D01*
X20537Y235578D01*
X20725Y234798D01*
X21032Y234056D01*
X21448Y233377D01*
Y229380D01*
X21032Y228701D01*
X20725Y227960D01*
X20537Y227179D01*
X20474Y226379D01*
X20537Y225578D01*
X20725Y224798D01*
X21032Y224056D01*
X21448Y223377D01*
Y219380D01*
X21032Y218701D01*
X20725Y217960D01*
X20537Y217179D01*
X20474Y216379D01*
X20537Y215578D01*
X20725Y214798D01*
X21032Y214056D01*
X21448Y213377D01*
Y209380D01*
X21032Y208701D01*
X20725Y207960D01*
X20537Y207179D01*
X20474Y206379D01*
X20537Y205578D01*
X20725Y204798D01*
X21032Y204056D01*
X21448Y203377D01*
Y199380D01*
X21032Y198701D01*
X20725Y197960D01*
X20537Y197179D01*
X20474Y196379D01*
X20537Y195578D01*
X20725Y194798D01*
X21032Y194056D01*
X21448Y193377D01*
Y189380D01*
X21032Y188701D01*
X20725Y187960D01*
X20537Y187179D01*
X20474Y186379D01*
X20537Y185578D01*
X20725Y184798D01*
X21032Y184056D01*
X21448Y183377D01*
Y179380D01*
X21032Y178701D01*
X20725Y177960D01*
X20537Y177179D01*
X20474Y176379D01*
X20537Y175578D01*
X20725Y174798D01*
X21032Y174056D01*
X21448Y173377D01*
Y169380D01*
X21032Y168701D01*
X20725Y167960D01*
X20537Y167179D01*
X20474Y166379D01*
X20537Y165578D01*
X20725Y164798D01*
X21032Y164056D01*
X21448Y163377D01*
Y159380D01*
X21032Y158701D01*
X20725Y157960D01*
X20537Y157179D01*
X20474Y156379D01*
X20537Y155578D01*
X20725Y154798D01*
X21032Y154056D01*
X21448Y153377D01*
Y149380D01*
X21032Y148701D01*
X20725Y147960D01*
X20537Y147179D01*
X20474Y146379D01*
X20537Y145578D01*
X20725Y144798D01*
X21032Y144056D01*
X21448Y143377D01*
Y139380D01*
X21032Y138701D01*
X20725Y137960D01*
X20537Y137179D01*
X20474Y136379D01*
X20537Y135578D01*
X20725Y134798D01*
X21032Y134056D01*
X21448Y133377D01*
Y129380D01*
X21032Y128701D01*
X20725Y127960D01*
X20537Y127179D01*
X20474Y126379D01*
X20537Y125578D01*
X20725Y124798D01*
X21032Y124056D01*
X21448Y123377D01*
Y119380D01*
X21032Y118701D01*
X20725Y117960D01*
X20537Y117179D01*
X20474Y116379D01*
X20537Y115578D01*
X20725Y114798D01*
X21032Y114056D01*
X21448Y113377D01*
Y109380D01*
X21032Y108701D01*
X20725Y107960D01*
X20537Y107179D01*
X20474Y106379D01*
X20537Y105578D01*
X20725Y104798D01*
X21032Y104056D01*
X21448Y103377D01*
Y99380D01*
X21032Y98701D01*
X20725Y97960D01*
X20537Y97179D01*
X20474Y96379D01*
X20537Y95578D01*
X20725Y94798D01*
X21032Y94056D01*
X21448Y93377D01*
Y88955D01*
X21401Y88942D01*
X21294Y88893D01*
X21195Y88829D01*
X21108Y88749D01*
X21034Y88657D01*
X20977Y88554D01*
X20799Y88141D01*
X20663Y87713D01*
X20564Y87274D01*
X20505Y86828D01*
X20485Y86379D01*
X20505Y85930D01*
X20564Y85484D01*
X20663Y85045D01*
X20799Y84616D01*
X20973Y84202D01*
X21031Y84098D01*
X21105Y84006D01*
X21193Y83926D01*
X21292Y83861D01*
X21400Y83812D01*
X21448Y83799D01*
Y79380D01*
X21032Y78701D01*
X20725Y77960D01*
X20537Y77179D01*
X20474Y76379D01*
X20537Y75578D01*
X20725Y74798D01*
X21032Y74056D01*
X21448Y73377D01*
Y39370D01*
X19685D01*
Y413386D01*
G37*
G36*
X124719Y272278D02*Y263155D01*
X124610Y263089D01*
X124131Y262680D01*
X123722Y262201D01*
X123393Y261664D01*
X123153Y261083D01*
X123006Y260471D01*
X122956Y259843D01*
X123006Y259215D01*
X123072Y258938D01*
X122585Y259354D01*
X122015Y259704D01*
X121397Y259960D01*
X120746Y260116D01*
X120079Y260168D01*
X119412Y260116D01*
X118762Y259960D01*
X118144Y259704D01*
X117573Y259354D01*
X117065Y258920D01*
X116630Y258411D01*
X116474Y258156D01*
X30374D01*
X30148Y258701D01*
X29729Y259386D01*
X29208Y259996D01*
X28597Y260517D01*
X27913Y260937D01*
X27171Y261244D01*
X26610Y261379D01*
X27171Y261513D01*
X27913Y261821D01*
X28597Y262240D01*
X29208Y262761D01*
X29729Y263372D01*
X29806Y263498D01*
X96789D01*
X96946Y263243D01*
X97381Y262734D01*
X97889Y262299D01*
X98460Y261950D01*
X99078Y261694D01*
X99728Y261538D01*
X100395Y261485D01*
X101062Y261538D01*
X101713Y261694D01*
X102331Y261950D01*
X102901Y262299D01*
X103410Y262734D01*
X103844Y263243D01*
X104194Y263813D01*
X104450Y264431D01*
X104606Y265081D01*
X104645Y265748D01*
X104606Y266415D01*
X104450Y267066D01*
X104194Y267684D01*
X103844Y268254D01*
X103410Y268763D01*
X102901Y269197D01*
X102331Y269547D01*
X101713Y269803D01*
X101062Y269959D01*
X100395Y270011D01*
X99728Y269959D01*
X99078Y269803D01*
X98460Y269547D01*
X97889Y269197D01*
X97381Y268763D01*
X96946Y268254D01*
X96790Y267998D01*
X30439D01*
X30148Y268701D01*
X29729Y269386D01*
X29208Y269996D01*
X28597Y270517D01*
X27913Y270937D01*
X27171Y271244D01*
X26610Y271379D01*
X27171Y271513D01*
X27913Y271821D01*
X28597Y272240D01*
X29208Y272761D01*
X29703Y273341D01*
X116473D01*
X116630Y273085D01*
X117065Y272576D01*
X117573Y272141D01*
X118144Y271792D01*
X118762Y271536D01*
X119412Y271380D01*
X120079Y271327D01*
X120746Y271380D01*
X121397Y271536D01*
X122015Y271792D01*
X122585Y272141D01*
X123094Y272576D01*
X123528Y273085D01*
X123671Y273317D01*
X123722Y273233D01*
X124131Y272754D01*
X124610Y272345D01*
X124719Y272278D01*
G37*
G54D23*X25591Y255906D02*X120079D01*
X25591Y265748D02*X100394D01*
X25591Y275591D02*X120079D01*
X25591Y285433D02*X100394D01*
X25591Y297244D02*X120079Y295276D01*
X25591Y307087D02*X100394Y305119D01*
X25591Y326772D02*X100394Y324804D01*
X25591Y316930D02*X120079Y314961D01*
X126969Y259843D02*Y275591D01*
X25591Y375985D02*X120079Y374016D01*
X25591Y366142D02*X100394Y364174D01*
X25591Y356300D02*X120079Y354331D01*
X25591Y346457D02*X100394Y344489D01*
X25591Y336615D02*X120079Y334646D01*
X148622Y364174D02*Y370079D01*
X152559Y374016D01*
X176181D01*
X179134Y371063D01*
Y364174D01*
X167323Y324804D02*Y330709D01*
X163386Y334646D01*
X140748D01*
X138780Y332678D01*
Y324804D01*
X179134Y286418D02*Y291339D01*
X177165Y293307D01*
X150591D01*
X148622Y291339D01*
Y285433D01*
X179134Y226378D02*X152559D01*
X148622Y222441D01*
X138780Y246063D02*Y252953D01*
X140748Y254922D01*
X165354D01*
X167323Y252953D01*
Y245079D01*
X25591Y165355D02*X100394Y167323D01*
X25591Y177166D02*X120079D01*
X25591Y187008D02*X100394D01*
X25591Y194882D02*X120079Y196851D01*
X25591Y206693D02*X100394D01*
X25591Y216536D02*X120079D01*
X25591Y226378D02*X100394D01*
X25591Y236221D02*X120079D01*
X25591Y246063D02*X100394D01*
X25591Y106300D02*X100394Y108268D01*
X25591Y116142D02*X120079Y118111D01*
X25591Y125985D02*X100394Y127953D01*
X25591Y135827D02*X120079Y137796D01*
X25591Y145670D02*X100394Y147638D01*
X25591Y76772D02*X120079Y78741D01*
X25591Y96457D02*X120079Y98426D01*
X25591Y155512D02*X120079Y157481D01*
X131890Y135827D02*Y177166D01*
X138780Y160433D02*X141732Y157481D01*
X138780Y160433D02*Y167323D01*
X120079Y78741D02*X134843D01*
X138780Y82678D01*
Y127953D01*
X176181Y118111D02*X179134Y121063D01*
Y126969D01*
X152559Y118111D02*X176181D01*
X148622Y122048D02*X152559Y118111D01*
X148622Y127953D02*Y122048D01*
X100394Y127953D02*X124016D01*
X131890Y135827D01*
X148622Y222441D02*Y206693D01*
X138780Y190945D02*Y206693D01*
X173228Y175197D02*Y184056D01*
X169291Y187993D01*
X141732D01*
X138780Y190945D01*
X131890Y177166D02*X135827Y181103D01*
X157480D01*
X141732Y157481D02*X165354D01*
X167323Y159449D01*
Y168307D01*
G54D24*X167322Y364489D03*
G54D22*G36*
X144950Y367924D02*Y360424D01*
X152450D01*
Y367924D01*
X144950D01*
G37*
G54D25*X138700Y364174D03*
G54D26*X165354Y403544D03*
G54D22*G36*
X116829Y377265D02*Y370765D01*
X123329D01*
Y377265D01*
X116829D01*
G37*
G54D26*X100395Y364173D03*
X120079Y354330D03*
Y334645D03*
Y314960D03*
X51181Y403544D03*
G54D22*G36*
X21990Y379979D02*Y372779D01*
X29190D01*
Y379979D01*
X21990D01*
G37*
G54D27*X25590Y366379D03*
Y356379D03*
Y346379D03*
Y336379D03*
Y326379D03*
Y316379D03*
Y306379D03*
Y296379D03*
Y286379D03*
Y276379D03*
Y266379D03*
Y256379D03*
Y246379D03*
Y236379D03*
Y226379D03*
Y216379D03*
G54D24*X179133Y324489D03*
Y364489D03*
X167322Y324489D03*
Y285749D03*
Y245749D03*
X179133Y226694D03*
Y246064D03*
Y286064D03*
G54D22*G36*
X144950Y328554D02*Y321054D01*
X152450D01*
Y328554D01*
X144950D01*
G37*
G54D25*X138700Y324804D03*
G54D22*G36*
X144950Y289184D02*Y281684D01*
X152450D01*
Y289184D01*
X144950D01*
G37*
G54D25*X138700Y285434D03*
G54D22*G36*
X144950Y249814D02*Y242314D01*
X152450D01*
Y249814D01*
X144950D01*
G37*
G54D25*X138700Y246064D03*
G54D26*X100395Y344488D03*
Y324803D03*
Y305119D03*
Y285433D03*
Y265748D03*
Y246063D03*
X120079Y295275D03*
Y275590D03*
Y255905D03*
Y236220D03*
X100395Y226378D03*
X120079Y216535D03*
X51181Y49213D03*
X165354D03*
G54D27*X25590Y206379D03*
Y196379D03*
Y186379D03*
Y176379D03*
Y166379D03*
Y156379D03*
Y146379D03*
Y136379D03*
Y126379D03*
Y116379D03*
Y106379D03*
Y96379D03*
Y86379D03*
Y76379D03*
G54D24*X179133Y186694D03*
Y167639D03*
X167322D03*
G54D22*G36*
X145100Y210294D02*Y203094D01*
X152300D01*
Y210294D01*
X145100D01*
G37*
G54D27*X138700Y206694D03*
G54D26*X100395Y206693D03*
X120079Y196850D03*
X100395Y187008D03*
G54D22*G36*
X144950Y171074D02*Y163574D01*
X152450D01*
Y171074D01*
X144950D01*
G37*
G54D24*X179133Y127639D03*
X167322D03*
G54D22*G36*
X144950Y131704D02*Y124204D01*
X152450D01*
Y131704D01*
X144950D01*
G37*
G54D25*X138700Y167324D03*
G54D26*X120079Y177165D03*
X100395Y167323D03*
X120079Y157480D03*
X100395Y147638D03*
X120079Y137795D03*
G54D25*X159448Y80709D03*
X138700Y127954D03*
G54D26*X100395Y127953D03*
X120079Y118110D03*
X100395Y108268D03*
X120079Y98425D03*
Y78740D03*
X100395Y88583D03*
G54D24*X169291Y212599D03*
Y233269D03*
X173228Y175197D03*
X157480Y181103D03*
X126969Y259843D03*
Y275591D03*
G54D28*G54D29*G54D30*G54D29*G54D31*G54D29*G54D32*G54D29*G54D30*G54D29*G54D31*G54D32*G54D29*G54D32*G54D29*G54D30*G54D29*G54D30*G54D29*G54D30*G54D29*M02*
