G04 start of page 10 for group -3984 idx -3984 *
G04 Title: 01.002.00.01.01.pcb, fab *
G04 Creator: pcb 4.1.2 *
G04 CreationDate: Sat Sep  1 10:35:09 2018 UTC *
G04 For: bert *
G04 Format: Gerber/RS-274X *
G04 PCB-Dimensions (mil): 1968.50 3937.01 *
G04 PCB-Coordinate-Origin: lower left *
%MOIN*%
%FSLAX25Y25*%
%LNFAB*%
%ADD57C,0.0100*%
%ADD56C,0.0060*%
%ADD55C,0.0080*%
G54D55*X99594Y29528D02*G75*G03X101194Y29528I800J0D01*G01*
G75*G03X99594Y29528I-800J0D01*G01*
Y364174D02*G75*G03X101194Y364174I800J0D01*G01*
G75*G03X99594Y364174I-800J0D01*G01*
X14200Y404951D02*G75*G03X15800Y404951I800J0D01*G01*
G75*G03X14200Y404951I-800J0D01*G01*
G54D56*X140000Y408701D02*Y402701D01*
Y408701D02*Y407951D01*
X143750Y404201D01*
Y408701D02*Y402701D01*
X145550Y407951D02*Y403451D01*
Y407951D02*X146300Y408701D01*
X147800D01*
X148550Y407951D01*
Y403451D01*
X147800Y402701D02*X148550Y403451D01*
X146300Y402701D02*X147800D01*
X145550Y403451D02*X146300Y402701D01*
X98000Y407951D02*X98750Y408701D01*
X101000D01*
X101750Y407951D01*
Y406451D01*
X98000Y402701D02*X101750Y406451D01*
X98000Y402701D02*X101750D01*
X45000Y403451D02*X45750Y402701D01*
X45000Y407951D02*Y403451D01*
Y407951D02*X45750Y408701D01*
X47250D01*
X48000Y407951D01*
Y403451D01*
X47250Y402701D02*X48000Y403451D01*
X45750Y402701D02*X47250D01*
X45000Y404201D02*X48000Y407201D01*
X49800Y402701D02*X50550D01*
X53100D02*X54600D01*
X53850Y408701D02*Y402701D01*
X52350Y407201D02*X53850Y408701D01*
X56400Y407951D02*X57150Y408701D01*
X59400D01*
X60150Y407951D01*
Y406451D01*
X56400Y402701D02*X60150Y406451D01*
X56400Y402701D02*X60150D01*
X64200Y408701D02*X64950Y407951D01*
X62700Y408701D02*X64200D01*
X61950Y407951D02*X62700Y408701D01*
X61950Y407951D02*Y403451D01*
X62700Y402701D01*
X64200Y405701D02*X64950Y404951D01*
X61950Y405701D02*X64200D01*
X62700Y402701D02*X64200D01*
X64950Y403451D01*
Y404951D02*Y403451D01*
X137658Y335846D02*X140058Y333446D01*
X137658D02*X140058Y335846D01*
X127658D02*X130058Y333446D01*
X127658D02*X130058Y335846D01*
X137658Y296476D02*X140058Y294076D01*
X137658D02*X140058Y296476D01*
X127658D02*X130058Y294076D01*
X127658D02*X130058Y296476D01*
X137658Y257106D02*X140058Y254706D01*
X137658D02*X140058Y257106D01*
X127658D02*X130058Y254706D01*
X127658D02*X130058Y257106D01*
X137658Y217736D02*X140058Y215336D01*
X137658D02*X140058Y217736D01*
X127658D02*X130058Y215336D01*
X127658D02*X130058Y217736D01*
X137658Y99626D02*X140058Y97226D01*
X137658D02*X140058Y99626D01*
X127658D02*X130058Y97226D01*
X127658D02*X130058Y99626D01*
X137658Y138996D02*X140058Y136596D01*
X137658D02*X140058Y138996D01*
X127658D02*X130058Y136596D01*
X127658D02*X130058Y138996D01*
X148406Y52381D02*X150806Y49981D01*
X148406D02*X150806Y52381D01*
X13800Y421151D02*X16200Y418751D01*
X13800D02*X16200Y421151D01*
X135000Y423701D02*Y422951D01*
X136500Y421451D01*
X138000Y422951D01*
Y423701D02*Y422951D01*
X136500Y421451D02*Y417701D01*
X139800Y420701D02*X142050D01*
X139800Y417701D02*X142800D01*
X139800Y423701D02*Y417701D01*
Y423701D02*X142800D01*
X147600D02*X148350Y422951D01*
X145350Y423701D02*X147600D01*
X144600Y422951D02*X145350Y423701D01*
X144600Y422951D02*Y421451D01*
X145350Y420701D01*
X147600D01*
X148350Y419951D01*
Y418451D01*
X147600Y417701D02*X148350Y418451D01*
X145350Y417701D02*X147600D01*
X144600Y418451D02*X145350Y417701D01*
X98750D02*X100250D01*
X99500Y423701D02*Y417701D01*
X98000Y422201D02*X99500Y423701D01*
X102050Y422951D02*X102800Y423701D01*
X104300D01*
X105050Y422951D01*
Y418451D01*
X104300Y417701D02*X105050Y418451D01*
X102800Y417701D02*X104300D01*
X102050Y418451D02*X102800Y417701D01*
Y420701D02*X105050D01*
X45000Y418451D02*X45750Y417701D01*
X45000Y422951D02*Y418451D01*
Y422951D02*X45750Y423701D01*
X47250D01*
X48000Y422951D01*
Y418451D01*
X47250Y417701D02*X48000Y418451D01*
X45750Y417701D02*X47250D01*
X45000Y419201D02*X48000Y422201D01*
X49800Y417701D02*X50550D01*
X52350Y418451D02*X53100Y417701D01*
X52350Y422951D02*Y418451D01*
Y422951D02*X53100Y423701D01*
X54600D01*
X55350Y422951D01*
Y418451D01*
X54600Y417701D02*X55350Y418451D01*
X53100Y417701D02*X54600D01*
X52350Y419201D02*X55350Y422201D01*
X57150Y420701D02*X60150Y423701D01*
X57150Y420701D02*X60900D01*
X60150Y423701D02*Y417701D01*
X64950Y423701D02*X65700Y422951D01*
X63450Y423701D02*X64950D01*
X62700Y422951D02*X63450Y423701D01*
X62700Y422951D02*Y418451D01*
X63450Y417701D01*
X64950Y420701D02*X65700Y419951D01*
X62700Y420701D02*X64950D01*
X63450Y417701D02*X64950D01*
X65700Y418451D01*
Y419951D02*Y418451D01*
X15748Y348451D02*Y345251D01*
X14148Y346851D02*X17348D01*
X15748Y338451D02*Y335251D01*
X14148Y336851D02*X17348D01*
X15748Y328451D02*Y325251D01*
X14148Y326851D02*X17348D01*
X15748Y318451D02*Y315251D01*
X14148Y316851D02*X17348D01*
X15748Y308451D02*Y305251D01*
X14148Y306851D02*X17348D01*
X15748Y298451D02*Y295251D01*
X14148Y296851D02*X17348D01*
X15748Y288451D02*Y285251D01*
X14148Y286851D02*X17348D01*
X15748Y278451D02*Y275251D01*
X14148Y276851D02*X17348D01*
X15748Y268451D02*Y265251D01*
X14148Y266851D02*X17348D01*
X15748Y258451D02*Y255251D01*
X14148Y256851D02*X17348D01*
X15748Y248451D02*Y245251D01*
X14148Y246851D02*X17348D01*
X15748Y238451D02*Y235251D01*
X14148Y236851D02*X17348D01*
X15748Y228451D02*Y225251D01*
X14148Y226851D02*X17348D01*
X15748Y218451D02*Y215251D01*
X14148Y216851D02*X17348D01*
X15748Y208451D02*Y205251D01*
X14148Y206851D02*X17348D01*
X15748Y198451D02*Y195251D01*
X14148Y196851D02*X17348D01*
X15748Y188451D02*Y185251D01*
X14148Y186851D02*X17348D01*
X15748Y178451D02*Y175251D01*
X14148Y176851D02*X17348D01*
X15748Y168451D02*Y165251D01*
X14148Y166851D02*X17348D01*
X15748Y158451D02*Y155251D01*
X14148Y156851D02*X17348D01*
X15748Y148451D02*Y145251D01*
X14148Y146851D02*X17348D01*
X15748Y138451D02*Y135251D01*
X14148Y136851D02*X17348D01*
X15748Y128451D02*Y125251D01*
X14148Y126851D02*X17348D01*
X15748Y118451D02*Y115251D01*
X14148Y116851D02*X17348D01*
X15748Y108451D02*Y105251D01*
X14148Y106851D02*X17348D01*
X15748Y98451D02*Y95251D01*
X14148Y96851D02*X17348D01*
X15748Y88451D02*Y85251D01*
X14148Y86851D02*X17348D01*
X15748Y78451D02*Y75251D01*
X14148Y76851D02*X17348D01*
X15748Y68451D02*Y65251D01*
X14148Y66851D02*X17348D01*
X15748Y58451D02*Y55251D01*
X14148Y56851D02*X17348D01*
X15748Y48451D02*Y45251D01*
X14148Y46851D02*X17348D01*
X138858Y178766D02*Y175566D01*
X137258Y177166D02*X140458D01*
X128858Y178766D02*Y175566D01*
X127258Y177166D02*X130458D01*
X15000Y436551D02*Y433351D01*
X13400Y434951D02*X16600D01*
X135000Y438701D02*Y437951D01*
X136500Y436451D01*
X138000Y437951D01*
Y438701D02*Y437951D01*
X136500Y436451D02*Y432701D01*
X139800Y435701D02*X142050D01*
X139800Y432701D02*X142800D01*
X139800Y438701D02*Y432701D01*
Y438701D02*X142800D01*
X147600D02*X148350Y437951D01*
X145350Y438701D02*X147600D01*
X144600Y437951D02*X145350Y438701D01*
X144600Y437951D02*Y436451D01*
X145350Y435701D01*
X147600D01*
X148350Y434951D01*
Y433451D01*
X147600Y432701D02*X148350Y433451D01*
X145350Y432701D02*X147600D01*
X144600Y433451D02*X145350Y432701D01*
X98000Y437951D02*X98750Y438701D01*
X100250D01*
X101000Y437951D01*
Y433451D01*
X100250Y432701D02*X101000Y433451D01*
X98750Y432701D02*X100250D01*
X98000Y433451D02*X98750Y432701D01*
Y435701D02*X101000D01*
X102800Y437951D02*X103550Y438701D01*
X105050D01*
X105800Y437951D01*
Y433451D01*
X105050Y432701D02*X105800Y433451D01*
X103550Y432701D02*X105050D01*
X102800Y433451D02*X103550Y432701D01*
Y435701D02*X105800D01*
X45000Y433451D02*X45750Y432701D01*
X45000Y437951D02*Y433451D01*
Y437951D02*X45750Y438701D01*
X47250D01*
X48000Y437951D01*
Y433451D01*
X47250Y432701D02*X48000Y433451D01*
X45750Y432701D02*X47250D01*
X45000Y434201D02*X48000Y437201D01*
X49800Y432701D02*X50550D01*
X52350Y433451D02*X53100Y432701D01*
X52350Y437951D02*Y433451D01*
Y437951D02*X53100Y438701D01*
X54600D01*
X55350Y437951D01*
Y433451D01*
X54600Y432701D02*X55350Y433451D01*
X53100Y432701D02*X54600D01*
X52350Y434201D02*X55350Y437201D01*
X57150Y435701D02*X60150Y438701D01*
X57150Y435701D02*X60900D01*
X60150Y438701D02*Y432701D01*
X62700Y437951D02*X63450Y438701D01*
X65700D01*
X66450Y437951D01*
Y436451D01*
X62700Y432701D02*X66450Y436451D01*
X62700Y432701D02*X66450D01*
X169291Y294961D02*Y293361D01*
Y294961D02*X170678Y295761D01*
X169291Y294961D02*X167905Y295761D01*
X169291Y334961D02*Y333361D01*
Y334961D02*X170678Y335761D01*
X169291Y334961D02*X167905Y335761D01*
X157480Y334961D02*Y333361D01*
Y334961D02*X158867Y335761D01*
X157480Y334961D02*X156094Y335761D01*
X157480Y294961D02*Y293361D01*
Y294961D02*X158867Y295761D01*
X157480Y294961D02*X156094Y295761D01*
X41339Y17717D02*Y16117D01*
Y17717D02*X42725Y18517D01*
X41339Y17717D02*X39952Y18517D01*
X139764Y17717D02*Y16117D01*
Y17717D02*X141150Y18517D01*
X139764Y17717D02*X138377Y18517D01*
X41339Y375985D02*Y374385D01*
Y375985D02*X42725Y376785D01*
X41339Y375985D02*X39952Y376785D01*
X139764Y375985D02*Y374385D01*
Y375985D02*X141150Y376785D01*
X139764Y375985D02*X138377Y376785D01*
X169291Y157166D02*Y155566D01*
Y157166D02*X170678Y157966D01*
X169291Y157166D02*X167905Y157966D01*
X169291Y197166D02*Y195566D01*
Y197166D02*X170678Y197966D01*
X169291Y197166D02*X167905Y197966D01*
X169291Y216536D02*Y214936D01*
Y216536D02*X170678Y217336D01*
X169291Y216536D02*X167905Y217336D01*
X169291Y256536D02*Y254936D01*
Y256536D02*X170678Y257336D01*
X169291Y256536D02*X167905Y257336D01*
X157480Y256221D02*Y254621D01*
Y256221D02*X158867Y257021D01*
X157480Y256221D02*X156094Y257021D01*
X157480Y216221D02*Y214621D01*
Y216221D02*X158867Y217021D01*
X157480Y216221D02*X156094Y217021D01*
X169291Y138111D02*Y136511D01*
Y138111D02*X170678Y138911D01*
X169291Y138111D02*X167905Y138911D01*
X169291Y98111D02*Y96511D01*
Y98111D02*X170678Y98911D01*
X169291Y98111D02*X167905Y98911D01*
X157480Y98111D02*Y96511D01*
Y98111D02*X158867Y98911D01*
X157480Y98111D02*X156094Y98911D01*
X157480Y138111D02*Y136511D01*
Y138111D02*X158867Y138911D01*
X157480Y138111D02*X156094Y138911D01*
X90551Y344488D02*Y342888D01*
Y344488D02*X91937Y345288D01*
X90551Y344488D02*X89164Y345288D01*
X110235Y334646D02*Y333046D01*
Y334646D02*X111621Y335446D01*
X110235Y334646D02*X108848Y335446D01*
X90551Y324803D02*Y323203D01*
Y324803D02*X91937Y325603D01*
X90551Y324803D02*X89164Y325603D01*
X110235Y314961D02*Y313361D01*
Y314961D02*X111621Y315761D01*
X110235Y314961D02*X108848Y315761D01*
X90551Y305118D02*Y303518D01*
Y305118D02*X91937Y305918D01*
X90551Y305118D02*X89164Y305918D01*
X110235Y295276D02*Y293676D01*
Y295276D02*X111621Y296076D01*
X110235Y295276D02*X108848Y296076D01*
X90551Y285433D02*Y283833D01*
Y285433D02*X91937Y286233D01*
X90551Y285433D02*X89164Y286233D01*
X110235Y275591D02*Y273991D01*
Y275591D02*X111621Y276391D01*
X110235Y275591D02*X108848Y276391D01*
X90551Y265748D02*Y264148D01*
Y265748D02*X91937Y266548D01*
X90551Y265748D02*X89164Y266548D01*
X110235Y255906D02*Y254306D01*
Y255906D02*X111621Y256706D01*
X110235Y255906D02*X108848Y256706D01*
X90551Y246063D02*Y244463D01*
Y246063D02*X91937Y246863D01*
X90551Y246063D02*X89164Y246863D01*
X110235Y236221D02*Y234621D01*
Y236221D02*X111621Y237021D01*
X110235Y236221D02*X108848Y237021D01*
X90551Y226378D02*Y224778D01*
Y226378D02*X91937Y227178D01*
X90551Y226378D02*X89164Y227178D01*
X110235Y216536D02*Y214936D01*
Y216536D02*X111621Y217336D01*
X110235Y216536D02*X108848Y217336D01*
X90551Y206693D02*Y205093D01*
Y206693D02*X91937Y207493D01*
X90551Y206693D02*X89164Y207493D01*
X110235Y196851D02*Y195251D01*
Y196851D02*X111621Y197651D01*
X110235Y196851D02*X108848Y197651D01*
X90551Y187008D02*Y185408D01*
Y187008D02*X91937Y187808D01*
X90551Y187008D02*X89164Y187808D01*
X110235Y177166D02*Y175566D01*
Y177166D02*X111621Y177966D01*
X110235Y177166D02*X108848Y177966D01*
X90551Y167323D02*Y165723D01*
Y167323D02*X91937Y168123D01*
X90551Y167323D02*X89164Y168123D01*
X110235Y157481D02*Y155881D01*
Y157481D02*X111621Y158281D01*
X110235Y157481D02*X108848Y158281D01*
X110235Y137796D02*Y136196D01*
Y137796D02*X111621Y138596D01*
X110235Y137796D02*X108848Y138596D01*
X90551Y147638D02*Y146038D01*
Y147638D02*X91937Y148438D01*
X90551Y147638D02*X89164Y148438D01*
X90551Y127953D02*Y126353D01*
Y127953D02*X91937Y128753D01*
X90551Y127953D02*X89164Y128753D01*
X110235Y118111D02*Y116511D01*
Y118111D02*X111621Y118911D01*
X110235Y118111D02*X108848Y118911D01*
X90551Y108268D02*Y106668D01*
Y108268D02*X91937Y109068D01*
X90551Y108268D02*X89164Y109068D01*
X110235Y98426D02*Y96826D01*
Y98426D02*X111621Y99226D01*
X110235Y98426D02*X108848Y99226D01*
X90551Y88583D02*Y86983D01*
Y88583D02*X91937Y89383D01*
X90551Y88583D02*X89164Y89383D01*
X110235Y78741D02*Y77141D01*
Y78741D02*X111621Y79541D01*
X110235Y78741D02*X108848Y79541D01*
X90551Y68898D02*Y67298D01*
Y68898D02*X91937Y69698D01*
X90551Y68898D02*X89164Y69698D01*
X110235Y59056D02*Y57456D01*
Y59056D02*X111621Y59856D01*
X110235Y59056D02*X108848Y59856D01*
X90551Y49213D02*Y47613D01*
Y49213D02*X91937Y50013D01*
X90551Y49213D02*X89164Y50013D01*
X15000Y449951D02*Y448351D01*
Y449951D02*X16387Y450751D01*
X15000Y449951D02*X13613Y450751D01*
X135000Y453701D02*Y452951D01*
X136500Y451451D01*
X138000Y452951D01*
Y453701D02*Y452951D01*
X136500Y451451D02*Y447701D01*
X139800Y450701D02*X142050D01*
X139800Y447701D02*X142800D01*
X139800Y453701D02*Y447701D01*
Y453701D02*X142800D01*
X147600D02*X148350Y452951D01*
X145350Y453701D02*X147600D01*
X144600Y452951D02*X145350Y453701D01*
X144600Y452951D02*Y451451D01*
X145350Y450701D01*
X147600D01*
X148350Y449951D01*
Y448451D01*
X147600Y447701D02*X148350Y448451D01*
X145350Y447701D02*X147600D01*
X144600Y448451D02*X145350Y447701D01*
X98000Y450701D02*X101000Y453701D01*
X98000Y450701D02*X101750D01*
X101000Y453701D02*Y447701D01*
X103550D02*X106550Y450701D01*
Y452951D02*Y450701D01*
X105800Y453701D02*X106550Y452951D01*
X104300Y453701D02*X105800D01*
X103550Y452951D02*X104300Y453701D01*
X103550Y452951D02*Y451451D01*
X104300Y450701D01*
X106550D01*
X45000Y448451D02*X45750Y447701D01*
X45000Y452951D02*Y448451D01*
Y452951D02*X45750Y453701D01*
X47250D01*
X48000Y452951D01*
Y448451D01*
X47250Y447701D02*X48000Y448451D01*
X45750Y447701D02*X47250D01*
X45000Y449201D02*X48000Y452201D01*
X49800Y447701D02*X50550D01*
X52350Y448451D02*X53100Y447701D01*
X52350Y452951D02*Y448451D01*
Y452951D02*X53100Y453701D01*
X54600D01*
X55350Y452951D01*
Y448451D01*
X54600Y447701D02*X55350Y448451D01*
X53100Y447701D02*X54600D01*
X52350Y449201D02*X55350Y452201D01*
X57150Y450701D02*X60150Y453701D01*
X57150Y450701D02*X60900D01*
X60150Y453701D02*Y447701D01*
X62700Y448451D02*X63450Y447701D01*
X62700Y452951D02*Y448451D01*
Y452951D02*X63450Y453701D01*
X64950D01*
X65700Y452951D01*
Y448451D01*
X64950Y447701D02*X65700Y448451D01*
X63450Y447701D02*X64950D01*
X62700Y449201D02*X65700Y452201D01*
X3000Y468701D02*X3750Y467951D01*
X750Y468701D02*X3000D01*
X0Y467951D02*X750Y468701D01*
X0Y467951D02*Y466451D01*
X750Y465701D01*
X3000D01*
X3750Y464951D01*
Y463451D01*
X3000Y462701D02*X3750Y463451D01*
X750Y462701D02*X3000D01*
X0Y463451D02*X750Y462701D01*
X5550Y465701D02*Y463451D01*
X6300Y462701D01*
X8550Y465701D02*Y461201D01*
X7800Y460451D02*X8550Y461201D01*
X6300Y460451D02*X7800D01*
X5550Y461201D02*X6300Y460451D01*
Y462701D02*X7800D01*
X8550Y463451D01*
X11100Y464951D02*Y462701D01*
Y464951D02*X11850Y465701D01*
X12600D01*
X13350Y464951D01*
Y462701D01*
Y464951D02*X14100Y465701D01*
X14850D01*
X15600Y464951D01*
Y462701D01*
X10350Y465701D02*X11100Y464951D01*
X17400Y468701D02*Y462701D01*
Y463451D02*X18150Y462701D01*
X19650D01*
X20400Y463451D01*
Y464951D02*Y463451D01*
X19650Y465701D02*X20400Y464951D01*
X18150Y465701D02*X19650D01*
X17400Y464951D02*X18150Y465701D01*
X22200Y464951D02*Y463451D01*
Y464951D02*X22950Y465701D01*
X24450D01*
X25200Y464951D01*
Y463451D01*
X24450Y462701D02*X25200Y463451D01*
X22950Y462701D02*X24450D01*
X22200Y463451D02*X22950Y462701D01*
X27000Y468701D02*Y463451D01*
X27750Y462701D01*
X0Y459451D02*X29250D01*
X41750Y468701D02*Y462701D01*
X44000Y468701D02*X44750Y467951D01*
Y463451D01*
X44000Y462701D02*X44750Y463451D01*
X41000Y462701D02*X44000D01*
X41000Y468701D02*X44000D01*
X46550Y467201D02*Y466451D01*
Y464951D02*Y462701D01*
X50300Y465701D02*X51050Y464951D01*
X48800Y465701D02*X50300D01*
X48050Y464951D02*X48800Y465701D01*
X48050Y464951D02*Y463451D01*
X48800Y462701D01*
X51050Y465701D02*Y463451D01*
X51800Y462701D01*
X48800D02*X50300D01*
X51050Y463451D01*
X54350Y464951D02*Y462701D01*
Y464951D02*X55100Y465701D01*
X55850D01*
X56600Y464951D01*
Y462701D01*
Y464951D02*X57350Y465701D01*
X58100D01*
X58850Y464951D01*
Y462701D01*
X53600Y465701D02*X54350Y464951D01*
X60650Y462701D02*X61400D01*
X65900Y463451D02*X66650Y462701D01*
X65900Y467951D02*X66650Y468701D01*
X65900Y467951D02*Y463451D01*
X68450Y468701D02*X69950D01*
X69200D02*Y462701D01*
X68450D02*X69950D01*
X72500Y464951D02*Y462701D01*
Y464951D02*X73250Y465701D01*
X74000D01*
X74750Y464951D01*
Y462701D01*
X71750Y465701D02*X72500Y464951D01*
X77300Y465701D02*X79550D01*
X76550Y464951D02*X77300Y465701D01*
X76550Y464951D02*Y463451D01*
X77300Y462701D01*
X79550D01*
X81350Y468701D02*Y462701D01*
Y464951D02*X82100Y465701D01*
X83600D01*
X84350Y464951D01*
Y462701D01*
X86150Y468701D02*X86900Y467951D01*
Y463451D01*
X86150Y462701D02*X86900Y463451D01*
X41000Y459451D02*X88700D01*
X95750Y462701D02*X98000D01*
X95000Y463451D02*X95750Y462701D01*
X95000Y467951D02*Y463451D01*
Y467951D02*X95750Y468701D01*
X98000D01*
X99800Y464951D02*Y463451D01*
Y464951D02*X100550Y465701D01*
X102050D01*
X102800Y464951D01*
Y463451D01*
X102050Y462701D02*X102800Y463451D01*
X100550Y462701D02*X102050D01*
X99800Y463451D02*X100550Y462701D01*
X104600Y465701D02*Y463451D01*
X105350Y462701D01*
X106850D01*
X107600Y463451D01*
Y465701D02*Y463451D01*
X110150Y464951D02*Y462701D01*
Y464951D02*X110900Y465701D01*
X111650D01*
X112400Y464951D01*
Y462701D01*
X109400Y465701D02*X110150Y464951D01*
X114950Y468701D02*Y463451D01*
X115700Y462701D01*
X114200Y466451D02*X115700D01*
X95000Y459451D02*X117200D01*
X130750Y468701D02*Y462701D01*
X130000Y468701D02*X133000D01*
X133750Y467951D01*
Y466451D01*
X133000Y465701D02*X133750Y466451D01*
X130750Y465701D02*X133000D01*
X135550Y468701D02*Y463451D01*
X136300Y462701D01*
X140050Y465701D02*X140800Y464951D01*
X138550Y465701D02*X140050D01*
X137800Y464951D02*X138550Y465701D01*
X137800Y464951D02*Y463451D01*
X138550Y462701D01*
X140800Y465701D02*Y463451D01*
X141550Y462701D01*
X138550D02*X140050D01*
X140800Y463451D01*
X144100Y468701D02*Y463451D01*
X144850Y462701D01*
X143350Y466451D02*X144850D01*
X147100Y462701D02*X149350D01*
X146350Y463451D02*X147100Y462701D01*
X146350Y464951D02*Y463451D01*
Y464951D02*X147100Y465701D01*
X148600D01*
X149350Y464951D01*
X146350Y464201D02*X149350D01*
Y464951D02*Y464201D01*
X154150Y468701D02*Y462701D01*
X153400D02*X154150Y463451D01*
X151900Y462701D02*X153400D01*
X151150Y463451D02*X151900Y462701D01*
X151150Y464951D02*Y463451D01*
Y464951D02*X151900Y465701D01*
X153400D01*
X154150Y464951D01*
X157450Y465701D02*Y464951D01*
Y463451D02*Y462701D01*
X155950Y467951D02*Y467201D01*
Y467951D02*X156700Y468701D01*
X158200D01*
X158950Y467951D01*
Y467201D01*
X157450Y465701D02*X158950Y467201D01*
X130000Y459451D02*X160750D01*
X0Y483701D02*X3000D01*
X1500D02*Y477701D01*
X4800Y483701D02*Y477701D01*
Y479951D02*X5550Y480701D01*
X7050D01*
X7800Y479951D01*
Y477701D01*
X10350D02*X12600D01*
X9600Y478451D02*X10350Y477701D01*
X9600Y479951D02*Y478451D01*
Y479951D02*X10350Y480701D01*
X11850D01*
X12600Y479951D01*
X9600Y479201D02*X12600D01*
Y479951D02*Y479201D01*
X15150Y479951D02*Y477701D01*
Y479951D02*X15900Y480701D01*
X17400D01*
X14400D02*X15150Y479951D01*
X19950Y477701D02*X22200D01*
X19200Y478451D02*X19950Y477701D01*
X19200Y479951D02*Y478451D01*
Y479951D02*X19950Y480701D01*
X21450D01*
X22200Y479951D01*
X19200Y479201D02*X22200D01*
Y479951D02*Y479201D01*
X28950Y480701D02*X29700Y479951D01*
X27450Y480701D02*X28950D01*
X26700Y479951D02*X27450Y480701D01*
X26700Y479951D02*Y478451D01*
X27450Y477701D01*
X29700Y480701D02*Y478451D01*
X30450Y477701D01*
X27450D02*X28950D01*
X29700Y478451D01*
X33000Y479951D02*Y477701D01*
Y479951D02*X33750Y480701D01*
X35250D01*
X32250D02*X33000Y479951D01*
X37800Y477701D02*X40050D01*
X37050Y478451D02*X37800Y477701D01*
X37050Y479951D02*Y478451D01*
Y479951D02*X37800Y480701D01*
X39300D01*
X40050Y479951D01*
X37050Y479201D02*X40050D01*
Y479951D02*Y479201D01*
X44550Y480701D02*X47550Y483701D01*
X44550Y480701D02*X48300D01*
X47550Y483701D02*Y477701D01*
X55800Y483701D02*Y477701D01*
X55050D02*X55800Y478451D01*
X53550Y477701D02*X55050D01*
X52800Y478451D02*X53550Y477701D01*
X52800Y479951D02*Y478451D01*
Y479951D02*X53550Y480701D01*
X55050D01*
X55800Y479951D01*
X57600Y482201D02*Y481451D01*
Y479951D02*Y477701D01*
X59850Y482951D02*Y477701D01*
Y482951D02*X60600Y483701D01*
X61350D01*
X59100Y480701D02*X60600D01*
X63600Y482951D02*Y477701D01*
Y482951D02*X64350Y483701D01*
X65100D01*
X62850Y480701D02*X64350D01*
X67350Y477701D02*X69600D01*
X66600Y478451D02*X67350Y477701D01*
X66600Y479951D02*Y478451D01*
Y479951D02*X67350Y480701D01*
X68850D01*
X69600Y479951D01*
X66600Y479201D02*X69600D01*
Y479951D02*Y479201D01*
X72150Y479951D02*Y477701D01*
Y479951D02*X72900Y480701D01*
X74400D01*
X71400D02*X72150Y479951D01*
X76950Y477701D02*X79200D01*
X76200Y478451D02*X76950Y477701D01*
X76200Y479951D02*Y478451D01*
Y479951D02*X76950Y480701D01*
X78450D01*
X79200Y479951D01*
X76200Y479201D02*X79200D01*
Y479951D02*Y479201D01*
X81750Y479951D02*Y477701D01*
Y479951D02*X82500Y480701D01*
X83250D01*
X84000Y479951D01*
Y477701D01*
X81000Y480701D02*X81750Y479951D01*
X86550Y483701D02*Y478451D01*
X87300Y477701D01*
X85800Y481451D02*X87300D01*
X94500Y483701D02*Y477701D01*
X93750D02*X94500Y478451D01*
X92250Y477701D02*X93750D01*
X91500Y478451D02*X92250Y477701D01*
X91500Y479951D02*Y478451D01*
Y479951D02*X92250Y480701D01*
X93750D01*
X94500Y479951D01*
X97050D02*Y477701D01*
Y479951D02*X97800Y480701D01*
X99300D01*
X96300D02*X97050Y479951D01*
X101100Y482201D02*Y481451D01*
Y479951D02*Y477701D01*
X102600Y483701D02*Y478451D01*
X103350Y477701D01*
X104850Y483701D02*Y478451D01*
X105600Y477701D01*
X110550D02*X112800D01*
X113550Y478451D01*
X112800Y479201D02*X113550Y478451D01*
X110550Y479201D02*X112800D01*
X109800Y479951D02*X110550Y479201D01*
X109800Y479951D02*X110550Y480701D01*
X112800D01*
X113550Y479951D01*
X109800Y478451D02*X110550Y477701D01*
X115350Y482201D02*Y481451D01*
Y479951D02*Y477701D01*
X116850Y480701D02*X119850D01*
X116850Y477701D02*X119850Y480701D01*
X116850Y477701D02*X119850D01*
X122400D02*X124650D01*
X121650Y478451D02*X122400Y477701D01*
X121650Y479951D02*Y478451D01*
Y479951D02*X122400Y480701D01*
X123900D01*
X124650Y479951D01*
X121650Y479201D02*X124650D01*
Y479951D02*Y479201D01*
X127200Y477701D02*X129450D01*
X130200Y478451D01*
X129450Y479201D02*X130200Y478451D01*
X127200Y479201D02*X129450D01*
X126450Y479951D02*X127200Y479201D01*
X126450Y479951D02*X127200Y480701D01*
X129450D01*
X130200Y479951D01*
X126450Y478451D02*X127200Y477701D01*
X134700Y480701D02*Y478451D01*
X135450Y477701D01*
X136950D01*
X137700Y478451D01*
Y480701D02*Y478451D01*
X140250Y477701D02*X142500D01*
X143250Y478451D01*
X142500Y479201D02*X143250Y478451D01*
X140250Y479201D02*X142500D01*
X139500Y479951D02*X140250Y479201D01*
X139500Y479951D02*X140250Y480701D01*
X142500D01*
X143250Y479951D01*
X139500Y478451D02*X140250Y477701D01*
X145800D02*X148050D01*
X145050Y478451D02*X145800Y477701D01*
X145050Y479951D02*Y478451D01*
Y479951D02*X145800Y480701D01*
X147300D01*
X148050Y479951D01*
X145050Y479201D02*X148050D01*
Y479951D02*Y479201D01*
X152850Y483701D02*Y477701D01*
X152100D02*X152850Y478451D01*
X150600Y477701D02*X152100D01*
X149850Y478451D02*X150600Y477701D01*
X149850Y479951D02*Y478451D01*
Y479951D02*X150600Y480701D01*
X152100D01*
X152850Y479951D01*
X157350Y482201D02*Y481451D01*
Y479951D02*Y477701D01*
X159600Y479951D02*Y477701D01*
Y479951D02*X160350Y480701D01*
X161100D01*
X161850Y479951D01*
Y477701D01*
X158850Y480701D02*X159600Y479951D01*
X167100Y483701D02*Y478451D01*
X167850Y477701D01*
X166350Y481451D02*X167850D01*
X169350Y483701D02*Y477701D01*
Y479951D02*X170100Y480701D01*
X171600D01*
X172350Y479951D01*
Y477701D01*
X174150Y482201D02*Y481451D01*
Y479951D02*Y477701D01*
X176400D02*X178650D01*
X179400Y478451D01*
X178650Y479201D02*X179400Y478451D01*
X176400Y479201D02*X178650D01*
X175650Y479951D02*X176400Y479201D01*
X175650Y479951D02*X176400Y480701D01*
X178650D01*
X179400Y479951D01*
X175650Y478451D02*X176400Y477701D01*
X183900Y483701D02*Y478451D01*
X184650Y477701D01*
X188400Y480701D02*X189150Y479951D01*
X186900Y480701D02*X188400D01*
X186150Y479951D02*X186900Y480701D01*
X186150Y479951D02*Y478451D01*
X186900Y477701D01*
X189150Y480701D02*Y478451D01*
X189900Y477701D01*
X186900D02*X188400D01*
X189150Y478451D01*
X191700Y480701D02*Y478451D01*
X192450Y477701D01*
X194700Y480701D02*Y476201D01*
X193950Y475451D02*X194700Y476201D01*
X192450Y475451D02*X193950D01*
X191700Y476201D02*X192450Y475451D01*
Y477701D02*X193950D01*
X194700Y478451D01*
X196500Y479951D02*Y478451D01*
Y479951D02*X197250Y480701D01*
X198750D01*
X199500Y479951D01*
Y478451D01*
X198750Y477701D02*X199500Y478451D01*
X197250Y477701D02*X198750D01*
X196500Y478451D02*X197250Y477701D01*
X201300Y480701D02*Y478451D01*
X202050Y477701D01*
X203550D01*
X204300Y478451D01*
Y480701D02*Y478451D01*
X206850Y483701D02*Y478451D01*
X207600Y477701D01*
X206100Y481451D02*X207600D01*
X209100Y476201D02*X210600Y477701D01*
X215100D02*X218100Y480701D01*
Y482951D02*Y480701D01*
X217350Y483701D02*X218100Y482951D01*
X215850Y483701D02*X217350D01*
X215100Y482951D02*X215850Y483701D01*
X215100Y482951D02*Y481451D01*
X215850Y480701D01*
X218100D01*
X219900Y477701D02*X223650Y481451D01*
Y483701D02*Y481451D01*
X219900Y483701D02*X223650D01*
X228150D02*Y477701D01*
Y479951D02*X228900Y480701D01*
X230400D01*
X231150Y479951D01*
Y477701D01*
X232950Y479951D02*Y478451D01*
Y479951D02*X233700Y480701D01*
X235200D01*
X235950Y479951D01*
Y478451D01*
X235200Y477701D02*X235950Y478451D01*
X233700Y477701D02*X235200D01*
X232950Y478451D02*X233700Y477701D01*
X237750Y483701D02*Y478451D01*
X238500Y477701D01*
X240750D02*X243000D01*
X240000Y478451D02*X240750Y477701D01*
X240000Y479951D02*Y478451D01*
Y479951D02*X240750Y480701D01*
X242250D01*
X243000Y479951D01*
X240000Y479201D02*X243000D01*
Y479951D02*Y479201D01*
X245550Y477701D02*X247800D01*
X248550Y478451D01*
X247800Y479201D02*X248550Y478451D01*
X245550Y479201D02*X247800D01*
X244800Y479951D02*X245550Y479201D01*
X244800Y479951D02*X245550Y480701D01*
X247800D01*
X248550Y479951D01*
X244800Y478451D02*X245550Y477701D01*
X253800Y483701D02*Y478451D01*
X254550Y477701D01*
X253050Y481451D02*X254550D01*
X256050Y479951D02*Y478451D01*
Y479951D02*X256800Y480701D01*
X258300D01*
X259050Y479951D01*
Y478451D01*
X258300Y477701D02*X259050Y478451D01*
X256800Y477701D02*X258300D01*
X256050Y478451D02*X256800Y477701D01*
X261600Y483701D02*Y478451D01*
X262350Y477701D01*
X260850Y481451D02*X262350D01*
X266100Y480701D02*X266850Y479951D01*
X264600Y480701D02*X266100D01*
X263850Y479951D02*X264600Y480701D01*
X263850Y479951D02*Y478451D01*
X264600Y477701D01*
X266850Y480701D02*Y478451D01*
X267600Y477701D01*
X264600D02*X266100D01*
X266850Y478451D01*
X269400Y483701D02*Y478451D01*
X270150Y477701D01*
G54D57*X9843Y383858D02*X175197D01*
X9843Y9842D02*Y383858D01*
X175197Y9842D02*X9843D01*
X175197Y383858D02*Y9843D01*
G54D56*X12100Y-8000D02*X15100D01*
X15850Y-7250D01*
Y-5750D02*Y-7250D01*
X15100Y-5000D02*X15850Y-5750D01*
X12850Y-5000D02*X15100D01*
X12850Y-2000D02*Y-8000D01*
X12100Y-2000D02*X15100D01*
X15850Y-2750D01*
Y-4250D01*
X15100Y-5000D02*X15850Y-4250D01*
X17650Y-5750D02*Y-7250D01*
Y-5750D02*X18400Y-5000D01*
X19900D01*
X20650Y-5750D01*
Y-7250D01*
X19900Y-8000D02*X20650Y-7250D01*
X18400Y-8000D02*X19900D01*
X17650Y-7250D02*X18400Y-8000D01*
X24700Y-5000D02*X25450Y-5750D01*
X23200Y-5000D02*X24700D01*
X22450Y-5750D02*X23200Y-5000D01*
X22450Y-5750D02*Y-7250D01*
X23200Y-8000D01*
X25450Y-5000D02*Y-7250D01*
X26200Y-8000D01*
X23200D02*X24700D01*
X25450Y-7250D01*
X28750Y-5750D02*Y-8000D01*
Y-5750D02*X29500Y-5000D01*
X31000D01*
X28000D02*X28750Y-5750D01*
X35800Y-2000D02*Y-8000D01*
X35050D02*X35800Y-7250D01*
X33550Y-8000D02*X35050D01*
X32800Y-7250D02*X33550Y-8000D01*
X32800Y-5750D02*Y-7250D01*
Y-5750D02*X33550Y-5000D01*
X35050D01*
X35800Y-5750D01*
X40300D02*Y-7250D01*
Y-5750D02*X41050Y-5000D01*
X42550D01*
X43300Y-5750D01*
Y-7250D01*
X42550Y-8000D02*X43300Y-7250D01*
X41050Y-8000D02*X42550D01*
X40300Y-7250D02*X41050Y-8000D01*
X45100Y-5000D02*Y-7250D01*
X45850Y-8000D01*
X47350D01*
X48100Y-7250D01*
Y-5000D02*Y-7250D01*
X50650Y-2000D02*Y-7250D01*
X51400Y-8000D01*
X49900Y-4250D02*X51400D01*
X52900Y-2000D02*Y-7250D01*
X53650Y-8000D01*
X55150Y-3500D02*Y-4250D01*
Y-5750D02*Y-8000D01*
X57400Y-5750D02*Y-8000D01*
Y-5750D02*X58150Y-5000D01*
X58900D01*
X59650Y-5750D01*
Y-8000D01*
X56650Y-5000D02*X57400Y-5750D01*
X62200Y-8000D02*X64450D01*
X61450Y-7250D02*X62200Y-8000D01*
X61450Y-5750D02*Y-7250D01*
Y-5750D02*X62200Y-5000D01*
X63700D01*
X64450Y-5750D01*
X61450Y-6500D02*X64450D01*
Y-5750D02*Y-6500D01*
X68950Y-3500D02*Y-4250D01*
Y-5750D02*Y-8000D01*
X71200D02*X73450D01*
X74200Y-7250D01*
X73450Y-6500D02*X74200Y-7250D01*
X71200Y-6500D02*X73450D01*
X70450Y-5750D02*X71200Y-6500D01*
X70450Y-5750D02*X71200Y-5000D01*
X73450D01*
X74200Y-5750D01*
X70450Y-7250D02*X71200Y-8000D01*
X79450Y-2000D02*Y-7250D01*
X80200Y-8000D01*
X78700Y-4250D02*X80200D01*
X81700Y-2000D02*Y-8000D01*
Y-5750D02*X82450Y-5000D01*
X83950D01*
X84700Y-5750D01*
Y-8000D01*
X87250D02*X89500D01*
X86500Y-7250D02*X87250Y-8000D01*
X86500Y-5750D02*Y-7250D01*
Y-5750D02*X87250Y-5000D01*
X88750D01*
X89500Y-5750D01*
X86500Y-6500D02*X89500D01*
Y-5750D02*Y-6500D01*
X94750Y-5000D02*X97000D01*
X94000Y-5750D02*X94750Y-5000D01*
X94000Y-5750D02*Y-7250D01*
X94750Y-8000D01*
X97000D01*
X99550D02*X101800D01*
X98800Y-7250D02*X99550Y-8000D01*
X98800Y-5750D02*Y-7250D01*
Y-5750D02*X99550Y-5000D01*
X101050D01*
X101800Y-5750D01*
X98800Y-6500D02*X101800D01*
Y-5750D02*Y-6500D01*
X104350Y-5750D02*Y-8000D01*
Y-5750D02*X105100Y-5000D01*
X105850D01*
X106600Y-5750D01*
Y-8000D01*
X103600Y-5000D02*X104350Y-5750D01*
X109150Y-2000D02*Y-7250D01*
X109900Y-8000D01*
X108400Y-4250D02*X109900D01*
X112150Y-8000D02*X114400D01*
X111400Y-7250D02*X112150Y-8000D01*
X111400Y-5750D02*Y-7250D01*
Y-5750D02*X112150Y-5000D01*
X113650D01*
X114400Y-5750D01*
X111400Y-6500D02*X114400D01*
Y-5750D02*Y-6500D01*
X116950Y-5750D02*Y-8000D01*
Y-5750D02*X117700Y-5000D01*
X119200D01*
X116200D02*X116950Y-5750D01*
X121000Y-2000D02*Y-7250D01*
X121750Y-8000D01*
X123250Y-3500D02*Y-4250D01*
Y-5750D02*Y-8000D01*
X125500Y-5750D02*Y-8000D01*
Y-5750D02*X126250Y-5000D01*
X127000D01*
X127750Y-5750D01*
Y-8000D01*
X124750Y-5000D02*X125500Y-5750D01*
X130300Y-8000D02*X132550D01*
X129550Y-7250D02*X130300Y-8000D01*
X129550Y-5750D02*Y-7250D01*
Y-5750D02*X130300Y-5000D01*
X131800D01*
X132550Y-5750D01*
X129550Y-6500D02*X132550D01*
Y-5750D02*Y-6500D01*
X137050Y-5750D02*Y-7250D01*
Y-5750D02*X137800Y-5000D01*
X139300D01*
X140050Y-5750D01*
Y-7250D01*
X139300Y-8000D02*X140050Y-7250D01*
X137800Y-8000D02*X139300D01*
X137050Y-7250D02*X137800Y-8000D01*
X142600Y-2750D02*Y-8000D01*
Y-2750D02*X143350Y-2000D01*
X144100D01*
X141850Y-5000D02*X143350D01*
X149050Y-2000D02*Y-7250D01*
X149800Y-8000D01*
X148300Y-4250D02*X149800D01*
X151300Y-2000D02*Y-8000D01*
Y-5750D02*X152050Y-5000D01*
X153550D01*
X154300Y-5750D01*
Y-8000D01*
X156100Y-3500D02*Y-4250D01*
Y-5750D02*Y-8000D01*
X158350D02*X160600D01*
X161350Y-7250D01*
X160600Y-6500D02*X161350Y-7250D01*
X158350Y-6500D02*X160600D01*
X157600Y-5750D02*X158350Y-6500D01*
X157600Y-5750D02*X158350Y-5000D01*
X160600D01*
X161350Y-5750D01*
X157600Y-7250D02*X158350Y-8000D01*
X166600Y-5750D02*Y-10250D01*
X165850Y-5000D02*X166600Y-5750D01*
X167350Y-5000D01*
X168850D01*
X169600Y-5750D01*
Y-7250D01*
X168850Y-8000D02*X169600Y-7250D01*
X167350Y-8000D02*X168850D01*
X166600Y-7250D02*X167350Y-8000D01*
X173650Y-5000D02*X174400Y-5750D01*
X172150Y-5000D02*X173650D01*
X171400Y-5750D02*X172150Y-5000D01*
X171400Y-5750D02*Y-7250D01*
X172150Y-8000D01*
X174400Y-5000D02*Y-7250D01*
X175150Y-8000D01*
X172150D02*X173650D01*
X174400Y-7250D01*
X177700Y-2000D02*Y-7250D01*
X178450Y-8000D01*
X176950Y-4250D02*X178450D01*
X179950Y-2000D02*Y-8000D01*
Y-5750D02*X180700Y-5000D01*
X182200D01*
X182950Y-5750D01*
Y-8000D01*
X200750Y423701D02*Y417701D01*
X203000Y423701D02*X203750Y422951D01*
Y418451D01*
X203000Y417701D02*X203750Y418451D01*
X200000Y417701D02*X203000D01*
X200000Y423701D02*X203000D01*
X207800Y420701D02*X208550Y419951D01*
X206300Y420701D02*X207800D01*
X205550Y419951D02*X206300Y420701D01*
X205550Y419951D02*Y418451D01*
X206300Y417701D01*
X208550Y420701D02*Y418451D01*
X209300Y417701D01*
X206300D02*X207800D01*
X208550Y418451D01*
X211850Y423701D02*Y418451D01*
X212600Y417701D01*
X211100Y421451D02*X212600D01*
X214850Y417701D02*X217100D01*
X214100Y418451D02*X214850Y417701D01*
X214100Y419951D02*Y418451D01*
Y419951D02*X214850Y420701D01*
X216350D01*
X217100Y419951D01*
X214100Y419201D02*X217100D01*
Y419951D02*Y419201D01*
X218900Y421451D02*X219650D01*
X218900Y419951D02*X219650D01*
X227150Y423701D02*X227900Y422951D01*
X224900Y423701D02*X227150D01*
X224150Y422951D02*X224900Y423701D01*
X224150Y422951D02*Y421451D01*
X224900Y420701D01*
X227150D01*
X227900Y419951D01*
Y418451D01*
X227150Y417701D02*X227900Y418451D01*
X224900Y417701D02*X227150D01*
X224150Y418451D02*X224900Y417701D01*
X231950Y420701D02*X232700Y419951D01*
X230450Y420701D02*X231950D01*
X229700Y419951D02*X230450Y420701D01*
X229700Y419951D02*Y418451D01*
X230450Y417701D01*
X232700Y420701D02*Y418451D01*
X233450Y417701D01*
X230450D02*X231950D01*
X232700Y418451D01*
X236000Y423701D02*Y418451D01*
X236750Y417701D01*
X235250Y421451D02*X236750D01*
X243950Y423701D02*X244700Y422951D01*
X241700Y423701D02*X243950D01*
X240950Y422951D02*X241700Y423701D01*
X240950Y422951D02*Y421451D01*
X241700Y420701D01*
X243950D01*
X244700Y419951D01*
Y418451D01*
X243950Y417701D02*X244700Y418451D01*
X241700Y417701D02*X243950D01*
X240950Y418451D02*X241700Y417701D01*
X247250D02*X249500D01*
X246500Y418451D02*X247250Y417701D01*
X246500Y419951D02*Y418451D01*
Y419951D02*X247250Y420701D01*
X248750D01*
X249500Y419951D01*
X246500Y419201D02*X249500D01*
Y419951D02*Y419201D01*
X252050Y419951D02*Y415451D01*
X251300Y420701D02*X252050Y419951D01*
X252800Y420701D01*
X254300D01*
X255050Y419951D01*
Y418451D01*
X254300Y417701D02*X255050Y418451D01*
X252800Y417701D02*X254300D01*
X252050Y418451D02*X252800Y417701D01*
X263000D02*X264500D01*
X263750Y423701D02*Y417701D01*
X262250Y422201D02*X263750Y423701D01*
X269750Y417701D02*X271250D01*
X270500Y423701D02*Y417701D01*
X269000Y422201D02*X270500Y423701D01*
X273050Y418451D02*X273800Y417701D01*
X273050Y422951D02*Y418451D01*
Y422951D02*X273800Y423701D01*
X275300D01*
X276050Y422951D01*
Y418451D01*
X275300Y417701D02*X276050Y418451D01*
X273800Y417701D02*X275300D01*
X273050Y419201D02*X276050Y422201D01*
X277850Y421451D02*X278600D01*
X277850Y419951D02*X278600D01*
X280400Y422951D02*X281150Y423701D01*
X282650D01*
X283400Y422951D01*
Y418451D01*
X282650Y417701D02*X283400Y418451D01*
X281150Y417701D02*X282650D01*
X280400Y418451D02*X281150Y417701D01*
Y420701D02*X283400D01*
X285200Y423701D02*X288200D01*
X285200D02*Y420701D01*
X285950Y421451D01*
X287450D01*
X288200Y420701D01*
Y418451D01*
X287450Y417701D02*X288200Y418451D01*
X285950Y417701D02*X287450D01*
X285200Y418451D02*X285950Y417701D01*
X290000Y421451D02*X290750D01*
X290000Y419951D02*X290750D01*
X292550Y418451D02*X293300Y417701D01*
X292550Y422951D02*Y418451D01*
Y422951D02*X293300Y423701D01*
X294800D01*
X295550Y422951D01*
Y418451D01*
X294800Y417701D02*X295550Y418451D01*
X293300Y417701D02*X294800D01*
X292550Y419201D02*X295550Y422201D01*
X297350Y417701D02*X300350Y420701D01*
Y422951D02*Y420701D01*
X299600Y423701D02*X300350Y422951D01*
X298100Y423701D02*X299600D01*
X297350Y422951D02*X298100Y423701D01*
X297350Y422951D02*Y421451D01*
X298100Y420701D01*
X300350D01*
X304850Y422951D02*X305600Y423701D01*
X307850D01*
X308600Y422951D01*
Y421451D01*
X304850Y417701D02*X308600Y421451D01*
X304850Y417701D02*X308600D01*
X310400Y418451D02*X311150Y417701D01*
X310400Y422951D02*Y418451D01*
Y422951D02*X311150Y423701D01*
X312650D01*
X313400Y422951D01*
Y418451D01*
X312650Y417701D02*X313400Y418451D01*
X311150Y417701D02*X312650D01*
X310400Y419201D02*X313400Y422201D01*
X315950Y417701D02*X317450D01*
X316700Y423701D02*Y417701D01*
X315200Y422201D02*X316700Y423701D01*
X319250Y418451D02*X320000Y417701D01*
X319250Y419951D02*Y418451D01*
Y419951D02*X320000Y420701D01*
X321500D01*
X322250Y419951D01*
Y418451D01*
X321500Y417701D02*X322250Y418451D01*
X320000Y417701D02*X321500D01*
X319250Y421451D02*X320000Y420701D01*
X319250Y422951D02*Y421451D01*
Y422951D02*X320000Y423701D01*
X321500D01*
X322250Y422951D01*
Y421451D01*
X321500Y420701D02*X322250Y421451D01*
X326750Y423701D02*Y418451D01*
X327500Y417701D01*
X329000D01*
X329750Y418451D01*
Y423701D02*Y418451D01*
X331550Y423701D02*X334550D01*
X333050D02*Y417701D01*
X337100D02*X339350D01*
X336350Y418451D02*X337100Y417701D01*
X336350Y422951D02*Y418451D01*
Y422951D02*X337100Y423701D01*
X339350D01*
X200000Y437951D02*Y432701D01*
Y437951D02*X200750Y438701D01*
X203000D01*
X203750Y437951D01*
Y432701D01*
X200000Y435701D02*X203750D01*
X205550D02*Y433451D01*
X206300Y432701D01*
X207800D01*
X208550Y433451D01*
Y435701D02*Y433451D01*
X211100Y438701D02*Y433451D01*
X211850Y432701D01*
X210350Y436451D02*X211850D01*
X213350Y438701D02*Y432701D01*
Y434951D02*X214100Y435701D01*
X215600D01*
X216350Y434951D01*
Y432701D01*
X218150Y434951D02*Y433451D01*
Y434951D02*X218900Y435701D01*
X220400D01*
X221150Y434951D01*
Y433451D01*
X220400Y432701D02*X221150Y433451D01*
X218900Y432701D02*X220400D01*
X218150Y433451D02*X218900Y432701D01*
X223700Y434951D02*Y432701D01*
Y434951D02*X224450Y435701D01*
X225950D01*
X222950D02*X223700Y434951D01*
X227750Y436451D02*X228500D01*
X227750Y434951D02*X228500D01*
X233000Y432701D02*X236000D01*
X236750Y433451D01*
Y434951D02*Y433451D01*
X236000Y435701D02*X236750Y434951D01*
X233750Y435701D02*X236000D01*
X233750Y438701D02*Y432701D01*
X233000Y438701D02*X236000D01*
X236750Y437951D01*
Y436451D01*
X236000Y435701D02*X236750Y436451D01*
X239300Y432701D02*X241550D01*
X238550Y433451D02*X239300Y432701D01*
X238550Y434951D02*Y433451D01*
Y434951D02*X239300Y435701D01*
X240800D01*
X241550Y434951D01*
X238550Y434201D02*X241550D01*
Y434951D02*Y434201D01*
X244100Y434951D02*Y432701D01*
Y434951D02*X244850Y435701D01*
X246350D01*
X243350D02*X244100Y434951D01*
X248900Y438701D02*Y433451D01*
X249650Y432701D01*
X248150Y436451D02*X249650D01*
X253850Y438701D02*X256850D01*
X255350D02*Y432701D01*
X258650Y437201D02*Y436451D01*
Y434951D02*Y432701D01*
X260900Y434951D02*Y432701D01*
Y434951D02*X261650Y435701D01*
X262400D01*
X263150Y434951D01*
Y432701D01*
Y434951D02*X263900Y435701D01*
X264650D01*
X265400Y434951D01*
Y432701D01*
X260150Y435701D02*X260900Y434951D01*
X267950D02*Y432701D01*
Y434951D02*X268700Y435701D01*
X269450D01*
X270200Y434951D01*
Y432701D01*
Y434951D02*X270950Y435701D01*
X271700D01*
X272450Y434951D01*
Y432701D01*
X267200Y435701D02*X267950Y434951D01*
X275000Y432701D02*X277250D01*
X274250Y433451D02*X275000Y432701D01*
X274250Y434951D02*Y433451D01*
Y434951D02*X275000Y435701D01*
X276500D01*
X277250Y434951D01*
X274250Y434201D02*X277250D01*
Y434951D02*Y434201D01*
X279800Y434951D02*Y432701D01*
Y434951D02*X280550Y435701D01*
X282050D01*
X279050D02*X279800Y434951D01*
X284600D02*Y432701D01*
Y434951D02*X285350Y435701D01*
X286100D01*
X286850Y434951D01*
Y432701D01*
Y434951D02*X287600Y435701D01*
X288350D01*
X289100Y434951D01*
Y432701D01*
X283850Y435701D02*X284600Y434951D01*
X293150Y435701D02*X293900Y434951D01*
X291650Y435701D02*X293150D01*
X290900Y434951D02*X291650Y435701D01*
X290900Y434951D02*Y433451D01*
X291650Y432701D01*
X293900Y435701D02*Y433451D01*
X294650Y432701D01*
X291650D02*X293150D01*
X293900Y433451D01*
X297200Y434951D02*Y432701D01*
Y434951D02*X297950Y435701D01*
X298700D01*
X299450Y434951D01*
Y432701D01*
X296450Y435701D02*X297200Y434951D01*
X200000Y453701D02*X203000D01*
X201500D02*Y447701D01*
X204800Y452201D02*Y451451D01*
Y449951D02*Y447701D01*
X207050Y453701D02*Y448451D01*
X207800Y447701D01*
X206300Y451451D02*X207800D01*
X209300Y453701D02*Y448451D01*
X210050Y447701D01*
X212300D02*X214550D01*
X211550Y448451D02*X212300Y447701D01*
X211550Y449951D02*Y448451D01*
Y449951D02*X212300Y450701D01*
X213800D01*
X214550Y449951D01*
X211550Y449201D02*X214550D01*
Y449951D02*Y449201D01*
X216350Y451451D02*X217100D01*
X216350Y449951D02*X217100D01*
X221600Y448451D02*X222350Y447701D01*
X221600Y452951D02*Y448451D01*
Y452951D02*X222350Y453701D01*
X223850D01*
X224600Y452951D01*
Y448451D01*
X223850Y447701D02*X224600Y448451D01*
X222350Y447701D02*X223850D01*
X221600Y449201D02*X224600Y452201D01*
X227150Y447701D02*X228650D01*
X227900Y453701D02*Y447701D01*
X226400Y452201D02*X227900Y453701D01*
X230450Y447701D02*X231200D01*
X233000Y448451D02*X233750Y447701D01*
X233000Y452951D02*Y448451D01*
Y452951D02*X233750Y453701D01*
X235250D01*
X236000Y452951D01*
Y448451D01*
X235250Y447701D02*X236000Y448451D01*
X233750Y447701D02*X235250D01*
X233000Y449201D02*X236000Y452201D01*
X237800Y448451D02*X238550Y447701D01*
X237800Y452951D02*Y448451D01*
Y452951D02*X238550Y453701D01*
X240050D01*
X240800Y452951D01*
Y448451D01*
X240050Y447701D02*X240800Y448451D01*
X238550Y447701D02*X240050D01*
X237800Y449201D02*X240800Y452201D01*
X242600Y452951D02*X243350Y453701D01*
X245600D01*
X246350Y452951D01*
Y451451D01*
X242600Y447701D02*X246350Y451451D01*
X242600Y447701D02*X246350D01*
X248150D02*X248900D01*
X250700Y448451D02*X251450Y447701D01*
X250700Y452951D02*Y448451D01*
Y452951D02*X251450Y453701D01*
X252950D01*
X253700Y452951D01*
Y448451D01*
X252950Y447701D02*X253700Y448451D01*
X251450Y447701D02*X252950D01*
X250700Y449201D02*X253700Y452201D01*
X255500Y448451D02*X256250Y447701D01*
X255500Y452951D02*Y448451D01*
Y452951D02*X256250Y453701D01*
X257750D01*
X258500Y452951D01*
Y448451D01*
X257750Y447701D02*X258500Y448451D01*
X256250Y447701D02*X257750D01*
X255500Y449201D02*X258500Y452201D01*
X260300Y447701D02*X261050D01*
X262850Y448451D02*X263600Y447701D01*
X262850Y452951D02*Y448451D01*
Y452951D02*X263600Y453701D01*
X265100D01*
X265850Y452951D01*
Y448451D01*
X265100Y447701D02*X265850Y448451D01*
X263600Y447701D02*X265100D01*
X262850Y449201D02*X265850Y452201D01*
X268400Y447701D02*X269900D01*
X269150Y453701D02*Y447701D01*
X267650Y452201D02*X269150Y453701D01*
X271700Y447701D02*X272450D01*
X274250Y448451D02*X275000Y447701D01*
X274250Y452951D02*Y448451D01*
Y452951D02*X275000Y453701D01*
X276500D01*
X277250Y452951D01*
Y448451D01*
X276500Y447701D02*X277250Y448451D01*
X275000Y447701D02*X276500D01*
X274250Y449201D02*X277250Y452201D01*
X279800Y447701D02*X281300D01*
X280550Y453701D02*Y447701D01*
X279050Y452201D02*X280550Y453701D01*
X283100Y447701D02*X283850D01*
X286400Y449951D02*Y445451D01*
X285650Y450701D02*X286400Y449951D01*
X287150Y450701D01*
X288650D01*
X289400Y449951D01*
Y448451D01*
X288650Y447701D02*X289400Y448451D01*
X287150Y447701D02*X288650D01*
X286400Y448451D02*X287150Y447701D01*
X291950Y450701D02*X294200D01*
X291200Y449951D02*X291950Y450701D01*
X291200Y449951D02*Y448451D01*
X291950Y447701D01*
X294200D01*
X296000Y453701D02*Y447701D01*
Y448451D02*X296750Y447701D01*
X298250D01*
X299000Y448451D01*
Y449951D02*Y448451D01*
X298250Y450701D02*X299000Y449951D01*
X296750Y450701D02*X298250D01*
X296000Y449951D02*X296750Y450701D01*
X303500D02*X306500D01*
X311000Y453701D02*Y447701D01*
Y453701D02*X314000D01*
X311000Y450701D02*X313250D01*
X318050D02*X318800Y449951D01*
X316550Y450701D02*X318050D01*
X315800Y449951D02*X316550Y450701D01*
X315800Y449951D02*Y448451D01*
X316550Y447701D01*
X318800Y450701D02*Y448451D01*
X319550Y447701D01*
X316550D02*X318050D01*
X318800Y448451D01*
X321350Y453701D02*Y447701D01*
Y448451D02*X322100Y447701D01*
X323600D01*
X324350Y448451D01*
Y449951D02*Y448451D01*
X323600Y450701D02*X324350Y449951D01*
X322100Y450701D02*X323600D01*
X321350Y449951D02*X322100Y450701D01*
X326900Y449951D02*Y447701D01*
Y449951D02*X327650Y450701D01*
X329150D01*
X326150D02*X326900Y449951D01*
X330950Y452201D02*Y451451D01*
Y449951D02*Y447701D01*
X333200Y450701D02*X335450D01*
X332450Y449951D02*X333200Y450701D01*
X332450Y449951D02*Y448451D01*
X333200Y447701D01*
X335450D01*
X339500Y450701D02*X340250Y449951D01*
X338000Y450701D02*X339500D01*
X337250Y449951D02*X338000Y450701D01*
X337250Y449951D02*Y448451D01*
X338000Y447701D01*
X340250Y450701D02*Y448451D01*
X341000Y447701D01*
X338000D02*X339500D01*
X340250Y448451D01*
X343550Y453701D02*Y448451D01*
X344300Y447701D01*
X342800Y451451D02*X344300D01*
X345800Y452201D02*Y451451D01*
Y449951D02*Y447701D01*
X347300Y449951D02*Y448451D01*
Y449951D02*X348050Y450701D01*
X349550D01*
X350300Y449951D01*
Y448451D01*
X349550Y447701D02*X350300Y448451D01*
X348050Y447701D02*X349550D01*
X347300Y448451D02*X348050Y447701D01*
X352850Y449951D02*Y447701D01*
Y449951D02*X353600Y450701D01*
X354350D01*
X355100Y449951D01*
Y447701D01*
X352100Y450701D02*X352850Y449951D01*
X360350Y453701D02*Y447701D01*
X362600Y453701D02*X363350Y452951D01*
Y448451D01*
X362600Y447701D02*X363350Y448451D01*
X359600Y447701D02*X362600D01*
X359600Y453701D02*X362600D01*
X365900Y449951D02*Y447701D01*
Y449951D02*X366650Y450701D01*
X368150D01*
X365150D02*X365900Y449951D01*
X372200Y450701D02*X372950Y449951D01*
X370700Y450701D02*X372200D01*
X369950Y449951D02*X370700Y450701D01*
X369950Y449951D02*Y448451D01*
X370700Y447701D01*
X372950Y450701D02*Y448451D01*
X373700Y447701D01*
X370700D02*X372200D01*
X372950Y448451D01*
X375500Y450701D02*Y448451D01*
X376250Y447701D01*
X377000D01*
X377750Y448451D01*
Y450701D02*Y448451D01*
X378500Y447701D01*
X379250D01*
X380000Y448451D01*
Y450701D02*Y448451D01*
X381800Y452201D02*Y451451D01*
Y449951D02*Y447701D01*
X384050Y449951D02*Y447701D01*
Y449951D02*X384800Y450701D01*
X385550D01*
X386300Y449951D01*
Y447701D01*
X383300Y450701D02*X384050Y449951D01*
X390350Y450701D02*X391100Y449951D01*
X388850Y450701D02*X390350D01*
X388100Y449951D02*X388850Y450701D01*
X388100Y449951D02*Y448451D01*
X388850Y447701D01*
X390350D01*
X391100Y448451D01*
X388100Y446201D02*X388850Y445451D01*
X390350D01*
X391100Y446201D01*
Y450701D02*Y446201D01*
M02*
