M48
INCH
T46C0.052
T45C0.038
T44C0.035
T43C0.046
T42C0.146
T41C0.040
%
T44
X039000Y040494
X039000Y039494
X039000Y038494
X039000Y037494
X039000Y036494
X039000Y035494
X039000Y034494
X039000Y033494
X039000Y032494
X039000Y031494
X039000Y030494
X039000Y029494
X039000Y028494
X039000Y027494
X039000Y026494
X039000Y025494
X039000Y024494
X039000Y023494
X039000Y022494
X039000Y021494
X039000Y020494
X039000Y019494
X039000Y018494
X039000Y017494
X039000Y016494
X039000Y015494
X039000Y012744
X039000Y011744
X039000Y010744
X040000Y040494
X040000Y039494
X040000Y038494
X040000Y037494
X040000Y036494
X040000Y035494
X040000Y034494
X040000Y033494
X040000Y032494
X040000Y031494
X040000Y030494
X040000Y029494
X040000Y028494
X040000Y027494
X040000Y026494
X040000Y025494
X040000Y024494
X040000Y023494
X040000Y022494
X040000Y021494
X040000Y020494
X040000Y019494
X040000Y018494
X040000Y017494
X040000Y016494
X040000Y015494
X040000Y012744
X040000Y011744
X040000Y010744
T45
X006496Y040591
X006496Y039591
X006496Y038591
X006496Y037591
X006496Y036591
X006496Y035591
X006496Y034591
X006496Y033591
X006496Y032591
X006496Y031591
X006496Y030591
X006496Y029591
X006496Y028591
X006496Y027591
X006496Y026591
X006496Y025591
X006496Y024591
X006496Y023591
X006496Y022591
X006496Y021591
X006496Y020591
X006496Y019591
X006496Y018591
X006496Y017591
X006496Y016591
X006496Y015591
X006496Y014591
X006496Y013591
X006496Y012591
X006496Y011591
X006496Y010591
T41
X010866Y043307
X010866Y007874
X022283Y043307
X022283Y007874
X025474Y014764
X034474Y014764
X045500Y013744
X054500Y013744
T43
X028346Y008858
T46
X061299Y039370
X061299Y037402
X061299Y035433
X061299Y033465
X061299Y031496
X061299Y029528
X061299Y027559
X061299Y025591
X061299Y023622
X061299Y021654
X061299Y019685
X061299Y017717
X061299Y015748
X061299Y013780
X061299Y011811
X062283Y040354
X062283Y038386
X062283Y036417
X062283Y034449
X062283Y032480
X062283Y030512
X062283Y028543
X062283Y026575
X062283Y024606
X062283Y022638
X062283Y020669
X062283Y018701
X062283Y016732
X062283Y014764
X062283Y012795
X062283Y010827
T42
X033465Y008858
M30
