G04 start of page 10 for group -3984 idx -3984 *
G04 Title: 01.002.00.01.01.pcb, fab *
G04 Creator: pcb 4.2.1 *
G04 CreationDate: Sun Dec 13 18:31:47 2020 UTC *
G04 For: bert *
G04 Format: Gerber/RS-274X *
G04 PCB-Dimensions (mil): 2559.06 4330.71 *
G04 PCB-Coordinate-Origin: lower left *
%MOIN*%
%FSLAX25Y25*%
%LNFAB*%
%ADD61C,0.0100*%
%ADD60C,0.0060*%
%ADD59C,0.0080*%
G54D59*X108636Y60656D02*X111836D01*
X108636D02*Y57456D01*
X111836D01*
Y60656D02*Y57456D01*
X108636Y395302D02*X111836D01*
X108636D02*Y392102D01*
X111836D01*
Y395302D02*Y392102D01*
X13400Y445921D02*X16600D01*
X13400D02*Y442721D01*
X16600D01*
Y445921D02*Y442721D01*
G54D60*X140000Y448071D02*Y442071D01*
Y448071D02*Y447321D01*
X143750Y443571D01*
Y448071D02*Y442071D01*
X145550Y447321D02*Y442821D01*
Y447321D02*X146300Y448071D01*
X147800D01*
X148550Y447321D01*
Y442821D01*
X147800Y442071D02*X148550Y442821D01*
X146300Y442071D02*X147800D01*
X145550Y442821D02*X146300Y442071D01*
X98000Y447321D02*X98750Y448071D01*
X101000D01*
X101750Y447321D01*
Y445821D01*
X98000Y442071D02*X101750Y445821D01*
X98000Y442071D02*X101750D01*
X45000Y442821D02*X45750Y442071D01*
X45000Y447321D02*Y442821D01*
Y447321D02*X45750Y448071D01*
X47250D01*
X48000Y447321D01*
Y442821D01*
X47250Y442071D02*X48000Y442821D01*
X45750Y442071D02*X47250D01*
X45000Y443571D02*X48000Y446571D01*
X49800Y442071D02*X50550D01*
X53100D02*X54600D01*
X53850Y448071D02*Y442071D01*
X52350Y446571D02*X53850Y448071D01*
X56400Y447321D02*X57150Y448071D01*
X59400D01*
X60150Y447321D01*
Y445821D01*
X56400Y442071D02*X60150Y445821D01*
X56400Y442071D02*X60150D01*
X64200Y448071D02*X64950Y447321D01*
X62700Y448071D02*X64200D01*
X61950Y447321D02*X62700Y448071D01*
X61950Y447321D02*Y442821D01*
X62700Y442071D01*
X64200Y445071D02*X64950Y444321D01*
X61950Y445071D02*X64200D01*
X62700Y442071D02*X64200D01*
X64950Y442821D01*
Y444321D02*Y442821D01*
X147900Y364174D02*G75*G03X149500Y364174I800J0D01*G01*
G75*G03X147900Y364174I-800J0D01*G01*
X137900D02*G75*G03X139500Y364174I800J0D01*G01*
G75*G03X137900Y364174I-800J0D01*G01*
X147900Y324804D02*G75*G03X149500Y324804I800J0D01*G01*
G75*G03X147900Y324804I-800J0D01*G01*
X137900D02*G75*G03X139500Y324804I800J0D01*G01*
G75*G03X137900Y324804I-800J0D01*G01*
X147900Y285434D02*G75*G03X149500Y285434I800J0D01*G01*
G75*G03X147900Y285434I-800J0D01*G01*
X137900D02*G75*G03X139500Y285434I800J0D01*G01*
G75*G03X137900Y285434I-800J0D01*G01*
X147900Y246064D02*G75*G03X149500Y246064I800J0D01*G01*
G75*G03X147900Y246064I-800J0D01*G01*
X137900D02*G75*G03X139500Y246064I800J0D01*G01*
G75*G03X137900Y246064I-800J0D01*G01*
X147900Y127954D02*G75*G03X149500Y127954I800J0D01*G01*
G75*G03X147900Y127954I-800J0D01*G01*
X137900D02*G75*G03X139500Y127954I800J0D01*G01*
G75*G03X137900Y127954I-800J0D01*G01*
X147900Y167324D02*G75*G03X149500Y167324I800J0D01*G01*
G75*G03X147900Y167324I-800J0D01*G01*
X137900D02*G75*G03X139500Y167324I800J0D01*G01*
G75*G03X137900Y167324I-800J0D01*G01*
X158648Y80709D02*G75*G03X160248Y80709I800J0D01*G01*
G75*G03X158648Y80709I-800J0D01*G01*
X14200Y459321D02*G75*G03X15800Y459321I800J0D01*G01*
G75*G03X14200Y459321I-800J0D01*G01*
X135000Y463071D02*Y462321D01*
X136500Y460821D01*
X138000Y462321D01*
Y463071D02*Y462321D01*
X136500Y460821D02*Y457071D01*
X139800Y460071D02*X142050D01*
X139800Y457071D02*X142800D01*
X139800Y463071D02*Y457071D01*
Y463071D02*X142800D01*
X147600D02*X148350Y462321D01*
X145350Y463071D02*X147600D01*
X144600Y462321D02*X145350Y463071D01*
X144600Y462321D02*Y460821D01*
X145350Y460071D01*
X147600D01*
X148350Y459321D01*
Y457821D01*
X147600Y457071D02*X148350Y457821D01*
X145350Y457071D02*X147600D01*
X144600Y457821D02*X145350Y457071D01*
X98750D02*X100250D01*
X99500Y463071D02*Y457071D01*
X98000Y461571D02*X99500Y463071D01*
X102050Y462321D02*X102800Y463071D01*
X104300D01*
X105050Y462321D01*
Y457821D01*
X104300Y457071D02*X105050Y457821D01*
X102800Y457071D02*X104300D01*
X102050Y457821D02*X102800Y457071D01*
Y460071D02*X105050D01*
X45000Y457821D02*X45750Y457071D01*
X45000Y462321D02*Y457821D01*
Y462321D02*X45750Y463071D01*
X47250D01*
X48000Y462321D01*
Y457821D01*
X47250Y457071D02*X48000Y457821D01*
X45750Y457071D02*X47250D01*
X45000Y458571D02*X48000Y461571D01*
X49800Y457071D02*X50550D01*
X52350Y457821D02*X53100Y457071D01*
X52350Y462321D02*Y457821D01*
Y462321D02*X53100Y463071D01*
X54600D01*
X55350Y462321D01*
Y457821D01*
X54600Y457071D02*X55350Y457821D01*
X53100Y457071D02*X54600D01*
X52350Y458571D02*X55350Y461571D01*
X57150Y460071D02*X60150Y463071D01*
X57150Y460071D02*X60900D01*
X60150Y463071D02*Y457071D01*
X64950Y463071D02*X65700Y462321D01*
X63450Y463071D02*X64950D01*
X62700Y462321D02*X63450Y463071D01*
X62700Y462321D02*Y457821D01*
X63450Y457071D01*
X64950Y460071D02*X65700Y459321D01*
X62700Y460071D02*X64950D01*
X63450Y457071D02*X64950D01*
X65700Y457821D01*
Y459321D02*Y457821D01*
X24390Y377579D02*X26790Y375179D01*
X24390D02*X26790Y377579D01*
X24390Y367579D02*X26790Y365179D01*
X24390D02*X26790Y367579D01*
X24390Y357579D02*X26790Y355179D01*
X24390D02*X26790Y357579D01*
X24390Y347579D02*X26790Y345179D01*
X24390D02*X26790Y347579D01*
X24390Y337579D02*X26790Y335179D01*
X24390D02*X26790Y337579D01*
X24390Y327579D02*X26790Y325179D01*
X24390D02*X26790Y327579D01*
X24390Y317579D02*X26790Y315179D01*
X24390D02*X26790Y317579D01*
X24390Y307579D02*X26790Y305179D01*
X24390D02*X26790Y307579D01*
X24390Y297579D02*X26790Y295179D01*
X24390D02*X26790Y297579D01*
X24390Y287579D02*X26790Y285179D01*
X24390D02*X26790Y287579D01*
X24390Y277579D02*X26790Y275179D01*
X24390D02*X26790Y277579D01*
X24390Y267579D02*X26790Y265179D01*
X24390D02*X26790Y267579D01*
X24390Y257579D02*X26790Y255179D01*
X24390D02*X26790Y257579D01*
X24390Y247579D02*X26790Y245179D01*
X24390D02*X26790Y247579D01*
X24390Y237579D02*X26790Y235179D01*
X24390D02*X26790Y237579D01*
X24390Y227579D02*X26790Y225179D01*
X24390D02*X26790Y227579D01*
X24390Y217579D02*X26790Y215179D01*
X24390D02*X26790Y217579D01*
X24390Y207579D02*X26790Y205179D01*
X24390D02*X26790Y207579D01*
X24390Y197579D02*X26790Y195179D01*
X24390D02*X26790Y197579D01*
X24390Y187579D02*X26790Y185179D01*
X24390D02*X26790Y187579D01*
X24390Y177579D02*X26790Y175179D01*
X24390D02*X26790Y177579D01*
X24390Y167579D02*X26790Y165179D01*
X24390D02*X26790Y167579D01*
X24390Y157579D02*X26790Y155179D01*
X24390D02*X26790Y157579D01*
X24390Y147579D02*X26790Y145179D01*
X24390D02*X26790Y147579D01*
X24390Y137579D02*X26790Y135179D01*
X24390D02*X26790Y137579D01*
X24390Y127579D02*X26790Y125179D01*
X24390D02*X26790Y127579D01*
X24390Y117579D02*X26790Y115179D01*
X24390D02*X26790Y117579D01*
X24390Y107579D02*X26790Y105179D01*
X24390D02*X26790Y107579D01*
X24390Y97579D02*X26790Y95179D01*
X24390D02*X26790Y97579D01*
X24390Y87579D02*X26790Y85179D01*
X24390D02*X26790Y87579D01*
X24390Y77579D02*X26790Y75179D01*
X24390D02*X26790Y77579D01*
X147500Y207894D02*X149900Y205494D01*
X147500D02*X149900Y207894D01*
X137500D02*X139900Y205494D01*
X137500D02*X139900Y207894D01*
X13800Y475521D02*X16200Y473121D01*
X13800D02*X16200Y475521D01*
X135000Y478071D02*Y477321D01*
X136500Y475821D01*
X138000Y477321D01*
Y478071D02*Y477321D01*
X136500Y475821D02*Y472071D01*
X139800Y475071D02*X142050D01*
X139800Y472071D02*X142800D01*
X139800Y478071D02*Y472071D01*
Y478071D02*X142800D01*
X147600D02*X148350Y477321D01*
X145350Y478071D02*X147600D01*
X144600Y477321D02*X145350Y478071D01*
X144600Y477321D02*Y475821D01*
X145350Y475071D01*
X147600D01*
X148350Y474321D01*
Y472821D01*
X147600Y472071D02*X148350Y472821D01*
X145350Y472071D02*X147600D01*
X144600Y472821D02*X145350Y472071D01*
X98000Y477321D02*X98750Y478071D01*
X100250D01*
X101000Y477321D01*
Y472821D01*
X100250Y472071D02*X101000Y472821D01*
X98750Y472071D02*X100250D01*
X98000Y472821D02*X98750Y472071D01*
Y475071D02*X101000D01*
X102800Y477321D02*X103550Y478071D01*
X105050D01*
X105800Y477321D01*
Y472821D01*
X105050Y472071D02*X105800Y472821D01*
X103550Y472071D02*X105050D01*
X102800Y472821D02*X103550Y472071D01*
Y475071D02*X105800D01*
X45000Y472821D02*X45750Y472071D01*
X45000Y477321D02*Y472821D01*
Y477321D02*X45750Y478071D01*
X47250D01*
X48000Y477321D01*
Y472821D01*
X47250Y472071D02*X48000Y472821D01*
X45750Y472071D02*X47250D01*
X45000Y473571D02*X48000Y476571D01*
X49800Y472071D02*X50550D01*
X52350Y472821D02*X53100Y472071D01*
X52350Y477321D02*Y472821D01*
Y477321D02*X53100Y478071D01*
X54600D01*
X55350Y477321D01*
Y472821D01*
X54600Y472071D02*X55350Y472821D01*
X53100Y472071D02*X54600D01*
X52350Y473571D02*X55350Y476571D01*
X57150Y475071D02*X60150Y478071D01*
X57150Y475071D02*X60900D01*
X60150Y478071D02*Y472071D01*
X62700Y477321D02*X63450Y478071D01*
X65700D01*
X66450Y477321D01*
Y475821D01*
X62700Y472071D02*X66450Y475821D01*
X62700Y472071D02*X66450D01*
X179133Y326089D02*Y322889D01*
X177533Y324489D02*X180733D01*
X179133Y366089D02*Y362889D01*
X177533Y364489D02*X180733D01*
X167322Y366089D02*Y362889D01*
X165722Y364489D02*X168922D01*
X167322Y326089D02*Y322889D01*
X165722Y324489D02*X168922D01*
X51181Y50813D02*Y47613D01*
X49581Y49213D02*X52781D01*
X165354Y50813D02*Y47613D01*
X163754Y49213D02*X166954D01*
X51181Y405144D02*Y401944D01*
X49581Y403544D02*X52781D01*
X165354Y405144D02*Y401944D01*
X163754Y403544D02*X166954D01*
X179133Y188294D02*Y185094D01*
X177533Y186694D02*X180733D01*
X179133Y228294D02*Y225094D01*
X177533Y226694D02*X180733D01*
X179133Y247664D02*Y244464D01*
X177533Y246064D02*X180733D01*
X179133Y287664D02*Y284464D01*
X177533Y286064D02*X180733D01*
X167322Y287349D02*Y284149D01*
X165722Y285749D02*X168922D01*
X167322Y247349D02*Y244149D01*
X165722Y245749D02*X168922D01*
X179133Y169239D02*Y166039D01*
X177533Y167639D02*X180733D01*
X179133Y129239D02*Y126039D01*
X177533Y127639D02*X180733D01*
X167322Y129239D02*Y126039D01*
X165722Y127639D02*X168922D01*
X167322Y169239D02*Y166039D01*
X165722Y167639D02*X168922D01*
X100393Y375616D02*Y372416D01*
X98793Y374016D02*X101993D01*
X120077Y365774D02*Y362574D01*
X118477Y364174D02*X121677D01*
X100393Y355931D02*Y352731D01*
X98793Y354331D02*X101993D01*
X120077Y346089D02*Y342889D01*
X118477Y344489D02*X121677D01*
X100393Y336246D02*Y333046D01*
X98793Y334646D02*X101993D01*
X120077Y326404D02*Y323204D01*
X118477Y324804D02*X121677D01*
X100393Y316561D02*Y313361D01*
X98793Y314961D02*X101993D01*
X120077Y306719D02*Y303519D01*
X118477Y305119D02*X121677D01*
X100393Y296876D02*Y293676D01*
X98793Y295276D02*X101993D01*
X120077Y287034D02*Y283834D01*
X118477Y285434D02*X121677D01*
X100393Y277191D02*Y273991D01*
X98793Y275591D02*X101993D01*
X120077Y267349D02*Y264149D01*
X118477Y265749D02*X121677D01*
X100393Y257506D02*Y254306D01*
X98793Y255906D02*X101993D01*
X120077Y247664D02*Y244464D01*
X118477Y246064D02*X121677D01*
X100393Y237821D02*Y234621D01*
X98793Y236221D02*X101993D01*
X120077Y227979D02*Y224779D01*
X118477Y226379D02*X121677D01*
X100393Y218136D02*Y214936D01*
X98793Y216536D02*X101993D01*
X120077Y208294D02*Y205094D01*
X118477Y206694D02*X121677D01*
X100393Y198451D02*Y195251D01*
X98793Y196851D02*X101993D01*
X120077Y188609D02*Y185409D01*
X118477Y187009D02*X121677D01*
X120077Y168924D02*Y165724D01*
X118477Y167324D02*X121677D01*
X100393Y178766D02*Y175566D01*
X98793Y177166D02*X101993D01*
X100393Y159081D02*Y155881D01*
X98793Y157481D02*X101993D01*
X120077Y149239D02*Y146039D01*
X118477Y147639D02*X121677D01*
X100393Y139396D02*Y136196D01*
X98793Y137796D02*X101993D01*
X120077Y129554D02*Y126354D01*
X118477Y127954D02*X121677D01*
X100393Y119711D02*Y116511D01*
X98793Y118111D02*X101993D01*
X120077Y109869D02*Y106669D01*
X118477Y108269D02*X121677D01*
X100393Y100026D02*Y96826D01*
X98793Y98426D02*X101993D01*
X120077Y90184D02*Y86984D01*
X118477Y88584D02*X121677D01*
X100393Y80341D02*Y77141D01*
X98793Y78741D02*X101993D01*
X15000Y490921D02*Y487721D01*
X13400Y489321D02*X16600D01*
X135000Y493071D02*Y492321D01*
X136500Y490821D01*
X138000Y492321D01*
Y493071D02*Y492321D01*
X136500Y490821D02*Y487071D01*
X139800Y490071D02*X142050D01*
X139800Y487071D02*X142800D01*
X139800Y493071D02*Y487071D01*
Y493071D02*X142800D01*
X147600D02*X148350Y492321D01*
X145350Y493071D02*X147600D01*
X144600Y492321D02*X145350Y493071D01*
X144600Y492321D02*Y490821D01*
X145350Y490071D01*
X147600D01*
X148350Y489321D01*
Y487821D01*
X147600Y487071D02*X148350Y487821D01*
X145350Y487071D02*X147600D01*
X144600Y487821D02*X145350Y487071D01*
X98000Y490071D02*X101000Y493071D01*
X98000Y490071D02*X101750D01*
X101000Y493071D02*Y487071D01*
X103550D02*X106550Y490071D01*
Y492321D02*Y490071D01*
X105800Y493071D02*X106550Y492321D01*
X104300Y493071D02*X105800D01*
X103550Y492321D02*X104300Y493071D01*
X103550Y492321D02*Y490821D01*
X104300Y490071D01*
X106550D01*
X45000Y487821D02*X45750Y487071D01*
X45000Y492321D02*Y487821D01*
Y492321D02*X45750Y493071D01*
X47250D01*
X48000Y492321D01*
Y487821D01*
X47250Y487071D02*X48000Y487821D01*
X45750Y487071D02*X47250D01*
X45000Y488571D02*X48000Y491571D01*
X49800Y487071D02*X50550D01*
X52350Y487821D02*X53100Y487071D01*
X52350Y492321D02*Y487821D01*
Y492321D02*X53100Y493071D01*
X54600D01*
X55350Y492321D01*
Y487821D01*
X54600Y487071D02*X55350Y487821D01*
X53100Y487071D02*X54600D01*
X52350Y488571D02*X55350Y491571D01*
X57150Y490071D02*X60150Y493071D01*
X57150Y490071D02*X60900D01*
X60150Y493071D02*Y487071D01*
X62700Y487821D02*X63450Y487071D01*
X62700Y492321D02*Y487821D01*
Y492321D02*X63450Y493071D01*
X64950D01*
X65700Y492321D01*
Y487821D01*
X64950Y487071D02*X65700Y487821D01*
X63450Y487071D02*X64950D01*
X62700Y488571D02*X65700Y491571D01*
X153543Y152560D02*Y150960D01*
Y152560D02*X154930Y153360D01*
X153543Y152560D02*X152156Y153360D01*
X169291Y212599D02*Y210999D01*
Y212599D02*X170678Y213399D01*
X169291Y212599D02*X167904Y213399D01*
X169291Y233269D02*Y231669D01*
Y233269D02*X170678Y234069D01*
X169291Y233269D02*X167904Y234069D01*
X15000Y504321D02*Y502721D01*
Y504321D02*X16387Y505121D01*
X15000Y504321D02*X13613Y505121D01*
X135000Y508071D02*Y507321D01*
X136500Y505821D01*
X138000Y507321D01*
Y508071D02*Y507321D01*
X136500Y505821D02*Y502071D01*
X139800Y505071D02*X142050D01*
X139800Y502071D02*X142800D01*
X139800Y508071D02*Y502071D01*
Y508071D02*X142800D01*
X147600D02*X148350Y507321D01*
X145350Y508071D02*X147600D01*
X144600Y507321D02*X145350Y508071D01*
X144600Y507321D02*Y505821D01*
X145350Y505071D01*
X147600D01*
X148350Y504321D01*
Y502821D01*
X147600Y502071D02*X148350Y502821D01*
X145350Y502071D02*X147600D01*
X144600Y502821D02*X145350Y502071D01*
X98000Y507321D02*X98750Y508071D01*
X100250D01*
X101000Y507321D01*
Y502821D01*
X100250Y502071D02*X101000Y502821D01*
X98750Y502071D02*X100250D01*
X98000Y502821D02*X98750Y502071D01*
Y505071D02*X101000D01*
X45000Y502821D02*X45750Y502071D01*
X45000Y507321D02*Y502821D01*
Y507321D02*X45750Y508071D01*
X47250D01*
X48000Y507321D01*
Y502821D01*
X47250Y502071D02*X48000Y502821D01*
X45750Y502071D02*X47250D01*
X45000Y503571D02*X48000Y506571D01*
X49800Y502071D02*X50550D01*
X52350Y502821D02*X53100Y502071D01*
X52350Y507321D02*Y502821D01*
Y507321D02*X53100Y508071D01*
X54600D01*
X55350Y507321D01*
Y502821D01*
X54600Y502071D02*X55350Y502821D01*
X53100Y502071D02*X54600D01*
X52350Y503571D02*X55350Y506571D01*
X57150Y507321D02*X57900Y508071D01*
X59400D01*
X60150Y507321D01*
Y502821D01*
X59400Y502071D02*X60150Y502821D01*
X57900Y502071D02*X59400D01*
X57150Y502821D02*X57900Y502071D01*
Y505071D02*X60150D01*
X61950Y508071D02*X64950D01*
X61950D02*Y505071D01*
X62700Y505821D01*
X64200D01*
X64950Y505071D01*
Y502821D01*
X64200Y502071D02*X64950Y502821D01*
X62700Y502071D02*X64200D01*
X61950Y502821D02*X62700Y502071D01*
X3000Y523071D02*X3750Y522321D01*
X750Y523071D02*X3000D01*
X0Y522321D02*X750Y523071D01*
X0Y522321D02*Y520821D01*
X750Y520071D01*
X3000D01*
X3750Y519321D01*
Y517821D01*
X3000Y517071D02*X3750Y517821D01*
X750Y517071D02*X3000D01*
X0Y517821D02*X750Y517071D01*
X5550Y520071D02*Y517821D01*
X6300Y517071D01*
X8550Y520071D02*Y515571D01*
X7800Y514821D02*X8550Y515571D01*
X6300Y514821D02*X7800D01*
X5550Y515571D02*X6300Y514821D01*
Y517071D02*X7800D01*
X8550Y517821D01*
X11100Y519321D02*Y517071D01*
Y519321D02*X11850Y520071D01*
X12600D01*
X13350Y519321D01*
Y517071D01*
Y519321D02*X14100Y520071D01*
X14850D01*
X15600Y519321D01*
Y517071D01*
X10350Y520071D02*X11100Y519321D01*
X17400Y523071D02*Y517071D01*
Y517821D02*X18150Y517071D01*
X19650D01*
X20400Y517821D01*
Y519321D02*Y517821D01*
X19650Y520071D02*X20400Y519321D01*
X18150Y520071D02*X19650D01*
X17400Y519321D02*X18150Y520071D01*
X22200Y519321D02*Y517821D01*
Y519321D02*X22950Y520071D01*
X24450D01*
X25200Y519321D01*
Y517821D01*
X24450Y517071D02*X25200Y517821D01*
X22950Y517071D02*X24450D01*
X22200Y517821D02*X22950Y517071D01*
X27000Y523071D02*Y517821D01*
X27750Y517071D01*
X0Y513821D02*X29250D01*
X41750Y523071D02*Y517071D01*
X44000Y523071D02*X44750Y522321D01*
Y517821D01*
X44000Y517071D02*X44750Y517821D01*
X41000Y517071D02*X44000D01*
X41000Y523071D02*X44000D01*
X46550Y521571D02*Y520821D01*
Y519321D02*Y517071D01*
X50300Y520071D02*X51050Y519321D01*
X48800Y520071D02*X50300D01*
X48050Y519321D02*X48800Y520071D01*
X48050Y519321D02*Y517821D01*
X48800Y517071D01*
X51050Y520071D02*Y517821D01*
X51800Y517071D01*
X48800D02*X50300D01*
X51050Y517821D01*
X54350Y519321D02*Y517071D01*
Y519321D02*X55100Y520071D01*
X55850D01*
X56600Y519321D01*
Y517071D01*
Y519321D02*X57350Y520071D01*
X58100D01*
X58850Y519321D01*
Y517071D01*
X53600Y520071D02*X54350Y519321D01*
X60650Y517071D02*X61400D01*
X65900Y517821D02*X66650Y517071D01*
X65900Y522321D02*X66650Y523071D01*
X65900Y522321D02*Y517821D01*
X68450Y523071D02*X69950D01*
X69200D02*Y517071D01*
X68450D02*X69950D01*
X72500Y519321D02*Y517071D01*
Y519321D02*X73250Y520071D01*
X74000D01*
X74750Y519321D01*
Y517071D01*
X71750Y520071D02*X72500Y519321D01*
X77300Y520071D02*X79550D01*
X76550Y519321D02*X77300Y520071D01*
X76550Y519321D02*Y517821D01*
X77300Y517071D01*
X79550D01*
X81350Y523071D02*Y517071D01*
Y519321D02*X82100Y520071D01*
X83600D01*
X84350Y519321D01*
Y517071D01*
X86150Y523071D02*X86900Y522321D01*
Y517821D01*
X86150Y517071D02*X86900Y517821D01*
X41000Y513821D02*X88700D01*
X95750Y517071D02*X98000D01*
X95000Y517821D02*X95750Y517071D01*
X95000Y522321D02*Y517821D01*
Y522321D02*X95750Y523071D01*
X98000D01*
X99800Y519321D02*Y517821D01*
Y519321D02*X100550Y520071D01*
X102050D01*
X102800Y519321D01*
Y517821D01*
X102050Y517071D02*X102800Y517821D01*
X100550Y517071D02*X102050D01*
X99800Y517821D02*X100550Y517071D01*
X104600Y520071D02*Y517821D01*
X105350Y517071D01*
X106850D01*
X107600Y517821D01*
Y520071D02*Y517821D01*
X110150Y519321D02*Y517071D01*
Y519321D02*X110900Y520071D01*
X111650D01*
X112400Y519321D01*
Y517071D01*
X109400Y520071D02*X110150Y519321D01*
X114950Y523071D02*Y517821D01*
X115700Y517071D01*
X114200Y520821D02*X115700D01*
X95000Y513821D02*X117200D01*
X130750Y523071D02*Y517071D01*
X130000Y523071D02*X133000D01*
X133750Y522321D01*
Y520821D01*
X133000Y520071D02*X133750Y520821D01*
X130750Y520071D02*X133000D01*
X135550Y523071D02*Y517821D01*
X136300Y517071D01*
X140050Y520071D02*X140800Y519321D01*
X138550Y520071D02*X140050D01*
X137800Y519321D02*X138550Y520071D01*
X137800Y519321D02*Y517821D01*
X138550Y517071D01*
X140800Y520071D02*Y517821D01*
X141550Y517071D01*
X138550D02*X140050D01*
X140800Y517821D01*
X144100Y523071D02*Y517821D01*
X144850Y517071D01*
X143350Y520821D02*X144850D01*
X147100Y517071D02*X149350D01*
X146350Y517821D02*X147100Y517071D01*
X146350Y519321D02*Y517821D01*
Y519321D02*X147100Y520071D01*
X148600D01*
X149350Y519321D01*
X146350Y518571D02*X149350D01*
Y519321D02*Y518571D01*
X154150Y523071D02*Y517071D01*
X153400D02*X154150Y517821D01*
X151900Y517071D02*X153400D01*
X151150Y517821D02*X151900Y517071D01*
X151150Y519321D02*Y517821D01*
Y519321D02*X151900Y520071D01*
X153400D01*
X154150Y519321D01*
X157450Y520071D02*Y519321D01*
Y517821D02*Y517071D01*
X155950Y522321D02*Y521571D01*
Y522321D02*X156700Y523071D01*
X158200D01*
X158950Y522321D01*
Y521571D01*
X157450Y520071D02*X158950Y521571D01*
X130000Y513821D02*X160750D01*
X0Y538071D02*X3000D01*
X1500D02*Y532071D01*
X4800Y538071D02*Y532071D01*
Y534321D02*X5550Y535071D01*
X7050D01*
X7800Y534321D01*
Y532071D01*
X10350D02*X12600D01*
X9600Y532821D02*X10350Y532071D01*
X9600Y534321D02*Y532821D01*
Y534321D02*X10350Y535071D01*
X11850D01*
X12600Y534321D01*
X9600Y533571D02*X12600D01*
Y534321D02*Y533571D01*
X15150Y534321D02*Y532071D01*
Y534321D02*X15900Y535071D01*
X17400D01*
X14400D02*X15150Y534321D01*
X19950Y532071D02*X22200D01*
X19200Y532821D02*X19950Y532071D01*
X19200Y534321D02*Y532821D01*
Y534321D02*X19950Y535071D01*
X21450D01*
X22200Y534321D01*
X19200Y533571D02*X22200D01*
Y534321D02*Y533571D01*
X28950Y535071D02*X29700Y534321D01*
X27450Y535071D02*X28950D01*
X26700Y534321D02*X27450Y535071D01*
X26700Y534321D02*Y532821D01*
X27450Y532071D01*
X29700Y535071D02*Y532821D01*
X30450Y532071D01*
X27450D02*X28950D01*
X29700Y532821D01*
X33000Y534321D02*Y532071D01*
Y534321D02*X33750Y535071D01*
X35250D01*
X32250D02*X33000Y534321D01*
X37800Y532071D02*X40050D01*
X37050Y532821D02*X37800Y532071D01*
X37050Y534321D02*Y532821D01*
Y534321D02*X37800Y535071D01*
X39300D01*
X40050Y534321D01*
X37050Y533571D02*X40050D01*
Y534321D02*Y533571D01*
X44550Y538071D02*X47550D01*
X44550D02*Y535071D01*
X45300Y535821D01*
X46800D01*
X47550Y535071D01*
Y532821D01*
X46800Y532071D02*X47550Y532821D01*
X45300Y532071D02*X46800D01*
X44550Y532821D02*X45300Y532071D01*
X55050Y538071D02*Y532071D01*
X54300D02*X55050Y532821D01*
X52800Y532071D02*X54300D01*
X52050Y532821D02*X52800Y532071D01*
X52050Y534321D02*Y532821D01*
Y534321D02*X52800Y535071D01*
X54300D01*
X55050Y534321D01*
X56850Y536571D02*Y535821D01*
Y534321D02*Y532071D01*
X59100Y537321D02*Y532071D01*
Y537321D02*X59850Y538071D01*
X60600D01*
X58350Y535071D02*X59850D01*
X62850Y537321D02*Y532071D01*
Y537321D02*X63600Y538071D01*
X64350D01*
X62100Y535071D02*X63600D01*
X66600Y532071D02*X68850D01*
X65850Y532821D02*X66600Y532071D01*
X65850Y534321D02*Y532821D01*
Y534321D02*X66600Y535071D01*
X68100D01*
X68850Y534321D01*
X65850Y533571D02*X68850D01*
Y534321D02*Y533571D01*
X71400Y534321D02*Y532071D01*
Y534321D02*X72150Y535071D01*
X73650D01*
X70650D02*X71400Y534321D01*
X76200Y532071D02*X78450D01*
X75450Y532821D02*X76200Y532071D01*
X75450Y534321D02*Y532821D01*
Y534321D02*X76200Y535071D01*
X77700D01*
X78450Y534321D01*
X75450Y533571D02*X78450D01*
Y534321D02*Y533571D01*
X81000Y534321D02*Y532071D01*
Y534321D02*X81750Y535071D01*
X82500D01*
X83250Y534321D01*
Y532071D01*
X80250Y535071D02*X81000Y534321D01*
X85800Y538071D02*Y532821D01*
X86550Y532071D01*
X85050Y535821D02*X86550D01*
X93750Y538071D02*Y532071D01*
X93000D02*X93750Y532821D01*
X91500Y532071D02*X93000D01*
X90750Y532821D02*X91500Y532071D01*
X90750Y534321D02*Y532821D01*
Y534321D02*X91500Y535071D01*
X93000D01*
X93750Y534321D01*
X96300D02*Y532071D01*
Y534321D02*X97050Y535071D01*
X98550D01*
X95550D02*X96300Y534321D01*
X100350Y536571D02*Y535821D01*
Y534321D02*Y532071D01*
X101850Y538071D02*Y532821D01*
X102600Y532071D01*
X104100Y538071D02*Y532821D01*
X104850Y532071D01*
X109800D02*X112050D01*
X112800Y532821D01*
X112050Y533571D02*X112800Y532821D01*
X109800Y533571D02*X112050D01*
X109050Y534321D02*X109800Y533571D01*
X109050Y534321D02*X109800Y535071D01*
X112050D01*
X112800Y534321D01*
X109050Y532821D02*X109800Y532071D01*
X114600Y536571D02*Y535821D01*
Y534321D02*Y532071D01*
X116100Y535071D02*X119100D01*
X116100Y532071D02*X119100Y535071D01*
X116100Y532071D02*X119100D01*
X121650D02*X123900D01*
X120900Y532821D02*X121650Y532071D01*
X120900Y534321D02*Y532821D01*
Y534321D02*X121650Y535071D01*
X123150D01*
X123900Y534321D01*
X120900Y533571D02*X123900D01*
Y534321D02*Y533571D01*
X126450Y532071D02*X128700D01*
X129450Y532821D01*
X128700Y533571D02*X129450Y532821D01*
X126450Y533571D02*X128700D01*
X125700Y534321D02*X126450Y533571D01*
X125700Y534321D02*X126450Y535071D01*
X128700D01*
X129450Y534321D01*
X125700Y532821D02*X126450Y532071D01*
X133950Y535071D02*Y532821D01*
X134700Y532071D01*
X136200D01*
X136950Y532821D01*
Y535071D02*Y532821D01*
X139500Y532071D02*X141750D01*
X142500Y532821D01*
X141750Y533571D02*X142500Y532821D01*
X139500Y533571D02*X141750D01*
X138750Y534321D02*X139500Y533571D01*
X138750Y534321D02*X139500Y535071D01*
X141750D01*
X142500Y534321D01*
X138750Y532821D02*X139500Y532071D01*
X145050D02*X147300D01*
X144300Y532821D02*X145050Y532071D01*
X144300Y534321D02*Y532821D01*
Y534321D02*X145050Y535071D01*
X146550D01*
X147300Y534321D01*
X144300Y533571D02*X147300D01*
Y534321D02*Y533571D01*
X152100Y538071D02*Y532071D01*
X151350D02*X152100Y532821D01*
X149850Y532071D02*X151350D01*
X149100Y532821D02*X149850Y532071D01*
X149100Y534321D02*Y532821D01*
Y534321D02*X149850Y535071D01*
X151350D01*
X152100Y534321D01*
X156600Y536571D02*Y535821D01*
Y534321D02*Y532071D01*
X158850Y534321D02*Y532071D01*
Y534321D02*X159600Y535071D01*
X160350D01*
X161100Y534321D01*
Y532071D01*
X158100Y535071D02*X158850Y534321D01*
X166350Y538071D02*Y532821D01*
X167100Y532071D01*
X165600Y535821D02*X167100D01*
X168600Y538071D02*Y532071D01*
Y534321D02*X169350Y535071D01*
X170850D01*
X171600Y534321D01*
Y532071D01*
X173400Y536571D02*Y535821D01*
Y534321D02*Y532071D01*
X175650D02*X177900D01*
X178650Y532821D01*
X177900Y533571D02*X178650Y532821D01*
X175650Y533571D02*X177900D01*
X174900Y534321D02*X175650Y533571D01*
X174900Y534321D02*X175650Y535071D01*
X177900D01*
X178650Y534321D01*
X174900Y532821D02*X175650Y532071D01*
X183150Y538071D02*Y532821D01*
X183900Y532071D01*
X187650Y535071D02*X188400Y534321D01*
X186150Y535071D02*X187650D01*
X185400Y534321D02*X186150Y535071D01*
X185400Y534321D02*Y532821D01*
X186150Y532071D01*
X188400Y535071D02*Y532821D01*
X189150Y532071D01*
X186150D02*X187650D01*
X188400Y532821D01*
X190950Y535071D02*Y532821D01*
X191700Y532071D01*
X193950Y535071D02*Y530571D01*
X193200Y529821D02*X193950Y530571D01*
X191700Y529821D02*X193200D01*
X190950Y530571D02*X191700Y529821D01*
Y532071D02*X193200D01*
X193950Y532821D01*
X195750Y534321D02*Y532821D01*
Y534321D02*X196500Y535071D01*
X198000D01*
X198750Y534321D01*
Y532821D01*
X198000Y532071D02*X198750Y532821D01*
X196500Y532071D02*X198000D01*
X195750Y532821D02*X196500Y532071D01*
X200550Y535071D02*Y532821D01*
X201300Y532071D01*
X202800D01*
X203550Y532821D01*
Y535071D02*Y532821D01*
X206100Y538071D02*Y532821D01*
X206850Y532071D01*
X205350Y535821D02*X206850D01*
X208350Y530571D02*X209850Y532071D01*
X215100D02*X216600D01*
X215850Y538071D02*Y532071D01*
X214350Y536571D02*X215850Y538071D01*
X218400Y532821D02*X219150Y532071D01*
X218400Y537321D02*Y532821D01*
Y537321D02*X219150Y538071D01*
X220650D01*
X221400Y537321D01*
Y532821D01*
X220650Y532071D02*X221400Y532821D01*
X219150Y532071D02*X220650D01*
X218400Y533571D02*X221400Y536571D01*
X223200Y532821D02*X223950Y532071D01*
X223200Y537321D02*Y532821D01*
Y537321D02*X223950Y538071D01*
X225450D01*
X226200Y537321D01*
Y532821D01*
X225450Y532071D02*X226200Y532821D01*
X223950Y532071D02*X225450D01*
X223200Y533571D02*X226200Y536571D01*
X230700Y538071D02*Y532071D01*
Y534321D02*X231450Y535071D01*
X232950D01*
X233700Y534321D01*
Y532071D01*
X235500Y534321D02*Y532821D01*
Y534321D02*X236250Y535071D01*
X237750D01*
X238500Y534321D01*
Y532821D01*
X237750Y532071D02*X238500Y532821D01*
X236250Y532071D02*X237750D01*
X235500Y532821D02*X236250Y532071D01*
X240300Y538071D02*Y532821D01*
X241050Y532071D01*
X243300D02*X245550D01*
X242550Y532821D02*X243300Y532071D01*
X242550Y534321D02*Y532821D01*
Y534321D02*X243300Y535071D01*
X244800D01*
X245550Y534321D01*
X242550Y533571D02*X245550D01*
Y534321D02*Y533571D01*
X248100Y532071D02*X250350D01*
X251100Y532821D01*
X250350Y533571D02*X251100Y532821D01*
X248100Y533571D02*X250350D01*
X247350Y534321D02*X248100Y533571D01*
X247350Y534321D02*X248100Y535071D01*
X250350D01*
X251100Y534321D01*
X247350Y532821D02*X248100Y532071D01*
X256350Y538071D02*Y532821D01*
X257100Y532071D01*
X255600Y535821D02*X257100D01*
X258600Y534321D02*Y532821D01*
Y534321D02*X259350Y535071D01*
X260850D01*
X261600Y534321D01*
Y532821D01*
X260850Y532071D02*X261600Y532821D01*
X259350Y532071D02*X260850D01*
X258600Y532821D02*X259350Y532071D01*
X264150Y538071D02*Y532821D01*
X264900Y532071D01*
X263400Y535821D02*X264900D01*
X268650Y535071D02*X269400Y534321D01*
X267150Y535071D02*X268650D01*
X266400Y534321D02*X267150Y535071D01*
X266400Y534321D02*Y532821D01*
X267150Y532071D01*
X269400Y535071D02*Y532821D01*
X270150Y532071D01*
X267150D02*X268650D01*
X269400Y532821D01*
X271950Y538071D02*Y532821D01*
X272700Y532071D01*
G54D61*X19685Y413386D02*X185039D01*
X19685Y39370D02*Y413386D01*
X185039Y39370D02*X19685D01*
X185039Y413386D02*Y39371D01*
G54D60*X41628Y-8000D02*X44628D01*
X45378Y-7250D01*
Y-5750D02*Y-7250D01*
X44628Y-5000D02*X45378Y-5750D01*
X42378Y-5000D02*X44628D01*
X42378Y-2000D02*Y-8000D01*
X41628Y-2000D02*X44628D01*
X45378Y-2750D01*
Y-4250D01*
X44628Y-5000D02*X45378Y-4250D01*
X47178Y-5750D02*Y-7250D01*
Y-5750D02*X47928Y-5000D01*
X49428D01*
X50178Y-5750D01*
Y-7250D01*
X49428Y-8000D02*X50178Y-7250D01*
X47928Y-8000D02*X49428D01*
X47178Y-7250D02*X47928Y-8000D01*
X54228Y-5000D02*X54978Y-5750D01*
X52728Y-5000D02*X54228D01*
X51978Y-5750D02*X52728Y-5000D01*
X51978Y-5750D02*Y-7250D01*
X52728Y-8000D01*
X54978Y-5000D02*Y-7250D01*
X55728Y-8000D01*
X52728D02*X54228D01*
X54978Y-7250D01*
X58278Y-5750D02*Y-8000D01*
Y-5750D02*X59028Y-5000D01*
X60528D01*
X57528D02*X58278Y-5750D01*
X65328Y-2000D02*Y-8000D01*
X64578D02*X65328Y-7250D01*
X63078Y-8000D02*X64578D01*
X62328Y-7250D02*X63078Y-8000D01*
X62328Y-5750D02*Y-7250D01*
Y-5750D02*X63078Y-5000D01*
X64578D01*
X65328Y-5750D01*
X69828D02*Y-7250D01*
Y-5750D02*X70578Y-5000D01*
X72078D01*
X72828Y-5750D01*
Y-7250D01*
X72078Y-8000D02*X72828Y-7250D01*
X70578Y-8000D02*X72078D01*
X69828Y-7250D02*X70578Y-8000D01*
X74628Y-5000D02*Y-7250D01*
X75378Y-8000D01*
X76878D01*
X77628Y-7250D01*
Y-5000D02*Y-7250D01*
X80178Y-2000D02*Y-7250D01*
X80928Y-8000D01*
X79428Y-4250D02*X80928D01*
X82428Y-2000D02*Y-7250D01*
X83178Y-8000D01*
X84678Y-3500D02*Y-4250D01*
Y-5750D02*Y-8000D01*
X86928Y-5750D02*Y-8000D01*
Y-5750D02*X87678Y-5000D01*
X88428D01*
X89178Y-5750D01*
Y-8000D01*
X86178Y-5000D02*X86928Y-5750D01*
X91728Y-8000D02*X93978D01*
X90978Y-7250D02*X91728Y-8000D01*
X90978Y-5750D02*Y-7250D01*
Y-5750D02*X91728Y-5000D01*
X93228D01*
X93978Y-5750D01*
X90978Y-6500D02*X93978D01*
Y-5750D02*Y-6500D01*
X98478Y-3500D02*Y-4250D01*
Y-5750D02*Y-8000D01*
X100728D02*X102978D01*
X103728Y-7250D01*
X102978Y-6500D02*X103728Y-7250D01*
X100728Y-6500D02*X102978D01*
X99978Y-5750D02*X100728Y-6500D01*
X99978Y-5750D02*X100728Y-5000D01*
X102978D01*
X103728Y-5750D01*
X99978Y-7250D02*X100728Y-8000D01*
X108978Y-2000D02*Y-7250D01*
X109728Y-8000D01*
X108228Y-4250D02*X109728D01*
X111228Y-2000D02*Y-8000D01*
Y-5750D02*X111978Y-5000D01*
X113478D01*
X114228Y-5750D01*
Y-8000D01*
X116778D02*X119028D01*
X116028Y-7250D02*X116778Y-8000D01*
X116028Y-5750D02*Y-7250D01*
Y-5750D02*X116778Y-5000D01*
X118278D01*
X119028Y-5750D01*
X116028Y-6500D02*X119028D01*
Y-5750D02*Y-6500D01*
X124278Y-5000D02*X126528D01*
X123528Y-5750D02*X124278Y-5000D01*
X123528Y-5750D02*Y-7250D01*
X124278Y-8000D01*
X126528D01*
X129078D02*X131328D01*
X128328Y-7250D02*X129078Y-8000D01*
X128328Y-5750D02*Y-7250D01*
Y-5750D02*X129078Y-5000D01*
X130578D01*
X131328Y-5750D01*
X128328Y-6500D02*X131328D01*
Y-5750D02*Y-6500D01*
X133878Y-5750D02*Y-8000D01*
Y-5750D02*X134628Y-5000D01*
X135378D01*
X136128Y-5750D01*
Y-8000D01*
X133128Y-5000D02*X133878Y-5750D01*
X138678Y-2000D02*Y-7250D01*
X139428Y-8000D01*
X137928Y-4250D02*X139428D01*
X141678Y-8000D02*X143928D01*
X140928Y-7250D02*X141678Y-8000D01*
X140928Y-5750D02*Y-7250D01*
Y-5750D02*X141678Y-5000D01*
X143178D01*
X143928Y-5750D01*
X140928Y-6500D02*X143928D01*
Y-5750D02*Y-6500D01*
X146478Y-5750D02*Y-8000D01*
Y-5750D02*X147228Y-5000D01*
X148728D01*
X145728D02*X146478Y-5750D01*
X150528Y-2000D02*Y-7250D01*
X151278Y-8000D01*
X152778Y-3500D02*Y-4250D01*
Y-5750D02*Y-8000D01*
X155028Y-5750D02*Y-8000D01*
Y-5750D02*X155778Y-5000D01*
X156528D01*
X157278Y-5750D01*
Y-8000D01*
X154278Y-5000D02*X155028Y-5750D01*
X159828Y-8000D02*X162078D01*
X159078Y-7250D02*X159828Y-8000D01*
X159078Y-5750D02*Y-7250D01*
Y-5750D02*X159828Y-5000D01*
X161328D01*
X162078Y-5750D01*
X159078Y-6500D02*X162078D01*
Y-5750D02*Y-6500D01*
X166578Y-5750D02*Y-7250D01*
Y-5750D02*X167328Y-5000D01*
X168828D01*
X169578Y-5750D01*
Y-7250D01*
X168828Y-8000D02*X169578Y-7250D01*
X167328Y-8000D02*X168828D01*
X166578Y-7250D02*X167328Y-8000D01*
X172128Y-2750D02*Y-8000D01*
Y-2750D02*X172878Y-2000D01*
X173628D01*
X171378Y-5000D02*X172878D01*
X178578Y-2000D02*Y-7250D01*
X179328Y-8000D01*
X177828Y-4250D02*X179328D01*
X180828Y-2000D02*Y-8000D01*
Y-5750D02*X181578Y-5000D01*
X183078D01*
X183828Y-5750D01*
Y-8000D01*
X185628Y-3500D02*Y-4250D01*
Y-5750D02*Y-8000D01*
X187878D02*X190128D01*
X190878Y-7250D01*
X190128Y-6500D02*X190878Y-7250D01*
X187878Y-6500D02*X190128D01*
X187128Y-5750D02*X187878Y-6500D01*
X187128Y-5750D02*X187878Y-5000D01*
X190128D01*
X190878Y-5750D01*
X187128Y-7250D02*X187878Y-8000D01*
X196128Y-5750D02*Y-10250D01*
X195378Y-5000D02*X196128Y-5750D01*
X196878Y-5000D01*
X198378D01*
X199128Y-5750D01*
Y-7250D01*
X198378Y-8000D02*X199128Y-7250D01*
X196878Y-8000D02*X198378D01*
X196128Y-7250D02*X196878Y-8000D01*
X203178Y-5000D02*X203928Y-5750D01*
X201678Y-5000D02*X203178D01*
X200928Y-5750D02*X201678Y-5000D01*
X200928Y-5750D02*Y-7250D01*
X201678Y-8000D01*
X203928Y-5000D02*Y-7250D01*
X204678Y-8000D01*
X201678D02*X203178D01*
X203928Y-7250D01*
X207228Y-2000D02*Y-7250D01*
X207978Y-8000D01*
X206478Y-4250D02*X207978D01*
X209478Y-2000D02*Y-8000D01*
Y-5750D02*X210228Y-5000D01*
X211728D01*
X212478Y-5750D01*
Y-8000D01*
X200750Y463071D02*Y457071D01*
X203000Y463071D02*X203750Y462321D01*
Y457821D01*
X203000Y457071D02*X203750Y457821D01*
X200000Y457071D02*X203000D01*
X200000Y463071D02*X203000D01*
X207800Y460071D02*X208550Y459321D01*
X206300Y460071D02*X207800D01*
X205550Y459321D02*X206300Y460071D01*
X205550Y459321D02*Y457821D01*
X206300Y457071D01*
X208550Y460071D02*Y457821D01*
X209300Y457071D01*
X206300D02*X207800D01*
X208550Y457821D01*
X211850Y463071D02*Y457821D01*
X212600Y457071D01*
X211100Y460821D02*X212600D01*
X214850Y457071D02*X217100D01*
X214100Y457821D02*X214850Y457071D01*
X214100Y459321D02*Y457821D01*
Y459321D02*X214850Y460071D01*
X216350D01*
X217100Y459321D01*
X214100Y458571D02*X217100D01*
Y459321D02*Y458571D01*
X218900Y460821D02*X219650D01*
X218900Y459321D02*X219650D01*
X227150Y463071D02*X227900Y462321D01*
X224900Y463071D02*X227150D01*
X224150Y462321D02*X224900Y463071D01*
X224150Y462321D02*Y460821D01*
X224900Y460071D01*
X227150D01*
X227900Y459321D01*
Y457821D01*
X227150Y457071D02*X227900Y457821D01*
X224900Y457071D02*X227150D01*
X224150Y457821D02*X224900Y457071D01*
X229700Y460071D02*Y457821D01*
X230450Y457071D01*
X231950D01*
X232700Y457821D01*
Y460071D02*Y457821D01*
X235250Y459321D02*Y457071D01*
Y459321D02*X236000Y460071D01*
X236750D01*
X237500Y459321D01*
Y457071D01*
X234500Y460071D02*X235250Y459321D01*
X242750Y463071D02*Y457071D01*
X245000Y463071D02*X245750Y462321D01*
Y457821D01*
X245000Y457071D02*X245750Y457821D01*
X242000Y457071D02*X245000D01*
X242000Y463071D02*X245000D01*
X248300Y457071D02*X250550D01*
X247550Y457821D02*X248300Y457071D01*
X247550Y459321D02*Y457821D01*
Y459321D02*X248300Y460071D01*
X249800D01*
X250550Y459321D01*
X247550Y458571D02*X250550D01*
Y459321D02*Y458571D01*
X253100Y460071D02*X255350D01*
X252350Y459321D02*X253100Y460071D01*
X252350Y459321D02*Y457821D01*
X253100Y457071D01*
X255350D01*
X260600D02*X262100D01*
X261350Y463071D02*Y457071D01*
X259850Y461571D02*X261350Y463071D01*
X263900Y462321D02*X264650Y463071D01*
X266150D01*
X266900Y462321D01*
Y457821D01*
X266150Y457071D02*X266900Y457821D01*
X264650Y457071D02*X266150D01*
X263900Y457821D02*X264650Y457071D01*
Y460071D02*X266900D01*
X272150Y457071D02*X273650D01*
X272900Y463071D02*Y457071D01*
X271400Y461571D02*X272900Y463071D01*
X275450Y457821D02*X276200Y457071D01*
X275450Y459321D02*Y457821D01*
Y459321D02*X276200Y460071D01*
X277700D01*
X278450Y459321D01*
Y457821D01*
X277700Y457071D02*X278450Y457821D01*
X276200Y457071D02*X277700D01*
X275450Y460821D02*X276200Y460071D01*
X275450Y462321D02*Y460821D01*
Y462321D02*X276200Y463071D01*
X277700D01*
X278450Y462321D01*
Y460821D01*
X277700Y460071D02*X278450Y460821D01*
X280250D02*X281000D01*
X280250Y459321D02*X281000D01*
X282800Y462321D02*X283550Y463071D01*
X285050D01*
X285800Y462321D01*
Y457821D01*
X285050Y457071D02*X285800Y457821D01*
X283550Y457071D02*X285050D01*
X282800Y457821D02*X283550Y457071D01*
Y460071D02*X285800D01*
X288350Y457071D02*X289850D01*
X289100Y463071D02*Y457071D01*
X287600Y461571D02*X289100Y463071D01*
X291650Y460821D02*X292400D01*
X291650Y459321D02*X292400D01*
X294200Y460071D02*X297200Y463071D01*
X294200Y460071D02*X297950D01*
X297200Y463071D02*Y457071D01*
X299750D02*X303500Y460821D01*
Y463071D02*Y460821D01*
X299750Y463071D02*X303500D01*
X308000Y462321D02*X308750Y463071D01*
X311000D01*
X311750Y462321D01*
Y460821D01*
X308000Y457071D02*X311750Y460821D01*
X308000Y457071D02*X311750D01*
X313550Y457821D02*X314300Y457071D01*
X313550Y462321D02*Y457821D01*
Y462321D02*X314300Y463071D01*
X315800D01*
X316550Y462321D01*
Y457821D01*
X315800Y457071D02*X316550Y457821D01*
X314300Y457071D02*X315800D01*
X313550Y458571D02*X316550Y461571D01*
X318350Y462321D02*X319100Y463071D01*
X321350D01*
X322100Y462321D01*
Y460821D01*
X318350Y457071D02*X322100Y460821D01*
X318350Y457071D02*X322100D01*
X323900Y457821D02*X324650Y457071D01*
X323900Y462321D02*Y457821D01*
Y462321D02*X324650Y463071D01*
X326150D01*
X326900Y462321D01*
Y457821D01*
X326150Y457071D02*X326900Y457821D01*
X324650Y457071D02*X326150D01*
X323900Y458571D02*X326900Y461571D01*
X331400Y463071D02*Y457821D01*
X332150Y457071D01*
X333650D01*
X334400Y457821D01*
Y463071D02*Y457821D01*
X336200Y463071D02*X339200D01*
X337700D02*Y457071D01*
X341750D02*X344000D01*
X341000Y457821D02*X341750Y457071D01*
X341000Y462321D02*Y457821D01*
Y462321D02*X341750Y463071D01*
X344000D01*
X200000Y477321D02*Y472071D01*
Y477321D02*X200750Y478071D01*
X203000D01*
X203750Y477321D01*
Y472071D01*
X200000Y475071D02*X203750D01*
X205550D02*Y472821D01*
X206300Y472071D01*
X207800D01*
X208550Y472821D01*
Y475071D02*Y472821D01*
X211100Y478071D02*Y472821D01*
X211850Y472071D01*
X210350Y475821D02*X211850D01*
X213350Y478071D02*Y472071D01*
Y474321D02*X214100Y475071D01*
X215600D01*
X216350Y474321D01*
Y472071D01*
X218150Y474321D02*Y472821D01*
Y474321D02*X218900Y475071D01*
X220400D01*
X221150Y474321D01*
Y472821D01*
X220400Y472071D02*X221150Y472821D01*
X218900Y472071D02*X220400D01*
X218150Y472821D02*X218900Y472071D01*
X223700Y474321D02*Y472071D01*
Y474321D02*X224450Y475071D01*
X225950D01*
X222950D02*X223700Y474321D01*
X227750Y475821D02*X228500D01*
X227750Y474321D02*X228500D01*
X233000Y472071D02*X236000D01*
X236750Y472821D01*
Y474321D02*Y472821D01*
X236000Y475071D02*X236750Y474321D01*
X233750Y475071D02*X236000D01*
X233750Y478071D02*Y472071D01*
X233000Y478071D02*X236000D01*
X236750Y477321D01*
Y475821D01*
X236000Y475071D02*X236750Y475821D01*
X239300Y472071D02*X241550D01*
X238550Y472821D02*X239300Y472071D01*
X238550Y474321D02*Y472821D01*
Y474321D02*X239300Y475071D01*
X240800D01*
X241550Y474321D01*
X238550Y473571D02*X241550D01*
Y474321D02*Y473571D01*
X244100Y474321D02*Y472071D01*
Y474321D02*X244850Y475071D01*
X246350D01*
X243350D02*X244100Y474321D01*
X248900Y478071D02*Y472821D01*
X249650Y472071D01*
X248150Y475821D02*X249650D01*
X253850Y478071D02*X256850D01*
X255350D02*Y472071D01*
X258650Y476571D02*Y475821D01*
Y474321D02*Y472071D01*
X260900Y474321D02*Y472071D01*
Y474321D02*X261650Y475071D01*
X262400D01*
X263150Y474321D01*
Y472071D01*
Y474321D02*X263900Y475071D01*
X264650D01*
X265400Y474321D01*
Y472071D01*
X260150Y475071D02*X260900Y474321D01*
X267950D02*Y472071D01*
Y474321D02*X268700Y475071D01*
X269450D01*
X270200Y474321D01*
Y472071D01*
Y474321D02*X270950Y475071D01*
X271700D01*
X272450Y474321D01*
Y472071D01*
X267200Y475071D02*X267950Y474321D01*
X275000Y472071D02*X277250D01*
X274250Y472821D02*X275000Y472071D01*
X274250Y474321D02*Y472821D01*
Y474321D02*X275000Y475071D01*
X276500D01*
X277250Y474321D01*
X274250Y473571D02*X277250D01*
Y474321D02*Y473571D01*
X279800Y474321D02*Y472071D01*
Y474321D02*X280550Y475071D01*
X282050D01*
X279050D02*X279800Y474321D01*
X284600D02*Y472071D01*
Y474321D02*X285350Y475071D01*
X286100D01*
X286850Y474321D01*
Y472071D01*
Y474321D02*X287600Y475071D01*
X288350D01*
X289100Y474321D01*
Y472071D01*
X283850Y475071D02*X284600Y474321D01*
X293150Y475071D02*X293900Y474321D01*
X291650Y475071D02*X293150D01*
X290900Y474321D02*X291650Y475071D01*
X290900Y474321D02*Y472821D01*
X291650Y472071D01*
X293900Y475071D02*Y472821D01*
X294650Y472071D01*
X291650D02*X293150D01*
X293900Y472821D01*
X297200Y474321D02*Y472071D01*
Y474321D02*X297950Y475071D01*
X298700D01*
X299450Y474321D01*
Y472071D01*
X296450Y475071D02*X297200Y474321D01*
X200000Y493071D02*X203000D01*
X201500D02*Y487071D01*
X204800Y491571D02*Y490821D01*
Y489321D02*Y487071D01*
X207050Y493071D02*Y487821D01*
X207800Y487071D01*
X206300Y490821D02*X207800D01*
X209300Y493071D02*Y487821D01*
X210050Y487071D01*
X212300D02*X214550D01*
X211550Y487821D02*X212300Y487071D01*
X211550Y489321D02*Y487821D01*
Y489321D02*X212300Y490071D01*
X213800D01*
X214550Y489321D01*
X211550Y488571D02*X214550D01*
Y489321D02*Y488571D01*
X216350Y490821D02*X217100D01*
X216350Y489321D02*X217100D01*
X221600Y487821D02*X222350Y487071D01*
X221600Y492321D02*Y487821D01*
Y492321D02*X222350Y493071D01*
X223850D01*
X224600Y492321D01*
Y487821D01*
X223850Y487071D02*X224600Y487821D01*
X222350Y487071D02*X223850D01*
X221600Y488571D02*X224600Y491571D01*
X227150Y487071D02*X228650D01*
X227900Y493071D02*Y487071D01*
X226400Y491571D02*X227900Y493071D01*
X230450Y487071D02*X231200D01*
X233000Y487821D02*X233750Y487071D01*
X233000Y492321D02*Y487821D01*
Y492321D02*X233750Y493071D01*
X235250D01*
X236000Y492321D01*
Y487821D01*
X235250Y487071D02*X236000Y487821D01*
X233750Y487071D02*X235250D01*
X233000Y488571D02*X236000Y491571D01*
X237800Y487821D02*X238550Y487071D01*
X237800Y492321D02*Y487821D01*
Y492321D02*X238550Y493071D01*
X240050D01*
X240800Y492321D01*
Y487821D01*
X240050Y487071D02*X240800Y487821D01*
X238550Y487071D02*X240050D01*
X237800Y488571D02*X240800Y491571D01*
X242600Y492321D02*X243350Y493071D01*
X245600D01*
X246350Y492321D01*
Y490821D01*
X242600Y487071D02*X246350Y490821D01*
X242600Y487071D02*X246350D01*
X248150D02*X248900D01*
X250700Y487821D02*X251450Y487071D01*
X250700Y492321D02*Y487821D01*
Y492321D02*X251450Y493071D01*
X252950D01*
X253700Y492321D01*
Y487821D01*
X252950Y487071D02*X253700Y487821D01*
X251450Y487071D02*X252950D01*
X250700Y488571D02*X253700Y491571D01*
X255500Y487821D02*X256250Y487071D01*
X255500Y492321D02*Y487821D01*
Y492321D02*X256250Y493071D01*
X257750D01*
X258500Y492321D01*
Y487821D01*
X257750Y487071D02*X258500Y487821D01*
X256250Y487071D02*X257750D01*
X255500Y488571D02*X258500Y491571D01*
X260300Y487071D02*X261050D01*
X262850Y487821D02*X263600Y487071D01*
X262850Y492321D02*Y487821D01*
Y492321D02*X263600Y493071D01*
X265100D01*
X265850Y492321D01*
Y487821D01*
X265100Y487071D02*X265850Y487821D01*
X263600Y487071D02*X265100D01*
X262850Y488571D02*X265850Y491571D01*
X268400Y487071D02*X269900D01*
X269150Y493071D02*Y487071D01*
X267650Y491571D02*X269150Y493071D01*
X271700Y487071D02*X272450D01*
X274250Y487821D02*X275000Y487071D01*
X274250Y492321D02*Y487821D01*
Y492321D02*X275000Y493071D01*
X276500D01*
X277250Y492321D01*
Y487821D01*
X276500Y487071D02*X277250Y487821D01*
X275000Y487071D02*X276500D01*
X274250Y488571D02*X277250Y491571D01*
X279800Y487071D02*X281300D01*
X280550Y493071D02*Y487071D01*
X279050Y491571D02*X280550Y493071D01*
X283100Y487071D02*X283850D01*
X286400Y489321D02*Y484821D01*
X285650Y490071D02*X286400Y489321D01*
X287150Y490071D01*
X288650D01*
X289400Y489321D01*
Y487821D01*
X288650Y487071D02*X289400Y487821D01*
X287150Y487071D02*X288650D01*
X286400Y487821D02*X287150Y487071D01*
X291950Y490071D02*X294200D01*
X291200Y489321D02*X291950Y490071D01*
X291200Y489321D02*Y487821D01*
X291950Y487071D01*
X294200D01*
X296000Y493071D02*Y487071D01*
Y487821D02*X296750Y487071D01*
X298250D01*
X299000Y487821D01*
Y489321D02*Y487821D01*
X298250Y490071D02*X299000Y489321D01*
X296750Y490071D02*X298250D01*
X296000Y489321D02*X296750Y490071D01*
X303500D02*X306500D01*
X311000Y493071D02*Y487071D01*
Y493071D02*X314000D01*
X311000Y490071D02*X313250D01*
X318050D02*X318800Y489321D01*
X316550Y490071D02*X318050D01*
X315800Y489321D02*X316550Y490071D01*
X315800Y489321D02*Y487821D01*
X316550Y487071D01*
X318800Y490071D02*Y487821D01*
X319550Y487071D01*
X316550D02*X318050D01*
X318800Y487821D01*
X321350Y493071D02*Y487071D01*
Y487821D02*X322100Y487071D01*
X323600D01*
X324350Y487821D01*
Y489321D02*Y487821D01*
X323600Y490071D02*X324350Y489321D01*
X322100Y490071D02*X323600D01*
X321350Y489321D02*X322100Y490071D01*
X326900Y489321D02*Y487071D01*
Y489321D02*X327650Y490071D01*
X329150D01*
X326150D02*X326900Y489321D01*
X330950Y491571D02*Y490821D01*
Y489321D02*Y487071D01*
X333200Y490071D02*X335450D01*
X332450Y489321D02*X333200Y490071D01*
X332450Y489321D02*Y487821D01*
X333200Y487071D01*
X335450D01*
X339500Y490071D02*X340250Y489321D01*
X338000Y490071D02*X339500D01*
X337250Y489321D02*X338000Y490071D01*
X337250Y489321D02*Y487821D01*
X338000Y487071D01*
X340250Y490071D02*Y487821D01*
X341000Y487071D01*
X338000D02*X339500D01*
X340250Y487821D01*
X343550Y493071D02*Y487821D01*
X344300Y487071D01*
X342800Y490821D02*X344300D01*
X345800Y491571D02*Y490821D01*
Y489321D02*Y487071D01*
X347300Y489321D02*Y487821D01*
Y489321D02*X348050Y490071D01*
X349550D01*
X350300Y489321D01*
Y487821D01*
X349550Y487071D02*X350300Y487821D01*
X348050Y487071D02*X349550D01*
X347300Y487821D02*X348050Y487071D01*
X352850Y489321D02*Y487071D01*
Y489321D02*X353600Y490071D01*
X354350D01*
X355100Y489321D01*
Y487071D01*
X352100Y490071D02*X352850Y489321D01*
X360350Y493071D02*Y487071D01*
X362600Y493071D02*X363350Y492321D01*
Y487821D01*
X362600Y487071D02*X363350Y487821D01*
X359600Y487071D02*X362600D01*
X359600Y493071D02*X362600D01*
X365900Y489321D02*Y487071D01*
Y489321D02*X366650Y490071D01*
X368150D01*
X365150D02*X365900Y489321D01*
X372200Y490071D02*X372950Y489321D01*
X370700Y490071D02*X372200D01*
X369950Y489321D02*X370700Y490071D01*
X369950Y489321D02*Y487821D01*
X370700Y487071D01*
X372950Y490071D02*Y487821D01*
X373700Y487071D01*
X370700D02*X372200D01*
X372950Y487821D01*
X375500Y490071D02*Y487821D01*
X376250Y487071D01*
X377000D01*
X377750Y487821D01*
Y490071D02*Y487821D01*
X378500Y487071D01*
X379250D01*
X380000Y487821D01*
Y490071D02*Y487821D01*
X381800Y491571D02*Y490821D01*
Y489321D02*Y487071D01*
X384050Y489321D02*Y487071D01*
Y489321D02*X384800Y490071D01*
X385550D01*
X386300Y489321D01*
Y487071D01*
X383300Y490071D02*X384050Y489321D01*
X390350Y490071D02*X391100Y489321D01*
X388850Y490071D02*X390350D01*
X388100Y489321D02*X388850Y490071D01*
X388100Y489321D02*Y487821D01*
X388850Y487071D01*
X390350D01*
X391100Y487821D01*
X388100Y485571D02*X388850Y484821D01*
X390350D01*
X391100Y485571D01*
Y490071D02*Y485571D01*
M02*
