G04 start of page 9 for group -4079 idx -4079 *
G04 Title: 01.003.00.01.01.pcb, topsilk *
G04 Creator: pcb 4.1.2 *
G04 CreationDate: Sat Sep  1 10:35:09 2018 UTC *
G04 For: bert *
G04 Format: Gerber/RS-274X *
G04 PCB-Dimensions (mil): 6692.91 4330.71 *
G04 PCB-Coordinate-Origin: lower left *
%MOIN*%
%FSLAX25Y25*%
%LNGTO*%
%ADD70C,0.0000*%
%ADD69C,0.0100*%
%ADD68C,0.0080*%
%ADD67C,0.0001*%
G54D67*G36*
X152028Y346949D02*X154605D01*
X154688Y346917D01*
X154735Y346841D01*
X154784Y346602D01*
X154828Y346380D01*
X155219Y344248D01*
X155266Y344160D01*
X155349Y344102D01*
X155452Y344058D01*
X156242Y343787D01*
X156992Y343429D01*
X156998D01*
X157085Y343391D01*
X157182Y343377D01*
X157280Y343408D01*
X159053Y344627D01*
X159244Y344752D01*
X159445Y344888D01*
X159531Y344913D01*
X159613Y344877D01*
X159944Y344547D01*
X160448Y344047D01*
X160606Y343884D01*
X161105Y343386D01*
X161267Y343229D01*
X161435Y343055D01*
X161474Y342970D01*
X161452Y342881D01*
X161316Y342680D01*
X161187Y342490D01*
X159998Y340754D01*
X159966Y340662D01*
X159981Y340565D01*
X160026Y340466D01*
X160709Y338860D01*
X160746Y338769D01*
X160809Y338691D01*
X160899Y338644D01*
X162938Y338263D01*
X163162Y338220D01*
X163405Y338177D01*
X163480Y338130D01*
X163509Y338047D01*
Y335470D01*
X163480Y335381D01*
X163405Y335334D01*
X163162Y335291D01*
X162938Y335248D01*
X160959Y334879D01*
X160871Y334831D01*
X160817Y334748D01*
X160789Y334688D01*
Y334677D01*
X160074Y332904D01*
X160069Y332892D01*
X160052Y332849D01*
X160035Y332748D01*
X160063Y332654D01*
X161192Y331022D01*
X161316Y330831D01*
X161457Y330630D01*
X161476Y330544D01*
X161435Y330462D01*
X161267Y330283D01*
X161105Y330126D01*
X159787Y328808D01*
X159613Y328640D01*
X159531Y328599D01*
X159445Y328617D01*
X159244Y328759D01*
X159053Y328883D01*
X157459Y329980D01*
X157360Y330009D01*
X157263Y329990D01*
X156932Y329806D01*
X156738Y329697D01*
X156391Y329519D01*
X156306Y329513D01*
X156244Y329573D01*
X156098Y329930D01*
X156010Y330137D01*
X154627Y333495D01*
X154539Y333701D01*
X154442Y333934D01*
X154438Y334029D01*
X154491Y334102D01*
X154714Y334233D01*
X154855Y334341D01*
X155391Y334787D01*
X155806Y335351D01*
X156073Y336010D01*
X156167Y336740D01*
X156109Y337315D01*
X155944Y337849D01*
X155681Y338334D01*
X155332Y338756D01*
X154912Y339105D01*
X154428Y339369D01*
X153894Y339534D01*
X153320Y339592D01*
X152745Y339534D01*
X152210Y339369D01*
X151727Y339105D01*
X151305Y338756D01*
X150957Y338334D01*
X150695Y337849D01*
X150530Y337315D01*
X150471Y336740D01*
X150564Y336010D01*
X150831Y335351D01*
X151245Y334787D01*
X151784Y334341D01*
X151920Y334233D01*
X152142Y334102D01*
X152196Y334029D01*
X152191Y333934D01*
X152094Y333701D01*
X152006Y333495D01*
X150623Y330137D01*
X150537Y329930D01*
X150389Y329573D01*
X150328Y329513D01*
X150244Y329519D01*
X149902Y329697D01*
X149701Y329806D01*
X149370Y329990D01*
X149271Y330009D01*
X149174Y329980D01*
X147580Y328883D01*
X147395Y328759D01*
X147189Y328617D01*
X147102Y328599D01*
X147020Y328640D01*
X146846Y328808D01*
X146689Y328970D01*
X146191Y329469D01*
X146028Y329627D01*
X145528Y330126D01*
X145366Y330283D01*
X145198Y330462D01*
X145159Y330544D01*
X145181Y330630D01*
X145317Y330831D01*
X145448Y331022D01*
X146570Y332654D01*
X146598Y332748D01*
X146581Y332849D01*
X146559Y332909D01*
X145849Y334683D01*
X145816Y334748D01*
X145762Y334831D01*
X145676Y334879D01*
X143695Y335248D01*
X143473Y335291D01*
X143234Y335334D01*
X143155Y335384D01*
X143126Y335470D01*
Y338047D01*
X143155Y338130D01*
X143234Y338177D01*
X143473Y338226D01*
X143695Y338263D01*
X145735Y338644D01*
X145824Y338691D01*
X145887Y338774D01*
X145924Y338860D01*
X146613Y340466D01*
X146652Y340565D01*
X146669Y340662D01*
X146641Y340754D01*
X145448Y342495D01*
X145317Y342680D01*
X145181Y342881D01*
X145159Y342970D01*
X145198Y343055D01*
X145366Y343229D01*
X145528Y343386D01*
X147020Y344877D01*
X147102Y344913D01*
X147189Y344894D01*
X147395Y344758D01*
X147580Y344627D01*
X149353Y343408D01*
X149451Y343379D01*
X149549Y343397D01*
X149635Y343429D01*
X149646Y343434D01*
X150392Y343788D01*
X151182Y344063D01*
X151285Y344102D01*
X151369Y344160D01*
X151414Y344248D01*
X151812Y346380D01*
X151849Y346602D01*
X151898Y346841D01*
X151945Y346917D01*
X152028Y346949D01*
G37*
G54D68*X242520Y403543D02*X70866D01*
X242520D02*Y397244D01*
X77165D01*
X19685Y413386D02*X649606D01*
X649606Y394882D02*Y38189D01*
X242520Y29528D02*Y35827D01*
X70866Y403543D02*Y29528D01*
X77165D02*Y403543D01*
X242520Y35827D02*X77165D01*
X242520Y29528D02*X70866D01*
X19685Y19685D02*Y413386D01*
Y19685D02*X649606D01*
Y413386D01*
Y413386D01*
G54D69*X412450Y78909D02*X412250Y79309D01*
X411850Y79709D01*
X411450Y79909D01*
X410650D02*X411450D01*
X410650D02*X410250Y79709D01*
X409850Y79309D01*
X409650Y78909D01*
X409450Y78309D01*
Y77309D01*
X409650Y76709D01*
X409850Y76309D01*
X410250Y75909D01*
X410650Y75709D01*
X411450D01*
X411850Y75909D01*
X412250Y76309D01*
X412450Y76709D01*
Y77309D02*Y76709D01*
X411450Y77309D02*X412450D01*
X413650Y79909D02*Y75709D01*
Y79909D02*X416450Y75709D01*
Y79909D02*Y75709D01*
X417650Y79909D02*Y75709D01*
Y79909D02*X419050D01*
X419650Y79709D01*
X420050Y79309D01*
X420250Y78909D01*
X420450Y78309D01*
Y77309D01*
X420250Y76709D01*
X420050Y76309D01*
X419650Y75909D01*
X419050Y75709D01*
X417650D02*X419050D01*
X411249Y69466D02*Y65866D01*
X409449Y67666D02*X413049D01*
X414249Y69266D02*X414649Y69466D01*
X415249Y70066D01*
Y65866D01*
X416849Y70066D02*X418849D01*
X416849D02*X416649Y68266D01*
X416849Y68466D01*
X417449Y68666D01*
X418049D01*
X418649Y68466D01*
X419049Y68066D01*
X419249Y67466D01*
Y67066D01*
X419049Y66466D01*
X418649Y66066D01*
X418049Y65866D01*
X417449D02*X418049D01*
X417449D02*X416849Y66066D01*
X416649Y66266D01*
X416449Y66666D01*
X421649Y70066D02*X423249Y65866D01*
X424849Y70066D02*X423249Y65866D01*
X427249Y70066D02*Y65866D01*
Y70066D02*X428649D01*
X429249Y69866D01*
X429649Y69466D01*
X429849Y69066D01*
X430049Y68466D01*
Y67466D01*
X429849Y66866D01*
X429649Y66466D01*
X429249Y66066D01*
X428649Y65866D01*
X427249D02*X428649D01*
X434249Y69066D02*X434049Y69466D01*
X433649Y69866D01*
X433249Y70066D01*
X432449D02*X433249D01*
X432449D02*X432049Y69866D01*
X431649Y69466D01*
X431449Y69066D01*
X431249Y68466D01*
Y67466D01*
X431449Y66866D01*
X431649Y66466D01*
X432049Y66066D01*
X432449Y65866D01*
X433249D01*
X433649Y66066D01*
X434049Y66466D01*
X434249Y66866D01*
X409449Y87352D02*X413049D01*
X414249Y88952D02*X414649Y89152D01*
X415249Y89752D01*
Y85552D01*
X416849Y89752D02*X418849D01*
X416849D02*X416649Y87952D01*
X416849Y88152D01*
X417449Y88352D01*
X418049D01*
X418649Y88152D01*
X419049Y87752D01*
X419249Y87152D01*
Y86752D01*
X419049Y86152D01*
X418649Y85752D01*
X418049Y85552D01*
X417449D02*X418049D01*
X417449D02*X416849Y85752D01*
X416649Y85952D01*
X416449Y86352D01*
X421649Y89752D02*X423249Y85552D01*
X424849Y89752D02*X423249Y85552D01*
X427249Y89752D02*Y85552D01*
Y89752D02*X428649D01*
X429249Y89552D01*
X429649Y89152D01*
X429849Y88752D01*
X430049Y88152D01*
Y87152D01*
X429849Y86552D01*
X429649Y86152D01*
X429249Y85752D01*
X428649Y85552D01*
X427249D02*X428649D01*
X434249Y88752D02*X434049Y89152D01*
X433649Y89552D01*
X433249Y89752D01*
X432449D02*X433249D01*
X432449D02*X432049Y89552D01*
X431649Y89152D01*
X431449Y88752D01*
X431249Y88152D01*
Y87152D01*
X431449Y86552D01*
X431649Y86152D01*
X432049Y85752D01*
X432449Y85552D01*
X433249D01*
X433649Y85752D01*
X434049Y86152D01*
X434249Y86552D01*
X460630Y81525D02*X462070Y75477D01*
X463510Y81525D02*X462070Y75477D01*
X463510Y81525D02*X464950Y75477D01*
X466390Y81525D02*X464950Y75477D01*
X470422Y81525D02*X468118Y75477D01*
X470422Y81525D02*X472726Y75477D01*
X468982Y77493D02*X471862D01*
X474454Y81525D02*Y75477D01*
Y81525D02*X477046D01*
X477910Y81237D01*
X478198Y80949D01*
X478486Y80373D01*
Y79797D01*
X478198Y79221D01*
X477910Y78933D01*
X477046Y78645D01*
X474454D02*X477046D01*
X476470D02*X478486Y75477D01*
X480214Y81525D02*Y75477D01*
Y81525D02*X484246Y75477D01*
Y81525D02*Y75477D01*
X485974Y81525D02*Y75477D01*
X487702Y81525D02*Y75477D01*
Y81525D02*X491734Y75477D01*
Y81525D02*Y75477D01*
X497782Y80085D02*X497494Y80661D01*
X496918Y81237D01*
X496342Y81525D01*
X495190D02*X496342D01*
X495190D02*X494614Y81237D01*
X494038Y80661D01*
X493750Y80085D01*
X493462Y79221D01*
Y77781D01*
X493750Y76917D01*
X494038Y76341D01*
X494614Y75765D01*
X495190Y75477D01*
X496342D01*
X496918Y75765D01*
X497494Y76341D01*
X497782Y76917D01*
Y77781D02*Y76917D01*
X496342Y77781D02*X497782D01*
X499798Y79509D02*X499510Y79221D01*
X499798Y78933D01*
X500086Y79221D01*
X499798Y79509D01*
Y76053D02*X499510Y75765D01*
X499798Y75477D01*
X500086Y75765D01*
X499798Y76053D01*
X503830Y80373D02*Y80085D01*
Y80373D02*X504118Y80949D01*
X504406Y81237D01*
X504982Y81525D01*
X506134D01*
X506710Y81237D01*
X506998Y80949D01*
X507286Y80373D01*
Y79797D01*
X506998Y79221D01*
X506422Y78357D01*
X503542Y75477D01*
X507574D01*
X509878Y81525D02*X513046D01*
X511318Y79221D01*
X512182D01*
X512758Y78933D01*
X513046Y78645D01*
X513334Y77781D01*
Y77205D01*
X513046Y76341D01*
X512470Y75765D01*
X511606Y75477D01*
X510742D02*X511606D01*
X510742D02*X509878Y75765D01*
X509590Y76053D01*
X509302Y76629D01*
X516790Y81525D02*X515926Y81237D01*
X515350Y80373D01*
X515062Y78933D01*
Y78069D01*
X515350Y76629D01*
X515926Y75765D01*
X516790Y75477D01*
X517366D01*
X518230Y75765D01*
X518806Y76629D01*
X519094Y78069D01*
Y78933D02*Y78069D01*
Y78933D02*X518806Y80373D01*
X518230Y81237D01*
X517366Y81525D01*
X516790D02*X517366D01*
X522550D02*X524854Y75477D01*
X527158Y81525D02*X524854Y75477D01*
X532918Y81525D02*X530614Y75477D01*
X532918Y81525D02*X535222Y75477D01*
X531478Y77493D02*X534358D01*
X541270Y80085D02*X540982Y80661D01*
X540406Y81237D01*
X539830Y81525D01*
X538678D02*X539830D01*
X538678D02*X538102Y81237D01*
X537526Y80661D01*
X537238Y80085D01*
X536950Y79221D01*
Y77781D01*
X537238Y76917D01*
X537526Y76341D01*
X538102Y75765D01*
X538678Y75477D01*
X539830D01*
X540406Y75765D01*
X540982Y76341D01*
X541270Y76917D01*
X470472Y118479D02*X470872Y118679D01*
X471472Y119279D01*
Y115079D01*
X473872Y119279D02*X473272Y119079D01*
X472872Y118479D01*
X472672Y117479D01*
Y116879D01*
X472872Y115879D01*
X473272Y115279D01*
X473872Y115079D01*
X474272D01*
X474872Y115279D01*
X475272Y115879D01*
X475472Y116879D01*
Y117479D02*Y116879D01*
Y117479D02*X475272Y118479D01*
X474872Y119079D01*
X474272Y119279D01*
X473872D02*X474272D01*
X477872D02*X477272Y119079D01*
X476872Y118479D01*
X476672Y117479D01*
Y116879D01*
X476872Y115879D01*
X477272Y115279D01*
X477872Y115079D01*
X478272D01*
X478872Y115279D01*
X479272Y115879D01*
X479472Y116879D01*
Y117479D02*Y116879D01*
Y117479D02*X479272Y118479D01*
X478872Y119079D01*
X478272Y119279D01*
X477872D02*X478272D01*
X481872Y117879D02*Y115079D01*
Y117079D02*X482472Y117679D01*
X482872Y117879D01*
X483472D01*
X483872Y117679D01*
X484072Y117079D01*
Y115079D01*
Y117079D02*X484672Y117679D01*
X485072Y117879D01*
X485672D01*
X486072Y117679D01*
X486272Y117079D01*
Y115079D01*
X489072Y119279D02*X487472Y115079D01*
X489072Y119279D02*X490672Y115079D01*
X488072Y116479D02*X490072D01*
X493072Y119279D02*Y115079D01*
Y119279D02*X495672D01*
X493072Y117279D02*X494672D01*
X496872Y119279D02*Y116279D01*
X497072Y115679D01*
X497472Y115279D01*
X498072Y115079D01*
X498472D01*
X499072Y115279D01*
X499472Y115679D01*
X499672Y116279D01*
Y119279D02*Y116279D01*
X503672Y118679D02*X503272Y119079D01*
X502672Y119279D01*
X501872D02*X502672D01*
X501872D02*X501272Y119079D01*
X500872Y118679D01*
Y118279D01*
X501072Y117879D01*
X501272Y117679D01*
X501672Y117479D01*
X502872Y117079D01*
X503272Y116879D01*
X503472Y116679D01*
X503672Y116279D01*
Y115679D01*
X503272Y115279D01*
X502672Y115079D01*
X501872D02*X502672D01*
X501872D02*X501272Y115279D01*
X500872Y115679D01*
X504872Y119279D02*Y115079D01*
Y119279D02*X507472D01*
X504872Y117279D02*X506472D01*
X504872Y115079D02*X507472D01*
X510272Y119279D02*X512272D01*
X510272D02*X510072Y117479D01*
X510272Y117679D01*
X510872Y117879D01*
X511472D01*
X512072Y117679D01*
X512472Y117279D01*
X512672Y116679D01*
Y116279D01*
X512472Y115679D01*
X512072Y115279D01*
X511472Y115079D01*
X510872D02*X511472D01*
X510872D02*X510272Y115279D01*
X510072Y115479D01*
X509872Y115879D01*
X513872Y117879D02*X516072Y115079D01*
Y117879D02*X513872Y115079D01*
X517472Y118479D02*Y118279D01*
Y118479D02*X517672Y118879D01*
X517872Y119079D01*
X518272Y119279D01*
X519072D01*
X519472Y119079D01*
X519672Y118879D01*
X519872Y118479D01*
Y118079D01*
X519672Y117679D01*
X519272Y117079D01*
X517272Y115079D01*
X520072D01*
X522472Y119279D02*X521872Y119079D01*
X521472Y118479D01*
X521272Y117479D01*
Y116879D01*
X521472Y115879D01*
X521872Y115279D01*
X522472Y115079D01*
X522872D01*
X523472Y115279D01*
X523872Y115879D01*
X524072Y116879D01*
Y117479D02*Y116879D01*
Y117479D02*X523872Y118479D01*
X523472Y119079D01*
X522872Y119279D01*
X522472D02*X522872D01*
X526472Y117879D02*Y115079D01*
Y117079D02*X527072Y117679D01*
X527472Y117879D01*
X528072D01*
X528472Y117679D01*
X528672Y117079D01*
Y115079D01*
Y117079D02*X529272Y117679D01*
X529672Y117879D01*
X530272D01*
X530672Y117679D01*
X530872Y117079D01*
Y115079D01*
X532072Y117879D02*Y115079D01*
Y117079D02*X532672Y117679D01*
X533072Y117879D01*
X533672D01*
X534072Y117679D01*
X534272Y117079D01*
Y115079D01*
Y117079D02*X534872Y117679D01*
X535272Y117879D01*
X535872D01*
X536272Y117679D01*
X536472Y117079D01*
Y115079D01*
X261811Y91368D02*X263251Y85320D01*
X264691Y91368D02*X263251Y85320D01*
X264691Y91368D02*X266131Y85320D01*
X267571Y91368D02*X266131Y85320D01*
X271603Y91368D02*X269299Y85320D01*
X271603Y91368D02*X273907Y85320D01*
X270163Y87336D02*X273043D01*
X275635Y91368D02*Y85320D01*
Y91368D02*X278227D01*
X279091Y91080D01*
X279379Y90792D01*
X279667Y90216D01*
Y89640D01*
X279379Y89064D01*
X279091Y88776D01*
X278227Y88488D01*
X275635D02*X278227D01*
X277651D02*X279667Y85320D01*
X281395Y91368D02*Y85320D01*
Y91368D02*X285427Y85320D01*
Y91368D02*Y85320D01*
X287155Y91368D02*Y85320D01*
X288883Y91368D02*Y85320D01*
Y91368D02*X292915Y85320D01*
Y91368D02*Y85320D01*
X298963Y89928D02*X298675Y90504D01*
X298099Y91080D01*
X297523Y91368D01*
X296371D02*X297523D01*
X296371D02*X295795Y91080D01*
X295219Y90504D01*
X294931Y89928D01*
X294643Y89064D01*
Y87624D01*
X294931Y86760D01*
X295219Y86184D01*
X295795Y85608D01*
X296371Y85320D01*
X297523D01*
X298099Y85608D01*
X298675Y86184D01*
X298963Y86760D01*
Y87624D02*Y86760D01*
X297523Y87624D02*X298963D01*
X300979Y89352D02*X300691Y89064D01*
X300979Y88776D01*
X301267Y89064D01*
X300979Y89352D01*
Y85896D02*X300691Y85608D01*
X300979Y85320D01*
X301267Y85608D01*
X300979Y85896D01*
X305011Y90216D02*Y89928D01*
Y90216D02*X305299Y90792D01*
X305587Y91080D01*
X306163Y91368D01*
X307315D01*
X307891Y91080D01*
X308179Y90792D01*
X308467Y90216D01*
Y89640D01*
X308179Y89064D01*
X307603Y88200D01*
X304723Y85320D01*
X308755D01*
X311059Y91368D02*X314227D01*
X312499Y89064D01*
X313363D01*
X313939Y88776D01*
X314227Y88488D01*
X314515Y87624D01*
Y87048D01*
X314227Y86184D01*
X313651Y85608D01*
X312787Y85320D01*
X311923D02*X312787D01*
X311923D02*X311059Y85608D01*
X310771Y85896D01*
X310483Y86472D01*
X317971Y91368D02*X317107Y91080D01*
X316531Y90216D01*
X316243Y88776D01*
Y87912D01*
X316531Y86472D01*
X317107Y85608D01*
X317971Y85320D01*
X318547D01*
X319411Y85608D01*
X319987Y86472D01*
X320275Y87912D01*
Y88776D02*Y87912D01*
Y88776D02*X319987Y90216D01*
X319411Y91080D01*
X318547Y91368D01*
X317971D02*X318547D01*
X323731D02*X326035Y85320D01*
X328339Y91368D02*X326035Y85320D01*
X334099Y91368D02*X331795Y85320D01*
X334099Y91368D02*X336403Y85320D01*
X332659Y87336D02*X335539D01*
X342451Y89928D02*X342163Y90504D01*
X341587Y91080D01*
X341011Y91368D01*
X339859D02*X341011D01*
X339859D02*X339283Y91080D01*
X338707Y90504D01*
X338419Y89928D01*
X338131Y89064D01*
Y87624D01*
X338419Y86760D01*
X338707Y86184D01*
X339283Y85608D01*
X339859Y85320D01*
X341011D01*
X341587Y85608D01*
X342163Y86184D01*
X342451Y86760D01*
X273622Y128321D02*X274022Y128521D01*
X274622Y129121D01*
Y124921D01*
X277022Y129121D02*X276422Y128921D01*
X276022Y128321D01*
X275822Y127321D01*
Y126721D01*
X276022Y125721D01*
X276422Y125121D01*
X277022Y124921D01*
X277422D01*
X278022Y125121D01*
X278422Y125721D01*
X278622Y126721D01*
Y127321D02*Y126721D01*
Y127321D02*X278422Y128321D01*
X278022Y128921D01*
X277422Y129121D01*
X277022D02*X277422D01*
X281022D02*X280422Y128921D01*
X280022Y128321D01*
X279822Y127321D01*
Y126721D01*
X280022Y125721D01*
X280422Y125121D01*
X281022Y124921D01*
X281422D01*
X282022Y125121D01*
X282422Y125721D01*
X282622Y126721D01*
Y127321D02*Y126721D01*
Y127321D02*X282422Y128321D01*
X282022Y128921D01*
X281422Y129121D01*
X281022D02*X281422D01*
X285022Y127721D02*Y124921D01*
Y126921D02*X285622Y127521D01*
X286022Y127721D01*
X286622D01*
X287022Y127521D01*
X287222Y126921D01*
Y124921D01*
Y126921D02*X287822Y127521D01*
X288222Y127721D01*
X288822D01*
X289222Y127521D01*
X289422Y126921D01*
Y124921D01*
X292222Y129121D02*X290622Y124921D01*
X292222Y129121D02*X293822Y124921D01*
X291222Y126321D02*X293222D01*
X296222Y129121D02*Y124921D01*
Y129121D02*X298822D01*
X296222Y127121D02*X297822D01*
X300022Y129121D02*Y126121D01*
X300222Y125521D01*
X300622Y125121D01*
X301222Y124921D01*
X301622D01*
X302222Y125121D01*
X302622Y125521D01*
X302822Y126121D01*
Y129121D02*Y126121D01*
X306822Y128521D02*X306422Y128921D01*
X305822Y129121D01*
X305022D02*X305822D01*
X305022D02*X304422Y128921D01*
X304022Y128521D01*
Y128121D01*
X304222Y127721D01*
X304422Y127521D01*
X304822Y127321D01*
X306022Y126921D01*
X306422Y126721D01*
X306622Y126521D01*
X306822Y126121D01*
Y125521D01*
X306422Y125121D01*
X305822Y124921D01*
X305022D02*X305822D01*
X305022D02*X304422Y125121D01*
X304022Y125521D01*
X308022Y129121D02*Y124921D01*
Y129121D02*X310622D01*
X308022Y127121D02*X309622D01*
X308022Y124921D02*X310622D01*
X313422Y129121D02*X315422D01*
X313422D02*X313222Y127321D01*
X313422Y127521D01*
X314022Y127721D01*
X314622D01*
X315222Y127521D01*
X315622Y127121D01*
X315822Y126521D01*
Y126121D01*
X315622Y125521D01*
X315222Y125121D01*
X314622Y124921D01*
X314022D02*X314622D01*
X314022D02*X313422Y125121D01*
X313222Y125321D01*
X313022Y125721D01*
X317022Y127721D02*X319222Y124921D01*
Y127721D02*X317022Y124921D01*
X320622Y128321D02*Y128121D01*
Y128321D02*X320822Y128721D01*
X321022Y128921D01*
X321422Y129121D01*
X322222D01*
X322622Y128921D01*
X322822Y128721D01*
X323022Y128321D01*
Y127921D01*
X322822Y127521D01*
X322422Y126921D01*
X320422Y124921D01*
X323222D01*
X325622Y129121D02*X325022Y128921D01*
X324622Y128321D01*
X324422Y127321D01*
Y126721D01*
X324622Y125721D01*
X325022Y125121D01*
X325622Y124921D01*
X326022D01*
X326622Y125121D01*
X327022Y125721D01*
X327222Y126721D01*
Y127321D02*Y126721D01*
Y127321D02*X327022Y128321D01*
X326622Y128921D01*
X326022Y129121D01*
X325622D02*X326022D01*
X329622Y127721D02*Y124921D01*
Y126921D02*X330222Y127521D01*
X330622Y127721D01*
X331222D01*
X331622Y127521D01*
X331822Y126921D01*
Y124921D01*
Y126921D02*X332422Y127521D01*
X332822Y127721D01*
X333422D01*
X333822Y127521D01*
X334022Y126921D01*
Y124921D01*
X335222Y127721D02*Y124921D01*
Y126921D02*X335822Y127521D01*
X336222Y127721D01*
X336822D01*
X337222Y127521D01*
X337422Y126921D01*
Y124921D01*
Y126921D02*X338022Y127521D01*
X338422Y127721D01*
X339022D01*
X339422Y127521D01*
X339622Y126921D01*
Y124921D01*
X409449Y114846D02*X413049D01*
X414249Y117246D02*Y114246D01*
X414449Y113646D01*
X414849Y113246D01*
X415449Y113046D01*
X415849D01*
X416449Y113246D01*
X416849Y113646D01*
X417049Y114246D01*
Y117246D02*Y114246D01*
X411248Y126521D02*Y122921D01*
X409448Y124721D02*X413048D01*
X414248Y127121D02*Y124121D01*
X414448Y123521D01*
X414848Y123121D01*
X415448Y122921D01*
X415848D01*
X416448Y123121D01*
X416848Y123521D01*
X417048Y124121D01*
Y127121D02*Y124121D01*
X409448Y134721D02*X413048D01*
X414248Y137121D02*Y134121D01*
X414448Y133521D01*
X414848Y133121D01*
X415448Y132921D01*
X415848D01*
X416448Y133121D01*
X416848Y133521D01*
X417048Y134121D01*
Y137121D02*Y134121D01*
X418248Y137121D02*X419848Y132921D01*
X421448Y137121D02*X419848Y132921D01*
X424248Y137121D02*X422648Y132921D01*
X424248Y137121D02*X425848Y132921D01*
X423248Y134321D02*X425248D01*
X427048Y137121D02*Y132921D01*
Y137121D02*X428848D01*
X429448Y136921D01*
X429648Y136721D01*
X429848Y136321D01*
Y135921D01*
X429648Y135521D01*
X429448Y135321D01*
X428848Y135121D01*
X427048D02*X428848D01*
X428448D02*X429848Y132921D01*
X411248Y146521D02*Y142921D01*
X409448Y144721D02*X413048D01*
X414248Y147121D02*Y144121D01*
X414448Y143521D01*
X414848Y143121D01*
X415448Y142921D01*
X415848D01*
X416448Y143121D01*
X416848Y143521D01*
X417048Y144121D01*
Y147121D02*Y144121D01*
X418248Y147121D02*X419848Y142921D01*
X421448Y147121D02*X419848Y142921D01*
X424248Y147121D02*X422648Y142921D01*
X424248Y147121D02*X425848Y142921D01*
X423248Y144321D02*X425248D01*
X427048Y147121D02*Y142921D01*
Y147121D02*X428848D01*
X429448Y146921D01*
X429648Y146721D01*
X429848Y146321D01*
Y145921D01*
X429648Y145521D01*
X429448Y145321D01*
X428848Y145121D01*
X427048D02*X428848D01*
X428448D02*X429848Y142921D01*
X195862Y318330D02*X195662Y318730D01*
X195262Y319130D01*
X194862Y319330D01*
X194062D02*X194862D01*
X194062D02*X193662Y319130D01*
X193262Y318730D01*
X193062Y318330D01*
X192862Y317730D01*
Y316730D01*
X193062Y316130D01*
X193262Y315730D01*
X193662Y315330D01*
X194062Y315130D01*
X194862D01*
X195262Y315330D01*
X195662Y315730D01*
X195862Y316130D01*
X198062Y317930D02*X197662Y317730D01*
X197262Y317330D01*
X197062Y316730D01*
Y316330D01*
X197262Y315730D01*
X197662Y315330D01*
X198062Y315130D01*
X198662D01*
X199062Y315330D01*
X199462Y315730D01*
X199662Y316330D01*
Y316730D02*Y316330D01*
Y316730D02*X199462Y317330D01*
X199062Y317730D01*
X198662Y317930D01*
X198062D02*X198662D01*
X200862D02*Y313730D01*
Y317330D02*X201262Y317730D01*
X201662Y317930D01*
X202262D01*
X202662Y317730D01*
X203062Y317330D01*
X203262Y316730D01*
Y316330D01*
X203062Y315730D01*
X202662Y315330D01*
X202262Y315130D01*
X201662D02*X202262D01*
X201662D02*X201262Y315330D01*
X200862Y315730D01*
X204662Y317930D02*X205862Y315130D01*
X207062Y317930D02*X205862Y315130D01*
X205462Y314330D01*
X205062Y313930D01*
X204662Y313730D01*
X204462D02*X204662D01*
X208262Y317930D02*Y315130D01*
Y316730D02*X208462Y317330D01*
X208862Y317730D01*
X209262Y317930D01*
X209862D01*
X211062Y319330D02*X211262Y319130D01*
X211462Y319330D01*
X211262Y319530D01*
X211062Y319330D01*
X211262Y317930D02*Y315130D01*
X215062Y317930D02*Y314730D01*
X214862Y314130D01*
X214662Y313930D01*
X214262Y313730D01*
X213662D02*X214262D01*
X213662D02*X213262Y313930D01*
X215062Y317330D02*X214662Y317730D01*
X214262Y317930D01*
X213662D02*X214262D01*
X213662D02*X213262Y317730D01*
X212862Y317330D01*
X212662Y316730D01*
Y316330D01*
X212862Y315730D01*
X213262Y315330D01*
X213662Y315130D01*
X214262D01*
X214662Y315330D01*
X215062Y315730D01*
X216262Y319330D02*Y315130D01*
Y317130D02*X216862Y317730D01*
X217262Y317930D01*
X217862D01*
X218262Y317730D01*
X218462Y317130D01*
Y315130D01*
X220262Y319330D02*Y315930D01*
X220462Y315330D01*
X220862Y315130D01*
X221262D01*
X219662Y317930D02*X221062D01*
X225062Y320130D02*X224662Y319730D01*
X224262Y319130D01*
X223862Y318330D01*
X223662Y317330D01*
Y316530D01*
X223862Y315530D01*
X224262Y314730D01*
X224662Y314130D01*
X225062Y313730D01*
X229262Y318330D02*X229062Y318730D01*
X228662Y319130D01*
X228262Y319330D01*
X227462D02*X228262D01*
X227462D02*X227062Y319130D01*
X226662Y318730D01*
X226462Y318330D01*
X226262Y317730D01*
Y316730D01*
X226462Y316130D01*
X226662Y315730D01*
X227062Y315330D01*
X227462Y315130D01*
X228262D01*
X228662Y315330D01*
X229062Y315730D01*
X229262Y316130D01*
X230462Y320130D02*X230862Y319730D01*
X231262Y319130D01*
X231662Y318330D01*
X231862Y317330D01*
Y316530D01*
X231662Y315530D01*
X231262Y314730D01*
X230862Y314130D01*
X230462Y313730D01*
X234462Y318530D02*Y318330D01*
Y318530D02*X234662Y318930D01*
X234862Y319130D01*
X235262Y319330D01*
X236062D01*
X236462Y319130D01*
X236662Y318930D01*
X236862Y318530D01*
Y318130D01*
X236662Y317730D01*
X236262Y317130D01*
X234262Y315130D01*
X237062D01*
X239462Y319330D02*X238862Y319130D01*
X238462Y318530D01*
X238262Y317530D01*
Y316930D01*
X238462Y315930D01*
X238862Y315330D01*
X239462Y315130D01*
X239862D01*
X240462Y315330D01*
X240862Y315930D01*
X241062Y316930D01*
Y317530D02*Y316930D01*
Y317530D02*X240862Y318530D01*
X240462Y319130D01*
X239862Y319330D01*
X239462D02*X239862D01*
X242262Y318530D02*X242662Y318730D01*
X243262Y319330D01*
Y315130D01*
X247262Y319330D02*X245262Y315130D01*
X244462Y319330D02*X247262D01*
X249662D02*Y315130D01*
Y319330D02*X251462D01*
X252062Y319130D01*
X252262Y318930D01*
X252462Y318530D01*
Y318130D01*
X252262Y317730D01*
X252062Y317530D01*
X251462Y317330D01*
X249662D02*X251462D01*
X252062Y317130D01*
X252262Y316930D01*
X252462Y316530D01*
Y315930D01*
X252262Y315530D01*
X252062Y315330D01*
X251462Y315130D01*
X249662D02*X251462D01*
X253662Y316730D02*X256062D01*
Y317130D02*Y316730D01*
Y317130D02*X255862Y317530D01*
X255662Y317730D01*
X255262Y317930D01*
X254662D02*X255262D01*
X254662D02*X254262Y317730D01*
X253862Y317330D01*
X253662Y316730D01*
Y316330D01*
X253862Y315730D01*
X254262Y315330D01*
X254662Y315130D01*
X255262D01*
X255662Y315330D01*
X256062Y315730D01*
X257262Y317930D02*Y315130D01*
Y316730D02*X257462Y317330D01*
X257862Y317730D01*
X258262Y317930D01*
X258862D01*
X260662Y319330D02*Y315930D01*
X260862Y315330D01*
X261262Y315130D01*
X261662D01*
X260062Y317930D02*X261462D01*
X265462Y319330D02*Y315130D01*
X264062Y319330D02*X266862D01*
X268062D02*X268262Y319130D01*
X268462Y319330D01*
X268262Y319530D01*
X268062Y319330D01*
X268262Y317930D02*Y315130D01*
X269662Y317930D02*Y315130D01*
Y317130D02*X270262Y317730D01*
X270662Y317930D01*
X271262D01*
X271662Y317730D01*
X271862Y317130D01*
Y315130D01*
Y317130D02*X272462Y317730D01*
X272862Y317930D01*
X273462D01*
X273862Y317730D01*
X274062Y317130D01*
Y315130D01*
X275262Y317930D02*Y315130D01*
Y317130D02*X275862Y317730D01*
X276262Y317930D01*
X276862D01*
X277262Y317730D01*
X277462Y317130D01*
Y315130D01*
Y317130D02*X278062Y317730D01*
X278462Y317930D01*
X279062D01*
X279462Y317730D01*
X279662Y317130D01*
Y315130D01*
X280862Y316730D02*X283262D01*
Y317130D02*Y316730D01*
Y317130D02*X283062Y317530D01*
X282862Y317730D01*
X282462Y317930D01*
X281862D02*X282462D01*
X281862D02*X281462Y317730D01*
X281062Y317330D01*
X280862Y316730D01*
Y316330D01*
X281062Y315730D01*
X281462Y315330D01*
X281862Y315130D01*
X282462D01*
X282862Y315330D01*
X283262Y315730D01*
X284462Y317930D02*Y315130D01*
Y316730D02*X284662Y317330D01*
X285062Y317730D01*
X285462Y317930D01*
X286062D01*
X287262D02*Y315130D01*
Y317130D02*X287862Y317730D01*
X288262Y317930D01*
X288862D01*
X289262Y317730D01*
X289462Y317130D01*
Y315130D01*
Y317130D02*X290062Y317730D01*
X290462Y317930D01*
X291062D01*
X291462Y317730D01*
X291662Y317130D01*
Y315130D01*
X295262Y317930D02*Y315130D01*
Y317330D02*X294862Y317730D01*
X294462Y317930D01*
X293862D02*X294462D01*
X293862D02*X293462Y317730D01*
X293062Y317330D01*
X292862Y316730D01*
Y316330D01*
X293062Y315730D01*
X293462Y315330D01*
X293862Y315130D01*
X294462D01*
X294862Y315330D01*
X295262Y315730D01*
X296462Y317930D02*Y315130D01*
Y317130D02*X297062Y317730D01*
X297462Y317930D01*
X298062D01*
X298462Y317730D01*
X298662Y317130D01*
Y315130D01*
X194062Y328799D02*X193462Y328599D01*
X193062Y327999D01*
X192862Y326999D01*
Y326399D01*
X193062Y325399D01*
X193462Y324799D01*
X194062Y324599D01*
X194462D01*
X195062Y324799D01*
X195462Y325399D01*
X195662Y326399D01*
Y326999D02*Y326399D01*
Y326999D02*X195462Y327999D01*
X195062Y328599D01*
X194462Y328799D01*
X194062D02*X194462D01*
X196862Y327999D02*X197262Y328199D01*
X197862Y328799D01*
Y324599D01*
X199262Y324999D02*X199062Y324799D01*
X199262Y324599D01*
X199462Y324799D01*
X199262Y324999D01*
X201862Y328799D02*X201262Y328599D01*
X200862Y327999D01*
X200662Y326999D01*
Y326399D01*
X200862Y325399D01*
X201262Y324799D01*
X201862Y324599D01*
X202262D01*
X202862Y324799D01*
X203262Y325399D01*
X203462Y326399D01*
Y326999D02*Y326399D01*
Y326999D02*X203262Y327999D01*
X202862Y328599D01*
X202262Y328799D01*
X201862D02*X202262D01*
X205862D02*X205262Y328599D01*
X204862Y327999D01*
X204662Y326999D01*
Y326399D01*
X204862Y325399D01*
X205262Y324799D01*
X205862Y324599D01*
X206262D01*
X206862Y324799D01*
X207262Y325399D01*
X207462Y326399D01*
Y326999D02*Y326399D01*
Y326999D02*X207262Y327999D01*
X206862Y328599D01*
X206262Y328799D01*
X205862D02*X206262D01*
X209062D02*X211262D01*
X210062Y327199D01*
X210662D01*
X211062Y326999D01*
X211262Y326799D01*
X211462Y326199D01*
Y325799D01*
X211262Y325199D01*
X210862Y324799D01*
X210262Y324599D01*
X209662D02*X210262D01*
X209662D02*X209062Y324799D01*
X208862Y324999D01*
X208662Y325399D01*
X212862Y324999D02*X212662Y324799D01*
X212862Y324599D01*
X213062Y324799D01*
X212862Y324999D01*
X215462Y328799D02*X214862Y328599D01*
X214462Y327999D01*
X214262Y326999D01*
Y326399D01*
X214462Y325399D01*
X214862Y324799D01*
X215462Y324599D01*
X215862D01*
X216462Y324799D01*
X216862Y325399D01*
X217062Y326399D01*
Y326999D02*Y326399D01*
Y326999D02*X216862Y327999D01*
X216462Y328599D01*
X215862Y328799D01*
X215462D02*X215862D01*
X219462D02*X218862Y328599D01*
X218462Y327999D01*
X218262Y326999D01*
Y326399D01*
X218462Y325399D01*
X218862Y324799D01*
X219462Y324599D01*
X219862D01*
X220462Y324799D01*
X220862Y325399D01*
X221062Y326399D01*
Y326999D02*Y326399D01*
Y326999D02*X220862Y327999D01*
X220462Y328599D01*
X219862Y328799D01*
X219462D02*X219862D01*
X222462Y324999D02*X222262Y324799D01*
X222462Y324599D01*
X222662Y324799D01*
X222462Y324999D01*
X225062Y328799D02*X224462Y328599D01*
X224062Y327999D01*
X223862Y326999D01*
Y326399D01*
X224062Y325399D01*
X224462Y324799D01*
X225062Y324599D01*
X225462D01*
X226062Y324799D01*
X226462Y325399D01*
X226662Y326399D01*
Y326999D02*Y326399D01*
Y326999D02*X226462Y327999D01*
X226062Y328599D01*
X225462Y328799D01*
X225062D02*X225462D01*
X227862Y327999D02*X228262Y328199D01*
X228862Y328799D01*
Y324599D01*
X230262Y324999D02*X230062Y324799D01*
X230262Y324599D01*
X230462Y324799D01*
X230262Y324999D01*
X232862Y328799D02*X232262Y328599D01*
X231862Y327999D01*
X231662Y326999D01*
Y326399D01*
X231862Y325399D01*
X232262Y324799D01*
X232862Y324599D01*
X233262D01*
X233862Y324799D01*
X234262Y325399D01*
X234462Y326399D01*
Y326999D02*Y326399D01*
Y326999D02*X234262Y327999D01*
X233862Y328599D01*
X233262Y328799D01*
X232862D02*X233262D01*
X235662Y327999D02*X236062Y328199D01*
X236662Y328799D01*
Y324599D01*
X192862Y338767D02*Y334567D01*
Y338767D02*X195462D01*
X192862Y336767D02*X194462D01*
X192862Y334567D02*X195462D01*
X196662Y337367D02*X198862Y334567D01*
Y337367D02*X196662Y334567D01*
X200662Y338767D02*Y335367D01*
X200862Y334767D01*
X201262Y334567D01*
X201662D01*
X200062Y337367D02*X201462D01*
X202862Y336167D02*X205262D01*
Y336567D02*Y336167D01*
Y336567D02*X205062Y336967D01*
X204862Y337167D01*
X204462Y337367D01*
X203862D02*X204462D01*
X203862D02*X203462Y337167D01*
X203062Y336767D01*
X202862Y336167D01*
Y335767D01*
X203062Y335167D01*
X203462Y334767D01*
X203862Y334567D01*
X204462D01*
X204862Y334767D01*
X205262Y335167D01*
X206462Y337367D02*Y334567D01*
Y336567D02*X207062Y337167D01*
X207462Y337367D01*
X208062D01*
X208462Y337167D01*
X208662Y336567D01*
Y334567D01*
X212262Y338767D02*Y334567D01*
Y336767D02*X211862Y337167D01*
X211462Y337367D01*
X210862D02*X211462D01*
X210862D02*X210462Y337167D01*
X210062Y336767D01*
X209862Y336167D01*
Y335767D01*
X210062Y335167D01*
X210462Y334767D01*
X210862Y334567D01*
X211462D01*
X211862Y334767D01*
X212262Y335167D01*
X213462Y336167D02*X215862D01*
Y336567D02*Y336167D01*
Y336567D02*X215662Y336967D01*
X215462Y337167D01*
X215062Y337367D01*
X214462D02*X215062D01*
X214462D02*X214062Y337167D01*
X213662Y336767D01*
X213462Y336167D01*
Y335767D01*
X213662Y335167D01*
X214062Y334767D01*
X214462Y334567D01*
X215062D01*
X215462Y334767D01*
X215862Y335167D01*
X217062Y337367D02*Y334567D01*
Y336167D02*X217262Y336767D01*
X217662Y337167D01*
X218062Y337367D01*
X218662D01*
X136551Y324335D02*X136151Y324135D01*
X135751Y323735D01*
X135551Y323135D01*
Y322735D01*
X135751Y322135D01*
X136151Y321735D01*
X136551Y321535D01*
X137151D01*
X137551Y321735D01*
X137951Y322135D01*
X138151Y322735D01*
Y323135D02*Y322735D01*
Y323135D02*X137951Y323735D01*
X137551Y324135D01*
X137151Y324335D01*
X136551D02*X137151D01*
X139351D02*Y320135D01*
Y323735D02*X139751Y324135D01*
X140151Y324335D01*
X140751D01*
X141151Y324135D01*
X141551Y323735D01*
X141751Y323135D01*
Y322735D01*
X141551Y322135D01*
X141151Y321735D01*
X140751Y321535D01*
X140151D02*X140751D01*
X140151D02*X139751Y321735D01*
X139351Y322135D01*
X142951Y323135D02*X145351D01*
Y323535D02*Y323135D01*
Y323535D02*X145151Y323935D01*
X144951Y324135D01*
X144551Y324335D01*
X143951D02*X144551D01*
X143951D02*X143551Y324135D01*
X143151Y323735D01*
X142951Y323135D01*
Y322735D01*
X143151Y322135D01*
X143551Y321735D01*
X143951Y321535D01*
X144551D01*
X144951Y321735D01*
X145351Y322135D01*
X146551Y324335D02*Y321535D01*
Y323535D02*X147151Y324135D01*
X147551Y324335D01*
X148151D01*
X148551Y324135D01*
X148751Y323535D01*
Y321535D01*
X153351Y323735D02*X153151Y324135D01*
X152551Y324335D01*
X151951D02*X152551D01*
X151951D02*X151351Y324135D01*
X151151Y323735D01*
X151351Y323335D01*
X151751Y323135D01*
X152751Y322935D01*
X153151Y322735D01*
X153351Y322335D01*
Y322135D01*
X153151Y321735D01*
X152551Y321535D01*
X151951D02*X152551D01*
X151951D02*X151351Y321735D01*
X151151Y322135D01*
X155551Y324335D02*X155151Y324135D01*
X154751Y323735D01*
X154551Y323135D01*
Y322735D01*
X154751Y322135D01*
X155151Y321735D01*
X155551Y321535D01*
X156151D01*
X156551Y321735D01*
X156951Y322135D01*
X157151Y322735D01*
Y323135D02*Y322735D01*
Y323135D02*X156951Y323735D01*
X156551Y324135D01*
X156151Y324335D01*
X155551D02*X156151D01*
X158351D02*Y322335D01*
X158551Y321735D01*
X158951Y321535D01*
X159551D01*
X159951Y321735D01*
X160551Y322335D01*
Y324335D02*Y321535D01*
X161751Y324335D02*Y321535D01*
Y323135D02*X161951Y323735D01*
X162351Y324135D01*
X162751Y324335D01*
X163351D01*
X166951Y323735D02*X166551Y324135D01*
X166151Y324335D01*
X165551D02*X166151D01*
X165551D02*X165151Y324135D01*
X164751Y323735D01*
X164551Y323135D01*
Y322735D01*
X164751Y322135D01*
X165151Y321735D01*
X165551Y321535D01*
X166151D01*
X166551Y321735D01*
X166951Y322135D01*
X168151Y323135D02*X170551D01*
Y323535D02*Y323135D01*
Y323535D02*X170351Y323935D01*
X170151Y324135D01*
X169751Y324335D01*
X169151D02*X169751D01*
X169151D02*X168751Y324135D01*
X168351Y323735D01*
X168151Y323135D01*
Y322735D01*
X168351Y322135D01*
X168751Y321735D01*
X169151Y321535D01*
X169751D01*
X170151Y321735D01*
X170551Y322135D01*
X140551Y316235D02*Y312035D01*
Y314035D02*X141151Y314635D01*
X141551Y314835D01*
X142151D01*
X142551Y314635D01*
X142751Y314035D01*
Y312035D01*
X146351Y314835D02*Y312035D01*
Y314235D02*X145951Y314635D01*
X145551Y314835D01*
X144951D02*X145551D01*
X144951D02*X144551Y314635D01*
X144151Y314235D01*
X143951Y313635D01*
Y313235D01*
X144151Y312635D01*
X144551Y312235D01*
X144951Y312035D01*
X145551D01*
X145951Y312235D01*
X146351Y312635D01*
X147551Y314835D02*Y312035D01*
Y313635D02*X147751Y314235D01*
X148151Y314635D01*
X148551Y314835D01*
X149151D01*
X152751Y316235D02*Y312035D01*
Y314235D02*X152351Y314635D01*
X151951Y314835D01*
X151351D02*X151951D01*
X151351D02*X150951Y314635D01*
X150551Y314235D01*
X150351Y313635D01*
Y313235D01*
X150551Y312635D01*
X150951Y312235D01*
X151351Y312035D01*
X151951D01*
X152351Y312235D01*
X152751Y312635D01*
X153951Y314835D02*X154751Y312035D01*
X155551Y314835D02*X154751Y312035D01*
X155551Y314835D02*X156351Y312035D01*
X157151Y314835D02*X156351Y312035D01*
X160751Y314835D02*Y312035D01*
Y314235D02*X160351Y314635D01*
X159951Y314835D01*
X159351D02*X159951D01*
X159351D02*X158951Y314635D01*
X158551Y314235D01*
X158351Y313635D01*
Y313235D01*
X158551Y312635D01*
X158951Y312235D01*
X159351Y312035D01*
X159951D01*
X160351Y312235D01*
X160751Y312635D01*
X161951Y314835D02*Y312035D01*
Y313635D02*X162151Y314235D01*
X162551Y314635D01*
X162951Y314835D01*
X163551D01*
X164751Y313635D02*X167151D01*
Y314035D02*Y313635D01*
Y314035D02*X166951Y314435D01*
X166751Y314635D01*
X166351Y314835D01*
X165751D02*X166351D01*
X165751D02*X165351Y314635D01*
X164951Y314235D01*
X164751Y313635D01*
Y313235D01*
X164951Y312635D01*
X165351Y312235D01*
X165751Y312035D01*
X166351D01*
X166751Y312235D01*
X167151Y312635D01*
G54D70*X283465Y56213D02*G75*G03X283465Y56213I0J-7000D01*G01*
G54D69*Y54213D02*G75*G03X283465Y54213I0J-5000D01*G01*
G54D70*X248544Y120268D02*X350944D01*
X248544Y96268D02*X350944D01*
X248544Y120268D02*Y96268D01*
X350944Y120268D02*Y96268D01*
G54D69*X279744Y115968D02*X319744D01*
X279744Y100568D02*X319744D01*
X279744Y115968D02*Y100568D01*
X319744Y115968D02*Y100568D01*
X259444Y108268D02*X340044D01*
X385000Y150571D02*Y160571D01*
X405000Y150571D02*X385000D01*
X405000Y160571D02*Y150571D01*
X385000Y160571D02*X405000D01*
X385000Y130571D02*Y140571D01*
X405000Y130571D02*X385000D01*
X405000Y140571D02*Y130571D01*
X385000Y140571D02*X405000D01*
X385000D02*Y150571D01*
X405000Y140571D02*X385000D01*
X405000Y150571D02*Y140571D01*
X385000Y150571D02*X405000D01*
X385000Y120571D02*Y130571D01*
X405000Y120571D02*X385000D01*
X405000Y130571D02*Y120571D01*
X385000Y130571D02*X405000D01*
X385000Y110571D02*Y120571D01*
X405000Y110571D02*X385000D01*
X405000Y120571D02*Y110571D01*
X385000Y120571D02*X405000D01*
X385000Y73071D02*Y83071D01*
X405000Y73071D02*X385000D01*
X405000Y83071D02*Y73071D01*
X385000Y83071D02*X405000D01*
X385000D02*Y93071D01*
X405000Y83071D02*X385000D01*
X405000Y93071D02*Y83071D01*
X385000Y93071D02*X405000D01*
X385000Y63071D02*Y73071D01*
X405000Y63071D02*X385000D01*
X405000Y73071D02*Y63071D01*
X385000Y73071D02*X405000D01*
G54D70*X448800Y110071D02*X551200D01*
X448800Y86071D02*X551200D01*
X448800Y110071D02*Y86071D01*
X551200Y110071D02*Y86071D01*
G54D69*X480000Y105771D02*X520000D01*
X480000Y90371D02*X520000D01*
X480000Y105771D02*Y90371D01*
X520000Y105771D02*Y90371D01*
X459700Y98071D02*X540300D01*
X59961Y371536D02*X69961D01*
X59961Y361536D02*X69961D01*
X59961Y371536D02*Y61536D01*
X69961Y371536D02*Y61536D01*
X59961D02*X69961D01*
X385000Y350571D02*Y360571D01*
X405000Y350571D02*X385000D01*
X405000Y360571D02*Y350571D01*
X385000Y360571D02*X405000D01*
X385000Y330571D02*Y340571D01*
X405000Y330571D02*X385000D01*
X405000Y340571D02*Y330571D01*
X385000Y340571D02*X405000D01*
X385000Y360571D02*Y370571D01*
X405000Y360571D02*X385000D01*
X405000Y370571D02*Y360571D01*
X385000Y370571D02*X405000D01*
X385000Y340571D02*Y350571D01*
X405000Y340571D02*X385000D01*
X405000Y350571D02*Y340571D01*
X385000Y350571D02*X405000D01*
X385000Y250571D02*Y260571D01*
X405000Y250571D02*X385000D01*
X405000Y260571D02*Y250571D01*
X385000Y260571D02*X405000D01*
X385000D02*Y270571D01*
X405000Y260571D02*X385000D01*
X405000Y270571D02*Y260571D01*
X385000Y270571D02*X405000D01*
X385000Y240571D02*Y250571D01*
X405000Y240571D02*X385000D01*
X405000Y250571D02*Y240571D01*
X385000Y250571D02*X405000D01*
X385000Y230571D02*Y240571D01*
X405000Y230571D02*X385000D01*
X405000Y240571D02*Y230571D01*
X385000Y240571D02*X405000D01*
X385000Y220571D02*Y230571D01*
X405000Y220571D02*X385000D01*
X405000Y230571D02*Y220571D01*
X385000Y230571D02*X405000D01*
X385000Y210571D02*Y220571D01*
X405000Y210571D02*X385000D01*
X405000Y220571D02*Y210571D01*
X385000Y220571D02*X405000D01*
X385000Y190571D02*Y200571D01*
X405000Y190571D02*X385000D01*
X405000Y200571D02*Y190571D01*
X385000Y200571D02*X405000D01*
X385000Y170571D02*Y180571D01*
X405000Y170571D02*X385000D01*
X405000Y180571D02*Y170571D01*
X385000Y180571D02*X405000D01*
X385000Y200571D02*Y210571D01*
X405000Y200571D02*X385000D01*
X405000Y210571D02*Y200571D01*
X385000Y210571D02*X405000D01*
X385000Y180571D02*Y190571D01*
X405000Y180571D02*X385000D01*
X405000Y190571D02*Y180571D01*
X385000Y190571D02*X405000D01*
X385000Y160571D02*Y170571D01*
X405000Y160571D02*X385000D01*
X405000Y170571D02*Y160571D01*
X385000Y170571D02*X405000D01*
X385000Y310571D02*Y320571D01*
X405000Y310571D02*X385000D01*
X405000Y320571D02*Y310571D01*
X385000Y320571D02*X405000D01*
X385000Y290571D02*Y300571D01*
X405000Y290571D02*X385000D01*
X405000Y300571D02*Y290571D01*
X385000Y300571D02*X405000D01*
X385000Y270571D02*Y280571D01*
X405000Y270571D02*X385000D01*
X405000Y280571D02*Y270571D01*
X385000Y280571D02*X405000D01*
X385000Y300571D02*Y310571D01*
X405000Y300571D02*X385000D01*
X405000Y310571D02*Y300571D01*
X385000Y310571D02*X405000D01*
X385000Y280571D02*Y290571D01*
X405000Y280571D02*X385000D01*
X405000Y290571D02*Y280571D01*
X385000Y290571D02*X405000D01*
X385000Y320571D02*Y330571D01*
X405000Y320571D02*X385000D01*
X405000Y330571D02*Y320571D01*
X385000Y330571D02*X405000D01*
X649605Y394883D02*Y38190D01*
X636613Y372836D02*Y60237D01*
X612991Y334647D02*X636613D01*
X622833Y364174D02*X636613D01*
X612991Y236221D02*X636612D01*
X622833Y285434D02*X636613D01*
X612991Y275591D02*X636612D01*
Y236221D02*X636613Y236222D01*
X636612Y275591D02*X636613Y275592D01*
X622833Y265749D02*X636613D01*
X636612Y255906D02*X636613Y255907D01*
X612991Y255906D02*X636612D01*
Y314961D02*X636613Y314962D01*
X622833Y305119D02*X636613D01*
X636612Y295276D02*X636613Y295277D01*
X612991Y295276D02*X636612D01*
X622833Y246064D02*X636613D01*
X622833Y206694D02*X636613D01*
X612991Y216537D02*X636613D01*
X622833Y226379D02*X636613D01*
X612991Y177167D02*X636613D01*
X622833Y187009D02*X636613D01*
X612991Y196852D02*X636613D01*
X622833Y147639D02*X636613D01*
X612991Y157481D02*X636613D01*
X622833Y167324D02*X636613D01*
X612991Y118111D02*X636613D01*
X622833Y127954D02*X636613D01*
X612991Y137796D02*X636613D01*
X622833Y88584D02*X636613D01*
X612991Y98426D02*X636613D01*
X612991Y354332D02*X636613D01*
X622833Y344489D02*X636613D01*
X622833Y324804D02*X636613D01*
X612991Y314961D02*X636612D01*
X622833Y108269D02*X636219D01*
X636613Y107875D01*
X612991Y78741D02*X636613D01*
X622833Y68899D02*X636613D01*
X617715Y394883D02*X649605D01*
X617715D02*Y372836D01*
X649605D01*
X617715Y38190D02*X649605D01*
X617715Y60237D02*Y38190D01*
Y60237D02*X649605D01*
X11812Y424396D02*Y420196D01*
Y424396D02*X13612D01*
X14212Y424196D01*
X14412Y423996D01*
X14612Y423596D01*
Y423196D01*
X14412Y422796D01*
X14212Y422596D01*
X13612Y422396D01*
X11812D02*X13612D01*
X14212Y422196D01*
X14412Y421996D01*
X14612Y421596D01*
Y420996D01*
X14412Y420596D01*
X14212Y420396D01*
X13612Y420196D01*
X11812D02*X13612D01*
X116610Y421501D02*Y417301D01*
Y420901D02*X117010Y421301D01*
X117410Y421501D01*
X118010D01*
X118410Y421301D01*
X118810Y420901D01*
X119010Y420301D01*
Y419901D01*
X118810Y419301D01*
X118410Y418901D01*
X118010Y418701D01*
X117410D02*X118010D01*
X117410D02*X117010Y418901D01*
X116610Y419301D01*
X120410Y422101D02*Y421901D01*
Y422101D02*X120610Y422501D01*
X120810Y422701D01*
X121210Y422901D01*
X122010D01*
X122410Y422701D01*
X122610Y422501D01*
X122810Y422101D01*
Y421701D01*
X122610Y421301D01*
X122210Y420701D01*
X120210Y418701D01*
X123010D01*
X342152Y422428D02*X340552Y418228D01*
X342152Y422428D02*X343752Y418228D01*
X341152Y419628D02*X343152D01*
X192850Y421501D02*Y417301D01*
Y420901D02*X193250Y421301D01*
X193650Y421501D01*
X194250D01*
X194650Y421301D01*
X195050Y420901D01*
X195250Y420301D01*
Y419901D01*
X195050Y419301D01*
X194650Y418901D01*
X194250Y418701D01*
X193650D02*X194250D01*
X193650D02*X193250Y418901D01*
X192850Y419301D01*
X196450Y422101D02*X196850Y422301D01*
X197450Y422901D01*
Y418701D01*
X52339Y356606D02*X55539D01*
X56139Y356406D01*
X56339Y356206D01*
X56539Y355806D01*
Y355406D01*
X56339Y355006D01*
X56139Y354806D01*
X55539Y354606D01*
X55139D02*X55539D01*
X52339Y360406D02*Y358206D01*
Y360406D02*X53939Y359206D01*
Y359806D02*Y359206D01*
Y359806D02*X54139Y360206D01*
X54339Y360406D01*
X54939Y360606D01*
X55339D01*
X55939Y360406D01*
X56339Y360006D01*
X56539Y359406D01*
Y358806D01*
X56339Y358206D01*
X56139Y358006D01*
X55739Y357806D01*
X52339Y363006D02*X52539Y362406D01*
X53139Y362006D01*
X54139Y361806D01*
X54739D01*
X55739Y362006D01*
X56339Y362406D01*
X56539Y363006D01*
Y363406D02*Y363006D01*
Y363406D02*X56339Y364006D01*
X55739Y364406D01*
X54739Y364606D01*
X54139D02*X54739D01*
X54139D02*X53139Y364406D01*
X52539Y364006D01*
X52339Y363406D01*
Y363006D01*
Y367006D02*X52539Y366406D01*
X53139Y366006D01*
X54139Y365806D01*
X54739D01*
X55739Y366006D01*
X56339Y366406D01*
X56539Y367006D01*
Y367406D02*Y367006D01*
Y367406D02*X56339Y368006D01*
X55739Y368406D01*
X54739Y368606D01*
X54139D02*X54739D01*
X54139D02*X53139Y368406D01*
X52539Y368006D01*
X52339Y367406D01*
Y367006D01*
X607298Y376378D02*X611498D01*
X607298Y378178D02*Y376378D01*
Y378178D02*X607498Y378778D01*
X607698Y378978D01*
X608098Y379178D01*
X608698D01*
X609098Y378978D01*
X609298Y378778D01*
X609498Y378178D01*
Y376378D01*
X607298Y382978D02*Y380778D01*
Y382978D02*X608898Y381778D01*
Y382378D02*Y381778D01*
Y382378D02*X609098Y382778D01*
X609298Y382978D01*
X609898Y383178D01*
X610298D01*
X610898Y382978D01*
X611298Y382578D01*
X611498Y381978D01*
Y381378D01*
X611298Y380778D01*
X611098Y380578D01*
X610698Y380378D01*
X607298Y385578D02*X607498Y384978D01*
X608098Y384578D01*
X609098Y384378D01*
X609698D01*
X610698Y384578D01*
X611298Y384978D01*
X611498Y385578D01*
Y385978D02*Y385578D01*
Y385978D02*X611298Y386578D01*
X610698Y386978D01*
X609698Y387178D01*
X609098D02*X609698D01*
X609098D02*X608098Y386978D01*
X607498Y386578D01*
X607298Y385978D01*
Y385578D01*
X608098Y388378D02*X607898Y388778D01*
X607298Y389378D01*
X611498D01*
X12843Y10011D02*X12643Y10411D01*
X12243Y10811D01*
X11843Y11011D01*
X11043D02*X11843D01*
X11043D02*X10643Y10811D01*
X10243Y10411D01*
X10043Y10011D01*
X9843Y9411D01*
Y8411D01*
X10043Y7811D01*
X10243Y7411D01*
X10643Y7011D01*
X11043Y6811D01*
X11843D01*
X12243Y7011D01*
X12643Y7411D01*
X12843Y7811D01*
X357332Y51351D02*X357132Y51751D01*
X356732Y52151D01*
X356332Y52351D01*
X355532D02*X356332D01*
X355532D02*X355132Y52151D01*
X354732Y51751D01*
X354532Y51351D01*
X354332Y50751D01*
Y49751D01*
X354532Y49151D01*
X354732Y48751D01*
X355132Y48351D01*
X355532Y48151D01*
X356332D01*
X356732Y48351D01*
X357132Y48751D01*
X357332Y49151D01*
Y49751D02*Y49151D01*
X356332Y49751D02*X357332D01*
X358532Y52351D02*Y48151D01*
Y52351D02*X361332Y48151D01*
Y52351D02*Y48151D01*
X362532Y52351D02*Y48151D01*
Y52351D02*X363932D01*
X364532Y52151D01*
X364932Y51751D01*
X365132Y51351D01*
X365332Y50751D01*
Y49751D01*
X365132Y49151D01*
X364932Y48751D01*
X364532Y48351D01*
X363932Y48151D01*
X362532D02*X363932D01*
X275865Y65913D02*Y61713D01*
X274465Y65913D02*X277265D01*
X278465D02*Y61713D01*
Y65913D02*X280265D01*
X280865Y65713D01*
X281065Y65513D01*
X281265Y65113D01*
Y64513D01*
X281065Y64113D01*
X280865Y63913D01*
X280265Y63713D01*
X278465D02*X280265D01*
X282865Y65913D02*X285065D01*
X283865Y64313D01*
X284465D01*
X284865Y64113D01*
X285065Y63913D01*
X285265Y63313D01*
Y62913D01*
X285065Y62313D01*
X284665Y61913D01*
X284065Y61713D01*
X283465D02*X284065D01*
X283465D02*X282865Y61913D01*
X282665Y62113D01*
X282465Y62513D01*
X287665Y65913D02*X287065Y65713D01*
X286665Y65113D01*
X286465Y64113D01*
Y63513D01*
X286665Y62513D01*
X287065Y61913D01*
X287665Y61713D01*
X288065D01*
X288665Y61913D01*
X289065Y62513D01*
X289265Y63513D01*
Y64113D02*Y63513D01*
Y64113D02*X289065Y65113D01*
X288665Y65713D01*
X288065Y65913D01*
X287665D02*X288065D01*
X290465Y65113D02*X290865Y65313D01*
X291465Y65913D01*
Y61713D01*
X116610Y12170D02*Y7970D01*
Y11570D02*X117010Y11970D01*
X117410Y12170D01*
X118010D01*
X118410Y11970D01*
X118810Y11570D01*
X119010Y10970D01*
Y10570D01*
X118810Y9970D01*
X118410Y9570D01*
X118010Y9370D01*
X117410D02*X118010D01*
X117410D02*X117010Y9570D01*
X116610Y9970D01*
X120610Y13570D02*X122810D01*
X121610Y11970D01*
X122210D01*
X122610Y11770D01*
X122810Y11570D01*
X123010Y10970D01*
Y10570D01*
X122810Y9970D01*
X122410Y9570D01*
X121810Y9370D01*
X121210D02*X121810D01*
X121210D02*X120610Y9570D01*
X120410Y9770D01*
X120210Y10170D01*
X195350Y12170D02*Y7970D01*
Y11570D02*X195750Y11970D01*
X196150Y12170D01*
X196750D01*
X197150Y11970D01*
X197550Y11570D01*
X197750Y10970D01*
Y10570D01*
X197550Y9970D01*
X197150Y9570D01*
X196750Y9370D01*
X196150D02*X196750D01*
X196150D02*X195750Y9570D01*
X195350Y9970D01*
X200950Y13570D02*X198950Y10770D01*
X201950D01*
X200950Y13570D02*Y9370D01*
X371409Y176739D02*Y173539D01*
X371209Y172939D01*
X371009Y172739D01*
X370609Y172539D01*
X370209D02*X370609D01*
X370209D02*X369809Y172739D01*
X369609Y172939D01*
X369409Y173539D01*
Y173939D02*Y173539D01*
X373009Y176739D02*X375209D01*
X374009Y175139D01*
X374609D01*
X375009Y174939D01*
X375209Y174739D01*
X375409Y174139D01*
Y173739D01*
X375209Y173139D01*
X374809Y172739D01*
X374209Y172539D01*
X373609D02*X374209D01*
X373609D02*X373009Y172739D01*
X372809Y172939D01*
X372609Y173339D01*
X376809Y175939D02*Y175739D01*
Y175939D02*X377009Y176339D01*
X377209Y176539D01*
X377609Y176739D01*
X378409D01*
X378809Y176539D01*
X379009Y176339D01*
X379209Y175939D01*
Y175539D01*
X379009Y175139D01*
X378609Y174539D01*
X376609Y172539D01*
X379409D01*
X381809Y176739D02*X381209Y176539D01*
X380809Y175939D01*
X380609Y174939D01*
Y174339D01*
X380809Y173339D01*
X381209Y172739D01*
X381809Y172539D01*
X382209D01*
X382809Y172739D01*
X383209Y173339D01*
X383409Y174339D01*
Y174939D02*Y174339D01*
Y174939D02*X383209Y175939D01*
X382809Y176539D01*
X382209Y176739D01*
X381809D02*X382209D01*
X371409Y156739D02*Y153539D01*
X371209Y152939D01*
X371009Y152739D01*
X370609Y152539D01*
X370209D02*X370609D01*
X370209D02*X369809Y152739D01*
X369609Y152939D01*
X369409Y153539D01*
Y153939D02*Y153539D01*
X373009Y156739D02*X375209D01*
X374009Y155139D01*
X374609D01*
X375009Y154939D01*
X375209Y154739D01*
X375409Y154139D01*
Y153739D01*
X375209Y153139D01*
X374809Y152739D01*
X374209Y152539D01*
X373609D02*X374209D01*
X373609D02*X373009Y152739D01*
X372809Y152939D01*
X372609Y153339D01*
X376809Y155939D02*Y155739D01*
Y155939D02*X377009Y156339D01*
X377209Y156539D01*
X377609Y156739D01*
X378409D01*
X378809Y156539D01*
X379009Y156339D01*
X379209Y155939D01*
Y155539D01*
X379009Y155139D01*
X378609Y154539D01*
X376609Y152539D01*
X379409D01*
X380809Y155939D02*Y155739D01*
Y155939D02*X381009Y156339D01*
X381209Y156539D01*
X381609Y156739D01*
X382409D01*
X382809Y156539D01*
X383009Y156339D01*
X383209Y155939D01*
Y155539D01*
X383009Y155139D01*
X382609Y154539D01*
X380609Y152539D01*
X383409D01*
X371409Y166739D02*Y163539D01*
X371209Y162939D01*
X371009Y162739D01*
X370609Y162539D01*
X370209D02*X370609D01*
X370209D02*X369809Y162739D01*
X369609Y162939D01*
X369409Y163539D01*
Y163939D02*Y163539D01*
X373009Y166739D02*X375209D01*
X374009Y165139D01*
X374609D01*
X375009Y164939D01*
X375209Y164739D01*
X375409Y164139D01*
Y163739D01*
X375209Y163139D01*
X374809Y162739D01*
X374209Y162539D01*
X373609D02*X374209D01*
X373609D02*X373009Y162739D01*
X372809Y162939D01*
X372609Y163339D01*
X376809Y165939D02*Y165739D01*
Y165939D02*X377009Y166339D01*
X377209Y166539D01*
X377609Y166739D01*
X378409D01*
X378809Y166539D01*
X379009Y166339D01*
X379209Y165939D01*
Y165539D01*
X379009Y165139D01*
X378609Y164539D01*
X376609Y162539D01*
X379409D01*
X380609Y165939D02*X381009Y166139D01*
X381609Y166739D01*
Y162539D01*
X251221Y129259D02*Y125059D01*
Y129259D02*X253821D01*
X251221Y127259D02*X252821D01*
X255421Y129259D02*X257621D01*
X256421Y127659D01*
X257021D01*
X257421Y127459D01*
X257621Y127259D01*
X257821Y126659D01*
Y126259D01*
X257621Y125659D01*
X257221Y125259D01*
X256621Y125059D01*
X256021D02*X256621D01*
X256021D02*X255421Y125259D01*
X255221Y125459D01*
X255021Y125859D01*
X259221Y128459D02*Y128259D01*
Y128459D02*X259421Y128859D01*
X259621Y129059D01*
X260021Y129259D01*
X260821D01*
X261221Y129059D01*
X261421Y128859D01*
X261621Y128459D01*
Y128059D01*
X261421Y127659D01*
X261021Y127059D01*
X259021Y125059D01*
X261821D01*
X265821Y129259D02*X263821Y125059D01*
X263021Y129259D02*X265821D01*
X371409Y79239D02*Y76039D01*
X371209Y75439D01*
X371009Y75239D01*
X370609Y75039D01*
X370209D02*X370609D01*
X370209D02*X369809Y75239D01*
X369609Y75439D01*
X369409Y76039D01*
Y76439D02*Y76039D01*
X373009Y79239D02*X375209D01*
X374009Y77639D01*
X374609D01*
X375009Y77439D01*
X375209Y77239D01*
X375409Y76639D01*
Y76239D01*
X375209Y75639D01*
X374809Y75239D01*
X374209Y75039D01*
X373609D02*X374209D01*
X373609D02*X373009Y75239D01*
X372809Y75439D01*
X372609Y75839D01*
X377009Y79239D02*X379209D01*
X378009Y77639D01*
X378609D01*
X379009Y77439D01*
X379209Y77239D01*
X379409Y76639D01*
Y76239D01*
X379209Y75639D01*
X378809Y75239D01*
X378209Y75039D01*
X377609D02*X378209D01*
X377609D02*X377009Y75239D01*
X376809Y75439D01*
X376609Y75839D01*
X381809Y79239D02*X381209Y79039D01*
X380809Y78439D01*
X380609Y77439D01*
Y76839D01*
X380809Y75839D01*
X381209Y75239D01*
X381809Y75039D01*
X382209D01*
X382809Y75239D01*
X383209Y75839D01*
X383409Y76839D01*
Y77439D02*Y76839D01*
Y77439D02*X383209Y78439D01*
X382809Y79039D01*
X382209Y79239D01*
X381809D02*X382209D01*
X371409Y69239D02*Y66039D01*
X371209Y65439D01*
X371009Y65239D01*
X370609Y65039D01*
X370209D02*X370609D01*
X370209D02*X369809Y65239D01*
X369609Y65439D01*
X369409Y66039D01*
Y66439D02*Y66039D01*
X373009Y69239D02*X375209D01*
X374009Y67639D01*
X374609D01*
X375009Y67439D01*
X375209Y67239D01*
X375409Y66639D01*
Y66239D01*
X375209Y65639D01*
X374809Y65239D01*
X374209Y65039D01*
X373609D02*X374209D01*
X373609D02*X373009Y65239D01*
X372809Y65439D01*
X372609Y65839D01*
X377009Y69239D02*X379209D01*
X378009Y67639D01*
X378609D01*
X379009Y67439D01*
X379209Y67239D01*
X379409Y66639D01*
Y66239D01*
X379209Y65639D01*
X378809Y65239D01*
X378209Y65039D01*
X377609D02*X378209D01*
X377609D02*X377009Y65239D01*
X376809Y65439D01*
X376609Y65839D01*
X380609Y68439D02*X381009Y68639D01*
X381609Y69239D01*
Y65039D01*
X371409Y136739D02*Y133539D01*
X371209Y132939D01*
X371009Y132739D01*
X370609Y132539D01*
X370209D02*X370609D01*
X370209D02*X369809Y132739D01*
X369609Y132939D01*
X369409Y133539D01*
Y133939D02*Y133539D01*
X373009Y136739D02*X375209D01*
X374009Y135139D01*
X374609D01*
X375009Y134939D01*
X375209Y134739D01*
X375409Y134139D01*
Y133739D01*
X375209Y133139D01*
X374809Y132739D01*
X374209Y132539D01*
X373609D02*X374209D01*
X373609D02*X373009Y132739D01*
X372809Y132939D01*
X372609Y133339D01*
X376809Y135939D02*Y135739D01*
Y135939D02*X377009Y136339D01*
X377209Y136539D01*
X377609Y136739D01*
X378409D01*
X378809Y136539D01*
X379009Y136339D01*
X379209Y135939D01*
Y135539D01*
X379009Y135139D01*
X378609Y134539D01*
X376609Y132539D01*
X379409D01*
X382609Y136739D02*X380609Y133939D01*
X383609D01*
X382609Y136739D02*Y132539D01*
X371409Y116739D02*Y113539D01*
X371209Y112939D01*
X371009Y112739D01*
X370609Y112539D01*
X370209D02*X370609D01*
X370209D02*X369809Y112739D01*
X369609Y112939D01*
X369409Y113539D01*
Y113939D02*Y113539D01*
X373009Y116739D02*X375209D01*
X374009Y115139D01*
X374609D01*
X375009Y114939D01*
X375209Y114739D01*
X375409Y114139D01*
Y113739D01*
X375209Y113139D01*
X374809Y112739D01*
X374209Y112539D01*
X373609D02*X374209D01*
X373609D02*X373009Y112739D01*
X372809Y112939D01*
X372609Y113339D01*
X376809Y115939D02*Y115739D01*
Y115939D02*X377009Y116339D01*
X377209Y116539D01*
X377609Y116739D01*
X378409D01*
X378809Y116539D01*
X379009Y116339D01*
X379209Y115939D01*
Y115539D01*
X379009Y115139D01*
X378609Y114539D01*
X376609Y112539D01*
X379409D01*
X383009Y116139D02*X382809Y116539D01*
X382209Y116739D01*
X381809D02*X382209D01*
X381809D02*X381209Y116539D01*
X380809Y115939D01*
X380609Y114939D01*
Y113939D01*
X380809Y113139D01*
X381209Y112739D01*
X381809Y112539D01*
X382009D01*
X382609Y112739D01*
X383009Y113139D01*
X383209Y113739D01*
Y113939D02*Y113739D01*
Y113939D02*X383009Y114539D01*
X382609Y114939D01*
X382009Y115139D01*
X381809D02*X382009D01*
X381809D02*X381209Y114939D01*
X380809Y114539D01*
X380609Y113939D01*
X371409Y146739D02*Y143539D01*
X371209Y142939D01*
X371009Y142739D01*
X370609Y142539D01*
X370209D02*X370609D01*
X370209D02*X369809Y142739D01*
X369609Y142939D01*
X369409Y143539D01*
Y143939D02*Y143539D01*
X373009Y146739D02*X375209D01*
X374009Y145139D01*
X374609D01*
X375009Y144939D01*
X375209Y144739D01*
X375409Y144139D01*
Y143739D01*
X375209Y143139D01*
X374809Y142739D01*
X374209Y142539D01*
X373609D02*X374209D01*
X373609D02*X373009Y142739D01*
X372809Y142939D01*
X372609Y143339D01*
X376809Y145939D02*Y145739D01*
Y145939D02*X377009Y146339D01*
X377209Y146539D01*
X377609Y146739D01*
X378409D01*
X378809Y146539D01*
X379009Y146339D01*
X379209Y145939D01*
Y145539D01*
X379009Y145139D01*
X378609Y144539D01*
X376609Y142539D01*
X379409D01*
X381009Y146739D02*X383209D01*
X382009Y145139D01*
X382609D01*
X383009Y144939D01*
X383209Y144739D01*
X383409Y144139D01*
Y143739D01*
X383209Y143139D01*
X382809Y142739D01*
X382209Y142539D01*
X381609D02*X382209D01*
X381609D02*X381009Y142739D01*
X380809Y142939D01*
X380609Y143339D01*
X371409Y126739D02*Y123539D01*
X371209Y122939D01*
X371009Y122739D01*
X370609Y122539D01*
X370209D02*X370609D01*
X370209D02*X369809Y122739D01*
X369609Y122939D01*
X369409Y123539D01*
Y123939D02*Y123539D01*
X373009Y126739D02*X375209D01*
X374009Y125139D01*
X374609D01*
X375009Y124939D01*
X375209Y124739D01*
X375409Y124139D01*
Y123739D01*
X375209Y123139D01*
X374809Y122739D01*
X374209Y122539D01*
X373609D02*X374209D01*
X373609D02*X373009Y122739D01*
X372809Y122939D01*
X372609Y123339D01*
X376809Y125939D02*Y125739D01*
Y125939D02*X377009Y126339D01*
X377209Y126539D01*
X377609Y126739D01*
X378409D01*
X378809Y126539D01*
X379009Y126339D01*
X379209Y125939D01*
Y125539D01*
X379009Y125139D01*
X378609Y124539D01*
X376609Y122539D01*
X379409D01*
X381009Y126739D02*X383009D01*
X381009D02*X380809Y124939D01*
X381009Y125139D01*
X381609Y125339D01*
X382209D01*
X382809Y125139D01*
X383209Y124739D01*
X383409Y124139D01*
Y123739D01*
X383209Y123139D01*
X382809Y122739D01*
X382209Y122539D01*
X381609D02*X382209D01*
X381609D02*X381009Y122739D01*
X380809Y122939D01*
X380609Y123339D01*
X450964Y119457D02*Y115257D01*
Y119457D02*X453564D01*
X450964Y117457D02*X452564D01*
X455164Y119457D02*X457364D01*
X456164Y117857D01*
X456764D01*
X457164Y117657D01*
X457364Y117457D01*
X457564Y116857D01*
Y116457D01*
X457364Y115857D01*
X456964Y115457D01*
X456364Y115257D01*
X455764D02*X456364D01*
X455764D02*X455164Y115457D01*
X454964Y115657D01*
X454764Y116057D01*
X458964Y118657D02*Y118457D01*
Y118657D02*X459164Y119057D01*
X459364Y119257D01*
X459764Y119457D01*
X460564D01*
X460964Y119257D01*
X461164Y119057D01*
X461364Y118657D01*
Y118257D01*
X461164Y117857D01*
X460764Y117257D01*
X458764Y115257D01*
X461564D01*
X463764Y119457D02*X463164Y119257D01*
X462964Y118857D01*
Y118457D01*
X463164Y118057D01*
X463564Y117857D01*
X464364Y117657D01*
X464964Y117457D01*
X465364Y117057D01*
X465564Y116657D01*
Y116057D01*
X465364Y115657D01*
X465164Y115457D01*
X464564Y115257D01*
X463764D02*X464564D01*
X463764D02*X463164Y115457D01*
X462964Y115657D01*
X462764Y116057D01*
Y116657D02*Y116057D01*
Y116657D02*X462964Y117057D01*
X463364Y117457D01*
X463964Y117657D01*
X464764Y117857D01*
X465164Y118057D01*
X465364Y118457D01*
Y118857D02*Y118457D01*
Y118857D02*X465164Y119257D01*
X464564Y119457D01*
X463764D02*X464564D01*
X371409Y89239D02*Y86039D01*
X371209Y85439D01*
X371009Y85239D01*
X370609Y85039D01*
X370209D02*X370609D01*
X370209D02*X369809Y85239D01*
X369609Y85439D01*
X369409Y86039D01*
Y86439D02*Y86039D01*
X373009Y89239D02*X375209D01*
X374009Y87639D01*
X374609D01*
X375009Y87439D01*
X375209Y87239D01*
X375409Y86639D01*
Y86239D01*
X375209Y85639D01*
X374809Y85239D01*
X374209Y85039D01*
X373609D02*X374209D01*
X373609D02*X373009Y85239D01*
X372809Y85439D01*
X372609Y85839D01*
X376809Y88439D02*Y88239D01*
Y88439D02*X377009Y88839D01*
X377209Y89039D01*
X377609Y89239D01*
X378409D01*
X378809Y89039D01*
X379009Y88839D01*
X379209Y88439D01*
Y88039D01*
X379009Y87639D01*
X378609Y87039D01*
X376609Y85039D01*
X379409D01*
X383209Y87839D02*X383009Y87239D01*
X382609Y86839D01*
X382009Y86639D01*
X381809D02*X382009D01*
X381809D02*X381209Y86839D01*
X380809Y87239D01*
X380609Y87839D01*
Y88039D02*Y87839D01*
Y88039D02*X380809Y88639D01*
X381209Y89039D01*
X381809Y89239D01*
X382009D01*
X382609Y89039D01*
X383009Y88639D01*
X383209Y87839D01*
Y86839D01*
X383009Y85839D01*
X382609Y85239D01*
X382009Y85039D01*
X381609D02*X382009D01*
X381609D02*X381009Y85239D01*
X380809Y85639D01*
X371409Y356739D02*Y353539D01*
X371209Y352939D01*
X371009Y352739D01*
X370609Y352539D01*
X370209D02*X370609D01*
X370209D02*X369809Y352739D01*
X369609Y352939D01*
X369409Y353539D01*
Y353939D02*Y353539D01*
X373009Y356739D02*X375209D01*
X374009Y355139D01*
X374609D01*
X375009Y354939D01*
X375209Y354739D01*
X375409Y354139D01*
Y353739D01*
X375209Y353139D01*
X374809Y352739D01*
X374209Y352539D01*
X373609D02*X374209D01*
X373609D02*X373009Y352739D01*
X372809Y352939D01*
X372609Y353339D01*
X377809Y356739D02*X377209Y356539D01*
X376809Y355939D01*
X376609Y354939D01*
Y354339D01*
X376809Y353339D01*
X377209Y352739D01*
X377809Y352539D01*
X378209D01*
X378809Y352739D01*
X379209Y353339D01*
X379409Y354339D01*
Y354939D02*Y354339D01*
Y354939D02*X379209Y355939D01*
X378809Y356539D01*
X378209Y356739D01*
X377809D02*X378209D01*
X380809Y355939D02*Y355739D01*
Y355939D02*X381009Y356339D01*
X381209Y356539D01*
X381609Y356739D01*
X382409D01*
X382809Y356539D01*
X383009Y356339D01*
X383209Y355939D01*
Y355539D01*
X383009Y355139D01*
X382609Y354539D01*
X380609Y352539D01*
X383409D01*
X371409Y336739D02*Y333539D01*
X371209Y332939D01*
X371009Y332739D01*
X370609Y332539D01*
X370209D02*X370609D01*
X370209D02*X369809Y332739D01*
X369609Y332939D01*
X369409Y333539D01*
Y333939D02*Y333539D01*
X373009Y336739D02*X375209D01*
X374009Y335139D01*
X374609D01*
X375009Y334939D01*
X375209Y334739D01*
X375409Y334139D01*
Y333739D01*
X375209Y333139D01*
X374809Y332739D01*
X374209Y332539D01*
X373609D02*X374209D01*
X373609D02*X373009Y332739D01*
X372809Y332939D01*
X372609Y333339D01*
X377809Y336739D02*X377209Y336539D01*
X376809Y335939D01*
X376609Y334939D01*
Y334339D01*
X376809Y333339D01*
X377209Y332739D01*
X377809Y332539D01*
X378209D01*
X378809Y332739D01*
X379209Y333339D01*
X379409Y334339D01*
Y334939D02*Y334339D01*
Y334939D02*X379209Y335939D01*
X378809Y336539D01*
X378209Y336739D01*
X377809D02*X378209D01*
X382609D02*X380609Y333939D01*
X383609D01*
X382609Y336739D02*Y332539D01*
X371409Y346739D02*Y343539D01*
X371209Y342939D01*
X371009Y342739D01*
X370609Y342539D01*
X370209D02*X370609D01*
X370209D02*X369809Y342739D01*
X369609Y342939D01*
X369409Y343539D01*
Y343939D02*Y343539D01*
X373009Y346739D02*X375209D01*
X374009Y345139D01*
X374609D01*
X375009Y344939D01*
X375209Y344739D01*
X375409Y344139D01*
Y343739D01*
X375209Y343139D01*
X374809Y342739D01*
X374209Y342539D01*
X373609D02*X374209D01*
X373609D02*X373009Y342739D01*
X372809Y342939D01*
X372609Y343339D01*
X377809Y346739D02*X377209Y346539D01*
X376809Y345939D01*
X376609Y344939D01*
Y344339D01*
X376809Y343339D01*
X377209Y342739D01*
X377809Y342539D01*
X378209D01*
X378809Y342739D01*
X379209Y343339D01*
X379409Y344339D01*
Y344939D02*Y344339D01*
Y344939D02*X379209Y345939D01*
X378809Y346539D01*
X378209Y346739D01*
X377809D02*X378209D01*
X381009D02*X383209D01*
X382009Y345139D01*
X382609D01*
X383009Y344939D01*
X383209Y344739D01*
X383409Y344139D01*
Y343739D01*
X383209Y343139D01*
X382809Y342739D01*
X382209Y342539D01*
X381609D02*X382209D01*
X381609D02*X381009Y342739D01*
X380809Y342939D01*
X380609Y343339D01*
X371409Y276739D02*Y273539D01*
X371209Y272939D01*
X371009Y272739D01*
X370609Y272539D01*
X370209D02*X370609D01*
X370209D02*X369809Y272739D01*
X369609Y272939D01*
X369409Y273539D01*
Y273939D02*Y273539D01*
X373009Y276739D02*X375209D01*
X374009Y275139D01*
X374609D01*
X375009Y274939D01*
X375209Y274739D01*
X375409Y274139D01*
Y273739D01*
X375209Y273139D01*
X374809Y272739D01*
X374209Y272539D01*
X373609D02*X374209D01*
X373609D02*X373009Y272739D01*
X372809Y272939D01*
X372609Y273339D01*
X376609Y275939D02*X377009Y276139D01*
X377609Y276739D01*
Y272539D01*
X380009Y276739D02*X379409Y276539D01*
X379009Y275939D01*
X378809Y274939D01*
Y274339D01*
X379009Y273339D01*
X379409Y272739D01*
X380009Y272539D01*
X380409D01*
X381009Y272739D01*
X381409Y273339D01*
X381609Y274339D01*
Y274939D02*Y274339D01*
Y274939D02*X381409Y275939D01*
X381009Y276539D01*
X380409Y276739D01*
X380009D02*X380409D01*
X371409Y266739D02*Y263539D01*
X371209Y262939D01*
X371009Y262739D01*
X370609Y262539D01*
X370209D02*X370609D01*
X370209D02*X369809Y262739D01*
X369609Y262939D01*
X369409Y263539D01*
Y263939D02*Y263539D01*
X373009Y266739D02*X375209D01*
X374009Y265139D01*
X374609D01*
X375009Y264939D01*
X375209Y264739D01*
X375409Y264139D01*
Y263739D01*
X375209Y263139D01*
X374809Y262739D01*
X374209Y262539D01*
X373609D02*X374209D01*
X373609D02*X373009Y262739D01*
X372809Y262939D01*
X372609Y263339D01*
X376609Y265939D02*X377009Y266139D01*
X377609Y266739D01*
Y262539D01*
X378809Y265939D02*X379209Y266139D01*
X379809Y266739D01*
Y262539D01*
X371409Y256739D02*Y253539D01*
X371209Y252939D01*
X371009Y252739D01*
X370609Y252539D01*
X370209D02*X370609D01*
X370209D02*X369809Y252739D01*
X369609Y252939D01*
X369409Y253539D01*
Y253939D02*Y253539D01*
X373009Y256739D02*X375209D01*
X374009Y255139D01*
X374609D01*
X375009Y254939D01*
X375209Y254739D01*
X375409Y254139D01*
Y253739D01*
X375209Y253139D01*
X374809Y252739D01*
X374209Y252539D01*
X373609D02*X374209D01*
X373609D02*X373009Y252739D01*
X372809Y252939D01*
X372609Y253339D01*
X376609Y255939D02*X377009Y256139D01*
X377609Y256739D01*
Y252539D01*
X379009Y255939D02*Y255739D01*
Y255939D02*X379209Y256339D01*
X379409Y256539D01*
X379809Y256739D01*
X380609D01*
X381009Y256539D01*
X381209Y256339D01*
X381409Y255939D01*
Y255539D01*
X381209Y255139D01*
X380809Y254539D01*
X378809Y252539D01*
X381609D01*
X371409Y246739D02*Y243539D01*
X371209Y242939D01*
X371009Y242739D01*
X370609Y242539D01*
X370209D02*X370609D01*
X370209D02*X369809Y242739D01*
X369609Y242939D01*
X369409Y243539D01*
Y243939D02*Y243539D01*
X373009Y246739D02*X375209D01*
X374009Y245139D01*
X374609D01*
X375009Y244939D01*
X375209Y244739D01*
X375409Y244139D01*
Y243739D01*
X375209Y243139D01*
X374809Y242739D01*
X374209Y242539D01*
X373609D02*X374209D01*
X373609D02*X373009Y242739D01*
X372809Y242939D01*
X372609Y243339D01*
X376609Y245939D02*X377009Y246139D01*
X377609Y246739D01*
Y242539D01*
X379209Y246739D02*X381409D01*
X380209Y245139D01*
X380809D01*
X381209Y244939D01*
X381409Y244739D01*
X381609Y244139D01*
Y243739D01*
X381409Y243139D01*
X381009Y242739D01*
X380409Y242539D01*
X379809D02*X380409D01*
X379809D02*X379209Y242739D01*
X379009Y242939D01*
X378809Y243339D01*
X371409Y236739D02*Y233539D01*
X371209Y232939D01*
X371009Y232739D01*
X370609Y232539D01*
X370209D02*X370609D01*
X370209D02*X369809Y232739D01*
X369609Y232939D01*
X369409Y233539D01*
Y233939D02*Y233539D01*
X373009Y236739D02*X375209D01*
X374009Y235139D01*
X374609D01*
X375009Y234939D01*
X375209Y234739D01*
X375409Y234139D01*
Y233739D01*
X375209Y233139D01*
X374809Y232739D01*
X374209Y232539D01*
X373609D02*X374209D01*
X373609D02*X373009Y232739D01*
X372809Y232939D01*
X372609Y233339D01*
X376609Y235939D02*X377009Y236139D01*
X377609Y236739D01*
Y232539D01*
X380809Y236739D02*X378809Y233939D01*
X381809D01*
X380809Y236739D02*Y232539D01*
X371409Y216739D02*Y213539D01*
X371209Y212939D01*
X371009Y212739D01*
X370609Y212539D01*
X370209D02*X370609D01*
X370209D02*X369809Y212739D01*
X369609Y212939D01*
X369409Y213539D01*
Y213939D02*Y213539D01*
X373009Y216739D02*X375209D01*
X374009Y215139D01*
X374609D01*
X375009Y214939D01*
X375209Y214739D01*
X375409Y214139D01*
Y213739D01*
X375209Y213139D01*
X374809Y212739D01*
X374209Y212539D01*
X373609D02*X374209D01*
X373609D02*X373009Y212739D01*
X372809Y212939D01*
X372609Y213339D01*
X376609Y215939D02*X377009Y216139D01*
X377609Y216739D01*
Y212539D01*
X381209Y216139D02*X381009Y216539D01*
X380409Y216739D01*
X380009D02*X380409D01*
X380009D02*X379409Y216539D01*
X379009Y215939D01*
X378809Y214939D01*
Y213939D01*
X379009Y213139D01*
X379409Y212739D01*
X380009Y212539D01*
X380209D01*
X380809Y212739D01*
X381209Y213139D01*
X381409Y213739D01*
Y213939D02*Y213739D01*
Y213939D02*X381209Y214539D01*
X380809Y214939D01*
X380209Y215139D01*
X380009D02*X380209D01*
X380009D02*X379409Y214939D01*
X379009Y214539D01*
X378809Y213939D01*
X371409Y196739D02*Y193539D01*
X371209Y192939D01*
X371009Y192739D01*
X370609Y192539D01*
X370209D02*X370609D01*
X370209D02*X369809Y192739D01*
X369609Y192939D01*
X369409Y193539D01*
Y193939D02*Y193539D01*
X373009Y196739D02*X375209D01*
X374009Y195139D01*
X374609D01*
X375009Y194939D01*
X375209Y194739D01*
X375409Y194139D01*
Y193739D01*
X375209Y193139D01*
X374809Y192739D01*
X374209Y192539D01*
X373609D02*X374209D01*
X373609D02*X373009Y192739D01*
X372809Y192939D01*
X372609Y193339D01*
X376609Y195939D02*X377009Y196139D01*
X377609Y196739D01*
Y192539D01*
X379809Y196739D02*X379209Y196539D01*
X379009Y196139D01*
Y195739D01*
X379209Y195339D01*
X379609Y195139D01*
X380409Y194939D01*
X381009Y194739D01*
X381409Y194339D01*
X381609Y193939D01*
Y193339D01*
X381409Y192939D01*
X381209Y192739D01*
X380609Y192539D01*
X379809D02*X380609D01*
X379809D02*X379209Y192739D01*
X379009Y192939D01*
X378809Y193339D01*
Y193939D02*Y193339D01*
Y193939D02*X379009Y194339D01*
X379409Y194739D01*
X380009Y194939D01*
X380809Y195139D01*
X381209Y195339D01*
X381409Y195739D01*
Y196139D02*Y195739D01*
Y196139D02*X381209Y196539D01*
X380609Y196739D01*
X379809D02*X380609D01*
X371409Y226739D02*Y223539D01*
X371209Y222939D01*
X371009Y222739D01*
X370609Y222539D01*
X370209D02*X370609D01*
X370209D02*X369809Y222739D01*
X369609Y222939D01*
X369409Y223539D01*
Y223939D02*Y223539D01*
X373009Y226739D02*X375209D01*
X374009Y225139D01*
X374609D01*
X375009Y224939D01*
X375209Y224739D01*
X375409Y224139D01*
Y223739D01*
X375209Y223139D01*
X374809Y222739D01*
X374209Y222539D01*
X373609D02*X374209D01*
X373609D02*X373009Y222739D01*
X372809Y222939D01*
X372609Y223339D01*
X376609Y225939D02*X377009Y226139D01*
X377609Y226739D01*
Y222539D01*
X379209Y226739D02*X381209D01*
X379209D02*X379009Y224939D01*
X379209Y225139D01*
X379809Y225339D01*
X380409D01*
X381009Y225139D01*
X381409Y224739D01*
X381609Y224139D01*
Y223739D01*
X381409Y223139D01*
X381009Y222739D01*
X380409Y222539D01*
X379809D02*X380409D01*
X379809D02*X379209Y222739D01*
X379009Y222939D01*
X378809Y223339D01*
X371409Y206739D02*Y203539D01*
X371209Y202939D01*
X371009Y202739D01*
X370609Y202539D01*
X370209D02*X370609D01*
X370209D02*X369809Y202739D01*
X369609Y202939D01*
X369409Y203539D01*
Y203939D02*Y203539D01*
X373009Y206739D02*X375209D01*
X374009Y205139D01*
X374609D01*
X375009Y204939D01*
X375209Y204739D01*
X375409Y204139D01*
Y203739D01*
X375209Y203139D01*
X374809Y202739D01*
X374209Y202539D01*
X373609D02*X374209D01*
X373609D02*X373009Y202739D01*
X372809Y202939D01*
X372609Y203339D01*
X376609Y205939D02*X377009Y206139D01*
X377609Y206739D01*
Y202539D01*
X381609Y206739D02*X379609Y202539D01*
X378809Y206739D02*X381609D01*
X371409Y186739D02*Y183539D01*
X371209Y182939D01*
X371009Y182739D01*
X370609Y182539D01*
X370209D02*X370609D01*
X370209D02*X369809Y182739D01*
X369609Y182939D01*
X369409Y183539D01*
Y183939D02*Y183539D01*
X373009Y186739D02*X375209D01*
X374009Y185139D01*
X374609D01*
X375009Y184939D01*
X375209Y184739D01*
X375409Y184139D01*
Y183739D01*
X375209Y183139D01*
X374809Y182739D01*
X374209Y182539D01*
X373609D02*X374209D01*
X373609D02*X373009Y182739D01*
X372809Y182939D01*
X372609Y183339D01*
X376609Y185939D02*X377009Y186139D01*
X377609Y186739D01*
Y182539D01*
X381409Y185339D02*X381209Y184739D01*
X380809Y184339D01*
X380209Y184139D01*
X380009D02*X380209D01*
X380009D02*X379409Y184339D01*
X379009Y184739D01*
X378809Y185339D01*
Y185539D02*Y185339D01*
Y185539D02*X379009Y186139D01*
X379409Y186539D01*
X380009Y186739D01*
X380209D01*
X380809Y186539D01*
X381209Y186139D01*
X381409Y185339D01*
Y184339D01*
X381209Y183339D01*
X380809Y182739D01*
X380209Y182539D01*
X379809D02*X380209D01*
X379809D02*X379209Y182739D01*
X379009Y183139D01*
X371409Y366739D02*Y363539D01*
X371209Y362939D01*
X371009Y362739D01*
X370609Y362539D01*
X370209D02*X370609D01*
X370209D02*X369809Y362739D01*
X369609Y362939D01*
X369409Y363539D01*
Y363939D02*Y363539D01*
X373009Y366739D02*X375209D01*
X374009Y365139D01*
X374609D01*
X375009Y364939D01*
X375209Y364739D01*
X375409Y364139D01*
Y363739D01*
X375209Y363139D01*
X374809Y362739D01*
X374209Y362539D01*
X373609D02*X374209D01*
X373609D02*X373009Y362739D01*
X372809Y362939D01*
X372609Y363339D01*
X377809Y366739D02*X377209Y366539D01*
X376809Y365939D01*
X376609Y364939D01*
Y364339D01*
X376809Y363339D01*
X377209Y362739D01*
X377809Y362539D01*
X378209D01*
X378809Y362739D01*
X379209Y363339D01*
X379409Y364339D01*
Y364939D02*Y364339D01*
Y364939D02*X379209Y365939D01*
X378809Y366539D01*
X378209Y366739D01*
X377809D02*X378209D01*
X380609Y365939D02*X381009Y366139D01*
X381609Y366739D01*
Y362539D01*
X371409Y316739D02*Y313539D01*
X371209Y312939D01*
X371009Y312739D01*
X370609Y312539D01*
X370209D02*X370609D01*
X370209D02*X369809Y312739D01*
X369609Y312939D01*
X369409Y313539D01*
Y313939D02*Y313539D01*
X373009Y316739D02*X375209D01*
X374009Y315139D01*
X374609D01*
X375009Y314939D01*
X375209Y314739D01*
X375409Y314139D01*
Y313739D01*
X375209Y313139D01*
X374809Y312739D01*
X374209Y312539D01*
X373609D02*X374209D01*
X373609D02*X373009Y312739D01*
X372809Y312939D01*
X372609Y313339D01*
X377809Y316739D02*X377209Y316539D01*
X376809Y315939D01*
X376609Y314939D01*
Y314339D01*
X376809Y313339D01*
X377209Y312739D01*
X377809Y312539D01*
X378209D01*
X378809Y312739D01*
X379209Y313339D01*
X379409Y314339D01*
Y314939D02*Y314339D01*
Y314939D02*X379209Y315939D01*
X378809Y316539D01*
X378209Y316739D01*
X377809D02*X378209D01*
X383009Y316139D02*X382809Y316539D01*
X382209Y316739D01*
X381809D02*X382209D01*
X381809D02*X381209Y316539D01*
X380809Y315939D01*
X380609Y314939D01*
Y313939D01*
X380809Y313139D01*
X381209Y312739D01*
X381809Y312539D01*
X382009D01*
X382609Y312739D01*
X383009Y313139D01*
X383209Y313739D01*
Y313939D02*Y313739D01*
Y313939D02*X383009Y314539D01*
X382609Y314939D01*
X382009Y315139D01*
X381809D02*X382009D01*
X381809D02*X381209Y314939D01*
X380809Y314539D01*
X380609Y313939D01*
X371409Y296739D02*Y293539D01*
X371209Y292939D01*
X371009Y292739D01*
X370609Y292539D01*
X370209D02*X370609D01*
X370209D02*X369809Y292739D01*
X369609Y292939D01*
X369409Y293539D01*
Y293939D02*Y293539D01*
X373009Y296739D02*X375209D01*
X374009Y295139D01*
X374609D01*
X375009Y294939D01*
X375209Y294739D01*
X375409Y294139D01*
Y293739D01*
X375209Y293139D01*
X374809Y292739D01*
X374209Y292539D01*
X373609D02*X374209D01*
X373609D02*X373009Y292739D01*
X372809Y292939D01*
X372609Y293339D01*
X377809Y296739D02*X377209Y296539D01*
X376809Y295939D01*
X376609Y294939D01*
Y294339D01*
X376809Y293339D01*
X377209Y292739D01*
X377809Y292539D01*
X378209D01*
X378809Y292739D01*
X379209Y293339D01*
X379409Y294339D01*
Y294939D02*Y294339D01*
Y294939D02*X379209Y295939D01*
X378809Y296539D01*
X378209Y296739D01*
X377809D02*X378209D01*
X381609D02*X381009Y296539D01*
X380809Y296139D01*
Y295739D01*
X381009Y295339D01*
X381409Y295139D01*
X382209Y294939D01*
X382809Y294739D01*
X383209Y294339D01*
X383409Y293939D01*
Y293339D01*
X383209Y292939D01*
X383009Y292739D01*
X382409Y292539D01*
X381609D02*X382409D01*
X381609D02*X381009Y292739D01*
X380809Y292939D01*
X380609Y293339D01*
Y293939D02*Y293339D01*
Y293939D02*X380809Y294339D01*
X381209Y294739D01*
X381809Y294939D01*
X382609Y295139D01*
X383009Y295339D01*
X383209Y295739D01*
Y296139D02*Y295739D01*
Y296139D02*X383009Y296539D01*
X382409Y296739D01*
X381609D02*X382409D01*
X371409Y326739D02*Y323539D01*
X371209Y322939D01*
X371009Y322739D01*
X370609Y322539D01*
X370209D02*X370609D01*
X370209D02*X369809Y322739D01*
X369609Y322939D01*
X369409Y323539D01*
Y323939D02*Y323539D01*
X373009Y326739D02*X375209D01*
X374009Y325139D01*
X374609D01*
X375009Y324939D01*
X375209Y324739D01*
X375409Y324139D01*
Y323739D01*
X375209Y323139D01*
X374809Y322739D01*
X374209Y322539D01*
X373609D02*X374209D01*
X373609D02*X373009Y322739D01*
X372809Y322939D01*
X372609Y323339D01*
X377809Y326739D02*X377209Y326539D01*
X376809Y325939D01*
X376609Y324939D01*
Y324339D01*
X376809Y323339D01*
X377209Y322739D01*
X377809Y322539D01*
X378209D01*
X378809Y322739D01*
X379209Y323339D01*
X379409Y324339D01*
Y324939D02*Y324339D01*
Y324939D02*X379209Y325939D01*
X378809Y326539D01*
X378209Y326739D01*
X377809D02*X378209D01*
X381009D02*X383009D01*
X381009D02*X380809Y324939D01*
X381009Y325139D01*
X381609Y325339D01*
X382209D01*
X382809Y325139D01*
X383209Y324739D01*
X383409Y324139D01*
Y323739D01*
X383209Y323139D01*
X382809Y322739D01*
X382209Y322539D01*
X381609D02*X382209D01*
X381609D02*X381009Y322739D01*
X380809Y322939D01*
X380609Y323339D01*
X371409Y306739D02*Y303539D01*
X371209Y302939D01*
X371009Y302739D01*
X370609Y302539D01*
X370209D02*X370609D01*
X370209D02*X369809Y302739D01*
X369609Y302939D01*
X369409Y303539D01*
Y303939D02*Y303539D01*
X373009Y306739D02*X375209D01*
X374009Y305139D01*
X374609D01*
X375009Y304939D01*
X375209Y304739D01*
X375409Y304139D01*
Y303739D01*
X375209Y303139D01*
X374809Y302739D01*
X374209Y302539D01*
X373609D02*X374209D01*
X373609D02*X373009Y302739D01*
X372809Y302939D01*
X372609Y303339D01*
X377809Y306739D02*X377209Y306539D01*
X376809Y305939D01*
X376609Y304939D01*
Y304339D01*
X376809Y303339D01*
X377209Y302739D01*
X377809Y302539D01*
X378209D01*
X378809Y302739D01*
X379209Y303339D01*
X379409Y304339D01*
Y304939D02*Y304339D01*
Y304939D02*X379209Y305939D01*
X378809Y306539D01*
X378209Y306739D01*
X377809D02*X378209D01*
X383409D02*X381409Y302539D01*
X380609Y306739D02*X383409D01*
X371409Y286739D02*Y283539D01*
X371209Y282939D01*
X371009Y282739D01*
X370609Y282539D01*
X370209D02*X370609D01*
X370209D02*X369809Y282739D01*
X369609Y282939D01*
X369409Y283539D01*
Y283939D02*Y283539D01*
X373009Y286739D02*X375209D01*
X374009Y285139D01*
X374609D01*
X375009Y284939D01*
X375209Y284739D01*
X375409Y284139D01*
Y283739D01*
X375209Y283139D01*
X374809Y282739D01*
X374209Y282539D01*
X373609D02*X374209D01*
X373609D02*X373009Y282739D01*
X372809Y282939D01*
X372609Y283339D01*
X377809Y286739D02*X377209Y286539D01*
X376809Y285939D01*
X376609Y284939D01*
Y284339D01*
X376809Y283339D01*
X377209Y282739D01*
X377809Y282539D01*
X378209D01*
X378809Y282739D01*
X379209Y283339D01*
X379409Y284339D01*
Y284939D02*Y284339D01*
Y284939D02*X379209Y285939D01*
X378809Y286539D01*
X378209Y286739D01*
X377809D02*X378209D01*
X383209Y285339D02*X383009Y284739D01*
X382609Y284339D01*
X382009Y284139D01*
X381809D02*X382009D01*
X381809D02*X381209Y284339D01*
X380809Y284739D01*
X380609Y285339D01*
Y285539D02*Y285339D01*
Y285539D02*X380809Y286139D01*
X381209Y286539D01*
X381809Y286739D01*
X382009D01*
X382609Y286539D01*
X383009Y286139D01*
X383209Y285339D01*
Y284339D01*
X383009Y283339D01*
X382609Y282739D01*
X382009Y282539D01*
X381609D02*X382009D01*
X381609D02*X381009Y282739D01*
X380809Y283139D01*
M02*
