G04 start of page 2 for group 0 idx 0 *
G04 Title: 01.003.00.01.01.pcb, top *
G04 Creator: pcb 4.1.2 *
G04 CreationDate: Sat Sep  1 10:35:09 2018 UTC *
G04 For: bert *
G04 Format: Gerber/RS-274X *
G04 PCB-Dimensions (mil): 6692.91 4330.71 *
G04 PCB-Coordinate-Origin: lower left *
%MOIN*%
%FSLAX25Y25*%
%LNGTL*%
%ADD24C,0.1100*%
%ADD23C,0.0520*%
%ADD22C,0.0380*%
%ADD21C,0.0350*%
%ADD20C,0.0460*%
%ADD19C,0.0400*%
%ADD18C,0.1460*%
%ADD17C,0.0720*%
%ADD16C,0.0600*%
%ADD15C,0.0700*%
%ADD14C,0.0750*%
%ADD13C,0.2760*%
%ADD12C,0.0650*%
%ADD11C,0.0001*%
G54D11*G36*
X632666Y413386D02*X649610D01*
Y19681D01*
X632666D01*
Y42694D01*
X632676Y42693D01*
X633696Y42773D01*
X634691Y43012D01*
X635636Y43404D01*
X636508Y43938D01*
X637286Y44603D01*
X637951Y45381D01*
X638485Y46253D01*
X638877Y47198D01*
X639116Y48193D01*
X639176Y49213D01*
X639116Y50233D01*
X638877Y51228D01*
X638485Y52173D01*
X637951Y53045D01*
X637286Y53823D01*
X636508Y54488D01*
X635636Y55022D01*
X634691Y55414D01*
X633696Y55653D01*
X632676Y55733D01*
X632666Y55732D01*
Y377339D01*
X632676Y377339D01*
X633696Y377419D01*
X634691Y377658D01*
X635636Y378049D01*
X636508Y378584D01*
X637286Y379248D01*
X637951Y380026D01*
X638485Y380899D01*
X638877Y381844D01*
X639116Y382839D01*
X639176Y383859D01*
X639116Y384879D01*
X638877Y385873D01*
X638485Y386819D01*
X637951Y387691D01*
X637286Y388469D01*
X636508Y389133D01*
X635636Y389668D01*
X634691Y390060D01*
X633696Y390298D01*
X632676Y390379D01*
X632666Y390378D01*
Y413386D01*
G37*
G36*
X622826D02*X632666D01*
Y390378D01*
X631656Y390298D01*
X630661Y390060D01*
X629716Y389668D01*
X628844Y389133D01*
X628066Y388469D01*
X627401Y387691D01*
X626867Y386819D01*
X626475Y385873D01*
X626236Y384879D01*
X626156Y383859D01*
X626236Y382839D01*
X626475Y381844D01*
X626867Y380899D01*
X627401Y380026D01*
X628066Y379248D01*
X628844Y378584D01*
X629716Y378049D01*
X630661Y377658D01*
X631656Y377419D01*
X632666Y377339D01*
Y55732D01*
X631656Y55653D01*
X630661Y55414D01*
X629716Y55022D01*
X628844Y54488D01*
X628066Y53823D01*
X627401Y53045D01*
X626867Y52173D01*
X626475Y51228D01*
X626236Y50233D01*
X626156Y49213D01*
X626236Y48193D01*
X626475Y47198D01*
X626867Y46253D01*
X627401Y45381D01*
X628066Y44603D01*
X628844Y43938D01*
X629716Y43404D01*
X630661Y43012D01*
X631656Y42773D01*
X632666Y42694D01*
Y19681D01*
X622826D01*
Y64285D01*
X622833Y64285D01*
X623555Y64341D01*
X624259Y64510D01*
X624928Y64788D01*
X625545Y65166D01*
X626096Y65636D01*
X626566Y66187D01*
X626944Y66804D01*
X627221Y67473D01*
X627390Y68177D01*
X627433Y68899D01*
X627390Y69621D01*
X627221Y70325D01*
X626944Y70994D01*
X626566Y71611D01*
X626096Y72162D01*
X625545Y72632D01*
X624928Y73010D01*
X624259Y73287D01*
X623555Y73456D01*
X622833Y73513D01*
X622826Y73512D01*
Y83970D01*
X622833Y83970D01*
X623555Y84026D01*
X624259Y84196D01*
X624928Y84473D01*
X625545Y84851D01*
X626096Y85321D01*
X626566Y85872D01*
X626944Y86489D01*
X627221Y87158D01*
X627390Y87862D01*
X627433Y88584D01*
X627390Y89306D01*
X627221Y90010D01*
X626944Y90679D01*
X626566Y91296D01*
X626096Y91847D01*
X625545Y92317D01*
X624928Y92695D01*
X624259Y92972D01*
X623555Y93141D01*
X622833Y93198D01*
X622826Y93197D01*
Y103655D01*
X622833Y103655D01*
X623555Y103712D01*
X624259Y103881D01*
X624928Y104158D01*
X625545Y104536D01*
X626096Y105006D01*
X626566Y105557D01*
X626944Y106174D01*
X627221Y106843D01*
X627390Y107547D01*
X627433Y108269D01*
X627390Y108991D01*
X627221Y109695D01*
X626944Y110364D01*
X626566Y110981D01*
X626096Y111532D01*
X625545Y112002D01*
X624928Y112380D01*
X624259Y112657D01*
X623555Y112826D01*
X622833Y112883D01*
X622826Y112883D01*
Y123340D01*
X622833Y123340D01*
X623555Y123396D01*
X624259Y123565D01*
X624928Y123843D01*
X625545Y124221D01*
X626096Y124691D01*
X626566Y125242D01*
X626944Y125859D01*
X627221Y126528D01*
X627390Y127232D01*
X627433Y127954D01*
X627390Y128676D01*
X627221Y129380D01*
X626944Y130049D01*
X626566Y130666D01*
X626096Y131217D01*
X625545Y131687D01*
X624928Y132065D01*
X624259Y132342D01*
X623555Y132511D01*
X622833Y132568D01*
X622826Y132567D01*
Y143025D01*
X622833Y143025D01*
X623555Y143081D01*
X624259Y143250D01*
X624928Y143528D01*
X625545Y143906D01*
X626096Y144376D01*
X626566Y144927D01*
X626944Y145544D01*
X627221Y146213D01*
X627390Y146917D01*
X627433Y147639D01*
X627390Y148361D01*
X627221Y149065D01*
X626944Y149734D01*
X626566Y150351D01*
X626096Y150902D01*
X625545Y151372D01*
X624928Y151750D01*
X624259Y152027D01*
X623555Y152196D01*
X622833Y152253D01*
X622826Y152252D01*
Y162710D01*
X622833Y162710D01*
X623555Y162766D01*
X624259Y162935D01*
X624928Y163213D01*
X625545Y163591D01*
X626096Y164061D01*
X626566Y164612D01*
X626944Y165229D01*
X627221Y165898D01*
X627390Y166602D01*
X627433Y167324D01*
X627390Y168046D01*
X627221Y168750D01*
X626944Y169419D01*
X626566Y170036D01*
X626096Y170587D01*
X625545Y171057D01*
X624928Y171435D01*
X624259Y171712D01*
X623555Y171881D01*
X622833Y171938D01*
X622826Y171937D01*
Y182395D01*
X622833Y182395D01*
X623555Y182451D01*
X624259Y182620D01*
X624928Y182898D01*
X625545Y183276D01*
X626096Y183746D01*
X626566Y184297D01*
X626944Y184914D01*
X627221Y185583D01*
X627390Y186287D01*
X627433Y187009D01*
X627390Y187731D01*
X627221Y188435D01*
X626944Y189104D01*
X626566Y189721D01*
X626096Y190272D01*
X625545Y190742D01*
X624928Y191120D01*
X624259Y191397D01*
X623555Y191566D01*
X622833Y191623D01*
X622826Y191622D01*
Y202080D01*
X622833Y202080D01*
X623555Y202136D01*
X624259Y202305D01*
X624928Y202583D01*
X625545Y202961D01*
X626096Y203431D01*
X626566Y203982D01*
X626944Y204599D01*
X627221Y205268D01*
X627390Y205972D01*
X627433Y206694D01*
X627390Y207416D01*
X627221Y208120D01*
X626944Y208789D01*
X626566Y209406D01*
X626096Y209957D01*
X625545Y210427D01*
X624928Y210805D01*
X624259Y211082D01*
X623555Y211251D01*
X622833Y211308D01*
X622826Y211307D01*
Y221765D01*
X622833Y221765D01*
X623555Y221821D01*
X624259Y221990D01*
X624928Y222268D01*
X625545Y222646D01*
X626096Y223116D01*
X626566Y223667D01*
X626944Y224284D01*
X627221Y224953D01*
X627390Y225657D01*
X627433Y226379D01*
X627390Y227101D01*
X627221Y227805D01*
X626944Y228474D01*
X626566Y229091D01*
X626096Y229642D01*
X625545Y230112D01*
X624928Y230490D01*
X624259Y230767D01*
X623555Y230936D01*
X622833Y230993D01*
X622826Y230992D01*
Y241450D01*
X622833Y241450D01*
X623555Y241506D01*
X624259Y241675D01*
X624928Y241953D01*
X625545Y242331D01*
X626096Y242801D01*
X626566Y243352D01*
X626944Y243969D01*
X627221Y244638D01*
X627390Y245342D01*
X627433Y246064D01*
X627390Y246786D01*
X627221Y247490D01*
X626944Y248159D01*
X626566Y248776D01*
X626096Y249327D01*
X625545Y249797D01*
X624928Y250175D01*
X624259Y250452D01*
X623555Y250621D01*
X622833Y250678D01*
X622826Y250677D01*
Y261135D01*
X622833Y261135D01*
X623555Y261191D01*
X624259Y261360D01*
X624928Y261638D01*
X625545Y262016D01*
X626096Y262486D01*
X626566Y263037D01*
X626944Y263654D01*
X627221Y264323D01*
X627390Y265027D01*
X627433Y265749D01*
X627390Y266471D01*
X627221Y267175D01*
X626944Y267844D01*
X626566Y268461D01*
X626096Y269012D01*
X625545Y269482D01*
X624928Y269860D01*
X624259Y270137D01*
X623555Y270306D01*
X622833Y270363D01*
X622826Y270362D01*
Y280820D01*
X622833Y280820D01*
X623555Y280876D01*
X624259Y281045D01*
X624928Y281323D01*
X625545Y281701D01*
X626096Y282171D01*
X626566Y282722D01*
X626944Y283339D01*
X627221Y284008D01*
X627390Y284712D01*
X627433Y285434D01*
X627390Y286156D01*
X627221Y286860D01*
X626944Y287529D01*
X626566Y288146D01*
X626096Y288697D01*
X625545Y289167D01*
X624928Y289545D01*
X624259Y289822D01*
X623555Y289991D01*
X622833Y290048D01*
X622826Y290047D01*
Y300505D01*
X622833Y300505D01*
X623555Y300561D01*
X624259Y300730D01*
X624928Y301008D01*
X625545Y301386D01*
X626096Y301856D01*
X626566Y302407D01*
X626944Y303024D01*
X627221Y303693D01*
X627390Y304397D01*
X627433Y305119D01*
X627390Y305841D01*
X627221Y306545D01*
X626944Y307214D01*
X626566Y307831D01*
X626096Y308382D01*
X625545Y308852D01*
X624928Y309230D01*
X624259Y309507D01*
X623555Y309676D01*
X622833Y309733D01*
X622826Y309732D01*
Y320190D01*
X622833Y320190D01*
X623555Y320247D01*
X624259Y320416D01*
X624928Y320693D01*
X625545Y321071D01*
X626096Y321541D01*
X626566Y322092D01*
X626944Y322709D01*
X627221Y323378D01*
X627390Y324082D01*
X627433Y324804D01*
X627390Y325526D01*
X627221Y326230D01*
X626944Y326899D01*
X626566Y327516D01*
X626096Y328067D01*
X625545Y328537D01*
X624928Y328915D01*
X624259Y329192D01*
X623555Y329361D01*
X622833Y329418D01*
X622826Y329418D01*
Y339875D01*
X622833Y339875D01*
X623555Y339932D01*
X624259Y340101D01*
X624928Y340378D01*
X625545Y340756D01*
X626096Y341226D01*
X626566Y341777D01*
X626944Y342394D01*
X627221Y343063D01*
X627390Y343767D01*
X627433Y344489D01*
X627390Y345211D01*
X627221Y345915D01*
X626944Y346584D01*
X626566Y347201D01*
X626096Y347752D01*
X625545Y348222D01*
X624928Y348600D01*
X624259Y348877D01*
X623555Y349046D01*
X622833Y349103D01*
X622826Y349103D01*
Y359579D01*
X626590Y359583D01*
X626743Y359620D01*
X626888Y359680D01*
X627023Y359763D01*
X627142Y359865D01*
X627245Y359984D01*
X627327Y360119D01*
X627387Y360264D01*
X627424Y360417D01*
X627433Y360574D01*
X627424Y367931D01*
X627387Y368084D01*
X627327Y368229D01*
X627245Y368364D01*
X627142Y368483D01*
X627023Y368586D01*
X626888Y368668D01*
X626743Y368728D01*
X626590Y368765D01*
X626433Y368774D01*
X622826Y368769D01*
Y413386D01*
G37*
G36*
X612984D02*X622826D01*
Y368769D01*
X619076Y368765D01*
X618923Y368728D01*
X618778Y368668D01*
X618643Y368586D01*
X618524Y368483D01*
X618421Y368364D01*
X618339Y368229D01*
X618279Y368084D01*
X618242Y367931D01*
X618233Y367774D01*
X618242Y360417D01*
X618279Y360264D01*
X618339Y360119D01*
X618421Y359984D01*
X618524Y359865D01*
X618643Y359763D01*
X618778Y359680D01*
X618923Y359620D01*
X619076Y359583D01*
X619233Y359574D01*
X622826Y359579D01*
Y349103D01*
X622111Y349046D01*
X621407Y348877D01*
X620738Y348600D01*
X620121Y348222D01*
X619570Y347752D01*
X619100Y347201D01*
X618722Y346584D01*
X618445Y345915D01*
X618276Y345211D01*
X618219Y344489D01*
X618276Y343767D01*
X618445Y343063D01*
X618722Y342394D01*
X619100Y341777D01*
X619570Y341226D01*
X620121Y340756D01*
X620738Y340378D01*
X621407Y340101D01*
X622111Y339932D01*
X622826Y339875D01*
Y329418D01*
X622111Y329361D01*
X621407Y329192D01*
X620738Y328915D01*
X620121Y328537D01*
X619570Y328067D01*
X619100Y327516D01*
X618722Y326899D01*
X618445Y326230D01*
X618276Y325526D01*
X618219Y324804D01*
X618276Y324082D01*
X618445Y323378D01*
X618722Y322709D01*
X619100Y322092D01*
X619570Y321541D01*
X620121Y321071D01*
X620738Y320693D01*
X621407Y320416D01*
X622111Y320247D01*
X622826Y320190D01*
Y309732D01*
X622111Y309676D01*
X621407Y309507D01*
X620738Y309230D01*
X620121Y308852D01*
X619570Y308382D01*
X619100Y307831D01*
X618722Y307214D01*
X618445Y306545D01*
X618276Y305841D01*
X618219Y305119D01*
X618276Y304397D01*
X618445Y303693D01*
X618722Y303024D01*
X619100Y302407D01*
X619570Y301856D01*
X620121Y301386D01*
X620738Y301008D01*
X621407Y300730D01*
X622111Y300561D01*
X622826Y300505D01*
Y290047D01*
X622111Y289991D01*
X621407Y289822D01*
X620738Y289545D01*
X620121Y289167D01*
X619570Y288697D01*
X619100Y288146D01*
X618722Y287529D01*
X618445Y286860D01*
X618276Y286156D01*
X618219Y285434D01*
X618276Y284712D01*
X618445Y284008D01*
X618722Y283339D01*
X619100Y282722D01*
X619570Y282171D01*
X620121Y281701D01*
X620738Y281323D01*
X621407Y281045D01*
X622111Y280876D01*
X622826Y280820D01*
Y270362D01*
X622111Y270306D01*
X621407Y270137D01*
X620738Y269860D01*
X620121Y269482D01*
X619570Y269012D01*
X619100Y268461D01*
X618722Y267844D01*
X618445Y267175D01*
X618276Y266471D01*
X618219Y265749D01*
X618276Y265027D01*
X618445Y264323D01*
X618722Y263654D01*
X619100Y263037D01*
X619570Y262486D01*
X620121Y262016D01*
X620738Y261638D01*
X621407Y261360D01*
X622111Y261191D01*
X622826Y261135D01*
Y250677D01*
X622111Y250621D01*
X621407Y250452D01*
X620738Y250175D01*
X620121Y249797D01*
X619570Y249327D01*
X619100Y248776D01*
X618722Y248159D01*
X618445Y247490D01*
X618276Y246786D01*
X618219Y246064D01*
X618276Y245342D01*
X618445Y244638D01*
X618722Y243969D01*
X619100Y243352D01*
X619570Y242801D01*
X620121Y242331D01*
X620738Y241953D01*
X621407Y241675D01*
X622111Y241506D01*
X622826Y241450D01*
Y230992D01*
X622111Y230936D01*
X621407Y230767D01*
X620738Y230490D01*
X620121Y230112D01*
X619570Y229642D01*
X619100Y229091D01*
X618722Y228474D01*
X618445Y227805D01*
X618276Y227101D01*
X618219Y226379D01*
X618276Y225657D01*
X618445Y224953D01*
X618722Y224284D01*
X619100Y223667D01*
X619570Y223116D01*
X620121Y222646D01*
X620738Y222268D01*
X621407Y221990D01*
X622111Y221821D01*
X622826Y221765D01*
Y211307D01*
X622111Y211251D01*
X621407Y211082D01*
X620738Y210805D01*
X620121Y210427D01*
X619570Y209957D01*
X619100Y209406D01*
X618722Y208789D01*
X618445Y208120D01*
X618276Y207416D01*
X618219Y206694D01*
X618276Y205972D01*
X618445Y205268D01*
X618722Y204599D01*
X619100Y203982D01*
X619570Y203431D01*
X620121Y202961D01*
X620738Y202583D01*
X621407Y202305D01*
X622111Y202136D01*
X622826Y202080D01*
Y191622D01*
X622111Y191566D01*
X621407Y191397D01*
X620738Y191120D01*
X620121Y190742D01*
X619570Y190272D01*
X619100Y189721D01*
X618722Y189104D01*
X618445Y188435D01*
X618276Y187731D01*
X618219Y187009D01*
X618276Y186287D01*
X618445Y185583D01*
X618722Y184914D01*
X619100Y184297D01*
X619570Y183746D01*
X620121Y183276D01*
X620738Y182898D01*
X621407Y182620D01*
X622111Y182451D01*
X622826Y182395D01*
Y171937D01*
X622111Y171881D01*
X621407Y171712D01*
X620738Y171435D01*
X620121Y171057D01*
X619570Y170587D01*
X619100Y170036D01*
X618722Y169419D01*
X618445Y168750D01*
X618276Y168046D01*
X618219Y167324D01*
X618276Y166602D01*
X618445Y165898D01*
X618722Y165229D01*
X619100Y164612D01*
X619570Y164061D01*
X620121Y163591D01*
X620738Y163213D01*
X621407Y162935D01*
X622111Y162766D01*
X622826Y162710D01*
Y152252D01*
X622111Y152196D01*
X621407Y152027D01*
X620738Y151750D01*
X620121Y151372D01*
X619570Y150902D01*
X619100Y150351D01*
X618722Y149734D01*
X618445Y149065D01*
X618276Y148361D01*
X618219Y147639D01*
X618276Y146917D01*
X618445Y146213D01*
X618722Y145544D01*
X619100Y144927D01*
X619570Y144376D01*
X620121Y143906D01*
X620738Y143528D01*
X621407Y143250D01*
X622111Y143081D01*
X622826Y143025D01*
Y132567D01*
X622111Y132511D01*
X621407Y132342D01*
X620738Y132065D01*
X620121Y131687D01*
X619570Y131217D01*
X619100Y130666D01*
X618722Y130049D01*
X618445Y129380D01*
X618276Y128676D01*
X618219Y127954D01*
X618276Y127232D01*
X618445Y126528D01*
X618722Y125859D01*
X619100Y125242D01*
X619570Y124691D01*
X620121Y124221D01*
X620738Y123843D01*
X621407Y123565D01*
X622111Y123396D01*
X622826Y123340D01*
Y112883D01*
X622111Y112826D01*
X621407Y112657D01*
X620738Y112380D01*
X620121Y112002D01*
X619570Y111532D01*
X619100Y110981D01*
X618722Y110364D01*
X618445Y109695D01*
X618276Y108991D01*
X618219Y108269D01*
X618276Y107547D01*
X618445Y106843D01*
X618722Y106174D01*
X619100Y105557D01*
X619570Y105006D01*
X620121Y104536D01*
X620738Y104158D01*
X621407Y103881D01*
X622111Y103712D01*
X622826Y103655D01*
Y93197D01*
X622111Y93141D01*
X621407Y92972D01*
X620738Y92695D01*
X620121Y92317D01*
X619570Y91847D01*
X619100Y91296D01*
X618722Y90679D01*
X618445Y90010D01*
X618276Y89306D01*
X618219Y88584D01*
X618276Y87862D01*
X618445Y87158D01*
X618722Y86489D01*
X619100Y85872D01*
X619570Y85321D01*
X620121Y84851D01*
X620738Y84473D01*
X621407Y84196D01*
X622111Y84026D01*
X622826Y83970D01*
Y73512D01*
X622111Y73456D01*
X621407Y73287D01*
X620738Y73010D01*
X620121Y72632D01*
X619570Y72162D01*
X619100Y71611D01*
X618722Y70994D01*
X618445Y70325D01*
X618276Y69621D01*
X618219Y68899D01*
X618276Y68177D01*
X618445Y67473D01*
X618722Y66804D01*
X619100Y66187D01*
X619570Y65636D01*
X620121Y65166D01*
X620738Y64788D01*
X621407Y64510D01*
X622111Y64341D01*
X622826Y64285D01*
Y19681D01*
X612984D01*
Y93812D01*
X612991Y93812D01*
X613713Y93868D01*
X614417Y94037D01*
X615086Y94315D01*
X615703Y94693D01*
X616254Y95163D01*
X616724Y95714D01*
X617102Y96331D01*
X617379Y97000D01*
X617548Y97704D01*
X617591Y98426D01*
X617548Y99148D01*
X617379Y99852D01*
X617102Y100521D01*
X616724Y101138D01*
X616254Y101689D01*
X615703Y102159D01*
X615086Y102537D01*
X614417Y102814D01*
X613713Y102983D01*
X612991Y103040D01*
X612984Y103039D01*
Y113497D01*
X612991Y113497D01*
X613713Y113553D01*
X614417Y113722D01*
X615086Y114000D01*
X615703Y114378D01*
X616254Y114848D01*
X616724Y115399D01*
X617102Y116016D01*
X617379Y116685D01*
X617548Y117389D01*
X617591Y118111D01*
X617548Y118833D01*
X617379Y119537D01*
X617102Y120206D01*
X616724Y120823D01*
X616254Y121374D01*
X615703Y121844D01*
X615086Y122222D01*
X614417Y122499D01*
X613713Y122668D01*
X612991Y122725D01*
X612984Y122724D01*
Y133182D01*
X612991Y133181D01*
X613713Y133238D01*
X614417Y133407D01*
X615086Y133684D01*
X615703Y134063D01*
X616254Y134533D01*
X616724Y135084D01*
X617102Y135701D01*
X617379Y136370D01*
X617548Y137074D01*
X617591Y137796D01*
X617548Y138517D01*
X617379Y139222D01*
X617102Y139890D01*
X616724Y140508D01*
X616254Y141058D01*
X615703Y141529D01*
X615086Y141907D01*
X614417Y142184D01*
X613713Y142353D01*
X612991Y142410D01*
X612984Y142409D01*
Y152867D01*
X612991Y152867D01*
X613713Y152923D01*
X614417Y153092D01*
X615086Y153369D01*
X615703Y153748D01*
X616254Y154218D01*
X616724Y154769D01*
X617102Y155386D01*
X617379Y156055D01*
X617548Y156759D01*
X617591Y157481D01*
X617548Y158203D01*
X617379Y158907D01*
X617102Y159576D01*
X616724Y160193D01*
X616254Y160743D01*
X615703Y161214D01*
X615086Y161592D01*
X614417Y161869D01*
X613713Y162038D01*
X612991Y162095D01*
X612984Y162094D01*
Y172553D01*
X612991Y172553D01*
X613713Y172609D01*
X614417Y172778D01*
X615086Y173056D01*
X615703Y173434D01*
X616254Y173904D01*
X616724Y174455D01*
X617102Y175072D01*
X617379Y175741D01*
X617548Y176445D01*
X617591Y177167D01*
X617548Y177889D01*
X617379Y178593D01*
X617102Y179262D01*
X616724Y179879D01*
X616254Y180430D01*
X615703Y180900D01*
X615086Y181278D01*
X614417Y181555D01*
X613713Y181724D01*
X612991Y181781D01*
X612984Y181780D01*
Y192238D01*
X612991Y192238D01*
X613713Y192294D01*
X614417Y192463D01*
X615086Y192741D01*
X615703Y193119D01*
X616254Y193589D01*
X616724Y194140D01*
X617102Y194757D01*
X617379Y195426D01*
X617548Y196130D01*
X617591Y196852D01*
X617548Y197574D01*
X617379Y198278D01*
X617102Y198947D01*
X616724Y199564D01*
X616254Y200115D01*
X615703Y200585D01*
X615086Y200963D01*
X614417Y201240D01*
X613713Y201409D01*
X612991Y201466D01*
X612984Y201465D01*
Y211923D01*
X612991Y211923D01*
X613713Y211979D01*
X614417Y212148D01*
X615086Y212426D01*
X615703Y212804D01*
X616254Y213274D01*
X616724Y213825D01*
X617102Y214442D01*
X617379Y215111D01*
X617548Y215815D01*
X617591Y216537D01*
X617548Y217259D01*
X617379Y217963D01*
X617102Y218632D01*
X616724Y219249D01*
X616254Y219800D01*
X615703Y220270D01*
X615086Y220648D01*
X614417Y220925D01*
X613713Y221094D01*
X612991Y221151D01*
X612984Y221150D01*
Y231607D01*
X612991Y231607D01*
X613713Y231663D01*
X614417Y231832D01*
X615086Y232110D01*
X615703Y232488D01*
X616254Y232958D01*
X616724Y233509D01*
X617102Y234126D01*
X617379Y234795D01*
X617548Y235499D01*
X617591Y236221D01*
X617548Y236943D01*
X617379Y237647D01*
X617102Y238316D01*
X616724Y238933D01*
X616254Y239484D01*
X615703Y239954D01*
X615086Y240332D01*
X614417Y240609D01*
X613713Y240778D01*
X612991Y240835D01*
X612984Y240834D01*
Y251292D01*
X612991Y251292D01*
X613713Y251348D01*
X614417Y251517D01*
X615086Y251795D01*
X615703Y252173D01*
X616254Y252643D01*
X616724Y253194D01*
X617102Y253811D01*
X617379Y254480D01*
X617548Y255184D01*
X617591Y255906D01*
X617548Y256628D01*
X617379Y257332D01*
X617102Y258001D01*
X616724Y258618D01*
X616254Y259169D01*
X615703Y259639D01*
X615086Y260017D01*
X614417Y260294D01*
X613713Y260463D01*
X612991Y260520D01*
X612984Y260519D01*
Y270977D01*
X612991Y270977D01*
X613713Y271034D01*
X614417Y271203D01*
X615086Y271480D01*
X615703Y271858D01*
X616254Y272328D01*
X616724Y272879D01*
X617102Y273496D01*
X617379Y274165D01*
X617548Y274869D01*
X617591Y275591D01*
X617548Y276313D01*
X617379Y277017D01*
X617102Y277686D01*
X616724Y278303D01*
X616254Y278854D01*
X615703Y279324D01*
X615086Y279702D01*
X614417Y279979D01*
X613713Y280148D01*
X612991Y280205D01*
X612984Y280205D01*
Y290662D01*
X612991Y290662D01*
X613713Y290719D01*
X614417Y290888D01*
X615086Y291165D01*
X615703Y291543D01*
X616254Y292013D01*
X616724Y292564D01*
X617102Y293181D01*
X617379Y293850D01*
X617548Y294554D01*
X617591Y295276D01*
X617548Y295998D01*
X617379Y296702D01*
X617102Y297371D01*
X616724Y297988D01*
X616254Y298539D01*
X615703Y299009D01*
X615086Y299387D01*
X614417Y299664D01*
X613713Y299833D01*
X612991Y299890D01*
X612984Y299890D01*
Y310347D01*
X612991Y310347D01*
X613713Y310403D01*
X614417Y310572D01*
X615086Y310850D01*
X615703Y311228D01*
X616254Y311698D01*
X616724Y312249D01*
X617102Y312866D01*
X617379Y313535D01*
X617548Y314239D01*
X617591Y314961D01*
X617548Y315683D01*
X617379Y316387D01*
X617102Y317056D01*
X616724Y317673D01*
X616254Y318224D01*
X615703Y318694D01*
X615086Y319072D01*
X614417Y319349D01*
X613713Y319518D01*
X612991Y319575D01*
X612984Y319574D01*
Y330033D01*
X612991Y330033D01*
X613713Y330089D01*
X614417Y330258D01*
X615086Y330536D01*
X615703Y330914D01*
X616254Y331384D01*
X616724Y331935D01*
X617102Y332552D01*
X617379Y333221D01*
X617548Y333925D01*
X617591Y334647D01*
X617548Y335369D01*
X617379Y336073D01*
X617102Y336742D01*
X616724Y337359D01*
X616254Y337910D01*
X615703Y338380D01*
X615086Y338758D01*
X614417Y339035D01*
X613713Y339204D01*
X612991Y339261D01*
X612984Y339260D01*
Y349718D01*
X612991Y349718D01*
X613713Y349775D01*
X614417Y349944D01*
X615086Y350221D01*
X615703Y350599D01*
X616254Y351069D01*
X616724Y351620D01*
X617102Y352237D01*
X617379Y352906D01*
X617548Y353610D01*
X617591Y354332D01*
X617548Y355054D01*
X617379Y355758D01*
X617102Y356427D01*
X616724Y357044D01*
X616254Y357595D01*
X615703Y358065D01*
X615086Y358443D01*
X614417Y358720D01*
X613713Y358889D01*
X612991Y358946D01*
X612984Y358946D01*
Y413386D01*
G37*
G36*
X545000D02*X612984D01*
Y358946D01*
X612269Y358889D01*
X611565Y358720D01*
X610896Y358443D01*
X610279Y358065D01*
X609728Y357595D01*
X609258Y357044D01*
X608880Y356427D01*
X608603Y355758D01*
X608434Y355054D01*
X608377Y354332D01*
X608434Y353610D01*
X608603Y352906D01*
X608880Y352237D01*
X609258Y351620D01*
X609728Y351069D01*
X610279Y350599D01*
X610896Y350221D01*
X611565Y349944D01*
X612269Y349775D01*
X612984Y349718D01*
Y339260D01*
X612269Y339204D01*
X611565Y339035D01*
X610896Y338758D01*
X610279Y338380D01*
X609728Y337910D01*
X609258Y337359D01*
X608880Y336742D01*
X608603Y336073D01*
X608434Y335369D01*
X608377Y334647D01*
X608434Y333925D01*
X608603Y333221D01*
X608880Y332552D01*
X609258Y331935D01*
X609728Y331384D01*
X610279Y330914D01*
X610896Y330536D01*
X611565Y330258D01*
X612269Y330089D01*
X612984Y330033D01*
Y319574D01*
X612269Y319518D01*
X611565Y319349D01*
X610896Y319072D01*
X610279Y318694D01*
X609728Y318224D01*
X609258Y317673D01*
X608880Y317056D01*
X608603Y316387D01*
X608434Y315683D01*
X608377Y314961D01*
X608434Y314239D01*
X608603Y313535D01*
X608880Y312866D01*
X609258Y312249D01*
X609728Y311698D01*
X610279Y311228D01*
X610896Y310850D01*
X611565Y310572D01*
X612269Y310403D01*
X612984Y310347D01*
Y299890D01*
X612269Y299833D01*
X611565Y299664D01*
X610896Y299387D01*
X610279Y299009D01*
X609728Y298539D01*
X609258Y297988D01*
X608880Y297371D01*
X608603Y296702D01*
X608434Y295998D01*
X608377Y295276D01*
X608434Y294554D01*
X608603Y293850D01*
X608880Y293181D01*
X609258Y292564D01*
X609728Y292013D01*
X610279Y291543D01*
X610896Y291165D01*
X611565Y290888D01*
X612269Y290719D01*
X612984Y290662D01*
Y280205D01*
X612269Y280148D01*
X611565Y279979D01*
X610896Y279702D01*
X610279Y279324D01*
X609728Y278854D01*
X609258Y278303D01*
X608880Y277686D01*
X608603Y277017D01*
X608434Y276313D01*
X608377Y275591D01*
X608434Y274869D01*
X608603Y274165D01*
X608880Y273496D01*
X609258Y272879D01*
X609728Y272328D01*
X610279Y271858D01*
X610896Y271480D01*
X611565Y271203D01*
X612269Y271034D01*
X612984Y270977D01*
Y260519D01*
X612269Y260463D01*
X611565Y260294D01*
X610896Y260017D01*
X610279Y259639D01*
X609728Y259169D01*
X609258Y258618D01*
X608880Y258001D01*
X608603Y257332D01*
X608434Y256628D01*
X608377Y255906D01*
X608434Y255184D01*
X608603Y254480D01*
X608880Y253811D01*
X609258Y253194D01*
X609728Y252643D01*
X610279Y252173D01*
X610896Y251795D01*
X611565Y251517D01*
X612269Y251348D01*
X612984Y251292D01*
Y240834D01*
X612269Y240778D01*
X611565Y240609D01*
X610896Y240332D01*
X610279Y239954D01*
X609728Y239484D01*
X609258Y238933D01*
X608880Y238316D01*
X608603Y237647D01*
X608434Y236943D01*
X608377Y236221D01*
X608434Y235499D01*
X608603Y234795D01*
X608880Y234126D01*
X609258Y233509D01*
X609728Y232958D01*
X610279Y232488D01*
X610896Y232110D01*
X611565Y231832D01*
X612269Y231663D01*
X612984Y231607D01*
Y221150D01*
X612269Y221094D01*
X611565Y220925D01*
X610896Y220648D01*
X610279Y220270D01*
X609728Y219800D01*
X609258Y219249D01*
X608880Y218632D01*
X608603Y217963D01*
X608434Y217259D01*
X608377Y216537D01*
X608434Y215815D01*
X608603Y215111D01*
X608880Y214442D01*
X609258Y213825D01*
X609728Y213274D01*
X610279Y212804D01*
X610896Y212426D01*
X611565Y212148D01*
X612269Y211979D01*
X612984Y211923D01*
Y201465D01*
X612269Y201409D01*
X611565Y201240D01*
X610896Y200963D01*
X610279Y200585D01*
X609728Y200115D01*
X609258Y199564D01*
X608880Y198947D01*
X608603Y198278D01*
X608434Y197574D01*
X608377Y196852D01*
X608434Y196130D01*
X608603Y195426D01*
X608880Y194757D01*
X609258Y194140D01*
X609728Y193589D01*
X610279Y193119D01*
X610896Y192741D01*
X611565Y192463D01*
X612269Y192294D01*
X612984Y192238D01*
Y181780D01*
X612269Y181724D01*
X611565Y181555D01*
X610896Y181278D01*
X610279Y180900D01*
X609728Y180430D01*
X609258Y179879D01*
X608880Y179262D01*
X608603Y178593D01*
X608434Y177889D01*
X608377Y177167D01*
X608434Y176445D01*
X608603Y175741D01*
X608880Y175072D01*
X609258Y174455D01*
X609728Y173904D01*
X610279Y173434D01*
X610896Y173056D01*
X611565Y172778D01*
X612269Y172609D01*
X612984Y172553D01*
Y162094D01*
X612269Y162038D01*
X611565Y161869D01*
X610896Y161592D01*
X610279Y161214D01*
X609728Y160743D01*
X609258Y160193D01*
X608880Y159576D01*
X608603Y158907D01*
X608434Y158203D01*
X608377Y157481D01*
X608434Y156759D01*
X608603Y156055D01*
X608880Y155386D01*
X609258Y154769D01*
X609728Y154218D01*
X610279Y153748D01*
X610896Y153369D01*
X611565Y153092D01*
X612269Y152923D01*
X612984Y152867D01*
Y142409D01*
X612269Y142353D01*
X611565Y142184D01*
X610896Y141907D01*
X610279Y141529D01*
X609728Y141058D01*
X609258Y140508D01*
X608880Y139890D01*
X608603Y139222D01*
X608434Y138517D01*
X608377Y137796D01*
X608434Y137074D01*
X608603Y136370D01*
X608880Y135701D01*
X609258Y135084D01*
X609728Y134533D01*
X610279Y134063D01*
X610896Y133684D01*
X611565Y133407D01*
X612269Y133238D01*
X612984Y133182D01*
Y122724D01*
X612269Y122668D01*
X611565Y122499D01*
X610896Y122222D01*
X610279Y121844D01*
X609728Y121374D01*
X609258Y120823D01*
X608880Y120206D01*
X608603Y119537D01*
X608434Y118833D01*
X608377Y118111D01*
X608434Y117389D01*
X608603Y116685D01*
X608880Y116016D01*
X609258Y115399D01*
X609728Y114848D01*
X610279Y114378D01*
X610896Y114000D01*
X611565Y113722D01*
X612269Y113553D01*
X612984Y113497D01*
Y103039D01*
X612269Y102983D01*
X611565Y102814D01*
X610896Y102537D01*
X610279Y102159D01*
X609728Y101689D01*
X609258Y101138D01*
X608880Y100521D01*
X608603Y99852D01*
X608434Y99148D01*
X608377Y98426D01*
X608434Y97704D01*
X608603Y97000D01*
X608880Y96331D01*
X609258Y95714D01*
X609728Y95163D01*
X610279Y94693D01*
X610896Y94315D01*
X611565Y94037D01*
X612269Y93868D01*
X612984Y93812D01*
Y19681D01*
X545000D01*
Y93575D01*
X548657Y93580D01*
X548810Y93617D01*
X548955Y93677D01*
X549090Y93759D01*
X549209Y93862D01*
X549312Y93981D01*
X549394Y94115D01*
X549454Y94261D01*
X549491Y94414D01*
X549500Y94571D01*
X549491Y101728D01*
X549454Y101881D01*
X549394Y102026D01*
X549312Y102160D01*
X549209Y102280D01*
X549090Y102382D01*
X548955Y102465D01*
X548810Y102525D01*
X548657Y102562D01*
X548500Y102571D01*
X545000Y102566D01*
Y413386D01*
G37*
G36*
X454993D02*X545000D01*
Y102566D01*
X541343Y102562D01*
X541190Y102525D01*
X541045Y102465D01*
X540910Y102382D01*
X540791Y102280D01*
X540688Y102160D01*
X540606Y102026D01*
X540546Y101881D01*
X540509Y101728D01*
X540500Y101571D01*
X540509Y94414D01*
X540546Y94261D01*
X540606Y94115D01*
X540688Y93981D01*
X540791Y93862D01*
X540910Y93759D01*
X541045Y93677D01*
X541190Y93617D01*
X541343Y93580D01*
X541500Y93571D01*
X545000Y93575D01*
Y19681D01*
X454993D01*
Y93558D01*
X455000Y93557D01*
X455706Y93613D01*
X456395Y93778D01*
X457049Y94049D01*
X457653Y94419D01*
X458192Y94879D01*
X458652Y95418D01*
X459022Y96022D01*
X459293Y96676D01*
X459458Y97365D01*
X459500Y98071D01*
X459458Y98777D01*
X459293Y99466D01*
X459022Y100120D01*
X458652Y100724D01*
X458192Y101263D01*
X457653Y101723D01*
X457049Y102093D01*
X456395Y102364D01*
X455706Y102529D01*
X455000Y102585D01*
X454993Y102584D01*
Y413386D01*
G37*
G36*
X399994D02*X454993D01*
Y102584D01*
X454294Y102529D01*
X453605Y102364D01*
X452951Y102093D01*
X452347Y101723D01*
X451808Y101263D01*
X451348Y100724D01*
X450978Y100120D01*
X450707Y99466D01*
X450542Y98777D01*
X450486Y98071D01*
X450542Y97365D01*
X450707Y96676D01*
X450978Y96022D01*
X451348Y95418D01*
X451808Y94879D01*
X452347Y94419D01*
X452951Y94049D01*
X453605Y93778D01*
X454294Y93613D01*
X454993Y93558D01*
Y19681D01*
X399994D01*
Y64059D01*
X400000Y64059D01*
X400628Y64108D01*
X401240Y64255D01*
X401822Y64496D01*
X402358Y64825D01*
X402837Y65234D01*
X403246Y65712D01*
X403575Y66249D01*
X403816Y66831D01*
X403963Y67443D01*
X404000Y68071D01*
X403963Y68699D01*
X403816Y69311D01*
X403575Y69892D01*
X403246Y70429D01*
X402837Y70908D01*
X402358Y71317D01*
X401822Y71646D01*
X401240Y71887D01*
X400628Y72034D01*
X400000Y72083D01*
X399994Y72083D01*
Y84059D01*
X400000Y84059D01*
X400628Y84108D01*
X401240Y84255D01*
X401822Y84496D01*
X402358Y84825D01*
X402837Y85234D01*
X403246Y85712D01*
X403575Y86249D01*
X403816Y86831D01*
X403963Y87443D01*
X404000Y88071D01*
X403963Y88699D01*
X403816Y89311D01*
X403575Y89892D01*
X403246Y90429D01*
X402837Y90908D01*
X402358Y91317D01*
X401822Y91646D01*
X401240Y91887D01*
X400628Y92034D01*
X400000Y92083D01*
X399994Y92083D01*
Y111559D01*
X400000Y111559D01*
X400628Y111608D01*
X401240Y111755D01*
X401822Y111996D01*
X402358Y112325D01*
X402837Y112734D01*
X403246Y113212D01*
X403575Y113749D01*
X403816Y114331D01*
X403963Y114943D01*
X404000Y115571D01*
X403963Y116199D01*
X403816Y116811D01*
X403575Y117392D01*
X403246Y117929D01*
X402837Y118408D01*
X402358Y118817D01*
X401822Y119146D01*
X401240Y119387D01*
X400628Y119534D01*
X400000Y119583D01*
X399994Y119583D01*
Y121559D01*
X400000Y121559D01*
X400628Y121608D01*
X401240Y121755D01*
X401822Y121996D01*
X402358Y122325D01*
X402837Y122734D01*
X403246Y123212D01*
X403575Y123749D01*
X403816Y124331D01*
X403963Y124943D01*
X404000Y125571D01*
X403963Y126199D01*
X403816Y126811D01*
X403575Y127392D01*
X403246Y127929D01*
X402837Y128408D01*
X402358Y128817D01*
X401822Y129146D01*
X401240Y129387D01*
X400628Y129534D01*
X400000Y129583D01*
X399994Y129583D01*
Y131559D01*
X400000Y131559D01*
X400628Y131608D01*
X401240Y131755D01*
X401822Y131996D01*
X402358Y132325D01*
X402837Y132734D01*
X403246Y133212D01*
X403575Y133749D01*
X403816Y134331D01*
X403963Y134943D01*
X404000Y135571D01*
X403963Y136199D01*
X403816Y136811D01*
X403575Y137392D01*
X403246Y137929D01*
X402837Y138408D01*
X402358Y138817D01*
X401822Y139146D01*
X401240Y139387D01*
X400628Y139534D01*
X400000Y139583D01*
X399994Y139583D01*
Y141559D01*
X400000Y141559D01*
X400628Y141608D01*
X401240Y141755D01*
X401822Y141996D01*
X402358Y142325D01*
X402837Y142734D01*
X403246Y143212D01*
X403575Y143749D01*
X403816Y144331D01*
X403963Y144943D01*
X404000Y145571D01*
X403963Y146199D01*
X403816Y146811D01*
X403575Y147392D01*
X403246Y147929D01*
X402837Y148408D01*
X402358Y148817D01*
X401822Y149146D01*
X401240Y149387D01*
X400628Y149534D01*
X400000Y149583D01*
X399994Y149583D01*
Y151559D01*
X400000Y151559D01*
X400628Y151608D01*
X401240Y151755D01*
X401822Y151996D01*
X402358Y152325D01*
X402837Y152734D01*
X403246Y153212D01*
X403575Y153749D01*
X403816Y154331D01*
X403963Y154943D01*
X404000Y155571D01*
X403963Y156199D01*
X403816Y156811D01*
X403575Y157392D01*
X403246Y157929D01*
X402837Y158408D01*
X402358Y158817D01*
X401822Y159146D01*
X401240Y159387D01*
X400628Y159534D01*
X400000Y159583D01*
X399994Y159583D01*
Y161559D01*
X400000Y161559D01*
X400628Y161608D01*
X401240Y161755D01*
X401822Y161996D01*
X402358Y162325D01*
X402837Y162734D01*
X403246Y163212D01*
X403575Y163749D01*
X403816Y164331D01*
X403963Y164943D01*
X404000Y165571D01*
X403963Y166199D01*
X403816Y166811D01*
X403575Y167392D01*
X403246Y167929D01*
X402837Y168408D01*
X402358Y168817D01*
X401822Y169146D01*
X401240Y169387D01*
X400628Y169534D01*
X400000Y169583D01*
X399994Y169583D01*
Y171559D01*
X400000Y171559D01*
X400628Y171608D01*
X401240Y171755D01*
X401822Y171996D01*
X402358Y172325D01*
X402837Y172734D01*
X403246Y173212D01*
X403575Y173749D01*
X403816Y174331D01*
X403963Y174943D01*
X404000Y175571D01*
X403963Y176199D01*
X403816Y176811D01*
X403575Y177392D01*
X403246Y177929D01*
X402837Y178408D01*
X402358Y178817D01*
X401822Y179146D01*
X401240Y179387D01*
X400628Y179534D01*
X400000Y179583D01*
X399994Y179583D01*
Y181559D01*
X400000Y181559D01*
X400628Y181608D01*
X401240Y181755D01*
X401822Y181996D01*
X402358Y182325D01*
X402837Y182734D01*
X403246Y183212D01*
X403575Y183749D01*
X403816Y184331D01*
X403963Y184943D01*
X404000Y185571D01*
X403963Y186199D01*
X403816Y186811D01*
X403575Y187392D01*
X403246Y187929D01*
X402837Y188408D01*
X402358Y188817D01*
X401822Y189146D01*
X401240Y189387D01*
X400628Y189534D01*
X400000Y189583D01*
X399994Y189583D01*
Y191559D01*
X400000Y191559D01*
X400628Y191608D01*
X401240Y191755D01*
X401822Y191996D01*
X402358Y192325D01*
X402837Y192734D01*
X403246Y193212D01*
X403575Y193749D01*
X403816Y194331D01*
X403963Y194943D01*
X404000Y195571D01*
X403963Y196199D01*
X403816Y196811D01*
X403575Y197392D01*
X403246Y197929D01*
X402837Y198408D01*
X402358Y198817D01*
X401822Y199146D01*
X401240Y199387D01*
X400628Y199534D01*
X400000Y199583D01*
X399994Y199583D01*
Y201559D01*
X400000Y201559D01*
X400628Y201608D01*
X401240Y201755D01*
X401822Y201996D01*
X402358Y202325D01*
X402837Y202734D01*
X403246Y203212D01*
X403575Y203749D01*
X403816Y204331D01*
X403963Y204943D01*
X404000Y205571D01*
X403963Y206199D01*
X403816Y206811D01*
X403575Y207392D01*
X403246Y207929D01*
X402837Y208408D01*
X402358Y208817D01*
X401822Y209146D01*
X401240Y209387D01*
X400628Y209534D01*
X400000Y209583D01*
X399994Y209583D01*
Y211559D01*
X400000Y211559D01*
X400628Y211608D01*
X401240Y211755D01*
X401822Y211996D01*
X402358Y212325D01*
X402837Y212734D01*
X403246Y213212D01*
X403575Y213749D01*
X403816Y214331D01*
X403963Y214943D01*
X404000Y215571D01*
X403963Y216199D01*
X403816Y216811D01*
X403575Y217392D01*
X403246Y217929D01*
X402837Y218408D01*
X402358Y218817D01*
X401822Y219146D01*
X401240Y219387D01*
X400628Y219534D01*
X400000Y219583D01*
X399994Y219583D01*
Y221559D01*
X400000Y221559D01*
X400628Y221608D01*
X401240Y221755D01*
X401822Y221996D01*
X402358Y222325D01*
X402837Y222734D01*
X403246Y223212D01*
X403575Y223749D01*
X403816Y224331D01*
X403963Y224943D01*
X404000Y225571D01*
X403963Y226199D01*
X403816Y226811D01*
X403575Y227392D01*
X403246Y227929D01*
X402837Y228408D01*
X402358Y228817D01*
X401822Y229146D01*
X401240Y229387D01*
X400628Y229534D01*
X400000Y229583D01*
X399994Y229583D01*
Y231559D01*
X400000Y231559D01*
X400628Y231608D01*
X401240Y231755D01*
X401822Y231996D01*
X402358Y232325D01*
X402837Y232734D01*
X403246Y233212D01*
X403575Y233749D01*
X403816Y234331D01*
X403963Y234943D01*
X404000Y235571D01*
X403963Y236199D01*
X403816Y236811D01*
X403575Y237392D01*
X403246Y237929D01*
X402837Y238408D01*
X402358Y238817D01*
X401822Y239146D01*
X401240Y239387D01*
X400628Y239534D01*
X400000Y239583D01*
X399994Y239583D01*
Y241559D01*
X400000Y241559D01*
X400628Y241608D01*
X401240Y241755D01*
X401822Y241996D01*
X402358Y242325D01*
X402837Y242734D01*
X403246Y243212D01*
X403575Y243749D01*
X403816Y244331D01*
X403963Y244943D01*
X404000Y245571D01*
X403963Y246199D01*
X403816Y246811D01*
X403575Y247392D01*
X403246Y247929D01*
X402837Y248408D01*
X402358Y248817D01*
X401822Y249146D01*
X401240Y249387D01*
X400628Y249534D01*
X400000Y249583D01*
X399994Y249583D01*
Y251559D01*
X400000Y251559D01*
X400628Y251608D01*
X401240Y251755D01*
X401822Y251996D01*
X402358Y252325D01*
X402837Y252734D01*
X403246Y253212D01*
X403575Y253749D01*
X403816Y254331D01*
X403963Y254943D01*
X404000Y255571D01*
X403963Y256199D01*
X403816Y256811D01*
X403575Y257392D01*
X403246Y257929D01*
X402837Y258408D01*
X402358Y258817D01*
X401822Y259146D01*
X401240Y259387D01*
X400628Y259534D01*
X400000Y259583D01*
X399994Y259583D01*
Y261559D01*
X400000Y261559D01*
X400628Y261608D01*
X401240Y261755D01*
X401822Y261996D01*
X402358Y262325D01*
X402837Y262734D01*
X403246Y263212D01*
X403575Y263749D01*
X403816Y264331D01*
X403963Y264943D01*
X404000Y265571D01*
X403963Y266199D01*
X403816Y266811D01*
X403575Y267392D01*
X403246Y267929D01*
X402837Y268408D01*
X402358Y268817D01*
X401822Y269146D01*
X401240Y269387D01*
X400628Y269534D01*
X400000Y269583D01*
X399994Y269583D01*
Y271559D01*
X400000Y271559D01*
X400628Y271608D01*
X401240Y271755D01*
X401822Y271996D01*
X402358Y272325D01*
X402837Y272734D01*
X403246Y273212D01*
X403575Y273749D01*
X403816Y274331D01*
X403963Y274943D01*
X404000Y275571D01*
X403963Y276199D01*
X403816Y276811D01*
X403575Y277392D01*
X403246Y277929D01*
X402837Y278408D01*
X402358Y278817D01*
X401822Y279146D01*
X401240Y279387D01*
X400628Y279534D01*
X400000Y279583D01*
X399994Y279583D01*
Y281559D01*
X400000Y281559D01*
X400628Y281608D01*
X401240Y281755D01*
X401822Y281996D01*
X402358Y282325D01*
X402837Y282734D01*
X403246Y283212D01*
X403575Y283749D01*
X403816Y284331D01*
X403963Y284943D01*
X404000Y285571D01*
X403963Y286199D01*
X403816Y286811D01*
X403575Y287392D01*
X403246Y287929D01*
X402837Y288408D01*
X402358Y288817D01*
X401822Y289146D01*
X401240Y289387D01*
X400628Y289534D01*
X400000Y289583D01*
X399994Y289583D01*
Y291559D01*
X400000Y291559D01*
X400628Y291608D01*
X401240Y291755D01*
X401822Y291996D01*
X402358Y292325D01*
X402837Y292734D01*
X403246Y293212D01*
X403575Y293749D01*
X403816Y294331D01*
X403963Y294943D01*
X404000Y295571D01*
X403963Y296199D01*
X403816Y296811D01*
X403575Y297392D01*
X403246Y297929D01*
X402837Y298408D01*
X402358Y298817D01*
X401822Y299146D01*
X401240Y299387D01*
X400628Y299534D01*
X400000Y299583D01*
X399994Y299583D01*
Y301559D01*
X400000Y301559D01*
X400628Y301608D01*
X401240Y301755D01*
X401822Y301996D01*
X402358Y302325D01*
X402837Y302734D01*
X403246Y303212D01*
X403575Y303749D01*
X403816Y304331D01*
X403963Y304943D01*
X404000Y305571D01*
X403963Y306199D01*
X403816Y306811D01*
X403575Y307392D01*
X403246Y307929D01*
X402837Y308408D01*
X402358Y308817D01*
X401822Y309146D01*
X401240Y309387D01*
X400628Y309534D01*
X400000Y309583D01*
X399994Y309583D01*
Y311559D01*
X400000Y311559D01*
X400628Y311608D01*
X401240Y311755D01*
X401822Y311996D01*
X402358Y312325D01*
X402837Y312734D01*
X403246Y313212D01*
X403575Y313749D01*
X403816Y314331D01*
X403963Y314943D01*
X404000Y315571D01*
X403963Y316199D01*
X403816Y316811D01*
X403575Y317392D01*
X403246Y317929D01*
X402837Y318408D01*
X402358Y318817D01*
X401822Y319146D01*
X401240Y319387D01*
X400628Y319534D01*
X400000Y319583D01*
X399994Y319583D01*
Y321559D01*
X400000Y321559D01*
X400628Y321608D01*
X401240Y321755D01*
X401822Y321996D01*
X402358Y322325D01*
X402837Y322734D01*
X403246Y323212D01*
X403575Y323749D01*
X403816Y324331D01*
X403963Y324943D01*
X404000Y325571D01*
X403963Y326199D01*
X403816Y326811D01*
X403575Y327392D01*
X403246Y327929D01*
X402837Y328408D01*
X402358Y328817D01*
X401822Y329146D01*
X401240Y329387D01*
X400628Y329534D01*
X400000Y329583D01*
X399994Y329583D01*
Y331559D01*
X400000Y331559D01*
X400628Y331608D01*
X401240Y331755D01*
X401822Y331996D01*
X402358Y332325D01*
X402837Y332734D01*
X403246Y333212D01*
X403575Y333749D01*
X403816Y334331D01*
X403963Y334943D01*
X404000Y335571D01*
X403963Y336199D01*
X403816Y336811D01*
X403575Y337392D01*
X403246Y337929D01*
X402837Y338408D01*
X402358Y338817D01*
X401822Y339146D01*
X401240Y339387D01*
X400628Y339534D01*
X400000Y339583D01*
X399994Y339583D01*
Y341559D01*
X400000Y341559D01*
X400628Y341608D01*
X401240Y341755D01*
X401822Y341996D01*
X402358Y342325D01*
X402837Y342734D01*
X403246Y343212D01*
X403575Y343749D01*
X403816Y344331D01*
X403963Y344943D01*
X404000Y345571D01*
X403963Y346199D01*
X403816Y346811D01*
X403575Y347392D01*
X403246Y347929D01*
X402837Y348408D01*
X402358Y348817D01*
X401822Y349146D01*
X401240Y349387D01*
X400628Y349534D01*
X400000Y349583D01*
X399994Y349583D01*
Y351559D01*
X400000Y351559D01*
X400628Y351608D01*
X401240Y351755D01*
X401822Y351996D01*
X402358Y352325D01*
X402837Y352734D01*
X403246Y353212D01*
X403575Y353749D01*
X403816Y354331D01*
X403963Y354943D01*
X404000Y355571D01*
X403963Y356199D01*
X403816Y356811D01*
X403575Y357392D01*
X403246Y357929D01*
X402837Y358408D01*
X402358Y358817D01*
X401822Y359146D01*
X401240Y359387D01*
X400628Y359534D01*
X400000Y359583D01*
X399994Y359583D01*
Y361559D01*
X400000Y361559D01*
X400628Y361608D01*
X401240Y361755D01*
X401822Y361996D01*
X402358Y362325D01*
X402837Y362734D01*
X403246Y363212D01*
X403575Y363749D01*
X403816Y364331D01*
X403963Y364943D01*
X404000Y365571D01*
X403963Y366199D01*
X403816Y366811D01*
X403575Y367392D01*
X403246Y367929D01*
X402837Y368408D01*
X402358Y368817D01*
X401822Y369146D01*
X401240Y369387D01*
X400628Y369534D01*
X400000Y369583D01*
X399994Y369583D01*
Y413386D01*
G37*
G36*
X390000D02*X399994D01*
Y369583D01*
X399372Y369534D01*
X398760Y369387D01*
X398178Y369146D01*
X397642Y368817D01*
X397163Y368408D01*
X396754Y367929D01*
X396425Y367392D01*
X396184Y366811D01*
X396037Y366199D01*
X395988Y365571D01*
X396037Y364943D01*
X396184Y364331D01*
X396425Y363749D01*
X396754Y363212D01*
X397163Y362734D01*
X397642Y362325D01*
X398178Y361996D01*
X398760Y361755D01*
X399372Y361608D01*
X399994Y361559D01*
Y359583D01*
X399372Y359534D01*
X398760Y359387D01*
X398178Y359146D01*
X397642Y358817D01*
X397163Y358408D01*
X396754Y357929D01*
X396425Y357392D01*
X396184Y356811D01*
X396037Y356199D01*
X395988Y355571D01*
X396037Y354943D01*
X396184Y354331D01*
X396425Y353749D01*
X396754Y353212D01*
X397163Y352734D01*
X397642Y352325D01*
X398178Y351996D01*
X398760Y351755D01*
X399372Y351608D01*
X399994Y351559D01*
Y349583D01*
X399372Y349534D01*
X398760Y349387D01*
X398178Y349146D01*
X397642Y348817D01*
X397163Y348408D01*
X396754Y347929D01*
X396425Y347392D01*
X396184Y346811D01*
X396037Y346199D01*
X395988Y345571D01*
X396037Y344943D01*
X396184Y344331D01*
X396425Y343749D01*
X396754Y343212D01*
X397163Y342734D01*
X397642Y342325D01*
X398178Y341996D01*
X398760Y341755D01*
X399372Y341608D01*
X399994Y341559D01*
Y339583D01*
X399372Y339534D01*
X398760Y339387D01*
X398178Y339146D01*
X397642Y338817D01*
X397163Y338408D01*
X396754Y337929D01*
X396425Y337392D01*
X396184Y336811D01*
X396037Y336199D01*
X395988Y335571D01*
X396037Y334943D01*
X396184Y334331D01*
X396425Y333749D01*
X396754Y333212D01*
X397163Y332734D01*
X397642Y332325D01*
X398178Y331996D01*
X398760Y331755D01*
X399372Y331608D01*
X399994Y331559D01*
Y329583D01*
X399372Y329534D01*
X398760Y329387D01*
X398178Y329146D01*
X397642Y328817D01*
X397163Y328408D01*
X396754Y327929D01*
X396425Y327392D01*
X396184Y326811D01*
X396037Y326199D01*
X395988Y325571D01*
X396037Y324943D01*
X396184Y324331D01*
X396425Y323749D01*
X396754Y323212D01*
X397163Y322734D01*
X397642Y322325D01*
X398178Y321996D01*
X398760Y321755D01*
X399372Y321608D01*
X399994Y321559D01*
Y319583D01*
X399372Y319534D01*
X398760Y319387D01*
X398178Y319146D01*
X397642Y318817D01*
X397163Y318408D01*
X396754Y317929D01*
X396425Y317392D01*
X396184Y316811D01*
X396037Y316199D01*
X395988Y315571D01*
X396037Y314943D01*
X396184Y314331D01*
X396425Y313749D01*
X396754Y313212D01*
X397163Y312734D01*
X397642Y312325D01*
X398178Y311996D01*
X398760Y311755D01*
X399372Y311608D01*
X399994Y311559D01*
Y309583D01*
X399372Y309534D01*
X398760Y309387D01*
X398178Y309146D01*
X397642Y308817D01*
X397163Y308408D01*
X396754Y307929D01*
X396425Y307392D01*
X396184Y306811D01*
X396037Y306199D01*
X395988Y305571D01*
X396037Y304943D01*
X396184Y304331D01*
X396425Y303749D01*
X396754Y303212D01*
X397163Y302734D01*
X397642Y302325D01*
X398178Y301996D01*
X398760Y301755D01*
X399372Y301608D01*
X399994Y301559D01*
Y299583D01*
X399372Y299534D01*
X398760Y299387D01*
X398178Y299146D01*
X397642Y298817D01*
X397163Y298408D01*
X396754Y297929D01*
X396425Y297392D01*
X396184Y296811D01*
X396037Y296199D01*
X395988Y295571D01*
X396037Y294943D01*
X396184Y294331D01*
X396425Y293749D01*
X396754Y293212D01*
X397163Y292734D01*
X397642Y292325D01*
X398178Y291996D01*
X398760Y291755D01*
X399372Y291608D01*
X399994Y291559D01*
Y289583D01*
X399372Y289534D01*
X398760Y289387D01*
X398178Y289146D01*
X397642Y288817D01*
X397163Y288408D01*
X396754Y287929D01*
X396425Y287392D01*
X396184Y286811D01*
X396037Y286199D01*
X395988Y285571D01*
X396037Y284943D01*
X396184Y284331D01*
X396425Y283749D01*
X396754Y283212D01*
X397163Y282734D01*
X397642Y282325D01*
X398178Y281996D01*
X398760Y281755D01*
X399372Y281608D01*
X399994Y281559D01*
Y279583D01*
X399372Y279534D01*
X398760Y279387D01*
X398178Y279146D01*
X397642Y278817D01*
X397163Y278408D01*
X396754Y277929D01*
X396425Y277392D01*
X396184Y276811D01*
X396037Y276199D01*
X395988Y275571D01*
X396037Y274943D01*
X396184Y274331D01*
X396425Y273749D01*
X396754Y273212D01*
X397163Y272734D01*
X397642Y272325D01*
X398178Y271996D01*
X398760Y271755D01*
X399372Y271608D01*
X399994Y271559D01*
Y269583D01*
X399372Y269534D01*
X398760Y269387D01*
X398178Y269146D01*
X397642Y268817D01*
X397163Y268408D01*
X396754Y267929D01*
X396425Y267392D01*
X396184Y266811D01*
X396037Y266199D01*
X395988Y265571D01*
X396037Y264943D01*
X396184Y264331D01*
X396425Y263749D01*
X396754Y263212D01*
X397163Y262734D01*
X397642Y262325D01*
X398178Y261996D01*
X398760Y261755D01*
X399372Y261608D01*
X399994Y261559D01*
Y259583D01*
X399372Y259534D01*
X398760Y259387D01*
X398178Y259146D01*
X397642Y258817D01*
X397163Y258408D01*
X396754Y257929D01*
X396425Y257392D01*
X396184Y256811D01*
X396037Y256199D01*
X395988Y255571D01*
X396037Y254943D01*
X396184Y254331D01*
X396425Y253749D01*
X396754Y253212D01*
X397163Y252734D01*
X397642Y252325D01*
X398178Y251996D01*
X398760Y251755D01*
X399372Y251608D01*
X399994Y251559D01*
Y249583D01*
X399372Y249534D01*
X398760Y249387D01*
X398178Y249146D01*
X397642Y248817D01*
X397163Y248408D01*
X396754Y247929D01*
X396425Y247392D01*
X396184Y246811D01*
X396037Y246199D01*
X395988Y245571D01*
X396037Y244943D01*
X396184Y244331D01*
X396425Y243749D01*
X396754Y243212D01*
X397163Y242734D01*
X397642Y242325D01*
X398178Y241996D01*
X398760Y241755D01*
X399372Y241608D01*
X399994Y241559D01*
Y239583D01*
X399372Y239534D01*
X398760Y239387D01*
X398178Y239146D01*
X397642Y238817D01*
X397163Y238408D01*
X396754Y237929D01*
X396425Y237392D01*
X396184Y236811D01*
X396037Y236199D01*
X395988Y235571D01*
X396037Y234943D01*
X396184Y234331D01*
X396425Y233749D01*
X396754Y233212D01*
X397163Y232734D01*
X397642Y232325D01*
X398178Y231996D01*
X398760Y231755D01*
X399372Y231608D01*
X399994Y231559D01*
Y229583D01*
X399372Y229534D01*
X398760Y229387D01*
X398178Y229146D01*
X397642Y228817D01*
X397163Y228408D01*
X396754Y227929D01*
X396425Y227392D01*
X396184Y226811D01*
X396037Y226199D01*
X395988Y225571D01*
X396037Y224943D01*
X396184Y224331D01*
X396425Y223749D01*
X396754Y223212D01*
X397163Y222734D01*
X397642Y222325D01*
X398178Y221996D01*
X398760Y221755D01*
X399372Y221608D01*
X399994Y221559D01*
Y219583D01*
X399372Y219534D01*
X398760Y219387D01*
X398178Y219146D01*
X397642Y218817D01*
X397163Y218408D01*
X396754Y217929D01*
X396425Y217392D01*
X396184Y216811D01*
X396037Y216199D01*
X395988Y215571D01*
X396037Y214943D01*
X396184Y214331D01*
X396425Y213749D01*
X396754Y213212D01*
X397163Y212734D01*
X397642Y212325D01*
X398178Y211996D01*
X398760Y211755D01*
X399372Y211608D01*
X399994Y211559D01*
Y209583D01*
X399372Y209534D01*
X398760Y209387D01*
X398178Y209146D01*
X397642Y208817D01*
X397163Y208408D01*
X396754Y207929D01*
X396425Y207392D01*
X396184Y206811D01*
X396037Y206199D01*
X395988Y205571D01*
X396037Y204943D01*
X396184Y204331D01*
X396425Y203749D01*
X396754Y203212D01*
X397163Y202734D01*
X397642Y202325D01*
X398178Y201996D01*
X398760Y201755D01*
X399372Y201608D01*
X399994Y201559D01*
Y199583D01*
X399372Y199534D01*
X398760Y199387D01*
X398178Y199146D01*
X397642Y198817D01*
X397163Y198408D01*
X396754Y197929D01*
X396425Y197392D01*
X396184Y196811D01*
X396037Y196199D01*
X395988Y195571D01*
X396037Y194943D01*
X396184Y194331D01*
X396425Y193749D01*
X396754Y193212D01*
X397163Y192734D01*
X397642Y192325D01*
X398178Y191996D01*
X398760Y191755D01*
X399372Y191608D01*
X399994Y191559D01*
Y189583D01*
X399372Y189534D01*
X398760Y189387D01*
X398178Y189146D01*
X397642Y188817D01*
X397163Y188408D01*
X396754Y187929D01*
X396425Y187392D01*
X396184Y186811D01*
X396037Y186199D01*
X395988Y185571D01*
X396037Y184943D01*
X396184Y184331D01*
X396425Y183749D01*
X396754Y183212D01*
X397163Y182734D01*
X397642Y182325D01*
X398178Y181996D01*
X398760Y181755D01*
X399372Y181608D01*
X399994Y181559D01*
Y179583D01*
X399372Y179534D01*
X398760Y179387D01*
X398178Y179146D01*
X397642Y178817D01*
X397163Y178408D01*
X396754Y177929D01*
X396425Y177392D01*
X396184Y176811D01*
X396037Y176199D01*
X395988Y175571D01*
X396037Y174943D01*
X396184Y174331D01*
X396425Y173749D01*
X396754Y173212D01*
X397163Y172734D01*
X397642Y172325D01*
X398178Y171996D01*
X398760Y171755D01*
X399372Y171608D01*
X399994Y171559D01*
Y169583D01*
X399372Y169534D01*
X398760Y169387D01*
X398178Y169146D01*
X397642Y168817D01*
X397163Y168408D01*
X396754Y167929D01*
X396425Y167392D01*
X396184Y166811D01*
X396037Y166199D01*
X395988Y165571D01*
X396037Y164943D01*
X396184Y164331D01*
X396425Y163749D01*
X396754Y163212D01*
X397163Y162734D01*
X397642Y162325D01*
X398178Y161996D01*
X398760Y161755D01*
X399372Y161608D01*
X399994Y161559D01*
Y159583D01*
X399372Y159534D01*
X398760Y159387D01*
X398178Y159146D01*
X397642Y158817D01*
X397163Y158408D01*
X396754Y157929D01*
X396425Y157392D01*
X396184Y156811D01*
X396037Y156199D01*
X395988Y155571D01*
X396037Y154943D01*
X396184Y154331D01*
X396425Y153749D01*
X396754Y153212D01*
X397163Y152734D01*
X397642Y152325D01*
X398178Y151996D01*
X398760Y151755D01*
X399372Y151608D01*
X399994Y151559D01*
Y149583D01*
X399372Y149534D01*
X398760Y149387D01*
X398178Y149146D01*
X397642Y148817D01*
X397163Y148408D01*
X396754Y147929D01*
X396425Y147392D01*
X396184Y146811D01*
X396037Y146199D01*
X395988Y145571D01*
X396037Y144943D01*
X396184Y144331D01*
X396425Y143749D01*
X396754Y143212D01*
X397163Y142734D01*
X397642Y142325D01*
X398178Y141996D01*
X398760Y141755D01*
X399372Y141608D01*
X399994Y141559D01*
Y139583D01*
X399372Y139534D01*
X398760Y139387D01*
X398178Y139146D01*
X397642Y138817D01*
X397163Y138408D01*
X396754Y137929D01*
X396425Y137392D01*
X396184Y136811D01*
X396037Y136199D01*
X395988Y135571D01*
X396037Y134943D01*
X396184Y134331D01*
X396425Y133749D01*
X396754Y133212D01*
X397163Y132734D01*
X397642Y132325D01*
X398178Y131996D01*
X398760Y131755D01*
X399372Y131608D01*
X399994Y131559D01*
Y129583D01*
X399372Y129534D01*
X398760Y129387D01*
X398178Y129146D01*
X397642Y128817D01*
X397163Y128408D01*
X396754Y127929D01*
X396425Y127392D01*
X396184Y126811D01*
X396037Y126199D01*
X395988Y125571D01*
X396037Y124943D01*
X396184Y124331D01*
X396425Y123749D01*
X396754Y123212D01*
X397163Y122734D01*
X397642Y122325D01*
X398178Y121996D01*
X398760Y121755D01*
X399372Y121608D01*
X399994Y121559D01*
Y119583D01*
X399372Y119534D01*
X398760Y119387D01*
X398178Y119146D01*
X397642Y118817D01*
X397163Y118408D01*
X396754Y117929D01*
X396425Y117392D01*
X396184Y116811D01*
X396037Y116199D01*
X395988Y115571D01*
X396037Y114943D01*
X396184Y114331D01*
X396425Y113749D01*
X396754Y113212D01*
X397163Y112734D01*
X397642Y112325D01*
X398178Y111996D01*
X398760Y111755D01*
X399372Y111608D01*
X399994Y111559D01*
Y92083D01*
X399372Y92034D01*
X398760Y91887D01*
X398178Y91646D01*
X397642Y91317D01*
X397163Y90908D01*
X396754Y90429D01*
X396425Y89892D01*
X396184Y89311D01*
X396037Y88699D01*
X395988Y88071D01*
X396037Y87443D01*
X396184Y86831D01*
X396425Y86249D01*
X396754Y85712D01*
X397163Y85234D01*
X397642Y84825D01*
X398178Y84496D01*
X398760Y84255D01*
X399372Y84108D01*
X399994Y84059D01*
Y72083D01*
X399372Y72034D01*
X398760Y71887D01*
X398178Y71646D01*
X397642Y71317D01*
X397163Y70908D01*
X396754Y70429D01*
X396425Y69892D01*
X396184Y69311D01*
X396037Y68699D01*
X395988Y68071D01*
X396037Y67443D01*
X396184Y66831D01*
X396425Y66249D01*
X396754Y65712D01*
X397163Y65234D01*
X397642Y64825D01*
X398178Y64496D01*
X398760Y64255D01*
X399372Y64108D01*
X399994Y64059D01*
Y19681D01*
X390000D01*
Y64075D01*
X393157Y64080D01*
X393310Y64117D01*
X393455Y64177D01*
X393590Y64259D01*
X393709Y64362D01*
X393812Y64481D01*
X393894Y64615D01*
X393954Y64761D01*
X393991Y64914D01*
X394000Y65071D01*
X393991Y71228D01*
X393954Y71381D01*
X393894Y71526D01*
X393812Y71660D01*
X393709Y71780D01*
X393590Y71882D01*
X393455Y71965D01*
X393310Y72025D01*
X393157Y72062D01*
X393000Y72071D01*
X390000Y72066D01*
Y74075D01*
X393157Y74080D01*
X393310Y74117D01*
X393455Y74177D01*
X393590Y74259D01*
X393709Y74362D01*
X393812Y74481D01*
X393894Y74615D01*
X393954Y74761D01*
X393991Y74914D01*
X394000Y75071D01*
X393991Y81228D01*
X393954Y81381D01*
X393894Y81526D01*
X393812Y81660D01*
X393709Y81780D01*
X393590Y81882D01*
X393455Y81965D01*
X393310Y82025D01*
X393157Y82062D01*
X393000Y82071D01*
X390000Y82066D01*
Y84075D01*
X393157Y84080D01*
X393310Y84117D01*
X393455Y84177D01*
X393590Y84259D01*
X393709Y84362D01*
X393812Y84481D01*
X393894Y84615D01*
X393954Y84761D01*
X393991Y84914D01*
X394000Y85071D01*
X393991Y91228D01*
X393954Y91381D01*
X393894Y91526D01*
X393812Y91660D01*
X393709Y91780D01*
X393590Y91882D01*
X393455Y91965D01*
X393310Y92025D01*
X393157Y92062D01*
X393000Y92071D01*
X390000Y92066D01*
Y111575D01*
X393157Y111580D01*
X393310Y111617D01*
X393455Y111677D01*
X393590Y111759D01*
X393709Y111862D01*
X393812Y111981D01*
X393894Y112115D01*
X393954Y112261D01*
X393991Y112414D01*
X394000Y112571D01*
X393991Y118728D01*
X393954Y118881D01*
X393894Y119026D01*
X393812Y119160D01*
X393709Y119280D01*
X393590Y119382D01*
X393455Y119465D01*
X393310Y119525D01*
X393157Y119562D01*
X393000Y119571D01*
X390000Y119566D01*
Y121575D01*
X393157Y121580D01*
X393310Y121617D01*
X393455Y121677D01*
X393590Y121759D01*
X393709Y121862D01*
X393812Y121981D01*
X393894Y122115D01*
X393954Y122261D01*
X393991Y122414D01*
X394000Y122571D01*
X393991Y128728D01*
X393954Y128881D01*
X393894Y129026D01*
X393812Y129160D01*
X393709Y129280D01*
X393590Y129382D01*
X393455Y129465D01*
X393310Y129525D01*
X393157Y129562D01*
X393000Y129571D01*
X390000Y129566D01*
Y131575D01*
X393157Y131580D01*
X393310Y131617D01*
X393455Y131677D01*
X393590Y131759D01*
X393709Y131862D01*
X393812Y131981D01*
X393894Y132115D01*
X393954Y132261D01*
X393991Y132414D01*
X394000Y132571D01*
X393991Y138728D01*
X393954Y138881D01*
X393894Y139026D01*
X393812Y139160D01*
X393709Y139280D01*
X393590Y139382D01*
X393455Y139465D01*
X393310Y139525D01*
X393157Y139562D01*
X393000Y139571D01*
X390000Y139566D01*
Y141575D01*
X393157Y141580D01*
X393310Y141617D01*
X393455Y141677D01*
X393590Y141759D01*
X393709Y141862D01*
X393812Y141981D01*
X393894Y142115D01*
X393954Y142261D01*
X393991Y142414D01*
X394000Y142571D01*
X393991Y148728D01*
X393954Y148881D01*
X393894Y149026D01*
X393812Y149160D01*
X393709Y149280D01*
X393590Y149382D01*
X393455Y149465D01*
X393310Y149525D01*
X393157Y149562D01*
X393000Y149571D01*
X390000Y149566D01*
Y151575D01*
X393157Y151580D01*
X393310Y151617D01*
X393455Y151677D01*
X393590Y151759D01*
X393709Y151862D01*
X393812Y151981D01*
X393894Y152115D01*
X393954Y152261D01*
X393991Y152414D01*
X394000Y152571D01*
X393991Y158728D01*
X393954Y158881D01*
X393894Y159026D01*
X393812Y159160D01*
X393709Y159280D01*
X393590Y159382D01*
X393455Y159465D01*
X393310Y159525D01*
X393157Y159562D01*
X393000Y159571D01*
X390000Y159566D01*
Y161575D01*
X393157Y161580D01*
X393310Y161617D01*
X393455Y161677D01*
X393590Y161759D01*
X393709Y161862D01*
X393812Y161981D01*
X393894Y162115D01*
X393954Y162261D01*
X393991Y162414D01*
X394000Y162571D01*
X393991Y168728D01*
X393954Y168881D01*
X393894Y169026D01*
X393812Y169160D01*
X393709Y169280D01*
X393590Y169382D01*
X393455Y169465D01*
X393310Y169525D01*
X393157Y169562D01*
X393000Y169571D01*
X390000Y169566D01*
Y171575D01*
X393157Y171580D01*
X393310Y171617D01*
X393455Y171677D01*
X393590Y171759D01*
X393709Y171862D01*
X393812Y171981D01*
X393894Y172115D01*
X393954Y172261D01*
X393991Y172414D01*
X394000Y172571D01*
X393991Y178728D01*
X393954Y178881D01*
X393894Y179026D01*
X393812Y179160D01*
X393709Y179280D01*
X393590Y179382D01*
X393455Y179465D01*
X393310Y179525D01*
X393157Y179562D01*
X393000Y179571D01*
X390000Y179566D01*
Y181575D01*
X393157Y181580D01*
X393310Y181617D01*
X393455Y181677D01*
X393590Y181759D01*
X393709Y181862D01*
X393812Y181981D01*
X393894Y182115D01*
X393954Y182261D01*
X393991Y182414D01*
X394000Y182571D01*
X393991Y188728D01*
X393954Y188881D01*
X393894Y189026D01*
X393812Y189160D01*
X393709Y189280D01*
X393590Y189382D01*
X393455Y189465D01*
X393310Y189525D01*
X393157Y189562D01*
X393000Y189571D01*
X390000Y189566D01*
Y191575D01*
X393157Y191580D01*
X393310Y191617D01*
X393455Y191677D01*
X393590Y191759D01*
X393709Y191862D01*
X393812Y191981D01*
X393894Y192115D01*
X393954Y192261D01*
X393991Y192414D01*
X394000Y192571D01*
X393991Y198728D01*
X393954Y198881D01*
X393894Y199026D01*
X393812Y199160D01*
X393709Y199280D01*
X393590Y199382D01*
X393455Y199465D01*
X393310Y199525D01*
X393157Y199562D01*
X393000Y199571D01*
X390000Y199566D01*
Y201575D01*
X393157Y201580D01*
X393310Y201617D01*
X393455Y201677D01*
X393590Y201759D01*
X393709Y201862D01*
X393812Y201981D01*
X393894Y202115D01*
X393954Y202261D01*
X393991Y202414D01*
X394000Y202571D01*
X393991Y208728D01*
X393954Y208881D01*
X393894Y209026D01*
X393812Y209160D01*
X393709Y209280D01*
X393590Y209382D01*
X393455Y209465D01*
X393310Y209525D01*
X393157Y209562D01*
X393000Y209571D01*
X390000Y209566D01*
Y211575D01*
X393157Y211580D01*
X393310Y211617D01*
X393455Y211677D01*
X393590Y211759D01*
X393709Y211862D01*
X393812Y211981D01*
X393894Y212115D01*
X393954Y212261D01*
X393991Y212414D01*
X394000Y212571D01*
X393991Y218728D01*
X393954Y218881D01*
X393894Y219026D01*
X393812Y219160D01*
X393709Y219280D01*
X393590Y219382D01*
X393455Y219465D01*
X393310Y219525D01*
X393157Y219562D01*
X393000Y219571D01*
X390000Y219566D01*
Y221575D01*
X393157Y221580D01*
X393310Y221617D01*
X393455Y221677D01*
X393590Y221759D01*
X393709Y221862D01*
X393812Y221981D01*
X393894Y222115D01*
X393954Y222261D01*
X393991Y222414D01*
X394000Y222571D01*
X393991Y228728D01*
X393954Y228881D01*
X393894Y229026D01*
X393812Y229160D01*
X393709Y229280D01*
X393590Y229382D01*
X393455Y229465D01*
X393310Y229525D01*
X393157Y229562D01*
X393000Y229571D01*
X390000Y229566D01*
Y231575D01*
X393157Y231580D01*
X393310Y231617D01*
X393455Y231677D01*
X393590Y231759D01*
X393709Y231862D01*
X393812Y231981D01*
X393894Y232115D01*
X393954Y232261D01*
X393991Y232414D01*
X394000Y232571D01*
X393991Y238728D01*
X393954Y238881D01*
X393894Y239026D01*
X393812Y239160D01*
X393709Y239280D01*
X393590Y239382D01*
X393455Y239465D01*
X393310Y239525D01*
X393157Y239562D01*
X393000Y239571D01*
X390000Y239566D01*
Y241575D01*
X393157Y241580D01*
X393310Y241617D01*
X393455Y241677D01*
X393590Y241759D01*
X393709Y241862D01*
X393812Y241981D01*
X393894Y242115D01*
X393954Y242261D01*
X393991Y242414D01*
X394000Y242571D01*
X393991Y248728D01*
X393954Y248881D01*
X393894Y249026D01*
X393812Y249160D01*
X393709Y249280D01*
X393590Y249382D01*
X393455Y249465D01*
X393310Y249525D01*
X393157Y249562D01*
X393000Y249571D01*
X390000Y249566D01*
Y251575D01*
X393157Y251580D01*
X393310Y251617D01*
X393455Y251677D01*
X393590Y251759D01*
X393709Y251862D01*
X393812Y251981D01*
X393894Y252115D01*
X393954Y252261D01*
X393991Y252414D01*
X394000Y252571D01*
X393991Y258728D01*
X393954Y258881D01*
X393894Y259026D01*
X393812Y259160D01*
X393709Y259280D01*
X393590Y259382D01*
X393455Y259465D01*
X393310Y259525D01*
X393157Y259562D01*
X393000Y259571D01*
X390000Y259566D01*
Y261575D01*
X393157Y261580D01*
X393310Y261617D01*
X393455Y261677D01*
X393590Y261759D01*
X393709Y261862D01*
X393812Y261981D01*
X393894Y262115D01*
X393954Y262261D01*
X393991Y262414D01*
X394000Y262571D01*
X393991Y268728D01*
X393954Y268881D01*
X393894Y269026D01*
X393812Y269160D01*
X393709Y269280D01*
X393590Y269382D01*
X393455Y269465D01*
X393310Y269525D01*
X393157Y269562D01*
X393000Y269571D01*
X390000Y269566D01*
Y271575D01*
X393157Y271580D01*
X393310Y271617D01*
X393455Y271677D01*
X393590Y271759D01*
X393709Y271862D01*
X393812Y271981D01*
X393894Y272115D01*
X393954Y272261D01*
X393991Y272414D01*
X394000Y272571D01*
X393991Y278728D01*
X393954Y278881D01*
X393894Y279026D01*
X393812Y279160D01*
X393709Y279280D01*
X393590Y279382D01*
X393455Y279465D01*
X393310Y279525D01*
X393157Y279562D01*
X393000Y279571D01*
X390000Y279566D01*
Y281575D01*
X393157Y281580D01*
X393310Y281617D01*
X393455Y281677D01*
X393590Y281759D01*
X393709Y281862D01*
X393812Y281981D01*
X393894Y282115D01*
X393954Y282261D01*
X393991Y282414D01*
X394000Y282571D01*
X393991Y288728D01*
X393954Y288881D01*
X393894Y289026D01*
X393812Y289160D01*
X393709Y289280D01*
X393590Y289382D01*
X393455Y289465D01*
X393310Y289525D01*
X393157Y289562D01*
X393000Y289571D01*
X390000Y289566D01*
Y291575D01*
X393157Y291580D01*
X393310Y291617D01*
X393455Y291677D01*
X393590Y291759D01*
X393709Y291862D01*
X393812Y291981D01*
X393894Y292115D01*
X393954Y292261D01*
X393991Y292414D01*
X394000Y292571D01*
X393991Y298728D01*
X393954Y298881D01*
X393894Y299026D01*
X393812Y299160D01*
X393709Y299280D01*
X393590Y299382D01*
X393455Y299465D01*
X393310Y299525D01*
X393157Y299562D01*
X393000Y299571D01*
X390000Y299566D01*
Y301575D01*
X393157Y301580D01*
X393310Y301617D01*
X393455Y301677D01*
X393590Y301759D01*
X393709Y301862D01*
X393812Y301981D01*
X393894Y302115D01*
X393954Y302261D01*
X393991Y302414D01*
X394000Y302571D01*
X393991Y308728D01*
X393954Y308881D01*
X393894Y309026D01*
X393812Y309160D01*
X393709Y309280D01*
X393590Y309382D01*
X393455Y309465D01*
X393310Y309525D01*
X393157Y309562D01*
X393000Y309571D01*
X390000Y309566D01*
Y311575D01*
X393157Y311580D01*
X393310Y311617D01*
X393455Y311677D01*
X393590Y311759D01*
X393709Y311862D01*
X393812Y311981D01*
X393894Y312115D01*
X393954Y312261D01*
X393991Y312414D01*
X394000Y312571D01*
X393991Y318728D01*
X393954Y318881D01*
X393894Y319026D01*
X393812Y319160D01*
X393709Y319280D01*
X393590Y319382D01*
X393455Y319465D01*
X393310Y319525D01*
X393157Y319562D01*
X393000Y319571D01*
X390000Y319566D01*
Y321575D01*
X393157Y321580D01*
X393310Y321617D01*
X393455Y321677D01*
X393590Y321759D01*
X393709Y321862D01*
X393812Y321981D01*
X393894Y322115D01*
X393954Y322261D01*
X393991Y322414D01*
X394000Y322571D01*
X393991Y328728D01*
X393954Y328881D01*
X393894Y329026D01*
X393812Y329160D01*
X393709Y329280D01*
X393590Y329382D01*
X393455Y329465D01*
X393310Y329525D01*
X393157Y329562D01*
X393000Y329571D01*
X390000Y329566D01*
Y331575D01*
X393157Y331580D01*
X393310Y331617D01*
X393455Y331677D01*
X393590Y331759D01*
X393709Y331862D01*
X393812Y331981D01*
X393894Y332115D01*
X393954Y332261D01*
X393991Y332414D01*
X394000Y332571D01*
X393991Y338728D01*
X393954Y338881D01*
X393894Y339026D01*
X393812Y339160D01*
X393709Y339280D01*
X393590Y339382D01*
X393455Y339465D01*
X393310Y339525D01*
X393157Y339562D01*
X393000Y339571D01*
X390000Y339566D01*
Y341575D01*
X393157Y341580D01*
X393310Y341617D01*
X393455Y341677D01*
X393590Y341759D01*
X393709Y341862D01*
X393812Y341981D01*
X393894Y342115D01*
X393954Y342261D01*
X393991Y342414D01*
X394000Y342571D01*
X393991Y348728D01*
X393954Y348881D01*
X393894Y349026D01*
X393812Y349160D01*
X393709Y349280D01*
X393590Y349382D01*
X393455Y349465D01*
X393310Y349525D01*
X393157Y349562D01*
X393000Y349571D01*
X390000Y349566D01*
Y351575D01*
X393157Y351580D01*
X393310Y351617D01*
X393455Y351677D01*
X393590Y351759D01*
X393709Y351862D01*
X393812Y351981D01*
X393894Y352115D01*
X393954Y352261D01*
X393991Y352414D01*
X394000Y352571D01*
X393991Y358728D01*
X393954Y358881D01*
X393894Y359026D01*
X393812Y359160D01*
X393709Y359280D01*
X393590Y359382D01*
X393455Y359465D01*
X393310Y359525D01*
X393157Y359562D01*
X393000Y359571D01*
X390000Y359566D01*
Y361575D01*
X393157Y361580D01*
X393310Y361617D01*
X393455Y361677D01*
X393590Y361759D01*
X393709Y361862D01*
X393812Y361981D01*
X393894Y362115D01*
X393954Y362261D01*
X393991Y362414D01*
X394000Y362571D01*
X393991Y368728D01*
X393954Y368881D01*
X393894Y369026D01*
X393812Y369160D01*
X393709Y369280D01*
X393590Y369382D01*
X393455Y369465D01*
X393310Y369525D01*
X393157Y369562D01*
X393000Y369571D01*
X390000Y369566D01*
Y413386D01*
G37*
G36*
X344744D02*X390000D01*
Y369566D01*
X386843Y369562D01*
X386690Y369525D01*
X386545Y369465D01*
X386410Y369382D01*
X386291Y369280D01*
X386188Y369160D01*
X386106Y369026D01*
X386046Y368881D01*
X386009Y368728D01*
X386000Y368571D01*
X386009Y362414D01*
X386046Y362261D01*
X386106Y362115D01*
X386188Y361981D01*
X386291Y361862D01*
X386410Y361759D01*
X386545Y361677D01*
X386690Y361617D01*
X386843Y361580D01*
X387000Y361571D01*
X390000Y361575D01*
Y359566D01*
X386843Y359562D01*
X386690Y359525D01*
X386545Y359465D01*
X386410Y359382D01*
X386291Y359280D01*
X386188Y359160D01*
X386106Y359026D01*
X386046Y358881D01*
X386009Y358728D01*
X386000Y358571D01*
X386009Y352414D01*
X386046Y352261D01*
X386106Y352115D01*
X386188Y351981D01*
X386291Y351862D01*
X386410Y351759D01*
X386545Y351677D01*
X386690Y351617D01*
X386843Y351580D01*
X387000Y351571D01*
X390000Y351575D01*
Y349566D01*
X386843Y349562D01*
X386690Y349525D01*
X386545Y349465D01*
X386410Y349382D01*
X386291Y349280D01*
X386188Y349160D01*
X386106Y349026D01*
X386046Y348881D01*
X386009Y348728D01*
X386000Y348571D01*
X386009Y342414D01*
X386046Y342261D01*
X386106Y342115D01*
X386188Y341981D01*
X386291Y341862D01*
X386410Y341759D01*
X386545Y341677D01*
X386690Y341617D01*
X386843Y341580D01*
X387000Y341571D01*
X390000Y341575D01*
Y339566D01*
X386843Y339562D01*
X386690Y339525D01*
X386545Y339465D01*
X386410Y339382D01*
X386291Y339280D01*
X386188Y339160D01*
X386106Y339026D01*
X386046Y338881D01*
X386009Y338728D01*
X386000Y338571D01*
X386009Y332414D01*
X386046Y332261D01*
X386106Y332115D01*
X386188Y331981D01*
X386291Y331862D01*
X386410Y331759D01*
X386545Y331677D01*
X386690Y331617D01*
X386843Y331580D01*
X387000Y331571D01*
X390000Y331575D01*
Y329566D01*
X386843Y329562D01*
X386690Y329525D01*
X386545Y329465D01*
X386410Y329382D01*
X386291Y329280D01*
X386188Y329160D01*
X386106Y329026D01*
X386046Y328881D01*
X386009Y328728D01*
X386000Y328571D01*
X386009Y322414D01*
X386046Y322261D01*
X386106Y322115D01*
X386188Y321981D01*
X386291Y321862D01*
X386410Y321759D01*
X386545Y321677D01*
X386690Y321617D01*
X386843Y321580D01*
X387000Y321571D01*
X390000Y321575D01*
Y319566D01*
X386843Y319562D01*
X386690Y319525D01*
X386545Y319465D01*
X386410Y319382D01*
X386291Y319280D01*
X386188Y319160D01*
X386106Y319026D01*
X386046Y318881D01*
X386009Y318728D01*
X386000Y318571D01*
X386009Y312414D01*
X386046Y312261D01*
X386106Y312115D01*
X386188Y311981D01*
X386291Y311862D01*
X386410Y311759D01*
X386545Y311677D01*
X386690Y311617D01*
X386843Y311580D01*
X387000Y311571D01*
X390000Y311575D01*
Y309566D01*
X386843Y309562D01*
X386690Y309525D01*
X386545Y309465D01*
X386410Y309382D01*
X386291Y309280D01*
X386188Y309160D01*
X386106Y309026D01*
X386046Y308881D01*
X386009Y308728D01*
X386000Y308571D01*
X386009Y302414D01*
X386046Y302261D01*
X386106Y302115D01*
X386188Y301981D01*
X386291Y301862D01*
X386410Y301759D01*
X386545Y301677D01*
X386690Y301617D01*
X386843Y301580D01*
X387000Y301571D01*
X390000Y301575D01*
Y299566D01*
X386843Y299562D01*
X386690Y299525D01*
X386545Y299465D01*
X386410Y299382D01*
X386291Y299280D01*
X386188Y299160D01*
X386106Y299026D01*
X386046Y298881D01*
X386009Y298728D01*
X386000Y298571D01*
X386009Y292414D01*
X386046Y292261D01*
X386106Y292115D01*
X386188Y291981D01*
X386291Y291862D01*
X386410Y291759D01*
X386545Y291677D01*
X386690Y291617D01*
X386843Y291580D01*
X387000Y291571D01*
X390000Y291575D01*
Y289566D01*
X386843Y289562D01*
X386690Y289525D01*
X386545Y289465D01*
X386410Y289382D01*
X386291Y289280D01*
X386188Y289160D01*
X386106Y289026D01*
X386046Y288881D01*
X386009Y288728D01*
X386000Y288571D01*
X386009Y282414D01*
X386046Y282261D01*
X386106Y282115D01*
X386188Y281981D01*
X386291Y281862D01*
X386410Y281759D01*
X386545Y281677D01*
X386690Y281617D01*
X386843Y281580D01*
X387000Y281571D01*
X390000Y281575D01*
Y279566D01*
X386843Y279562D01*
X386690Y279525D01*
X386545Y279465D01*
X386410Y279382D01*
X386291Y279280D01*
X386188Y279160D01*
X386106Y279026D01*
X386046Y278881D01*
X386009Y278728D01*
X386000Y278571D01*
X386009Y272414D01*
X386046Y272261D01*
X386106Y272115D01*
X386188Y271981D01*
X386291Y271862D01*
X386410Y271759D01*
X386545Y271677D01*
X386690Y271617D01*
X386843Y271580D01*
X387000Y271571D01*
X390000Y271575D01*
Y269566D01*
X386843Y269562D01*
X386690Y269525D01*
X386545Y269465D01*
X386410Y269382D01*
X386291Y269280D01*
X386188Y269160D01*
X386106Y269026D01*
X386046Y268881D01*
X386009Y268728D01*
X386000Y268571D01*
X386009Y262414D01*
X386046Y262261D01*
X386106Y262115D01*
X386188Y261981D01*
X386291Y261862D01*
X386410Y261759D01*
X386545Y261677D01*
X386690Y261617D01*
X386843Y261580D01*
X387000Y261571D01*
X390000Y261575D01*
Y259566D01*
X386843Y259562D01*
X386690Y259525D01*
X386545Y259465D01*
X386410Y259382D01*
X386291Y259280D01*
X386188Y259160D01*
X386106Y259026D01*
X386046Y258881D01*
X386009Y258728D01*
X386000Y258571D01*
X386009Y252414D01*
X386046Y252261D01*
X386106Y252115D01*
X386188Y251981D01*
X386291Y251862D01*
X386410Y251759D01*
X386545Y251677D01*
X386690Y251617D01*
X386843Y251580D01*
X387000Y251571D01*
X390000Y251575D01*
Y249566D01*
X386843Y249562D01*
X386690Y249525D01*
X386545Y249465D01*
X386410Y249382D01*
X386291Y249280D01*
X386188Y249160D01*
X386106Y249026D01*
X386046Y248881D01*
X386009Y248728D01*
X386000Y248571D01*
X386009Y242414D01*
X386046Y242261D01*
X386106Y242115D01*
X386188Y241981D01*
X386291Y241862D01*
X386410Y241759D01*
X386545Y241677D01*
X386690Y241617D01*
X386843Y241580D01*
X387000Y241571D01*
X390000Y241575D01*
Y239566D01*
X386843Y239562D01*
X386690Y239525D01*
X386545Y239465D01*
X386410Y239382D01*
X386291Y239280D01*
X386188Y239160D01*
X386106Y239026D01*
X386046Y238881D01*
X386009Y238728D01*
X386000Y238571D01*
X386009Y232414D01*
X386046Y232261D01*
X386106Y232115D01*
X386188Y231981D01*
X386291Y231862D01*
X386410Y231759D01*
X386545Y231677D01*
X386690Y231617D01*
X386843Y231580D01*
X387000Y231571D01*
X390000Y231575D01*
Y229566D01*
X386843Y229562D01*
X386690Y229525D01*
X386545Y229465D01*
X386410Y229382D01*
X386291Y229280D01*
X386188Y229160D01*
X386106Y229026D01*
X386046Y228881D01*
X386009Y228728D01*
X386000Y228571D01*
X386009Y222414D01*
X386046Y222261D01*
X386106Y222115D01*
X386188Y221981D01*
X386291Y221862D01*
X386410Y221759D01*
X386545Y221677D01*
X386690Y221617D01*
X386843Y221580D01*
X387000Y221571D01*
X390000Y221575D01*
Y219566D01*
X386843Y219562D01*
X386690Y219525D01*
X386545Y219465D01*
X386410Y219382D01*
X386291Y219280D01*
X386188Y219160D01*
X386106Y219026D01*
X386046Y218881D01*
X386009Y218728D01*
X386000Y218571D01*
X386009Y212414D01*
X386046Y212261D01*
X386106Y212115D01*
X386188Y211981D01*
X386291Y211862D01*
X386410Y211759D01*
X386545Y211677D01*
X386690Y211617D01*
X386843Y211580D01*
X387000Y211571D01*
X390000Y211575D01*
Y209566D01*
X386843Y209562D01*
X386690Y209525D01*
X386545Y209465D01*
X386410Y209382D01*
X386291Y209280D01*
X386188Y209160D01*
X386106Y209026D01*
X386046Y208881D01*
X386009Y208728D01*
X386000Y208571D01*
X386009Y202414D01*
X386046Y202261D01*
X386106Y202115D01*
X386188Y201981D01*
X386291Y201862D01*
X386410Y201759D01*
X386545Y201677D01*
X386690Y201617D01*
X386843Y201580D01*
X387000Y201571D01*
X390000Y201575D01*
Y199566D01*
X386843Y199562D01*
X386690Y199525D01*
X386545Y199465D01*
X386410Y199382D01*
X386291Y199280D01*
X386188Y199160D01*
X386106Y199026D01*
X386046Y198881D01*
X386009Y198728D01*
X386000Y198571D01*
X386009Y192414D01*
X386046Y192261D01*
X386106Y192115D01*
X386188Y191981D01*
X386291Y191862D01*
X386410Y191759D01*
X386545Y191677D01*
X386690Y191617D01*
X386843Y191580D01*
X387000Y191571D01*
X390000Y191575D01*
Y189566D01*
X386843Y189562D01*
X386690Y189525D01*
X386545Y189465D01*
X386410Y189382D01*
X386291Y189280D01*
X386188Y189160D01*
X386106Y189026D01*
X386046Y188881D01*
X386009Y188728D01*
X386000Y188571D01*
X386009Y182414D01*
X386046Y182261D01*
X386106Y182115D01*
X386188Y181981D01*
X386291Y181862D01*
X386410Y181759D01*
X386545Y181677D01*
X386690Y181617D01*
X386843Y181580D01*
X387000Y181571D01*
X390000Y181575D01*
Y179566D01*
X386843Y179562D01*
X386690Y179525D01*
X386545Y179465D01*
X386410Y179382D01*
X386291Y179280D01*
X386188Y179160D01*
X386106Y179026D01*
X386046Y178881D01*
X386009Y178728D01*
X386000Y178571D01*
X386009Y172414D01*
X386046Y172261D01*
X386106Y172115D01*
X386188Y171981D01*
X386291Y171862D01*
X386410Y171759D01*
X386545Y171677D01*
X386690Y171617D01*
X386843Y171580D01*
X387000Y171571D01*
X390000Y171575D01*
Y169566D01*
X386843Y169562D01*
X386690Y169525D01*
X386545Y169465D01*
X386410Y169382D01*
X386291Y169280D01*
X386188Y169160D01*
X386106Y169026D01*
X386046Y168881D01*
X386009Y168728D01*
X386000Y168571D01*
X386009Y162414D01*
X386046Y162261D01*
X386106Y162115D01*
X386188Y161981D01*
X386291Y161862D01*
X386410Y161759D01*
X386545Y161677D01*
X386690Y161617D01*
X386843Y161580D01*
X387000Y161571D01*
X390000Y161575D01*
Y159566D01*
X386843Y159562D01*
X386690Y159525D01*
X386545Y159465D01*
X386410Y159382D01*
X386291Y159280D01*
X386188Y159160D01*
X386106Y159026D01*
X386046Y158881D01*
X386009Y158728D01*
X386000Y158571D01*
X386009Y152414D01*
X386046Y152261D01*
X386106Y152115D01*
X386188Y151981D01*
X386291Y151862D01*
X386410Y151759D01*
X386545Y151677D01*
X386690Y151617D01*
X386843Y151580D01*
X387000Y151571D01*
X390000Y151575D01*
Y149566D01*
X386843Y149562D01*
X386690Y149525D01*
X386545Y149465D01*
X386410Y149382D01*
X386291Y149280D01*
X386188Y149160D01*
X386106Y149026D01*
X386046Y148881D01*
X386009Y148728D01*
X386000Y148571D01*
X386009Y142414D01*
X386046Y142261D01*
X386106Y142115D01*
X386188Y141981D01*
X386291Y141862D01*
X386410Y141759D01*
X386545Y141677D01*
X386690Y141617D01*
X386843Y141580D01*
X387000Y141571D01*
X390000Y141575D01*
Y139566D01*
X386843Y139562D01*
X386690Y139525D01*
X386545Y139465D01*
X386410Y139382D01*
X386291Y139280D01*
X386188Y139160D01*
X386106Y139026D01*
X386046Y138881D01*
X386009Y138728D01*
X386000Y138571D01*
X386009Y132414D01*
X386046Y132261D01*
X386106Y132115D01*
X386188Y131981D01*
X386291Y131862D01*
X386410Y131759D01*
X386545Y131677D01*
X386690Y131617D01*
X386843Y131580D01*
X387000Y131571D01*
X390000Y131575D01*
Y129566D01*
X386843Y129562D01*
X386690Y129525D01*
X386545Y129465D01*
X386410Y129382D01*
X386291Y129280D01*
X386188Y129160D01*
X386106Y129026D01*
X386046Y128881D01*
X386009Y128728D01*
X386000Y128571D01*
X386009Y122414D01*
X386046Y122261D01*
X386106Y122115D01*
X386188Y121981D01*
X386291Y121862D01*
X386410Y121759D01*
X386545Y121677D01*
X386690Y121617D01*
X386843Y121580D01*
X387000Y121571D01*
X390000Y121575D01*
Y119566D01*
X386843Y119562D01*
X386690Y119525D01*
X386545Y119465D01*
X386410Y119382D01*
X386291Y119280D01*
X386188Y119160D01*
X386106Y119026D01*
X386046Y118881D01*
X386009Y118728D01*
X386000Y118571D01*
X386009Y112414D01*
X386046Y112261D01*
X386106Y112115D01*
X386188Y111981D01*
X386291Y111862D01*
X386410Y111759D01*
X386545Y111677D01*
X386690Y111617D01*
X386843Y111580D01*
X387000Y111571D01*
X390000Y111575D01*
Y92066D01*
X386843Y92062D01*
X386690Y92025D01*
X386545Y91965D01*
X386410Y91882D01*
X386291Y91780D01*
X386188Y91660D01*
X386106Y91526D01*
X386046Y91381D01*
X386009Y91228D01*
X386000Y91071D01*
X386009Y84914D01*
X386046Y84761D01*
X386106Y84615D01*
X386188Y84481D01*
X386291Y84362D01*
X386410Y84259D01*
X386545Y84177D01*
X386690Y84117D01*
X386843Y84080D01*
X387000Y84071D01*
X390000Y84075D01*
Y82066D01*
X386843Y82062D01*
X386690Y82025D01*
X386545Y81965D01*
X386410Y81882D01*
X386291Y81780D01*
X386188Y81660D01*
X386106Y81526D01*
X386046Y81381D01*
X386009Y81228D01*
X386000Y81071D01*
X386009Y74914D01*
X386046Y74761D01*
X386106Y74615D01*
X386188Y74481D01*
X386291Y74362D01*
X386410Y74259D01*
X386545Y74177D01*
X386690Y74117D01*
X386843Y74080D01*
X387000Y74071D01*
X390000Y74075D01*
Y72066D01*
X386843Y72062D01*
X386690Y72025D01*
X386545Y71965D01*
X386410Y71882D01*
X386291Y71780D01*
X386188Y71660D01*
X386106Y71526D01*
X386046Y71381D01*
X386009Y71228D01*
X386000Y71071D01*
X386009Y64914D01*
X386046Y64761D01*
X386106Y64615D01*
X386188Y64481D01*
X386291Y64362D01*
X386410Y64259D01*
X386545Y64177D01*
X386690Y64117D01*
X386843Y64080D01*
X387000Y64071D01*
X390000Y64075D01*
Y19681D01*
X344744D01*
Y103772D01*
X348401Y103777D01*
X348554Y103814D01*
X348699Y103874D01*
X348834Y103956D01*
X348953Y104058D01*
X349056Y104178D01*
X349138Y104312D01*
X349198Y104458D01*
X349235Y104611D01*
X349244Y104768D01*
X349235Y111925D01*
X349198Y112078D01*
X349138Y112223D01*
X349056Y112357D01*
X348953Y112477D01*
X348834Y112579D01*
X348699Y112661D01*
X348554Y112722D01*
X348401Y112758D01*
X348244Y112768D01*
X344744Y112763D01*
Y382164D01*
X344838Y382555D01*
X344915Y383858D01*
X344838Y385160D01*
X344744Y385552D01*
Y413386D01*
G37*
G36*
X283458D02*X344744D01*
Y385552D01*
X344533Y386431D01*
X344033Y387638D01*
X343351Y388752D01*
X342502Y389745D01*
X341509Y390593D01*
X340395Y391276D01*
X339188Y391776D01*
X337917Y392081D01*
X336615Y392183D01*
X335313Y392081D01*
X334042Y391776D01*
X332835Y391276D01*
X331721Y390593D01*
X330728Y389745D01*
X329879Y388752D01*
X329197Y387638D01*
X328697Y386431D01*
X328392Y385160D01*
X328289Y383858D01*
X328392Y382555D01*
X328697Y381285D01*
X329197Y380078D01*
X329879Y378964D01*
X330728Y377971D01*
X331721Y377122D01*
X332835Y376440D01*
X334042Y375940D01*
X335313Y375635D01*
X336615Y375532D01*
X337917Y375635D01*
X339188Y375940D01*
X340395Y376440D01*
X341509Y377122D01*
X342502Y377971D01*
X343351Y378964D01*
X344033Y380078D01*
X344533Y381285D01*
X344744Y382164D01*
Y112763D01*
X341087Y112758D01*
X340934Y112722D01*
X340789Y112661D01*
X340654Y112579D01*
X340535Y112477D01*
X340433Y112357D01*
X340350Y112223D01*
X340290Y112078D01*
X340253Y111925D01*
X340244Y111768D01*
X340253Y104611D01*
X340290Y104458D01*
X340350Y104312D01*
X340433Y104178D01*
X340535Y104058D01*
X340654Y103956D01*
X340789Y103874D01*
X340934Y103814D01*
X341087Y103777D01*
X341244Y103768D01*
X344744Y103772D01*
Y19681D01*
X283458D01*
Y44449D01*
X283465Y44448D01*
X284210Y44507D01*
X284937Y44682D01*
X285628Y44968D01*
X286266Y45358D01*
X286834Y45844D01*
X287320Y46412D01*
X287710Y47050D01*
X287996Y47741D01*
X288171Y48468D01*
X288215Y49213D01*
X288171Y49958D01*
X287996Y50685D01*
X287710Y51376D01*
X287320Y52014D01*
X286834Y52582D01*
X286266Y53068D01*
X285628Y53458D01*
X284937Y53744D01*
X284210Y53919D01*
X283465Y53978D01*
X283458Y53977D01*
Y413386D01*
G37*
G36*
X254737D02*X283458D01*
Y53977D01*
X282720Y53919D01*
X281993Y53744D01*
X281302Y53458D01*
X280664Y53068D01*
X280096Y52582D01*
X279610Y52014D01*
X279220Y51376D01*
X278934Y50685D01*
X278759Y49958D01*
X278700Y49213D01*
X278759Y48468D01*
X278934Y47741D01*
X279220Y47050D01*
X279610Y46412D01*
X280096Y45844D01*
X280664Y45358D01*
X281302Y44968D01*
X281993Y44682D01*
X282720Y44507D01*
X283458Y44449D01*
Y19681D01*
X254737D01*
Y103754D01*
X254744Y103754D01*
X255450Y103809D01*
X256139Y103975D01*
X256793Y104246D01*
X257397Y104616D01*
X257936Y105076D01*
X258396Y105615D01*
X258766Y106218D01*
X259037Y106873D01*
X259202Y107562D01*
X259244Y108268D01*
X259202Y108974D01*
X259037Y109663D01*
X258766Y110317D01*
X258396Y110921D01*
X257936Y111460D01*
X257397Y111920D01*
X256793Y112290D01*
X256139Y112561D01*
X255450Y112726D01*
X254744Y112782D01*
X254737Y112781D01*
Y413386D01*
G37*
G36*
X64954D02*X254737D01*
Y112781D01*
X254038Y112726D01*
X253349Y112561D01*
X252695Y112290D01*
X252091Y111920D01*
X251552Y111460D01*
X251092Y110921D01*
X250722Y110317D01*
X250451Y109663D01*
X250286Y108974D01*
X250230Y108268D01*
X250286Y107562D01*
X250451Y106873D01*
X250722Y106218D01*
X251092Y105615D01*
X251552Y105076D01*
X252091Y104616D01*
X252695Y104246D01*
X253349Y103975D01*
X254038Y103809D01*
X254737Y103754D01*
Y19681D01*
X64954D01*
Y62023D01*
X64961Y62022D01*
X65667Y62078D01*
X66356Y62243D01*
X67010Y62514D01*
X67614Y62884D01*
X68153Y63344D01*
X68613Y63883D01*
X68983Y64487D01*
X69254Y65141D01*
X69419Y65830D01*
X69461Y66536D01*
X69419Y67242D01*
X69254Y67931D01*
X68983Y68585D01*
X68613Y69189D01*
X68153Y69728D01*
X67614Y70188D01*
X67010Y70558D01*
X66356Y70829D01*
X65667Y70994D01*
X64961Y71050D01*
X64954Y71049D01*
Y72023D01*
X64961Y72022D01*
X65667Y72078D01*
X66356Y72243D01*
X67010Y72514D01*
X67614Y72884D01*
X68153Y73344D01*
X68613Y73883D01*
X68983Y74487D01*
X69254Y75141D01*
X69419Y75830D01*
X69461Y76536D01*
X69419Y77242D01*
X69254Y77931D01*
X68983Y78585D01*
X68613Y79189D01*
X68153Y79728D01*
X67614Y80188D01*
X67010Y80558D01*
X66356Y80829D01*
X65667Y80994D01*
X64961Y81050D01*
X64954Y81049D01*
Y82023D01*
X64961Y82022D01*
X65667Y82078D01*
X66356Y82243D01*
X67010Y82514D01*
X67614Y82884D01*
X68153Y83344D01*
X68613Y83883D01*
X68983Y84487D01*
X69254Y85141D01*
X69419Y85830D01*
X69461Y86536D01*
X69419Y87242D01*
X69254Y87931D01*
X68983Y88585D01*
X68613Y89189D01*
X68153Y89728D01*
X67614Y90188D01*
X67010Y90558D01*
X66356Y90829D01*
X65667Y90994D01*
X64961Y91050D01*
X64954Y91049D01*
Y92023D01*
X64961Y92022D01*
X65667Y92078D01*
X66356Y92243D01*
X67010Y92514D01*
X67614Y92884D01*
X68153Y93344D01*
X68613Y93883D01*
X68983Y94487D01*
X69254Y95141D01*
X69419Y95830D01*
X69461Y96536D01*
X69419Y97242D01*
X69254Y97931D01*
X68983Y98585D01*
X68613Y99189D01*
X68153Y99728D01*
X67614Y100188D01*
X67010Y100558D01*
X66356Y100829D01*
X65667Y100994D01*
X64961Y101050D01*
X64954Y101049D01*
Y102023D01*
X64961Y102022D01*
X65667Y102078D01*
X66356Y102243D01*
X67010Y102514D01*
X67614Y102884D01*
X68153Y103344D01*
X68613Y103883D01*
X68983Y104487D01*
X69254Y105141D01*
X69419Y105830D01*
X69461Y106536D01*
X69419Y107242D01*
X69254Y107931D01*
X68983Y108585D01*
X68613Y109189D01*
X68153Y109728D01*
X67614Y110188D01*
X67010Y110558D01*
X66356Y110829D01*
X65667Y110994D01*
X64961Y111050D01*
X64954Y111049D01*
Y112023D01*
X64961Y112022D01*
X65667Y112078D01*
X66356Y112243D01*
X67010Y112514D01*
X67614Y112884D01*
X68153Y113344D01*
X68613Y113883D01*
X68983Y114487D01*
X69254Y115141D01*
X69419Y115830D01*
X69461Y116536D01*
X69419Y117242D01*
X69254Y117931D01*
X68983Y118585D01*
X68613Y119189D01*
X68153Y119728D01*
X67614Y120188D01*
X67010Y120558D01*
X66356Y120829D01*
X65667Y120994D01*
X64961Y121050D01*
X64954Y121049D01*
Y122023D01*
X64961Y122022D01*
X65667Y122078D01*
X66356Y122243D01*
X67010Y122514D01*
X67614Y122884D01*
X68153Y123344D01*
X68613Y123883D01*
X68983Y124487D01*
X69254Y125141D01*
X69419Y125830D01*
X69461Y126536D01*
X69419Y127242D01*
X69254Y127931D01*
X68983Y128585D01*
X68613Y129189D01*
X68153Y129728D01*
X67614Y130188D01*
X67010Y130558D01*
X66356Y130829D01*
X65667Y130994D01*
X64961Y131050D01*
X64954Y131049D01*
Y132023D01*
X64961Y132022D01*
X65667Y132078D01*
X66356Y132243D01*
X67010Y132514D01*
X67614Y132884D01*
X68153Y133344D01*
X68613Y133883D01*
X68983Y134487D01*
X69254Y135141D01*
X69419Y135830D01*
X69461Y136536D01*
X69419Y137242D01*
X69254Y137931D01*
X68983Y138585D01*
X68613Y139189D01*
X68153Y139728D01*
X67614Y140188D01*
X67010Y140558D01*
X66356Y140829D01*
X65667Y140994D01*
X64961Y141050D01*
X64954Y141049D01*
Y142023D01*
X64961Y142022D01*
X65667Y142078D01*
X66356Y142243D01*
X67010Y142514D01*
X67614Y142884D01*
X68153Y143344D01*
X68613Y143883D01*
X68983Y144487D01*
X69254Y145141D01*
X69419Y145830D01*
X69461Y146536D01*
X69419Y147242D01*
X69254Y147931D01*
X68983Y148585D01*
X68613Y149189D01*
X68153Y149728D01*
X67614Y150188D01*
X67010Y150558D01*
X66356Y150829D01*
X65667Y150994D01*
X64961Y151050D01*
X64954Y151049D01*
Y152023D01*
X64961Y152022D01*
X65667Y152078D01*
X66356Y152243D01*
X67010Y152514D01*
X67614Y152884D01*
X68153Y153344D01*
X68613Y153883D01*
X68983Y154487D01*
X69254Y155141D01*
X69419Y155830D01*
X69461Y156536D01*
X69419Y157242D01*
X69254Y157931D01*
X68983Y158585D01*
X68613Y159189D01*
X68153Y159728D01*
X67614Y160188D01*
X67010Y160558D01*
X66356Y160829D01*
X65667Y160994D01*
X64961Y161050D01*
X64954Y161049D01*
Y162023D01*
X64961Y162022D01*
X65667Y162078D01*
X66356Y162243D01*
X67010Y162514D01*
X67614Y162884D01*
X68153Y163344D01*
X68613Y163883D01*
X68983Y164487D01*
X69254Y165141D01*
X69419Y165830D01*
X69461Y166536D01*
X69419Y167242D01*
X69254Y167931D01*
X68983Y168585D01*
X68613Y169189D01*
X68153Y169728D01*
X67614Y170188D01*
X67010Y170558D01*
X66356Y170829D01*
X65667Y170994D01*
X64961Y171050D01*
X64954Y171049D01*
Y172023D01*
X64961Y172022D01*
X65667Y172078D01*
X66356Y172243D01*
X67010Y172514D01*
X67614Y172884D01*
X68153Y173344D01*
X68613Y173883D01*
X68983Y174487D01*
X69254Y175141D01*
X69419Y175830D01*
X69461Y176536D01*
X69419Y177242D01*
X69254Y177931D01*
X68983Y178585D01*
X68613Y179189D01*
X68153Y179728D01*
X67614Y180188D01*
X67010Y180558D01*
X66356Y180829D01*
X65667Y180994D01*
X64961Y181050D01*
X64954Y181049D01*
Y182023D01*
X64961Y182022D01*
X65667Y182078D01*
X66356Y182243D01*
X67010Y182514D01*
X67614Y182884D01*
X68153Y183344D01*
X68613Y183883D01*
X68983Y184487D01*
X69254Y185141D01*
X69419Y185830D01*
X69461Y186536D01*
X69419Y187242D01*
X69254Y187931D01*
X68983Y188585D01*
X68613Y189189D01*
X68153Y189728D01*
X67614Y190188D01*
X67010Y190558D01*
X66356Y190829D01*
X65667Y190994D01*
X64961Y191050D01*
X64954Y191049D01*
Y192023D01*
X64961Y192022D01*
X65667Y192078D01*
X66356Y192243D01*
X67010Y192514D01*
X67614Y192884D01*
X68153Y193344D01*
X68613Y193883D01*
X68983Y194487D01*
X69254Y195141D01*
X69419Y195830D01*
X69461Y196536D01*
X69419Y197242D01*
X69254Y197931D01*
X68983Y198585D01*
X68613Y199189D01*
X68153Y199728D01*
X67614Y200188D01*
X67010Y200558D01*
X66356Y200829D01*
X65667Y200994D01*
X64961Y201050D01*
X64954Y201049D01*
Y202023D01*
X64961Y202022D01*
X65667Y202078D01*
X66356Y202243D01*
X67010Y202514D01*
X67614Y202884D01*
X68153Y203344D01*
X68613Y203883D01*
X68983Y204487D01*
X69254Y205141D01*
X69419Y205830D01*
X69461Y206536D01*
X69419Y207242D01*
X69254Y207931D01*
X68983Y208585D01*
X68613Y209189D01*
X68153Y209728D01*
X67614Y210188D01*
X67010Y210558D01*
X66356Y210829D01*
X65667Y210994D01*
X64961Y211050D01*
X64954Y211049D01*
Y212023D01*
X64961Y212022D01*
X65667Y212078D01*
X66356Y212243D01*
X67010Y212514D01*
X67614Y212884D01*
X68153Y213344D01*
X68613Y213883D01*
X68983Y214487D01*
X69254Y215141D01*
X69419Y215830D01*
X69461Y216536D01*
X69419Y217242D01*
X69254Y217931D01*
X68983Y218585D01*
X68613Y219189D01*
X68153Y219728D01*
X67614Y220188D01*
X67010Y220558D01*
X66356Y220829D01*
X65667Y220994D01*
X64961Y221050D01*
X64954Y221049D01*
Y222023D01*
X64961Y222022D01*
X65667Y222078D01*
X66356Y222243D01*
X67010Y222514D01*
X67614Y222884D01*
X68153Y223344D01*
X68613Y223883D01*
X68983Y224487D01*
X69254Y225141D01*
X69419Y225830D01*
X69461Y226536D01*
X69419Y227242D01*
X69254Y227931D01*
X68983Y228585D01*
X68613Y229189D01*
X68153Y229728D01*
X67614Y230188D01*
X67010Y230558D01*
X66356Y230829D01*
X65667Y230994D01*
X64961Y231050D01*
X64954Y231049D01*
Y232023D01*
X64961Y232022D01*
X65667Y232078D01*
X66356Y232243D01*
X67010Y232514D01*
X67614Y232884D01*
X68153Y233344D01*
X68613Y233883D01*
X68983Y234487D01*
X69254Y235141D01*
X69419Y235830D01*
X69461Y236536D01*
X69419Y237242D01*
X69254Y237931D01*
X68983Y238585D01*
X68613Y239189D01*
X68153Y239728D01*
X67614Y240188D01*
X67010Y240558D01*
X66356Y240829D01*
X65667Y240994D01*
X64961Y241050D01*
X64954Y241049D01*
Y242023D01*
X64961Y242022D01*
X65667Y242078D01*
X66356Y242243D01*
X67010Y242514D01*
X67614Y242884D01*
X68153Y243344D01*
X68613Y243883D01*
X68983Y244487D01*
X69254Y245141D01*
X69419Y245830D01*
X69461Y246536D01*
X69419Y247242D01*
X69254Y247931D01*
X68983Y248585D01*
X68613Y249189D01*
X68153Y249728D01*
X67614Y250188D01*
X67010Y250558D01*
X66356Y250829D01*
X65667Y250994D01*
X64961Y251050D01*
X64954Y251049D01*
Y252023D01*
X64961Y252022D01*
X65667Y252078D01*
X66356Y252243D01*
X67010Y252514D01*
X67614Y252884D01*
X68153Y253344D01*
X68613Y253883D01*
X68983Y254487D01*
X69254Y255141D01*
X69419Y255830D01*
X69461Y256536D01*
X69419Y257242D01*
X69254Y257931D01*
X68983Y258585D01*
X68613Y259189D01*
X68153Y259728D01*
X67614Y260188D01*
X67010Y260558D01*
X66356Y260829D01*
X65667Y260994D01*
X64961Y261050D01*
X64954Y261049D01*
Y262023D01*
X64961Y262022D01*
X65667Y262078D01*
X66356Y262243D01*
X67010Y262514D01*
X67614Y262884D01*
X68153Y263344D01*
X68613Y263883D01*
X68983Y264487D01*
X69254Y265141D01*
X69419Y265830D01*
X69461Y266536D01*
X69419Y267242D01*
X69254Y267931D01*
X68983Y268585D01*
X68613Y269189D01*
X68153Y269728D01*
X67614Y270188D01*
X67010Y270558D01*
X66356Y270829D01*
X65667Y270994D01*
X64961Y271050D01*
X64954Y271049D01*
Y272023D01*
X64961Y272022D01*
X65667Y272078D01*
X66356Y272243D01*
X67010Y272514D01*
X67614Y272884D01*
X68153Y273344D01*
X68613Y273883D01*
X68983Y274487D01*
X69254Y275141D01*
X69419Y275830D01*
X69461Y276536D01*
X69419Y277242D01*
X69254Y277931D01*
X68983Y278585D01*
X68613Y279189D01*
X68153Y279728D01*
X67614Y280188D01*
X67010Y280558D01*
X66356Y280829D01*
X65667Y280994D01*
X64961Y281050D01*
X64954Y281049D01*
Y282023D01*
X64961Y282022D01*
X65667Y282078D01*
X66356Y282243D01*
X67010Y282514D01*
X67614Y282884D01*
X68153Y283344D01*
X68613Y283883D01*
X68983Y284487D01*
X69254Y285141D01*
X69419Y285830D01*
X69461Y286536D01*
X69419Y287242D01*
X69254Y287931D01*
X68983Y288585D01*
X68613Y289189D01*
X68153Y289728D01*
X67614Y290188D01*
X67010Y290558D01*
X66356Y290829D01*
X65667Y290994D01*
X64961Y291050D01*
X64954Y291049D01*
Y292023D01*
X64961Y292022D01*
X65667Y292078D01*
X66356Y292243D01*
X67010Y292514D01*
X67614Y292884D01*
X68153Y293344D01*
X68613Y293883D01*
X68983Y294487D01*
X69254Y295141D01*
X69419Y295830D01*
X69461Y296536D01*
X69419Y297242D01*
X69254Y297931D01*
X68983Y298585D01*
X68613Y299189D01*
X68153Y299728D01*
X67614Y300188D01*
X67010Y300558D01*
X66356Y300829D01*
X65667Y300994D01*
X64961Y301050D01*
X64954Y301049D01*
Y302023D01*
X64961Y302022D01*
X65667Y302078D01*
X66356Y302243D01*
X67010Y302514D01*
X67614Y302884D01*
X68153Y303344D01*
X68613Y303883D01*
X68983Y304487D01*
X69254Y305141D01*
X69419Y305830D01*
X69461Y306536D01*
X69419Y307242D01*
X69254Y307931D01*
X68983Y308585D01*
X68613Y309189D01*
X68153Y309728D01*
X67614Y310188D01*
X67010Y310558D01*
X66356Y310829D01*
X65667Y310994D01*
X64961Y311050D01*
X64954Y311049D01*
Y312023D01*
X64961Y312022D01*
X65667Y312078D01*
X66356Y312243D01*
X67010Y312514D01*
X67614Y312884D01*
X68153Y313344D01*
X68613Y313883D01*
X68983Y314487D01*
X69254Y315141D01*
X69419Y315830D01*
X69461Y316536D01*
X69419Y317242D01*
X69254Y317931D01*
X68983Y318585D01*
X68613Y319189D01*
X68153Y319728D01*
X67614Y320188D01*
X67010Y320558D01*
X66356Y320829D01*
X65667Y320994D01*
X64961Y321050D01*
X64954Y321049D01*
Y322023D01*
X64961Y322022D01*
X65667Y322078D01*
X66356Y322243D01*
X67010Y322514D01*
X67614Y322884D01*
X68153Y323344D01*
X68613Y323883D01*
X68983Y324487D01*
X69254Y325141D01*
X69419Y325830D01*
X69461Y326536D01*
X69419Y327242D01*
X69254Y327931D01*
X68983Y328585D01*
X68613Y329189D01*
X68153Y329728D01*
X67614Y330188D01*
X67010Y330558D01*
X66356Y330829D01*
X65667Y330994D01*
X64961Y331050D01*
X64954Y331049D01*
Y332023D01*
X64961Y332022D01*
X65667Y332078D01*
X66356Y332243D01*
X67010Y332514D01*
X67614Y332884D01*
X68153Y333344D01*
X68613Y333883D01*
X68983Y334487D01*
X69254Y335141D01*
X69419Y335830D01*
X69461Y336536D01*
X69419Y337242D01*
X69254Y337931D01*
X68983Y338585D01*
X68613Y339189D01*
X68153Y339728D01*
X67614Y340188D01*
X67010Y340558D01*
X66356Y340829D01*
X65667Y340994D01*
X64961Y341050D01*
X64954Y341049D01*
Y342023D01*
X64961Y342022D01*
X65667Y342078D01*
X66356Y342243D01*
X67010Y342514D01*
X67614Y342884D01*
X68153Y343344D01*
X68613Y343883D01*
X68983Y344487D01*
X69254Y345141D01*
X69419Y345830D01*
X69461Y346536D01*
X69419Y347242D01*
X69254Y347931D01*
X68983Y348585D01*
X68613Y349189D01*
X68153Y349728D01*
X67614Y350188D01*
X67010Y350558D01*
X66356Y350829D01*
X65667Y350994D01*
X64961Y351050D01*
X64954Y351049D01*
Y352023D01*
X64961Y352022D01*
X65667Y352078D01*
X66356Y352243D01*
X67010Y352514D01*
X67614Y352884D01*
X68153Y353344D01*
X68613Y353883D01*
X68983Y354487D01*
X69254Y355141D01*
X69419Y355830D01*
X69461Y356536D01*
X69419Y357242D01*
X69254Y357931D01*
X68983Y358585D01*
X68613Y359189D01*
X68153Y359728D01*
X67614Y360188D01*
X67010Y360558D01*
X66356Y360829D01*
X65667Y360994D01*
X64961Y361050D01*
X64954Y361049D01*
Y362043D01*
X68196Y362050D01*
X68426Y362105D01*
X68644Y362195D01*
X68845Y362319D01*
X69025Y362472D01*
X69178Y362651D01*
X69302Y362853D01*
X69392Y363071D01*
X69447Y363300D01*
X69461Y363536D01*
X69447Y369771D01*
X69392Y370001D01*
X69302Y370219D01*
X69178Y370420D01*
X69025Y370600D01*
X68845Y370753D01*
X68644Y370876D01*
X68426Y370967D01*
X68196Y371022D01*
X67961Y371036D01*
X64954Y371029D01*
Y413386D01*
G37*
G36*
X37389D02*X64954D01*
Y371029D01*
X61726Y371022D01*
X61496Y370967D01*
X61278Y370876D01*
X61077Y370753D01*
X60897Y370600D01*
X60744Y370420D01*
X60620Y370219D01*
X60530Y370001D01*
X60475Y369771D01*
X60461Y369536D01*
X60475Y363300D01*
X60530Y363071D01*
X60620Y362853D01*
X60744Y362651D01*
X60897Y362472D01*
X61077Y362319D01*
X61278Y362195D01*
X61496Y362105D01*
X61726Y362050D01*
X61961Y362036D01*
X64954Y362043D01*
Y361049D01*
X64255Y360994D01*
X63566Y360829D01*
X62912Y360558D01*
X62308Y360188D01*
X61769Y359728D01*
X61309Y359189D01*
X60939Y358585D01*
X60668Y357931D01*
X60503Y357242D01*
X60447Y356536D01*
X60503Y355830D01*
X60668Y355141D01*
X60939Y354487D01*
X61309Y353883D01*
X61769Y353344D01*
X62308Y352884D01*
X62912Y352514D01*
X63566Y352243D01*
X64255Y352078D01*
X64954Y352023D01*
Y351049D01*
X64255Y350994D01*
X63566Y350829D01*
X62912Y350558D01*
X62308Y350188D01*
X61769Y349728D01*
X61309Y349189D01*
X60939Y348585D01*
X60668Y347931D01*
X60503Y347242D01*
X60447Y346536D01*
X60503Y345830D01*
X60668Y345141D01*
X60939Y344487D01*
X61309Y343883D01*
X61769Y343344D01*
X62308Y342884D01*
X62912Y342514D01*
X63566Y342243D01*
X64255Y342078D01*
X64954Y342023D01*
Y341049D01*
X64255Y340994D01*
X63566Y340829D01*
X62912Y340558D01*
X62308Y340188D01*
X61769Y339728D01*
X61309Y339189D01*
X60939Y338585D01*
X60668Y337931D01*
X60503Y337242D01*
X60447Y336536D01*
X60503Y335830D01*
X60668Y335141D01*
X60939Y334487D01*
X61309Y333883D01*
X61769Y333344D01*
X62308Y332884D01*
X62912Y332514D01*
X63566Y332243D01*
X64255Y332078D01*
X64954Y332023D01*
Y331049D01*
X64255Y330994D01*
X63566Y330829D01*
X62912Y330558D01*
X62308Y330188D01*
X61769Y329728D01*
X61309Y329189D01*
X60939Y328585D01*
X60668Y327931D01*
X60503Y327242D01*
X60447Y326536D01*
X60503Y325830D01*
X60668Y325141D01*
X60939Y324487D01*
X61309Y323883D01*
X61769Y323344D01*
X62308Y322884D01*
X62912Y322514D01*
X63566Y322243D01*
X64255Y322078D01*
X64954Y322023D01*
Y321049D01*
X64255Y320994D01*
X63566Y320829D01*
X62912Y320558D01*
X62308Y320188D01*
X61769Y319728D01*
X61309Y319189D01*
X60939Y318585D01*
X60668Y317931D01*
X60503Y317242D01*
X60447Y316536D01*
X60503Y315830D01*
X60668Y315141D01*
X60939Y314487D01*
X61309Y313883D01*
X61769Y313344D01*
X62308Y312884D01*
X62912Y312514D01*
X63566Y312243D01*
X64255Y312078D01*
X64954Y312023D01*
Y311049D01*
X64255Y310994D01*
X63566Y310829D01*
X62912Y310558D01*
X62308Y310188D01*
X61769Y309728D01*
X61309Y309189D01*
X60939Y308585D01*
X60668Y307931D01*
X60503Y307242D01*
X60447Y306536D01*
X60503Y305830D01*
X60668Y305141D01*
X60939Y304487D01*
X61309Y303883D01*
X61769Y303344D01*
X62308Y302884D01*
X62912Y302514D01*
X63566Y302243D01*
X64255Y302078D01*
X64954Y302023D01*
Y301049D01*
X64255Y300994D01*
X63566Y300829D01*
X62912Y300558D01*
X62308Y300188D01*
X61769Y299728D01*
X61309Y299189D01*
X60939Y298585D01*
X60668Y297931D01*
X60503Y297242D01*
X60447Y296536D01*
X60503Y295830D01*
X60668Y295141D01*
X60939Y294487D01*
X61309Y293883D01*
X61769Y293344D01*
X62308Y292884D01*
X62912Y292514D01*
X63566Y292243D01*
X64255Y292078D01*
X64954Y292023D01*
Y291049D01*
X64255Y290994D01*
X63566Y290829D01*
X62912Y290558D01*
X62308Y290188D01*
X61769Y289728D01*
X61309Y289189D01*
X60939Y288585D01*
X60668Y287931D01*
X60503Y287242D01*
X60447Y286536D01*
X60503Y285830D01*
X60668Y285141D01*
X60939Y284487D01*
X61309Y283883D01*
X61769Y283344D01*
X62308Y282884D01*
X62912Y282514D01*
X63566Y282243D01*
X64255Y282078D01*
X64954Y282023D01*
Y281049D01*
X64255Y280994D01*
X63566Y280829D01*
X62912Y280558D01*
X62308Y280188D01*
X61769Y279728D01*
X61309Y279189D01*
X60939Y278585D01*
X60668Y277931D01*
X60503Y277242D01*
X60447Y276536D01*
X60503Y275830D01*
X60668Y275141D01*
X60939Y274487D01*
X61309Y273883D01*
X61769Y273344D01*
X62308Y272884D01*
X62912Y272514D01*
X63566Y272243D01*
X64255Y272078D01*
X64954Y272023D01*
Y271049D01*
X64255Y270994D01*
X63566Y270829D01*
X62912Y270558D01*
X62308Y270188D01*
X61769Y269728D01*
X61309Y269189D01*
X60939Y268585D01*
X60668Y267931D01*
X60503Y267242D01*
X60447Y266536D01*
X60503Y265830D01*
X60668Y265141D01*
X60939Y264487D01*
X61309Y263883D01*
X61769Y263344D01*
X62308Y262884D01*
X62912Y262514D01*
X63566Y262243D01*
X64255Y262078D01*
X64954Y262023D01*
Y261049D01*
X64255Y260994D01*
X63566Y260829D01*
X62912Y260558D01*
X62308Y260188D01*
X61769Y259728D01*
X61309Y259189D01*
X60939Y258585D01*
X60668Y257931D01*
X60503Y257242D01*
X60447Y256536D01*
X60503Y255830D01*
X60668Y255141D01*
X60939Y254487D01*
X61309Y253883D01*
X61769Y253344D01*
X62308Y252884D01*
X62912Y252514D01*
X63566Y252243D01*
X64255Y252078D01*
X64954Y252023D01*
Y251049D01*
X64255Y250994D01*
X63566Y250829D01*
X62912Y250558D01*
X62308Y250188D01*
X61769Y249728D01*
X61309Y249189D01*
X60939Y248585D01*
X60668Y247931D01*
X60503Y247242D01*
X60447Y246536D01*
X60503Y245830D01*
X60668Y245141D01*
X60939Y244487D01*
X61309Y243883D01*
X61769Y243344D01*
X62308Y242884D01*
X62912Y242514D01*
X63566Y242243D01*
X64255Y242078D01*
X64954Y242023D01*
Y241049D01*
X64255Y240994D01*
X63566Y240829D01*
X62912Y240558D01*
X62308Y240188D01*
X61769Y239728D01*
X61309Y239189D01*
X60939Y238585D01*
X60668Y237931D01*
X60503Y237242D01*
X60447Y236536D01*
X60503Y235830D01*
X60668Y235141D01*
X60939Y234487D01*
X61309Y233883D01*
X61769Y233344D01*
X62308Y232884D01*
X62912Y232514D01*
X63566Y232243D01*
X64255Y232078D01*
X64954Y232023D01*
Y231049D01*
X64255Y230994D01*
X63566Y230829D01*
X62912Y230558D01*
X62308Y230188D01*
X61769Y229728D01*
X61309Y229189D01*
X60939Y228585D01*
X60668Y227931D01*
X60503Y227242D01*
X60447Y226536D01*
X60503Y225830D01*
X60668Y225141D01*
X60939Y224487D01*
X61309Y223883D01*
X61769Y223344D01*
X62308Y222884D01*
X62912Y222514D01*
X63566Y222243D01*
X64255Y222078D01*
X64954Y222023D01*
Y221049D01*
X64255Y220994D01*
X63566Y220829D01*
X62912Y220558D01*
X62308Y220188D01*
X61769Y219728D01*
X61309Y219189D01*
X60939Y218585D01*
X60668Y217931D01*
X60503Y217242D01*
X60447Y216536D01*
X60503Y215830D01*
X60668Y215141D01*
X60939Y214487D01*
X61309Y213883D01*
X61769Y213344D01*
X62308Y212884D01*
X62912Y212514D01*
X63566Y212243D01*
X64255Y212078D01*
X64954Y212023D01*
Y211049D01*
X64255Y210994D01*
X63566Y210829D01*
X62912Y210558D01*
X62308Y210188D01*
X61769Y209728D01*
X61309Y209189D01*
X60939Y208585D01*
X60668Y207931D01*
X60503Y207242D01*
X60447Y206536D01*
X60503Y205830D01*
X60668Y205141D01*
X60939Y204487D01*
X61309Y203883D01*
X61769Y203344D01*
X62308Y202884D01*
X62912Y202514D01*
X63566Y202243D01*
X64255Y202078D01*
X64954Y202023D01*
Y201049D01*
X64255Y200994D01*
X63566Y200829D01*
X62912Y200558D01*
X62308Y200188D01*
X61769Y199728D01*
X61309Y199189D01*
X60939Y198585D01*
X60668Y197931D01*
X60503Y197242D01*
X60447Y196536D01*
X60503Y195830D01*
X60668Y195141D01*
X60939Y194487D01*
X61309Y193883D01*
X61769Y193344D01*
X62308Y192884D01*
X62912Y192514D01*
X63566Y192243D01*
X64255Y192078D01*
X64954Y192023D01*
Y191049D01*
X64255Y190994D01*
X63566Y190829D01*
X62912Y190558D01*
X62308Y190188D01*
X61769Y189728D01*
X61309Y189189D01*
X60939Y188585D01*
X60668Y187931D01*
X60503Y187242D01*
X60447Y186536D01*
X60503Y185830D01*
X60668Y185141D01*
X60939Y184487D01*
X61309Y183883D01*
X61769Y183344D01*
X62308Y182884D01*
X62912Y182514D01*
X63566Y182243D01*
X64255Y182078D01*
X64954Y182023D01*
Y181049D01*
X64255Y180994D01*
X63566Y180829D01*
X62912Y180558D01*
X62308Y180188D01*
X61769Y179728D01*
X61309Y179189D01*
X60939Y178585D01*
X60668Y177931D01*
X60503Y177242D01*
X60447Y176536D01*
X60503Y175830D01*
X60668Y175141D01*
X60939Y174487D01*
X61309Y173883D01*
X61769Y173344D01*
X62308Y172884D01*
X62912Y172514D01*
X63566Y172243D01*
X64255Y172078D01*
X64954Y172023D01*
Y171049D01*
X64255Y170994D01*
X63566Y170829D01*
X62912Y170558D01*
X62308Y170188D01*
X61769Y169728D01*
X61309Y169189D01*
X60939Y168585D01*
X60668Y167931D01*
X60503Y167242D01*
X60447Y166536D01*
X60503Y165830D01*
X60668Y165141D01*
X60939Y164487D01*
X61309Y163883D01*
X61769Y163344D01*
X62308Y162884D01*
X62912Y162514D01*
X63566Y162243D01*
X64255Y162078D01*
X64954Y162023D01*
Y161049D01*
X64255Y160994D01*
X63566Y160829D01*
X62912Y160558D01*
X62308Y160188D01*
X61769Y159728D01*
X61309Y159189D01*
X60939Y158585D01*
X60668Y157931D01*
X60503Y157242D01*
X60447Y156536D01*
X60503Y155830D01*
X60668Y155141D01*
X60939Y154487D01*
X61309Y153883D01*
X61769Y153344D01*
X62308Y152884D01*
X62912Y152514D01*
X63566Y152243D01*
X64255Y152078D01*
X64954Y152023D01*
Y151049D01*
X64255Y150994D01*
X63566Y150829D01*
X62912Y150558D01*
X62308Y150188D01*
X61769Y149728D01*
X61309Y149189D01*
X60939Y148585D01*
X60668Y147931D01*
X60503Y147242D01*
X60447Y146536D01*
X60503Y145830D01*
X60668Y145141D01*
X60939Y144487D01*
X61309Y143883D01*
X61769Y143344D01*
X62308Y142884D01*
X62912Y142514D01*
X63566Y142243D01*
X64255Y142078D01*
X64954Y142023D01*
Y141049D01*
X64255Y140994D01*
X63566Y140829D01*
X62912Y140558D01*
X62308Y140188D01*
X61769Y139728D01*
X61309Y139189D01*
X60939Y138585D01*
X60668Y137931D01*
X60503Y137242D01*
X60447Y136536D01*
X60503Y135830D01*
X60668Y135141D01*
X60939Y134487D01*
X61309Y133883D01*
X61769Y133344D01*
X62308Y132884D01*
X62912Y132514D01*
X63566Y132243D01*
X64255Y132078D01*
X64954Y132023D01*
Y131049D01*
X64255Y130994D01*
X63566Y130829D01*
X62912Y130558D01*
X62308Y130188D01*
X61769Y129728D01*
X61309Y129189D01*
X60939Y128585D01*
X60668Y127931D01*
X60503Y127242D01*
X60447Y126536D01*
X60503Y125830D01*
X60668Y125141D01*
X60939Y124487D01*
X61309Y123883D01*
X61769Y123344D01*
X62308Y122884D01*
X62912Y122514D01*
X63566Y122243D01*
X64255Y122078D01*
X64954Y122023D01*
Y121049D01*
X64255Y120994D01*
X63566Y120829D01*
X62912Y120558D01*
X62308Y120188D01*
X61769Y119728D01*
X61309Y119189D01*
X60939Y118585D01*
X60668Y117931D01*
X60503Y117242D01*
X60447Y116536D01*
X60503Y115830D01*
X60668Y115141D01*
X60939Y114487D01*
X61309Y113883D01*
X61769Y113344D01*
X62308Y112884D01*
X62912Y112514D01*
X63566Y112243D01*
X64255Y112078D01*
X64954Y112023D01*
Y111049D01*
X64255Y110994D01*
X63566Y110829D01*
X62912Y110558D01*
X62308Y110188D01*
X61769Y109728D01*
X61309Y109189D01*
X60939Y108585D01*
X60668Y107931D01*
X60503Y107242D01*
X60447Y106536D01*
X60503Y105830D01*
X60668Y105141D01*
X60939Y104487D01*
X61309Y103883D01*
X61769Y103344D01*
X62308Y102884D01*
X62912Y102514D01*
X63566Y102243D01*
X64255Y102078D01*
X64954Y102023D01*
Y101049D01*
X64255Y100994D01*
X63566Y100829D01*
X62912Y100558D01*
X62308Y100188D01*
X61769Y99728D01*
X61309Y99189D01*
X60939Y98585D01*
X60668Y97931D01*
X60503Y97242D01*
X60447Y96536D01*
X60503Y95830D01*
X60668Y95141D01*
X60939Y94487D01*
X61309Y93883D01*
X61769Y93344D01*
X62308Y92884D01*
X62912Y92514D01*
X63566Y92243D01*
X64255Y92078D01*
X64954Y92023D01*
Y91049D01*
X64255Y90994D01*
X63566Y90829D01*
X62912Y90558D01*
X62308Y90188D01*
X61769Y89728D01*
X61309Y89189D01*
X60939Y88585D01*
X60668Y87931D01*
X60503Y87242D01*
X60447Y86536D01*
X60503Y85830D01*
X60668Y85141D01*
X60939Y84487D01*
X61309Y83883D01*
X61769Y83344D01*
X62308Y82884D01*
X62912Y82514D01*
X63566Y82243D01*
X64255Y82078D01*
X64954Y82023D01*
Y81049D01*
X64255Y80994D01*
X63566Y80829D01*
X62912Y80558D01*
X62308Y80188D01*
X61769Y79728D01*
X61309Y79189D01*
X60939Y78585D01*
X60668Y77931D01*
X60503Y77242D01*
X60447Y76536D01*
X60503Y75830D01*
X60668Y75141D01*
X60939Y74487D01*
X61309Y73883D01*
X61769Y73344D01*
X62308Y72884D01*
X62912Y72514D01*
X63566Y72243D01*
X64255Y72078D01*
X64954Y72023D01*
Y71049D01*
X64255Y70994D01*
X63566Y70829D01*
X62912Y70558D01*
X62308Y70188D01*
X61769Y69728D01*
X61309Y69189D01*
X60939Y68585D01*
X60668Y67931D01*
X60503Y67242D01*
X60447Y66536D01*
X60503Y65830D01*
X60668Y65141D01*
X60939Y64487D01*
X61309Y63883D01*
X61769Y63344D01*
X62308Y62884D01*
X62912Y62514D01*
X63566Y62243D01*
X64255Y62078D01*
X64954Y62023D01*
Y19681D01*
X37389D01*
Y40888D01*
X37402Y40887D01*
X38704Y40990D01*
X39975Y41295D01*
X41182Y41795D01*
X42296Y42477D01*
X43289Y43326D01*
X44138Y44319D01*
X44820Y45433D01*
X45320Y46640D01*
X45625Y47911D01*
X45702Y49213D01*
X45625Y50515D01*
X45320Y51786D01*
X44820Y52993D01*
X44138Y54107D01*
X43289Y55100D01*
X42296Y55949D01*
X41182Y56631D01*
X39975Y57131D01*
X38704Y57436D01*
X37402Y57539D01*
X37389Y57538D01*
Y375533D01*
X37402Y375532D01*
X38704Y375635D01*
X39975Y375940D01*
X41182Y376440D01*
X42296Y377122D01*
X43289Y377971D01*
X44138Y378964D01*
X44820Y380078D01*
X45320Y381285D01*
X45625Y382555D01*
X45702Y383858D01*
X45625Y385160D01*
X45320Y386431D01*
X44820Y387638D01*
X44138Y388752D01*
X43289Y389745D01*
X42296Y390593D01*
X41182Y391276D01*
X39975Y391776D01*
X38704Y392081D01*
X37402Y392183D01*
X37389Y392182D01*
Y413386D01*
G37*
G36*
X19685D02*X37389D01*
Y392182D01*
X36100Y392081D01*
X34829Y391776D01*
X33622Y391276D01*
X32508Y390593D01*
X31515Y389745D01*
X30666Y388752D01*
X29984Y387638D01*
X29484Y386431D01*
X29179Y385160D01*
X29076Y383858D01*
X29179Y382555D01*
X29484Y381285D01*
X29984Y380078D01*
X30666Y378964D01*
X31515Y377971D01*
X32508Y377122D01*
X33622Y376440D01*
X34829Y375940D01*
X36100Y375635D01*
X37389Y375533D01*
Y57538D01*
X36100Y57436D01*
X34829Y57131D01*
X33622Y56631D01*
X32508Y55949D01*
X31515Y55100D01*
X30666Y54107D01*
X29984Y52993D01*
X29484Y51786D01*
X29179Y50515D01*
X29076Y49213D01*
X29179Y47911D01*
X29484Y46640D01*
X29984Y45433D01*
X30666Y44319D01*
X31515Y43326D01*
X32508Y42477D01*
X33622Y41795D01*
X34829Y41295D01*
X36100Y40990D01*
X37389Y40888D01*
Y19681D01*
X19685D01*
Y413386D01*
G37*
G54D12*X118110Y39370D03*
G54D13*X334646Y49213D03*
G54D14*X283465D03*
G54D11*G36*
X387000Y178571D02*Y172571D01*
X393000D01*
Y178571D01*
X387000D01*
G37*
G36*
Y158571D02*Y152571D01*
X393000D01*
Y158571D01*
X387000D01*
G37*
G36*
Y168571D02*Y162571D01*
X393000D01*
Y168571D01*
X387000D01*
G37*
G36*
X341244Y111768D02*Y104768D01*
X348244D01*
Y111768D01*
X341244D01*
G37*
G36*
X541500Y101571D02*Y94571D01*
X548500D01*
Y101571D01*
X541500D01*
G37*
G54D15*X455000Y98071D03*
X254744Y108268D03*
G54D11*G36*
X387000Y81071D02*Y75071D01*
X393000D01*
Y81071D01*
X387000D01*
G37*
G36*
Y91071D02*Y85071D01*
X393000D01*
Y91071D01*
X387000D01*
G37*
G36*
Y71071D02*Y65071D01*
X393000D01*
Y71071D01*
X387000D01*
G37*
G36*
Y138571D02*Y132571D01*
X393000D01*
Y138571D01*
X387000D01*
G37*
G36*
Y118571D02*Y112571D01*
X393000D01*
Y118571D01*
X387000D01*
G37*
G36*
Y148571D02*Y142571D01*
X393000D01*
Y148571D01*
X387000D01*
G37*
G36*
Y128571D02*Y122571D01*
X393000D01*
Y128571D01*
X387000D01*
G37*
G36*
Y238571D02*Y232571D01*
X393000D01*
Y238571D01*
X387000D01*
G37*
G36*
Y218571D02*Y212571D01*
X393000D01*
Y218571D01*
X387000D01*
G37*
G36*
Y198571D02*Y192571D01*
X393000D01*
Y198571D01*
X387000D01*
G37*
G36*
Y228571D02*Y222571D01*
X393000D01*
Y228571D01*
X387000D01*
G37*
G36*
Y208571D02*Y202571D01*
X393000D01*
Y208571D01*
X387000D01*
G37*
G36*
Y188571D02*Y182571D01*
X393000D01*
Y188571D01*
X387000D01*
G37*
G54D16*X400000Y235571D03*
Y215571D03*
Y195571D03*
Y225571D03*
Y205571D03*
Y185571D03*
Y115571D03*
Y78071D03*
Y125571D03*
Y88071D03*
Y68071D03*
G54D11*G36*
X387000Y248571D02*Y242571D01*
X393000D01*
Y248571D01*
X387000D01*
G37*
G54D16*X400000Y245571D03*
Y175571D03*
Y155571D03*
Y135571D03*
Y165571D03*
Y145571D03*
G54D12*X196850Y39370D03*
G54D16*X64961Y206536D03*
Y196536D03*
Y186536D03*
Y176536D03*
Y166536D03*
Y156536D03*
Y146536D03*
Y136536D03*
Y126536D03*
Y116536D03*
Y106536D03*
Y96536D03*
Y86536D03*
Y76536D03*
Y66536D03*
G54D12*X118110Y393701D03*
G54D11*G36*
X61961Y369536D02*Y363536D01*
X67961D01*
Y369536D01*
X61961D01*
G37*
G54D16*X64961Y356536D03*
Y346536D03*
Y336536D03*
Y326536D03*
G54D11*G36*
X387000Y358571D02*Y352571D01*
X393000D01*
Y358571D01*
X387000D01*
G37*
G54D16*X400000Y355571D03*
G54D11*G36*
X387000Y368571D02*Y362571D01*
X393000D01*
Y368571D01*
X387000D01*
G37*
G54D16*X400000Y365571D03*
G54D11*G36*
X387000Y298571D02*Y292571D01*
X393000D01*
Y298571D01*
X387000D01*
G37*
G36*
Y278571D02*Y272571D01*
X393000D01*
Y278571D01*
X387000D01*
G37*
G36*
Y258571D02*Y252571D01*
X393000D01*
Y258571D01*
X387000D01*
G37*
G36*
Y308571D02*Y302571D01*
X393000D01*
Y308571D01*
X387000D01*
G37*
G36*
Y288571D02*Y282571D01*
X393000D01*
Y288571D01*
X387000D01*
G37*
G36*
Y268571D02*Y262571D01*
X393000D01*
Y268571D01*
X387000D01*
G37*
G54D16*X400000Y295571D03*
Y275571D03*
Y255571D03*
Y305571D03*
Y285571D03*
Y265571D03*
G54D11*G36*
X387000Y338571D02*Y332571D01*
X393000D01*
Y338571D01*
X387000D01*
G37*
G54D16*X400000Y335571D03*
G54D11*G36*
X387000Y318571D02*Y312571D01*
X393000D01*
Y318571D01*
X387000D01*
G37*
G54D16*X400000Y315571D03*
G54D11*G36*
X387000Y328571D02*Y322571D01*
X393000D01*
Y328571D01*
X387000D01*
G37*
G54D16*X400000Y325571D03*
G54D11*G36*
X387000Y348571D02*Y342571D01*
X393000D01*
Y348571D01*
X387000D01*
G37*
G54D16*X400000Y345571D03*
G54D12*X196850Y393701D03*
G54D16*X64961Y316536D03*
Y306536D03*
Y296536D03*
Y286536D03*
Y276536D03*
Y266536D03*
Y256536D03*
Y246536D03*
Y236536D03*
Y226536D03*
Y216536D03*
G54D11*G36*
X619233Y367774D02*Y360574D01*
X626433D01*
Y367774D01*
X619233D01*
G37*
G54D17*X612991Y354332D03*
X622833Y344489D03*
Y324804D03*
Y305119D03*
X612991Y334647D03*
Y314961D03*
Y295276D03*
Y275591D03*
Y255906D03*
Y236221D03*
X622833Y285434D03*
Y265749D03*
Y246064D03*
X612991Y216537D03*
Y196852D03*
Y177167D03*
X622833Y226379D03*
Y206694D03*
Y187009D03*
Y167324D03*
X612991Y157481D03*
Y137796D03*
Y118111D03*
Y98426D03*
Y78741D03*
X622833Y147639D03*
Y127954D03*
Y108269D03*
Y88584D03*
Y68899D03*
G54D18*G54D19*G54D18*G54D20*G54D21*G54D19*G54D21*G54D19*G54D22*G54D18*G54D19*G54D22*G54D21*G54D18*G54D19*G54D22*G54D23*G54D24*G54D23*G54D24*M02*
