G04 start of page 7 for group -4063 idx -4063 *
G04 Title: 01.003.00.01.01.pcb, componentmask *
G04 Creator: pcb 4.2.0 *
G04 CreationDate: Mon Aug 12 16:43:32 2019 UTC *
G04 For: bert *
G04 Format: Gerber/RS-274X *
G04 PCB-Dimensions (mil): 7086.61 4724.41 *
G04 PCB-Coordinate-Origin: lower left *
%MOIN*%
%FSLAX25Y25*%
%LNGTS*%
%ADD57C,0.1100*%
%ADD56C,0.0720*%
%ADD55C,0.0660*%
%ADD54C,0.0760*%
%ADD53C,0.0001*%
%ADD52C,0.0750*%
%ADD51C,0.2760*%
%ADD50C,0.0710*%
%ADD49C,0.1460*%
G54D49*X37402Y88583D03*
G54D50*X108661Y78740D03*
X222835D03*
G54D51*X334646Y88583D03*
G54D52*X283465D03*
G54D53*G36*
X386700Y218241D02*Y211641D01*
X393300D01*
Y218241D01*
X386700D01*
G37*
G36*
Y198241D02*Y191641D01*
X393300D01*
Y198241D01*
X386700D01*
G37*
G36*
Y208241D02*Y201641D01*
X393300D01*
Y208241D01*
X386700D01*
G37*
G36*
X340944Y151438D02*Y143838D01*
X348544D01*
Y151438D01*
X340944D01*
G37*
G36*
X541200Y141241D02*Y133641D01*
X548800D01*
Y141241D01*
X541200D01*
G37*
G54D54*X455000Y137441D03*
X254744Y147638D03*
G54D53*G36*
X386700Y120741D02*Y114141D01*
X393300D01*
Y120741D01*
X386700D01*
G37*
G36*
Y130741D02*Y124141D01*
X393300D01*
Y130741D01*
X386700D01*
G37*
G36*
Y110741D02*Y104141D01*
X393300D01*
Y110741D01*
X386700D01*
G37*
G36*
Y178241D02*Y171641D01*
X393300D01*
Y178241D01*
X386700D01*
G37*
G36*
Y158241D02*Y151641D01*
X393300D01*
Y158241D01*
X386700D01*
G37*
G36*
Y188241D02*Y181641D01*
X393300D01*
Y188241D01*
X386700D01*
G37*
G36*
Y168241D02*Y161641D01*
X393300D01*
Y168241D01*
X386700D01*
G37*
G36*
Y278241D02*Y271641D01*
X393300D01*
Y278241D01*
X386700D01*
G37*
G36*
Y258241D02*Y251641D01*
X393300D01*
Y258241D01*
X386700D01*
G37*
G36*
Y238241D02*Y231641D01*
X393300D01*
Y238241D01*
X386700D01*
G37*
G36*
Y268241D02*Y261641D01*
X393300D01*
Y268241D01*
X386700D01*
G37*
G36*
Y248241D02*Y241641D01*
X393300D01*
Y248241D01*
X386700D01*
G37*
G36*
Y228241D02*Y221641D01*
X393300D01*
Y228241D01*
X386700D01*
G37*
G54D55*X400000Y274941D03*
Y254941D03*
Y234941D03*
Y264941D03*
Y244941D03*
Y224941D03*
Y154941D03*
Y117441D03*
Y164941D03*
Y127441D03*
Y107441D03*
G54D53*G36*
X386700Y288241D02*Y281641D01*
X393300D01*
Y288241D01*
X386700D01*
G37*
G54D55*X400000Y284941D03*
Y214941D03*
Y194941D03*
Y174941D03*
Y204941D03*
Y184941D03*
X64961Y275906D03*
Y265906D03*
Y255906D03*
Y245906D03*
Y235906D03*
Y225906D03*
Y215906D03*
Y205906D03*
Y195906D03*
Y185906D03*
Y175906D03*
Y165906D03*
Y155906D03*
Y145906D03*
Y135906D03*
Y125906D03*
Y115906D03*
Y105906D03*
G54D49*X37402Y423228D03*
G54D50*X108661Y433071D03*
G54D53*G36*
X61661Y409206D02*Y402606D01*
X68261D01*
Y409206D01*
X61661D01*
G37*
G54D55*X64961Y395906D03*
Y385906D03*
G54D49*X336615Y423228D03*
G54D50*X222835Y433071D03*
G54D55*X64961Y375906D03*
Y365906D03*
Y355906D03*
Y345906D03*
Y335906D03*
Y325906D03*
Y315906D03*
Y305906D03*
Y295906D03*
Y285906D03*
G54D53*G36*
X386700Y398241D02*Y391641D01*
X393300D01*
Y398241D01*
X386700D01*
G37*
G54D55*X400000Y394941D03*
G54D53*G36*
X386700Y408241D02*Y401641D01*
X393300D01*
Y408241D01*
X386700D01*
G37*
G54D55*X400000Y404941D03*
G54D53*G36*
X386700Y338241D02*Y331641D01*
X393300D01*
Y338241D01*
X386700D01*
G37*
G36*
Y318241D02*Y311641D01*
X393300D01*
Y318241D01*
X386700D01*
G37*
G36*
Y298241D02*Y291641D01*
X393300D01*
Y298241D01*
X386700D01*
G37*
G36*
Y348241D02*Y341641D01*
X393300D01*
Y348241D01*
X386700D01*
G37*
G36*
Y328241D02*Y321641D01*
X393300D01*
Y328241D01*
X386700D01*
G37*
G36*
Y308241D02*Y301641D01*
X393300D01*
Y308241D01*
X386700D01*
G37*
G54D55*X400000Y334941D03*
Y314941D03*
Y294941D03*
Y344941D03*
Y324941D03*
Y304941D03*
G54D53*G36*
X386700Y378241D02*Y371641D01*
X393300D01*
Y378241D01*
X386700D01*
G37*
G54D55*X400000Y374941D03*
G54D53*G36*
X386700Y358241D02*Y351641D01*
X393300D01*
Y358241D01*
X386700D01*
G37*
G54D55*X400000Y354941D03*
G54D53*G36*
X386700Y368241D02*Y361641D01*
X393300D01*
Y368241D01*
X386700D01*
G37*
G54D55*X400000Y364941D03*
G54D53*G36*
X386700Y388241D02*Y381641D01*
X393300D01*
Y388241D01*
X386700D01*
G37*
G54D55*X400000Y384941D03*
G54D53*G36*
X619233Y407144D02*Y399944D01*
X626433D01*
Y407144D01*
X619233D01*
G37*
G54D56*X612991Y393702D03*
X622833Y383859D03*
X612991Y374017D03*
Y354331D03*
Y334646D03*
X622833Y364174D03*
Y344489D03*
Y324804D03*
G54D57*X632676Y423229D03*
G54D56*X612991Y314961D03*
Y295276D03*
Y275591D03*
Y255907D03*
Y236222D03*
X622833Y305119D03*
Y285434D03*
Y265749D03*
Y246064D03*
Y226379D03*
X612991Y216537D03*
X622833Y206694D03*
Y187009D03*
Y167324D03*
X612991Y196851D03*
Y177166D03*
Y157481D03*
Y137796D03*
Y118111D03*
X622833Y147639D03*
Y127954D03*
Y108269D03*
G54D57*X632676Y88583D03*
M02*
