M48
INCH
T34C0.042
T33C0.046
T32C0.040
%
T32
X004134Y037598
X004134Y001772
X009055Y034449
X009055Y032480
X009055Y030512
X009055Y028543
X009055Y026575
X009055Y024606
X009055Y022638
X009055Y020669
X009055Y018701
X009055Y016732
X009055Y014764
X009055Y012795
X009055Y010827
X009055Y008858
X009055Y006890
X009055Y004921
X011023Y033465
X011023Y031496
X011023Y029528
X011023Y027559
X011023Y025591
X011023Y023622
X011023Y021654
X011023Y019685
X011023Y017717
X011023Y015748
X011023Y013780
X011023Y011811
X011023Y009843
X011023Y007874
X011023Y005906
X013976Y037598
X013976Y001772
X015748Y033496
X015748Y029496
X015748Y025622
X015748Y021622
X015748Y013811
X015748Y009811
X016929Y033496
X016929Y029496
X016929Y025654
X016929Y021654
X016929Y019717
X016929Y015717
X016929Y013811
X016929Y009811
T34
X001575Y034685
X001575Y033685
X001575Y032685
X001575Y031685
X001575Y030685
X001575Y029685
X001575Y028685
X001575Y027685
X001575Y026685
X001575Y025685
X001575Y024685
X001575Y023685
X001575Y022685
X001575Y021685
X001575Y020685
X001575Y019685
X001575Y018685
X001575Y017685
X001575Y016685
X001575Y015685
X001575Y014685
X001575Y013685
X001575Y012685
X001575Y011685
X001575Y010685
X001575Y009685
X001575Y008685
X001575Y007685
X001575Y006685
X001575Y005685
X001575Y004685
X012886Y017717
X013886Y017717
T33
X012886Y033465
X012886Y029528
X012886Y025591
X012886Y021654
X012886Y013780
X012886Y009843
X013886Y033465
X013886Y029528
X013886Y025591
X013886Y021654
X013886Y013780
X013886Y009843
X014961Y005118
M30
