G04 start of page 3 for group 1 idx 1 *
G04 Title: 01.002.00.01.01.pcb, solder *
G04 Creator: pcb 4.1.2 *
G04 CreationDate: Sat Sep  1 10:17:40 2018 UTC *
G04 For: bert *
G04 Format: Gerber/RS-274X *
G04 PCB-Dimensions (mil): 1968.50 3937.01 *
G04 PCB-Coordinate-Origin: lower left *
%MOIN*%
%FSLAX25Y25*%
%LNGBL*%
%ADD30C,0.1260*%
%ADD29C,0.0420*%
%ADD28C,0.0460*%
%ADD27C,0.0400*%
%ADD26C,0.0720*%
%ADD25C,0.0650*%
%ADD24C,0.0750*%
%ADD23C,0.0001*%
%ADD22C,0.0600*%
%ADD21C,0.0250*%
G54D21*X110235Y236221D02*X16378D01*
X90551Y226378D02*X16221D01*
X110235Y216536D02*X16063D01*
X90551Y206693D02*X15906D01*
X16378Y236221D02*X15748Y236851D01*
X16221Y226378D02*X15748Y226851D01*
X16063Y216536D02*X15748Y216851D01*
X15906Y206693D02*X15748Y206851D01*
X110235Y196851D02*X15748D01*
X90551Y187008D02*X15905D01*
X110235Y177166D02*X16063D01*
X90551Y167323D02*X16220D01*
X110235Y157481D02*X16378D01*
X15905Y187008D02*X15748Y186851D01*
X16063Y177166D02*X15748Y176851D01*
X16220Y167323D02*X15748Y166851D01*
X16378Y157481D02*X15748Y156851D01*
X90551Y147638D02*X15748D01*
X17717Y137796D02*X15748Y135827D01*
X17717Y127953D02*X15748Y125985D01*
X17717Y118111D02*X15748Y116142D01*
X17717Y108268D02*X15748Y106300D01*
X110236Y137796D02*X17717D01*
X90551Y127953D02*X17717D01*
X110236Y118111D02*X17717D01*
X90551Y108268D02*X17717D01*
X110236Y98426D02*X17717D01*
X90551Y88583D02*X17717D01*
X127953Y57087D02*Y98426D01*
X116142Y68898D02*X120079Y72835D01*
X17717Y98426D02*X15748Y96457D01*
X45276Y49213D02*X43307Y47244D01*
X15748D01*
X17717Y88583D02*X15748Y86615D01*
X17717Y78741D02*X15748Y76772D01*
X17717Y68898D02*X15748Y66930D01*
X110236Y78741D02*X17717D01*
X45276Y49213D02*X120079D01*
X127953Y57087D01*
X17717Y68898D02*X116142D01*
X120079Y72835D02*Y110237D01*
X124016Y114174D01*
X90551Y344488D02*X53150D01*
X110235Y334646D02*X53150D01*
X90551Y324803D02*X53150D01*
X110235Y314961D02*X53150D01*
X110235Y295276D02*X53150D01*
X53150Y314961D02*X51181Y316930D01*
X90551Y305118D02*X53150D01*
X51181Y307087D01*
X53150Y295276D02*X51181Y297244D01*
X53150Y344488D02*X51181Y346457D01*
X16142D01*
X15748Y346851D01*
X53150Y334646D02*X51181Y336615D01*
X15984D01*
X15748Y336851D01*
X53150Y324803D02*X51181Y326772D01*
X15827D01*
X51181Y316930D02*X15827D01*
X15748Y316851D01*
X51181Y307087D02*X15984D01*
X15748Y306851D01*
X15827Y326772D02*X15748Y326851D01*
X51181Y297244D02*X16142D01*
X51181Y287402D02*X16299D01*
X15748Y286851D01*
X51181Y277559D02*X16457D01*
X15748Y276851D01*
X16142Y297244D02*X15748Y296851D01*
X90551Y285433D02*X53150D01*
X51181Y287402D01*
X53150Y275591D02*X51181Y277559D01*
X110235Y275591D02*X53150D01*
X90551Y265748D02*X16851D01*
X110235Y255906D02*X16693D01*
X16851Y265748D02*X15748Y266851D01*
X16693Y255906D02*X15748Y256851D01*
X90551Y246063D02*X16536D01*
X15748Y246851D01*
X169291Y334646D02*Y340552D01*
X165354Y344489D01*
X143701D01*
X139764Y340552D01*
Y334646D01*
X157480Y295276D02*X151575D01*
X149606Y297244D01*
Y303150D01*
X147638Y305119D01*
X131890D01*
X129921Y303150D01*
Y295276D01*
X169291Y255906D02*Y261811D01*
X167323Y263780D01*
X141732D01*
X139764Y261811D01*
Y255906D01*
X157480Y216536D02*X151575D01*
X149606Y218504D01*
Y224410D01*
X169291Y196851D02*X147638D01*
X139764Y188977D01*
Y177166D01*
X147638Y226378D02*X131890D01*
X129921Y224410D01*
Y216536D01*
X149606Y224410D02*X147638Y226378D01*
X157480Y138111D02*Y143701D01*
X153543Y147638D01*
X131890D01*
X129921Y145670D01*
Y137796D01*
X169291Y98426D02*Y104331D01*
X167323Y106300D01*
X141732D01*
X139764Y104331D01*
X124016Y114174D02*X135827D01*
X139764Y118111D01*
Y104331D02*Y98426D01*
Y118111D02*Y137796D01*
G54D22*X157480Y334961D03*
G54D23*G36*
X135108Y338396D02*Y330896D01*
X142608D01*
Y338396D01*
X135108D01*
G37*
G54D24*X128858Y334646D03*
G54D23*G36*
X135108Y299026D02*Y291526D01*
X142608D01*
Y299026D01*
X135108D01*
G37*
G54D24*X128858Y295276D03*
G54D22*X169291Y294961D03*
Y334961D03*
X157480Y294961D03*
Y256221D03*
Y216221D03*
G54D25*X139764Y375985D03*
G54D23*G36*
X135108Y259656D02*Y252156D01*
X142608D01*
Y259656D01*
X135108D01*
G37*
G54D24*X128858Y255906D03*
G54D25*X41339Y375985D03*
G54D23*G36*
X12148Y350451D02*Y343251D01*
X19348D01*
Y350451D01*
X12148D01*
G37*
G54D26*X15748Y336851D03*
Y326851D03*
Y316851D03*
Y306851D03*
Y296851D03*
Y286851D03*
Y276851D03*
Y266851D03*
Y256851D03*
Y246851D03*
Y236851D03*
Y226851D03*
Y216851D03*
G54D22*X169291Y157166D03*
Y138111D03*
X157480D03*
X169291Y197166D03*
Y216536D03*
Y256536D03*
G54D23*G36*
X135258Y180766D02*Y173566D01*
X142458D01*
Y180766D01*
X135258D01*
G37*
G54D26*X128858Y177166D03*
G54D23*G36*
X135108Y220286D02*Y212786D01*
X142608D01*
Y220286D01*
X135108D01*
G37*
G54D24*X128858Y216536D03*
G54D22*X169291Y98111D03*
X157480D03*
G54D23*G36*
X135108Y102176D02*Y94676D01*
X142608D01*
Y102176D01*
X135108D01*
G37*
G54D24*X128858Y98426D03*
G54D23*G36*
X135108Y141546D02*Y134046D01*
X142608D01*
Y141546D01*
X135108D01*
G37*
G54D24*X149606Y51181D03*
X128858Y137796D03*
G54D23*G36*
X87301Y347738D02*Y341238D01*
X93801D01*
Y347738D01*
X87301D01*
G37*
G54D25*X110235Y334646D03*
X90551Y324803D03*
Y305118D03*
Y285433D03*
X110235Y314961D03*
Y295276D03*
Y275591D03*
Y255906D03*
Y236221D03*
Y216536D03*
X90551Y265748D03*
Y246063D03*
Y226378D03*
X110235Y196851D03*
Y177166D03*
Y157481D03*
Y137796D03*
X90551Y206693D03*
Y187008D03*
Y167323D03*
Y147638D03*
Y127953D03*
Y108268D03*
Y88583D03*
Y68898D03*
X110235Y118111D03*
Y98426D03*
Y78741D03*
Y59056D03*
X41339Y17717D03*
X139764D03*
X90551Y49213D03*
G54D26*X15748Y206851D03*
Y196851D03*
Y186851D03*
Y176851D03*
Y166851D03*
Y156851D03*
Y146851D03*
Y136851D03*
Y126851D03*
Y116851D03*
Y106851D03*
Y96851D03*
Y86851D03*
Y76851D03*
Y66851D03*
Y56851D03*
Y46851D03*
G54D27*G54D28*G54D27*G54D28*G54D27*G54D29*G54D27*G54D29*G54D28*G54D27*G54D28*G54D27*G54D30*G54D27*G54D30*G54D29*M02*
