G04 start of page 8 for group -4062 idx -4062 *
G04 Title: 01.002.00.01.01.pcb, soldermask *
G04 Creator: pcb 4.2.0 *
G04 CreationDate: Wed Mar  6 22:04:09 2019 UTC *
G04 For: bert *
G04 Format: Gerber/RS-274X *
G04 PCB-Dimensions (mil): 1968.50 3937.01 *
G04 PCB-Coordinate-Origin: lower left *
%MOIN*%
%FSLAX25Y25*%
%LNGBS*%
%ADD54C,0.1260*%
%ADD53C,0.0700*%
%ADD52C,0.0750*%
%ADD51C,0.0780*%
%ADD50C,0.0710*%
%ADD49C,0.0950*%
%ADD48C,0.0001*%
%ADD47C,0.0660*%
G54D47*X157480Y334961D03*
G54D48*G36*
X134108Y339396D02*Y329896D01*
X143608D01*
Y339396D01*
X134108D01*
G37*
G54D49*X128858Y334646D03*
G54D48*G36*
X134108Y300026D02*Y290526D01*
X143608D01*
Y300026D01*
X134108D01*
G37*
G54D49*X128858Y295276D03*
G54D47*X169291Y294961D03*
Y334961D03*
X157480Y294961D03*
Y256221D03*
Y216221D03*
G54D50*X139764Y375985D03*
G54D48*G36*
X134108Y260656D02*Y251156D01*
X143608D01*
Y260656D01*
X134108D01*
G37*
G54D49*X128858Y255906D03*
G54D50*X41339Y375985D03*
G54D48*G36*
X11848Y350751D02*Y342951D01*
X19648D01*
Y350751D01*
X11848D01*
G37*
G54D51*X15748Y336851D03*
Y326851D03*
Y316851D03*
Y306851D03*
Y296851D03*
Y286851D03*
Y276851D03*
Y266851D03*
Y256851D03*
Y246851D03*
Y236851D03*
Y226851D03*
Y216851D03*
G54D47*X169291Y157166D03*
Y138111D03*
X157480D03*
X169291Y197166D03*
Y216536D03*
Y256536D03*
G54D48*G36*
X134958Y181066D02*Y173266D01*
X142758D01*
Y181066D01*
X134958D01*
G37*
G54D51*X128858Y177166D03*
G54D48*G36*
X134108Y221286D02*Y211786D01*
X143608D01*
Y221286D01*
X134108D01*
G37*
G54D49*X128858Y216536D03*
G54D47*X169291Y98111D03*
X157480D03*
G54D48*G36*
X134108Y103176D02*Y93676D01*
X143608D01*
Y103176D01*
X134108D01*
G37*
G54D49*X128858Y98426D03*
G54D48*G36*
X134108Y142546D02*Y133046D01*
X143608D01*
Y142546D01*
X134108D01*
G37*
G54D52*X149606Y51181D03*
G54D49*X128858Y137796D03*
G54D48*G36*
X87051Y347988D02*Y340988D01*
X94051D01*
Y347988D01*
X87051D01*
G37*
G54D53*X110235Y334646D03*
X90551Y324803D03*
Y305118D03*
Y285433D03*
G54D54*X100394Y364174D03*
G54D53*X110235Y314961D03*
Y295276D03*
Y275591D03*
Y255906D03*
Y236221D03*
Y216536D03*
X90551Y265748D03*
Y246063D03*
Y226378D03*
X110235Y196851D03*
Y177166D03*
Y157481D03*
Y137796D03*
X90551Y206693D03*
Y187008D03*
Y167323D03*
Y147638D03*
Y127953D03*
Y108268D03*
Y88583D03*
Y68898D03*
X110235Y118111D03*
Y98426D03*
Y78741D03*
Y59056D03*
G54D50*X41339Y17717D03*
X139764D03*
G54D53*X90551Y49213D03*
G54D54*X100394Y29528D03*
G54D51*X15748Y206851D03*
Y196851D03*
Y186851D03*
Y176851D03*
Y166851D03*
Y156851D03*
Y146851D03*
Y136851D03*
Y126851D03*
Y116851D03*
Y106851D03*
Y96851D03*
Y86851D03*
Y76851D03*
Y66851D03*
Y56851D03*
Y46851D03*
M02*
