G04 start of page 3 for group 1 idx 1 *
G04 Title: 01.003.00.01.01.pcb, bottom *
G04 Creator: pcb 4.2.0 *
G04 CreationDate: Sat Aug 10 16:27:17 2019 UTC *
G04 For: bert *
G04 Format: Gerber/RS-274X *
G04 PCB-Dimensions (mil): 6692.91 4330.71 *
G04 PCB-Coordinate-Origin: lower left *
%MOIN*%
%FSLAX25Y25*%
%LNGBL*%
%ADD39C,0.1100*%
%ADD38C,0.0520*%
%ADD37C,0.0380*%
%ADD36C,0.0350*%
%ADD35C,0.0460*%
%ADD34C,0.1460*%
%ADD33C,0.0720*%
%ADD32C,0.0600*%
%ADD31C,0.0700*%
%ADD30C,0.0001*%
%ADD29C,0.0750*%
%ADD28C,0.2760*%
%ADD27C,0.0650*%
%ADD26C,0.0400*%
%ADD25C,0.0250*%
G54D25*X401397Y364174D02*X400000Y365571D01*
X401239Y354332D02*X400000Y355571D01*
X401082Y344489D02*X400000Y345571D01*
X400924Y334647D02*X400000Y335571D01*
X400767Y324804D02*X400000Y325571D01*
Y345571D02*X625000D01*
X390000D02*X65926D01*
X390000Y365571D02*X65926D01*
X390000Y355571D02*X65926D01*
X64961Y356536D01*
X390000Y335571D02*X65926D01*
X390000Y325571D02*X65926D01*
X390000Y315571D02*X65926D01*
X390000Y305571D02*X65926D01*
X400000Y365571D02*X622500D01*
X400000Y355571D02*X610000D01*
X612500Y353071D01*
X400000Y335571D02*X612500D01*
X400000Y325571D02*X625000D01*
X400000Y315571D02*X612500D01*
X400000Y305571D02*X622500D01*
X400000Y295571D02*X612500D01*
X400000Y285571D02*X622500D01*
X400000Y275571D02*X615000D01*
X400000Y265571D02*X622500D01*
X400000Y255571D02*X612500D01*
X400000Y245571D02*X622500D01*
X400000Y235571D02*X612500D01*
X400000Y225571D02*X622500D01*
X400000Y215571D02*X612500D01*
X400000Y205571D02*X622500D01*
X400000Y195571D02*X612500D01*
X400000Y185571D02*X622500D01*
X400000Y175571D02*X612500D01*
X400000Y165571D02*X620000D01*
X612500Y175571D02*X615000Y178071D01*
X620000Y165571D02*X622500Y168071D01*
X400000Y155571D02*X610000D01*
X400000Y145571D02*X622500D01*
X620000Y125571D02*X622500Y128071D01*
X610000Y155571D02*X612500Y158071D01*
X400000Y135571D02*X610000D01*
X612500Y138071D01*
X400000Y125571D02*X620000D01*
X400000Y115571D02*X610000D01*
X612500Y118071D01*
G54D26*Y98071D02*X545000D01*
X622500Y108071D02*X344941D01*
X455000Y98071D02*X67500D01*
X622500Y88071D02*X400000D01*
X344941Y108071D02*X344744Y108268D01*
X254744D02*X67697D01*
X65000Y105571D01*
X67500Y68071D02*X65000Y65571D01*
X67500Y88071D02*X65000Y85571D01*
X67500Y98071D02*X65000Y95571D01*
X390000Y68071D02*X67500D01*
X390000Y88071D02*X67500D01*
X622500Y68071D02*X400000D01*
G54D25*X58465Y76536D02*X388465D01*
X390000Y78071D01*
X58465Y76536D02*X55000Y73071D01*
Y63071D01*
X60000Y58071D02*X274607D01*
X283465Y49213D01*
X65926Y365571D02*X64961Y366536D01*
X65926Y345571D02*X64961Y346536D01*
X65926Y335571D02*X64961Y336536D01*
X65926Y325571D02*X64961Y326536D01*
X65926Y315571D02*X64961Y316536D01*
X65926Y305571D02*X64961Y306536D01*
X65926Y295571D02*X64961Y296536D01*
X65926Y285571D02*X64961Y286536D01*
X65926Y275571D02*X64961Y276536D01*
X65926Y265571D02*X64961Y266536D01*
X390000Y295571D02*X65926D01*
X390000Y285571D02*X65926D01*
X390000Y275571D02*X65926D01*
X390000Y265571D02*X65926D01*
X390000Y255571D02*X65926D01*
X390000Y245571D02*X65926D01*
X390000Y235571D02*X65926D01*
X390000Y225571D02*X65926D01*
X390000Y215571D02*X65926D01*
X390000Y205571D02*X65926D01*
X390000Y195571D02*X65926D01*
X390000Y185571D02*X65926D01*
X390000Y175571D02*X65926D01*
X390000Y165571D02*X65926D01*
X390000Y155571D02*X65926D01*
X390000Y145571D02*X65926D01*
X390000Y135571D02*X65926D01*
X390000Y125571D02*X65926D01*
X390000Y115571D02*X65926D01*
Y255571D02*X64961Y256536D01*
X65926Y245571D02*X64961Y246536D01*
X65926Y235571D02*X64961Y236536D01*
X65926Y225571D02*X64961Y226536D01*
X65926Y215571D02*X64961Y216536D01*
X65926Y205571D02*X64961Y206536D01*
X65926Y195571D02*X64961Y196536D01*
X65926Y185571D02*X64961Y186536D01*
X65926Y175571D02*X64961Y176536D01*
X65926Y165571D02*X64961Y166536D01*
X65926Y155571D02*X64961Y156536D01*
X65926Y145571D02*X64961Y146536D01*
X65926Y135571D02*X64961Y136536D01*
X65926Y125571D02*X64961Y126536D01*
X65926Y115571D02*X64961Y116536D01*
X55000Y63071D02*X60000Y58071D01*
G54D27*X118110Y39370D03*
G54D28*X334646Y49213D03*
G54D29*X283465D03*
G54D30*G36*
X387000Y178571D02*Y172571D01*
X393000D01*
Y178571D01*
X387000D01*
G37*
G36*
Y158571D02*Y152571D01*
X393000D01*
Y158571D01*
X387000D01*
G37*
G36*
Y168571D02*Y162571D01*
X393000D01*
Y168571D01*
X387000D01*
G37*
G36*
X341244Y111768D02*Y104768D01*
X348244D01*
Y111768D01*
X341244D01*
G37*
G36*
X541500Y101571D02*Y94571D01*
X548500D01*
Y101571D01*
X541500D01*
G37*
G54D31*X455000Y98071D03*
X254744Y108268D03*
G54D30*G36*
X387000Y81071D02*Y75071D01*
X393000D01*
Y81071D01*
X387000D01*
G37*
G36*
Y91071D02*Y85071D01*
X393000D01*
Y91071D01*
X387000D01*
G37*
G36*
Y71071D02*Y65071D01*
X393000D01*
Y71071D01*
X387000D01*
G37*
G36*
Y138571D02*Y132571D01*
X393000D01*
Y138571D01*
X387000D01*
G37*
G36*
Y118571D02*Y112571D01*
X393000D01*
Y118571D01*
X387000D01*
G37*
G36*
Y148571D02*Y142571D01*
X393000D01*
Y148571D01*
X387000D01*
G37*
G36*
Y128571D02*Y122571D01*
X393000D01*
Y128571D01*
X387000D01*
G37*
G36*
Y238571D02*Y232571D01*
X393000D01*
Y238571D01*
X387000D01*
G37*
G36*
Y218571D02*Y212571D01*
X393000D01*
Y218571D01*
X387000D01*
G37*
G36*
Y198571D02*Y192571D01*
X393000D01*
Y198571D01*
X387000D01*
G37*
G36*
Y228571D02*Y222571D01*
X393000D01*
Y228571D01*
X387000D01*
G37*
G36*
Y208571D02*Y202571D01*
X393000D01*
Y208571D01*
X387000D01*
G37*
G36*
Y188571D02*Y182571D01*
X393000D01*
Y188571D01*
X387000D01*
G37*
G54D32*X400000Y235571D03*
Y215571D03*
Y195571D03*
Y225571D03*
Y205571D03*
Y185571D03*
Y115571D03*
Y78071D03*
Y125571D03*
Y88071D03*
Y68071D03*
G54D30*G36*
X387000Y248571D02*Y242571D01*
X393000D01*
Y248571D01*
X387000D01*
G37*
G54D32*X400000Y245571D03*
Y175571D03*
Y155571D03*
Y135571D03*
Y165571D03*
Y145571D03*
G54D27*X196850Y39370D03*
G54D32*X64961Y206536D03*
Y196536D03*
Y186536D03*
Y176536D03*
Y166536D03*
Y156536D03*
Y146536D03*
Y136536D03*
Y126536D03*
Y116536D03*
Y106536D03*
Y96536D03*
Y86536D03*
Y76536D03*
Y66536D03*
G54D27*X118110Y393701D03*
G54D30*G36*
X61961Y369536D02*Y363536D01*
X67961D01*
Y369536D01*
X61961D01*
G37*
G54D32*X64961Y356536D03*
Y346536D03*
Y336536D03*
Y326536D03*
G54D30*G36*
X387000Y358571D02*Y352571D01*
X393000D01*
Y358571D01*
X387000D01*
G37*
G54D32*X400000Y355571D03*
G54D30*G36*
X387000Y368571D02*Y362571D01*
X393000D01*
Y368571D01*
X387000D01*
G37*
G54D32*X400000Y365571D03*
G54D30*G36*
X387000Y298571D02*Y292571D01*
X393000D01*
Y298571D01*
X387000D01*
G37*
G36*
Y278571D02*Y272571D01*
X393000D01*
Y278571D01*
X387000D01*
G37*
G36*
Y258571D02*Y252571D01*
X393000D01*
Y258571D01*
X387000D01*
G37*
G36*
Y308571D02*Y302571D01*
X393000D01*
Y308571D01*
X387000D01*
G37*
G36*
Y288571D02*Y282571D01*
X393000D01*
Y288571D01*
X387000D01*
G37*
G36*
Y268571D02*Y262571D01*
X393000D01*
Y268571D01*
X387000D01*
G37*
G54D32*X400000Y295571D03*
Y275571D03*
Y255571D03*
Y305571D03*
Y285571D03*
Y265571D03*
G54D30*G36*
X387000Y338571D02*Y332571D01*
X393000D01*
Y338571D01*
X387000D01*
G37*
G54D32*X400000Y335571D03*
G54D30*G36*
X387000Y318571D02*Y312571D01*
X393000D01*
Y318571D01*
X387000D01*
G37*
G54D32*X400000Y315571D03*
G54D30*G36*
X387000Y328571D02*Y322571D01*
X393000D01*
Y328571D01*
X387000D01*
G37*
G54D32*X400000Y325571D03*
G54D30*G36*
X387000Y348571D02*Y342571D01*
X393000D01*
Y348571D01*
X387000D01*
G37*
G54D32*X400000Y345571D03*
G54D27*X196850Y393701D03*
G54D32*X64961Y316536D03*
Y306536D03*
Y296536D03*
Y286536D03*
Y276536D03*
Y266536D03*
Y256536D03*
Y246536D03*
Y236536D03*
Y226536D03*
Y216536D03*
G54D30*G36*
X619233Y367774D02*Y360574D01*
X626433D01*
Y367774D01*
X619233D01*
G37*
G54D33*X612991Y354332D03*
X622833Y344489D03*
Y324804D03*
Y305119D03*
X612991Y334647D03*
Y314961D03*
Y295276D03*
Y275591D03*
Y255906D03*
Y236221D03*
X622833Y285434D03*
Y265749D03*
Y246064D03*
X612991Y216537D03*
Y196852D03*
Y177167D03*
X622833Y226379D03*
Y206694D03*
Y187009D03*
Y167324D03*
X612991Y157481D03*
Y137796D03*
Y118111D03*
Y98426D03*
Y78741D03*
X622833Y147639D03*
Y127954D03*
Y108269D03*
Y88584D03*
Y68899D03*
G54D34*G54D26*G54D34*G54D35*G54D36*G54D26*G54D36*G54D26*G54D37*G54D34*G54D26*G54D37*G54D36*G54D34*G54D26*G54D37*G54D38*G54D39*G54D38*G54D39*M02*
