G04 start of page 8 for group -4062 idx -4062 *
G04 Title: 01.002.00.01.01.pcb, soldermask *
G04 Creator: pcb 4.2.1 *
G04 CreationDate: Tue Feb  4 16:21:56 2020 UTC *
G04 For: bert *
G04 Format: Gerber/RS-274X *
G04 PCB-Dimensions (mil): 2559.06 4330.71 *
G04 PCB-Coordinate-Origin: lower left *
%MOIN*%
%FSLAX25Y25*%
%LNGBS*%
%ADD54C,0.0750*%
%ADD53C,0.0780*%
%ADD52C,0.1260*%
%ADD51C,0.0700*%
%ADD50C,0.0710*%
%ADD49C,0.0950*%
%ADD48C,0.0001*%
%ADD47C,0.0660*%
G54D47*X167322Y364489D03*
G54D48*G36*
X143950Y368924D02*Y359424D01*
X153450D01*
Y368924D01*
X143950D01*
G37*
G54D49*X138700Y364174D03*
G54D50*X165354Y403544D03*
G54D48*G36*
X96893Y377516D02*Y370516D01*
X103893D01*
Y377516D01*
X96893D01*
G37*
G54D51*X120077Y364174D03*
G54D52*X110236Y393702D03*
G54D50*X51181Y403544D03*
G54D48*G36*
X21690Y380279D02*Y372479D01*
X29490D01*
Y380279D01*
X21690D01*
G37*
G54D53*X25590Y366379D03*
Y356379D03*
Y346379D03*
Y336379D03*
Y326379D03*
Y316379D03*
Y306379D03*
Y296379D03*
Y286379D03*
Y276379D03*
Y266379D03*
Y256379D03*
Y246379D03*
Y236379D03*
Y226379D03*
Y216379D03*
G54D47*X179133Y324489D03*
Y364489D03*
X167322Y324489D03*
Y285749D03*
Y245749D03*
X179133Y226694D03*
Y246064D03*
Y286064D03*
G54D48*G36*
X143950Y329554D02*Y320054D01*
X153450D01*
Y329554D01*
X143950D01*
G37*
G54D49*X138700Y324804D03*
G54D48*G36*
X143950Y290184D02*Y280684D01*
X153450D01*
Y290184D01*
X143950D01*
G37*
G54D49*X138700Y285434D03*
G54D48*G36*
X143950Y250814D02*Y241314D01*
X153450D01*
Y250814D01*
X143950D01*
G37*
G54D49*X138700Y246064D03*
G54D51*X100393Y354331D03*
Y334646D03*
Y314961D03*
X120077Y344489D03*
Y324804D03*
Y305119D03*
Y285434D03*
Y265749D03*
Y246064D03*
X100393Y295276D03*
Y275591D03*
Y255906D03*
Y236221D03*
X120077Y226379D03*
X100393Y216536D03*
G54D50*X51181Y49213D03*
X165354D03*
G54D52*X110236Y59056D03*
G54D53*X25590Y206379D03*
Y196379D03*
Y186379D03*
Y176379D03*
Y166379D03*
Y156379D03*
Y146379D03*
Y136379D03*
Y126379D03*
Y116379D03*
Y106379D03*
Y96379D03*
Y86379D03*
Y76379D03*
G54D47*X179133Y186694D03*
Y167639D03*
X167322D03*
G54D48*G36*
X144800Y210594D02*Y202794D01*
X152600D01*
Y210594D01*
X144800D01*
G37*
G54D53*X138700Y206694D03*
G54D51*X120077Y206694D03*
X100393Y196851D03*
X120077Y187009D03*
X100393Y177166D03*
G54D48*G36*
X143950Y172074D02*Y162574D01*
X153450D01*
Y172074D01*
X143950D01*
G37*
G54D47*X179133Y127639D03*
X167322D03*
G54D48*G36*
X143950Y132704D02*Y123204D01*
X153450D01*
Y132704D01*
X143950D01*
G37*
G54D49*X138700Y127954D03*
G54D51*X120077Y127954D03*
G54D49*X138700Y167324D03*
G54D51*X120077D03*
X100393Y157481D03*
X120077Y147639D03*
G54D54*X159448Y80709D03*
G54D51*X100393Y137796D03*
Y118111D03*
X120077Y108269D03*
X100393Y98426D03*
Y78741D03*
X120077Y88584D03*
M02*
